<?xml version="1.0" encoding="utf-8"?>
<!-- Generator: Adobe Illustrator 16.0.0, SVG Export Plug-In . SVG Version: 6.00 Build 0)  -->
<!DOCTYPE svg PUBLIC "-//W3C//DTD SVG 1.1//EN" "http://www.w3.org/Graphics/SVG/1.1/DTD/svg11.dtd">
<svg version="1.1" id="Layer_1" xmlns="http://www.w3.org/2000/svg" xmlns:xlink="http://www.w3.org/1999/xlink" x="0px" y="0px"
	 width="440px" height="226.77px" viewBox="0 0 440 226.77" enable-background="new 0 0 440 226.77" xml:space="preserve">
<g>
	<g>
		<g>
			<path fill="#683B11" d="M294.943,110.341l-0.625-1.172l-6.568,4.234V89.888l-14.808-6.563c-0.598,0.895-0.752,8.354-0.71,17.392
				l-7.863-9.138l-5.82-1.966l13.749,18.132c0.181,13.8,0.646,28.291,0.646,28.291l-2.081,9.304h16.889v-13.298v-14.799
				L294.943,110.341z"/>
		</g>
		<g>
			<path fill="#FBC779" d="M294.189,109.377c0,0-0.138,0.971,0.484,1.015c0.623,0.043,0.656-0.793,0.459-1.015
				C294.936,109.156,294.191,108.967,294.189,109.377z"/>
		</g>
		<g>
			<path fill="#00A070" d="M295.844,58.902c-0.646,0-1.285,0.033-1.917,0.091c-2.517-4.409-7.258-7.383-12.697-7.383
				c-7.755,0-14.097,6.04-14.584,13.672c-0.084-0.002-0.166-0.007-0.252-0.007c-2.717,0-5.252,0.755-7.432,2.047
				c-1.141-0.295-2.33-0.469-3.563-0.469c-7.847,0-14.205,6.359-14.205,14.205c0,7.848,6.358,14.206,14.205,14.206
				c2.292,0,4.448-0.555,6.365-1.519c1.456,0.486,3.01,0.761,4.63,0.761c4.318,0,8.196-1.872,10.872-4.849
				c3.517,6.673,10.515,11.224,18.578,11.224c11.593,0,20.991-9.396,20.991-20.99C316.835,68.298,307.437,58.902,295.844,58.902z"/>
		</g>
	</g>
	<g>
		<g>
			<polygon fill="#683B11" points="159.984,116.527 167.842,111.46 168.467,112.632 158.76,121.944 			"/>
		</g>
		<g>
			<path fill="#683B11" d="M146.466,85.615c-0.596,0.895-0.751,8.354-0.709,17.392l-7.864-9.138l-5.819-1.966l13.749,18.132
				c0.181,13.8,0.645,28.291,0.645,28.291l-2.081,9.304h16.89v-13.298V92.179L146.466,85.615z"/>
		</g>
		<g>
			<path fill="#FBC779" d="M167.713,111.668c0,0-0.138,0.971,0.484,1.014c0.623,0.044,0.655-0.792,0.459-1.014
				S167.716,111.258,167.713,111.668z"/>
		</g>
		<g>
			<path fill="#00A070" d="M169.368,61.193c-0.646,0-1.285,0.033-1.917,0.091c-2.518-4.409-7.258-7.383-12.697-7.383
				c-7.755,0-14.097,6.04-14.584,13.672c-0.084-0.002-0.166-0.007-0.252-0.007c-2.717,0-5.252,0.755-7.432,2.047
				c-1.142-0.295-2.331-0.469-3.563-0.469c-7.847,0-14.206,6.359-14.206,14.205c0,7.848,6.359,14.206,14.206,14.206
				c2.292,0,4.449-0.555,6.365-1.519c1.457,0.486,3.01,0.761,4.63,0.761c4.318,0,8.196-1.872,10.872-4.849
				c3.516,6.673,10.514,11.224,18.578,11.224c11.593,0,20.991-9.396,20.991-20.99C190.36,70.589,180.961,61.193,169.368,61.193z"/>
		</g>
	</g>
	<g>
		<g>
			<g>
				<path fill="#3C3C3B" d="M228.145,163.143c-5.572,0-10.106-4.534-10.106-10.106s4.534-10.106,10.106-10.106
					s10.105,4.534,10.105,10.106S233.717,163.143,228.145,163.143z M228.145,145.93c-3.919,0-7.106,3.188-7.106,7.106
					s3.188,7.106,7.106,7.106c3.918,0,7.105-3.188,7.105-7.106S232.063,145.93,228.145,145.93z"/>
			</g>
			<g>
				<circle fill="#3C3C3B" cx="228.144" cy="152.669" r="3.263"/>
			</g>
		</g>
		<g>
			<g>
				<path fill="#3C3C3B" d="M250.789,163.143c-5.573,0-10.107-4.534-10.107-10.106s4.534-10.106,10.107-10.106
					c5.572,0,10.104,4.534,10.104,10.106S256.362,163.143,250.789,163.143z M250.789,145.93c-3.919,0-7.107,3.188-7.107,7.106
					s3.188,7.106,7.107,7.106c3.918,0,7.104-3.188,7.104-7.106S254.707,145.93,250.789,145.93z"/>
			</g>
			<g>
				<circle fill="#3C3C3B" cx="250.788" cy="152.669" r="3.263"/>
			</g>
		</g>
	</g>
	<g>
		<g>
			<g>
				<path fill="#3C3C3B" d="M166.502,163.143c-5.573,0-10.107-4.534-10.107-10.106s4.534-10.106,10.107-10.106
					c5.572,0,10.104,4.534,10.104,10.106S172.074,163.143,166.502,163.143z M166.502,145.93c-3.919,0-7.107,3.188-7.107,7.106
					s3.188,7.106,7.107,7.106c3.918,0,7.104-3.188,7.104-7.106S170.42,145.93,166.502,145.93z"/>
			</g>
			<g>
				<circle fill="#3C3C3B" cx="166.501" cy="152.669" r="3.263"/>
			</g>
		</g>
		<g>
			<g>
				<path fill="#3C3C3B" d="M189.147,163.143c-5.572,0-10.106-4.534-10.106-10.106s4.534-10.106,10.106-10.106
					s10.105,4.534,10.105,10.106S194.719,163.143,189.147,163.143z M189.147,145.93c-3.919,0-7.106,3.188-7.106,7.106
					s3.188,7.106,7.106,7.106c3.918,0,7.105-3.188,7.105-7.106S193.065,145.93,189.147,145.93z"/>
			</g>
			<g>
				<circle fill="#3C3C3B" cx="189.146" cy="152.669" r="3.263"/>
			</g>
		</g>
	</g>
	<g>
		<g>
			<g>
				<path fill="#3C3C3B" d="M97.64,162.969c-5.572,0-10.106-4.533-10.106-10.105s4.534-10.106,10.106-10.106
					s10.105,4.534,10.105,10.106S103.212,162.969,97.64,162.969z M97.64,145.756c-3.919,0-7.106,3.188-7.106,7.106
					s3.188,7.105,7.106,7.105c3.918,0,7.105-3.188,7.105-7.105S101.558,145.756,97.64,145.756z"/>
			</g>
			<g>
				<circle fill="#3C3C3B" cx="97.639" cy="152.495" r="3.263"/>
			</g>
		</g>
		<g>
			<g>
				<path fill="#3C3C3B" d="M120.284,162.969c-5.573,0-10.107-4.533-10.107-10.105s4.534-10.106,10.107-10.106
					c5.571,0,10.104,4.534,10.104,10.106S125.857,162.969,120.284,162.969z M120.284,145.756c-3.919,0-7.107,3.188-7.107,7.106
					s3.188,7.105,7.107,7.105c3.918,0,7.104-3.188,7.104-7.105S124.202,145.756,120.284,145.756z"/>
			</g>
			<g>
				<circle fill="#3C3C3B" cx="120.283" cy="152.495" r="3.263"/>
			</g>
		</g>
	</g>
	<g>
		<g>
			<g>
				<path fill="#3C3C3B" d="M35.997,162.969c-5.573,0-10.107-4.533-10.107-10.105s4.534-10.106,10.107-10.106
					c5.572,0,10.104,4.534,10.104,10.106S41.57,162.969,35.997,162.969z M35.997,145.756c-3.919,0-7.107,3.188-7.107,7.106
					s3.188,7.105,7.107,7.105c3.918,0,7.104-3.188,7.104-7.105S39.915,145.756,35.997,145.756z"/>
			</g>
			<g>
				<circle fill="#3C3C3B" cx="35.996" cy="152.495" r="3.263"/>
			</g>
		</g>
		<g>
			<g>
				<path fill="#3C3C3B" d="M58.642,162.969c-5.572,0-10.106-4.533-10.106-10.105s4.534-10.106,10.106-10.106
					s10.105,4.534,10.105,10.106S64.214,162.969,58.642,162.969z M58.642,145.756c-3.919,0-7.106,3.188-7.106,7.106
					s3.188,7.105,7.106,7.105c3.918,0,7.105-3.188,7.105-7.105S62.56,145.756,58.642,145.756z"/>
			</g>
			<g>
				<circle fill="#3C3C3B" cx="58.641" cy="152.495" r="3.263"/>
			</g>
		</g>
	</g>
	<g>
		<path fill="#1D3765" d="M284.67,143.083h-21.158c0-10.858,0-28.617,0-32.702c0-5.981-4.117-5.12-4.117-5.12
			s-97.239,0.165-101.5,0.165c-4.26,0-5.087,2.604-5.087,2.604s0,28.451,0,35.053h-19.316c0-10.868,0-28.525,0-32.599
			c0-5.982-4.117-5.12-4.117-5.12s-97.24,0.165-101.5,0.165s-5.087,2.604-5.087,2.604s0,35.333,0,36.399v9.961h110.704v-2.701
			c0,0,0-1.335,0-3.515h19.316v6.111h110.704v-2.7c0,0,0-1.29,0-3.411h21.158V143.083z"/>
	</g>
	<g>
		<g>
			<path fill="#3C3C3B" d="M314.814,163.071c-5.572,0-10.106-4.534-10.106-10.106c0-5.571,4.534-10.105,10.106-10.105
				s10.105,4.534,10.105,10.105C324.919,158.536,320.386,163.071,314.814,163.071z M314.814,145.858
				c-3.919,0-7.106,3.188-7.106,7.105s3.188,7.106,7.106,7.106c3.918,0,7.105-3.188,7.105-7.106S318.732,145.858,314.814,145.858z"
				/>
		</g>
		<g>
			<circle fill="#3C3C3B" cx="314.813" cy="152.597" r="3.263"/>
		</g>
	</g>
	<g>
		<g>
			<path fill="#3C3C3B" d="M293.278,163.071c-5.573,0-10.107-4.534-10.107-10.106c0-5.571,4.534-10.105,10.107-10.105
				c5.571,0,10.104,4.534,10.104,10.105C303.382,158.536,298.85,163.071,293.278,163.071z M293.278,145.858
				c-3.92,0-7.107,3.188-7.107,7.105s3.188,7.106,7.107,7.106c3.918,0,7.104-3.188,7.104-7.106S297.196,145.858,293.278,145.858z"/>
		</g>
		<g>
			<circle fill="#3C3C3B" cx="293.277" cy="152.597" r="3.263"/>
		</g>
	</g>
	<g>
		<g>
			<path fill="#3C3C3B" d="M337.458,163.071c-5.573,0-10.107-4.534-10.107-10.106c0-5.571,4.534-10.105,10.107-10.105
				c5.572,0,10.104,4.534,10.104,10.105C347.563,158.536,343.031,163.071,337.458,163.071z M337.458,145.858
				c-3.919,0-7.107,3.188-7.107,7.105s3.188,7.106,7.107,7.106c3.918,0,7.104-3.188,7.104-7.106S341.376,145.858,337.458,145.858z"
				/>
		</g>
		<g>
			<circle fill="#3C3C3B" cx="337.457" cy="152.597" r="3.263"/>
		</g>
	</g>
	<g>
		<g>
			<path fill="#3C3C3B" d="M391.176,163.071c-5.573,0-10.106-4.534-10.106-10.106c0-5.571,4.533-10.105,10.106-10.105
				c5.572,0,10.105,4.534,10.105,10.105C401.281,158.536,396.748,163.071,391.176,163.071z M391.176,145.858
				c-3.919,0-7.106,3.188-7.106,7.105s3.188,7.106,7.106,7.106c3.918,0,7.105-3.188,7.105-7.106S395.094,145.858,391.176,145.858z"
				/>
		</g>
		<g>
			<circle fill="#3C3C3B" cx="391.175" cy="152.597" r="3.263"/>
		</g>
	</g>
	<g>
		<rect x="282.249" y="101.03" fill="#EC6B60" width="51.37" height="3.877"/>
	</g>
	<g>
		<polygon fill="#E4133A" points="282.249,101.03 288.974,97.108 327.702,97.108 333.619,101.03 		"/>
	</g>
	<g>
		<path fill="#C6C6C5" d="M385.989,71.857c0-0.028,0.004-0.057,0.004-0.084c0-4.573-3.709-8.283-8.284-8.283
			c-4.574,0-8.283,3.71-8.283,8.283c0,0.255,0.016,0.507,0.038,0.757c-3.184,1.155-5.462,4.198-5.462,7.78
			c0,4.573,3.709,8.282,8.284,8.282c3.255,0,6.062-1.882,7.418-4.611c1.316,1.385,3.174,2.253,5.235,2.253
			c3.993,0,7.23-3.237,7.23-7.23C392.17,75.367,389.483,72.365,385.989,71.857z"/>
	</g>
	<path fill="#E4133A" d="M423.448,152.686l-16.854-11.8v-4.155v-17.838c0,0-0.186-1.709-6.812-2.117
		c-1.81-0.111-8.323-0.192-16.833-0.251l-0.38-5.7l4.303-16.317h-15.778l3.406,16.317v5.651c-5.528-0.027-11.448-0.048-17.229-0.062
		v-6.077c0-2.098-1.701-3.801-3.802-3.801c-2.1,0-3.801,1.703-3.801,3.801v6.061c-1.57-0.003-3.109-0.007-4.607-0.009v-6.052
		c0-2.098-1.701-3.801-3.802-3.801c-2.099,0-3.801,1.703-3.801,3.801v6.041c-8.315-0.01-14.038-0.01-14.038-0.01
		s-0.112,0.106-0.303,0.296l0.282-11.757h-30.121l-0.001,20.266c0,0-11.027-0.856-11.027,4.472c0,1.546,0,4.158,0,7.088v16.232
		h71.22v5.882h25.513v-5.882h25.037l0.065,1.373h-2.035v4.509h25.165v-6.159L423.448,152.686L423.448,152.686z M307.935,108.613
		h8.651v12.642h-8.651V108.613z M300.448,108.613h5.737v12.642h-5.737V108.613z"/>
</g>
</svg>
