<?xml version="1.0" encoding="utf-8"?>
<!-- Generator: Adobe Illustrator 16.0.0, SVG Export Plug-In . SVG Version: 6.00 Build 0)  -->
<!DOCTYPE svg PUBLIC "-//W3C//DTD SVG 1.1//EN" "http://www.w3.org/Graphics/SVG/1.1/DTD/svg11.dtd">
<svg version="1.1" id="Layer_1" xmlns="http://www.w3.org/2000/svg" xmlns:xlink="http://www.w3.org/1999/xlink" x="0px" y="0px"
	 width="226.77px" height="226.77px" viewBox="0 0 226.77 226.77" enable-background="new 0 0 226.77 226.77" xml:space="preserve">
<g>
	<path fill="#FFFFFF" d="M169.237,113.043c0,31.186-25.281,56.467-56.471,56.467c-31.188,0-56.467-25.281-56.467-56.467
		c0-31.19,25.279-56.474,56.467-56.474C143.955,56.569,169.237,81.852,169.237,113.043z"/>
	<path fill="#1D1D1B" d="M112.766,53.719c-32.708,0-59.318,26.613-59.318,59.324c0,32.706,26.609,59.317,59.318,59.317
		c32.709,0,59.322-26.611,59.322-59.317C172.088,80.332,145.475,53.719,112.766,53.719z M165.438,103.041l-1.775,0.617l-8.025-9.366
		h0.039c0-6.312-4.979-16.202-7.654-21.062l0.327-0.255C157.031,80.694,163.19,91.181,165.438,103.041z M126.518,67.087l16.1,8.159
		c2.325,4.165,6.014,11.503,7.066,16.595l-10.191,5.1l-30.057-9.883l-3.824-13.379c3.812-1.697,13.004-5.49,20.926-6.428
		L126.518,67.087z M136.379,101.919l1.611,16.499l-25.521,16.184l-14.539-5.232l-1.884-31.204l8.211-6.809L136.379,101.919z
		 M117.369,138.244l26.084-16.541l9.79,2.723c0.314,5.191,0.347,15.748-3.783,21.977l-16.939,10.586
		c-5.898-0.365-12.996-2.516-16.997-3.973L117.369,138.244z M121.44,60.132v2.201c-9.892,2.099-19.654,6.818-20.123,7.046
		l0.043,0.089l-13.589,2.067l-3.105-4.137c8.177-5.054,17.802-7.979,28.1-7.979C115.719,59.42,118.615,59.67,121.44,60.132z
		 M92.477,133.667l-5.79,7.858c-7.868-3.775-17.825-12.972-17.932-13.072l-0.016,0.018l-2.543-17.277l0.092-0.001
		c-0.04-4.196,7.082-11.82,13.627-17.359l10.579,6.952L92.477,133.667z M79.982,70.656l3.342,4.451l-4.929,12.597
		c-4.663,3.695-14.964,12.553-17.319,20.399h-1.69C60.781,92.901,68.546,79.524,79.982,70.656z M64.304,135.956l2.311-1.765
		c3.522,3.09,11.708,9.906,18.649,12.95l6.823,12.347l-0.797,2.666C79.451,156.957,69.837,147.61,64.304,135.956z M96.635,164.174
		l1.117-3.729l14.033-2.752c1.176,0.469,11.338,4.427,20.378,4.984l0.024,0.324c-6.026,2.352-12.573,3.656-19.422,3.656
		C107.147,166.658,101.729,165.785,96.635,164.174z M157.148,143.094c2.311-7.5,2.033-16.08,1.716-20.141l4.881-13.29l2.46-0.856
		c0.109,1.399,0.183,2.808,0.183,4.235C166.387,124.171,162.976,134.517,157.148,143.094z"/>
</g>
</svg>
