<?xml version="1.0" encoding="utf-8"?>
<!-- Generator: Adobe Illustrator 16.0.0, SVG Export Plug-In . SVG Version: 6.00 Build 0)  -->
<!DOCTYPE svg PUBLIC "-//W3C//DTD SVG 1.1//EN" "http://www.w3.org/Graphics/SVG/1.1/DTD/svg11.dtd">
<svg version="1.1" id="Layer_1" xmlns="http://www.w3.org/2000/svg" xmlns:xlink="http://www.w3.org/1999/xlink" x="0px" y="0px"
	 width="226.77px" height="226.77px" viewBox="0 0 226.77 226.77" enable-background="new 0 0 226.77 226.77" xml:space="preserve">
<g>
	<g>
		<path fill="#7A6A58" d="M35.747,146.861l-0.652-1.352c17.728-8.562,47.617-22.933,48.617-22.989
			c1.302-0.317,29.284-11.873,47.754-19.56l33.318-18.851l38.783-9.956l0.373,1.453l-38.687,9.931l-33.13,18.767
			c-13.95,5.812-45.93,19.083-48.222,19.692l0.001,0.006C82.454,124.41,54.31,137.896,35.747,146.861z"/>
	</g>
	<g>
		<polygon fill="#7A6A58" points="40.541,140.792 40.096,139.36 75.895,128.249 130.483,110.649 182.981,101.694 201.297,103.809 
			201.125,105.299 183.022,103.208 130.788,112.119 76.348,129.679 		"/>
	</g>
	<g>
		<path fill="#7A6A58" d="M34.225,142.954l-0.694-1.33l23-12l29.004-13.147l22.237-12.033l19.11-7.559
			c1.065-0.822,11.837-9.076,27.263-18.793c16.306-10.273,43.417-12.005,43.688-12.021l0.09,1.497
			c-0.269,0.016-27.001,1.727-42.979,11.794c-16.11,10.149-27.116,18.688-27.226,18.773l-0.186,0.105l-19.127,7.56l-22.204,12.019
			l-29.015,13.152L34.225,142.954z"/>
	</g>
	<g>
		<polygon fill="#7A6A58" points="37.276,143.655 36.306,141.907 76.099,119.808 98.004,105.822 133.539,95.475 158.923,93.146 
			207.539,70.281 208.391,72.091 159.456,95.105 159.281,95.121 133.818,97.458 98.839,107.662 77.122,121.524 		"/>
	</g>
	<g>
		<polygon fill="#7A6A58" points="50.776,139.902 49.897,138.105 73.071,126.762 110.038,120.278 149.714,114.433 149.822,114.44 
			183.072,116.774 182.932,118.769 149.79,116.442 110.357,122.253 73.696,128.684 		"/>
	</g>
	<g>
		<polygon fill="#7A6A58" points="30.716,146.857 30.047,145.514 64.55,128.338 83.486,111.481 105.126,96.921 132.969,82.081 
			169.518,55.312 170.404,56.522 133.722,83.38 105.897,98.205 84.365,112.697 65.309,129.637 		"/>
	</g>
	<g>
		<polygon fill="#7A6A58" points="32.546,146.915 31.875,145.573 85.51,118.767 107.69,109.9 122.421,93.653 142.801,70.074 
			149.042,51.86 150.462,52.346 144.125,70.835 123.544,94.647 108.569,111.165 108.408,111.229 86.124,120.134 		"/>
	</g>
	<g>
		<polygon fill="#7A6A58" points="177.286,94.915 161.508,93.758 161.617,92.262 177.136,93.4 200.023,87.034 216.656,89.521 
			216.434,91.004 200.117,88.564 		"/>
	</g>
	<g>
		<path fill="#7A6A58" d="M28.825,145.398l-0.561-1.391l34.513-13.893c2.255-2.567,28.424-32.161,41.136-37.791
			c12.74-5.643,17.112-7.761,24.278-14.758c6.921-6.757,9.261-18.815,9.283-18.936l1.475,0.278
			c-0.097,0.513-2.454,12.647-9.709,19.731c-7.352,7.177-11.792,9.331-24.719,15.056c-12.707,5.628-40.454,37.224-40.733,37.542
			l-0.118,0.135l-0.166,0.066L28.825,145.398z"/>
	</g>
	<g>
		<path fill="#7A6A58" d="M32.42,143.946l-0.419-1.439c5.785-1.684,14.7-4.343,15.55-4.768c1.209-0.604,77.585-37.663,80.836-39.24
			l30.604-16.515l54.489-4.627l0.127,1.495l-54.179,4.6l-30.358,16.382c-0.825,0.401-79.647,38.646-80.849,39.247
			C46.979,139.703,33.907,143.514,32.42,143.946z"/>
	</g>
	<g>
		<polygon fill="#7A6A58" points="35.693,143.925 35.147,142.528 91.4,120.565 149.634,101.71 175.86,97.53 201.237,98.424 
			201.185,99.923 175.952,99.034 149.928,103.183 91.904,121.978 		"/>
	</g>
	<path fill="#95CFC4" d="M67.332,137.474c-0.319-0.843-0.936-1.427-1.782-1.69c-2.679-0.835-7.209,1.885-8.889,2.987
		c0.879-2.705,0.292-7.146,0.024-8.789c-0.088-0.545-0.608-0.913-1.147-0.826c-0.545,0.089-0.915,0.603-0.826,1.148
		c0.618,3.795,0.513,7.559-0.182,8.461c0.568-4.514-2.531-8.054-2.677-8.218c-0.369-0.409-1-0.446-1.412-0.076
		c-0.411,0.368-0.446,1-0.077,1.412c0.031,0.034,3.035,3.461,2.028,7.454c-2.007-0.013-3.946,0.927-5.301,2.046
		c-1.755,1.448-2.657,3.21-2.352,4.598c0.123,0.56,0.561,1.561,2.112,1.969c0.468,0.123,0.917,0.18,1.346,0.18
		c1.634,0,2.984-0.815,4.039-1.841c-0.912,2.396-2.256,5.22-4.223,7.979c-0.32,0.449-0.216,1.074,0.234,1.395
		c0.176,0.125,0.379,0.186,0.58,0.186c0.312,0,0.62-0.146,0.815-0.42c3.376-4.737,5.02-9.589,5.765-12.437
		c0.483,2.448,1.378,5.152,3.042,7.494c0.195,0.274,0.503,0.421,0.816,0.421c0.2,0,0.402-0.06,0.578-0.185
		c0.45-0.32,0.556-0.944,0.236-1.395c-1.63-2.294-2.441-5.024-2.84-7.418c0.896,0.214,2.068,0.345,3.301,0.345
		c2.337,0,4.884-0.466,6.149-1.698C67.542,139.725,67.771,138.63,67.332,137.474z M47.36,146.016
		c-0.399-0.105-0.624-0.262-0.669-0.464c-0.112-0.512,0.436-1.606,1.672-2.627c1.002-0.827,2.505-1.595,3.998-1.595
		c0.256,0,0.513,0.022,0.767,0.071c-0.007,0.016-0.014,0.031-0.02,0.047C53.085,141.502,50.831,146.92,47.36,146.016z
		 M65.293,139.123c-1.131,1.103-4.749,1.353-6.992,0.974c2.258-1.396,5.327-2.819,6.654-2.404c0.258,0.081,0.405,0.223,0.506,0.49
		C65.641,138.654,65.53,138.893,65.293,139.123z"/>
	<g>
		<path fill="#7A6A58" d="M71.695,130.762l-1.354-1.473c13.251-12.179,37.885-19.202,73.215-20.874
			c26.217-1.241,48.867,1.099,49.093,1.123l-0.209,1.989C191.545,111.432,102.527,102.425,71.695,130.762z"/>
	</g>
	<g>
		<path fill="#7A6A58" d="M179.253,70.313l-0.333-1.461c0.952-0.364,4.516-5.712,7.271-10.458l1.297,0.753
			C185.613,62.377,181.056,69.932,179.253,70.313z"/>
	</g>
	<g>
		<path fill="#7A6A58" d="M203.451,96.79c-5.971-2.63-12.691-5.362-13.601-5.382c0.001,0.001,0.042,0.001,0.108-0.017l-0.402-1.445
			c0.843-0.229,5.718,1.604,14.5,5.472L203.451,96.79z"/>
	</g>
	<g>
		
			<rect x="160.875" y="118.015" transform="matrix(0.8593 0.5114 -0.5114 0.8593 84.0532 -68.0661)" fill="#7A6A58" width="9.773" height="1.5"/>
	</g>
	<g>
		<path fill="#7A6A58" d="M146.324,64.417l-1.418-0.486c-0.021,0.062-0.023,0.105-0.023,0.106c0.015-0.967-2.862-7.526-5.652-13.31
			l1.352-0.651C144.717,58.647,146.649,63.473,146.324,64.417z"/>
	</g>
	<g>
		
			<rect x="154.877" y="67.449" transform="matrix(0.9594 0.2822 -0.2822 0.9594 25.7359 -42.3104)" fill="#7A6A58" width="9.782" height="1.501"/>
	</g>
	<g>
		
			<rect x="183.52" y="104.741" transform="matrix(0.3736 0.9276 -0.9276 0.3736 215.8979 -103.0756)" fill="#7A6A58" width="1.5" height="7.162"/>
	</g>
	<g>
		<path fill="#7A6A58" d="M175.758,81.904l-1.023-1.097c3.412-3.182,7.227-6.842,7.575-7.357l1.409,0.325
			C183.728,74.191,183.733,74.466,175.758,81.904z"/>
	</g>
	<g>
		
			<rect x="121.928" y="75.93" transform="matrix(0.9989 0.0475 -0.0475 0.9989 4.0486 -5.7384)" fill="#7A6A58" width="1.5" height="12.651"/>
	</g>
	<g>
		
			<rect x="181.022" y="85.588" transform="matrix(0.8221 0.5693 -0.5693 0.8221 83.5648 -87.4839)" fill="#7A6A58" width="1.499" height="8.776"/>
	</g>
	<g>
		<polygon fill="#7A6A58" points="150.468,126.414 144.062,124.217 110.162,122.012 110.26,120.516 144.454,122.766 
			150.954,124.996 		"/>
	</g>
</g>
</svg>
