<?xml version="1.0" encoding="UTF-8" standalone="no"?>
<!-- Generator: Adobe Illustrator 16.0.0, SVG Export Plug-In . SVG Version: 6.00 Build 0)  -->

<svg
   xmlns:dc="http://purl.org/dc/elements/1.1/"
   xmlns:cc="http://creativecommons.org/ns#"
   xmlns:rdf="http://www.w3.org/1999/02/22-rdf-syntax-ns#"
   xmlns:svg="http://www.w3.org/2000/svg"
   xmlns="http://www.w3.org/2000/svg"
   xmlns:sodipodi="http://sodipodi.sourceforge.net/DTD/sodipodi-0.dtd"
   xmlns:inkscape="http://www.inkscape.org/namespaces/inkscape"
   version="1.1"
   id="Layer_1"
   x="0px"
   y="0px"
   width="198.392"
   height="145.77299"
   viewBox="0 0 198.39199 145.77299"
   enable-background="new 0 0 226.77 226.77"
   xml:space="preserve"
   inkscape:version="0.91 r13725"
   sodipodi:docname="0.svg"><metadata
     id="metadata3570"><rdf:RDF><cc:Work
         rdf:about=""><dc:format>image/svg+xml</dc:format><dc:type
           rdf:resource="http://purl.org/dc/dcmitype/StillImage" /><dc:title></dc:title></cc:Work></rdf:RDF></metadata><defs
     id="defs3568" /><sodipodi:namedview
     pagecolor="#ffffff"
     bordercolor="#666666"
     borderopacity="1"
     objecttolerance="10"
     gridtolerance="10"
     guidetolerance="10"
     inkscape:pageopacity="0"
     inkscape:pageshadow="2"
     inkscape:window-width="1145"
     inkscape:window-height="833"
     id="namedview3566"
     showgrid="false"
     fit-margin-top="20"
     fit-margin-bottom="20"
     inkscape:zoom="2.9501256"
     inkscape:cx="66.857002"
     inkscape:cy="50.777972"
     inkscape:window-x="0"
     inkscape:window-y="0"
     inkscape:window-maximized="0"
     inkscape:current-layer="Layer_1"
     fit-margin-left="10"
     fit-margin-right="0" /><g
     id="g3474"
     transform="translate(-18.264,-30.076)"><g
       id="g3476"><path
         d="m 35.747,146.861 -0.652,-1.352 c 17.728,-8.562 47.617,-22.933 48.617,-22.989 1.302,-0.317 29.284,-11.873 47.754,-19.56 l 33.318,-18.851 38.783,-9.956 0.373,1.453 -38.687,9.931 -33.13,18.767 c -13.95,5.812 -45.93,19.083 -48.222,19.692 l 0.001,0.006 c -1.448,0.408 -29.592,13.894 -48.155,22.859 z"
         id="path3478"
         inkscape:connector-curvature="0"
         style="fill:#7a6a58" /></g><g
       id="g3480"><polygon
         points="130.483,110.649 182.981,101.694 201.297,103.809 201.125,105.299 183.022,103.208 130.788,112.119 76.348,129.679 40.541,140.792 40.096,139.36 75.895,128.249 "
         id="polygon3482"
         style="fill:#7a6a58" /></g><g
       id="g3484"><path
         d="m 34.225,142.954 -0.694,-1.33 23,-12 29.004,-13.147 22.237,-12.033 19.11,-7.559 c 1.065,-0.822 11.837,-9.076 27.263,-18.793 16.306,-10.273 43.417,-12.005 43.688,-12.021 l 0.09,1.497 c -0.269,0.016 -27.001,1.727 -42.979,11.794 -16.11,10.149 -27.116,18.688 -27.226,18.773 l -0.186,0.105 -19.127,7.56 -22.204,12.019 -29.015,13.152 -22.961,11.983 z"
         id="path3486"
         inkscape:connector-curvature="0"
         style="fill:#7a6a58" /></g><g
       id="g3488"><polygon
         points="98.004,105.822 133.539,95.475 158.923,93.146 207.539,70.281 208.391,72.091 159.456,95.105 159.281,95.121 133.818,97.458 98.839,107.662 77.122,121.524 37.276,143.655 36.306,141.907 76.099,119.808 "
         id="polygon3490"
         style="fill:#7a6a58" /></g><g
       id="g3492"><polygon
         points="110.038,120.278 149.714,114.433 149.822,114.44 183.072,116.774 182.932,118.769 149.79,116.442 110.357,122.253 73.696,128.684 50.776,139.902 49.897,138.105 73.071,126.762 "
         id="polygon3494"
         style="fill:#7a6a58" /></g><g
       id="g3496"><polygon
         points="83.486,111.481 105.126,96.921 132.969,82.081 169.518,55.312 170.404,56.522 133.722,83.38 105.897,98.205 84.365,112.697 65.309,129.637 30.716,146.857 30.047,145.514 64.55,128.338 "
         id="polygon3498"
         style="fill:#7a6a58" /></g><g
       id="g3500"><polygon
         points="107.69,109.9 122.421,93.653 142.801,70.074 149.042,51.86 150.462,52.346 144.125,70.835 123.544,94.647 108.569,111.165 108.408,111.229 86.124,120.134 32.546,146.915 31.875,145.573 85.51,118.767 "
         id="polygon3502"
         style="fill:#7a6a58" /></g><g
       id="g3504"><polygon
         points="177.136,93.4 200.023,87.034 216.656,89.521 216.434,91.004 200.117,88.564 177.286,94.915 161.508,93.758 161.617,92.262 "
         id="polygon3506"
         style="fill:#7a6a58" /></g><g
       id="g3508"><path
         d="m 28.825,145.398 -0.561,-1.391 34.513,-13.893 c 2.255,-2.567 28.424,-32.161 41.136,-37.791 12.74,-5.643 17.112,-7.761 24.278,-14.758 6.921,-6.757 9.261,-18.815 9.283,-18.936 l 1.475,0.278 c -0.097,0.513 -2.454,12.647 -9.709,19.731 -7.352,7.177 -11.792,9.331 -24.719,15.056 -12.707,5.628 -40.454,37.224 -40.733,37.542 l -0.118,0.135 -0.166,0.066 -34.679,13.961 z"
         id="path3510"
         inkscape:connector-curvature="0"
         style="fill:#7a6a58" /></g><g
       id="g3512"><path
         d="m 32.42,143.946 -0.419,-1.439 c 5.785,-1.684 14.7,-4.343 15.55,-4.768 1.209,-0.604 77.585,-37.663 80.836,-39.24 l 30.604,-16.515 54.489,-4.627 0.127,1.495 -54.179,4.6 -30.358,16.382 c -0.825,0.401 -79.647,38.646 -80.849,39.247 -1.242,0.622 -14.314,4.433 -15.801,4.865 z"
         id="path3514"
         inkscape:connector-curvature="0"
         style="fill:#7a6a58" /></g><g
       id="g3516"><polygon
         points="149.634,101.71 175.86,97.53 201.237,98.424 201.185,99.923 175.952,99.034 149.928,103.183 91.904,121.978 35.693,143.925 35.147,142.528 91.4,120.565 "
         id="polygon3518"
         style="fill:#7a6a58" /></g><path
       d="m 67.332,137.474 c -0.319,-0.843 -0.936,-1.427 -1.782,-1.69 -2.679,-0.835 -7.209,1.885 -8.889,2.987 0.879,-2.705 0.292,-7.146 0.024,-8.789 -0.088,-0.545 -0.608,-0.913 -1.147,-0.826 -0.545,0.089 -0.915,0.603 -0.826,1.148 0.618,3.795 0.513,7.559 -0.182,8.461 0.568,-4.514 -2.531,-8.054 -2.677,-8.218 -0.369,-0.409 -1,-0.446 -1.412,-0.076 -0.411,0.368 -0.446,1 -0.077,1.412 0.031,0.034 3.035,3.461 2.028,7.454 -2.007,-0.013 -3.946,0.927 -5.301,2.046 -1.755,1.448 -2.657,3.21 -2.352,4.598 0.123,0.56 0.561,1.561 2.112,1.969 0.468,0.123 0.917,0.18 1.346,0.18 1.634,0 2.984,-0.815 4.039,-1.841 -0.912,2.396 -2.256,5.22 -4.223,7.979 -0.32,0.449 -0.216,1.074 0.234,1.395 0.176,0.125 0.379,0.186 0.58,0.186 0.312,0 0.62,-0.146 0.815,-0.42 3.376,-4.737 5.02,-9.589 5.765,-12.437 0.483,2.448 1.378,5.152 3.042,7.494 0.195,0.274 0.503,0.421 0.816,0.421 0.2,0 0.402,-0.06 0.578,-0.185 0.45,-0.32 0.556,-0.944 0.236,-1.395 -1.63,-2.294 -2.441,-5.024 -2.84,-7.418 0.896,0.214 2.068,0.345 3.301,0.345 2.337,0 4.884,-0.466 6.149,-1.698 0.853,-0.831 1.082,-1.926 0.643,-3.082 z m -19.972,8.542 c -0.399,-0.105 -0.624,-0.262 -0.669,-0.464 -0.112,-0.512 0.436,-1.606 1.672,-2.627 1.002,-0.827 2.505,-1.595 3.998,-1.595 0.256,0 0.513,0.022 0.767,0.071 -0.007,0.016 -0.014,0.031 -0.02,0.047 -0.023,0.054 -2.277,5.472 -5.748,4.568 z m 17.933,-6.893 c -1.131,1.103 -4.749,1.353 -6.992,0.974 2.258,-1.396 5.327,-2.819 6.654,-2.404 0.258,0.081 0.405,0.223 0.506,0.49 0.18,0.471 0.069,0.71 -0.168,0.94 z"
       id="path3520"
       inkscape:connector-curvature="0"
       style="fill:#95cfc4" /><g
       id="g3522"><path
         d="m 71.695,130.762 -1.354,-1.473 c 13.251,-12.179 37.885,-19.202 73.215,-20.874 26.217,-1.241 48.867,1.099 49.093,1.123 l -0.209,1.989 c -0.895,-0.095 -89.913,-9.102 -120.745,19.235 z"
         id="path3524"
         inkscape:connector-curvature="0"
         style="fill:#7a6a58" /></g><g
       id="g3526"><path
         d="m 179.253,70.313 -0.333,-1.461 c 0.952,-0.364 4.516,-5.712 7.271,-10.458 l 1.297,0.753 c -1.875,3.23 -6.432,10.785 -8.235,11.166 z"
         id="path3528"
         inkscape:connector-curvature="0"
         style="fill:#7a6a58" /></g><g
       id="g3530"><path
         d="m 203.451,96.79 c -5.971,-2.63 -12.691,-5.362 -13.601,-5.382 0.001,0.001 0.042,0.001 0.108,-0.017 l -0.402,-1.445 c 0.843,-0.229 5.718,1.604 14.5,5.472 l -0.605,1.372 z"
         id="path3532"
         inkscape:connector-curvature="0"
         style="fill:#7a6a58" /></g><g
       id="g3534"><rect
         x="160.875"
         y="118.015"
         transform="matrix(0.8593,0.5114,-0.5114,0.8593,84.0532,-68.0661)"
         width="9.7729998"
         height="1.5"
         id="rect3536"
         style="fill:#7a6a58" /></g><g
       id="g3538"><path
         d="m 146.324,64.417 -1.418,-0.486 c -0.021,0.062 -0.023,0.105 -0.023,0.106 0.015,-0.967 -2.862,-7.526 -5.652,-13.31 l 1.352,-0.651 c 4.134,8.571 6.066,13.397 5.741,14.341 z"
         id="path3540"
         inkscape:connector-curvature="0"
         style="fill:#7a6a58" /></g><g
       id="g3542"><rect
         x="154.877"
         y="67.448997"
         transform="matrix(0.9594,0.2822,-0.2822,0.9594,25.7359,-42.3104)"
         width="9.7819996"
         height="1.501"
         id="rect3544"
         style="fill:#7a6a58" /></g><g
       id="g3546"><rect
         x="183.52"
         y="104.741"
         transform="matrix(0.3736,0.9276,-0.9276,0.3736,215.8979,-103.0756)"
         width="1.5"
         height="7.1620002"
         id="rect3548"
         style="fill:#7a6a58" /></g><g
       id="g3550"><path
         d="m 175.758,81.904 -1.023,-1.097 c 3.412,-3.182 7.227,-6.842 7.575,-7.357 l 1.409,0.325 c 0.009,0.416 0.014,0.691 -7.961,8.129 z"
         id="path3552"
         inkscape:connector-curvature="0"
         style="fill:#7a6a58" /></g><g
       id="g3554"><rect
         x="121.928"
         y="75.93"
         transform="matrix(0.9989,0.0475,-0.0475,0.9989,4.0486,-5.7384)"
         width="1.5"
         height="12.651"
         id="rect3556"
         style="fill:#7a6a58" /></g><g
       id="g3558"><rect
         x="181.022"
         y="85.587997"
         transform="matrix(0.8221,0.5693,-0.5693,0.8221,83.5648,-87.4839)"
         width="1.499"
         height="8.776"
         id="rect3560"
         style="fill:#7a6a58" /></g><g
       id="g3562"><polygon
         points="110.26,120.516 144.454,122.766 150.954,124.996 150.468,126.414 144.062,124.217 110.162,122.012 "
         id="polygon3564"
         style="fill:#7a6a58" /></g></g></svg>