<?xml version="1.0" encoding="utf-8"?>
<!-- Generator: Adobe Illustrator 16.0.0, SVG Export Plug-In . SVG Version: 6.00 Build 0)  -->
<!DOCTYPE svg PUBLIC "-//W3C//DTD SVG 1.1//EN" "http://www.w3.org/Graphics/SVG/1.1/DTD/svg11.dtd">
<svg version="1.1" id="Layer_1" xmlns="http://www.w3.org/2000/svg" xmlns:xlink="http://www.w3.org/1999/xlink" x="0px" y="0px"
	 width="226.77px" height="226.77px" viewBox="0 0 226.77 226.77" enable-background="new 0 0 226.77 226.77" xml:space="preserve">
<g>
	<g>
		<polygon fill="#CFD5D9" points="217.464,162.023 200.694,152.797 70.676,152.797 53.906,162.023 53.906,65.937 217.464,65.937 		
			"/>
	</g>
	<circle fill="#FFFFFF" cx="158.915" cy="121.967" r="19.812"/>
	<path fill="#1D1D1B" d="M158.914,101.154c-11.475,0-20.811,9.336-20.811,20.812c0,11.475,9.336,20.811,20.811,20.811
		c11.476,0,20.812-9.336,20.812-20.811C179.727,110.491,170.39,101.154,158.914,101.154z M177.387,118.461l-0.616,0.214
		l-2.815-3.286h0.014c0-2.218-1.748-5.687-2.687-7.389l0.103-0.08C174.432,110.628,176.598,114.299,177.387,118.461z
		 M163.738,105.844l5.646,2.861c0.815,1.459,2.111,4.033,2.481,5.824l-3.576,1.789l-10.544-3.467l-1.342-4.693
		c1.333-0.593,4.557-1.925,7.341-2.256L163.738,105.844z M167.198,118.064l0.565,5.789l-8.954,5.677l-5.101-1.835l-0.661-10.948
		l2.881-2.389L167.198,118.064z M160.529,130.809l9.151-5.803l3.435,0.955c0.111,1.836,0.104,5.565-1.382,7.744l-5.887,3.68
		c-2.068-0.129-4.561-0.883-5.965-1.394L160.529,130.809z M161.957,103.423v0.753c-3.47,0.737-6.895,2.392-7.06,2.472l0.015,0.031
		l-4.767,0.726l-1.078-1.437c2.868-1.772,6.234-2.814,9.847-2.814C159.952,103.154,160.964,103.261,161.957,103.423z
		 M151.797,129.202l-2.031,2.756c-2.76-1.323-6.254-4.55-6.292-4.585l-0.006,0.006l-0.893-6.062h0.032
		c-0.013-1.473,2.485-4.145,4.782-6.089l3.711,2.438L151.797,129.202z M147.421,107.107l1.164,1.551l-1.729,4.418
		c-1.635,1.296-5.249,4.404-6.074,7.158h-0.59C140.681,114.901,143.409,110.218,147.421,107.107z M141.928,129.994l0.796-0.608
		c1.231,1.082,4.101,3.471,6.54,4.541l2.396,4.336l-0.277,0.929C147.228,137.368,143.868,134.083,141.928,129.994z M153.256,139.904
		l0.391-1.307l4.924-0.965c0.354,0.141,3.946,1.55,7.149,1.747l0.008,0.101c-2.116,0.826-4.409,1.297-6.813,1.297
		C156.942,140.777,155.043,140.469,153.256,139.904z M174.456,132.548c0.825-2.642,0.743-5.67,0.631-7.103l1.712-4.663l0.853-0.297
		c0.039,0.49,0.075,0.981,0.075,1.481C177.727,125.889,176.517,129.531,174.456,132.548z"/>
	<g>
		<path fill="#6F6F6E" d="M187.548,126.754c-1.055,0-1.938-0.825-1.995-1.892c-0.06-1.103,0.786-2.046,1.889-2.105l22.521-1.223
			c1.09-0.067,2.046,0.785,2.105,1.889c0.06,1.103-0.786,2.046-1.889,2.105l-22.521,1.223
			C187.621,126.753,187.585,126.754,187.548,126.754z"/>
	</g>
	<g>
		<path fill="#6F6F6E" d="M126.172,117.932c-0.348,0-0.699-0.09-1.02-0.28c-0.145-0.086-14.523-8.628-23.708-13.823
			c-0.961-0.543-1.3-1.764-0.756-2.725c0.543-0.961,1.763-1.302,2.725-0.756c9.223,5.216,23.637,13.779,23.782,13.865
			c0.95,0.564,1.262,1.792,0.698,2.741C127.52,117.583,126.854,117.932,126.172,117.932z"/>
	</g>
	<path fill="#6F6F6E" d="M139.933,60.977l-89.725,1.507v90.165v9.375h3.68V66.297l12.854,13.632v74.835l3.575-2.115v-72.72h130.029
		v72.72l2.327,1.43l-0.064-60.714V78.041l14.506-12.104h0.341v96.086h3V69.311v-7.13L139.933,60.977z M201.801,75.139
		L201.801,75.139l-93.477,2.033L69.228,76.72L56.613,65.937h156.265L201.801,75.139z"/>
	<g>
		<path fill="#6F6F6E" d="M183.221,103.622c-0.5,0-1.001-0.186-1.389-0.561c-0.795-0.767-0.817-2.033-0.051-2.828l10.033-10.398
			c0.768-0.794,2.035-0.817,2.828-0.051c0.795,0.767,0.817,2.033,0.051,2.828l-10.033,10.398
			C184.268,103.417,183.744,103.622,183.221,103.622z"/>
	</g>
	<g>
		<path fill="#6F6F6E" d="M138.868,101.161c-0.554,0-1.104-0.229-1.5-0.676l-9.592-10.854c-0.731-0.828-0.653-2.091,0.175-2.823
			c0.826-0.732,2.092-0.653,2.823,0.174l9.592,10.854c0.731,0.828,0.653,2.091-0.175,2.823
			C139.812,100.996,139.339,101.161,138.868,101.161z"/>
	</g>
	<g>
		<path fill="#6F6F6E" d="M164.396,98.424c-0.186,0-0.374-0.026-0.561-0.08c-1.061-0.309-1.67-1.419-1.36-2.48l3.432-11.779
			c0.309-1.061,1.424-1.667,2.479-1.361c1.061,0.309,1.67,1.419,1.36,2.48l-3.432,11.779
			C166.061,97.856,165.262,98.424,164.396,98.424z"/>
	</g>
	<g>
		<polygon fill="#39A935" points="53.906,162.023 70.317,152.582 200.346,152.582 217.464,162.023 		"/>
	</g>
	<g>
		<path fill="#6F6F6E" d="M139.761,168.693c-0.288,0-0.58-0.062-0.857-0.193c-0.997-0.474-1.422-1.667-0.948-2.665l9.096-19.148
			c0.475-0.999,1.666-1.423,2.665-0.948c0.997,0.474,1.422,1.667,0.948,2.665l-9.096,19.148
			C141.226,168.272,140.509,168.693,139.761,168.693z"/>
	</g>
	<g>
		<path fill="#6F6F6E" d="M187.552,164.023c-0.65,0-1.288-0.316-1.672-0.899l-11.504-17.465c-0.607-0.923-0.353-2.163,0.569-2.771
			c0.923-0.608,2.164-0.353,2.771,0.569l11.504,17.465c0.607,0.923,0.353,2.163-0.569,2.771
			C188.312,163.917,187.93,164.023,187.552,164.023z"/>
	</g>
	<g>
		<path fill="#6F6F6E" d="M116.25,144.541c-0.662,0-1.31-0.328-1.69-0.929c-0.592-0.933-0.315-2.168,0.617-2.76l13.027-8.268
			c0.933-0.592,2.169-0.315,2.76,0.617c0.592,0.933,0.315,2.168-0.617,2.76l-13.027,8.268
			C116.987,144.44,116.616,144.541,116.25,144.541z"/>
	</g>
	<g>
		<g>
			<path fill="#54566D" d="M6.153,109.629c9.867-0.459,17.826-0.104,22.809,0.278c-0.012-3.266-0.062-6.135-0.178-7.759
				l16.088,13.238l-16.088,13.24c0,0,0.062-3.24,0.113-7.508c-4.355-0.211-10.932-0.148-18.92,1.129
				c-2.586,0.412-4.68,1.033-6.398,1.814v-14.192C4.401,109.759,5.25,109.671,6.153,109.629z"/>
		</g>
	</g>
</g>
</svg>
