<?xml version="1.0" encoding="utf-8"?>
<!-- Generator: Adobe Illustrator 16.0.0, SVG Export Plug-In . SVG Version: 6.00 Build 0)  -->
<!DOCTYPE svg PUBLIC "-//W3C//DTD SVG 1.1//EN" "http://www.w3.org/Graphics/SVG/1.1/DTD/svg11.dtd">
<svg version="1.1" id="Layer_1" xmlns="http://www.w3.org/2000/svg" xmlns:xlink="http://www.w3.org/1999/xlink" x="0px" y="0px"
	 width="226.77px" height="226.77px" viewBox="0 0 226.77 226.77" enable-background="new 0 0 226.77 226.77" xml:space="preserve">
<g>
	<g>
		<path fill="#D4EBEA" d="M65.897,53.87c-0.853,0-1.683,0.089-2.493,0.235c-0.973-5.378-5.668-9.46-11.325-9.46
			c-6.364,0-11.521,5.158-11.521,11.521c0,0.808,0.084,1.595,0.243,2.354c-0.372-0.036-0.748-0.057-1.129-0.057
			c-6.363,0-11.521,5.158-11.521,11.521c0,5.972,4.541,10.881,10.357,11.465c-0.011,0.036-0.017,0.059-0.017,0.059h27.408
			c7.633,0,13.819-6.188,13.819-13.82C79.716,60.058,73.529,53.87,65.897,53.87z"/>
	</g>
	<g>
		<path fill="#D4EBEA" d="M191.828,91.511c-0.853,0-1.684,0.089-2.492,0.236c-0.974-5.378-5.668-9.46-11.326-9.46
			c-6.364,0-11.521,5.157-11.521,11.521c0,0.809,0.085,1.595,0.242,2.355c-0.371-0.036-0.748-0.058-1.129-0.058
			c-6.363,0-11.521,5.158-11.521,11.521c0,5.971,4.541,10.88,10.356,11.464c-0.012,0.037-0.018,0.059-0.018,0.059h27.408
			c7.633,0,13.818-6.188,13.818-13.819S199.461,91.511,191.828,91.511z"/>
	</g>
	<g>
		<g>
			<path fill="#54566D" d="M128.104,16.788c-0.459,9.866-0.104,17.826,0.277,22.809c-3.266-0.012-6.135-0.062-7.758-0.178
				l13.237,16.088L147.1,39.419c0,0-3.24,0.062-7.506,0.113c-0.211-4.355-0.148-10.933,1.127-18.921
				c0.412-2.586,1.033-4.68,1.814-6.397h-14.191C128.232,15.036,128.145,15.886,128.104,16.788z"/>
		</g>
	</g>
	<g>
		<polygon fill="#B3DAC6" points="53.933,92.827 54.698,186.873 171.677,185.604 170.113,92.827 120.623,92.827 		"/>
	</g>
	<rect x="69.676" y="103.391" fill="#D4E7E9" width="19.617" height="32.392"/>
	<rect x="102.214" y="103.391" fill="#D4E7E9" width="19.617" height="32.392"/>
	<path fill="#35A8E0" d="M179.863,175.604h-5.556v-10.301h5.146v-3h-5.146v-7.443l-3.87-3.59l-3.518,3.59v7.443h-4.459v-7.443
		l-3.869-3.59l-3.518,3.59v7.443h-4.46v-7.443l-3.868-3.59l-3.519,3.59v7.443h-5.966v3h5.966v10.301h-5.557v3h5.557v8.271h7.387
		v-8.271h4.459v8.271h7.388v-8.271h4.459v8.271h7.388v-8.271h5.556V175.604L179.863,175.604z M150.615,175.604v-10.301h4.459v10.301
		H150.615z M162.461,175.604v-10.301h4.459v10.301H162.461z"/>
	<rect x="133.42" y="102.644" fill="#D4E7E9" width="19.616" height="32.392"/>
	<g>
		<polygon fill="#FFFFFF" points="98.154,186.467 69.083,186.716 69.083,145.746 98.154,145.597 		"/>
	</g>
	<g>
		<polygon fill="#39A935" points="95.471,186.467 71.571,186.633 71.571,149.751 95.471,149.751 		"/>
	</g>
	<g>
		<polygon fill="#23244F" points="49.337,94.975 173.67,94.975 154.162,62.723 72.267,62.723 		"/>
	</g>
	<path fill="#FFFFFF" d="M68.176,101.891v35.392h22.617v-35.392H68.176z M87.792,104.891v17.669H71.176v-17.669H87.792z
		 M71.176,134.281v-8.723h16.617v8.723H71.176z"/>
	<path fill="#FFFFFF" d="M100.714,101.891v35.392h22.617v-35.392H100.714z M120.331,104.891v17.669h-16.617v-17.669H120.331z
		 M103.714,134.281v-8.723h16.617v8.723H103.714z"/>
	<path fill="#FFFFFF" d="M131.92,101.144v35.392h22.616v-35.392H131.92L131.92,101.144z M151.536,104.144v18.416H134.92v-18.416
		H151.536z M134.92,133.534v-7.976h16.616v7.976H134.92z"/>
	<g>
		<rect x="71.376" y="66.781" fill="#3D407B" width="83.523" height="1"/>
	</g>
	<g>
		<rect x="67.945" y="72.819" fill="#3D407B" width="90.188" height="1"/>
	</g>
	<g>
		<rect x="64.8" y="78.352" fill="#3D407B" width="96.292" height="1"/>
	</g>
	<g>
		
			<rect x="112.196" y="33.187" transform="matrix(-0.0059 -1 1 -0.0059 28.9611 197.5844)" fill="#3D407B" width="1" height="102.418"/>
	</g>
	<g>
		<rect x="58.432" y="89.558" fill="#3D407B" width="109.405" height="1"/>
	</g>
	<g>
		<polygon fill="#B3DAC6" points="100.113,48.597 78.638,48.597 78.638,54.802 81.734,54.802 81.734,74.391 97.018,74.391 
			97.018,54.802 100.113,54.802 		"/>
	</g>
</g>
</svg>
