<?xml version="1.0" encoding="utf-8"?>
<!-- Generator: Adobe Illustrator 16.0.0, SVG Export Plug-In . SVG Version: 6.00 Build 0)  -->
<!DOCTYPE svg PUBLIC "-//W3C//DTD SVG 1.1//EN" "http://www.w3.org/Graphics/SVG/1.1/DTD/svg11.dtd">
<svg version="1.1" id="Layer_1" xmlns="http://www.w3.org/2000/svg" xmlns:xlink="http://www.w3.org/1999/xlink" x="0px" y="0px"
	 width="226.77px" height="226.77px" viewBox="0 0 226.77 226.77" enable-background="new 0 0 226.77 226.77" xml:space="preserve">
<g>
	<path fill="#D7152B" d="M76.845,94.101h83.762c0,0,0.933,53.912,0.933,60.226c-0.001,4.505,0.42,7.598,0,13.481
		c-2.864,1.024-15.192,1.658-19.687,1.962c-15.692,1.059-59.966,4.496-64.942,3.133C74.667,168.73,76.845,94.101,76.845,94.101z"/>
	<polygon fill="#E4142E" points="160.606,94.101 144.353,84.321 65.046,87.685 77.685,94.571 	"/>
	<polygon fill="#B71E33" points="76.909,172.902 65.046,161.666 65.046,87.685 76.821,94.101 	"/>
	<path fill="#A71619" d="M112.733,159.04l20.971-2.083l-5.301-29.509c1.759-1.759,2.846-4.188,2.846-6.869
		c0-5.366-4.35-9.715-9.715-9.715s-9.715,4.349-9.715,9.715c0,2.982,1.349,5.648,3.465,7.432l0,0L112.733,159.04z"/>
	<path fill="#931419" d="M128.403,127.448c1.759-1.759,2.846-4.188,2.846-6.869c0-5.366-4.35-9.715-9.715-9.715
		c-0.267,0-0.526,0.019-0.787,0.038c4.996,0.402,8.927,4.576,8.927,9.677c0,2.682-1.086,5.11-2.845,6.869l4.956,27.589
		l-18.866,1.479l-0.187,2.522l20.971-2.083L128.403,127.448z"/>
	<path fill="#D9D9D9" d="M145.122,87.602c0,0-2.694,2.276-6.017,2.462c-4.264,0.237-5.75-2.379-5.75-2.379
		s-1.402-18.93-4.957-26.038c-3.555-7.109-14.001-12.334-22.334-7.834c-5.183,2.799-10.37,9.173-12,15.834
		c-1.562,6.39-2.176,20.657-2.176,20.657s-3.324,1.868-7.99,1.509c-4.255-0.328-4.951-2.021-4.951-2.021s-0.858-25.648,8.203-37.463
		c9.206-12.001,22.424-16.407,35.276-11.485c12.852,4.923,17.773,15.093,20.781,25.321
		C146.216,76.391,145.122,87.602,145.122,87.602z"/>
	<path fill="#ECECEC" d="M120.878,46.271c0,0,0.666-1.8,2.08-1.562c1.414,0.234,8.92,3.688,11.68,9.778
		c1.525,3.369-1.26,3.784-2.489,2.828c-0.978-0.761-2.384-3.815-5.021-6.101C124.079,48.573,120.741,48.392,120.878,46.271z"/>
</g>
</svg>
