<?xml version="1.0" encoding="utf-8"?>
<!-- Generator: Adobe Illustrator 16.0.0, SVG Export Plug-In . SVG Version: 6.00 Build 0)  -->
<!DOCTYPE svg PUBLIC "-//W3C//DTD SVG 1.1//EN" "http://www.w3.org/Graphics/SVG/1.1/DTD/svg11.dtd">
<svg version="1.1" id="Layer_1" xmlns="http://www.w3.org/2000/svg" xmlns:xlink="http://www.w3.org/1999/xlink" x="0px" y="0px"
	 width="226.77px" height="226.77px" viewBox="0 0 226.77 226.77" enable-background="new 0 0 226.77 226.77" xml:space="preserve">
<g>
	<path fill="#93C01F" d="M99.547,88.677c-0.953-4.161-2.991-10.872-7.213-18.276c-7-12.276-17.5-28.313-14-30.297
		c3.5-1.979,7.5,7.793,13.5,20.656c3.952,8.473,8.135,20.211,10.529,27.237C101.029,88.342,100.417,88.667,99.547,88.677z"/>
	<path fill="#93C01F" d="M101.083,88.865c-0.988-9.481-2.722-25.621-3.75-32.382c-1.5-9.86-4-24.348,0-23.854
		c4,0.494,7.562,11.529,7.03,31.762c-0.276,10.543,0.879,18.874,1.094,24.358C103.187,88.896,103.883,88.907,101.083,88.865z"/>
	<path fill="#93C01F" d="M111.109,88.342c2.064-6.727,5.234-16.151,8.226-21.416c5-8.803,10.5-16.17,11-19.986
		c0.5-3.815-8.002-6.403-16.5,16.588c-3.335,9.024-6.924,24.121-6.924,24.121S110.582,88.092,111.109,88.342z"/>
	<path fill="#93C01F" d="M105.032,89.429c1.271-20.751,4.363-60.956,9.302-62.521c6.666-2.115,5.332,4.825,1.666,17.521
		c-2.389,8.267-3.473,30.067-3.948,45.153C110.583,89.581,108.833,89.429,105.032,89.429z"/>
	<path fill="#39A935" d="M94.112,73.693l0.163,0.324c2.995,6.117,4.482,11.362,5.202,14.673c1.534-0.349,1.772-0.689,2.771-1.007
		c-1.72-5.054-4.415-12.704-7.292-19.803C93.922,65.301,94.112,73.693,94.112,73.693z"/>
	<path fill="#39A935" d="M104.372,64.098c-1.928,0.17-3.885,1.65-5.594,3.564c0.748,6.407,1.54,13.777,2.133,19.423
		c1.589,0,2.339,0.166,4.482,0.254c-0.331-5.458-1.282-13.259-1.028-22.915C104.368,64.313,104.369,64.209,104.372,64.098z"/>
	<path fill="#39A935" d="M112.132,87.729c0.237-7.092,0.604-15.454,1.172-23.146c-2.11-1.135-4.471-0.252-6.519,1.151
		c-0.707,7.998-1.258,15.877-1.65,22.17C106.104,87.915,109.419,87.865,112.132,87.729z"/>
	<path fill="#39A935" d="M112.469,70.043c-2.01,7.396-3.212,13.789-3.923,18.508c2.017-0.051,3.481-0.137,3.481-0.137
		s2.656-9.865,5.954-18.838C116.246,68.801,114.282,69.213,112.469,70.043z"/>
	<path fill="#F7B269" d="M96.756,94.756c0,0-2.629,8.18-14.152,10.176c-19.711,3.416-24.696,19.447-22.367,36.775
		c3.666,27.256,37.597,36.492,37.597,36.492l20,2.19c0,0,17.685-1.119,31.403-12.834c24-20.49,3.698-55.383-14.688-60.49
		c-6.55-1.819-11.846-6.215-18.384-8.854C106.236,94.201,96.756,94.756,96.756,94.756z"/>
	<path fill="#F39969" d="M100.333,171.969c0,0-4.5-6.846-13.5-26.902c-6.788-15.129,3.176-35.243,8.483-44.219
		c1.684,0.361,1.684,0.361,2.994,0.848c-3.857,6.89-11.857,22.444-11.478,32.38c0.5,13.067,12,31.799,12,31.799l3,4.063
		L100.333,171.969z"/>
	<path fill="#FBCB7F" d="M117.834,180.391c0,0,2.166-4.934-5.5-7.6c-7.667-2.668-15.667,3.799-15.667,3.799l1.167,1.609
		L117.834,180.391z"/>
	<path fill="#F5AB80" d="M96.756,94.756c0,0,3.568-3.603,2-8.537c-0.467-1.471-0.464-1.719-0.601-2.283
		c1.104,0.729,2.65,2.283,2.65,2.283L102,81.797l3.195,5.006l3.638-5.006l1.667,4.994l1.938-1.967c0,0,1.562,11.311,3.729,13.389
		C105.958,95.458,96.756,94.756,96.756,94.756z"/>
	<path fill="#F39969" d="M105.63,169.793c0,0-0.297-8.67-0.138-20.209c0.158-11.539-1.127-48.008-1.127-48.008l-2.531,0.094
		l3.102,55.424l-1.836,12.699H105.63L105.63,169.793z"/>
	<path fill="#F39969" d="M114,168.074c0,0,10.527-14.496,12.237-27.343c1.709-12.846-14.484-39.062-14.484-39.062h-1.82
		c0,0,7.448,11.621,11.638,23.608c5.194,14.865,0.938,19.703-0.333,25.453s-9.634,17.343-9.634,17.343H114z"/>
	<path fill="#F39969" d="M120.96,173.668c0,0,20.943-16.189,21.943-35.154s-25.545-37.588-25.545-37.588l1.685,0.648
		c0,0,34.49,21.741,24.527,45.491c-9.962,23.75-22.736,26.808-22.736,26.808L120.96,173.668z"/>
	<path fill="#F39969" d="M87.083,103.67c0,0-18.083,14.522-15.75,31.154c2.333,16.633,19.668,37.319,19.668,37.319h3.082
		c0,0-4.414-0.649-13.417-18.021s-10.05-25.287-3.029-35.666c6.907-10.211,10.945-13.525,10.945-13.525L87.083,103.67z"/>
</g>
</svg>
