<?xml version="1.0" encoding="utf-8"?>
<!-- Generator: Adobe Illustrator 16.0.0, SVG Export Plug-In . SVG Version: 6.00 Build 0)  -->
<!DOCTYPE svg PUBLIC "-//W3C//DTD SVG 1.1//EN" "http://www.w3.org/Graphics/SVG/1.1/DTD/svg11.dtd">
<svg version="1.1" id="Layer_1" xmlns="http://www.w3.org/2000/svg" xmlns:xlink="http://www.w3.org/1999/xlink" x="0px" y="0px"
	 width="226.77px" height="226.77px" viewBox="0 0 226.77 226.77" enable-background="new 0 0 226.77 226.77" xml:space="preserve">
<g>
	<g>
		<path fill="#ECECEC" d="M146.7,56.99c0,0,7.602-0.113,7.153,9.566c-0.449,9.682-16.71,111.73-16.71,111.73
			s-1.815,9.727-11.729,8.493c-9.915-1.232-52.462-7.846-52.462-7.846s-9.029-2.851-8.311-10.991
			c0.718-8.141,16.49-110.261,16.49-110.261s2.932-10.164,11.279-8.864S146.7,56.99,146.7,56.99z"/>
	</g>
	<g>
		
			<rect x="77.504" y="69.41" transform="matrix(-0.989 -0.1479 0.1479 -0.989 199.9834 248.371)" fill="#CDCDCD" width="63.448" height="94.678"/>
	</g>
	<g>
		<path fill="#BAB9B9" d="M101.073,177.864c-0.25,0-0.502-0.019-0.757-0.057c-1.346-0.201-2.533-0.915-3.343-2.01
			c-0.81-1.096-1.145-2.44-0.942-3.786c0.405-2.725,2.99-4.707,5.793-4.288c2.78,0.416,4.704,3.017,4.289,5.797
			C105.742,175.996,103.575,177.864,101.073,177.864z M101.065,168.666c-2.011,0-3.75,1.501-4.045,3.492
			c-0.163,1.083,0.106,2.163,0.757,3.044c0.651,0.88,1.605,1.454,2.687,1.616c2.247,0.331,4.333-1.258,4.66-3.447
			c0.334-2.234-1.213-4.325-3.448-4.66C101.47,168.681,101.266,168.666,101.065,168.666z"/>
	</g>
	<g>
		<path fill="#BAB9B9" d="M134.894,64.224c-0.123,0.81-0.876,1.367-1.687,1.247l-22.492-3.363c-0.811-0.122-1.368-0.878-1.249-1.688
			l0,0c0.121-0.81,0.877-1.367,1.688-1.247l22.494,3.363C134.454,62.658,135.014,63.412,134.894,64.224L134.894,64.224z"/>
	</g>
	<g>
		<circle fill="#BAB9B9" cx="103.684" cy="59.675" r="1.978"/>
	</g>
	<g>
		<path fill="#54566D" d="M62.747,72.129c-0.612,0-1.186-0.377-1.409-0.985c-2.036-5.563-2.017-10.217,0.057-13.833
			c2.791-4.866,8.25-5.9,8.48-5.941c0.811-0.15,1.595,0.394,1.742,1.21c0.147,0.813-0.392,1.592-1.205,1.741l0,0
			c-0.043,0.008-4.353,0.856-6.431,4.509c-1.597,2.809-1.539,6.604,0.173,11.282c0.285,0.778-0.115,1.64-0.893,1.924
			C63.093,72.099,62.919,72.129,62.747,72.129z"/>
	</g>
	<g>
		<path fill="#54566D" d="M54.445,79.827c-0.612,0-1.186-0.377-1.409-0.985c-3.404-9.302-3.409-17.492-0.014-24.341
			c5.051-10.192,15.738-13.593,16.19-13.732c0.792-0.242,1.632,0.199,1.876,0.99c0.244,0.791-0.198,1.63-0.988,1.875l0,0
			c-0.099,0.031-9.944,3.193-14.404,12.227c-3.001,6.079-2.949,13.464,0.157,21.95c0.285,0.778-0.115,1.64-0.893,1.924
			C54.79,79.797,54.616,79.827,54.445,79.827z"/>
	</g>
	<g>
		<path fill="#54566D" d="M164.322,80.065c-0.379,0-0.758-0.143-1.05-0.428c-0.592-0.58-0.602-1.53-0.021-2.122
			c1.554-1.586,2.274-3.169,2.14-4.704c-0.226-2.587-2.762-4.431-2.787-4.449c-0.672-0.481-0.831-1.417-0.353-2.09
			c0.479-0.673,1.408-0.837,2.084-0.36c0.15,0.106,3.679,2.633,4.042,6.609c0.225,2.457-0.779,4.843-2.983,7.093
			C165.099,79.914,164.71,80.065,164.322,80.065z"/>
	</g>
	<g>
		<path fill="#54566D" d="M168.19,87.116c-0.353,0-0.708-0.124-0.993-0.377c-0.62-0.549-0.678-1.497-0.129-2.117
			c4.04-4.565,5.777-9.067,5.162-13.381c-0.986-6.908-7.725-11.232-7.792-11.275c-0.7-0.441-0.911-1.367-0.471-2.067
			c0.441-0.702,1.367-0.911,2.064-0.474c0.325,0.204,7.967,5.075,9.164,13.367c0.756,5.233-1.223,10.556-5.882,15.819
			C169.018,86.946,168.605,87.116,168.19,87.116z"/>
	</g>
	<g>
		<path fill="#54566D" d="M68.978,68.02c-0.493,0-0.975-0.242-1.262-0.687c-0.151-0.234-1.455-2.358-0.619-4.723
			c0.611-1.731,2.154-3.015,4.586-3.816c0.787-0.26,1.635,0.168,1.895,0.955c0.259,0.787-0.168,1.635-0.955,1.895
			c-1.034,0.34-2.341,0.958-2.697,1.966c-0.353,0.999,0.304,2.086,0.311,2.097c0.449,0.696,0.25,1.625-0.447,2.074
			C69.539,67.942,69.257,68.02,68.978,68.02z"/>
	</g>
	<g opacity="0.2">
		<polygon fill="#ECECEC" points="122.939,70.934 147.605,74.623 133.501,168.293 84.668,160.942 		"/>
	</g>
</g>
</svg>
