<?xml version="1.0" encoding="utf-8"?>
<!-- Generator: Adobe Illustrator 16.0.0, SVG Export Plug-In . SVG Version: 6.00 Build 0)  -->
<!DOCTYPE svg PUBLIC "-//W3C//DTD SVG 1.1//EN" "http://www.w3.org/Graphics/SVG/1.1/DTD/svg11.dtd">
<svg version="1.1" id="Layer_1" xmlns="http://www.w3.org/2000/svg" xmlns:xlink="http://www.w3.org/1999/xlink" x="0px" y="0px"
	 width="226.77px" height="226.77px" viewBox="0 0 226.77 226.77" enable-background="new 0 0 226.77 226.77" xml:space="preserve">
<g>
	<g>
		<path fill="#64C6F2" d="M137.125,170.089c-2.469,2.203-8.459,13.831-1.83,15.913C141.924,188.089,142.946,178.482,137.125,170.089
			z"/>
	</g>
	<g>
		<path fill="#64C6F2" d="M155.477,148.08c0,0-2.861,2.067-2.951,6.929c-0.088,4.864,5.416,5.105,5.469,1.112
			C158.055,151.558,155.477,148.08,155.477,148.08z"/>
	</g>
	<g>
		<path fill="#64C6F2" d="M136.696,136.29c0,0-6.443,9.31-2.904,13.452c3.545,4.145,7.389-1.512,6.586-5.387
			C140.022,142.652,136.696,136.29,136.696,136.29z"/>
	</g>
	<g>
		<path fill="#64C6F2" d="M166.051,131.973c0,0-4.217,7.618-1.189,10.52c3.031,2.898,4.633-1.784,4.625-4.629
			C169.481,135.02,166.051,131.973,166.051,131.973z"/>
	</g>
	<g>
		<path fill="#A0D9F7" d="M156.746,181.187c0,0-8.006,12.966-0.686,14.17S159.201,187.505,156.746,181.187z"/>
	</g>
	<g>
		<path fill="#A0D9F7" d="M173.178,178.19c0,0-3.309,5.47-1.801,8.19c1.506,2.723,2.951,2.333,4.369,0.399
			C177.164,184.849,173.178,178.19,173.178,178.19z"/>
	</g>
	<g>
		<path fill="#A0D9F7" d="M166.543,158.406c0,0-3.76,5.171-2.486,8.009c1.271,2.839,2.742,2.573,4.32,0.767
			C169.953,165.376,166.543,158.406,166.543,158.406z"/>
	</g>
</g>
<g>
	<g>
		<g>
			<path fill="#64C6F2" d="M59.573,143.961c0,0-7.351,12.641-4.497,17.129c2.779,4.369,8.053,2.494,8.339-2.137
				C63.699,154.321,59.573,143.961,59.573,143.961z"/>
		</g>
		<g>
			<path fill="#64C6F2" d="M102.394,129.199c0,0-6.495,5.89-4.552,9.641c1.945,3.747,6.651,0.153,5.912-2.91
				C103.256,133.862,102.394,129.199,102.394,129.199z"/>
		</g>
		<g>
			<path fill="#64C6F2" d="M121.156,152.298c0,0-5.973,7.292-3.312,10.97c2.662,3.678,7.365-1.688,5.826-4.031
				C122.877,158.028,121.156,152.298,121.156,152.298z"/>
		</g>
		<g>
			<path fill="#A0D9F7" d="M112.405,180.483c0,0-5.054,7.958-1.969,11.29c3.084,3.331,6.766-1.805,5.299-4.702
				C115.078,185.78,112.405,180.483,112.405,180.483z"/>
		</g>
		<g>
			<path fill="#A0D9F7" d="M69.313,185.347c0,0-4.967,8.011-1.849,11.31c3.119,3.299,6.501-1.604,5.249-4.758
				C72.18,190.555,69.313,185.347,69.313,185.347z"/>
		</g>
		<g>
			<path fill="#64C6F2" d="M98.793,157.23c0,0-6,7.272-3.354,10.959c2.649,3.688,7.072-0.974,5.842-4.007
				C100.737,162.841,98.793,157.23,98.793,157.23z"/>
		</g>
		<g>
			<path fill="#64C6F2" d="M80.171,141.856c0,0-6,7.271-3.354,10.96c2.648,3.687,7.493-0.175,5.842-4.009
				C82.087,147.478,80.171,141.856,80.171,141.856z"/>
		</g>
	</g>
	<g>
		<path fill="#A0D9F7" d="M88.359,176.655c0,0-5.715,9.438-0.513,9.994C91.822,187.073,90.078,181.115,88.359,176.655z"/>
	</g>
</g>
<path fill="#80ACC3" d="M165.682,63.719c-1.359-11.344-11.01-20.142-22.721-20.142c-6.221,0-11.859,2.485-15.986,6.512
	c-3.119-11.8-13.863-20.501-26.644-20.501c-13.802,0-25.232,10.145-27.245,23.384c-2.091-1.227-20.355-11.348-27.199,5.078
	c-7.261,17.432,13.702,24.675,13.702,24.675s-10.867,8.756-7.501,22.127c3.365,13.371,20.191,16.172,28.268,11.405
	c8.078-4.765,11.106-11.071,11.106-11.071s7.403,24.419,34.664,22.429c21.924-1.599,29.039-11.365,31.338-18.065
	c1.652,0.371,3.369,0.574,5.135,0.574c12.873,0,23.307-10.436,23.307-23.307C185.905,74.99,177.096,65.229,165.682,63.719z"/>
</svg>
