<?xml version="1.0" encoding="utf-8"?>
<!-- Generator: Adobe Illustrator 16.0.0, SVG Export Plug-In . SVG Version: 6.00 Build 0)  -->
<!DOCTYPE svg PUBLIC "-//W3C//DTD SVG 1.1//EN" "http://www.w3.org/Graphics/SVG/1.1/DTD/svg11.dtd">
<svg version="1.1" id="Layer_1" xmlns="http://www.w3.org/2000/svg" xmlns:xlink="http://www.w3.org/1999/xlink" x="0px" y="0px"
	 width="226.77px" height="226.77px" viewBox="0 0 226.77 226.77" enable-background="new 0 0 226.77 226.77" xml:space="preserve">
<g>
	<g>
		<path fill="#54566D" d="M215.054,141.222c-9.868-0.459-17.826-0.104-22.809,0.279c0.012-3.266,0.062-6.135,0.178-7.76
			l-16.089,13.238l16.089,13.24c0,0-0.063-3.24-0.114-7.508c4.356-0.211,10.932-0.148,18.921,1.129
			c2.585,0.412,4.68,1.033,6.397,1.814v-14.191C216.805,141.353,215.956,141.265,215.054,141.222z"/>
	</g>
</g>
<g>
	<path fill="#BE845C" d="M48.272,112.091c0,0,19.259-3.083,32.132-7.227c12.875-4.143,44.795-8.356,57.232-5.52
		c12.438,2.836,18.204,5.04,20.604,12.272c2.4,7.23,4.231,26.312-39.151,35.95c-53.039,11.783-80.744-7.123-86.403-10.341
		c-5.66-3.219-11.141-4.497-12.337-9.952c-1.197-5.455-1.634-7.201,3.167-9.383S48.272,112.091,48.272,112.091z"/>
</g>
<g>
	<path fill="#D59367" d="M62.615,98.721c-0.523-1.745-2.27-45.168,5.149-54.332c7.419-9.165,19.856-11.783,27.712-8.292
		s20.729,21.384,25.094,43.422c4.364,22.039,6.982,50.405,6.982,50.405s3.055,10.474,3.055,11.565c0,1.091,0,3.272,0,3.272
		l-10.037,2.837c0,0-3.056-8.074-3.491-15.711c-0.437-7.637-4.023-38.403-5.503-47.786s-8.898-29.458-14.354-34.913
		s-10.692-8.291-13.311-7.637s-7.131,7.226-10.404,21.845c-3.272,14.619,0.218,26.914,0,28.441
		c-0.219,1.527,2.583,15.032,2.583,15.032l-13.331,2.298L62.615,98.721z"/>
</g>
<g>
	<path fill="#D69467" d="M72.721,102.282c0,0,13.154,0.585,29.52-5.089c16.365-5.673,48.441-4.364,56.732,6.11
		c8.292,10.474,10.256,12.219,9.602,18.983c-0.655,6.765-12.021,34.206-55.643,39.411c-43.621,5.204-73.815-2.972-86.658-14.1
		c-12.842-11.129-13.278-15.057-13.278-15.057l9.383-1.309l8.946,5.455c0,0,24.002,10.691,41.895,12.874
		c16.705,2.037,48.247-1.633,61.595-7.633c0.948-0.426,1.805-0.864,2.558-1.313c11.346-6.765,23.129-15.929,20.729-25.312
		s-3.055-9.819-12.438-12.438s-18.329-5.674-37.749-1.746S76.09,106.87,76.09,106.87L72.721,102.282z"/>
</g>
<g>
	<path fill="#D69467" d="M15.774,136.034c0.218,0.654,15.114,20.074,44.354,24.22c29.239,4.146,67.861-2.399,67.861-2.399
		s5.43-2.183,16.897-8.511c11.469-6.327,18.888-15.274,18.888-15.274s-5.019,28.148-7.201,31.422
		c-2.182,3.273-4.27,2.836-4.972,3.491c-0.701,0.654-2.665,2.803-3.538,4.347c-0.873,1.545-2.618,2.854-4.364,3.072
		c-1.745,0.218-5.673-1.527-6.764,0s-3.273,3.928-3.71,4.801c-0.437,0.872-3.928,2.4-5.892,2.4s-3.927-1.528-4.8,0
		c-0.873,1.527-1.746,2.836-3.491,3.49c-1.746,0.655-7.419-1.527-9.383,0s-4.364,3.71-6.765,4.801s-3.928,1.527-6.328,1.091
		s-5.673-1.411-8.291,0.167c-2.619,1.579-4.146,2.016-7.638,2.016s-6.764,0.218-7.419,0c-0.654-0.219-0.873-1.746-3.272-1.31
		c-2.4,0.437-1.964,1.067-5.674,1.406c-3.709,0.339-6.982,1.188-8.073,0s-2.618-1.188-3.928-0.97
		c-1.309,0.218-2.618-0.219-3.491-0.873s-1.091-3.055-4.364-3.491c-3.272-0.437-7.936-1.31-8.004-1.964
		c-0.069-0.654,0.367-1.309-1.814-2.836c-2.183-1.527-3.492-3.273-4.583-4.146s-0.437-1.091-3.928-4.801
		c-3.491-3.709-4.8-4.8-7.854-13.746C15.177,153.49,15.774,136.034,15.774,136.034z"/>
</g>
<g>
	<g>
		<path fill="#F8B973" d="M119.71,146.804c-1.156,0-1.929-0.084-2.034-0.096c-0.466-0.054-0.8-0.476-0.746-0.941
			c0.052-0.466,0.469-0.807,0.94-0.748c0.083,0.01,8.273,0.886,12.093-3.544c0.307-0.357,0.844-0.396,1.198-0.089
			c0.355,0.307,0.396,0.843,0.089,1.198C128.083,146.258,122.656,146.804,119.71,146.804z"/>
	</g>
	<g>
		<path fill="#F8B973" d="M119.71,144.054c-1.156,0-1.929-0.084-2.034-0.096c-0.466-0.054-0.8-0.476-0.746-0.941
			c0.052-0.465,0.469-0.805,0.94-0.748c0.083,0.01,8.273,0.885,12.093-3.544c0.307-0.358,0.844-0.396,1.198-0.089
			c0.355,0.307,0.396,0.843,0.089,1.198C128.083,143.508,122.656,144.054,119.71,144.054z"/>
	</g>
	<g>
		<path fill="#F8B973" d="M119.71,141.67c-1.156,0-1.929-0.084-2.034-0.096c-0.466-0.054-0.8-0.476-0.746-0.941
			c0.052-0.465,0.469-0.804,0.94-0.748c0.082,0.01,8.275,0.884,12.093-3.544c0.307-0.357,0.844-0.396,1.198-0.089
			c0.355,0.307,0.396,0.843,0.089,1.198C128.083,141.124,122.656,141.67,119.71,141.67z"/>
	</g>
	<g>
		<path fill="#F8B973" d="M118.126,139.71c-1.156,0-1.929-0.084-2.034-0.096c-0.466-0.054-0.8-0.476-0.746-0.941
			c0.053-0.465,0.464-0.805,0.94-0.748c0.081,0.01,8.273,0.886,12.093-3.544c0.307-0.357,0.844-0.396,1.198-0.089
			c0.355,0.307,0.396,0.843,0.089,1.198C126.499,139.164,121.072,139.71,118.126,139.71z"/>
	</g>
	<g>
		<path fill="#F8B973" d="M118.126,137.206c-1.156,0-1.929-0.084-2.034-0.096c-0.466-0.054-0.8-0.476-0.746-0.941
			c0.053-0.466,0.464-0.806,0.94-0.748c0.081,0.01,8.273,0.885,12.093-3.544c0.307-0.357,0.844-0.396,1.198-0.089
			c0.355,0.307,0.396,0.843,0.089,1.198C126.499,136.66,121.072,137.206,118.126,137.206z"/>
	</g>
	<g>
		<path fill="#F8B973" d="M118.087,134.11c-1.164,0-1.929-0.085-1.995-0.092c-0.466-0.054-0.8-0.476-0.746-0.941
			c0.053-0.465,0.464-0.804,0.94-0.748c0.031,0.005,3.195,0.35,6.496-0.441c0.457-0.114,0.916,0.172,1.024,0.628
			c0.109,0.457-0.172,0.915-0.628,1.024C121.259,134,119.414,134.11,118.087,134.11z"/>
	</g>
</g>
<g>
	<g>
		<path fill="#F8B973" d="M64.195,106.21c-1.156,0-1.929-0.084-2.034-0.096c-0.466-0.054-0.8-0.476-0.747-0.941
			c0.054-0.466,0.478-0.805,0.941-0.748c0.082,0.008,8.273,0.884,12.093-3.545c0.307-0.355,0.842-0.396,1.199-0.088
			c0.355,0.306,0.395,0.843,0.088,1.199C72.568,105.664,67.14,106.21,64.195,106.21z"/>
	</g>
	<g>
		<path fill="#F8B973" d="M64.195,103.46c-1.156,0-1.929-0.084-2.034-0.096c-0.466-0.054-0.8-0.475-0.747-0.941
			c0.054-0.466,0.478-0.806,0.941-0.748c0.082,0.009,8.273,0.884,12.093-3.545c0.307-0.354,0.842-0.396,1.199-0.088
			c0.355,0.306,0.395,0.843,0.088,1.199C72.568,102.914,67.14,103.46,64.195,103.46z"/>
	</g>
	<g>
		<path fill="#F8B973" d="M64.195,101.076c-1.156,0-1.929-0.084-2.034-0.096c-0.466-0.054-0.8-0.475-0.747-0.941
			c0.054-0.466,0.478-0.805,0.941-0.748c0.082,0.008,8.273,0.884,12.093-3.545c0.307-0.355,0.842-0.396,1.199-0.088
			c0.355,0.306,0.395,0.843,0.088,1.199C72.568,100.531,67.14,101.076,64.195,101.076z"/>
	</g>
	<g>
		<path fill="#F8B973" d="M62.611,99.116c-1.156,0-1.929-0.084-2.034-0.096c-0.466-0.054-0.8-0.475-0.747-0.941
			c0.054-0.466,0.478-0.804,0.941-0.748c0.082,0.008,8.273,0.884,12.093-3.545c0.306-0.354,0.843-0.396,1.199-0.088
			c0.355,0.306,0.395,0.843,0.088,1.199C70.984,98.571,65.556,99.116,62.611,99.116z"/>
	</g>
	<g>
		<path fill="#F8B973" d="M62.611,96.613c-1.156,0-1.929-0.084-2.034-0.096c-0.466-0.054-0.8-0.475-0.747-0.941
			c0.054-0.466,0.478-0.801,0.941-0.748c0.082,0.009,8.273,0.885,12.093-3.545c0.306-0.355,0.843-0.396,1.199-0.088
			c0.355,0.306,0.395,0.843,0.088,1.199C70.984,96.067,65.556,96.613,62.611,96.613z"/>
	</g>
	<g>
		<path fill="#F8B973" d="M62.572,93.516c-1.165,0-1.93-0.085-1.995-0.093c-0.466-0.054-0.8-0.475-0.747-0.941
			c0.054-0.466,0.478-0.8,0.941-0.748c0.031,0.004,3.193,0.35,6.496-0.442c0.461-0.108,0.916,0.172,1.025,0.628
			c0.109,0.457-0.172,0.916-0.628,1.025C65.743,93.406,63.898,93.516,62.572,93.516z"/>
	</g>
</g>
<g>
	<g>
		<path fill="#F8B973" d="M119.377,131.327c-0.327,0-0.639-0.19-0.778-0.51l-2.442-5.576c-0.188-0.43,0.007-0.931,0.438-1.119
			c0.427-0.188,0.931,0.007,1.119,0.438l2.442,5.576c0.188,0.43-0.007,0.931-0.438,1.119
			C119.608,131.304,119.491,131.327,119.377,131.327z"/>
	</g>
	<g>
		<path fill="#F8B973" d="M121.665,129.021c-0.323,0-0.631-0.185-0.774-0.497l-4.573-10.009c-0.194-0.427-0.007-0.932,0.42-1.127
			c0.428-0.192,0.932-0.007,1.127,0.42l4.573,10.009c0.194,0.427,0.007,0.932-0.42,1.127
			C121.903,128.995,121.783,129.021,121.665,129.021z"/>
	</g>
	<g>
		<path fill="#F8B973" d="M124.63,129.021c-0.319,0-0.624-0.181-0.77-0.487l-9.032-19.123c-0.2-0.425-0.019-0.932,0.405-1.132
			c0.426-0.203,0.931-0.018,1.132,0.405l9.032,19.123c0.2,0.425,0.019,0.932-0.405,1.132
			C124.875,128.994,124.751,129.021,124.63,129.021z"/>
	</g>
	<g>
		<path fill="#F8B973" d="M125.902,125.49c-0.316,0-0.621-0.178-0.767-0.482l-10.73-22.31c-0.204-0.423-0.025-0.931,0.397-1.135
			c0.423-0.203,0.933-0.025,1.134,0.397l10.73,22.311c0.204,0.423,0.025,0.931-0.397,1.134
			C126.151,125.463,126.025,125.49,125.902,125.49z"/>
	</g>
	<g>
		<path fill="#F8B973" d="M124.63,115.315c-0.302,0-0.593-0.161-0.747-0.444l-10.025-18.395c-0.225-0.412-0.072-0.929,0.34-1.153
			c0.414-0.225,0.928-0.071,1.152,0.34l10.024,18.396c0.225,0.412,0.073,0.928-0.34,1.152
			C124.906,115.281,124.767,115.315,124.63,115.315z"/>
	</g>
	<g>
		<path fill="#F8B973" d="M123.643,107.179c-0.284,0-0.562-0.143-0.723-0.401l-10.309-16.565c-0.248-0.399-0.126-0.923,0.272-1.171
			c0.398-0.249,0.922-0.126,1.171,0.272l10.309,16.565c0.248,0.398,0.126,0.923-0.272,1.171
			C123.951,107.137,123.796,107.179,123.643,107.179z"/>
	</g>
	<g>
		<path fill="#F8B973" d="M122.542,98.747c-0.282,0-0.559-0.141-0.721-0.397l-9.208-14.63c-0.25-0.397-0.131-0.922,0.267-1.172
			c0.398-0.252,0.922-0.13,1.172,0.267l9.208,14.63c0.25,0.397,0.13,0.922-0.267,1.172
			C122.854,98.705,122.697,98.747,122.542,98.747z"/>
	</g>
	<g>
		<path fill="#F8B973" d="M120.536,88.279c-0.257,0-0.511-0.116-0.678-0.336l-10.026-13.199c-0.284-0.374-0.211-0.907,0.163-1.191
			c0.373-0.284,0.907-0.211,1.191,0.163l10.026,13.199c0.284,0.374,0.211,0.907-0.163,1.191
			C120.896,88.222,120.715,88.279,120.536,88.279z"/>
	</g>
	<g>
		<path fill="#F8B973" d="M119.901,81.576c-0.217,0-0.434-0.083-0.6-0.247l-11.932-11.861c-0.333-0.331-0.334-0.869-0.004-1.202
			c0.332-0.332,0.87-0.334,1.202-0.004L120.5,80.123c0.333,0.331,0.334,0.869,0.003,1.202
			C120.337,81.492,120.119,81.576,119.901,81.576z"/>
	</g>
	<g>
		<path fill="#F8B973" d="M117.851,74.232c-0.186,0-0.373-0.061-0.53-0.187l-9.883-7.907c-0.367-0.293-0.426-0.828-0.133-1.194
			c0.292-0.368,0.828-0.426,1.194-0.133l9.884,7.907c0.366,0.293,0.426,0.828,0.133,1.194
			C118.348,74.123,118.101,74.232,117.851,74.232z"/>
	</g>
	<g>
		<path fill="#F8B973" d="M116.934,69.715c-0.181,0-0.363-0.058-0.519-0.177l-10.802-8.332c-0.372-0.287-0.441-0.82-0.154-1.192
			c0.288-0.372,0.821-0.441,1.192-0.154l10.803,8.332c0.371,0.287,0.44,0.82,0.153,1.192
			C117.441,69.601,117.189,69.715,116.934,69.715z"/>
	</g>
	<g>
		<path fill="#F8B973" d="M113.933,63.049c-0.138,0-0.278-0.034-0.408-0.105l-10.485-5.762c-0.412-0.226-0.562-0.743-0.336-1.154
			s0.743-0.563,1.154-0.336l10.485,5.762c0.411,0.226,0.562,0.743,0.336,1.154C114.524,62.889,114.234,63.049,113.933,63.049z"/>
	</g>
	<g>
		<path fill="#F8B973" d="M112.204,58.277c-0.112,0-0.226-0.022-0.336-0.069l-10.167-4.379c-0.431-0.186-0.63-0.686-0.444-1.117
			c0.187-0.431,0.687-0.627,1.117-0.444l10.167,4.379c0.431,0.186,0.63,0.686,0.444,1.117
			C112.846,58.085,112.533,58.277,112.204,58.277z"/>
	</g>
	<g>
		<path fill="#F8B973" d="M107.968,52.937c-0.1,0-0.202-0.018-0.301-0.055l-7.908-2.992c-0.439-0.166-0.66-0.657-0.494-1.096
			c0.166-0.439,0.655-0.661,1.096-0.494l7.908,2.992c0.439,0.166,0.66,0.657,0.494,1.096
			C108.635,52.728,108.311,52.937,107.968,52.937z"/>
	</g>
	<g>
		<path fill="#F8B973" d="M104.58,47.941c-0.064,0-0.129-0.007-0.194-0.022l-7.768-1.808c-0.457-0.106-0.741-0.563-0.635-1.021
			c0.107-0.457,0.566-0.739,1.021-0.635l7.768,1.808c0.457,0.106,0.741,0.563,0.635,1.021
			C105.316,47.676,104.967,47.941,104.58,47.941z"/>
	</g>
	<g>
		<path fill="#F8B973" d="M101.769,44.131c-0.051,0-0.103-0.004-0.154-0.014l-9.1-1.67c-0.462-0.084-0.768-0.528-0.683-0.989
			c0.084-0.462,0.525-0.772,0.989-0.683l9.1,1.67c0.462,0.084,0.768,0.528,0.683,0.989
			C102.529,43.844,102.171,44.131,101.769,44.131z"/>
	</g>
	<g>
		<path fill="#F8B973" d="M98.06,40.625c-0.034,0-0.069-0.002-0.104-0.006l-9.295-1.129c-0.466-0.057-0.798-0.48-0.741-0.946
			c0.057-0.466,0.483-0.799,0.946-0.741l9.295,1.129c0.466,0.057,0.798,0.48,0.741,0.946C98.85,40.308,98.484,40.625,98.06,40.625z"
			/>
	</g>
	<g>
		<path fill="#F8B973" d="M90.881,38.224h-8.189c-0.469,0-0.85-0.381-0.85-0.85s0.381-0.85,0.85-0.85h8.189
			c0.469,0,0.85,0.381,0.85,0.85S91.35,38.224,90.881,38.224z"/>
	</g>
</g>
<g>
	<g>
		<path fill="#F8B973" d="M67.364,98.267c-0.339,0-0.66-0.205-0.791-0.54l-2.672-6.804c-0.172-0.437,0.043-0.93,0.48-1.102
			c0.434-0.173,0.93,0.043,1.102,0.48l2.672,6.804c0.172,0.437-0.043,0.93-0.48,1.102C67.572,98.248,67.467,98.267,67.364,98.267z"
			/>
	</g>
	<g>
		<path fill="#F8B973" d="M69.549,94.865c-0.329,0-0.642-0.192-0.781-0.513L63.911,83.11c-0.186-0.431,0.012-0.931,0.443-1.117
			c0.434-0.184,0.932,0.013,1.117,0.443l4.856,11.242c0.186,0.431-0.012,0.931-0.443,1.117
			C69.775,94.843,69.661,94.865,69.549,94.865z"/>
	</g>
	<g>
		<path fill="#F8B973" d="M69.549,87.508c-0.319,0-0.625-0.181-0.77-0.489l-4.856-10.357c-0.199-0.425-0.017-0.931,0.409-1.13
			c0.424-0.2,0.931-0.018,1.13,0.409l4.856,10.357c0.199,0.425,0.017,0.931-0.409,1.13C69.792,87.482,69.67,87.508,69.549,87.508z"
			/>
	</g>
	<g>
		<path fill="#F8B973" d="M69.549,81.333c-0.333,0-0.65-0.197-0.786-0.524l-4.856-11.694c-0.18-0.434,0.025-0.931,0.459-1.111
			c0.435-0.18,0.931,0.026,1.111,0.459l4.856,11.694c0.18,0.434-0.025,0.931-0.459,1.111C69.767,81.312,69.657,81.333,69.549,81.333
			z"/>
	</g>
	<g>
		<path fill="#F8B973" d="M69.549,73.041c-0.315,0-0.618-0.176-0.765-0.479l-4.856-9.992c-0.205-0.422-0.029-0.931,0.393-1.136
			c0.419-0.205,0.931-0.03,1.136,0.393l4.856,9.992c0.205,0.422,0.029,0.931-0.393,1.136C69.8,73.013,69.674,73.041,69.549,73.041z"
			/>
	</g>
	<g>
		<path fill="#F8B973" d="M70.762,65.671c-0.31,0-0.609-0.17-0.759-0.466l-4.734-9.354c-0.212-0.419-0.044-0.93,0.375-1.142
			c0.418-0.212,0.93-0.045,1.142,0.375l4.734,9.354c0.212,0.419,0.044,0.93-0.375,1.142C71.023,65.641,70.892,65.671,70.762,65.671z
			"/>
	</g>
	<g>
		<path fill="#F8B973" d="M70.762,59.153c-0.358,0-0.69-0.227-0.808-0.585l-2.367-7.229c-0.146-0.446,0.097-0.926,0.543-1.072
			c0.45-0.145,0.927,0.097,1.072,0.543l2.367,7.229c0.146,0.446-0.097,0.926-0.543,1.072C70.939,59.139,70.849,59.153,70.762,59.153
			z"/>
	</g>
	<g>
		<path fill="#F8B973" d="M73.19,53.908c-0.388,0-0.738-0.267-0.828-0.661c-0.165-0.723-2.294-5.898-3.597-8.99
			c-0.183-0.433,0.021-0.931,0.453-1.113c0.433-0.182,0.931,0.021,1.113,0.453c0.351,0.833,3.436,8.166,3.688,9.272
			c0.104,0.458-0.182,0.913-0.64,1.018C73.316,53.901,73.253,53.908,73.19,53.908z"/>
	</g>
	<g>
		<path fill="#F8B973" d="M75.861,49.343c-0.346,0-0.671-0.213-0.798-0.557l-2.67-7.272c-0.162-0.441,0.064-0.929,0.505-1.091
			c0.44-0.164,0.929,0.064,1.091,0.505l2.67,7.272c0.162,0.441-0.064,0.929-0.505,1.091C76.057,49.326,75.958,49.343,75.861,49.343z
			"/>
	</g>
</g>
<g>
	<path fill="#F8B973" d="M128.308,148.449c-0.398,0-0.754-0.282-0.833-0.688c-0.09-0.461,0.211-0.907,0.672-0.996
		c2.96-0.576,11.051-2.84,12.911-6.349c0.22-0.413,0.732-0.573,1.149-0.353c0.414,0.22,0.572,0.734,0.353,1.149
		c-2.621,4.942-13.622,7.13-14.089,7.22C128.416,148.444,128.362,148.449,128.308,148.449z"/>
</g>
<g>
	<path fill="#F8B973" d="M130.606,150.582c-0.383,0-0.73-0.261-0.825-0.649c-0.111-0.456,0.169-0.916,0.625-1.027
		c0.154-0.037,15.475-3.821,19.413-8.63c0.299-0.364,0.835-0.415,1.196-0.118c0.362,0.297,0.416,0.833,0.118,1.196
		c-4.296,5.245-19.673,9.045-20.325,9.204C130.74,150.574,130.673,150.582,130.606,150.582z"/>
</g>
<g>
	<path fill="#F8B973" d="M145.977,141.665c-0.324,0-0.634-0.187-0.775-0.501c-0.193-0.428-0.003-0.931,0.425-1.124
		c3.268-1.477,8.46-8.099,8.513-8.165c0.287-0.37,0.822-0.437,1.192-0.147s0.437,0.822,0.147,1.192
		c-0.223,0.286-5.504,7.021-9.153,8.669C146.212,141.641,146.093,141.665,145.977,141.665z"/>
</g>
<g>
	<path fill="#F8B973" d="M156.143,129.594c-0.205,0-0.41-0.073-0.573-0.222c-0.347-0.316-0.371-0.854-0.056-1.2
		c0.036-0.04,3.587-4.017,3.279-9.482c-0.026-0.469,0.332-0.87,0.801-0.896c0.469-0.02,0.87,0.332,0.896,0.801
		c0.35,6.199-3.555,10.542-3.722,10.725S156.372,129.594,156.143,129.594z"/>
</g>
<g>
	<path fill="#F8B973" d="M159.663,132.374c-0.221,0-0.441-0.085-0.607-0.256c-0.328-0.335-0.322-0.872,0.012-1.201
		c0.041-0.041,4.134-4.139,3.856-10.403c-0.021-0.469,0.343-0.865,0.812-0.887c0.462-0.007,0.865,0.343,0.887,0.812
		c0.311,7.047-4.177,11.507-4.367,11.693C160.091,132.294,159.877,132.374,159.663,132.374z"/>
</g>
<g>
	<path fill="#F8B973" d="M154.81,140.675c-0.284,0-0.561-0.142-0.722-0.4c-0.249-0.397-0.127-0.922,0.271-1.171
		c0.076-0.047,7.627-4.812,9.992-10.827c0.172-0.438,0.667-0.652,1.102-0.48c0.438,0.172,0.652,0.665,0.48,1.102
		c-2.573,6.545-10.345,11.444-10.675,11.649C155.118,140.634,154.963,140.675,154.81,140.675z"/>
</g>
<g>
	<path fill="#F8B973" d="M161.725,123.643c-0.094,0-0.188-0.016-0.281-0.049c-0.443-0.155-0.676-0.641-0.521-1.083
		c1.938-5.522-3.72-16.656-3.776-16.769c-0.215-0.417-0.05-0.93,0.368-1.144c0.419-0.215,0.931-0.048,1.144,0.368
		c0.248,0.483,6.048,11.897,3.868,18.107C162.405,123.423,162.075,123.643,161.725,123.643z"/>
</g>
<g>
	<path fill="#F8B973" d="M167.808,123.497c-0.444,0-0.817-0.345-0.848-0.794c-0.126-1.918-1.931-7.112-2.615-8.952
		c-0.163-0.44,0.061-0.93,0.5-1.094c0.438-0.162,0.929,0.061,1.094,0.5c0.104,0.28,2.55,6.878,2.719,9.435
		c0.03,0.468-0.324,0.873-0.793,0.904C167.846,123.497,167.826,123.497,167.808,123.497z"/>
</g>
<g>
	<path fill="#F8B973" d="M152.975,104.246c-0.142,0-0.285-0.036-0.418-0.11c-0.073-0.042-7.44-4.187-12.107-4.694
		c-0.467-0.051-0.804-0.471-0.753-0.937c0.05-0.467,0.465-0.804,0.937-0.753c5.017,0.546,12.447,4.728,12.762,4.905
		c0.408,0.231,0.552,0.75,0.32,1.159C153.559,104.091,153.272,104.246,152.975,104.246z"/>
</g>
<g>
	<path fill="#F8B973" d="M154.81,101.845c-0.315,0-0.618-0.175-0.765-0.478c-0.791-1.622-8.468-3.769-13.666-4.776
		c-0.46-0.089-0.762-0.535-0.672-0.996c0.089-0.461,0.544-0.763,0.995-0.673c2.229,0.432,13.425,2.736,14.87,5.7
		c0.206,0.422,0.031,0.931-0.391,1.137C155.062,101.818,154.935,101.845,154.81,101.845z"/>
</g>
<g>
	<path fill="#F8B973" d="M135.977,99.226c-0.028,0-0.057-0.001-0.085-0.004l-9.632-0.959c-0.468-0.046-0.809-0.463-0.762-0.93
		c0.047-0.467,0.467-0.812,0.93-0.762l9.632,0.959c0.468,0.046,0.809,0.463,0.762,0.93
		C136.778,98.899,136.408,99.226,135.977,99.226z"/>
</g>
<g>
	<path fill="#F8B973" d="M136.809,96.305c-0.088,0-0.177-0.014-0.265-0.042c-0.577-0.166-5.726-0.678-10.274-1.074
		c-0.467-0.041-0.813-0.453-0.772-0.92c0.04-0.468,0.441-0.819,0.921-0.773c2.282,0.199,9.796,0.87,10.655,1.152
		c0.446,0.146,0.689,0.626,0.543,1.073C137.499,96.078,137.166,96.305,136.809,96.305z"/>
</g>
<g>
	<path fill="#F8B973" d="M96.949,102.815c-0.396,0-0.75-0.278-0.832-0.681c-0.094-0.46,0.204-0.909,0.664-1.002
		c1.407-0.287,13.833-2.786,15.439-2.776c0.47,0.007,0.845,0.393,0.838,0.862c-0.007,0.465-0.386,0.838-0.85,0.838
		c-0.011,0-0.019-0.001-0.028,0c-1.17,0-9.632,1.637-15.061,2.742C97.063,102.81,97.006,102.815,96.949,102.815z"/>
</g>
<g>
	<path fill="#F8B973" d="M101.767,98.747c-0.409,0-0.77-0.296-0.838-0.712c-0.076-0.463,0.238-0.9,0.701-0.977l9.729-1.595
		c0.474-0.075,0.901,0.239,0.977,0.701c0.076,0.463-0.238,0.9-0.701,0.977l-9.729,1.595
		C101.859,98.743,101.812,98.747,101.767,98.747z"/>
</g>
<g>
	<path fill="#F8B973" d="M77.223,106.205c-0.418,0-0.783-0.31-0.841-0.735c-0.063-0.465,0.262-0.894,0.727-0.958
		c0.918-0.126,14.583-2.027,14.583-2.027l0.234,1.684c0,0-13.668,1.901-14.586,2.027C77.3,106.202,77.261,106.205,77.223,106.205z"
		/>
</g>
<g>
	<path fill="#F8B973" d="M80.345,102.815c-0.428,0-0.796-0.323-0.844-0.758c-0.051-0.467,0.286-0.886,0.753-0.938l15.986-1.744
		c0.461-0.055,0.886,0.286,0.938,0.753c0.051,0.467-0.286,0.886-0.753,0.938l-15.986,1.744
		C80.407,102.814,80.376,102.815,80.345,102.815z"/>
</g>
<g>
	<path fill="#F8B973" d="M29.273,115.642c-0.392,0-0.744-0.273-0.83-0.672c-0.099-0.459,0.193-0.911,0.652-1.01
		c1.931-0.415,18.973-4.075,21.88-3.854c0.469,0.03,0.823,0.436,0.792,0.904c-0.031,0.469-0.443,0.842-0.904,0.791
		c-2.281-0.121-16.229,2.707-21.411,3.82C29.392,115.635,29.332,115.642,29.273,115.642z"/>
</g>
<g>
	<path fill="#F8B973" d="M15.728,135.057c-0.289,0-0.571-0.147-0.73-0.414c-3.757-6.272,1.614-14.857,1.845-15.22
		c0.252-0.396,0.776-0.51,1.173-0.262c0.396,0.252,0.513,0.777,0.262,1.174c-0.051,0.08-5.038,8.064-1.822,13.435
		c0.241,0.402,0.11,0.925-0.292,1.166C16.027,135.018,15.876,135.057,15.728,135.057z"/>
</g>
<g>
	<g>
		<path fill="#F8B973" d="M25.314,147.969c-0.019,0-0.037,0-0.055-0.001c-3.289-0.21-5.943-2.902-6.055-3.017
			c-0.327-0.336-0.319-0.873,0.016-1.2c0.335-0.328,0.875-0.32,1.202,0.014c0.023,0.023,2.318,2.339,4.946,2.506
			c0.468,0.03,0.824,0.435,0.794,0.902C26.132,147.623,25.758,147.969,25.314,147.969z"/>
	</g>
	<g>
		<path fill="#F8B973" d="M38.008,153.992c-5.334,0-8.558-4.01-8.695-4.184c-0.291-0.369-0.228-0.903,0.141-1.194
			c0.368-0.288,0.902-0.227,1.193,0.141c0.054,0.067,2.984,3.67,7.64,3.533c0.452-0.014,0.862,0.354,0.876,0.823
			c0.015,0.47-0.354,0.861-0.823,0.876C38.228,153.991,38.117,153.992,38.008,153.992z"/>
	</g>
	<g>
		<path fill="#F8B973" d="M48.944,160.113c-3.917,0-6.099-2.536-6.745-4.037c-0.186-0.431,0.014-0.931,0.445-1.116
			c0.429-0.188,0.927,0.012,1.115,0.44c0.068,0.155,1.675,3.639,6.425,2.915c0.462-0.069,0.898,0.247,0.969,0.711
			c0.071,0.464-0.248,0.897-0.711,0.969C49.917,160.075,49.418,160.113,48.944,160.113z"/>
	</g>
	<g>
		<path fill="#F8B973" d="M35.443,161.765c-3.917,0-6.099-2.536-6.745-4.037c-0.186-0.431,0.014-0.931,0.445-1.116
			c0.43-0.189,0.927,0.012,1.115,0.44c0.069,0.155,1.676,3.638,6.425,2.915c0.462-0.07,0.898,0.247,0.969,0.711
			c0.071,0.464-0.248,0.897-0.711,0.969C36.416,161.728,35.917,161.765,35.443,161.765z"/>
	</g>
	<g>
		<path fill="#F8B973" d="M35.443,166.972c-3.917,0-6.099-2.536-6.745-4.037c-0.186-0.431,0.014-0.931,0.445-1.116
			c0.43-0.189,0.927,0.012,1.115,0.44c0.069,0.155,1.676,3.641,6.425,2.915c0.462-0.069,0.898,0.247,0.969,0.711
			c0.071,0.464-0.248,0.897-0.711,0.969C36.416,166.935,35.917,166.972,35.443,166.972z"/>
	</g>
	<g>
		<path fill="#F8B973" d="M35.443,171.182c-3.917,0-6.099-2.536-6.745-4.037c-0.186-0.431,0.014-0.931,0.445-1.116
			c0.43-0.188,0.927,0.012,1.115,0.44c0.069,0.155,1.676,3.64,6.425,2.915c0.462-0.07,0.898,0.247,0.969,0.711
			c0.071,0.464-0.248,0.897-0.711,0.969C36.416,171.145,35.917,171.182,35.443,171.182z"/>
	</g>
	<g>
		<path fill="#F8B973" d="M35.443,174.498c-3.917,0-6.099-2.536-6.745-4.037c-0.186-0.431,0.014-0.931,0.445-1.116
			c0.43-0.189,0.927,0.012,1.115,0.44c0.069,0.155,1.676,3.638,6.425,2.915c0.462-0.074,0.898,0.247,0.969,0.711
			c0.071,0.464-0.248,0.897-0.711,0.969C36.416,174.461,35.917,174.498,35.443,174.498z"/>
	</g>
	<g>
		<path fill="#F8B973" d="M24.646,152.494c-0.072,0-0.146-0.01-0.22-0.029c-2.66-0.71-5.071-2.791-5.172-2.88
			c-0.354-0.308-0.391-0.844-0.083-1.198s0.845-0.391,1.199-0.084c0.022,0.02,2.221,1.913,4.495,2.52
			c0.454,0.121,0.723,0.587,0.602,1.04C25.365,152.243,25.022,152.494,24.646,152.494z"/>
	</g>
	<g>
		<path fill="#F8B973" d="M24.646,156.714c-0.072,0-0.146-0.01-0.22-0.029c-2.66-0.71-5.071-2.791-5.172-2.88
			c-0.354-0.308-0.391-0.844-0.083-1.198s0.845-0.392,1.199-0.084c0.022,0.02,2.221,1.913,4.495,2.52
			c0.454,0.121,0.723,0.587,0.602,1.04C25.365,156.463,25.022,156.714,24.646,156.714z"/>
	</g>
	<g>
		<path fill="#F8B973" d="M24.979,160.734c-0.072,0-0.146-0.01-0.22-0.029c-2.66-0.71-5.071-2.791-5.172-2.88
			c-0.354-0.308-0.391-0.844-0.083-1.198s0.845-0.391,1.199-0.084c0.022,0.02,2.221,1.913,4.495,2.52
			c0.454,0.121,0.723,0.587,0.602,1.04C25.698,160.483,25.355,160.734,24.979,160.734z"/>
	</g>
	<g>
		<path fill="#F8B973" d="M37.146,158.297c-0.002,0-0.005,0-0.008,0c-3.61-0.032-8.354-4.188-8.555-4.365
			c-0.352-0.311-0.385-0.848-0.074-1.199s0.848-0.385,1.2-0.075c1.233,1.089,4.976,3.918,7.445,3.94
			c0.469,0.004,0.846,0.388,0.842,0.857C37.991,157.922,37.612,158.297,37.146,158.297z"/>
	</g>
	<g>
		<path fill="#F8B973" d="M48.657,163.411c-4.408,0-7.21-3.451-7.342-3.617c-0.292-0.367-0.231-0.902,0.136-1.194
			c0.368-0.294,0.9-0.231,1.194,0.135c0.132,0.165,3.092,3.762,7.49,2.817c0.458-0.098,0.911,0.193,1.009,0.652
			c0.099,0.46-0.194,0.911-0.653,1.01C49.853,163.351,49.241,163.411,48.657,163.411z"/>
	</g>
	<g>
		<path fill="#F8B973" d="M48.657,167.844c-4.408,0-7.21-3.451-7.342-3.617c-0.292-0.367-0.231-0.902,0.136-1.194
			c0.368-0.293,0.9-0.231,1.194,0.135c0.132,0.165,3.092,3.761,7.49,2.817c0.458-0.101,0.911,0.193,1.009,0.652
			c0.099,0.46-0.194,0.911-0.653,1.01C49.853,167.783,49.241,167.844,48.657,167.844z"/>
	</g>
	<g>
		<path fill="#F8B973" d="M48.657,172.718c-4.408,0-7.21-3.451-7.342-3.617c-0.292-0.367-0.231-0.902,0.136-1.194
			c0.368-0.293,0.9-0.231,1.194,0.135c0.132,0.165,3.092,3.762,7.49,2.817c0.458-0.098,0.911,0.193,1.009,0.652
			c0.099,0.46-0.194,0.911-0.653,1.01C49.853,172.657,49.241,172.718,48.657,172.718z"/>
	</g>
	<g>
		<path fill="#F8B973" d="M47.873,177.287c-4.408,0-7.21-3.451-7.342-3.617c-0.292-0.367-0.231-0.902,0.136-1.194
			c0.368-0.293,0.901-0.231,1.194,0.135c0.132,0.165,3.092,3.764,7.49,2.817c0.458-0.099,0.911,0.193,1.009,0.652
			c0.099,0.46-0.194,0.911-0.653,1.01C49.069,177.227,48.457,177.287,47.873,177.287z"/>
	</g>
	<g>
		<path fill="#F8B973" d="M47.873,182.189c-4.408,0-7.21-3.451-7.342-3.617c-0.292-0.367-0.231-0.902,0.136-1.194
			c0.368-0.294,0.901-0.231,1.194,0.135c0.132,0.165,3.092,3.763,7.49,2.817c0.458-0.097,0.911,0.193,1.009,0.652
			c0.099,0.46-0.194,0.911-0.653,1.01C49.069,182.128,48.457,182.189,47.873,182.189z"/>
	</g>
	<g>
		<path fill="#F8B973" d="M47.873,186.394c-4.408,0-7.21-3.451-7.342-3.617c-0.292-0.367-0.231-0.902,0.136-1.194
			c0.368-0.293,0.901-0.231,1.194,0.135c0.132,0.165,3.092,3.762,7.49,2.817c0.458-0.1,0.911,0.193,1.009,0.652
			c0.099,0.46-0.194,0.911-0.653,1.01C49.069,186.333,48.457,186.394,47.873,186.394z"/>
	</g>
</g>
<g>
	<g>
		<g>
			<g>
				<path fill="#F08400" d="M74.936,102.254c-0.705,1.436-3.41,4.006-1.533,8.951c1.213,3.197,12.13,25.283,19.697,40.496
					c4.136,8.317,12.429,3.519,11.029-1.76c-2.49-9.385-12.79-39.225-12.576-41.269c0.213-2.04-0.13-6.542-4.267-8.993
					C83.153,97.229,77.113,97.819,74.936,102.254z"/>
			</g>
		</g>
		<g>
			<g>
				<path fill="#93C01F" d="M69.436,91.217l1.424-0.868l8.398,10.55c0,0-1.212,0.428-2.767,0.892
					C75.968,100.125,69.436,91.217,69.436,91.217z"/>
			</g>
		</g>
		<g>
			<g>
				<path fill="#39A935" d="M71.214,85.73l2.389-1.313l6.488,16.088c0,0-0.652,0.383-1.889,0.905
					c-0.414-1.495-3.094-5.72-3.094-5.72L71.214,85.73z"/>
			</g>
		</g>
		<g>
			<g>
				<polygon fill="#93C01F" points="77.165,88.133 79.654,88.315 80.641,100.591 78.427,100.752 				"/>
			</g>
		</g>
		<g>
			<g>
				<path fill="#C1472A" d="M74.597,113.917c0,0,2.811-0.972,3.67-2.124c0.862-1.153,1.797-2.263,2.285-1.678
					c0.492,0.586,0.435,0.862-1.233,2.174c-1.667,1.309-4.153,2.84-4.153,2.84L74.597,113.917z"/>
			</g>
		</g>
		<g>
			<g>
				<path fill="#C1472A" d="M93.106,114.768c0,0-1.97,1.463-3.263,1.753s-1.658,0.393-1.724,0.869
					c-0.065,0.476,0.091,1.28,1.971,0.503c1.88-0.781,3.46-1.672,3.46-1.672L93.106,114.768z"/>
			</g>
		</g>
		<g>
			<g>
				<path fill="#C1472A" d="M81.497,128.229c0,0,1.973-0.145,3.292-0.83c1.319-0.688,1.374-0.965,2.005-0.811
					c0.63,0.154,1.559,0.678-0.005,1.537c-1.562,0.857-4.53,1.658-4.53,1.658L81.497,128.229z"/>
			</g>
		</g>
		<g>
			<g>
				<path fill="#C1472A" d="M95.58,122.668c0,0-0.961,0.979-2.057,1.279c-1.093,0.301-2.508,0.625-2.508,0.625
					s-0.796,0.677,0.056,1.162c0.856,0.484,1.96-0.223,3.061-0.52c1.102-0.299,1.942-0.995,1.942-0.995L95.58,122.668z"/>
			</g>
		</g>
		<g>
			<g>
				<path fill="#C1472A" d="M92.043,144.114c0,0,2.028-1.33,2.759-1.112c0.729,0.22,0.791,0.45-0.429,1.198
					c-1.224,0.75-2.548,2.053-2.714,1.095C91.491,144.335,91.232,144.596,92.043,144.114z"/>
			</g>
		</g>
		<g>
			<g>
				<path fill="#C1472A" d="M102.923,145.755c0,0-0.369,0.656-2.684,1.08c-2.314,0.423-2.825,0.372-3.275,0.554
					c-0.451,0.182-1.295,0.582,0.345,0.854c1.636,0.271,1.784,0.086,3.288-0.521c1.504-0.605,2.601-1.042,2.601-1.042
					L102.923,145.755z"/>
			</g>
		</g>
		<g>
			<g>
				<path fill="#C1472A" d="M98.907,133.018c0,0-1.328,1.82-3.391,1.365c-2.062-0.457-2.598,0.655-2.006,1.379
					c0.59,0.727,1.214,1.117,3.33,0.266c2.117-0.854,2.556-1.484,2.556-1.484L98.907,133.018z"/>
			</g>
		</g>
	</g>
	<g>
		<g>
			<path fill="#C1472A" d="M91.88,110.461c0,0-4.383,0.645-4.605,1.367c-0.225,0.723-0.225,0.723,0.283,0.998
				c0.845,0.455,4.687-1.012,4.687-1.012L91.88,110.461z"/>
		</g>
	</g>
</g>
<path fill="#D59367" d="M111.514,148.297c-13.297,2.029-28.109,2.785-37.864,1.596c-17.893-2.183-41.613-13.382-41.613-13.382
	l-8.75-4.656l0.082-0.018c0,0-2.735-6.277-3.065-8.678c-0.331-2.399,1.64-3.272,3.386-4.006c1.745-0.734,6.546-1.885,12.725-4.067
	c6.179-2.182,27.184-4.132,27.184-4.132l2.407-4.293c0,0-28.133,3.625-34.897,4.934c-6.764,1.31-17.456,6.328-20.92,10.087
	s2.81,12.388,2.81,12.388l1.45,1.61c0.867,1.784,3.059,4.275,12.259,12.249c12.843,11.128,43.037,19.304,86.658,14.1
	C112.239,156.257,112.283,154.936,111.514,148.297z"/>
<g>
	<g>
		<path fill="#F8B973" d="M102.28,157.406c-0.453,0-0.829-0.356-0.849-0.813c-0.02-0.469,0.344-0.865,0.813-0.886
			c11.211-0.478,21.318-5.172,21.419-5.22c0.422-0.199,0.932-0.018,1.131,0.408c0.199,0.425,0.017,0.931-0.408,1.131
			c-0.424,0.199-10.52,4.887-22.069,5.38C102.304,157.406,102.292,157.406,102.28,157.406z"/>
	</g>
	<g>
		<path fill="#F8B973" d="M87.714,160.424c-3.669,0-6.913-0.254-9.313-0.89c-0.454-0.119-0.725-0.585-0.604-1.039
			c0.12-0.454,0.586-0.725,1.039-0.604c9.897,2.614,35.26-1.559,43.596-2.931c2.473-0.406,2.559-0.414,2.753-0.394
			c0.467,0.051,0.804,0.471,0.752,0.938c-0.048,0.436-0.416,0.757-0.844,0.757c-0.001,0-0.002,0-0.003,0
			c-0.218,0.021-1.224,0.187-2.383,0.377C116.256,157.7,99.712,160.424,87.714,160.424z"/>
	</g>
	<g>
		<path fill="#F8B973" d="M89.071,155.875c-13.182,0-24.42-3.401-24.561-3.444c-0.449-0.139-0.7-0.613-0.562-1.062
			c0.138-0.448,0.61-0.699,1.062-0.562c0.172,0.053,17.498,5.286,34.151,2.607c0.465-0.081,0.9,0.24,0.975,0.704
			c0.075,0.463-0.241,0.899-0.704,0.974C95.954,155.652,92.448,155.875,89.071,155.875z"/>
	</g>
	<g>
		<path fill="#F8B973" d="M69.864,159.739c-8.602,0-22.414-4.467-23.062-4.678c-0.446-0.146-0.69-0.626-0.544-1.072
			c0.146-0.445,0.626-0.687,1.072-0.545c0.173,0.058,17.379,5.621,24.974,4.43c0.458-0.073,0.899,0.244,0.972,0.708
			s-0.244,0.898-0.708,0.972C71.751,159.681,70.841,159.739,69.864,159.739z"/>
	</g>
	<g>
		<path fill="#F8B973" d="M63.482,155.103c-0.072,0-0.145-0.01-0.217-0.028c-9.769-2.572-19.448-7.083-19.545-7.129
			c-0.425-0.199-0.608-0.705-0.409-1.13c0.2-0.426,0.708-0.608,1.13-0.409c0.096,0.044,9.64,4.492,19.256,7.023
			c0.454,0.12,0.725,0.585,0.605,1.039C64.203,154.85,63.859,155.103,63.482,155.103z"/>
	</g>
	<g>
		<path fill="#F8B973" d="M41.523,151.691c-0.073,0-0.147-0.01-0.222-0.03c-4.125-1.11-9.181-4.239-9.394-4.372
			c-0.398-0.248-0.521-0.772-0.272-1.171c0.248-0.398,0.771-0.521,1.17-0.272c0.05,0.031,5.059,3.13,8.938,4.175
			c0.453,0.122,0.722,0.588,0.6,1.041C42.241,151.441,41.898,151.691,41.523,151.691z"/>
	</g>
	<g>
		<path fill="#F8B973" d="M38.326,145.857c-0.08,0-0.161-0.012-0.241-0.035c-4.685-1.381-12.349-4.664-12.673-4.803
			c-0.431-0.186-0.631-0.686-0.446-1.116c0.186-0.432,0.687-0.63,1.117-0.446c0.078,0.034,7.896,3.382,12.483,4.734
			c0.45,0.133,0.708,0.605,0.575,1.056C39.031,145.616,38.693,145.857,38.326,145.857z"/>
	</g>
	<g>
		<path fill="#F8B973" d="M40.672,143.486c-0.059,0-0.118-0.007-0.178-0.02c-6.709-1.43-16.947-8.854-17.379-9.169
			c-0.379-0.276-0.462-0.808-0.186-1.188c0.276-0.379,0.808-0.464,1.188-0.186c0.103,0.075,10.377,7.525,16.732,8.88
			c0.459,0.098,0.752,0.549,0.654,1.008C41.417,143.211,41.065,143.486,40.672,143.486z"/>
	</g>
	<g>
		<path fill="#F8B973" d="M23.616,141.4c-0.236,0-0.471-0.098-0.639-0.289c-2.179-2.481-5.932-9.955-6.09-10.271
			c-0.21-0.42-0.04-0.931,0.38-1.141c0.42-0.211,0.93-0.04,1.141,0.379c0.038,0.076,3.812,7.594,5.847,9.912
			c0.31,0.353,0.275,0.89-0.078,1.199C24.015,141.33,23.815,141.4,23.616,141.4z"/>
	</g>
	<g>
		<path fill="#F8B973" d="M19.138,128.315c-0.438,0-0.81-0.336-0.846-0.78c-0.219-2.677,1.5-8.572,4.968-10.173
			c0.425-0.2,0.931-0.011,1.128,0.415c0.196,0.427,0.01,0.932-0.416,1.128c-2.65,1.224-4.17,6.24-3.985,8.491
			c0.039,0.468-0.31,0.878-0.778,0.916C19.185,128.314,19.161,128.315,19.138,128.315z"/>
	</g>
</g>
<g>
	<g>
		<path fill="#F8B973" d="M59.402,166.775c-4.612,0-6.486-2.338-6.583-2.464c-0.287-0.371-0.219-0.905,0.153-1.192
			c0.368-0.285,0.899-0.219,1.188,0.147c0.114,0.141,2.521,2.969,9.133,1.271c0.455-0.121,0.917,0.158,1.035,0.611
			c0.117,0.455-0.157,0.918-0.612,1.035C62.069,166.607,60.637,166.775,59.402,166.775z"/>
	</g>
	<g>
		<path fill="#F8B973" d="M59.401,170.362c-4.611,0-6.485-2.337-6.582-2.463c-0.287-0.371-0.219-0.905,0.152-1.192
			c0.37-0.285,0.899-0.219,1.188,0.147c0.113,0.14,2.521,2.966,9.133,1.271c0.455-0.121,0.917,0.157,1.035,0.611
			c0.117,0.455-0.157,0.918-0.612,1.035C62.069,170.194,60.636,170.362,59.401,170.362z"/>
	</g>
	<g>
		<path fill="#F8B973" d="M60.006,175.04c-4.613,0-6.487-2.338-6.583-2.464c-0.287-0.371-0.219-0.905,0.152-1.192
			c0.369-0.284,0.899-0.218,1.188,0.146c0.113,0.14,2.521,2.972,9.134,1.272c0.453-0.121,0.917,0.158,1.035,0.611
			c0.117,0.455-0.157,0.918-0.612,1.035C62.674,174.872,61.241,175.04,60.006,175.04z"/>
	</g>
	<g>
		<path fill="#F8B973" d="M60.006,180.367c-4.613,0-6.487-2.338-6.583-2.464c-0.287-0.371-0.219-0.905,0.152-1.192
			c0.369-0.284,0.899-0.219,1.188,0.146c0.113,0.14,2.521,2.973,9.134,1.272c0.453-0.12,0.917,0.158,1.035,0.611
			c0.117,0.455-0.157,0.918-0.612,1.035C62.674,180.199,61.241,180.367,60.006,180.367z"/>
	</g>
	<g>
		<path fill="#F8B973" d="M60.005,184.508c-4.612,0-6.485-2.337-6.582-2.463c-0.287-0.371-0.219-0.905,0.152-1.192
			c0.369-0.285,0.899-0.219,1.188,0.147c0.113,0.14,2.519,2.968,9.134,1.271c0.453-0.122,0.917,0.156,1.035,0.611
			c0.117,0.455-0.157,0.918-0.612,1.035C62.673,184.34,61.24,184.508,60.005,184.508z"/>
	</g>
	<g>
		<path fill="#F8B973" d="M60.005,187.987c-4.612,0-6.485-2.337-6.582-2.463c-0.287-0.371-0.219-0.905,0.152-1.192
			c0.369-0.284,0.899-0.22,1.188,0.147c0.113,0.14,2.519,2.968,9.134,1.271c0.453-0.12,0.917,0.156,1.035,0.611
			c0.117,0.455-0.157,0.918-0.612,1.035C62.673,187.819,61.24,187.987,60.005,187.987z"/>
	</g>
	<g>
		<path fill="#F8B973" d="M77.729,168.012c-3.467,0-6.074-0.828-6.265-0.892c-0.446-0.146-0.689-0.624-0.544-1.07
			c0.145-0.446,0.624-0.688,1.071-0.546c0.078,0.026,7.812,2.466,14.06-1.371c0.401-0.245,0.924-0.12,1.169,0.28
			c0.246,0.399,0.12,0.923-0.28,1.169C83.853,167.477,80.514,168.012,77.729,168.012z"/>
	</g>
	<g>
		<path fill="#F8B973" d="M97.15,166.865c-3.467,0-6.073-0.827-6.265-0.891c-0.446-0.146-0.689-0.624-0.544-1.07
			c0.146-0.446,0.627-0.69,1.071-0.546c0.078,0.026,7.812,2.465,14.062-1.371c0.4-0.246,0.923-0.12,1.169,0.28
			c0.246,0.399,0.12,0.923-0.28,1.169C103.275,166.33,99.934,166.865,97.15,166.865z"/>
	</g>
	<g>
		<path fill="#F8B973" d="M133.768,157.881c-0.98,0-1.601-0.17-1.672-0.19c-0.451-0.129-0.711-0.601-0.581-1.052
			c0.128-0.449,0.594-0.711,1.047-0.583c0.186,0.048,4.227,1.078,8.413-3.617c0.312-0.352,0.849-0.382,1.2-0.069
			c0.351,0.312,0.382,0.85,0.069,1.2C138.978,157.235,135.684,157.881,133.768,157.881z"/>
	</g>
	<g>
		<path fill="#F8B973" d="M143.805,152.47c-0.216,0-0.348-0.013-0.379-0.016c-0.467-0.049-0.807-0.467-0.758-0.934
			c0.049-0.465,0.45-0.811,0.929-0.758l0,0c0.169,0.019,4.346,0.331,7.649-5.038c0.245-0.399,0.77-0.526,1.169-0.278
			c0.4,0.246,0.524,0.77,0.278,1.169C149.361,152.032,145.095,152.47,143.805,152.47z"/>
	</g>
	<g>
		<path fill="#F8B973" d="M143.805,155.993c-0.216,0-0.348-0.013-0.379-0.016c-0.467-0.049-0.807-0.467-0.758-0.934
			c0.049-0.466,0.45-0.809,0.929-0.758l0,0c0.169,0.018,4.346,0.33,7.649-5.038c0.245-0.399,0.77-0.526,1.169-0.278
			c0.4,0.246,0.524,0.77,0.278,1.169C149.361,155.556,145.095,155.993,143.805,155.993z"/>
	</g>
	<g>
		<path fill="#F8B973" d="M143.805,159.517c-0.216,0-0.348-0.013-0.379-0.016c-0.467-0.049-0.807-0.467-0.758-0.934
			c0.049-0.466,0.45-0.807,0.929-0.758l0,0c0.169,0.017,4.346,0.33,7.649-5.038c0.245-0.399,0.77-0.525,1.169-0.278
			c0.4,0.246,0.524,0.77,0.278,1.169C149.361,159.079,145.095,159.517,143.805,159.517z"/>
	</g>
	<g>
		<path fill="#F8B973" d="M143.804,163.04c-0.215,0-0.347-0.012-0.378-0.015c-0.467-0.049-0.806-0.467-0.758-0.934
			c0.049-0.466,0.466-0.805,0.928-0.758l0,0c0.178,0.015,4.346,0.332,7.65-5.039c0.245-0.398,0.77-0.525,1.169-0.278
			c0.4,0.246,0.524,0.77,0.278,1.169C149.36,162.604,145.092,163.04,143.804,163.04z"/>
	</g>
	<g>
		<path fill="#F8B973" d="M143.804,166.564c-0.215,0-0.347-0.012-0.378-0.015c-0.467-0.049-0.806-0.467-0.758-0.934
			c0.049-0.465,0.466-0.811,0.928-0.758l0,0c0.178,0.015,4.346,0.332,7.65-5.039c0.245-0.398,0.77-0.526,1.169-0.278
			c0.4,0.246,0.524,0.77,0.278,1.169C149.36,166.127,145.092,166.564,143.804,166.564z"/>
	</g>
	<g>
		<path fill="#F8B973" d="M133.769,161.904c-0.981,0-1.602-0.17-1.673-0.19c-0.451-0.129-0.711-0.601-0.581-1.052
			c0.128-0.449,0.594-0.708,1.047-0.583c0.186,0.049,4.229,1.078,8.413-3.616c0.312-0.351,0.849-0.383,1.2-0.069
			c0.351,0.312,0.382,0.85,0.069,1.2C138.978,161.257,135.685,161.904,133.769,161.904z"/>
	</g>
	<g>
		<path fill="#F8B973" d="M133.768,165.926c-0.98,0-1.601-0.17-1.672-0.19c-0.451-0.129-0.711-0.601-0.581-1.052
			c0.128-0.449,0.594-0.708,1.047-0.583c0.186,0.049,4.227,1.078,8.413-3.617c0.312-0.353,0.849-0.382,1.2-0.069
			c0.351,0.312,0.382,0.85,0.069,1.2C138.978,165.28,135.684,165.926,133.768,165.926z"/>
	</g>
	<g>
		<path fill="#F8B973" d="M133.768,169.948c-0.98,0-1.601-0.17-1.672-0.19c-0.451-0.129-0.711-0.601-0.581-1.052
			c0.128-0.449,0.594-0.708,1.047-0.583c0.186,0.05,4.227,1.078,8.413-3.617c0.312-0.352,0.849-0.382,1.2-0.069
			c0.351,0.312,0.382,0.85,0.069,1.2C138.978,169.302,135.684,169.948,133.768,169.948z"/>
	</g>
	<g>
		<path fill="#F8B973" d="M133.77,173.97c-0.982,0-1.603-0.17-1.674-0.19c-0.451-0.13-0.711-0.601-0.581-1.052
			c0.129-0.449,0.599-0.707,1.048-0.583c0.181,0.052,4.228,1.077,8.412-3.616c0.312-0.351,0.849-0.382,1.2-0.069
			c0.351,0.312,0.382,0.85,0.069,1.2C138.979,173.323,135.686,173.97,133.77,173.97z"/>
	</g>
	<g>
		<path fill="#F8B973" d="M97.152,170.451c-3.468,0-6.075-0.828-6.267-0.892c-0.446-0.146-0.689-0.624-0.544-1.07
			c0.146-0.446,0.625-0.688,1.071-0.546c0.078,0.026,7.812,2.467,14.061-1.37c0.4-0.246,0.923-0.119,1.169,0.28
			s0.12,0.923-0.28,1.169C103.275,169.917,99.936,170.451,97.152,170.451z"/>
	</g>
	<g>
		<path fill="#F8B973" d="M97.15,174.038c-3.467,0-6.073-0.827-6.265-0.891c-0.446-0.146-0.689-0.624-0.544-1.07
			c0.146-0.446,0.627-0.689,1.071-0.546c0.078,0.027,7.812,2.465,14.062-1.371c0.4-0.245,0.923-0.12,1.169,0.28
			c0.246,0.399,0.12,0.923-0.28,1.169C103.275,173.504,99.934,174.038,97.15,174.038z"/>
	</g>
	<g>
		<path fill="#F8B973" d="M97.15,177.625c-3.467,0-6.073-0.827-6.265-0.891c-0.446-0.146-0.689-0.624-0.544-1.07
			c0.146-0.446,0.627-0.688,1.071-0.546c0.078,0.026,7.812,2.465,14.062-1.371c0.4-0.246,0.923-0.12,1.169,0.28
			c0.246,0.399,0.12,0.923-0.28,1.169C103.275,177.091,99.934,177.625,97.15,177.625z"/>
	</g>
	<g>
		<path fill="#F8B973" d="M97.15,181.212c-3.467,0-6.073-0.827-6.265-0.891c-0.446-0.146-0.689-0.624-0.544-1.07
			c0.146-0.446,0.627-0.69,1.071-0.546c0.078,0.026,7.812,2.466,14.062-1.371c0.4-0.245,0.923-0.12,1.169,0.28
			c0.246,0.399,0.12,0.923-0.28,1.169C103.275,180.678,99.934,181.212,97.15,181.212z"/>
	</g>
	<g>
		<path fill="#F8B973" d="M97.15,184.799c-3.467,0-6.073-0.827-6.265-0.891c-0.446-0.146-0.689-0.624-0.544-1.07
			c0.146-0.446,0.627-0.69,1.071-0.546c0.078,0.026,7.812,2.465,14.062-1.371c0.4-0.246,0.923-0.12,1.169,0.28
			c0.246,0.399,0.12,0.923-0.28,1.169C103.275,184.265,99.934,184.799,97.15,184.799z"/>
	</g>
	<g>
		<path fill="#F8B973" d="M77.729,172.11c-3.467,0-6.074-0.828-6.265-0.892c-0.446-0.146-0.689-0.624-0.544-1.07
			c0.145-0.446,0.624-0.691,1.071-0.546c0.078,0.026,7.812,2.465,14.06-1.371c0.401-0.246,0.924-0.12,1.169,0.28
			c0.246,0.399,0.12,0.923-0.28,1.169C83.853,171.574,80.514,172.11,77.729,172.11z"/>
	</g>
	<g>
		<path fill="#F8B973" d="M77.729,175.13c-3.467,0-6.073-0.827-6.265-0.891c-0.446-0.146-0.689-0.624-0.544-1.07
			c0.146-0.446,0.627-0.69,1.071-0.546c0.078,0.025,7.812,2.464,14.06-1.371c0.401-0.246,0.924-0.12,1.169,0.28
			c0.246,0.399,0.12,0.923-0.28,1.169C83.853,174.596,80.513,175.13,77.729,175.13z"/>
	</g>
	<g>
		<path fill="#F8B973" d="M77.729,178.952c-3.467,0-6.074-0.828-6.265-0.892c-0.446-0.146-0.689-0.624-0.544-1.07
			c0.145-0.446,0.624-0.688,1.071-0.546c0.078,0.026,7.812,2.465,14.06-1.371c0.401-0.245,0.924-0.12,1.169,0.28
			c0.246,0.399,0.12,0.923-0.28,1.169C83.853,178.417,80.514,178.952,77.729,178.952z"/>
	</g>
	<g>
		<path fill="#F8B973" d="M77.729,183.803c-3.467,0-6.074-0.828-6.265-0.892c-0.446-0.146-0.689-0.624-0.544-1.07
			c0.145-0.446,0.624-0.688,1.071-0.546c0.078,0.026,7.812,2.465,14.06-1.371c0.401-0.245,0.924-0.119,1.169,0.28
			s0.12,0.923-0.28,1.169C83.853,183.268,80.514,183.803,77.729,183.803z"/>
	</g>
	<g>
		<path fill="#F8B973" d="M77.729,188.711c-3.467,0-6.074-0.828-6.265-0.892c-0.446-0.146-0.689-0.624-0.544-1.07
			c0.145-0.446,0.624-0.69,1.071-0.546c0.078,0.026,7.812,2.465,14.06-1.371c0.401-0.245,0.924-0.12,1.169,0.28
			c0.246,0.399,0.12,0.923-0.28,1.169C83.853,188.176,80.514,188.711,77.729,188.711z"/>
	</g>
	<g>
		<path fill="#F8B973" d="M111.144,163.361c-0.096,0-0.158,0-0.185-0.001c-0.469-0.006-0.844-0.392-0.838-0.861
			c0.006-0.469,0.372-0.838,0.861-0.838c0.1-0.008,10.559,0.091,15.297-4.089c0.354-0.31,0.89-0.276,1.2,0.075
			c0.311,0.353,0.276,0.89-0.075,1.2C122.484,163.188,112.667,163.361,111.144,163.361z"/>
	</g>
	<g>
		<path fill="#F8B973" d="M111.143,166.712c-0.095,0-0.157,0-0.184-0.001c-0.469-0.006-0.844-0.392-0.838-0.861
			c0.006-0.469,0.44-0.839,0.861-0.838c0.104-0.006,10.562,0.089,15.297-4.09c0.354-0.31,0.89-0.276,1.2,0.075
			c0.311,0.353,0.276,0.89-0.075,1.2C122.482,166.54,112.659,166.712,111.143,166.712z"/>
	</g>
	<g>
		<path fill="#F8B973" d="M111.144,170.062c-0.096,0-0.158,0-0.185-0.001c-0.469-0.006-0.844-0.392-0.838-0.861
			c0.006-0.469,0.372-0.815,0.861-0.838c0.1-0.004,10.559,0.091,15.297-4.089c0.354-0.31,0.89-0.276,1.2,0.075
			c0.311,0.353,0.276,0.89-0.075,1.2C122.484,169.889,112.667,170.062,111.144,170.062z"/>
	</g>
	<g>
		<path fill="#F8B973" d="M111.143,173.413c-0.095,0-0.157,0-0.184-0.001c-0.469-0.006-0.844-0.392-0.838-0.861
			c0.006-0.465,0.385-0.838,0.85-0.838c0.01,0.001,0.011,0.001,0.092,0c0.988,0,10.702-0.105,15.216-4.09
			c0.354-0.31,0.89-0.276,1.2,0.075c0.311,0.353,0.276,0.89-0.075,1.2C122.482,173.241,112.659,173.413,111.143,173.413z"/>
	</g>
	<g>
		<path fill="#F8B973" d="M111.143,176.763c-0.095,0-0.157,0-0.184-0.001c-0.469-0.006-0.844-0.392-0.838-0.861
			c0.006-0.465,0.385-0.838,0.85-0.838c0.01,0,0.011,0,0.092,0c0.988,0,10.702-0.105,15.216-4.089c0.354-0.31,0.89-0.277,1.2,0.075
			s0.276,0.89-0.075,1.2C122.482,176.591,112.659,176.763,111.143,176.763z"/>
	</g>
	<g>
		<path fill="#F8B973" d="M111.144,180.114c-0.096,0-0.158,0-0.185-0.001c-0.469-0.006-0.844-0.392-0.838-0.861
			c0.006-0.469,0.372-0.81,0.861-0.838c0.1-0.004,10.559,0.091,15.297-4.089c0.354-0.31,0.89-0.277,1.2,0.075s0.276,0.89-0.075,1.2
			C122.484,179.941,112.667,180.114,111.144,180.114z"/>
	</g>
	<g>
		<path fill="#F8B973" d="M155.176,147.021c-0.312,0-0.613-0.174-0.762-0.472c-0.209-0.421-0.038-0.931,0.382-1.14
			c2.062-1.025,3.996-4.544,4.132-5.225c0-0.47,0.378-0.812,0.848-0.812s0.847,0.418,0.847,0.888c0,0.958-2.396,5.343-5.068,6.671
			C155.432,146.991,155.303,147.021,155.176,147.021z"/>
	</g>
	<g>
		<path fill="#F8B973" d="M155.176,151.708c-0.312,0-0.613-0.174-0.763-0.473c-0.208-0.42-0.037-0.931,0.384-1.139
			c2.061-1.024,3.995-4.543,4.131-5.224c0-0.47,0.378-0.812,0.848-0.812s0.847,0.418,0.847,0.888c0,0.958-2.396,5.343-5.069,6.671
			C155.432,151.679,155.303,151.708,155.176,151.708z"/>
	</g>
	<g>
		<path fill="#F8B973" d="M155.176,156.223c-0.312,0-0.613-0.174-0.762-0.472c-0.209-0.421-0.038-0.931,0.382-1.14
			c2.062-1.025,3.996-4.543,4.132-5.224c0-0.47,0.378-0.812,0.848-0.812s0.847,0.418,0.847,0.888c0,0.957-2.396,5.341-5.068,6.67
			C155.432,156.194,155.303,156.223,155.176,156.223z"/>
	</g>
</g>
<g>
	<g>
		<g>
			<g>
				<path fill="#F08400" d="M55.462,111.718c-0.422,1.543-2.598,4.576,0.176,9.08c1.615,2.622,11.755,16.066,21.688,29.135
					c7.315,0.396,11.775,0.358,14.247,0.104c-4.208-8.748-18.41-33.092-18.585-35.139c-0.175-2.044-1.355-6.4-5.877-8.031
					C62.587,105.238,56.765,106.95,55.462,111.718z"/>
			</g>
		</g>
		<g>
			<g>
				<path fill="#93C01F" d="M47.984,101.913l1.236-1.123l10.232,8.783c0,0-1.11,0.65-2.549,1.398
					C56.074,109.433,47.984,101.913,47.984,101.913z"/>
			</g>
		</g>
		<g>
			<g>
				<path fill="#39A935" d="M48.7,96.187l2.099-1.736l9.397,14.578c0,0-0.569,0.498-1.684,1.245
					c-0.689-1.39-4.113-5.036-4.113-5.036L48.7,96.187z"/>
			</g>
		</g>
		<g>
			<g>
				<polygon fill="#93C01F" points="54.996,97.431 57.476,97.14 60.751,109.011 58.61,109.587 				"/>
			</g>
		</g>
		<g>
			<g>
				<path fill="#C1472A" d="M57.323,123.236c0,0,2.576-1.48,3.203-2.775c0.632-1.293,1.341-2.56,1.931-2.078
					c0.592,0.484,0.588,0.767-0.801,2.367c-1.393,1.6-3.549,3.57-3.549,3.57L57.323,123.236z"/>
			</g>
		</g>
		<g>
			<g>
				<path fill="#C1472A" d="M75.664,120.591c0,0-1.663,1.807-2.878,2.336c-1.217,0.529-1.557,0.697-1.529,1.178
					c0.022,0.479,0.329,1.244,2.03,0.121c1.697-1.119,3.085-2.29,3.085-2.29L75.664,120.591z"/>
			</g>
		</g>
		<g>
			<g>
				<path fill="#C1472A" d="M66.79,135.997c0,0,1.91-0.514,3.076-1.436c1.167-0.922,1.169-1.205,1.816-1.174
					c0.648,0.031,1.659,0.373,0.285,1.512c-1.371,1.136-4.136,2.48-4.136,2.48L66.79,135.997z"/>
			</g>
		</g>
		<g>
			<g>
				<path fill="#C1472A" d="M79.573,127.884c0,0-0.758,1.142-1.777,1.645c-1.018,0.502-2.344,1.086-2.344,1.086
					s-0.654,0.816,0.275,1.131c0.93,0.316,1.881-0.585,2.904-1.085c1.025-0.501,1.721-1.344,1.721-1.344L79.573,127.884z"/>
			</g>
		</g>
		<g>
			<g>
				<path fill="#C1472A" d="M80.134,149.615c0,0,1.742-1.688,2.499-1.609c0.76,0.076,0.864,0.293-0.194,1.258
					c-0.258,0.234-0.537,0.61-0.783,0.867c-0.515,0-1.139-0.035-1.983-0.081C79.745,149.974,79.942,149.784,80.134,149.615z"/>
			</g>
		</g>
		<g>
			<g>
				<path fill="#C1472A" d="M91.126,149.181c0,0-0.205,0.424-1.125,0.96c1.296-0.043,1.572-0.104,1.572-0.104L91.126,149.181z"/>
			</g>
		</g>
		<g>
			<g>
				<path fill="#C1472A" d="M84.789,137.427c0,0-0.962,2.037-3.072,1.979c-2.111-0.062-2.429,1.131-1.712,1.732
					s1.402,0.865,3.32-0.369c1.918-1.236,2.232-1.937,2.232-1.937L84.789,137.427z"/>
			</g>
		</g>
	</g>
	<g>
		<g>
			<path fill="#C1472A" d="M73.647,116.592c0,0-4.183,1.457-4.268,2.21c-0.084,0.752-0.084,0.752,0.466,0.928
				c0.915,0.288,4.412-1.875,4.412-1.875L73.647,116.592z"/>
		</g>
	</g>
</g>
<g>
	<g>
		<g>
			<g>
				<path fill="#F08400" d="M24.005,118.207c-0.027,1.599-1.382,5.077,2.421,8.751c1.512,1.463,9.726,8.111,18.663,15.249
					c5.665,2.242,15.536,5.392,25.885,7.043c-0.723-0.952,0.521,0.617-0.261-0.312c-6.246-7.431-28.269-30.055-28.942-31.994
					c-0.675-1.937-2.902-5.862-7.687-6.323C29.299,110.161,24.084,113.264,24.005,118.207z"/>
			</g>
		</g>
		<g>
			<g>
				<path fill="#93C01F" d="M14.33,110.561l0.918-1.393l12.09,5.975c0,0-0.915,0.901-2.123,1.982
					C24.031,115.839,14.33,110.561,14.33,110.561z"/>
			</g>
		</g>
		<g>
			<g>
				<path fill="#39A935" d="M13.604,104.837l1.602-2.204l12.719,11.795c0,0-0.43,0.627-1.325,1.624
					c-1.009-1.176-5.23-3.86-5.23-3.86L13.604,104.837z"/>
			</g>
		</g>
		<g>
			<g>
				<polygon fill="#93C01F" points="20.013,104.481 22.343,103.586 28.457,114.274 26.524,115.362 				"/>
			</g>
		</g>
		<g>
			<g>
				<path fill="#C1472A" d="M28.661,128.906c0,0,2.128-2.075,2.416-3.484c0.287-1.409,0.663-2.811,1.354-2.49
					c0.692,0.322,0.76,0.597-0.19,2.489c-0.951,1.896-2.551,4.342-2.551,4.342L28.661,128.906z"/>
			</g>
		</g>
		<g>
			<g>
				<path fill="#C1472A" d="M45.774,121.797c0,0-1.16,2.162-2.207,2.976c-1.049,0.813-1.336,1.06-1.191,1.521
					c0.143,0.457,0.628,1.122,1.997-0.385c1.369-1.506,2.421-2.986,2.421-2.986L45.774,121.797z"/>
			</g>
		</g>
		<g>
			<g>
				<path fill="#C1472A" d="M40.995,138.922c0,0,1.724-0.973,2.626-2.153c0.9-1.184,0.833-1.458,1.468-1.588
					c0.637-0.131,1.699-0.048,0.651,1.394c-1.049,1.44-3.394,3.429-3.394,3.429L40.995,138.922z"/>
			</g>
		</g>
		<g>
			<g>
				<path fill="#C1472A" d="M51.37,127.894c0,0-0.451,1.295-1.313,2.033c-0.862,0.739-2.003,1.633-2.003,1.633
					s-0.432,0.952,0.546,1.03c0.98,0.072,1.68-1.039,2.546-1.773c0.87-0.74,1.335-1.729,1.335-1.729L51.37,127.894z"/>
			</g>
		</g>
		<g>
			<g>
				<path fill="#C1472A" d="M67.84,145.659c0,0-0.051,0.754-1.966,2.122c-0.201,0.144-0.397,0.299-0.568,0.418
					c0.51,0.131,0.852,0.199,1.266,0.257c1.104-1.188,1.912-2.077,1.912-2.077L67.84,145.659z"/>
			</g>
		</g>
		<g>
			<g>
				<path fill="#C1472A" d="M58.787,135.845c0,0-0.425,2.211-2.486,2.678c-2.06,0.464-2.071,1.697-1.227,2.103
					c0.842,0.406,1.57,0.493,3.125-1.181c1.553-1.67,1.681-2.427,1.681-2.427L58.787,135.845z"/>
			</g>
		</g>
	</g>
	<g>
		<g>
			<path fill="#C1472A" d="M42.83,118.423c0,0-3.692,2.448-3.585,3.196c0.104,0.75,0.104,0.75,0.68,0.783
				c0.958,0.053,3.811-2.909,3.811-2.909L42.83,118.423z"/>
		</g>
	</g>
</g>
</svg>
