<?xml version="1.0" encoding="utf-8"?>
<!-- Generator: Adobe Illustrator 16.0.0, SVG Export Plug-In . SVG Version: 6.00 Build 0)  -->
<!DOCTYPE svg PUBLIC "-//W3C//DTD SVG 1.1//EN" "http://www.w3.org/Graphics/SVG/1.1/DTD/svg11.dtd">
<svg version="1.1" id="Layer_1" xmlns="http://www.w3.org/2000/svg" xmlns:xlink="http://www.w3.org/1999/xlink" x="0px" y="0px"
	 width="226.77px" height="226.77px" viewBox="0 0 226.77 226.77" enable-background="new 0 0 226.77 226.77" xml:space="preserve">
<g>
	<polygon fill="#F8B04C" points="78.604,101.514 89.905,80.514 108.792,100.863 115.909,101.514 139.271,80.514 145.271,103.42 
		130.742,114.701 94.575,117.681 	"/>
	<path fill="#FCC74F" d="M65.96,86.347l12.604,82.935c0,0,29.936-13.598,67.315,0c7.617-36.666,14.082-78.766,14.082-78.766
		l-29.961,21.789l-16.464-49.958L94.565,114.68L65.96,86.347z"/>
	<circle fill="#FCC74F" cx="65.96" cy="84.514" r="4"/>
	<circle fill="#FCC74F" cx="113.537" cy="62.347" r="4"/>
	<circle fill="#FCC74F" cx="89.905" cy="78.246" r="4"/>
	<circle fill="#FCC74F" cx="139.271" cy="78.246" r="4"/>
	<circle fill="#FCC74F" cx="159.962" cy="89.348" r="4"/>
	<path opacity="0.3" fill="#FFFFFF" enable-background="new    " d="M93.774,121.629c0,0,1.895,30.441,2.27,37.617
		c0.236,4.545-0.182,5.292-0.182,5.292l2.793-0.418l-1.043-17.777l-1.499-24.854L93.774,121.629z"/>
	<polyline opacity="0.3" fill="#FFFFFF" enable-background="new    " points="85.409,135.487 88.24,166.123 92.032,165.251 
		89.202,135.258 85.409,135.487 	"/>
</g>
</svg>
