<?xml version="1.0" encoding="utf-8"?>
<!-- Generator: Adobe Illustrator 16.0.0, SVG Export Plug-In . SVG Version: 6.00 Build 0)  -->
<!DOCTYPE svg PUBLIC "-//W3C//DTD SVG 1.1//EN" "http://www.w3.org/Graphics/SVG/1.1/DTD/svg11.dtd">
<svg version="1.1" id="Layer_1" xmlns="http://www.w3.org/2000/svg" xmlns:xlink="http://www.w3.org/1999/xlink" x="0px" y="0px"
	 width="226.77px" height="226.77px" viewBox="0 0 226.77 226.77" enable-background="new 0 0 226.77 226.77" xml:space="preserve">
<g>
	<g>
		<path fill="#A0D9F7" d="M169.095,112.354c0,0,2.479-2.031,2.223-3.566c-0.256-1.539-1.004-1.598-1.996-0.922
			C168.325,108.539,169.095,112.354,169.095,112.354z"/>
	</g>
	<g>
		<path fill="#7CCDF3" d="M176.431,111.11c0,0,3.201,0.086,4.016-1.246c0.811-1.332,0.283-1.861-0.91-2
			C178.343,107.723,176.431,111.11,176.431,111.11z"/>
	</g>
	<g>
		<path fill="#A0D9F7" d="M176.296,104.193c0,0,3.078-0.887,3.451-2.402c0.371-1.514-0.293-1.86-1.471-1.632
			C177.097,100.386,176.296,104.193,176.296,104.193z"/>
	</g>
	<g>
		<path fill="#422918" d="M28.795,109.567c1.428,0,2.648-1.086,2.791-2.533c0.231-2.368-1.726-2.992-3.799-3.653
			c-4.511-1.442-18.238-5.823-20.975-15.202c-1.699-5.824,0.959-13.008,7.896-21.344c0.992-1.192,0.83-2.961-0.361-3.952
			c-1.188-0.992-2.961-0.831-3.953,0.361C2.188,73.102-0.832,82.022,1.424,89.751c3.572,12.245,18.889,17.136,24.656,18.976
			c0.429,0.139,0.903,0.287,1.181,0.387c0.367,0.238,0.794,0.395,1.259,0.441C28.613,109.561,28.704,109.567,28.795,109.567z"/>
	</g>
	<path fill="#E0B475" d="M157.82,81.442c0,0-17.871,3.91-30.152,7.635s-31.231-3.533-31.231-3.533l-0.352,3.193h-8.196
		c0,0-42.284,0.398-51.478,4.507c-9.191,4.111-7.717,17.343-7.641,23.187c0.043,3.182,1.34,8.5,6.024,12.602l-8.702,11.357
		l0.361,1.457c0,0,0.529,3.961,3.271,4.598c2.229,0.516,1.822-3.742,1.59-5.352l13.282-7.252c2.917,0.695,6.343,1.059,10.37,0.957
		c0.37-0.01,0.828-0.016,1.341-0.02l-1.377,3.705l0.487,1.371c0,0,1.534,3.803,4.064,4.232c1.99,0.342,0.367-2.869-0.412-4.25
		l3.742-5.049c6.609,0.047,15.663,0.164,23.195,0.197l-0.661,0.676l11.901,14.27l0.309-0.156l1.467-0.318
		c0,0,3.977-0.41,4.691-3.135c0.387-1.475-1.379-1.84-3.076-1.865l-4.342-9.516c1.396-0.031,2.466-0.078,3.102-0.143
		c2.234-0.229,4.284-0.438,6.196-0.635l11.139,13.021l1.764-0.104c0,0,1.57,0.074,2.365-0.326c1.77-0.889,1.982-1.336,2.303-2.553
		c0.473-1.805-3.064-2.221-4.635-1.537l-1.475-8.336c10.758-0.5,31.682-5.268,44.596-19.49
		C178.152,96.669,157.82,81.442,157.82,81.442z"/>
	<g>
		<path fill="#575756" d="M114.214,106.637c0.291-0.066,0.584-0.146,0.877-0.248c2.717-0.949,4.762-3.294,6.074-6.971
			c0.262-0.729-0.119-1.532-0.848-1.792c-0.732-0.26-1.535,0.12-1.795,0.847c-1.014,2.84-2.479,4.612-4.355,5.262
			c-2.872,1.002-5.977-0.866-6.006-0.884c-0.658-0.411-1.525-0.21-1.936,0.448c-0.408,0.659-0.209,1.525,0.449,1.934
			C106.833,105.332,110.37,107.498,114.214,106.637z"/>
	</g>
	<circle fill="#422918" cx="161.383" cy="82.49" r="6.806"/>
	<path fill="#35A8E0" d="M80.404,118.668l-0.028-1.182c0,0-1.873-5.461,0.031-12.123c2.75-9.629,6.729-16.627,6.729-16.627h10.34
		c0,0-8.68,11.635-9.911,18.023c-1.227,6.367-0.433,9.922-0.426,9.945c1.944,6.227,10.406,18.445,10.406,18.445h-9.399
		l-7.738-16.479l0,0L80.404,118.668z"/>
	<circle fill="#95CFC4" cx="90.134" cy="130.553" r="1.475"/>
	<path fill="#95CFC4" d="M86.67,125.528c0,0.818,0.658,1.477,1.475,1.477c0.812,0,1.475-0.658,1.475-1.477
		c0-0.812-0.662-1.475-1.475-1.475C87.328,124.053,86.67,124.715,86.67,125.528z"/>
	<path fill="#95CFC4" d="M83.721,119.5c0,0.816,0.658,1.477,1.474,1.477c0.813,0,1.476-0.66,1.476-1.477
		c0-0.811-0.662-1.473-1.476-1.473C84.379,118.028,83.721,118.69,83.721,119.5z"/>
	<circle fill="#95CFC4" cx="83.719" cy="112.809" r="1.475"/>
	<path fill="#95CFC4" d="M83.721,105.539c0,0.812,0.658,1.471,1.474,1.471c0.813,0,1.476-0.658,1.476-1.471
		c0-0.816-0.662-1.476-1.476-1.476C84.379,104.064,83.721,104.723,83.721,105.539z"/>
	<circle fill="#95CFC4" cx="86.67" cy="98.48" r="1.475"/>
	<circle fill="#95CFC4" cx="89.588" cy="92.34" r="1.475"/>
	<path fill="#422918" d="M96.662,85.383c-8.818-3.881-12.568,3.775-14.657,10.684c-2.351,7.773-21.862,32.342-5.71,38.58
		C96.008,142.258,105.48,89.268,96.662,85.383z"/>
	<path fill="#95CFC4" d="M91.625,135.151c-0.007-0.053-0.017-0.105-0.017-0.158c0-0.816,0.659-1.475,1.474-1.475
		s1.476,0.658,1.476,1.475c0,0.053-0.011,0.105-0.016,0.158H91.625z"/>
	
		<line fill="none" stroke="#F093BA" stroke-width="3" stroke-linecap="round" stroke-miterlimit="10" x1="157.527" y1="115.383" x2="149.193" y2="120.674"/>
	<path fill="#DDDAC4" d="M157.88,141.121l39.871-43.498c0,0-8.902-7.336-3.691-13.284c5.211-5.949,11.693-5.785,16.432-0.619
		c4.74,5.166,2.352,8.757,2.352,8.757s14.072-0.554,13.188,5.409c-2.055,13.874-13.57,7.446-16.223,7.487
		c-2.654,0.045-39.049,42.604-39.049,42.604s4.197-0.279,4.045,8.658s-13.682,11.393-14.801,7.064
		c-1.123-4.33-3.062-10.234-3.062-10.234s-5.951,3.746-9.572-0.873c-3.621-4.615-8.332-9.76-2.633-14.439
		C150.433,133.475,156.06,133.674,157.88,141.121z"/>
	<path fill="#F093BA" d="M157.439,115.088c0,0,0.281,0.053,0.773,0.133c2.184,0.369,8.482,1.344,12.336,1.117
		c4.719-0.279,16.381-3.264,18.324,0.033c1.941,3.299-0.906,8.85-10.727,9.127c-9.82,0.281-28.707-5.33-28.707-5.33"/>
	<path fill="none" stroke="#E46E93" stroke-width="2" stroke-linecap="round" stroke-miterlimit="10" d="M161.661,119.53
		c0,0,13.604,3.158,20.406,0"/>
	<g>
		<path fill="#A0D9F7" d="M159.431,126.489c0,0-3.812-0.51-4.518,1.201c-0.705,1.713,1.477,1.621,2.646,1.16
			S159.431,126.489,159.431,126.489z"/>
	</g>
	<g>
		<path fill="#7CCDF3" d="M167.542,129.252c0,0-1.721,3.904-0.115,5.186s2.627-1.088,2.053-2.463
			C169.228,131.369,167.542,129.252,167.542,129.252z"/>
	</g>
	<g>
		<path fill="#7CCDF3" d="M174.747,135.873c0,0-0.061,4.266,1.916,4.82c1.979,0.553,1.996-2.025,0.93-3.068
			C177.124,137.166,174.747,135.873,174.747,135.873z"/>
	</g>
	<g>
		<path fill="#7CCDF3" d="M173.099,127.582c0,0,0.34,1.75,2.549,2.826c2.211,1.07,3.488-1.4,1.67-2.27
			C175.238,127.143,173.099,127.582,173.099,127.582z"/>
	</g>
</g>
</svg>
