<?xml version="1.0" encoding="utf-8"?>
<!-- Generator: Adobe Illustrator 16.0.0, SVG Export Plug-In . SVG Version: 6.00 Build 0)  -->
<!DOCTYPE svg PUBLIC "-//W3C//DTD SVG 1.1//EN" "http://www.w3.org/Graphics/SVG/1.1/DTD/svg11.dtd">
<svg version="1.1" id="Layer_1" xmlns="http://www.w3.org/2000/svg" xmlns:xlink="http://www.w3.org/1999/xlink" x="0px" y="0px"
	 width="226.77px" height="226.77px" viewBox="0 0 226.77 226.77" enable-background="new 0 0 226.77 226.77" xml:space="preserve">
<g>
	<path fill="#7A7979" d="M193.737,171.686c0,0,17.033-3.82,18.061-5.514c0.561-0.928,0.729-2.189-1.266-2.527
		c-1.992-0.342-17.07,4.525-17.07,4.525L193.737,171.686z"/>
	<path fill="#969695" d="M203.324,163.506l-2.939,0.229l-6.449-3.684l-0.977-2.611c0,0-6.779,3.551-10.459,5.492
		c-1.568,0.75-2.787,1.459-3.141,1.809c-0.906,0.893-9.771,1.273-19.033,1.066c-9.264-0.209-16.273-0.133-16.273-0.133
		c-4.584,1.017-5.73,3.263-5.328,5.917c-4.537-2.551-10.621-5.782-11.791-5.46c-1.045,0.289-2.035,1.088-0.82,2.703
		c0.973,1.298,10.348,5.944,14.029,7.736c0.419,0.978,0.928,1.799,1.498,1.961l-12.799,7.525c0,0-3.225,1.709-2.773,3.299
		c0.445,1.594,1.42,2.496,5.367-0.277c1.656-1.162,5.238-3.246,8.838-5.271c2.264,0.674,6.391,1.562,9.17,0.168
		c4.738,1.395,10.668,1.678,14.9,1.662c4.672-0.023,11.604-2.912,16.053-5.129c0.767-0.405,1.689-0.742,2.694-1.041
		c3.646,3.215,11.576,10.035,13.085,9.928c1.084-0.078,2.209-0.666,1.338-2.49c-0.562-1.178-6.023-5.54-9.838-8.495
		c4.919-0.929,10.231-1.608,12.09-3.595c1.643-1.752,2.014-3.385,2.014-4.082c0-0.594,0.105-1.908-0.709-3.945l0.713-1.166
		L203.324,163.506z"/>
	<path fill="none" stroke="#969695" stroke-width="3" stroke-linecap="round" stroke-miterlimit="10" d="M123.006,151.467
		c0,0,7.895,1.082,10.99,7.891c3.092,6.811,6.031,10.146,6.654,10.26"/>
	<path fill="#7A7979" d="M159.059,165.78c0,0-0.086,9.172,0.578,9.035s4.535-8.955,4.535-8.955L159.059,165.78z"/>
	<polygon fill="#7A7979" points="165.17,165.864 166.256,174.815 169.209,165.821 	"/>
	<path fill="#7A7979" d="M170.215,165.795c0,0,0.148,7.209,0.611,7.115c0.465-0.088,3.264-7.289,3.264-7.289L170.215,165.795z"/>
	<path fill="#7A7979" d="M200.643,171.391c-0.057-0.146-0.217-0.213-0.357-0.158c-2.701,1.043-3.963-0.459-4.018-0.523
		c-0.096-0.121-0.268-0.139-0.387-0.045c-0.119,0.096-0.139,0.27-0.045,0.389c0.037,0.047,0.611,0.723,1.742,0.988l-1.061,1.838
		c-0.531-0.08-1.006,0.141-1.072,0.506c-0.068,0.375,0.32,0.76,0.871,0.857c0.549,0.1,1.051-0.125,1.113-0.498
		c0.049-0.252-0.111-0.504-0.385-0.676l1.119-1.938c0.105,0.008,0.207,0.023,0.32,0.023c0.572,0,1.236-0.113,2.002-0.408
		C200.627,171.692,200.699,171.53,200.643,171.391z"/>
	<path fill="#7A7979" d="M179.36,164.74c0.057,0.41,6.84,8.656,12.771,5.506c5.934-3.152,6.428-7.557,6.428-7.557l-4.623-2.639
		l-0.977-2.611C192.959,157.44,179.967,163.768,179.36,164.74z"/>
	<path fill="#FFFFFF" d="M193.936,164.983c0,0.996-0.807,1.805-1.805,1.805s-1.805-0.809-1.805-1.805c0-1,0.807-1.805,1.805-1.805
		S193.936,163.983,193.936,164.983z"/>
	<circle fill="#1D1D1B" cx="192.132" cy="164.983" r="0.827"/>
	<path fill="#F4A689" d="M200.385,173.535c0,0.168,0.027,0.328,0.064,0.482c0.658-0.885,1.012-1.699,1.184-2.332
		C200.903,171.981,200.385,172.699,200.385,173.535z"/>
	<line fill="none" x1="189.537" y1="176.588" x2="189.537" y2="176.69"/>
	<path fill="#7A7979" d="M128.842,186.057c0,0-3.225,1.709-2.773,3.299c0.445,1.594,1.42,2.496,5.367-0.277
		c1.344-0.945,4.217-2.646,7.416-4.48c-1.436-1.049-3.189-1.486-4.705-1.658L128.842,186.057z"/>
	<path fill="#683B11" d="M128.989,139.785l-1.357-2.539l-14.239,9.177V95.439L81.285,81.205c-1.292,1.94-1.627,18.113-1.537,37.709
		L62.697,99.1l-12.621-4.263l29.812,39.317c0.392,29.92,1.397,61.34,1.397,61.34l-4.512,20.172h36.619v-28.832v-32.089
		L128.989,139.785z"/>
	<g>
		<path fill="#54566D" d="M146.672,151.34c-0.553,0-1-0.447-1-1v-25.42c0-0.553,0.447-1,1-1s1,0.447,1,1v25.42
			C147.672,150.893,147.225,151.34,146.672,151.34z"/>
	</g>
	<g>
		<path fill="#54566D" d="M153.205,158.59c-0.553,0-1-0.447-1-1V98.28c0-0.552,0.447-1,1-1s1,0.448,1,1v59.31
			C154.205,158.143,153.758,158.59,153.205,158.59z"/>
	</g>
	<path fill="#FBC779" d="M127.354,137.696c0,0-0.299,2.104,1.051,2.197s1.42-1.717,0.994-2.197S127.36,136.807,127.354,137.696z"/>
	<path fill="#00A070" d="M130.944,28.251c-1.402,0-2.789,0.073-4.158,0.197c-5.457-9.56-15.738-16.007-27.532-16.007
		c-16.814,0-30.564,13.096-31.619,29.644c-0.183-0.003-0.361-0.014-0.545-0.014c-5.883,0-11.387,1.608-16.108,4.401
		c-2.472-0.639-5.063-0.98-7.734-0.98c-17.012,0-30.802,13.791-30.802,30.802c0,17.012,13.79,30.803,30.802,30.803
		c4.968,0,9.657-1.183,13.812-3.272c3.153,1.052,6.523,1.63,10.03,1.63c9.36,0,17.77-4.06,23.571-10.513
		c7.621,14.467,22.795,24.334,40.283,24.334c25.135,0,45.512-20.376,45.512-45.513S156.078,28.251,130.944,28.251z"/>
	<path fill="#7A7979" d="M191.852,181.715c-0.451,1.131-1.043,2.617-1.525,3.875c2.668,2.133,5.078,3.859,5.844,3.805
		c1.084-0.078,2.209-0.666,1.336-2.49C197.133,186.125,194.615,183.951,191.852,181.715z"/>
</g>
</svg>
