<?xml version="1.0" encoding="utf-8"?>
<!-- Generator: Adobe Illustrator 16.0.0, SVG Export Plug-In . SVG Version: 6.00 Build 0)  -->
<!DOCTYPE svg PUBLIC "-//W3C//DTD SVG 1.1//EN" "http://www.w3.org/Graphics/SVG/1.1/DTD/svg11.dtd">
<svg version="1.1" id="Layer_1" xmlns="http://www.w3.org/2000/svg" xmlns:xlink="http://www.w3.org/1999/xlink" x="0px" y="0px"
	 width="226.77px" height="226.77px" viewBox="0 0 226.77 226.77" enable-background="new 0 0 226.77 226.77" xml:space="preserve">
<g>
	<g>
		<path fill="#E0B475" d="M134.77,126.942c-0.851,0-1.708-0.27-2.435-0.828c-1.751-1.346-2.08-3.857-0.734-5.609l72.1-93.836
			c1.347-1.752,3.857-2.08,5.609-0.735c1.751,1.346,2.08,3.857,0.734,5.609l-72.1,93.837
			C137.156,126.404,135.97,126.942,134.77,126.942z"/>
	</g>
	<g>
		<path fill="#A3897A" d="M50.626,110.356c-0.462,0-0.878-0.322-0.978-0.793c-0.11-0.523,0.209-1.036,0.719-1.173
			c1.003-0.523,4.474-5.759,7.135-10.345c0.278-0.478,0.89-0.639,1.367-0.363c0.478,0.277,0.64,0.889,0.363,1.367
			c-2.87,4.945-6.657,10.917-8.398,11.285C50.764,110.349,50.695,110.356,50.626,110.356z"/>
	</g>
	<path fill="#A3897A" d="M73.277,159.001l-33.25-2.334c-0.548-0.045-1.028,0.377-1.067,0.927c-0.039,0.551,0.376,1.029,0.928,1.067
		l11.572,0.812l8.196,4.876c0.16,0.096,0.336,0.141,0.51,0.141c0.341,0,0.673-0.175,0.86-0.488c0.282-0.475,0.126-1.089-0.348-1.371
		l-4.784-2.846l17.244,1.21c0.023,0.002,0.047,0.003,0.071,0.003c0.521,0,0.959-0.403,0.997-0.93
		C74.243,159.518,73.828,159.039,73.277,159.001z"/>
	<g>
		<path fill="#A3897A" d="M20.008,136.27c-0.107,0-0.217-0.018-0.325-0.054c-0.473-0.163-0.745-0.644-0.66-1.121
			c-0.104-1.157-2.921-7.558-5.625-13.162c-0.24-0.497-0.031-1.096,0.466-1.335c0.497-0.238,1.095-0.032,1.335,0.466
			c6.276,13.009,5.897,14.114,5.754,14.53C20.812,136.009,20.424,136.27,20.008,136.27z"/>
	</g>
	<path fill="#A3897A" d="M140.004,175.068c-0.326-0.446-0.953-0.544-1.397-0.216l-36.594,26.801
		c-0.446,0.326-0.542,0.952-0.216,1.397c0.196,0.268,0.5,0.409,0.808,0.409c0.205,0,0.412-0.062,0.59-0.193l21.31-15.606l8.911,2.62
		c0.095,0.028,0.189,0.041,0.282,0.041c0.433,0,0.831-0.282,0.959-0.718c0.156-0.53-0.147-1.086-0.677-1.241l-7.445-2.189
		l13.254-9.707C140.234,176.139,140.33,175.513,140.004,175.068z"/>
	<path fill="#A3897A" d="M107.912,185.26c-0.067-0.007-2.736-0.283-7.243-0.596l2.559-1.031c0.512-0.207,0.76-0.789,0.554-1.302
		s-0.788-0.756-1.302-0.554l-6.443,2.597c-7.116-0.4-16.871-0.744-27.717-0.546c-0.552,0.01-0.992,0.466-0.982,1.019
		c0.01,0.553,0.457,0.971,1.018,0.981c21.806-0.391,39.174,1.402,39.346,1.42c0.035,0.004,0.071,0.006,0.105,0.006
		c0.505,0,0.939-0.382,0.994-0.896C108.86,185.81,108.462,185.318,107.912,185.26z"/>
	<g>
		<path fill="#A3897A" d="M46.776,122.133c-0.268,0-0.534-0.106-0.731-0.318c-0.376-0.403-0.354-1.036,0.049-1.413
			c3.329-3.104,6.981-6.612,7.506-7.272c0.16-0.326,0.494-0.554,0.882-0.56c0.538-0.017,1.007,0.431,1.017,0.983
			c0.009,0.549,0.013,0.8-8.041,8.312C47.265,122.044,47.02,122.133,46.776,122.133z"/>
	</g>
	<path fill="#A3897A" d="M88.222,129.05l-16.686-2.494l-18.336,5.1l3.421-4.941c0.314-0.454,0.201-1.077-0.253-1.392
		c-0.456-0.315-1.078-0.201-1.392,0.253l-4.79,6.918l-1.547,0.431l-15.477-1.134c-0.555-0.044-1.031,0.374-1.071,0.924
		c-0.04,0.551,0.374,1.03,0.924,1.07l15.824,1.159l12.588-3.501c1.15,0.149,7.678,2.811,13.452,5.354
		c0.131,0.058,0.268,0.085,0.402,0.085c0.384,0,0.751-0.223,0.916-0.597c0.223-0.506-0.006-1.096-0.512-1.318
		c-5.315-2.341-8.661-3.701-10.792-4.487l6.768-1.882l16.264,2.432c0.549,0.076,1.055-0.296,1.137-0.842
		C89.145,129.641,88.768,129.132,88.222,129.05z"/>
	<g>
		<path fill="#A3897A" d="M67.026,175.975c-0.107,0-0.217-0.018-0.325-0.054l-6.374-2.188l-33.867-2.202
			c-0.551-0.036-0.969-0.512-0.933-1.062c0.037-0.551,0.528-0.948,1.063-0.934l34.133,2.22l6.626,2.273
			c0.522,0.18,0.8,0.748,0.621,1.271C67.829,175.714,67.441,175.975,67.026,175.975z"/>
	</g>
	<g>
		<path fill="#00A070" d="M90.844,154.064c-0.536-0.03-1.02,0.4-1.046,0.951l-0.6,12.637c-0.026,0.552,0.4,1.021,0.952,1.047
			c0.016,0.001,0.032,0.001,0.048,0.001c0.53,0,0.973-0.417,0.998-0.952l0.6-12.637C91.821,154.559,91.395,154.09,90.844,154.064z"
			/>
		<path fill="#00A070" d="M166.146,161.381c0.686-1.139-1.021-1.822-1.021-1.822l-40.841-18.74l18.25-17.25c0,0,0.5-3.5-1.25-5.75
			s-6.5-2-6.5-2l-16.5,21.75c0,0-31.861-12.607-33.366-13.201c-1.505-0.596-2.227,0.414-2.227,0.414l-2.657,3.037l0.167,0.075
			c-1.154,0.684-2.273,2.119-2.043,4.762c0.346,3.968,3.621,10.885,3.76,11.177c0.171,0.36,0.53,0.57,0.903,0.57
			c0.144,0,0.291-0.031,0.429-0.097c0.499-0.238,0.71-0.835,0.473-1.333c-0.033-0.068-3.259-6.883-3.574-10.491
			c-0.232-2.671,1.386-3.057,1.719-3.107c0.288-0.038,0.524-0.199,0.68-0.42l1.704,0.77c-0.918,0.79-1.66,2.15-1.468,4.348
			c0.346,3.966,3.621,10.883,3.76,11.175c0.171,0.36,0.53,0.57,0.903,0.57c0.144,0,0.291-0.031,0.429-0.097
			c0.499-0.238,0.71-0.835,0.473-1.333c-0.033-0.068-3.259-6.883-3.574-10.489c-0.233-2.673,1.386-3.057,1.719-3.107
			c0.024-0.003,0.043-0.018,0.067-0.022l2.549,1.15c-0.902,0.795-1.623,2.149-1.434,4.319c0.346,3.966,3.621,10.883,3.76,11.175
			c0.171,0.36,0.53,0.57,0.903,0.57c0.144,0,0.291-0.031,0.429-0.097c0.499-0.238,0.71-0.835,0.473-1.333
			c-0.033-0.068-3.259-6.883-3.574-10.489c-0.233-2.673,1.386-3.057,1.719-3.107c0.004-0.001,0.008-0.004,0.012-0.004l2.878,1.3
			c-0.902,0.795-1.623,2.149-1.434,4.319c0.346,3.966,3.621,10.883,3.76,11.175c0.171,0.36,0.53,0.57,0.903,0.57
			c0.144,0,0.291-0.031,0.429-0.097c0.499-0.238,0.71-0.835,0.473-1.333c-0.033-0.068-3.259-6.883-3.574-10.489
			c-0.233-2.673,1.386-3.057,1.719-3.107c0.004-0.001,0.008-0.004,0.013-0.004l2.806,1.267c-0.574,0.819-0.945,1.986-0.803,3.612
			c0.346,3.968,3.621,10.885,3.76,11.177c0.171,0.36,0.53,0.57,0.903,0.57c0.144,0,0.291-0.031,0.429-0.097
			c0.499-0.238,0.71-0.835,0.473-1.333c-0.033-0.068-3.259-6.883-3.574-10.491c-0.121-1.394,0.262-2.157,0.704-2.583l4.337,1.958
			c-0.936,0.785-1.702,2.151-1.507,4.379c0.346,3.968,3.621,10.885,3.76,11.177c0.171,0.36,0.53,0.57,0.903,0.57
			c0.144,0,0.291-0.031,0.429-0.097c0.499-0.238,0.71-0.835,0.473-1.333c-0.033-0.068-3.259-6.883-3.574-10.491
			c-0.232-2.671,1.386-3.057,1.719-3.107c0.047-0.006,0.084-0.031,0.129-0.044l3.465,1.564c-0.789,0.817-1.375,2.115-1.203,4.095
			c0.34,3.903,2.784,11.427,2.888,11.745c0.138,0.422,0.529,0.689,0.951,0.689c0.103,0,0.207-0.016,0.311-0.05
			c0.525-0.171,0.812-0.735,0.641-1.261c-0.025-0.075-2.478-7.621-2.798-11.298c-0.176-2.021,0.706-2.731,1.291-2.98l4.646,2.098
			c-0.775,0.818-1.346,2.11-1.175,4.066c0.341,3.912,2.706,10.783,2.807,11.074c0.144,0.413,0.531,0.673,0.945,0.673
			c0.108,0,0.219-0.018,0.327-0.055c0.521-0.181,0.799-0.75,0.618-1.272c-0.024-0.068-2.386-6.928-2.705-10.594
			c-0.172-1.972,0.664-2.694,1.248-2.96l3.552,1.604c-0.52,0.811-0.845,1.934-0.711,3.47c0.339,3.891,2.617,11.437,2.714,11.756
			c0.131,0.432,0.527,0.71,0.957,0.71c0.096,0,0.193-0.014,0.29-0.043c0.528-0.16,0.827-0.719,0.667-1.247
			c-0.023-0.076-2.314-7.664-2.636-11.35c-0.11-1.265,0.198-2.006,0.585-2.453l4.683,2.115c-0.46,0.796-0.732,1.874-0.607,3.309
			c0.335,3.843,1.776,11.088,1.838,11.395c0.095,0.475,0.513,0.804,0.979,0.804c0.064,0,0.131-0.006,0.197-0.02
			c0.541-0.108,0.893-0.635,0.784-1.177c-0.015-0.073-1.481-7.441-1.807-11.176c-0.099-1.133,0.141-1.838,0.469-2.298l4.299,1.941
			c-0.316,0.738-0.481,1.675-0.379,2.851c0.334,3.835,1.773,11.842,1.834,12.181c0.088,0.483,0.509,0.822,0.983,0.822
			c0.059,0,0.118-0.005,0.179-0.016c0.543-0.099,0.904-0.618,0.807-1.162c-0.015-0.082-1.484-8.255-1.811-11.999
			c-0.071-0.817,0.041-1.4,0.227-1.846l4.723,2.133c-0.36,0.761-0.56,1.741-0.45,3c0.335,3.849,1.779,10.665,1.84,10.953
			c0.101,0.47,0.516,0.792,0.978,0.792c0.069,0,0.139-0.007,0.209-0.021c0.54-0.115,0.885-0.646,0.771-1.187
			c-0.015-0.069-1.479-6.983-1.805-10.711c-0.079-0.911,0.064-1.542,0.292-1.998l4.397,1.986c-0.28,0.717-0.425,1.606-0.328,2.713
			c0.331,3.802,1.133,11.006,1.141,11.078c0.058,0.512,0.49,0.89,0.993,0.89c0.037,0,0.074-0.002,0.111-0.006
			c0.549-0.062,0.944-0.556,0.884-1.104c-0.009-0.072-0.808-7.253-1.137-11.031c-0.063-0.733,0.019-1.282,0.169-1.712l4.955,2.238
			c-0.296,0.727-0.45,1.637-0.351,2.774c0.328,3.772,0.692,10.728,0.695,10.797c0.028,0.534,0.47,0.948,0.998,0.948
			c0.018,0,0.035,0,0.053-0.001c0.552-0.029,0.976-0.499,0.947-1.051c-0.004-0.07-0.369-7.06-0.701-10.867
			c-0.067-0.771,0.029-1.334,0.194-1.771l4.032,1.821c-0.046,0.589-0.051,1.244,0.014,1.979c0.328,3.771,0.692,10.726,0.695,10.795
			c0.028,0.534,0.47,0.948,0.998,0.948c0.018,0,0.035,0,0.053-0.001c0.552-0.029,0.976-0.499,0.947-1.051
			c-0.004-0.07-0.369-7.06-0.701-10.865c-0.048-0.553-0.041-1.026-0.016-1.465C164.42,164.246,165.62,162.254,166.146,161.381z"/>
	</g>
	<g>
		<circle fill="#E0B475" cx="136.106" cy="118.903" r="1.333"/>
	</g>
</g>
</svg>
