<?xml version="1.0" encoding="utf-8"?>
<!-- Generator: Adobe Illustrator 16.0.0, SVG Export Plug-In . SVG Version: 6.00 Build 0)  -->
<!DOCTYPE svg PUBLIC "-//W3C//DTD SVG 1.1//EN" "http://www.w3.org/Graphics/SVG/1.1/DTD/svg11.dtd">
<svg version="1.1" id="Layer_1" xmlns="http://www.w3.org/2000/svg" xmlns:xlink="http://www.w3.org/1999/xlink" x="0px" y="0px"
	 width="226.77px" height="226.77px" viewBox="0 0 226.77 226.77" enable-background="new 0 0 226.77 226.77" xml:space="preserve">
<g>
	<g>
		<g>
			<g>
				<path fill="#95CFC4" d="M63.157,146.771c2.704,1.352,86.496,1.186,94.83,0c8.332-1.186,5.814-20.75,5.592-30.829
					c-0.225-10.08,2.686-39.203,2.119-41.576c-0.564-2.371-77.988-6.521-86.41-4.15c-8.423,2.373-19.886,12.631-20.084,21.434
					C59.007,100.453,56.042,143.214,63.157,146.771z"/>
			</g>
		</g>
		<g>
			<g>
				<path fill="#FFFFFF" d="M69.831,75.287c0,0-2.553,1.693-5.591,5.323c0.577,0.837,2.152,0.435,3.5-0.8
					C69.74,77.977,69.831,75.287,69.831,75.287z"/>
			</g>
		</g>
		<g>
			<g>
				<path fill="#FFFFFF" d="M70.073,91.336c0,0-4.833,0.168-5.833,3.334s1.5,3.166,3.5,1.334
					C69.74,94.17,70.073,91.336,70.073,91.336z"/>
			</g>
		</g>
		<g>
			<g>
				<path fill="#FFFFFF" d="M70.073,105.979c0,0-4.833,0.168-5.833,3.335c-1,3.166,1.5,3.166,3.5,1.332
					C69.74,108.813,70.073,105.979,70.073,105.979z"/>
			</g>
		</g>
		<g>
			<g>
				<path fill="#FFFFFF" d="M70.073,124.204c0,0-4.833,0.168-5.833,3.334s1.5,3.166,3.5,1.332
					C69.74,127.038,70.073,124.204,70.073,124.204z"/>
			</g>
		</g>
		<g>
			<g>
				<path fill="#FFFFFF" d="M70.073,140.579c0,0-4.833,0.168-5.833,3.334s1.5,3.166,3.5,1.332
					C69.74,143.413,70.073,140.579,70.073,140.579z"/>
			</g>
		</g>
		<g>
			<g>
				<path fill="#FFFFFF" d="M153.387,78.098c0,0,4.801,0.584,5.523,3.824s-1.768,3.025-3.602,1.025
					C153.475,80.949,153.387,78.098,153.387,78.098z"/>
			</g>
		</g>
		<g>
			<g>
				<path fill="#FFFFFF" d="M153.387,91.133c0,0,4.801,0.586,5.523,3.826s-1.768,3.023-3.602,1.025S153.387,91.133,153.387,91.133z"
					/>
			</g>
		</g>
		<g>
			<g>
				<path fill="#FFFFFF" d="M154.719,107.125c0,0,4.801,0.584,5.525,3.825c0.723,3.24-1.768,3.025-3.604,1.025
					C154.807,109.978,154.719,107.125,154.719,107.125z"/>
			</g>
		</g>
		<g>
			<g>
				<path fill="#FFFFFF" d="M156.213,125.689c0,0,4.801,0.586,5.523,3.826s-1.768,3.023-3.602,1.025
					C156.299,128.542,156.213,125.689,156.213,125.689z"/>
			</g>
		</g>
		<g>
			<g>
				<path fill="#FFFFFF" d="M156.213,140.375c0,0,4.801,0.586,5.523,3.826s-1.768,3.023-3.602,1.025
					C156.299,143.229,156.213,140.375,156.213,140.375z"/>
			</g>
		</g>
	</g>
	<g>
		<path fill="#7A7979" d="M150.356,103.791c0,0,7,0.617,5.834,4.17c-1.164,3.554-3.184,2.622-11.084,1.165
			c-7.9-1.456-39.752-5.608-39.752-5.608l5.127-4.59L150.356,103.791z"/>
	</g>
	<g>
		<path fill="#7A7979" d="M144.364,130.851c0,0,4.967-2.63,4.271-5.079c-0.688-2.454-2.188-3.842-8.266,0.428
			c-2.068,1.456-6.494,4.074-11.42,6.898c2.211,1.615,0.396,4.829,2.729,5.093L144.364,130.851z"/>
	</g>
	<path fill="#969695" d="M154.395,117.514c-1.225-0.928-17.911-7.022-28.67-10.9c-0.099-0.395-0.153-0.815-0.17-1.25
		c6.461-0.551,19.212-0.361,23.799-5.261c2.973-3.175,3.643-6.132,3.643-7.395c0-1.07,0.195-3.45-1.281-7.141h0.002l1.289-2.109
		l2.793-3.827l-5.324,0.409l-11.672-6.668l-1.775-4.727c0,0-12.268,6.429-18.934,9.94c-2.836,1.362-5.042,2.645-5.682,3.276
		c0,0-52.897,13.278-48.608,38.845c-0.268,0.667-0.343,1.417-0.151,2.167c0.263,1.025,6.658,25.228,25.882,34.552
		c4.892,2.372,10.136,3.558,15.702,3.558c6.521,0,13.483-1.628,20.831-4.881c1.768-0.782,2.565-2.85,1.783-4.617
		s-2.849-2.565-4.617-1.783c-11.636,5.15-21.937,5.637-30.613,1.44c-2.785-1.347-5.257-3.108-7.454-5.096
		c24.299,13.738,46.854-3.916,50.184-13.878c1.564-4.68,1.461-10.045,0.321-14.431c4.44,1.513,8.641,2.936,11.835,4.001
		C159.504,125.744,156.211,118.89,154.395,117.514z"/>
	<g>
		<path fill="#7A7979" d="M150.942,93.901c-0.1-0.258-0.391-0.384-0.646-0.286c-4.887,1.89-7.178-0.83-7.275-0.949
			c-0.172-0.214-0.484-0.248-0.701-0.077c-0.215,0.172-0.25,0.486-0.078,0.702c0.068,0.086,1.107,1.312,3.15,1.793l-1.922,3.323
			c-0.959-0.141-1.816,0.258-1.936,0.917c-0.123,0.681,0.582,1.375,1.576,1.555c0.992,0.179,1.896-0.227,2.02-0.906
			c0.082-0.453-0.211-0.91-0.703-1.22l2.027-3.51c0.193,0.015,0.375,0.042,0.582,0.042c1.033,0,2.238-0.203,3.619-0.736
			C150.912,94.448,151.041,94.158,150.942,93.901z"/>
	</g>
	<g>
		<path fill="#7A7979" d="M112.412,81.863c0.101,0.743,12.381,15.672,23.122,9.969c10.738-5.705,11.635-13.681,11.635-13.681
			l-8.365-4.778l-1.775-4.727C137.028,68.646,113.512,80.106,112.412,81.863z"/>
	</g>
	<g>
		<path fill="#F4A689" d="M150.475,97.787c0,0.302,0.049,0.592,0.119,0.872c1.189-1.6,1.83-3.076,2.141-4.221
			C151.41,94.976,150.475,96.27,150.475,97.787z"/>
	</g>
	<g>
		<path fill="#7A7979" d="M154.492,117.514c-0.57-0.431-5.133-2.371-11.078-4.427l-0.594,7.085v0.001
			c1.801,0.581,3.428,1.114,4.783,1.566C159.6,125.744,156.309,118.89,154.492,117.514z"/>
	</g>
	<g>
		<g>
			<path fill="#575756" d="M132.42,87.994c0.215-0.002,0.434-0.016,0.656-0.043c2.061-0.258,3.859-1.602,5.344-3.996
				c0.295-0.476,0.148-1.1-0.328-1.395c-0.477-0.293-1.1-0.146-1.395,0.326c-1.145,1.85-2.449,2.879-3.871,3.053
				c-2.178,0.271-4.084-1.516-4.104-1.534c-0.4-0.391-1.045-0.38-1.434,0.022c-0.387,0.402-0.379,1.045,0.023,1.434
				C127.412,85.955,129.578,88.02,132.42,87.994z"/>
		</g>
	</g>
	<g>
		<path fill="#54566D" d="M85.174,86.701c-0.233,0-0.466-0.081-0.655-0.245c-0.416-0.362-0.462-0.992-0.101-1.408
			c0.173-0.2,4.289-4.881,10.637-4.346c0.55,0.046,0.959,0.529,0.914,1.08s-0.533,0.958-1.08,0.914
			c-5.307-0.447-8.925,3.622-8.96,3.664C85.73,86.585,85.452,86.701,85.174,86.701z"/>
	</g>
	<g>
		<path fill="#54566D" d="M78.792,86.783c-0.177,0-0.356-0.047-0.519-0.146c-0.471-0.287-0.621-0.9-0.335-1.372
			c0.073-0.12,7.422-11.916,21.939-9.102c0.542,0.105,0.896,0.63,0.792,1.172s-0.627,0.896-1.172,0.792
			c-13.123-2.548-19.581,7.738-19.849,8.177C79.458,86.613,79.129,86.783,78.792,86.783z"/>
	</g>
	<g>
		<g>
			<path fill="#54566D" d="M66.336,142.384c-0.143,0-0.287-0.03-0.424-0.095c-5.646-2.648-4.79-5.641-4.673-5.974
				c0.183-0.521,0.753-0.797,1.274-0.614c0.508,0.178,0.782,0.725,0.627,1.234c-0.018,0.1-0.242,1.73,3.622,3.543
				c0.5,0.234,0.715,0.83,0.48,1.33C67.072,142.171,66.712,142.384,66.336,142.384z"/>
		</g>
		<g>
			<path fill="#54566D" d="M63.989,147.452c-0.155,0-0.312-0.036-0.459-0.112c-9.209-4.771-8.408-14.433-8.399-14.529
				c0.051-0.551,0.528-0.973,1.09-0.901c0.549,0.052,0.952,0.538,0.901,1.087l0,0c-0.031,0.342-0.66,8.431,7.328,12.568
				c0.49,0.254,0.682,0.857,0.428,1.348C64.7,147.256,64.351,147.452,63.989,147.452z"/>
		</g>
	</g>
	<g>
		<path fill="#54566D" d="M161.276,97.164c-0.125,0-0.251-0.023-0.373-0.073c-0.513-0.206-0.761-0.789-0.555-1.301
			c1.586-3.941-1.4-5.552-1.746-5.723c-0.492-0.244-0.699-0.841-0.459-1.335s0.835-0.702,1.328-0.466
			c1.758,0.841,4.592,3.653,2.732,8.271C162.046,96.927,161.671,97.164,161.276,97.164z"/>
	</g>
	<g>
		<path fill="#54566D" d="M165.772,100.591c-0.102,0-0.205-0.016-0.308-0.049c-0.525-0.17-0.813-0.734-0.644-1.259
			c3.527-10.917-3.186-15.17-3.473-15.346c-0.47-0.287-0.621-0.901-0.336-1.372c0.285-0.47,0.896-0.625,1.367-0.341
			c0.085,0.051,8.378,5.193,4.344,17.674C166.586,100.321,166.194,100.591,165.772,100.591z"/>
	</g>
	<g>
		<path fill="#7A7979" d="M81.108,94.696c0.133,0.344,5.745,14.986,6.771,14.312c1.026-0.677,1.359-18.66,1.359-18.66
			S84.625,92.563,81.108,94.696z"/>
	</g>
	<g>
		<path fill="#7A7979" d="M90.933,89.552c0.095,0.177,8.077,15.018,8.077,15.018l-1.321-17.868
			C97.689,86.701,93.007,88.627,90.933,89.552z"/>
	</g>
	<g>
		<path fill="#7A7979" d="M99.101,86.159c0.079,0.178,5.599,12.718,6.319,12.253c0.719-0.465,0.924-14.731,0.924-14.731
			S103.188,84.542,99.101,86.159z"/>
	</g>
</g>
</svg>
