<?xml version="1.0" encoding="utf-8"?>
<!-- Generator: Adobe Illustrator 16.0.0, SVG Export Plug-In . SVG Version: 6.00 Build 0)  -->
<!DOCTYPE svg PUBLIC "-//W3C//DTD SVG 1.1//EN" "http://www.w3.org/Graphics/SVG/1.1/DTD/svg11.dtd">
<svg version="1.1" id="Layer_1" xmlns="http://www.w3.org/2000/svg" xmlns:xlink="http://www.w3.org/1999/xlink" x="0px" y="0px"
	 width="226.77px" height="226.77px" viewBox="0 0 226.77 226.77" enable-background="new 0 0 226.77 226.77" xml:space="preserve">
<g>
	<g>
		<g>
			<path fill="#54566D" d="M155.68,166.445c-9.869-0.459-17.826-0.104-22.809,0.279c0.012-3.266,0.061-6.136,0.178-7.76
				l-16.09,13.238l16.09,13.239c0,0-0.064-3.24-0.115-7.507c4.357-0.211,10.932-0.148,18.922,1.128
				c2.584,0.412,4.68,1.033,6.396,1.814v-14.191C157.43,166.574,156.582,166.487,155.68,166.445z"/>
		</g>
	</g>
	<g>
		<path fill="#E6CC59" d="M165.395,213.904c0.781,0.583,0.242-5.729-6.633-5.624c-5.764,0.09-7.004,5.624-7.004,5.624H165.395z"/>
	</g>
	<g>
		<path fill="#B8C5CE" d="M110.168,213.577v-51.45c0-7.85-6.363-14.213-14.213-14.213H59.831c-7.85,0-14.213,6.363-14.213,14.213
			v51.45H110.168z"/>
	</g>
	<g>
		<g>
			<path fill="#5B3926" d="M77.894,158.326c-0.006,0-0.013,0-0.019,0c-2.485-0.011-4.492-2.033-4.481-4.519L73.88,37.209
				c0.01-2.479,2.023-4.481,4.5-4.481c0.006,0,0.013,0,0.019,0c2.485,0.01,4.492,2.034,4.481,4.519l-0.486,116.599
				C82.383,156.323,80.37,158.326,77.894,158.326z"/>
		</g>
	</g>
	<g>
		<polygon fill="#8B969D" points="47.203,213.577 108.772,213.577 108.772,204.552 47.203,204.567 		"/>
	</g>
	<path fill="#E6CC59" d="M126.25,203.207c-4.025,0.116-7.305,2.424-9.662,4.854c-1.887-0.816-4.281-1.434-7.308-1.576
		c-5.911-0.273-7.189,7.335-7.189,7.335h20.47c0.078,0.074,0.115,0.05,0.127-0.021h19.602
		C143.467,214.917,143.276,202.715,126.25,203.207z"/>
	<g>
		<rect x="59.564" y="164.428" fill="#8B969D" width="4" height="26.514"/>
	</g>
	<g>
		<rect x="74.897" y="164.428" fill="#8B969D" width="4" height="26.514"/>
	</g>
	<g>
		<rect x="90.231" y="164.428" fill="#8B969D" width="4" height="26.514"/>
	</g>
	<g>
		<path fill="#35A8E0" d="M96.147,3.359H59.53v3.683c0,0-0.823,15.726,1.048,21.9c1.594,5.259,2.752,7.314,11.736,8.055v10.669
			h12.25V37.071c1.722-0.081,2.848-0.163,2.848-0.163s4.999-0.049,7.999-7.049S96.147,3.359,96.147,3.359z M89.731,24.499
			c-0.084,2.5,0.229,5.97-6.833,6.334c-6.765,0.349-11.252-0.25-12.418-0.417s-4.75-1.25-4.416-7.25s0-11.792,0-11.792h23.667
			C89.731,11.374,89.82,21.865,89.731,24.499z"/>
	</g>
</g>
</svg>
