<?xml version="1.0" encoding="utf-8"?>
<!-- Generator: Adobe Illustrator 16.0.0, SVG Export Plug-In . SVG Version: 6.00 Build 0)  -->
<!DOCTYPE svg PUBLIC "-//W3C//DTD SVG 1.1//EN" "http://www.w3.org/Graphics/SVG/1.1/DTD/svg11.dtd">
<svg version="1.1" id="Layer_1" xmlns="http://www.w3.org/2000/svg" xmlns:xlink="http://www.w3.org/1999/xlink" x="0px" y="0px"
	 width="226.77px" height="226.77px" viewBox="0 0 226.77 226.77" enable-background="new 0 0 226.77 226.77" xml:space="preserve">
<g>
	<g>
		<path fill="#683B11" d="M29.641,141.098l9-5.893l23.053-8.874c0,0,2.992,1.272,8.628,2.089
			c-2.024,2.11-30.681,19.035-30.681,19.035L29.641,141.098z"/>
	</g>
	<g>
		<path fill="#DA913F" d="M29.641,141.098c0,0,5.247-1.071,8.25,2.107c1.938,2.051,2.458,3.044,1.75,4.25
			c-1.295,2.207-5.934,3.333-8.59,1.5C29.025,147.557,26.391,144.705,29.641,141.098z"/>
	</g>
	<g>
		<path fill="#1D1D1B" d="M62.916,134.893c-0.25,0-0.5-0.093-0.694-0.279c-0.397-0.384-0.41-1.017-0.026-1.414
			c0.108-0.12,1.111-1.332-0.133-3.369c-2.473-4.049-6.112-2.002-6.266-1.913c-0.477,0.278-1.089,0.113-1.367-0.363
			c-0.277-0.479-0.114-1.09,0.364-1.367c1.887-1.095,6.191-1.957,8.976,2.601c2.091,3.426-0.042,5.704-0.133,5.799
			C63.44,134.79,63.178,134.893,62.916,134.893z"/>
	</g>
	<g>
		<path fill="#ECEBE0" d="M32.543,92.953c0.252,0.634,7.227,29.76,32.662,34.76c15.127,2.974,28.332-2.363,36.55-7.178
			C61.667,120.333,32.543,92.953,32.543,92.953z"/>
	</g>
	<g>
		<path fill="#1D1D1B" d="M40.724,140.171c-0.37,0-0.726-0.206-0.899-0.561c-0.243-0.496-0.037-1.096,0.459-1.338l24.226-11.841
			l0.874-1.395c0.294-0.468,0.91-0.61,1.378-0.316c0.468,0.293,0.61,0.91,0.317,1.379l-1.177,1.879L41.162,140.07
			C41.021,140.139,40.871,140.171,40.724,140.171z"/>
	</g>
	<g>
		<path fill="#1D1D1B" d="M42.141,147.006c-0.25,0-0.5-0.093-0.694-0.28c-0.397-0.383-0.41-1.016-0.026-1.413
			c0.127-0.141,1.288-1.53-0.133-3.857c-2.72-4.456-6.644-2.4-7.082-2.152c-0.478,0.271-1.09,0.106-1.363-0.37
			c-0.274-0.478-0.113-1.086,0.364-1.362c2.057-1.192,6.751-2.133,9.789,2.842c2.271,3.721-0.034,6.185-0.133,6.287
			C42.665,146.904,42.403,147.006,42.141,147.006z"/>
	</g>
	<g>
		<path fill="#1D1D1B" d="M40.723,140.171c-0.101,0-0.205-0.016-0.306-0.048c-0.526-0.169-0.815-0.732-0.646-1.259
			c0.547-1.698-2.189-2.708-2.216-2.718c-0.519-0.187-0.79-0.759-0.604-1.277c0.187-0.52,0.757-0.788,1.274-0.606
			c1.592,0.563,4.362,2.38,3.45,5.215C41.538,139.902,41.146,140.171,40.723,140.171z"/>
	</g>
	<path fill="#161418" d="M199.529,161.199c-0.5-1.933-14.458-15.293-14.458-15.293c-0.583-0.729-1.159-1.448-1.723-2.149
		c1.476-0.475,0.388-2.536-0.153-3.584c-0.667-1.292-6.554-4.71-6.554-4.71l-31.361-20.905c3.599-0.806,5.694-1.341,5.694-1.341
		s-11.532-9.838-25.187-17.823c-0.001-0.001-7.006-8.112-18.759-8.557l0,0c-2.078-0.606-4.107-1.05-6.055-1.288
		c-20.5-2.5-38-2.807-41-5.508s-2.564-2.659,0.334-4.159s3.397-3.334,4.897-4.334c0.204-0.136,0.58-0.337,1.071-0.583l5.98-1.456
		c0,0,5.368-0.73,7.052-2.414c-1.5-2.509-4.834-2.415-4.834-2.415l-9.269-1.133c0,0-7.5-8.5-18.5-4.5S24.808,84.124,35.308,97.883
		s31.666,25.498,59.666,23.998c8.646-0.463,17.291-1.468,25.112-2.634c0.389,0.313,0.803,0.648,1.246,1.006l47.029,42.463
		c0,0,2.318,1.217,4,0c0.498-0.36,0.863-0.75,1.137-1.15c1.662,1.596,4.879,4.44,7.363,5.15c2.613,0.747,4.668-0.553,5.229-2.004
		c0.087-0.001,0.178-0.004,0.265-0.006c3.348,4.551,5.165,3.17,6.839,2.228c0.892-0.502,1.111-1.611,1.104-2.62
		C199.198,166.948,200.025,163.117,199.529,161.199z"/>
	<g>
		<g>
			<path fill="#C5D6E0" d="M53.561,69.69c-0.16,0-0.32-0.009-0.481-0.027c-2.752-0.306-4.4-3.189-4.47-3.312
				c-0.271-0.481-0.1-1.091,0.383-1.361c0.478-0.27,1.088-0.1,1.359,0.38l0,0c0.013,0.021,1.227,2.12,2.955,2.308
				c0.996,0.099,2.041-0.452,3.128-1.659c0.37-0.413,1.004-0.443,1.412-0.074c0.411,0.37,0.443,1.002,0.074,1.412
				C56.524,68.906,55.06,69.69,53.561,69.69z"/>
		</g>
	</g>
	<g>
		<path fill="#ECEBE0" d="M49.882,90.082c0,0-7.854,0-5.354,6.25s20.678,19.631,34.917,12c7.357-3.944,10.083-7.992,8.583-8.996
			s-8.656-0.383-15.771-1.37S53.451,89.32,49.882,90.082z"/>
	</g>
	<g>
		<path fill="#ECEBE0" d="M86.747,83.949c0,0,2.712,3.289,1.678,5.977s-7.831,6.803-6.058,8.62s12.773-0.458,14.023-5.695
			s-2.18-8.162-3.193-8.273C90.34,84.264,86.747,83.949,86.747,83.949z"/>
	</g>
</g>
</svg>
