<?xml version="1.0" encoding="utf-8"?>
<!-- Generator: Adobe Illustrator 16.0.0, SVG Export Plug-In . SVG Version: 6.00 Build 0)  -->
<!DOCTYPE svg PUBLIC "-//W3C//DTD SVG 1.1//EN" "http://www.w3.org/Graphics/SVG/1.1/DTD/svg11.dtd">
<svg version="1.1" id="Layer_1" xmlns="http://www.w3.org/2000/svg" xmlns:xlink="http://www.w3.org/1999/xlink" x="0px" y="0px"
	 width="226.77px" height="226.77px" viewBox="0 0 226.77 226.77" enable-background="new 0 0 226.77 226.77" xml:space="preserve">
<g>
	<g>
		<path fill="#ECEBE0" d="M41.683,79.255c0,0,17.666,11.844,29.373,21.672c7.131,5.986,12.33,11.109,19.373,14.539
			c1.496,0.729,3.776-2.898,2.405-8.661c-2.771-11.646-10.777-17.392-17.167-20.924c-5.275-2.916-13.804-7.544-24.5-7.214
			C47.117,78.792,41.683,79.255,41.683,79.255z"/>
	</g>
	<path fill="#81BB45" d="M182.832,119.792c-3.568-5.56-13.268-6.636-19.503-6.72c-1.323-1.089-2.271-1.744-2.566-1.817
		c-2-0.5-21.5-17.5-30-22.5c-7.055-4.15-28.919-15.533-46.441-21.285c-0.929-0.305-1.844-0.592-2.746-0.863
		c-2.087-4.122-5.47-8.791-10.52-10.352c-9.707-3-13.55,8.291-13.55,8.291c-9.48,1.514-15.823,5.209-15.823,5.209
		c-6.762,2.934-4.029,9.001,0,9.5c0.913,0.113,18.58,3,23.08,4.5s15,6,19.561,10.5c2.957,2.918,7.013,12.348,9.502,18.621
		c-3.509,9.528-9.206,25.359-9.206,25.359l0.558,0.095c-3.494,0.855-9.4,1.088-12.279,1.151c-2.964-1.691-9.341-3.099-11.731-3.585
		c0.196-0.794-0.055-1.666-0.729-2.22c-0.934-0.77-2.316-0.633-3.084,0.302c-0.77,0.936-0.634,2.318,0.304,3.086
		c0.547,0.449,1.246,0.58,1.886,0.432c0.121,0.094,0.258,0.17,0.418,0.2c2.466,0.47,8.705,1.863,11.538,3.286
		c-4.838,1.026-10.847,3.093-13.658,4.103c-0.083-0.098-0.172-0.191-0.274-0.276c-0.935-0.767-2.316-0.632-3.085,0.304
		s-0.634,2.316,0.303,3.085c0.937,0.766,2.317,0.631,3.085-0.303c0.21-0.256,0.347-0.547,0.424-0.848
		c4.738-1.714,11.301-3.781,15.409-4.466c0.483,0.469,1.002,0.899,1.533,1.205c-4.896,2.883-11.815,6.728-16.995,9.535
		c-0.103,0.056-0.184,0.133-0.258,0.215c-0.779-0.17-1.623,0.082-2.163,0.741c-0.769,0.934-0.633,2.315,0.302,3.086
		c0.938,0.768,2.316,0.634,3.087-0.303c0.517-0.632,0.615-1.463,0.342-2.175c2.49-1.353,12.854-7.008,18.856-10.672
		c3.664-0.161,10.746-0.878,15.451-2.496c0.86-0.296,1.626-0.835,2.334-1.511l0.169,0.028l12.015-15.3
		c2.552,1.715,5.313,3.854,8.096,6.504c-0.318,0.134-0.613,0.335-0.848,0.62c-0.77,0.936-0.634,2.318,0.304,3.086
		c0.547,0.449,1.246,0.581,1.886,0.432c0.121,0.094,0.258,0.17,0.419,0.2c0.711,0.136,1.743,0.35,2.912,0.618
		c0.374,0.442,0.747,0.896,1.118,1.359c0.737,0.921,1.488,1.807,2.252,2.658c-3.354,0.979-6.563,2.092-8.402,2.753
		c-0.083-0.098-0.172-0.191-0.274-0.276c-0.935-0.767-2.316-0.632-3.085,0.304s-0.634,2.316,0.303,3.085
		c0.937,0.766,2.317,0.631,3.085-0.303c0.211-0.256,0.347-0.546,0.424-0.847c2.82-1.021,6.285-2.164,9.496-3.069
		c0.876,0.898,1.77,1.752,2.684,2.557c-4.065,2.312-8.578,4.805-12.232,6.786c-0.103,0.056-0.184,0.133-0.258,0.215
		c-0.779-0.17-1.623,0.082-2.163,0.741c-0.769,0.934-0.633,2.315,0.302,3.086c0.938,0.768,2.316,0.634,3.087-0.303
		c0.517-0.632,0.614-1.463,0.343-2.175c1.736-0.943,7.307-3.982,12.555-6.978c3.622,2.889,7.54,5.041,11.82,6.321
		c1.499,0.571,3.384,0.974,5.729,1.165c0.012,0.001,0.023,0.002,0.035,0.003c0.964,0.104,1.946,0.163,2.943,0.186
		C189.906,155.529,188.131,128.05,182.832,119.792z"/>
	<g>
		<g>
			<circle fill="#FFFFFF" cx="68.07" cy="67.031" r="5.605"/>
		</g>
		<g>
			<path fill="#575756" d="M69.198,68.346c-1.306,1.02-3.192,0.786-4.212-0.521c-1.02-1.305-0.791-3.192,0.519-4.212
				c1.307-1.023,3.193-0.787,4.213,0.518C70.739,65.436,70.505,67.325,69.198,68.346z"/>
		</g>
	</g>
	<g>
		<g>
			<g>
				<circle fill="#F29100" cx="73.675" cy="82.754" r="6.198"/>
			</g>
		</g>
	</g>
	<path fill="#65AC63" d="M164.593,113.214c-11.734,1.087-33.666,13.667-37.333,18s-1.667,12.001,0,15.667
		c0.019,0.04,0.045,0.076,0.065,0.115c-1.983,0.133-3.839,0.193-5.108,0.222c-2.964-1.691-9.341-3.099-11.731-3.585
		c0.196-0.794-0.055-1.666-0.729-2.22c-0.934-0.77-2.316-0.633-3.084,0.302c-0.77,0.936-0.634,2.318,0.304,3.086
		c0.547,0.449,1.246,0.58,1.886,0.432c0.121,0.094,0.258,0.17,0.418,0.2c2.465,0.469,8.702,1.862,11.536,3.285
		c-4.838,1.026-10.846,3.093-13.655,4.104c-0.083-0.098-0.172-0.192-0.274-0.276c-0.935-0.767-2.316-0.632-3.085,0.304
		s-0.634,2.316,0.303,3.085c0.937,0.766,2.317,0.631,3.085-0.303c0.21-0.256,0.347-0.547,0.424-0.848
		c4.738-1.713,11.302-3.78,15.409-4.466c0.483,0.47,1.003,0.899,1.533,1.205c-4.896,2.883-11.815,6.728-16.995,9.535
		c-0.103,0.056-0.184,0.133-0.258,0.215c-0.779-0.17-1.623,0.082-2.163,0.741c-0.769,0.934-0.633,2.315,0.302,3.086
		c0.938,0.768,2.316,0.634,3.087-0.303c0.517-0.632,0.615-1.463,0.342-2.175c2.49-1.353,12.855-7.008,18.856-10.672
		c3.664-0.161,10.746-0.878,15.451-2.496c0.746-0.257,1.424-0.69,2.054-1.239c0.934-0.181,1.817-0.373,2.62-0.573
		c6.7-1.667,19.149-8.545,21.816-10.878s11.593-8.55,12.593-9.55s3.033-1.881,3-4C185.198,119.314,182.593,111.547,164.593,113.214z
		"/>
	<g>
		<path fill="#B17F49" d="M125.194,88.953c-2.063-0.983-6.619-2.547-4.656,0s3.387,2.797,4.8,3.047S126.974,89.802,125.194,88.953z"
			/>
	</g>
	<g>
		<path fill="#B17F49" d="M132.43,89.794c0.355,0.234-0.431,2.206,0.653,2.956s2.276-0.484,2.567-0.732
			C134.128,90.94,132.43,89.794,132.43,89.794z"/>
	</g>
	<g>
		<path fill="#B17F49" d="M115.875,83.563c0.107,0.742,0.375,2.875,1.25,2.688s0.688-1.438,0.312-2.375
			S115.682,82.222,115.875,83.563z"/>
	</g>
	<g>
		<path fill="#B17F49" d="M121.438,84.938c0.483,0.725,1.082,1.148,1.822,1.324s1.252-0.972,1.252-0.972l-3.074-1.614
			C121.438,83.676,121.013,84.301,121.438,84.938z"/>
	</g>
	<g>
		<path fill="#B17F49" d="M113.25,84.979c0.095-1.386-2.438-4.854-3.875-4.604s-0.062,3.145,1.312,4.604
			S113.188,85.895,113.25,84.979z"/>
	</g>
	<g>
		<path fill="#B17F49" d="M133.137,94.582c-0.296-1.085-3.45-1.577-2.562,0C131.461,96.159,133.433,95.666,133.137,94.582z"/>
	</g>
	<g>
		<path fill="#B17F49" d="M103.273,81.369c-0.296-1.085-3.45-1.577-2.562,0C101.597,82.947,103.569,82.453,103.273,81.369z"/>
	</g>
	<path fill="#65AC63" d="M112.254,111.334c-1.245-9.052-20.48-15.746-23.763,1.648l3.282,20.195
		c-0.204,1.878-0.204,1.878-1.711,5.984c-2.824,7.697-5.122,11.1-5.921,12.146c-3.544,0.676-8.661,0.871-11.265,0.928
		c-2.832-1.76-9.543-3.237-12.006-3.738c0.196-0.794-0.055-1.666-0.729-2.22c-0.934-0.77-2.316-0.633-3.084,0.302
		c-0.77,0.936-0.634,2.318,0.304,3.086c0.547,0.449,1.246,0.58,1.886,0.432c0.121,0.094,0.258,0.17,0.418,0.2
		c2.466,0.47,8.705,1.863,11.538,3.286c-4.838,1.026-10.847,3.093-13.658,4.104c-0.083-0.099-0.172-0.192-0.274-0.277
		c-0.935-0.767-2.316-0.632-3.085,0.304s-0.634,2.316,0.303,3.085c0.937,0.766,2.317,0.631,3.085-0.303
		c0.21-0.256,0.347-0.547,0.424-0.848c4.784-1.73,11.429-3.822,15.528-4.487c0.452,0.457,0.94,0.88,1.443,1.209
		c-4.898,2.885-11.834,6.739-17.024,9.553c-0.103,0.056-0.184,0.133-0.258,0.215c-0.779-0.17-1.623,0.082-2.163,0.741
		c-0.769,0.934-0.633,2.315,0.302,3.086c0.938,0.768,2.316,0.634,3.087-0.303c0.517-0.632,0.615-1.463,0.342-2.175
		c2.451-1.331,12.526-6.829,18.565-10.496c3.445-0.105,11.07-0.81,16.038-2.519c2.422-0.834,4.154-3.435,5.681-6.348l11.019-14.947
		C110.557,133.178,113.48,120.247,112.254,111.334z"/>
</g>
</svg>
