<?xml version="1.0" encoding="utf-8"?>
<!-- Generator: Adobe Illustrator 16.0.0, SVG Export Plug-In . SVG Version: 6.00 Build 0)  -->
<!DOCTYPE svg PUBLIC "-//W3C//DTD SVG 1.1//EN" "http://www.w3.org/Graphics/SVG/1.1/DTD/svg11.dtd">
<svg version="1.1" id="Layer_1" xmlns="http://www.w3.org/2000/svg" xmlns:xlink="http://www.w3.org/1999/xlink" x="0px" y="0px"
	 width="226.77px" height="226.77px" viewBox="0 0 226.77 226.77" enable-background="new 0 0 226.77 226.77" xml:space="preserve">
<g>
	<g>
		<polygon fill="#35A8E0" points="44.313,51.326 44.313,183.483 65.335,183.483 65.335,51.326 54.823,39.659 		"/>
		<polygon fill="#35A8E0" points="67.753,51.326 67.753,183.483 88.776,183.483 88.776,51.326 78.265,39.659 		"/>
		<path fill="#35A8E0" d="M91.261,51.326h-0.067v27.349v0.65v6.029v98.128h21.022v-84.33c0.026,0.028,0.045,0.062,0.072,0.09V51.326
			l-10.517-11.667L91.261,51.326z"/>
		<polygon fill="#35A8E0" points="114.634,51.326 114.634,87.825 114.634,183.483 135.656,183.483 135.656,101.607 135.656,87.825 
			135.656,51.326 125.146,39.659 		"/>
		<path fill="#35A8E0" d="M138.506,51.326h-0.067v27.349v0.65v6.029v98.128h21.022v-84.33c0.026,0.028,0.046,0.062,0.072,0.09
			V51.326l-10.517-11.667L138.506,51.326z"/>
		<polygon fill="#35A8E0" points="172.391,39.659 161.879,51.326 161.879,87.825 161.879,183.483 182.902,183.483 182.902,101.607 
			182.902,87.825 182.902,51.326 		"/>
	</g>
	<rect x="33.327" y="78.004" fill="#59AFE2" width="159.019" height="16"/>
	<polygon fill="#009EDC" points="33.327,78.004 192.346,78.004 191.18,77.17 34.995,77.17 	"/>
	<rect x="33.327" y="111.801" fill="#59AFE2" width="159.019" height="16"/>
	<polygon fill="#009EDC" points="33.327,111.801 192.346,111.801 191.18,110.967 34.995,110.967 	"/>
	<circle fill="#54566D" cx="47" cy="82.25" r="1"/>
	<circle fill="#54566D" cx="60.5" cy="82.25" r="1"/>
	<circle fill="#54566D" cx="47" cy="90.5" r="1"/>
	<circle fill="#54566D" cx="60.5" cy="90.5" r="1"/>
	<g>
		<circle fill="#54566D" cx="48.188" cy="116.25" r="1"/>
		<circle fill="#54566D" cx="60.5" cy="116.25" r="1"/>
		<circle fill="#54566D" cx="60.5" cy="125" r="1"/>
		<circle fill="#54566D" cx="48.188" cy="124" r="1"/>
	</g>
	<g>
		<circle fill="#54566D" cx="72.108" cy="81.629" r="1"/>
		<circle fill="#54566D" cx="84.42" cy="81.629" r="1"/>
		<circle fill="#54566D" cx="84.42" cy="90.379" r="1"/>
		<circle fill="#54566D" cx="72.108" cy="89.379" r="1"/>
	</g>
	<g>
		<circle fill="#54566D" cx="71.108" cy="115.426" r="1"/>
		<circle fill="#54566D" cx="83.42" cy="115.426" r="1"/>
		<circle fill="#54566D" cx="83.42" cy="124.176" r="1"/>
		<circle fill="#54566D" cx="71.108" cy="123.176" r="1"/>
	</g>
	<g>
		<circle fill="#54566D" cx="94.504" cy="81.629" r="1"/>
		<circle fill="#54566D" cx="106.817" cy="81.629" r="1"/>
		<circle fill="#54566D" cx="106.817" cy="90.379" r="1"/>
		<circle fill="#54566D" cx="94.504" cy="89.379" r="1"/>
	</g>
	<g>
		<circle fill="#54566D" cx="93.504" cy="115.426" r="1"/>
		<circle fill="#54566D" cx="105.817" cy="115.426" r="1"/>
		<circle fill="#54566D" cx="105.817" cy="124.176" r="1"/>
		<circle fill="#54566D" cx="93.504" cy="123.176" r="1"/>
	</g>
	<g>
		<circle fill="#54566D" cx="118.989" cy="81.629" r="1"/>
		<circle fill="#54566D" cx="131.301" cy="81.629" r="1"/>
		<circle fill="#54566D" cx="131.301" cy="90.379" r="1"/>
		<circle fill="#54566D" cx="118.989" cy="89.379" r="1"/>
	</g>
	<g>
		<circle fill="#54566D" cx="116.989" cy="115.426" r="1"/>
		<circle fill="#54566D" cx="129.301" cy="115.426" r="1"/>
		<circle fill="#54566D" cx="129.301" cy="124.176" r="1"/>
		<circle fill="#54566D" cx="116.989" cy="123.176" r="1"/>
	</g>
	<g>
		<circle fill="#54566D" cx="142.787" cy="81.629" r="1"/>
		<circle fill="#54566D" cx="155.1" cy="81.629" r="1"/>
		<circle fill="#54566D" cx="155.1" cy="90.379" r="1"/>
		<circle fill="#54566D" cx="142.787" cy="89.379" r="1"/>
	</g>
	<g>
		<circle fill="#54566D" cx="140.787" cy="115.009" r="1"/>
		<circle fill="#54566D" cx="153.1" cy="115.009" r="1"/>
		<circle fill="#54566D" cx="153.1" cy="123.759" r="1"/>
		<circle fill="#54566D" cx="140.787" cy="122.759" r="1"/>
	</g>
	<g>
		<circle fill="#54566D" cx="166.227" cy="81.629" r="1"/>
		<circle fill="#54566D" cx="178.539" cy="81.629" r="1"/>
		<circle fill="#54566D" cx="178.539" cy="90.379" r="1"/>
		<circle fill="#54566D" cx="166.227" cy="89.379" r="1"/>
	</g>
	<g>
		<circle fill="#54566D" cx="166.227" cy="115.426" r="1"/>
		<circle fill="#54566D" cx="178.539" cy="115.426" r="1"/>
		<circle fill="#54566D" cx="178.539" cy="124.176" r="1"/>
		<circle fill="#54566D" cx="166.227" cy="123.176" r="1"/>
	</g>
</g>
</svg>
