<?xml version="1.0" encoding="utf-8"?>
<!-- Generator: Adobe Illustrator 16.0.0, SVG Export Plug-In . SVG Version: 6.00 Build 0)  -->
<!DOCTYPE svg PUBLIC "-//W3C//DTD SVG 1.1//EN" "http://www.w3.org/Graphics/SVG/1.1/DTD/svg11.dtd">
<svg version="1.1" id="Layer_1" xmlns="http://www.w3.org/2000/svg" xmlns:xlink="http://www.w3.org/1999/xlink" x="0px" y="0px"
	 width="264.667px" height="226.77px" viewBox="-17.115 0 264.667 226.77" enable-background="new -17.115 0 264.667 226.77"
	 xml:space="preserve">
<g>
	<g>
		<polygon fill="#B4C3CC" points="197.243,145.822 196.167,173.167 187.667,173.167 		"/>
	</g>
	<path fill="#EAF6FD" d="M191.256,165.63c-1.519,0-2.75,1.23-2.75,2.751c0-1.521-1.232-2.751-2.752-2.751
		c-1.517,0-2.751,1.229-2.751,2.751c0-1.521-1.231-2.751-2.751-2.751s-2.751,1.23-2.751,2.751v3.03h5.502h5.503h5.501v-3.03
		C194.007,166.861,192.777,165.63,191.256,165.63z"/>
	<g>
		<g>
			<polygon fill="#B4C3CC" points="103.111,142.259 105.249,171.981 86.575,171.981 76.607,140.422 			"/>
		</g>
		<path fill="#EAF6FD" d="M100.365,164.765c-1.519,0-2.75,1.23-2.75,2.751c0-1.521-1.232-2.751-2.752-2.751
			c-1.517,0-2.751,1.229-2.751,2.751c0-1.521-1.231-2.751-2.751-2.751s-2.751,1.23-2.751,2.751v3.03h5.502h5.503h5.501v-3.03
			C103.115,165.995,101.885,164.765,100.365,164.765z"/>
	</g>
	<g>
		<g>
			<path fill="#54566D" d="M10.003,110.252c-0.459,9.867-0.104,17.826,0.279,22.809c-3.266-0.012-6.136-0.062-7.76-0.178
				l13.238,16.088L29,132.883c0,0-3.24,0.062-7.507,0.113c-0.211-4.355-0.148-10.932,1.128-18.92
				c0.412-2.586,1.033-4.68,1.814-6.398H10.244C10.133,108.5,10.045,109.35,10.003,110.252z"/>
		</g>
	</g>
	<path fill="#8B969D" d="M217.749,138.963c-2.021-1.757-4.504-4.24-6.99-7.556c-5.77-7.692-9.265-18.736-9.299-18.847
		c0,0-1.647,1.698-1.45,4.863c0.272,4.373,4.436,10.567,8.349,15.785c3.159,4.211,6.303,7.156,8.648,9.05
		c-0.419,13.15,18.795,9.189,18.795,9.189C228.075,137.381,220.009,135.854,217.749,138.963z"/>
	<path fill="#C5D6E0" d="M107.965,58.66c0.35-0.592,0.334-1.031-0.132-1.285c-8.128-1.876-11.446-3.792-26.286-3.96
		C59.732,53.168,40.842,64,39.38,81.954c-1.141,14.007-0.652,19.309-0.575,31.054c0.003,0.513,0.007,1.01,0.01,1.496l0,0v0.002
		c0.056,8.211,0.097,12.813,0.121,15.17c-0.743,8.492-3.159,18.275-9.933,22.901C13.5,163.164-6.9,156.963-6.9,156.963v8.009
		c0,0,6.07,5.99,27.035,4.657c20.964-1.333,33.801-14.981,43.135-26.981c4.147,13.964,10.462,32.456,10.462,32.456h19.251
		l0.125-32.389c0,0,31.623,6.812,43.953,6.812s34.358-6.812,34.358-6.812l-1.002,32.389h18.622c0,0,9.854-22.987,12.833-63.918
		C204.872,69.957,188.522,58.318,107.965,58.66z"/>
	<g>
		<path fill="#B4C3CC" d="M-6.9,164.972c0,0,1.729,0.856,2.682-1.003c0.733-1.432,1.081-2.548,0.394-4.485
			c-0.61-1.72-1.425-2.521-3.075-2.521C-8.375,156.963-10.357,162.959-6.9,164.972z"/>
	</g>
	<g>
		<path fill="#8B969D" d="M35.805,143.642l5.037,4.359c0,0-5.255-1.89-6.064-2.18C35.198,144.99,35.805,143.642,35.805,143.642z"/>
	</g>
	<g>
		<path fill="#8B969D" d="M32.396,149.443l2.491,4.725c0,0-3.324-2.448-4.078-3.025C31.964,149.948,32.396,149.443,32.396,149.443z"
			/>
	</g>
	<g>
		<path fill="#8B969D" d="M27.071,153.789l1.263,5.212c0,0-2.577-3.411-3.174-4.183C25.935,154.43,27.071,153.789,27.071,153.789z"
			/>
	</g>
	<g>
		<path fill="#8B969D" d="M19.771,156.963c0.073,0.307,1.104,4.662,1.104,4.662l-2.514-4.262
			C18.362,157.364,19.31,157.101,19.771,156.963z"/>
	</g>
	<g>
		<path fill="#8B969D" d="M11.989,158.51l0.512,3.115c0,0,0.627-2.424,0.904-3.285C12.697,158.433,11.989,158.51,11.989,158.51z"/>
	</g>
	<g>
		<path fill="#8B969D" d="M172.044,70.642c0,0,4.793,1.448,3.479,3.074s-3.647,0.041-4.98,0s-4.667-2.441-3-3.074
			S172.044,70.642,172.044,70.642z"/>
	</g>
	<g>
		<path fill="#8B969D" d="M156.333,66.667C157.145,67.203,158.833,69,160,68s-0.501-3.667-1.834-3.667
			S154.056,65.163,156.333,66.667z"/>
	</g>
	<g>
		<path fill="#8B969D" d="M159.5,73.397c2.012,0.521,0.359-1.858-1.57-2.044S157.167,72.793,159.5,73.397z"/>
	</g>
	<g>
		<path fill="#8B969D" d="M142.667,64.333c2,0.167,2.667-2.167,0-2.5s-7-0.49-5.167,1.255S142.667,64.333,142.667,64.333z"/>
	</g>
	<g>
		<path fill="#8B969D" d="M167.127,67.135c1.597,0.469,3.312,1.148,3.28,0s-4.113-2.982-5.156-1.982S165.156,66.556,167.127,67.135z
			"/>
	</g>
	<g>
		<path fill="#8B969D" d="M144.369,68.241c1.198,1.096,4.249,0.77,2.747-0.795C145.614,65.883,142.861,66.865,144.369,68.241z"/>
	</g>
	<g>
		<path fill="#8B969D" d="M151.277,64.478c1.48,0.616,1.29-2.559-0.465-2.179S149.322,63.664,151.277,64.478z"/>
	</g>
	<g>
		<path fill="#8B969D" d="M75.6,103.158c-0.643-4.13-9.797-11.875-18.797-6.25s-7.25,22.625,0,21.375s9.274-3.006,11.75-4
			S76.522,109.081,75.6,103.158z"/>
	</g>
	<g>
		<g>
			<circle fill="#FFFFFF" cx="63.122" cy="104.79" r="5.605"/>
		</g>
		<g>
			<path fill="#575756" d="M66.096,108.471c-1.306,1.02-3.192,0.786-4.212-0.521c-1.02-1.305-0.791-3.192,0.519-4.212
				c1.307-1.023,3.193-0.787,4.213,0.518C67.637,105.561,67.404,107.45,66.096,108.471z"/>
		</g>
		<g>
			<path fill="#ECEBE0" d="M68.617,105.893c0.071-0.357,0.109-0.725,0.109-1.103c0-3.096-2.51-5.604-5.604-5.604
				c-2.654,0-4.873,1.847-5.453,4.324C60.359,104.198,65.414,105.245,68.617,105.893z"/>
		</g>
	</g>
	<g>
		<g>
			<circle fill="#F4A68B" cx="75.703" cy="123.212" r="8.393"/>
		</g>
	</g>
	<g>
		<path fill="#ECEBE0" d="M171.419,142.715c0,0-5.137-4.464-10.586-6.048c-9-2.616-27.396-1.567-39.32-1.997
			c-21.806-0.785-28.405,8.045-28.405,8.045s20.812,5.671,37.603,6.812S171.419,142.715,171.419,142.715z"/>
	</g>
	<g>
		<path fill="#AFBDC6" d="M80.182,73.718c-1.119-8.285-4-11.334-2.333-14.334s15.666-10.333,27.333-7.333s31.561,2.333,27.447,20
			s-6.061,18.667-8.254,21.667s-2.008,10-3.934,13s-8.188,13-9.724,14.333s-5.736,1-10.803,0s-11.352-2-14.209-9
			s-9.114-16.333-8.319-20S80.657,77.238,80.182,73.718z"/>
	</g>
	<path fill="#EAF6FD" d="M88.177,168.313c-1.519,0-2.75,1.23-2.75,2.751c0-1.521-1.232-2.751-2.752-2.751
		c-1.519,0-2.751,1.23-2.751,2.751c0-1.521-1.231-2.751-2.751-2.751s-2.751,1.23-2.751,2.751v3.03h5.502h5.503h5.501v-3.03
		C90.928,169.543,89.698,168.313,88.177,168.313z"/>
	<path fill="#EAF6FD" d="M185.753,168.313c-1.519,0-2.75,1.23-2.75,2.751c0-1.521-1.232-2.751-2.752-2.751
		c-1.519,0-2.751,1.23-2.751,2.751c0-1.521-1.231-2.751-2.751-2.751s-2.751,1.23-2.751,2.751v3.03h5.502h5.503h5.501v-3.03
		C188.504,169.543,187.274,168.313,185.753,168.313z"/>
	<g>
		<path fill="#FFFFFF" d="M61.017,124.156c0,0-4.731,5.422-9.94,8.142s-8.208,2.68-9.208,3.535s-1.473,1.661-0.473,2.643
			c2.354,2.311,8.262-0.028,11.825-1.42c5.386-2.104,12.387-6.788,12.387-6.788S66.576,124.156,61.017,124.156z"/>
	</g>
</g>
</svg>
