<?xml version="1.0" encoding="utf-8"?>
<!-- Generator: Adobe Illustrator 16.0.0, SVG Export Plug-In . SVG Version: 6.00 Build 0)  -->
<!DOCTYPE svg PUBLIC "-//W3C//DTD SVG 1.1//EN" "http://www.w3.org/Graphics/SVG/1.1/DTD/svg11.dtd">
<svg version="1.1" id="Layer_1" xmlns="http://www.w3.org/2000/svg" xmlns:xlink="http://www.w3.org/1999/xlink" x="0px" y="0px"
	 width="226.77px" height="226.77px" viewBox="0 0 226.77 226.77" enable-background="new 0 0 226.77 226.77" xml:space="preserve">
<circle fill="#F6E70C" cx="157.335" cy="72.62" r="8.25"/>
<polygon fill="#7C8489" points="113.111,73.343 119.833,65.597 119.25,63.809 120.25,59.5 115.549,54.973 106.432,67.482 
	108.606,69.389 72.988,107.693 96.619,169.806 100.899,169.806 77.611,108.595 111.614,72.029 "/>
<g>
	<path fill="#95CFC4" d="M151.402,40.015c-4.546-3.784-10.982-3.782-15.51-0.365l-10.447-8.698c-1.41-1.175-3.502-0.981-4.676,0.427
		l-12.394,14.888c-1.172,1.41-0.981,3.502,0.43,4.677l10.445,8.694c-2.541,5.072-1.375,11.402,3.174,15.191l19.688,16.388
		l28.979-34.812L151.402,40.015z"/>
</g>
<g>
	<circle fill="#1D1D1B" cx="112.578" cy="65.927" r="1.556"/>
</g>
<g>
	<path fill="#7C8489" d="M116.39,166.287c-0.268,0-0.538-0.071-0.782-0.221c-0.707-0.433-0.929-1.356-0.496-2.062l2.667-4.354
		c0.434-0.707,1.358-0.927,2.062-0.496c0.707,0.433,0.929,1.356,0.496,2.062l-2.667,4.354
		C117.387,166.032,116.894,166.287,116.39,166.287z"/>
</g>
<g>
	<path fill="#ADD9D0" d="M124.382,169.067c-0.587-0.332-1.495-0.6-2.625-0.813v-1.8c0-1.256-1.018-2.273-2.273-2.273h-6.188
		c-1.256,0-2.273,1.018-2.273,2.273v1.029c-7.333-0.094-14.667,0.322-14.089,0.289c0,0-17.669-0.395-20.978,0.773
		c-3.308,1.168-5.573,6.372-5.573,6.372c2.198-0.123,57.683,0.515,57.683,0.515S127.998,171.115,124.382,169.067z"/>
</g>
<g>
	<path fill="#1D1D1B" d="M75.715,101.434c0,0,11.093-11.893,12.924-13.406c1.245-1.029,0.906-2.045,3.993,0.739
		c1.337,1.207,2.935,2.77,2.45,3.583c-1.19,1.998-3.94,4.364-7.034,7.916c-4.529,5.199-9.083,7.169-9.083,7.169l2,5.334
		c0,0,6.978,17.975,7.447,19.07s1.053,2.35-3.552,4.123c-3.471,1.336-2.921,0.32-6.812-8.863
		c-2.287-5.396-6.667-15.914-6.667-15.914L75.715,101.434z"/>
</g>
<g>
	<circle fill="#7C8489" cx="76.969" cy="109.793" r="9.184"/>
</g>
<g>
	<path fill="#95CFC4" d="M128.066,175.432c4.3,0,9.267,0.164,11.031,3.418c1.765,3.256,1.879,10.914,1.879,10.914H55.883
		c0,0,1.33-14.401,8.062-15.04C70.502,174.103,124.775,175.432,128.066,175.432z"/>
</g>
</svg>
