<?xml version="1.0" encoding="utf-8"?>
<!-- Generator: Adobe Illustrator 16.0.0, SVG Export Plug-In . SVG Version: 6.00 Build 0)  -->
<!DOCTYPE svg PUBLIC "-//W3C//DTD SVG 1.1//EN" "http://www.w3.org/Graphics/SVG/1.1/DTD/svg11.dtd">
<svg version="1.1" id="Layer_1" xmlns="http://www.w3.org/2000/svg" xmlns:xlink="http://www.w3.org/1999/xlink" x="0px" y="0px"
	 width="226.77px" height="277.436px" viewBox="0 -10 226.77 277.436" enable-background="new 0 -10 226.77 277.436"
	 xml:space="preserve">
<g>
	<path fill="#E4133A" d="M179.78,202.418c0,0,0-96.167-32.934-109.305c-21.532-8.589-18.239,3.062-35.316-1.562
		c-31.085-8.415-42.211,26.687-42.211,26.687c-8.383,38.68-12.497,82.619-12.497,82.619s0.402,0.158,1.185,0.434l-9.57,36.26
		l12.061,3.184l9.5-35.992c12.283,2.984,32.896,6.617,60.783,6.711c6.956,0.023,12.958-0.24,18.158-0.686v41.715h12.474v-43.355
		C175.744,206.451,179.78,202.418,179.78,202.418z"/>
	<g>
		<g>
			<path fill="#FCE4DB" d="M144.24,63.751c-0.371,0-0.732,0.038-1.083,0.108c-0.213-3.21-0.941-6.429-2.245-9.532
				c-8.356,2.024-49.245,14.173-56.749,17.304c0.53,2.674,1.439,5.32,2.75,7.865c0.067,0.13,0.145,0.252,0.214,0.381
				c-1.142,1.004-1.866,2.472-1.866,4.112c0,3.026,2.453,5.48,5.479,5.48c1.204,0,2.313-0.393,3.217-1.051
				c5.558,4.786,12.701,7.362,19.993,7.237l1.999,9.735c0,0,13.638-0.44,17.399-3.966c-0.732-3.57-1.806-8.789-2.358-11.488
				c5.438-3.957,9.215-9.536,11.022-15.703c0.682,0.304,1.434,0.476,2.228,0.476c3.026,0,5.479-2.454,5.479-5.48
				S147.266,63.751,144.24,63.751z"/>
		</g>
		<g>
			<g>
				<path fill="#B71E3A" d="M53.07,38.928l1.27,8.601c0,0,1.218-0.003,2.326,0.306s1.872,0.52,2.164,0.765
					c5.137-2.916,13.77-7.623,15.827-7.501c-3.406-0.424-12.749,0.888-12.749,0.888l-3.868-1.022L53.07,38.928z"/>
			</g>
			<g>
				<path fill="#D11243" d="M80.25,11.11c0,0-6.596,2.842-16.395,11.665C57.057,28.896,53.07,38.928,53.07,38.928
					s5.941,4.654,9.816,3.908c3.872-0.747,6.412-1.414,11.771-1.738c5.36-0.326,9.188-1.41,8.543,1.918
					c2.083-3.272,1.982-5.941,1.982-5.941c2.489-7.713,3.142-9.156-0.266-16.482C82.439,15.267,80.25,11.11,80.25,11.11z"/>
			</g>
			<g>
				<path fill="#E4133A" d="M82.283,46.719c0,0,3.18-12.854,4.048-16.27c0.864-3.416-6.081-19.34-6.081-19.34
					s31.495-4.391,39.876,4.638c8.38,9.03,13.662,13.136,14.658,16.192c0.997,3.055,1.654,11.205,1.654,11.205
					s-6.3-1.854-11.814-0.566c-8.792,2.053-12.041,3.255-17.314,4.209c-3.563,0.645-8.547,3.173-11.438,4.047
					c-5.04,1.527-13.256,7.387-13.256,7.387L82.283,46.719z"/>
			</g>
			<g>
				<circle fill="#DDE6EB" cx="55.13" cy="58.051" r="10.775"/>
			</g>
			<g>
				<path fill="#DDE6EB" d="M82.615,58.221c0,0,7.899-8.252,18.175-11.03c10.273-2.78,27.666-6.478,27.666-6.478l7.982,2.432
					c0,0,6.837,4.84,7.656,9.203c0.817,4.364-1.831,6.806-9.076,9.798c-7.246,2.99-27.748,6.826-32.527,7.953
					c-21.641,5.103-17.564,3.782-21.074,4.301C78.029,74.9,72.509,65.865,82.615,58.221z"/>
			</g>
		</g>
		<g>
			<path fill="#1D1D1B" d="M148.25,231.481h17.845v10c0,0,3.042,2.666,4.375,3c1.333,0.332,12.334,0.334,14,2s0,7.666,0,7.666
				h-36.22V231.481z"/>
		</g>
		<g>
			<path fill="#1D1D1B" d="M71.049,221.799l-17.254-4.555l-2.552,9.67c0,0-3.622,1.803-4.996,1.783
				c-1.373-0.018-12.011-2.824-14.047-1.639c-2.035,1.186-1.956,7.412-1.956,7.412l35.021,9.244L71.049,221.799z"/>
		</g>
		<g>
			<path fill="#161418" d="M64.819,163.592c0,0,2.846,24.514,7.01,28.314s8.208,4.598,12.024,1.973
				c3.813-2.625,2.518-13.182,2.518-13.182l-0.788-2.582c0,0,4.853,4.125,6.964,5.119c2.11,0.994,4.867,0.725,3.652-3.066
				c-1.213-3.797-18.734-26.181-18.734-26.181L64.819,163.592z"/>
		</g>
		<g>
			<path fill="#1D1D1B" d="M172.504,159.405c0,0,4.558,24.254,1.71,29.119s-6.473,6.828-10.896,5.455
				c-4.422-1.377-6.318-11.842-6.318-11.842l-0.014-2.699c0,0-3.408,5.381-5.129,6.955c-1.722,1.576-4.433,2.139-4.4-1.844
				c0.031-3.986,10.121-30.562,10.121-30.562L172.504,159.405z"/>
		</g>
		<g>
			<circle fill="#575756" cx="100.823" cy="80.561" r="2.015"/>
		</g>
		<g>
			<circle fill="#575756" cx="132.555" cy="72.698" r="2.015"/>
		</g>
		<g>
			<path fill="#F6C0D9" d="M121.333,82.753c0.391,1.467-0.483,2.974-1.951,3.363l0,0c-1.468,0.391-2.974-0.483-3.363-1.951
				l-1.541-5.799c-0.391-1.467,0.483-2.974,1.951-3.363l0,0c1.468-0.391,2.974,0.483,3.364,1.951L121.333,82.753z"/>
		</g>
		<g>
			<path fill="#FFFFFF" d="M145.938,100.104c1.303-1.587,2.085-3.617,2.085-5.831c0-5.082-4.12-9.202-9.202-9.202
				c-0.034,0-0.066,0.005-0.1,0.005c2.458-3.666-0.26-7.869-0.26-7.869s-2.604,2.605-4.928,3.896
				c-2.322,1.289-5.797-2.364-9.504-2.955c-3.358-0.534-4.79,1.324-6.164,2.076c-1.502-0.336-3.406-1.422-6.245,0.092
				c-3.302,1.76-5.387,6.331-7.994,5.87c-2.606-0.46-5.908-2.068-5.908-2.068s-0.592,2.412,0.289,4.765
				c-2.951,1.533-4.971,4.611-4.971,8.166c0,4.068,2.644,7.514,6.304,8.729c-0.384,1.014-0.604,2.109-0.604,3.258
				c0,3.258,1.698,6.114,4.253,7.749c1.39,1.394,3.227,2.334,5.274,2.609c-0.205,0.764-0.325,1.562-0.325,2.392
				c0,5.082,4.12,9.202,9.202,9.202c1.562,0,3.033-0.393,4.322-1.08c1.686,1.892,4.133,3.09,6.865,3.09
				c5.082,0,9.202-4.12,9.202-9.202c0-0.044-0.006-0.087-0.007-0.132c4.372-0.713,7.712-4.497,7.712-9.07
				c0-0.915-0.138-1.795-0.386-2.629c1.706-1.67,2.768-3.997,2.768-6.573C147.616,103.422,146.992,101.601,145.938,100.104z
				 M117.245,86.993c0.605-1.484,0.939-3.208,1.119-4.538c0.833,1.641,2.164,3.864,3.754,5.049c0.776,0.579,1.534,1.175,2.399,1.648
				c-0.291,0.174-0.575,0.357-0.844,0.561C122.03,88.054,119.758,87.021,117.245,86.993z"/>
		</g>
		<g>
			<g>
				<path fill="#575756" d="M110.13,81.68l-0.75-0.661c0.068-0.078,6.953-7.703,16.914-2.336l-0.475,0.88
					C116.555,74.573,110.194,81.61,110.13,81.68z"/>
			</g>
			<g>
				<circle fill="#8BD2F5" cx="106.35" cy="83.137" r="5.525"/>
			</g>
			<g>
				<circle fill="#8BD2F5" cx="130.541" cy="78.212" r="5.776"/>
			</g>
		</g>
		<g>
			<circle fill="#1D1D1B" cx="123.83" cy="141.334" r="2.667"/>
		</g>
		<g>
			<circle fill="#1D1D1B" cx="123.83" cy="159.51" r="2.667"/>
		</g>
		<g>
			<circle fill="#1D1D1B" cx="123.743" cy="179.166" r="2.667"/>
		</g>
		<g>
			<circle fill="#1D1D1B" cx="123.83" cy="198.039" r="2.667"/>
		</g>
	</g>
</g>
</svg>
