<?xml version="1.0" encoding="utf-8"?>
<!-- Generator: Adobe Illustrator 16.0.0, SVG Export Plug-In . SVG Version: 6.00 Build 0)  -->
<!DOCTYPE svg PUBLIC "-//W3C//DTD SVG 1.1//EN" "http://www.w3.org/Graphics/SVG/1.1/DTD/svg11.dtd">
<svg version="1.1" id="Layer_1" xmlns="http://www.w3.org/2000/svg" xmlns:xlink="http://www.w3.org/1999/xlink" x="0px" y="0px"
	 width="226.77px" height="226.77px" viewBox="0 0 226.77 226.77" enable-background="new 0 0 226.77 226.77" xml:space="preserve">
<g>
	<path fill="#81BB45" d="M192.331,92.961c-4.769-10.586-4.769-19.236-22.269-21.911s-21.141-0.683-27.666,1.949
		c-4.833,1.949-13.834-1.949-13.834-1.949c-2.587-1.279-5.155-2.477-7.755-3.516l4.515-4.223l15.223,2.817
		c0.033,0.201,0.062,0.401,0.124,0.601c0.719,2.29,3.16,3.566,5.451,2.847c2.292-0.719,3.566-3.161,2.847-5.451
		c-0.719-2.291-3.16-3.566-5.451-2.847c-0.211,0.066-0.403,0.162-0.597,0.256c-0.15-0.06-0.308-0.107-0.473-0.138l-8.292-1.535
		l4.72-1.481c0.004-0.001,0.007-0.003,0.011-0.004c1.085,0.829,2.539,1.142,3.94,0.702c2.291-0.72,3.565-3.162,2.846-5.452
		c-0.719-2.291-3.16-3.565-5.451-2.847c-1.401,0.44-2.416,1.528-2.833,2.828c-0.004,0.001-0.007,0.001-0.011,0.002l-5.359,1.682
		l5.164-6.968c0.604,0.078,1.232,0.041,1.853-0.154c2.291-0.719,3.565-3.161,2.846-5.451c-0.719-2.291-3.16-3.565-5.451-2.847
		c-2.169,0.681-3.404,2.905-2.922,5.084c-0.102,0.098-0.201,0.199-0.288,0.316l-4.601,6.208l0.818-9.398
		c1.084-1.109,1.554-2.75,1.058-4.332c-0.719-2.291-3.16-3.566-5.451-2.847s-3.566,3.16-2.847,5.451
		c0.361,1.15,1.157,2.043,2.15,2.557l-1.419,16.277l-8.496,6.183c-8.967-2.442-18.728-2.374-31.117,3.17
		c-0.175-1.478-1.087-2.83-2.547-3.475c-2.197-0.968-4.766,0.028-5.733,2.226c-0.089,0.202-0.145,0.409-0.201,0.616
		c-0.145,0.074-0.285,0.161-0.417,0.266L67.8,73.397l1.995-4.524c0.001-0.003,0.002-0.007,0.003-0.011
		c1.338-0.271,2.531-1.158,3.124-2.501c0.97-2.197-0.028-4.764-2.225-5.732s-4.765,0.027-5.733,2.223
		c-0.592,1.345-0.443,2.825,0.261,3.995c-0.001,0.003-0.004,0.006-0.005,0.01l-2.268,5.142L61.3,64.373
		c0.753-0.446,1.384-1.114,1.764-1.976c0.969-2.199-0.027-4.767-2.225-5.735s-4.765,0.027-5.732,2.226
		c-0.773,1.752-0.281,3.727,1.058,4.952c-0.01,0.213-0.003,0.43,0.044,0.649l1.636,7.552l-6.529-6.809
		c-0.119-1.546-1.043-2.982-2.561-3.651c-2.198-0.969-4.766,0.027-5.734,2.225c-0.969,2.196,0.026,4.765,2.225,5.732
		c1.103,0.486,2.299,0.476,3.339,0.069l11.31,11.793l-0.163,1.792c-4.584,5.591-7.221,13.476-8.168,26.726
		c-2,27.956,14,71.456,16,78.956s1.5,19-5.5,17.5s-11.846-4-10.673-5.5s4.173-6,6.173-4s11,3,4.5-3.5s-18.927-2.25-15,8
		c5.667,14.797,30,16.5,29-5s-22.5-53-14.5-73.5c1.781-4.564,3.836-8.17,6.052-11.014l14.072,11.688l-0.889,15.457
		c-0.194,0.059-0.39,0.111-0.58,0.199c-2.183,1-3.142,3.582-2.142,5.764c1.001,2.184,3.583,3.143,5.766,2.143
		c2.183-1.002,3.142-3.582,2.141-5.766c-0.092-0.201-0.21-0.379-0.327-0.559c0.041-0.156,0.067-0.32,0.077-0.488l0.484-8.416
		l2.06,4.494c0.001,0.004,0.004,0.006,0.006,0.01c-0.686,1.18-0.814,2.662-0.202,3.998c1,2.184,3.582,3.141,5.765,2.141
		s3.142-3.582,2.142-5.764c-0.612-1.336-1.818-2.207-3.161-2.457c-0.001-0.004-0.002-0.008-0.003-0.01l-2.341-5.109l6.799,3.824
		c-0.166,0.859-0.084,1.775,0.308,2.631c1.001,2.184,3.583,3.143,5.766,2.143s3.142-3.582,2.141-5.766
		c-0.798-1.742-2.602-2.686-4.407-2.494c-0.153-0.15-0.319-0.289-0.515-0.398l-6.735-3.787l9.427-0.365
		c1.236,0.936,2.923,1.195,4.43,0.506c2.184-1,3.143-3.582,2.142-5.766c-1-2.183-3.582-3.142-5.765-2.141
		c-1.096,0.502-1.882,1.403-2.268,2.453l-16.325,0.633l-12.938-13.758c6.65-5.139,13.95-5.365,19.523-4.661
		c6.776,0.855,22.052-4.504,30.683-7.455l10.161,21.149l-7.246,13.678c-0.202-0.027-0.402-0.061-0.611-0.061
		c-2.4,0-4.349,1.947-4.349,4.35c0,2.4,1.948,4.348,4.349,4.348c2.401,0,4.349-1.947,4.349-4.348c0-0.232-0.033-0.453-0.068-0.676
		c0.098-0.121,0.2-0.238,0.276-0.381l3.947-7.449v4.945c0,0.004,0.001,0.006,0.001,0.01c-1.115,0.787-1.85,2.08-1.85,3.551
		c0,2.4,1.948,4.348,4.349,4.348c2.401,0,4.349-1.947,4.349-4.348c0-1.471-0.733-2.764-1.85-3.551c0-0.004,0.001-0.008,0.001-0.01
		v-5.621l4.195,5.77c-0.45,0.686-0.717,1.502-0.717,2.383c0,2.4,1.948,4.348,4.349,4.348c2.401,0,4.349-1.947,4.349-4.348
		c0-1.957-1.3-3.592-3.075-4.139l-4.446-6.113l8.723,3.598c0.733,1.365,2.158,2.305,3.816,2.305c2.401,0,4.349-1.947,4.349-4.348
		c0-2.402-1.947-4.35-4.349-4.35c-1.205,0-2.296,0.492-3.084,1.285l-15.104-6.228l-7.521-22.323
		c4.146-1.414,11.525-5.684,11.525-5.684s0.512,10.78,8,15.364c3.973,2.432,26,5.636,32.5,2.136S197.1,103.547,192.331,92.961z"/>
	<g>
		<path fill="#009E3C" d="M96.382,81.171c7.411-1.751,14.93,5.172,12.161-2.164s-4.581-7.18-9.197-6.008s-11.062,2.854-11.089,4.263
			S90.034,82.671,96.382,81.171z"/>
	</g>
	<g>
		<path fill="#009E3C" d="M72.402,85.073c1.027,2.785,3.328-0.099,6.328,0s1.848-0.081,3.299-2.616s4.299-5.777,0-5.031
			S71.073,81.474,72.402,85.073z"/>
	</g>
	<g>
		<path fill="#009E3C" d="M89.48,71.258c0.567,2.203,4.93,1.837,7.715,0s6.897-5.173,2.151-5.831S88.73,68.345,89.48,71.258z"/>
	</g>
	<g>
		<path fill="#009E3C" d="M63.73,90.757c1.249,0.589,5.5-7.135,2.75-7.11S60.73,89.343,63.73,90.757z"/>
	</g>
	<g>
		<path fill="#009E3C" d="M121.994,80.921c3.164,1.985,7.413,2.5,8.699,0s-2.214-4.068-6.714-3.659S118.009,78.421,121.994,80.921z"
			/>
	</g>
	<g>
		<g>
			<g>
				<circle fill="#F6C0D9" cx="155.746" cy="94.497" r="5.458"/>
			</g>
		</g>
	</g>
	<g>
		<path fill="#FFFFFF" d="M182.095,84.797c0,5.428-4.398,9.827-9.826,9.827c-5.427,0-9.825-4.399-9.825-9.827
			c0-5.424,4.398-9.824,9.825-9.824C177.697,74.973,182.095,79.373,182.095,84.797z"/>
	</g>
	<g>
		<circle fill="#575756" cx="178.674" cy="84.798" r="2.015"/>
	</g>
</g>
</svg>
