<?xml version="1.0" encoding="utf-8"?>
<!-- Generator: Adobe Illustrator 16.0.0, SVG Export Plug-In . SVG Version: 6.00 Build 0)  -->
<!DOCTYPE svg PUBLIC "-//W3C//DTD SVG 1.1//EN" "http://www.w3.org/Graphics/SVG/1.1/DTD/svg11.dtd">
<svg version="1.1" id="Layer_1" xmlns="http://www.w3.org/2000/svg" xmlns:xlink="http://www.w3.org/1999/xlink" x="0px" y="0px"
	 width="226.77px" height="226.77px" viewBox="0 0 226.77 226.77" enable-background="new 0 0 226.77 226.77" xml:space="preserve">
<g>
	<g>
		<path fill="#C81433" d="M144.176,107.373c-20.134-37.783-41.712-52.664-65.965-45.496c-8.08,2.388-12.187,13.662-14.208,22.699
			c-2.371,10.597-2.438,20.6-2.439,20.699l-9-0.036c0.002-0.447,0.074-11.089,2.656-22.628
			c3.708-16.572,10.585-26.452,20.441-29.364c28.589-8.449,54.313,8.337,76.459,49.895L144.176,107.373z"/>
	</g>
	<g>
		<path fill="#1D3765" d="M32.291,102.343h160.085c0,0-10.503,66.34-12.106,71.638s-2.854,14.557-22.604,14.552
			c-31.699-0.008-94.154-0.062-94.154-0.062s-18.846,0.159-22.985-26.579C35.803,131.381,32.291,102.343,32.291,102.343z"/>
	</g>
	<g>
		<path fill="#B1B1B1" d="M159.778,128.481c-5.062,0-9.18-4.118-9.18-9.18s4.118-9.18,9.18-9.18s9.18,4.118,9.18,9.18
			S164.839,128.481,159.778,128.481z M159.778,113.121c-3.407,0-6.18,2.771-6.18,6.18c0,3.407,2.772,6.18,6.18,6.18
			s6.18-2.772,6.18-6.18C165.957,115.893,163.185,113.121,159.778,113.121z"/>
	</g>
	<g>
		<path fill="#B1B1B1" d="M63.117,128.481c-5.062,0-9.18-4.118-9.18-9.18s4.118-9.18,9.18-9.18s9.18,4.118,9.18,9.18
			S68.179,128.481,63.117,128.481z M63.117,113.121c-3.408,0-6.18,2.771-6.18,6.18c0,3.407,2.772,6.18,6.18,6.18
			s6.18-2.772,6.18-6.18C69.297,115.893,66.525,113.121,63.117,113.121z"/>
	</g>
	<g>
		<path fill="#E4133A" d="M63.123,122.711c-0.177,0-0.357-0.01-0.538-0.031c-2.467-0.294-4.229-2.53-3.937-4.998
			c0.083-0.693,2.094-17.182,8.995-34.377c9.511-23.702,23.807-37.092,41.34-38.723c9.835-0.917,18.812,1.944,26.677,8.496
			c9.022,7.517,16.387,19.686,21.89,36.169c4.329,12.971,6.037,24.336,6.33,27.621c0.221,2.476-1.607,4.661-4.083,4.882
			c-2.477,0.21-4.661-1.607-4.882-4.083c-0.703-7.895-7.366-42.972-25.016-57.674c-6.044-5.035-12.616-7.148-20.082-6.45
			c-34.424,3.203-42.158,64.581-42.232,65.201C67.312,121.031,65.37,122.711,63.123,122.711z"/>
	</g>
</g>
</svg>
