<?xml version="1.0" encoding="utf-8"?>
<!-- Generator: Adobe Illustrator 16.0.0, SVG Export Plug-In . SVG Version: 6.00 Build 0)  -->
<!DOCTYPE svg PUBLIC "-//W3C//DTD SVG 1.1//EN" "http://www.w3.org/Graphics/SVG/1.1/DTD/svg11.dtd">
<svg version="1.1" id="Layer_1" xmlns="http://www.w3.org/2000/svg" xmlns:xlink="http://www.w3.org/1999/xlink" x="0px" y="0px"
	 width="226.77px" height="226.77px" viewBox="0 0 226.77 226.77" enable-background="new 0 0 226.77 226.77" xml:space="preserve">
<g>
	<g>
		<path fill="#80ACC3" d="M63.513,87.185h130.419c0,0,17.283,3.244,19.283,13.622s0,64.281,0,64.281s3.291,19.515-15,20.302
			c-22.281,0.959-138.109,0-138.109,0s-12.906-3.398-14.898-20.302s-1.268-47.106-1.268-47.106S38.656,87.185,63.513,87.185z"/>
	</g>
	<polygon fill="#C5D6E0" points="129.906,49.317 128.936,47.568 73.282,78.435 69.175,78.435 65.938,87.185 79.548,87.185 
		76.497,78.939 	"/>
	<g>
		<circle fill="#657780" cx="127.004" cy="49.685" r="5"/>
	</g>
	<g>
		<circle fill="#C5D6E0" cx="172.876" cy="114.101" r="6.333"/>
	</g>
	<g>
		<circle fill="#C5D6E0" cx="189.39" cy="114.101" r="6.333"/>
	</g>
	<g>
		<circle fill="#C5D6E0" cx="156.052" cy="114.101" r="6.333"/>
	</g>
	<g>
		<circle fill="#C5D6E0" cx="98.397" cy="141.423" r="35.048"/>
	</g>
	<g>
		<path fill="#C5D6E0" d="M199.215,165.088c0,3.693-2.994,6.688-6.688,6.688h-38.553c-3.693,0-6.688-2.994-6.688-6.688l0,0
			c0-3.693,2.994-6.688,6.688-6.688h38.553C196.221,158.401,199.215,161.395,199.215,165.088L199.215,165.088z"/>
	</g>
	<g>
		<g>
			<path fill="#54566D" d="M43.583,146.582c-0.555,0-1.089-0.31-1.349-0.843c-4.156-8.519-4.909-15.888-2.24-21.901
				c3.575-8.053,11.942-10.551,12.296-10.654c0.797-0.233,1.627,0.229,1.857,1.025c0.23,0.795-0.228,1.625-1.021,1.856
				c-0.095,0.028-7.419,2.257-10.403,9.02c-2.278,5.161-1.535,11.668,2.207,19.34c0.363,0.744,0.054,1.643-0.69,2.006
				C44.028,146.533,43.804,146.582,43.583,146.582z"/>
		</g>
		<g>
			<path fill="#54566D" d="M31.257,160.634c-0.555,0-1.089-0.31-1.349-0.843c-7.048-14.447-8.435-27.637-4.119-39.202
				c6.419-17.205,23.019-24.442,23.722-24.741c0.763-0.327,1.642,0.03,1.967,0.791c0.325,0.761-0.029,1.643-0.79,1.968
				c-0.161,0.069-16.149,7.069-22.1,23.061c-4.002,10.757-2.651,23.142,4.016,36.809c0.363,0.744,0.054,1.643-0.69,2.005
				C31.702,160.585,31.478,160.634,31.257,160.634z"/>
		</g>
		<g>
			<path fill="#54566D" d="M53.112,138.776c-0.438,0-0.871-0.191-1.166-0.56c-0.103-0.128-2.506-3.177-1.63-6.809
				c0.635-2.637,2.767-4.785,6.334-6.385c0.755-0.339,1.643,0,1.982,0.756c0.339,0.756,0.001,1.644-0.755,1.982
				c-2.665,1.194-4.226,2.65-4.64,4.328c-0.541,2.189,1.038,4.235,1.054,4.256c0.509,0.649,0.401,1.592-0.245,2.104
				C53.768,138.669,53.439,138.776,53.112,138.776z"/>
		</g>
	</g>
	<g>
		<path fill="#54566D" d="M21.716,171.663c-0.514,0-1.014-0.264-1.293-0.739c-0.494-0.838-12.061-20.745-10.032-39.982
			c2.167-20.559,11.346-32.924,18.664-39.677c7.964-7.35,15.36-9.783,15.671-9.883c0.785-0.251,1.634,0.18,1.887,0.969
			c0.253,0.788-0.18,1.632-0.967,1.886l0,0c-0.283,0.092-28.327,9.614-32.271,47.019c-1.923,18.239,9.519,37.949,9.634,38.146
			c0.419,0.714,0.182,1.634-0.532,2.054C22.237,171.597,21.975,171.663,21.716,171.663z"/>
	</g>
	<g>
		<g>
			<polygon fill="none" points="99.059,119.895 89.043,114.984 79.641,119.595 89.656,124.505 			"/>
		</g>
		<g>
			<path fill="none" d="M66.302,155.505c0.28,0.639,0.581,1.265,0.897,1.883l1.471-0.722L66.302,155.505z"/>
		</g>
		<g>
			<polygon fill="none" points="103.17,151.8 112.215,156.235 121.617,151.624 112.573,147.19 			"/>
		</g>
		<g>
			<path fill="none" d="M78.596,140.865l-10.016-4.911l-5.098,2.499c-0.082,0.98-0.134,1.969-0.134,2.971
				c0,0.402,0.017,0.801,0.03,1.201l5.814,2.851L78.596,140.865z"/>
		</g>
		<g>
			<path fill="none" d="M79.209,151.499l-10.016-4.91l-5.004,2.453c0.386,1.742,0.901,3.434,1.536,5.066l4.081,2.001L79.209,151.499
				z"/>
		</g>
		<g>
			<polygon fill="none" points="111.078,156.792 102.034,152.357 92.632,156.967 101.676,161.402 			"/>
		</g>
		<g>
			<polygon fill="none" points="113.708,146.633 122.753,151.068 132.156,146.457 123.111,142.023 			"/>
		</g>
		<g>
			<path fill="none" d="M63.436,143.765c0.096,1.448,0.277,2.871,0.544,4.266l4.078-1.999L63.436,143.765z"/>
		</g>
		<g>
			<path fill="none" d="M64.19,133.801c-0.253,1.14-0.45,2.301-0.589,3.48l3.844-1.885L64.19,133.801z"/>
		</g>
		<g>
			<polygon fill="none" points="101.944,130.531 111.959,135.441 121.362,130.83 111.346,125.919 			"/>
		</g>
		<g>
			<path fill="none" d="M77.369,119.595l-4.479-2.196c-1.924,2.042-3.604,4.312-4.996,6.771l0.072,0.035L77.369,119.595z"/>
		</g>
		<g>
			<polygon fill="none" points="123.111,140.908 132.513,136.298 122.497,131.388 113.095,135.997 			"/>
		</g>
		<g>
			<path fill="none" d="M77.983,130.23l-10.016-4.911l-0.93,0.456c-1.109,2.219-1.995,4.568-2.616,7.025l4.159,2.039L77.983,130.23z
				"/>
		</g>
		<g>
			<polygon fill="none" points="100.196,120.452 90.793,125.062 100.808,129.973 110.21,125.363 			"/>
		</g>
		<g>
			<polygon fill="none" points="121.975,141.466 111.959,136.555 102.557,141.165 112.573,146.075 			"/>
		</g>
		<g>
			<polygon fill="none" points="92.019,146.332 102.034,151.243 111.437,146.633 101.421,141.722 			"/>
		</g>
		<g>
			<polygon fill="none" points="91.496,156.41 100.899,151.8 90.883,146.889 81.481,151.499 			"/>
		</g>
		<g>
			<polygon fill="none" points="91.406,135.698 101.421,140.609 110.823,135.997 100.808,131.087 			"/>
		</g>
		<g>
			<path fill="none" d="M91.139,167.683l-9.373,4.596c3.53,1.906,7.426,3.222,11.553,3.82l7.492-3.673L91.139,167.683z"/>
		</g>
		<g>
			<polygon fill="none" points="102.813,161.959 112.485,166.701 121.887,162.091 112.215,157.349 			"/>
		</g>
		<g>
			<path fill="none" d="M69.807,157.224l-2.144,1.051c1.448,2.637,3.231,5.062,5.284,7.23l6.875-3.371L69.807,157.224z"/>
		</g>
		<g>
			<path fill="none" d="M80.957,162.691l-7.283,3.572c2.101,2.09,4.469,3.91,7.042,5.416l9.286-4.553L80.957,162.691z"/>
		</g>
		<g>
			<polygon fill="none" points="90.883,145.775 100.285,141.165 90.27,136.254 80.867,140.865 			"/>
		</g>
		<g>
			<polygon fill="none" points="80.254,130.23 90.27,135.14 99.672,130.531 89.656,125.619 			"/>
		</g>
		<g>
			<path fill="none" d="M87.908,114.427l-6.943-3.404c-2.693,1.548-5.168,3.435-7.35,5.617l4.891,2.397L87.908,114.427z"/>
		</g>
		<g>
			<polygon fill="none" points="111.346,124.806 120.748,120.196 110.733,115.284 101.33,119.895 			"/>
		</g>
		<g>
			<path fill="none" d="M113.351,156.792l9.672,4.742l5.896-2.891c0.506-0.895,0.972-1.812,1.398-2.754l-7.563-3.708
				L113.351,156.792z"/>
		</g>
		<g>
			<path fill="none" d="M130.725,154.976c1.037-2.469,1.793-5.083,2.242-7.802l-9.078,4.45L130.725,154.976z"/>
		</g>
		<g>
			<polygon fill="none" points="91.496,157.525 82.094,162.134 91.139,166.57 100.541,161.959 			"/>
		</g>
		<g>
			<polygon fill="none" points="80.345,152.056 70.943,156.666 80.957,161.577 90.36,156.967 			"/>
		</g>
		<g>
			<path fill="none" d="M133.158,145.835c0.182-1.446,0.286-2.916,0.286-4.412c0-1.469-0.101-2.912-0.276-4.333l-8.922,4.376
				L133.158,145.835z"/>
		</g>
		<g>
			<path fill="none" d="M126.006,162.997c0.697-0.892,1.352-1.816,1.962-2.774l-3.81,1.868L126.006,162.997z"/>
		</g>
		<g>
			<path fill="none" d="M103.082,172.426l5.291,2.595c3.447-1.022,6.676-2.554,9.591-4.519l-5.479-2.687L103.082,172.426z"/>
		</g>
		<g>
			<path fill="none" d="M101.947,172.983l-6.796,3.332c1.069,0.099,2.15,0.155,3.245,0.155c2.94,0,5.794-0.367,8.523-1.049
				L101.947,172.983z"/>
		</g>
		<g>
			<path fill="none" d="M132.915,135.382c-0.481-2.771-1.285-5.431-2.377-7.938l-6.905,3.386L132.915,135.382z"/>
		</g>
		<g>
			<path fill="none" d="M113.621,167.259l5.271,2.585c2.404-1.737,4.584-3.767,6.477-6.046l-2.347-1.15L113.621,167.259z"/>
		</g>
		<g>
			<polygon fill="none" points="111.349,167.259 101.676,162.516 92.275,167.126 101.947,171.868 			"/>
		</g>
		<g>
			<path fill="none" d="M98.446,109.26l-5.127-2.514c-4.025,0.584-7.828,1.854-11.289,3.685l7.014,3.439L98.446,109.26z"/>
		</g>
		<g>
			<path fill="none" d="M112.483,125.363l10.015,4.911l7.629-3.74c-0.374-0.795-0.778-1.571-1.208-2.332l-7.033-3.448
				L112.483,125.363z"/>
		</g>
		<g>
			<polygon fill="none" points="88.521,125.062 78.506,120.152 69.104,124.761 79.118,129.672 			"/>
		</g>
		<g>
			<path fill="none" d="M103.553,106.756c-1.684-0.248-3.404-0.381-5.157-0.381c-1.095,0-2.176,0.058-3.245,0.155l4.432,2.173
				L103.553,106.756z"/>
		</g>
		<g>
			<polygon fill="none" points="109.598,114.728 99.582,109.818 90.18,114.427 100.196,119.338 			"/>
		</g>
		<g>
			<path fill="none" d="M121.885,119.639l2.806-1.376c-2.119-2.403-4.562-4.512-7.261-6.262l-5.561,2.727L121.885,119.639z"/>
		</g>
		<g>
			<path fill="none" d="M110.733,114.171l5.705-2.798c-3.402-2.047-7.18-3.53-11.206-4.327l-4.514,2.214L110.733,114.171z"/>
		</g>
		<g>
			<polygon fill="none" points="89.747,146.332 79.732,141.421 70.329,146.031 80.345,150.943 			"/>
		</g>
		<g>
			<path fill="none" d="M127.967,122.621c-0.794-1.247-1.658-2.444-2.6-3.577l-2.347,1.151L127.967,122.621z"/>
		</g>
		<g>
			<polygon fill="none" points="89.134,135.698 79.118,130.786 69.716,135.397 79.732,140.308 			"/>
		</g>
		<g>
			<path fill="#657780" d="M106.919,175.421c0.489-0.123,0.974-0.258,1.454-0.4l-5.291-2.595l9.402-4.61l5.479,2.687
				c0.315-0.212,0.621-0.437,0.929-0.658l-5.271-2.585l9.401-4.611l2.347,1.15c0.218-0.262,0.426-0.532,0.637-0.801l-1.848-0.906
				l3.81-1.868c0.33-0.518,0.647-1.044,0.95-1.579l-5.896,2.891l-9.672-4.742l9.402-4.61l7.563,3.708
				c0.139-0.303,0.279-0.605,0.408-0.914l-6.836-3.352l9.078-4.45c0.073-0.443,0.135-0.89,0.191-1.339l-8.912-4.369l8.922-4.376
				c-0.07-0.573-0.155-1.144-0.253-1.708l-9.282-4.552l6.905-3.386c-0.134-0.306-0.271-0.609-0.412-0.911l-7.629,3.74l-10.015-4.911
				l9.402-4.609l7.033,3.448c-0.304-0.536-0.621-1.062-0.951-1.58l-4.946-2.426l2.347-1.151c-0.221-0.265-0.449-0.522-0.677-0.781
				l-2.806,1.376l-10.016-4.911l5.561-2.727c-0.328-0.213-0.656-0.426-0.992-0.628l-5.705,2.798l-10.015-4.911l4.514-2.214
				c-0.555-0.109-1.114-0.207-1.679-0.29l-3.971,1.947l-4.432-2.173c-0.615,0.057-1.227,0.127-1.832,0.216l5.127,2.514l-9.402,4.61
				l-7.014-3.439c-0.359,0.191-0.713,0.39-1.064,0.592l6.943,3.404l-9.402,4.61l-4.891-2.397c-0.248,0.247-0.484,0.504-0.725,0.759
				l4.479,2.196l-9.402,4.609l-0.072-0.035c-0.299,0.526-0.586,1.062-0.857,1.605l0.93-0.456l10.016,4.911l-9.402,4.609
				l-4.159-2.039c-0.084,0.331-0.157,0.666-0.231,1.001l3.255,1.596l-3.844,1.885c-0.046,0.389-0.085,0.778-0.118,1.171l5.098-2.499
				l10.016,4.911l-9.402,4.61l-5.814-2.851c0.013,0.382,0.031,0.762,0.057,1.141l4.622,2.267l-4.078,1.999
				c0.064,0.34,0.136,0.676,0.21,1.012l5.004-2.453l10.016,4.91l-9.402,4.61l-4.081-2.001c0.183,0.471,0.374,0.937,0.576,1.396
				l2.368,1.161l-1.471,0.722c0.152,0.297,0.303,0.595,0.464,0.887l2.144-1.051l10.016,4.91l-6.875,3.371
				c0.24,0.254,0.479,0.51,0.727,0.758l7.283-3.572l9.045,4.436l-9.286,4.553c0.348,0.204,0.694,0.408,1.05,0.6l9.373-4.596
				l9.672,4.743l-7.492,3.673c0.606,0.088,1.217,0.159,1.832,0.216l6.796-3.332L106.919,175.421z M121.887,162.091l-9.402,4.61
				l-9.672-4.742l9.402-4.61L121.887,162.091z M102.557,141.165l9.402-4.61l10.016,4.911l-9.402,4.609L102.557,141.165z
				 M111.437,146.633l-9.402,4.61l-10.016-4.911l9.402-4.61L111.437,146.633z M101.421,140.609l-10.016-4.911l9.402-4.61
				l10.016,4.91L101.421,140.609z M90.793,125.062l9.402-4.609l10.015,4.91l-9.402,4.61L90.793,125.062z M99.672,130.531
				l-9.402,4.609l-10.016-4.91l9.402-4.61L99.672,130.531z M100.285,141.165l-9.402,4.609l-10.016-4.91l9.402-4.61L100.285,141.165z
				 M100.899,151.8l-9.402,4.61l-10.016-4.911l9.402-4.61L100.899,151.8z M102.034,152.357l9.044,4.436l-9.402,4.609l-9.044-4.435
				L102.034,152.357z M112.215,156.235l-9.045-4.435l9.402-4.61l9.045,4.435L112.215,156.235z M132.156,146.457l-9.402,4.61
				l-9.045-4.435l9.402-4.61L132.156,146.457z M132.513,136.298l-9.402,4.61l-10.016-4.911l9.402-4.609L132.513,136.298z
				 M121.362,130.83l-9.402,4.61l-10.016-4.91l9.402-4.611L121.362,130.83z M120.748,120.196l-9.402,4.61l-10.016-4.911l9.402-4.61
				L120.748,120.196z M99.582,109.818l10.016,4.91l-9.402,4.61l-10.016-4.911L99.582,109.818z M89.043,114.984l10.016,4.911
				l-9.402,4.61l-10.016-4.91L89.043,114.984z M69.104,124.761l9.402-4.609l10.015,4.91l-9.402,4.61L69.104,124.761z
				 M69.716,135.397l9.402-4.61l10.016,4.911l-9.402,4.61L69.716,135.397z M70.329,146.031l9.402-4.61l10.016,4.911l-9.402,4.61
				L70.329,146.031z M70.943,156.666l9.402-4.61l10.015,4.911l-9.402,4.61L70.943,156.666z M82.094,162.134l9.402-4.609l9.045,4.435
				l-9.402,4.61L82.094,162.134z M92.275,167.126l9.401-4.61l9.673,4.743l-9.402,4.609L92.275,167.126z"/>
		</g>
	</g>
</g>
</svg>
