<?xml version="1.0" encoding="utf-8"?>
<!-- Generator: Adobe Illustrator 16.0.0, SVG Export Plug-In . SVG Version: 6.00 Build 0)  -->
<!DOCTYPE svg PUBLIC "-//W3C//DTD SVG 1.1//EN" "http://www.w3.org/Graphics/SVG/1.1/DTD/svg11.dtd">
<svg version="1.1" id="Layer_1" xmlns="http://www.w3.org/2000/svg" xmlns:xlink="http://www.w3.org/1999/xlink" x="0px" y="0px"
	 width="226.77px" height="226.77px" viewBox="0 0 226.77 226.77" enable-background="new 0 0 226.77 226.77" xml:space="preserve">
<g>
	<g>
		<path fill="#54566D" d="M73.998,32.41c-0.459,9.868-0.104,17.826,0.279,22.809c-3.266-0.012-6.135-0.062-7.76-0.178L79.756,71.13
			l13.24-16.089c0,0-3.24,0.063-7.508,0.114c-0.211-4.356-0.148-10.932,1.129-18.921c0.412-2.585,1.033-4.68,1.814-6.397H74.24
			C74.129,30.659,74.041,31.508,73.998,32.41z"/>
	</g>
	<g>
		<path fill="#B28E5D" d="M119.589,125.02c0-21.768-17.642-39.416-39.41-39.416c-21.768,0-39.409,17.648-39.409,39.416
			c0,17.734,11.716,32.729,27.832,37.676h-0.011v16.877c0,0,15.002-0.075,23.584,0c0-5.204,0-13.491,0-17.016
			C108.075,157.481,119.589,142.602,119.589,125.02z"/>
		<path fill="#422918" d="M183.326,166.93l-8.315-8.551l10.308-1.185c0,0-0.647-44.413-0.816-45.206
			c-0.171-0.797-22.516-0.32-37.296-1.283c-14.781-0.963-15.702,3.536-26.999,7.646c-4.945-2.51-18.278,46.49-26.781,41.767
			c3.74,5.742,9.609,8.918,20.41,9.833c0,0,6.073,0.961,11.73,3.907c5.664,2.945,3.45,4.202,12.553,15.711
			s28.229,8.467,32.014,9.632c3.784,1.162,5.712-4.509,10.282-18.038C184.988,167.633,183.326,166.93,183.326,166.93z"/>
		<g>
			<path fill="#575756" d="M88.31,124.052c0.328,0,0.654,0.017,0.99,0.054c3.113,0.361,5.843,2.363,8.108,5.953
				c0.451,0.717,0.238,1.658-0.478,2.11c-0.712,0.449-1.652,0.237-2.103-0.475c-1.751-2.774-3.73-4.307-5.878-4.554
				c-3.288-0.375-6.14,2.341-6.168,2.371c-0.6,0.59-1.572,0.583-2.164-0.016c-0.593-0.601-0.586-1.573,0.016-2.163
				C80.784,127.193,84.023,124.052,88.31,124.052z"/>
		</g>
		<g>
			<path fill="#575756" d="M74.354,140.881H62.937v-20.319c0-0.845,0.682-1.529,1.526-1.529s1.529,0.685,1.529,1.529v17.267h8.361
				c0.845,0,1.526,0.682,1.526,1.524S75.198,140.881,74.354,140.881z"/>
		</g>
		<g>
			<circle fill="#D1938A" cx="91.102" cy="140.881" r="8.544"/>
		</g>
		<path fill="#D1938A" d="M46.55,132.867c-1.719,0.141-3.275,0.79-4.541,1.781c1.397,5.591,3.967,10.672,7.424,14.99
			c3.947-1.027,6.709-4.773,6.352-8.98C55.387,135.954,51.249,132.468,46.55,132.867z"/>
		<g>
			<path fill="#575756" d="M51.615,122.706c4.287,0,7.525,3.139,7.672,3.285c0.605,0.587,0.611,1.558,0.018,2.161
				c-0.592,0.598-1.555,0.604-2.158,0.018l0,0c-0.026-0.026-2.869-2.772-6.191-2.373c-2.145,0.256-4.115,1.785-5.856,4.553
				c-0.454,0.715-1.397,0.923-2.108,0.47c-0.715-0.449-0.927-1.388-0.476-2.103c2.269-3.594,4.996-5.597,8.108-5.951
				C50.959,122.725,51.292,122.706,51.615,122.706z"/>
		</g>
		<path fill="#FFFDF1" d="M75.373,151.078c0,3.093-2.672,5.602-5.96,5.602c-3.3,0-5.966-2.509-5.966-5.602
			c0-3.092,2.666-5.602,5.966-5.602C72.701,145.477,75.373,147.987,75.373,151.078z"/>
	</g>
	<circle fill="#B28E5D" cx="116.805" cy="132.405" r="8.793"/>
	<path fill="#FCE4DB" d="M112.794,129.957c-0.913,1.102-5.351,1.102-5.351,1.102s-4.438,24.66-12.438,28.41s-22,2.25-22,2.25
		s-16.17-3.222-20.534-9.035c-2.437-3.245-5.394-6.319-5.394-6.319s0.563,5.487,8.737,12.271c7.632,6.334,17.19,7.333,17.19,7.333
		s17.126-0.161,23.333-2C105.339,161.302,113.332,143.446,112.794,129.957z"/>
	<path fill="#E4133A" d="M42.279,114.205l52.228,1.014c0,0,4.292,0.806,6.75,5s1.766,3.649,3.16,6.664
		c1.5,3.241,3.137,5.885,7.465,4.176c2.5-0.987,0.375-9.839,2.429-10.047c2.296-0.232,5.863,5.291,5.149,7.217
		c-0.522,1.41-2.203,6.491-0.536,6.991s2.666,1.75,5.583-2c2.397-3.082,1.759-15.546,1.797-23.796
		c0.066-14.5-13.955-28.492-26.657-29.742c-14.895-1.466-30.237-1.969-41.64,4.787C47.776,90.531,42.268,106.181,42.279,114.205z"/>
	<g>
		<g>
			<path fill="#657780" d="M108.706,144.285c2.198,0.933,3.804,2.912,0.192,3.557c-3.611,0.644-6.188-1.61-6.51-2.575
				C102.067,144.3,104.91,142.675,108.706,144.285z"/>
		</g>
		<g>
			<path fill="#657780" d="M109.514,147.01l-0.756-1.853c0.793-0.326,2.871-1.496,2.957-2.97c0.007-0.121,0.028-0.489-0.457-0.971
				c-1.025-1.015-3.393-1.676-4.815-1.567c-1.122,0.075-1.616,2.717-1.976,4.646c-0.06,0.32-0.119,0.635-0.18,0.938l-1.961-0.391
				c0.059-0.296,0.116-0.604,0.174-0.915c0.507-2.716,1.138-6.095,3.807-6.274c1.897-0.131,4.857,0.656,6.357,2.144
				c0.738,0.73,1.1,1.599,1.046,2.508C113.534,145.34,109.678,146.943,109.514,147.01z"/>
		</g>
	</g>
	<path fill="#BB1933" d="M70.509,105.866c0,0,1.062,1.88,2.988,0.828c1.928-1.051,9.021-14.431,10.181-17.617
		s-4.985-6.366-7.58-2.021C72.472,93.128,70.509,105.866,70.509,105.866z"/>
	<path fill="#BB1933" d="M79.846,104.768c0,0,0.421,2.118,2.58,1.721c2.159-0.396,9.164-5.729,11.26-8.394
		c2.097-2.665-2.747-7.604-6.57-4.287C81.776,98.444,79.846,104.768,79.846,104.768z"/>
	<path fill="#BB1933" d="M66.687,105.696c0,0-1.367,1.672-3.086,0.307c-1.72-1.364-5.397-9.363-5.995-12.7
		c-0.598-3.338,5.999-5.422,7.814-0.697C67.955,99.206,66.687,105.696,66.687,105.696z"/>
	<path fill="#B28E5D" d="M116.806,123.612c-0.177,0-0.35,0.017-0.523,0.026v17.533c0.174,0.01,0.347,0.026,0.523,0.026
		c4.855,0,8.792-3.938,8.792-8.793C125.598,127.548,121.661,123.612,116.806,123.612z"/>
	<rect x="125.598" y="163.841" fill="#B28E5D" width="0" height="0.167"/>
</g>
</svg>
