<?xml version="1.0" encoding="utf-8"?>
<!-- Generator: Adobe Illustrator 16.0.0, SVG Export Plug-In . SVG Version: 6.00 Build 0)  -->
<!DOCTYPE svg PUBLIC "-//W3C//DTD SVG 1.1//EN" "http://www.w3.org/Graphics/SVG/1.1/DTD/svg11.dtd">
<svg version="1.1" id="Layer_1" xmlns="http://www.w3.org/2000/svg" xmlns:xlink="http://www.w3.org/1999/xlink" x="0px" y="0px"
	 width="226.77px" height="226.77px" viewBox="0 0 226.77 226.77" enable-background="new 0 0 226.77 226.77" xml:space="preserve">
<path fill="#AEBCC4" d="M113.16,48.086c-36.745,0-66.639,29.894-66.639,66.639s29.894,66.639,66.639,66.639
	c36.744,0,66.638-29.894,66.638-66.639S149.905,48.086,113.16,48.086z M137.623,129.082c-3.319-2.742-6.486-5.36-9.209-7.61
	c0.094-0.256,0.199-0.506,0.281-0.767l8.478,0.17l36.547,13.38c-0.887,2.743-1.944,5.409-3.18,7.977L137.623,129.082z
	 M169.626,144.02c-1.381,2.65-2.942,5.19-4.668,7.606c-2.136-1.738-12.199-10.042-22.286-18.373L169.626,144.02z M147.44,168.299
	c-1.772,1.139-3.603,2.189-5.489,3.151l-16.918-28.907l-1.427-12.963l7.545,8.141L147.44,168.299z M136.48,143.471l18.089,19.518
	c-1.74,1.495-3.556,2.903-5.451,4.206L136.48,143.471z M56.524,143.689l43.639-17.108c0.085,0.099,0.175,0.192,0.263,0.289
	c-26.594,17.415-35.502,23.358-38.526,25.513C59.883,149.644,58.089,146.736,56.524,143.689z M49.522,114.725
	c0-0.734,0.031-1.46,0.056-2.188l46.561,3.054c0,0.051-0.008,0.101-0.008,0.151c0,0.726,0.062,1.436,0.153,2.138l-46.555,1.729
	C49.605,117.994,49.522,116.369,49.522,114.725z M131.553,110.542l-2.974-0.077c-0.052-0.156-0.112-0.309-0.169-0.462l4.321-3.654
	l39.123-16.206c1.019,2.423,1.878,4.928,2.594,7.492L131.553,110.542z M174.96,99.57c0.962,3.922,1.566,7.981,1.762,12.148
	l-38.781-1.009L174.96,99.57z M121.622,129.843l0.932,8.465l-4.058-6.934C119.598,130.971,120.643,130.458,121.622,129.843z
	 M129.281,117.987l2.109,0.771l-2.221-0.044C129.213,118.473,129.248,118.23,129.281,117.987z M137.752,102.104l27.774-23.481
	c2.109,3.049,3.952,6.292,5.511,9.694L137.752,102.104z M131.679,104.62l-4.937,2.045c-0.249-0.381-0.517-0.747-0.795-1.105
	l3.912-7.009l29.893-27.111c1.638,1.761,3.18,3.611,4.611,5.548L131.679,104.62z M124.553,103.956
	c-0.104-0.104-0.219-0.195-0.326-0.296l0.994-0.901L124.553,103.956z M122.678,102.365c-0.522-0.387-1.064-0.748-1.631-1.073
	l1.241-7.843l17.809-36.362c2.813,1.32,5.515,2.839,8.086,4.541l-19.908,35.663L122.678,102.365z M118.946,100.274l0.353-0.72
	l-0.127,0.803C119.097,100.326,119.02,100.304,118.946,100.274z M123.352,86.728l5.336-33.718c3.305,0.832,6.507,1.923,9.586,3.25
	L123.352,86.728z M120.362,92.834l-3.338,6.814c-0.528-0.139-1.065-0.252-1.612-0.339l-2.158-9.815l6.531-38.063
	c2.358,0.245,4.675,0.631,6.95,1.127L120.362,92.834z M113.32,99.109c-0.178-0.006-0.351-0.027-0.529-0.027
	c-0.402,0-0.797,0.032-1.193,0.061l0.758-4.418L113.32,99.109z M109.523,99.407c-0.369,0.074-0.727,0.174-1.086,0.271l-3.24-5.348
	l-7.863-41.252c1.838-0.473,3.712-0.855,5.61-1.163l8.272,37.625L109.523,99.407z M106.349,100.379l-0.079-0.417l0.221,0.365
	C106.444,100.346,106.395,100.36,106.349,100.379z M102.225,89.428L83.465,58.464c3.771-1.999,7.766-3.624,11.937-4.837
	L102.225,89.428z M103.299,95.06l1.192,6.257c-0.555,0.321-1.086,0.674-1.598,1.055l-4.946-4.419L75.962,63.138
	c1.846-1.334,3.765-2.57,5.751-3.705L103.299,95.06z M100.05,105.029c-0.324,0.385-0.627,0.786-0.916,1.198l-5.194-1.871
	L60.541,78.978c1.654-2.428,3.47-4.736,5.436-6.908l30.427,27.185L100.05,105.029z M87.655,102.093L54.466,90.141
	c1.394-3.315,3.071-6.479,4.982-9.481L87.655,102.093z M92.973,106.134l4.392,3.337c-0.259,0.636-0.47,1.294-0.651,1.966
	L51.81,97.852c0.548-1.99,1.189-3.942,1.921-5.85L92.973,106.134z M96.314,113.406c-0.009,0.063-0.021,0.126-0.029,0.19
	l-46.61-3.058c0.24-3.676,0.793-7.267,1.634-10.749L96.314,113.406z M96.668,119.866c0.014,0.056,0.028,0.111,0.043,0.167
	l-44.319,13.607c-1.207-3.868-2.045-7.896-2.492-12.038L96.668,119.866z M97.336,121.934c0.424,1.054,0.947,2.057,1.567,2.992
	l-43.277,16.967c-0.977-2.06-1.838-4.184-2.592-6.357L97.336,121.934z M99.13,115.742c0-7.533,6.128-13.661,13.66-13.661
	s13.66,6.128,13.66,13.661c0,7.532-6.128,13.66-13.66,13.66S99.13,123.275,99.13,115.742z M107.621,131.572l-23.542,39.729
	c-2.201-1.136-4.336-2.383-6.38-3.76l27.193-37.135C105.758,130.875,106.673,131.261,107.621,131.572z M109.503,132.319l0.688,3.471
	l-12.874,40.577c-3.979-1.023-7.807-2.428-11.447-4.163L109.503,132.319z M113.373,132.373c1.079-0.038,2.133-0.174,3.151-0.408
	l6.566,11.221l3.71,33.69c-2.042,0.447-4.12,0.796-6.229,1.042l-8.319-42.013L113.373,132.373z M125.57,147.42l14.583,24.918
	c-3.625,1.705-7.432,3.082-11.389,4.084L125.57,147.42z M124.487,127.589c0.281-0.277,0.543-0.572,0.804-0.869l2.175,4.082
	L124.487,127.589z M127.581,123.377c1.141,0.942,2.475,2.046,3.965,3.277l-4.763-1.902
	C127.071,124.308,127.336,123.85,127.581,123.377z M143.331,120.999l33.081,0.665c-0.398,3.66-1.117,7.224-2.112,10.673
	L143.331,120.999z M137.549,118.882l-8.107-2.968c0.001-0.058,0.009-0.114,0.009-0.172c0-0.824-0.08-1.628-0.196-2.42l2.568-0.773
	l44.95,1.17c0.005,0.336,0.025,0.668,0.025,1.005c0,1.665-0.084,3.309-0.211,4.941L137.549,118.882z M158.372,69.991l-25.459,23.09
	l16.923-30.315C152.889,64.927,155.748,67.34,158.372,69.991z M117.783,51.272l-5.67,33.039l-7.184-32.675
	c2.697-0.35,5.44-0.55,8.23-0.55C114.717,51.086,116.255,51.161,117.783,51.272z M74.354,64.339l18.164,28.763L67.352,70.617
	C69.528,68.358,71.867,66.259,74.354,64.339z M63.095,153.94c4.978-3.43,24.691-16.401,38.788-25.634
	c0.42,0.366,0.857,0.711,1.313,1.033l-27.129,37.047C71.178,162.866,66.811,158.673,63.095,153.94z M99.271,176.819l11.726-36.957
	l7.576,38.256c-1.786,0.151-3.588,0.246-5.412,0.246C108.389,178.364,103.745,177.819,99.271,176.819z M156.074,161.671
	l-23.28-25.118l-4.903-9.205l8.701,3.477c10.709,8.848,24.572,20.295,27.185,22.414
	C161.461,156.273,158.886,159.098,156.074,161.671z"/>
<path fill="#1D1D1B" d="M192.809,112.312c-0.202-0.596-0.822-0.912-1.422-0.772c-0.145-2.946-0.463-5.807-0.935-8.577
	c0.153,0.01,0.311-0.007,0.465-0.059c0.634-0.218,0.972-0.906,0.757-1.54c-0.217-0.636-0.906-0.974-1.541-0.758
	c-0.042,0.014-0.071,0.046-0.111,0.065c-0.396-1.944-0.863-3.843-1.396-5.694c0.5-0.28,0.761-0.868,0.568-1.428
	c-0.182-0.536-0.703-0.837-1.242-0.795c-0.846-2.632-1.817-5.164-2.888-7.595c0.139,0.003,0.28-0.007,0.419-0.055
	c0.635-0.214,0.974-0.903,0.757-1.537c-0.217-0.636-0.905-0.974-1.539-0.758c-0.223,0.075-0.391,0.222-0.53,0.392
	c-1.656-3.511-3.508-6.798-5.467-9.852c0.019-0.005,0.038-0.001,0.058-0.007c0.633-0.216,0.973-0.904,0.756-1.54
	c-0.216-0.633-0.904-0.973-1.54-0.756c-0.224,0.076-0.393,0.223-0.531,0.394c-1.984-2.934-4.052-5.635-6.115-8.097
	c0.021-0.006,0.042-0.001,0.062-0.008c0.633-0.215,0.974-0.902,0.758-1.538c-0.217-0.634-0.906-0.973-1.54-0.758
	c-0.325,0.111-0.569,0.348-0.704,0.637c-2.263-2.589-4.492-4.881-6.57-6.871c0.321-0.316,0.462-0.795,0.306-1.25
	c-0.216-0.635-0.906-0.975-1.54-0.759c-0.214,0.073-0.377,0.211-0.514,0.371c-1.641-1.501-3.15-2.792-4.467-3.864
	c0.275-0.223,0.463-0.549,0.463-0.93c0-0.67-0.543-1.213-1.213-1.213c-0.479,0-0.885,0.284-1.081,0.687
	c-2.054-1.588-3.308-2.408-3.308-2.408s-0.787-0.646-2.939-1.589c0.072-0.155,0.118-0.324,0.118-0.506
	c0-0.67-0.544-1.213-1.214-1.213c-0.535,0-0.976,0.352-1.137,0.833c-2.023-0.734-4.756-1.559-8.374-2.37
	c-0.145-0.509-0.594-0.89-1.148-0.89c-0.375,0-0.697,0.18-0.92,0.447c-2.521-0.512-5.423-1.009-8.741-1.466
	c-0.065-0.608-0.562-1.088-1.188-1.088c-0.519,0-0.953,0.329-1.127,0.786c-1.732-0.215-3.571-0.418-5.521-0.607
	c0.025-0.098,0.061-0.192,0.061-0.298c0-0.671-0.543-1.214-1.213-1.214c-0.671,0-1.213,0.543-1.213,1.214
	c0,0.029,0.015,0.054,0.017,0.083c-1.419-0.123-2.876-0.241-4.407-0.347c-1.208-0.084-2.402-0.123-3.589-0.14
	c0-0.006,0.003-0.011,0.003-0.018c0-0.671-0.543-1.214-1.213-1.214c-0.671,0-1.214,0.543-1.214,1.214
	c0,0.007,0.004,0.013,0.004,0.02c-3.668,0.084-7.229,0.485-10.684,1.157c-0.02-0.652-0.548-1.176-1.207-1.176
	c-0.671,0-1.214,0.542-1.214,1.212c0,0.166,0.034,0.323,0.094,0.467c-3.314,0.773-6.522,1.801-9.625,3.045
	c-0.153-0.495-0.598-0.861-1.143-0.861c-0.669,0-1.212,0.543-1.212,1.213c0,0.21,0.067,0.398,0.161,0.57
	c-3.372,1.488-6.61,3.23-9.712,5.185c-0.188-0.426-0.611-0.725-1.107-0.725c-0.67,0-1.213,0.543-1.213,1.213
	c0,0.314,0.127,0.594,0.323,0.81c-1.906,1.279-3.761,2.632-5.557,4.057c0.163-0.575-0.102-1.196-0.667-1.44
	c-0.615-0.265-1.327,0.019-1.595,0.634c-0.265,0.615,0.02,1.328,0.635,1.594c0.182,0.079,0.371,0.096,0.556,0.084
	c-2.164,1.77-4.244,3.635-6.239,5.578c-0.125-0.235-0.312-0.44-0.575-0.554c-0.614-0.264-1.327,0.02-1.594,0.635
	c-0.251,0.582,0,1.239,0.546,1.534c-1.897,1.93-3.713,3.925-5.447,5.969c-0.069-0.387-0.304-0.738-0.691-0.905
	c-0.615-0.266-1.33,0.019-1.594,0.634C48,67.616,48.285,68.33,48.9,68.595c0.151,0.065,0.309,0.096,0.463,0.098
	c-1.895,2.308-3.682,4.668-5.364,7.056c-0.104-0.104-0.226-0.194-0.37-0.256c-0.615-0.267-1.329,0.02-1.596,0.634
	c-0.26,0.607,0.016,1.308,0.614,1.58c-0.221,0.326-0.446,0.652-0.663,0.979c-0.804,1.212-1.536,2.488-2.222,3.802
	c-0.12-0.148-0.263-0.279-0.45-0.36c-0.615-0.264-1.328,0.02-1.594,0.634c-0.266,0.615,0.018,1.329,0.633,1.595
	c0.147,0.063,0.299,0.091,0.449,0.095c-1.025,2.216-1.898,4.55-2.621,6.984c-0.428,0.04-0.825,0.289-1.007,0.71
	c-0.229,0.528-0.036,1.11,0.408,1.438c-0.864,3.376-1.467,6.916-1.804,10.568c-0.063-0.043-0.115-0.099-0.188-0.13
	c-0.616-0.266-1.33,0.019-1.595,0.634c-0.266,0.615,0.018,1.329,0.635,1.595c0.334,0.145,0.691,0.115,0.997-0.032
	c-0.243,3.726-0.225,7.55,0.04,11.417c-0.412,0.052-0.791,0.293-0.968,0.701c-0.266,0.617,0.02,1.332,0.633,1.598
	c0.173,0.074,0.352,0.096,0.528,0.089c0.304,3.232,0.779,6.481,1.415,9.718c-0.365,0.083-0.692,0.312-0.852,0.682
	c-0.265,0.615,0.019,1.33,0.634,1.594c0.231,0.1,0.472,0.101,0.703,0.057c0.658,2.978,1.452,5.935,2.377,8.846
	c-0.059,0.047-0.125,0.078-0.176,0.137c-0.438,0.506-0.379,1.273,0.129,1.711c0.214,0.185,0.476,0.263,0.738,0.274
	c0.765,2.232,1.614,4.428,2.531,6.584c-0.166,0.07-0.322,0.168-0.448,0.313c-0.438,0.51-0.38,1.275,0.129,1.711
	c0.367,0.316,0.866,0.365,1.281,0.18c1.191,2.617,2.498,5.156,3.907,7.602c-0.232,0.06-0.455,0.166-0.623,0.361
	c-0.437,0.508-0.379,1.273,0.128,1.711c0.496,0.425,1.232,0.374,1.676-0.101c1.237,2.014,2.539,3.963,3.922,5.815
	c0.325,0.435,0.672,0.851,1.011,1.274c-0.07,0.053-0.147,0.092-0.207,0.161c-0.438,0.508-0.38,1.273,0.128,1.709
	c0.474,0.409,1.159,0.369,1.606-0.045c1.298,1.479,2.68,2.885,4.139,4.219c-0.153,0.455-0.031,0.976,0.354,1.307
	c0.376,0.324,0.893,0.373,1.313,0.173c2.088,1.767,4.308,3.403,6.642,4.904c-0.176,0.069-0.342,0.168-0.474,0.321
	c-0.439,0.506-0.381,1.271,0.126,1.709c0.509,0.439,1.274,0.381,1.711-0.127c0.221-0.254,0.314-0.575,0.29-0.887
	c3.064,1.851,6.294,3.491,9.647,4.917c-0.005,0.006-0.013,0.009-0.019,0.015c-0.436,0.508-0.378,1.273,0.13,1.711
	c0.507,0.438,1.272,0.379,1.711-0.129c0.185-0.213,0.262-0.475,0.273-0.736c2.947,1.161,5.971,2.171,9.041,3.023
	c-0.03,0.372,0.091,0.751,0.396,1.014c0.509,0.438,1.275,0.381,1.712-0.127c0.076-0.089,0.119-0.192,0.165-0.294
	c3.097,0.781,6.227,1.413,9.356,1.896c-0.234,0.482-0.146,1.074,0.28,1.441c0.509,0.436,1.274,0.379,1.712-0.131
	c0.247-0.284,0.318-0.649,0.258-0.995c3.07,0.403,6.128,0.667,9.144,0.794c-0.303,0.497-0.232,1.146,0.224,1.541
	c0.509,0.436,1.274,0.379,1.713-0.131c0.331-0.385,0.374-0.919,0.153-1.346c3.189,0.067,6.316-0.02,9.345-0.256
	c-0.019,0.299,0.067,0.604,0.275,0.852c0.429,0.514,1.194,0.58,1.709,0.148c0.367-0.307,0.496-0.783,0.388-1.219
	c2.376-0.252,4.685-0.591,6.896-1.028c0.028,0.222,0.097,0.44,0.251,0.626c0.431,0.514,1.197,0.58,1.708,0.148
	c0.384-0.319,0.517-0.827,0.382-1.277c0.796-0.188,1.579-0.386,2.347-0.598c1.916-0.529,3.854-1.18,5.797-1.923
	c0.03,0.216,0.098,0.429,0.248,0.608c0.432,0.514,1.196,0.58,1.711,0.152c0.486-0.41,0.558-1.116,0.194-1.627
	c2.586-1.093,5.171-2.376,7.728-3.846c0.046,0.108,0.091,0.218,0.17,0.312c0.43,0.514,1.194,0.58,1.708,0.15
	c0.506-0.424,0.572-1.166,0.166-1.682c1.651-1.021,3.284-2.123,4.894-3.303c0.421,0.217,0.949,0.174,1.334-0.148
	c0.35-0.293,0.474-0.737,0.395-1.154c2.111-1.643,4.174-3.417,6.16-5.339c0.432,0.497,1.183,0.562,1.689,0.136
	c0.516-0.432,0.582-1.195,0.151-1.709c-0.044-0.053-0.104-0.08-0.154-0.123c2.542-2.618,4.943-5.479,7.169-8.57
	c0.429,0.247,0.979,0.225,1.381-0.111c0.513-0.432,0.581-1.195,0.148-1.711c-0.047-0.056-0.109-0.085-0.162-0.131
	c1.84-2.733,3.534-5.644,5.063-8.723c0.439,0.437,1.138,0.489,1.623,0.084c0.514-0.434,0.581-1.197,0.151-1.711
	c-0.205-0.244-0.489-0.381-0.783-0.417c1.318-2.865,2.483-5.88,3.488-9.029c0.021,0.031,0.027,0.067,0.052,0.097
	c0.429,0.514,1.195,0.58,1.71,0.15c0.513-0.432,0.58-1.197,0.149-1.711c-0.342-0.409-0.894-0.521-1.365-0.336
	c0.562-1.915,1.077-3.87,1.511-5.886c0.25,0.09,0.525,0.117,0.796,0.024c0.636-0.217,0.974-0.906,0.757-1.541
	c-0.166-0.489-0.614-0.796-1.102-0.814c0.437-2.343,0.782-4.751,1.034-7.224c0.043-0.01,0.086-0.002,0.129-0.017
	c0.635-0.217,0.974-0.908,0.757-1.539c-0.115-0.339-0.369-0.584-0.674-0.715c0.185-2.401,0.291-4.854,0.291-7.375
	c0-0.407-0.011-0.81-0.017-1.213c0.192,0.033,0.392,0.036,0.59-0.031C192.686,113.635,193.025,112.946,192.809,112.312z
	 M181.083,110.678c-1.733,30.378-13.86,54.636-31.187,64.453c-17.325,9.818-63.234,18.188-84.749-7.076
	c-21.516-25.264-29.908-55.874-10.984-89.37c18.923-33.497,50.156-32.646,65.125-31.765c14.726,0.866,30.079,8.519,30.079,8.519
	S182.816,80.299,181.083,110.678z"/>
</svg>
