<?xml version="1.0" encoding="utf-8"?>
<!-- Generator: Adobe Illustrator 16.0.0, SVG Export Plug-In . SVG Version: 6.00 Build 0)  -->
<!DOCTYPE svg PUBLIC "-//W3C//DTD SVG 1.1//EN" "http://www.w3.org/Graphics/SVG/1.1/DTD/svg11.dtd">
<svg version="1.1" id="Layer_1" xmlns="http://www.w3.org/2000/svg" xmlns:xlink="http://www.w3.org/1999/xlink" x="0px" y="0px"
	 width="226.77px" height="226.77px" viewBox="0 0 226.77 226.77" enable-background="new 0 0 226.77 226.77" xml:space="preserve">
<g>
	<path fill="#BA9B86" d="M147.622,88.634c0-21.374-17.326-38.7-38.699-38.7c-20.857,0-37.853,16.502-38.661,37.162
		c-0.014,0-0.026-0.002-0.04-0.002c-4.817,0-8.723,3.905-8.723,8.724c0,4.817,3.905,8.723,8.723,8.723
		c1.113,0,2.173-0.216,3.151-0.596c4.365,10.117,12.924,17.997,23.486,21.461v16.213h28.493v-17.946
		C138.509,117.491,147.622,104.131,147.622,88.634z"/>
	<g>
		<path fill="#575756" d="M100.941,87.683c-0.319,0-0.644,0.018-0.974,0.055c-3.056,0.352-5.735,2.32-7.964,5.848
			c-0.442,0.699-0.233,1.625,0.467,2.068c0.702,0.441,1.628,0.232,2.069-0.467c1.72-2.723,3.662-4.227,5.771-4.469
			c3.229-0.371,6.031,2.299,6.06,2.326c0.589,0.582,1.54,0.574,2.121-0.016s0.575-1.541-0.016-2.121
			C108.332,90.767,105.151,87.683,100.941,87.683z"/>
	</g>
	<g>
		<path fill="#575756" d="M114.643,108.745h11.212V88.79c0-0.828-0.672-1.5-1.5-1.5s-1.5,0.672-1.5,1.5v16.955h-8.212
			c-0.829,0-1.5,0.672-1.5,1.5S113.814,108.745,114.643,108.745z"/>
	</g>
	<g>
		<circle fill="#E0A299" cx="98.198" cy="104.21" r="8.393"/>
	</g>
	<path fill="#E0A299" d="M141.948,96.338c1.688,0.144,3.215,0.779,4.455,1.752c-1.371,5.489-3.895,10.479-7.287,14.722
		c-3.881-1.012-6.59-4.689-6.239-8.819C133.269,99.373,137.329,95.947,141.948,96.338z"/>
	<g>
		<path fill="#575756" d="M136.974,86.363c-4.211,0-7.393,3.084-7.535,3.225c-0.59,0.58-0.598,1.531-0.016,2.121
			c0.58,0.588,1.527,0.596,2.117,0.02l0,0c0.029-0.027,2.82-2.723,6.082-2.328c2.102,0.25,4.037,1.752,5.752,4.467
			c0.443,0.701,1.369,0.906,2.07,0.467c0.699-0.443,0.908-1.369,0.467-2.068c-2.229-3.529-4.908-5.496-7.965-5.848
			C137.616,86.381,137.292,86.363,136.974,86.363z"/>
	</g>
	<path fill="#422918" d="M144.008,70.305c-0.041-0.144-0.094-0.288-0.179-0.431c-2.771-4.653-13.624-20.787-31.122-21.294
		C87.422,47.846,77.97,60.442,70.856,72.372c0,0-5.672,8.817,0,17.587c1.781,2.754,1.911,2.602,1.911,2.602l3.896-18.093
		c0.863,1.496,2.461,2.516,4.312,2.516c1.765,0,3.308-0.92,4.196-2.301c0.89,1.381,2.433,2.301,4.196,2.301
		c1.874,0,3.487-1.043,4.342-2.569c0.191,0.015,0.383,0.028,0.572,0.042c0.861,1.503,2.463,2.527,4.319,2.527
		c1.767,0,3.312-0.922,4.199-2.307c0.854,1.53,2.47,2.577,4.346,2.577c2.458,0,4.49-1.778,4.907-4.116
		c0.069-0.029,0.139-0.06,0.207-0.09c0.487,2.249,2.484,3.936,4.878,3.936c1.728,0,3.248-0.876,4.146-2.207
		c0.897,1.331,2.42,2.207,4.146,2.207c2.287,0,4.193-1.545,4.786-3.642l0.164-0.022c0.486,2.249,2.483,3.935,4.877,3.935
		c1.218,0,2.318-0.453,3.186-1.177l1.486-1.21c0.625,1.592,2.167,2.724,3.98,2.724c0.71,0,1.38-0.173,1.97-0.479
		C145.787,75.36,145.224,72.788,144.008,70.305z"/>
	<path fill="#95CFC4" d="M163.888,170.75v-32.234l-38.598-10.857c0,0,1.189,3.238-9.248,7.41s-19.238-5.4-19.238-5.4l-33.89,12.828
		l1.507,25.807l1.5,9.916h97.999L163.888,170.75z"/>
	
		<ellipse transform="matrix(0.9951 -0.0993 0.0993 0.9951 -10.907 12.4046)" fill="#DDEAF1" cx="119.186" cy="115.794" rx="12.443" ry="2.17"/>
	<path fill="#DDEAF1" d="M131.573,114.742c0.003-0.043,0.017-0.087,0.013-0.131c-0.162-1.882-5.844-2.919-12.691-2.322
		c-6.844,0.604-12.26,2.613-12.095,4.496c0.007,0.082,0.038,0.159,0.065,0.238l-0.062,0.006c0,0,6.713,32.09,8.318,39.76
		c10.905,1.129,17.798-2.365,17.798-2.365L131.573,114.742z"/>
	<path fill="#BA9B86" d="M141.177,147.276c0,0,5.491-9.41-3.868-19.041c0,0,0.897-8.229-2.052-8.434
		c-2.95-0.203-4.218,3.047-3.886,4.412c0.205,0.844,0.637,2.615,0.936,3.846c-3.812-0.029-8.457,0.205-8.742,1.508
		c-0.486,2.227,0.593,3.586,1.816,3.932c1.453,0.412,3.148,0.605,3.148,0.605s-4.913,1.301-4.846,3
		c0.07,1.699,0.771,3.395,2.725,3.092c1.042-0.162,2.695,0.078,2.695,0.078s-3.758,1.221-3.449,2.746
		c0.5,2.469,1.444,3.182,6.295,3.375c0.029,0,0.058,0.002,0.088,0.004c-0.553,0.484-0.903,0.992-0.792,1.453
		c0.396,1.629,1.108,1.479,4.303,1.355C138.437,149.096,141.177,147.276,141.177,147.276z"/>
	<path opacity="0.5" fill="#FFFFFF" d="M117.615,112.421c0,0,3.032,28.757,3.521,34.095c0.309,3.381-0.114,4.65-0.114,4.65
		l2.288-0.229l-1.383-14.092l-2.429-24.605L117.615,112.421z"/>
	<path opacity="0.5" fill="#FFFFFF" d="M112.984,113.23c0,0,2.176,23.729,2.084,24.022s0.086,4.803,0.086,4.803l2.922,0.123
		l-2.394-29.488L112.984,113.23"/>
	
		<ellipse transform="matrix(0.9962 -0.0873 0.0873 0.9962 -13.0871 11.4151)" fill="#B0D8EA" cx="123.946" cy="155.31" rx="9.071" ry="2.495"/>
	<path fill="#BA9B86" d="M112.128,162.053c0,0-8.218-7.154-2.438-19.279c0,0-3.487-7.504-0.76-8.645
		c2.73-1.137,4.973,1.537,5.096,2.936c0.075,0.865,0.234,2.68,0.346,3.943c3.602-1.25,8.076-2.518,8.764-1.375
		c1.175,1.953,0.588,3.586-0.461,4.307c-1.244,0.857-2.787,1.584-2.787,1.584s5.071-0.344,5.551,1.289
		c0.478,1.631,0.357,3.461-1.59,3.801c-1.04,0.18-2.527,0.938-2.527,0.938s3.95-0.049,4.146,1.496
		c0.317,2.498-0.349,3.477-4.882,5.213c-0.026,0.01-0.053,0.021-0.081,0.033c0.678,0.283,1.174,0.648,1.216,1.121
		c0.146,1.672-0.577,1.758-3.642,2.664C115.306,162.899,112.128,162.053,112.128,162.053z"/>
</g>
</svg>
