<?xml version="1.0" encoding="utf-8"?>
<!-- Generator: Adobe Illustrator 16.0.0, SVG Export Plug-In . SVG Version: 6.00 Build 0)  -->
<!DOCTYPE svg PUBLIC "-//W3C//DTD SVG 1.1//EN" "http://www.w3.org/Graphics/SVG/1.1/DTD/svg11.dtd">
<svg version="1.1" id="Layer_1" xmlns="http://www.w3.org/2000/svg" xmlns:xlink="http://www.w3.org/1999/xlink" x="0px" y="0px"
	 width="364px" height="226.77px" viewBox="-68 0 364 226.77" enable-background="new -68 0 364 226.77" xml:space="preserve">
<g>
	<g>
		<path fill="#54566D" d="M107.517,105.676c-0.311,0-0.618-0.145-0.813-0.416L96.354,90.867c-0.322-0.449-0.22-1.073,0.228-1.396
			c0.448-0.323,1.073-0.221,1.396,0.228l10.351,14.393c0.322,0.449,0.22,1.073-0.228,1.396
			C107.924,105.615,107.719,105.676,107.517,105.676z"/>
	</g>
	<g>
		<path fill="#54566D" d="M111.892,104.565c-0.505,0-0.938-0.381-0.993-0.895l-2.089-19.652c-0.058-0.549,0.34-1.042,0.889-1.1
			c0.551-0.047,1.041,0.34,1.1,0.889l2.089,19.652c0.059,0.549-0.339,1.042-0.889,1.1
			C111.963,104.563,111.927,104.565,111.892,104.565z"/>
	</g>
	<g>
		<path fill="#54566D" d="M116.055,104.341c-0.18,0-0.361-0.048-0.523-0.148c-0.471-0.29-0.617-0.906-0.328-1.376l6.184-10.034
			c0.289-0.47,0.904-0.618,1.375-0.327c0.471,0.29,0.617,0.906,0.328,1.376l-6.184,10.034
			C116.717,104.172,116.391,104.341,116.055,104.341z"/>
	</g>
	<g>
		<path fill="#54566D" d="M119.02,106.539c-0.234,0-0.471-0.082-0.66-0.249c-0.416-0.364-0.457-0.996-0.092-1.411L133.41,87.65
			c0.363-0.415,0.994-0.456,1.41-0.091c0.416,0.364,0.457,0.996,0.092,1.411l-15.143,17.229
			C119.573,106.425,119.297,106.539,119.02,106.539z"/>
	</g>
	<g>
		<g>
			<g>
				<path fill="#EAF6FD" d="M-7.709,107.081c0,0,6.481-17.218,9.021-22.452c5.588,0,25.626,0,29.734,0
					c0,4.425,0.111,16.469,0,22.452C29.512,107.081-7.709,107.081-7.709,107.081z"/>
			</g>
		</g>
		<g>
			<g>
				<path fill="#EAF6FD" d="M29.013,84.682v22.604c0,0,10.782,0,15.033,0c4.969,0,34.979-0.204,36.538-0.204
					c-1.752-2.516-19.267-20.55-21.117-22.399C58.054,84.682,29.013,84.682,29.013,84.682z"/>
			</g>
		</g>
		<g opacity="0.6">
			<g>
				<g>
					<path fill="#CDDAE1" d="M28.42,90.081L3.115,107.08c6.265,0.026,20.641,0.005,25.305,0.001
						C28.42,104.469,28.438,90.247,28.42,90.081z"/>
				</g>
			</g>
		</g>
		<g opacity="0.6">
			<g>
				<g>
					<path fill="#CDDAE1" d="M80.585,107.285c-1.386-1.622-13.765-14.411-15.43-16.279c-6.493,4.507-16.979,11.782-23.508,16.279
						C51.76,107.285,77.387,107.376,80.585,107.285z"/>
				</g>
			</g>
		</g>
		<g>
			<g>
				<path fill="#95CFC4" d="M77.824,106.192c0,0,19.686,0.135,26.029,4.656c9.138,6.516,6.819,18.646,6.819,18.646l-1.522,3.803
					H98.505H8.771H-26.97l6.141-19.612c0,0,0.737-9.108,15.235-7.585C7.062,105.967,77.824,106.192,77.824,106.192z"/>
			</g>
		</g>
		<g>
			<g>
				<path fill="#1D1D1B" d="M110.013,134.39H99.055l-0.192-2.102c-0.041-0.416-1.132-10.392-10.496-10.638
					c-0.107-0.003-0.215-0.004-0.321-0.004c-9.019,0-10.015,10.194-10.053,10.633l-0.185,2.11H8.539l-0.123-2.183
					c-0.024-0.366-0.709-9.245-9.865-10.579c-8.823-1.294-10.937,10.343-11.022,10.838l-0.331,1.92l-13.307,0.004
					c-1.277,0-2.312-1.034-2.312-2.312s1.035-2.312,2.312-2.312h9.502c1.574-5.861,6.293-14.105,15.825-12.715
					c8.859,1.292,12.489,7.993,13.509,12.715h60.984c1.161-5.414,5.201-12.974,14.778-12.737
					c9.426,0.246,13.459,7.553,14.638,12.737h6.885c1.277,0,2.312,1.035,2.312,2.312S111.29,134.39,110.013,134.39z"/>
			</g>
		</g>
		<g>
			<g>
				<g>
					<circle fill="#3C3C3B" cx="-2.013" cy="133.37" r="12.738"/>
				</g>
			</g>
			<g>
				<g>
					<circle fill="#CDDAE1" cx="-2.238" cy="133.37" r="7.618"/>
				</g>
			</g>
			<g>
				<g>
					<path fill="#FFFFFF" d="M3.458,133.468c-0.055,3.085-2.598,5.541-5.682,5.487c-3.085-0.055-5.538-2.6-5.484-5.685
						c0.055-3.082,2.596-5.539,5.681-5.485C1.057,127.84,3.512,130.386,3.458,133.468z"/>
				</g>
			</g>
		</g>
		<g>
			<g>
				<g>
					<circle fill="#3C3C3B" cx="88.428" cy="133.37" r="12.738"/>
				</g>
			</g>
			<g>
				<g>
					<path fill="#CDDAE1" d="M95.822,133.37c0,4.207-3.41,7.62-7.62,7.62c-4.208,0-7.617-3.413-7.617-7.62s3.41-7.618,7.617-7.618
						C92.412,125.752,95.822,129.163,95.822,133.37z"/>
				</g>
			</g>
			<g>
				<g>
					<circle fill="#FFFFFF" cx="88.315" cy="133.369" r="5.584"/>
				</g>
			</g>
		</g>
		<g>
			<g>
				<path fill="#1D1D1B" d="M41.878,113.906c0,0.626-0.511,1.139-1.141,1.139h-4.968c-0.629,0-1.141-0.513-1.141-1.139l0,0
					c0-0.632,0.512-1.143,1.141-1.143h4.968C41.367,112.763,41.878,113.274,41.878,113.906L41.878,113.906z"/>
			</g>
		</g>
		<g>
			<g>
				<path fill="#3CB8C0" d="M-9.07,112.593c-1.36,0-2.466-1.106-2.466-2.466s1.106-2.466,2.466-2.466
					c1.359,0,2.465,1.106,2.465,2.466S-7.711,112.593-9.07,112.593z M-9.07,108.432c-0.935,0-1.696,0.76-1.696,1.695
					c0,0.935,0.761,1.694,1.696,1.694c0.934,0,1.694-0.76,1.694-1.694C-7.376,109.192-8.136,108.432-9.07,108.432z"/>
			</g>
		</g>
		<g>
			<g>
				<path fill="#FFF9D1" d="M110.078,119.786c0,0-2.58,0.537-2.345,2.459c0.236,1.921,1,4.286,1,4.286l2.134,1.331
					C110.866,127.863,111.448,123.03,110.078,119.786z"/>
			</g>
		</g>
		<g>
			<g>
				<path fill="#54566D" d="M-33.341,117.364c0-0.426-0.345-0.771-0.771-0.771H-55c-0.425,0-0.771,0.345-0.771,0.771
					c0,0.427,0.345,0.771,0.771,0.771h20.889C-33.686,118.135-33.341,117.79-33.341,117.364z"/>
			</g>
			<g>
				<path fill="#54566D" d="M-34.206,121.454l-10.443,1.295c-0.422,0.052-0.723,0.438-0.67,0.859c0.048,0.39,0.38,0.676,0.763,0.676
					c0.032,0,0.064-0.001,0.096-0.006l10.443-1.295c0.422-0.052,0.723-0.437,0.67-0.859
					C-33.399,121.702-33.783,121.395-34.206,121.454z"/>
			</g>
		</g>
		<g>
			<path fill="#1D1D1B" d="M60.91,83.529H5.54c0,0-5.067-0.905-9.304,4.813s-13.15,19.571-13.15,19.571l11.321-1.814
				c0,0,3.098-17.091,9.222-19.38c4.326-1.616,17.128-1.52,24.276-1.323v20.68h2.032V85.458c1.814,0.062,2.939,0.117,2.939,0.117
				h26.229l19.728,20.704l5.044,0.204L60.91,83.529z"/>
		</g>
		<g>
			<g>
				<path fill="#F29100" d="M-19.48,126.71c0,0.37-0.3,0.668-0.67,0.668h-2.976c-0.369,0-0.668-0.298-0.668-0.668l0,0
					c0-0.371,0.299-0.67,0.668-0.67h2.976C-19.78,126.04-19.48,126.339-19.48,126.71L-19.48,126.71z"/>
			</g>
		</g>
		<g>
			<g>
				<path fill="#FFF9D1" d="M-19.907,119.612c0,0.954-0.775,1.73-1.73,1.73c-0.563,0-1.064-0.27-1.38-0.687
					c0.335-1.056,0.516-1.613,0.843-2.688c0.053-0.171,0.35-0.086,0.538-0.086C-20.682,117.881-19.907,118.656-19.907,119.612z"/>
			</g>
		</g>
		<g>
			<path fill="#3CB8C0" d="M71.279,129.457c0.001-0.006,0.003-0.012,0.003-0.017h-0.147L71.279,129.457z"/>
		</g>
		<g>
			<polygon fill="#3CB8C0" points="26.896,107.661 26.079,109.816 26.054,128.69 26.824,128.69 26.824,110.023 27.721,107.661 			
				"/>
		</g>
		<g>
			<path fill="#3CB8C0" d="M88.304,113.503c-6.193,0-11.701,3.151-14.923,8.005v-10.621l-1.451-2.974h-0.856l1.537,3.151v11.615
				h0.063c-0.998,1.787-1.707,3.762-2.047,5.875h0.798c1.372-8.2,8.463-14.281,16.88-14.281c8.495,0,15.589,6.136,16.905,14.416
				h0.778C104.663,119.976,97.223,113.503,88.304,113.503z"/>
		</g>
		<g>
			<path fill="#3CB8C0" d="M-2.126,113.299c-6.679,0-12.559,3.67-15.635,9.185l-4.957,0.02l0.003,0.771l4.547-0.018
				c-0.829,1.674-1.401,3.5-1.675,5.434h0.781c1.232-8.371,8.404-14.62,16.936-14.62c8.565,0,15.705,6.237,16.935,14.62h0.779
				C14.35,119.871,6.863,113.299-2.126,113.299z"/>
		</g>
	</g>
	<g>
		<g>
			<g>
				<path fill="#EAF6FD" d="M232.492,107.081c0,0-6.482-17.218-9.021-22.452c-5.588,0-25.627,0-29.734,0
					c0,4.425-0.111,16.469,0,22.452C195.27,107.081,232.492,107.081,232.492,107.081z"/>
			</g>
		</g>
		<g>
			<g>
				<path fill="#EAF6FD" d="M195.77,84.682v22.604c0,0-10.783,0-15.033,0c-4.971,0-34.979-0.204-36.539-0.204
					c1.752-2.516,19.268-20.55,21.117-22.399C166.729,84.682,195.77,84.682,195.77,84.682z"/>
			</g>
		</g>
		<g opacity="0.6">
			<g>
				<g>
					<path fill="#CDDAE1" d="M196.362,90.081l25.307,16.999c-6.266,0.026-20.643,0.005-25.307,0.001
						C196.362,104.469,196.344,90.247,196.362,90.081z"/>
				</g>
			</g>
		</g>
		<g opacity="0.6">
			<g>
				<g>
					<path fill="#CDDAE1" d="M144.198,107.285c1.387-1.622,13.766-14.411,15.43-16.279c6.492,4.507,16.979,11.782,23.508,16.279
						C173.022,107.285,147.395,107.376,144.198,107.285z"/>
				</g>
			</g>
		</g>
		<g>
			<g>
				<path fill="#E4133A" d="M146.959,106.192c0,0-19.686,0.135-26.029,4.656c-9.138,6.516-6.82,18.646-6.82,18.646l1.521,3.803
					h10.646h89.734h35.74l-6.141-19.612c0,0-0.736-9.108-15.236-7.585C217.721,105.967,146.959,106.192,146.959,106.192z"/>
			</g>
		</g>
		<g>
			<g>
				<path fill="#1D1D1B" d="M114.77,134.39h10.957l0.193-2.102c0.041-0.416,1.131-10.392,10.494-10.638
					c0.107-0.003,0.217-0.004,0.322-0.004c9.018,0,10.014,10.194,10.053,10.633l0.184,2.11h69.271l0.121-2.183
					c0.025-0.366,0.709-9.245,9.865-10.579c8.824-1.294,10.938,10.343,11.023,10.838l0.33,1.92l13.307,0.004
					c1.277,0,2.312-1.034,2.312-2.312s-1.035-2.312-2.312-2.312h-9.502c-1.574-5.861-6.293-14.105-15.824-12.715
					c-8.859,1.292-12.488,7.993-13.51,12.715h-60.984c-1.16-5.414-5.201-12.974-14.777-12.737
					c-9.426,0.246-13.459,7.553-14.639,12.737h-6.885c-1.277,0-2.312,1.035-2.312,2.312S113.493,134.39,114.77,134.39z"/>
			</g>
		</g>
		<g>
			<g>
				<g>
					<circle fill="#3C3C3B" cx="226.795" cy="133.37" r="12.738"/>
				</g>
			</g>
			<g>
				<g>
					<circle fill="#CDDAE1" cx="227.021" cy="133.37" r="7.618"/>
				</g>
			</g>
			<g>
				<g>
					<path fill="#FFFFFF" d="M221.324,133.468c0.055,3.085,2.598,5.541,5.682,5.487c3.086-0.055,5.539-2.6,5.484-5.685
						c-0.055-3.082-2.596-5.539-5.682-5.485C223.725,127.84,221.27,130.386,221.324,133.468z"/>
				</g>
			</g>
		</g>
		<g>
			<g>
				<g>
					<circle fill="#3C3C3B" cx="136.354" cy="133.37" r="12.738"/>
				</g>
			</g>
			<g>
				<g>
					<path fill="#CDDAE1" d="M128.961,133.37c0,4.207,3.408,7.62,7.619,7.62c4.207,0,7.617-3.413,7.617-7.62
						s-3.41-7.618-7.617-7.618C132.369,125.752,128.961,129.163,128.961,133.37z"/>
				</g>
			</g>
			<g>
				<g>
					<circle fill="#FFFFFF" cx="136.467" cy="133.369" r="5.584"/>
				</g>
			</g>
		</g>
		<g>
			<g>
				<path fill="#1D1D1B" d="M182.905,113.906c0,0.626,0.512,1.139,1.141,1.139h4.969c0.629,0,1.141-0.513,1.141-1.139l0,0
					c0-0.632-0.512-1.143-1.141-1.143h-4.969C183.416,112.763,182.905,113.274,182.905,113.906L182.905,113.906z"/>
			</g>
		</g>
		<g>
			<g>
				<path fill="#961323" d="M231.387,110.127c0-1.359,1.105-2.466,2.465-2.466c1.361,0,2.467,1.106,2.467,2.466
					s-1.105,2.466-2.467,2.466C232.492,112.593,231.387,111.487,231.387,110.127z M232.158,110.127c0,0.935,0.76,1.694,1.693,1.694
					c0.936,0,1.697-0.76,1.697-1.694c0-0.936-0.762-1.695-1.697-1.695C232.918,108.432,232.158,109.192,232.158,110.127z"/>
			</g>
		</g>
		<g>
			<g>
				<path fill="#FFF9D1" d="M114.705,119.786c0,0,2.58,0.537,2.344,2.459c-0.236,1.921-0.998,4.286-0.998,4.286l-2.135,1.331
					C113.916,127.863,113.198,124.375,114.705,119.786z"/>
			</g>
		</g>
		<g>
			<g>
				<path fill="#54566D" d="M258.123,117.364c0-0.426,0.346-0.771,0.771-0.771h20.889c0.424,0,0.77,0.345,0.77,0.771
					c0,0.427-0.346,0.771-0.77,0.771h-20.889C258.469,118.135,258.123,117.79,258.123,117.364z"/>
			</g>
			<g>
				<path fill="#54566D" d="M258.989,121.454l10.443,1.295c0.422,0.052,0.723,0.438,0.67,0.859c-0.047,0.39-0.381,0.676-0.764,0.676
					c-0.031,0-0.062-0.001-0.096-0.006l-10.443-1.295c-0.422-0.052-0.723-0.437-0.67-0.859
					C258.182,121.702,258.565,121.395,258.989,121.454z"/>
			</g>
		</g>
		<g>
			<path fill="#1D1D1B" d="M163.873,83.529h55.369c0,0,5.068-0.905,9.305,4.813s13.15,19.571,13.15,19.571l-11.322-1.814
				c0,0-3.098-17.091-9.221-19.38c-4.326-1.616-17.129-1.52-24.277-1.323v20.68h-2.031V85.458c-1.814,0.062-2.939,0.117-2.939,0.117
				h-26.229l-19.729,20.704l-5.045,0.204L163.873,83.529z"/>
		</g>
		<g>
			<g>
				<path fill="#F29100" d="M244.262,126.71c0,0.37,0.301,0.668,0.67,0.668h2.977c0.369,0,0.668-0.298,0.668-0.668l0,0
					c0-0.371-0.299-0.67-0.668-0.67h-2.977C244.563,126.04,244.262,126.339,244.262,126.71L244.262,126.71z"/>
			</g>
		</g>
		<g>
			<g>
				<path fill="#FFF9D1" d="M244.69,119.612c0,0.954,0.775,1.73,1.73,1.73c0.562,0,1.064-0.27,1.381-0.687
					c-0.336-1.056-0.518-1.613-0.844-2.688c-0.053-0.171-0.35-0.086-0.537-0.086C245.465,117.881,244.69,118.656,244.69,119.612z"/>
			</g>
		</g>
		<g>
			<path fill="#3CB8C0" d="M153.504,129.457c-0.002-0.006-0.004-0.012-0.004-0.017h0.148L153.504,129.457z"/>
		</g>
		<g>
			<polygon fill="#961323" points="197.887,107.661 198.703,109.816 198.729,128.69 197.959,128.69 197.959,110.023 
				197.061,107.661 			"/>
		</g>
		<g>
			<path fill="#961323" d="M136.479,113.503c6.193,0,11.701,3.151,14.922,8.005v-10.621l1.451-2.974h0.857l-1.537,3.151v11.615
				h-0.064c0.998,1.787,1.707,3.762,2.049,5.875h-0.799c-1.371-8.2-8.463-14.281-16.879-14.281c-8.496,0-15.59,6.136-16.906,14.416
				h-0.777C120.119,119.976,127.559,113.503,136.479,113.503z"/>
		</g>
		<g>
			<path fill="#961323" d="M226.908,113.299c6.68,0,12.559,3.67,15.635,9.185l4.957,0.02l-0.004,0.771l-4.547-0.018
				c0.828,1.674,1.4,3.5,1.676,5.434h-0.781c-1.232-8.371-8.404-14.62-16.936-14.62c-8.566,0-15.705,6.237-16.936,14.62h-0.777
				C210.432,119.871,217.92,113.299,226.908,113.299z"/>
		</g>
	</g>
</g>
</svg>
