<?xml version="1.0" encoding="utf-8"?>
<!-- Generator: Adobe Illustrator 16.0.0, SVG Export Plug-In . SVG Version: 6.00 Build 0)  -->
<!DOCTYPE svg PUBLIC "-//W3C//DTD SVG 1.1//EN" "http://www.w3.org/Graphics/SVG/1.1/DTD/svg11.dtd">
<svg version="1.1" id="Layer_1" xmlns="http://www.w3.org/2000/svg" xmlns:xlink="http://www.w3.org/1999/xlink" x="0px" y="0px"
	 width="226.77px" height="226.77px" viewBox="0 0 226.77 226.77" enable-background="new 0 0 226.77 226.77" xml:space="preserve">
<g>
	<path fill="#EB668C" d="M171.461,103.507l-8.328,25.441l-15.732-29.134l-2.4,20.16l18.369,24.471
		c0.762,1.042,1.725,2.112,2.949,3.195c3.047,2.693,5.396-4.439,5.396-4.439l6.348-35.085L171.461,103.507z"/>
	<path fill="#EB668C" d="M76.721,116.401l-8.669-14.88l-9.245,22.215l-3.14-21.188l-7.73-2.25l0.299,30.574
		c0,0-0.299,16.721,10.175,14.342c2.089-0.475,2.661-2.499,2.739-4.311L76.721,116.401z"/>
	<path fill="#E4133A" d="M149.227,107.114c0-1.101-0.551-2.07-1.389-2.658c1.106-0.519,1.877-1.633,1.877-2.936
		c0-1.795-1.455-3.25-3.25-3.25c-0.491,0-0.953,0.117-1.37,0.312c-9.976-5.465-63.872-1.179-74.838-0.241
		c-0.727-0.286-1.555-0.322-2.341-0.022c-1.677,0.64-2.519,2.519-1.878,4.195c0.392,1.029,1.252,1.738,2.244,1.988
		c-0.849,0.879-1.172,2.196-0.707,3.412c0.392,1.028,1.251,1.738,2.244,1.989c-0.848,0.878-1.171,2.195-0.708,3.412
		c0.393,1.029,1.252,1.739,2.245,1.989c-0.849,0.879-1.172,2.195-0.708,3.412c0.64,1.678,2.518,2.518,4.194,1.879
		c0.265-0.102,0.5-0.242,0.722-0.399l1.604,4.786l3.195,35.676l58.497-4.58l0.072-15.252l5.621-11.354l0.373-7.93
		c0.025,0.001,0.049,0.008,0.074,0.008c1.795,0,3.25-1.455,3.25-3.25c0-1.101-0.551-2.07-1.389-2.658
		c1.106-0.518,1.877-1.633,1.877-2.935c0-1.101-0.551-2.07-1.389-2.658C148.456,109.531,149.227,108.416,149.227,107.114z"/>
	<path fill="#EB668C" d="M108.01,117.057c0,0-6.564-6.188-11.454,0.139c-4.891,6.328,12.594,16.141,12.594,16.141
		s13.535-10.73,13.945-16.279C123.506,111.508,112.339,109.389,108.01,117.057z"/>
	<g>
		<path fill="#E0B475" d="M167.808,110.032c-0.13,0-0.261-0.017-0.391-0.052l-2.988-0.805c-0.408-0.11-0.751-0.387-0.944-0.762
			c-0.193-0.376-0.219-0.816-0.071-1.211l20.834-55.687c0.286-0.762,1.124-1.158,1.895-0.893c0.769,0.265,1.187,1.094,0.941,1.87
			l-17.846,56.491C169.036,109.621,168.447,110.032,167.808,110.032z"/>
	</g>
	<path fill="#FCE4DB" d="M176.215,101.169c0,0,2.816-7.782,0-8.678c-2.818-0.896-4.818,1.965-4.818,3.368c0,0.868,0,2.69,0,3.957
		c-3.697-0.929-8.266-1.799-8.85-0.602c-1,2.049-0.273,3.624,0.834,4.25c1.314,0.744,2.916,1.333,2.916,1.333
		s-5.082,0.103-5.416,1.77s-0.055,3.48,1.916,3.647c1.051,0.089,2.6,0.715,2.6,0.715s-3.939,0.296-4,1.852
		c-0.098,2.516,0.65,3.432,5.316,4.766c0.029,0.008,0.057,0.018,0.086,0.025c-0.652,0.342-1.113,0.75-1.113,1.225
		c0,1.678,0.682,2.668,3.861,2.334c3.18-0.332,5.924-0.545,5.924-0.545S183.031,112.742,176.215,101.169z"/>
	<g>
		<path fill="#E0B475" d="M52.027,106.181c-0.273,0-0.545-0.075-0.783-0.221c-0.36-0.221-0.611-0.583-0.69-0.998L39.405,46.561
			c-0.152-0.799,0.359-1.574,1.154-1.747c0.792-0.172,1.583,0.318,1.776,1.108l14.118,57.535c0.192,0.78-0.266,1.572-1.037,1.797
			l-2.97,0.866C52.309,106.161,52.168,106.181,52.027,106.181z"/>
	</g>
	<path fill="#FCE4DB" d="M61.046,103.693c-0.334-1.667-5.416-1.77-5.416-1.77s1.603-0.589,2.917-1.333
		c1.106-0.626,1.833-2.201,0.833-4.25c-0.584-1.197-5.152-0.327-8.85,0.602c0-1.267,0-3.089,0-3.957c0-1.403-2-4.264-4.818-3.368
		c-2.816,0.896,0,8.678,0,8.678c-6.816,11.573,0.744,19.417,0.744,19.417s2.744,0.213,5.924,0.547
		c3.18,0.332,3.861-0.658,3.861-2.334c0-0.477-0.461-0.883-1.112-1.227c0.028-0.008,0.056-0.016,0.085-0.023
		c4.666-1.334,5.414-2.25,5.316-4.767c-0.061-1.556-4-1.852-4-1.852s1.55-0.626,2.6-0.715
		C61.101,107.174,61.38,105.36,61.046,103.693z"/>
	<g>
		<g>
			<path fill="#8F9AA1" d="M58.678,167.041v32.262c0,0,28.516,12.018,49.994,10.121c21.478-1.898,44.251-9.49,44.251-9.49V156.92
				c0,0-18.74,4.428-49.222,5.061c-30.482,0.633-45.023,0-45.023,0V167.041z"/>
		</g>
		<g>
			<path fill="#B5B5B5" d="M51.396,155.022v9.488c0,0,8.645,17.186,46.178,16.764c37.534-0.422,61.043-6.959,63.889-12.967
				c2.848-6.01,0-15.498,0-15.498s-7.59-6.959-21.822-10.121C125.406,139.524,65.313,135.834,51.396,155.022z"/>
		</g>
		<g>
			<ellipse fill="#DFDFDF" cx="106.548" cy="156.92" rx="49.024" ry="13.6"/>
		</g>
		<g>
			<path fill="#8F8F8E" d="M58.678,153.989c0,0,9.161-11.553,50.283-10.67c29.519,0.635,39.22,4.113,43.962,9.191
				c-4.342-1.74-7.258-3.852-33.93-6.344C92.016,143.645,61.532,149.16,58.678,153.989z"/>
		</g>
		<g>
			<path fill="#7E7E7E" d="M148.178,205.231c-0.764,0-1.417-0.581-1.491-1.357l-2.846-29.732c-0.079-0.824,0.525-1.557,1.351-1.636
				c0.806-0.087,1.557,0.525,1.636,1.351l2.846,29.732c0.079,0.824-0.525,1.557-1.351,1.636
				C148.275,205.229,148.226,205.231,148.178,205.231z"/>
		</g>
		<g>
			<path fill="#7E7E7E" d="M131.286,209.026c-0.799,0-1.464-0.63-1.498-1.437l-1.424-33.527c-0.035-0.827,0.607-1.527,1.436-1.562
				c0.813-0.035,1.527,0.607,1.562,1.436l1.424,33.527c0.035,0.827-0.607,1.527-1.436,1.562
				C131.329,209.026,131.308,209.026,131.286,209.026z"/>
		</g>
		<g>
			<path fill="#7E7E7E" d="M110.821,213.133c-0.799,0-1.463-0.63-1.498-1.437l-1.423-33.525c-0.035-0.827,0.607-1.527,1.435-1.562
				c0.832-0.038,1.527,0.607,1.562,1.436l1.423,33.525c0.035,0.827-0.607,1.527-1.435,1.562
				C110.864,213.133,110.843,213.133,110.821,213.133z"/>
		</g>
		<g>
			<path fill="#7E7E7E" d="M88.445,211.125c-0.799,0-1.463-0.63-1.498-1.437l-1.423-33.525c-0.035-0.827,0.607-1.527,1.435-1.562
				c0.822-0.026,1.527,0.607,1.562,1.436l1.423,33.525c0.035,0.827-0.607,1.527-1.435,1.562
				C88.488,211.125,88.467,211.125,88.445,211.125z"/>
		</g>
		<g>
			<path fill="#7E7E7E" d="M68.832,207.127c-0.799,0-1.463-0.63-1.498-1.437l-1.424-33.525c-0.035-0.827,0.607-1.527,1.435-1.562
				c0.83-0.039,1.527,0.607,1.562,1.436l1.424,33.525c0.035,0.827-0.607,1.527-1.435,1.562
				C68.875,207.127,68.853,207.127,68.832,207.127z"/>
		</g>
	</g>
	<path fill="#F29100" d="M115.147,17.537c0,0,39.75,4.235,44.436,46.875c2.148,19.556,0,24.69,0,24.69l-29.043,1.022L115.147,17.537
		z"/>
	<path fill="#F29100" d="M103.058,17.603c0,0-39.75,4.169-44.436,46.809c-2.148,19.556,0,24.69,0,24.69l29.043,1.022L103.058,17.603
		z"/>
	<g>
		<path fill="#FCE4DB" d="M146.504,52.583c-0.139,0-0.273,0.014-0.412,0.021c-2.756-19.268-19.32-34.082-39.35-34.082
			c-20.062,0-36.646,14.861-39.363,34.175c-0.43-0.068-0.867-0.113-1.316-0.113c-4.637,0-8.393,3.758-8.393,8.393
			c0,4.637,3.756,8.395,8.393,8.395c0.832,0,1.637-0.126,2.396-0.352c4.686,16.742,20.045,29.025,38.283,29.025
			c18.165,0,33.471-12.184,38.225-28.82c0.498,0.092,1.012,0.146,1.537,0.146c4.635,0,8.393-3.758,8.393-8.395
			C154.897,56.341,151.139,52.583,146.504,52.583z"/>
	</g>
	<g>
		<circle fill="#F4A689" cx="83.508" cy="75.481" r="8.393"/>
	</g>
	<g>
		<path fill="#575756" d="M86.338,56.873c4.211,0,7.391,3.084,7.535,3.225c0.59,0.58,0.596,1.531,0.016,2.121
			c-0.58,0.588-1.527,0.596-2.119,0.02l0,0c-0.027-0.027-2.818-2.723-6.08-2.328c-2.104,0.25-4.039,1.752-5.754,4.467
			c-0.441,0.701-1.367,0.906-2.068,0.467c-0.701-0.443-0.91-1.369-0.467-2.068c2.229-3.529,4.908-5.496,7.965-5.848
			C85.693,56.89,86.019,56.873,86.338,56.873z"/>
	</g>
	<g>
		<path fill="#575756" d="M126.858,57.064c0.32,0,0.645,0.018,0.975,0.055c3.055,0.352,5.734,2.32,7.963,5.848
			c0.443,0.699,0.234,1.625-0.467,2.068c-0.701,0.441-1.627,0.232-2.068-0.467c-1.721-2.723-3.662-4.227-5.771-4.469
			c-3.229-0.371-6.031,2.299-6.061,2.326c-0.588,0.582-1.539,0.574-2.121-0.016c-0.58-0.59-0.574-1.541,0.016-2.121
			C119.467,60.148,122.649,57.064,126.858,57.064z"/>
	</g>
	<g>
		<path fill="#575756" d="M111.844,77.161h-11.211V57.206c0-0.828,0.67-1.5,1.5-1.5c0.828,0,1.5,0.672,1.5,1.5v16.955h8.211
			c0.828,0,1.5,0.672,1.5,1.5S112.672,77.161,111.844,77.161z"/>
	</g>
	<g>
		<path fill="#F29100" d="M143.983,39.916c0,0-11.684-22.139-32.139-22.73c-25.285-0.734-34.736,11.861-41.852,23.791
			c0,0-6.367,8.274,0,17.587c1.851,2.708,1.912,2.602,1.912,2.602l4.217-19.591c6.143,0.582,15.668,1.438,22.67,1.848
			c1.082,0.064,5.467-2.449,6.602-2.818c-0.441,1.26-0.947,1.658-1.557,3.041c2.098,0.045,3.52-0.014,3.875-0.225
			c2.004-1.186,7.862-3.504,7.862-3.504l1.451,3.742l19.598-2.721l5.123,20.036c0,0,0.457,0.344,2.238-2.41
			C149.655,49.794,143.983,39.916,143.983,39.916z"/>
	</g>
	<g>
		<circle fill="#F4A689" cx="130.539" cy="75.481" r="8.393"/>
	</g>
	<path fill="#FFFDF1" d="M99.317,83.254h15.642c0,0-1.242,9-7.821,9C102.412,92.254,99.317,90.004,99.317,83.254z"/>
</g>
</svg>
