<?xml version="1.0" encoding="utf-8"?>
<!-- Generator: Adobe Illustrator 16.0.0, SVG Export Plug-In . SVG Version: 6.00 Build 0)  -->
<!DOCTYPE svg PUBLIC "-//W3C//DTD SVG 1.1//EN" "http://www.w3.org/Graphics/SVG/1.1/DTD/svg11.dtd">
<svg version="1.1" id="Layer_1" xmlns="http://www.w3.org/2000/svg" xmlns:xlink="http://www.w3.org/1999/xlink" x="0px" y="0px"
	 width="226.77px" height="271.5px" viewBox="0 -18 226.77 271.5" enable-background="new 0 -18 226.77 271.5" xml:space="preserve"
	>
<path fill="#F4D9BE" d="M149.299,104.826c0,0-6.689-7.065-7.645-7.901c-0.684-0.599-9.301-2.903-14.152-4.167
	c-0.48-2.344-0.957-4.657-1.264-6.156c10.586-7.701,14.631-21.818,9.488-34.054c-6.07-0.109-13.652-0.501-21.188-1.73
	c-11.056-1.803-25.604,2.755-32.635,5.338c-1.782,6.616-1.2,13.891,2.184,20.462c4.765,9.253,13.894,14.782,23.578,15.392v2.405
	c-2.231,0.542-4.882,1.339-7.727,2.511c-7.906,3.257-7.643,10.07-9.871,14.822c-2.228,4.75-3.185,14.355-4.14,18.66
	c-0.89,4.012-0.398,24.725-0.069,32.695c-1.492,4.559,1.351,7.512,1.351,7.512s1.365,0.105,2.946,0.27
	c1.58,0.166,1.92-0.326,1.92-1.158c0-0.236-0.23-0.441-0.555-0.609c0.016-0.006,0.028-0.01,0.042-0.014
	c2.322-0.662,2.693-1.119,2.646-2.369c-0.03-0.773-1.988-0.922-1.988-0.922s0.77-0.311,1.292-0.355
	c0.979-0.082,1.117-0.984,0.952-1.814c-0.166-0.826-2.692-0.879-2.692-0.879s0.795-0.291,1.45-0.662
	c0.549-0.311,0.91-1.094,0.413-2.113c-0.204-0.418-1.388-0.328-2.712-0.078c0.01-4.096,0.256-10.029,1.416-14.383
	c1.953-7.324,1.975-22.023,1.975-22.023s0.646,0,1.774,0.002c-0.125,3.473-0.288,8.455-0.288,10.559
	c0,3.385-3.461,17.158-3.461,17.158s45.119-0.883,51.381-0.932c0.119,4.256,0.225,8.396,0.307,11.834
	c-0.395,0.018-0.672,0.104-0.762,0.287c-0.496,1.018-0.137,1.801,0.414,2.113c0.133,0.074,0.273,0.146,0.41,0.213
	c0.004,0.182,0.01,0.361,0.014,0.537c-0.721,0.102-1.572,0.322-1.666,0.791c-0.166,0.83-0.027,1.73,0.953,1.814
	c0.24,0.02,0.531,0.098,0.777,0.174c0.002,0.084,0.004,0.166,0.006,0.248c-0.584,0.102-1.459,0.336-1.48,0.854
	c-0.047,1.252,0.322,1.707,2.645,2.369c0.014,0.004,0.027,0.01,0.041,0.014c-0.324,0.17-0.553,0.371-0.553,0.609
	c0,0.832,0.34,1.324,1.92,1.16c1.58-0.166,2.945-0.271,2.945-0.271s3.326-3.453,0.896-8.654c0.205-3.172,2.244-34.572,2.85-36.688
	C154.074,125.465,149.299,104.826,149.299,104.826z M140.944,124.235c1.004,0.082,1.6,0.172,1.666,0.273
	c0.33,0.492,0.75,12.838,1.082,24.668C142.26,144.582,141.287,130.086,140.944,124.235z"/>
<g>
	<polygon fill="#39A935" points="138.91,197.088 125.809,197.088 125.729,179.875 115.225,179.875 114.385,197.088 92.989,193.901 
		87.563,139.723 148.196,142.153 	"/>
</g>
<g>
	<g>
		<path fill="#F4D9BE" d="M128.93,29.829c0,0,2.201-9.27,9.277-13.003C145.457,13,151.817,13,151.817,13
			s-7.588,17.214-11.445,22.474c-3.855,5.26-11.441,5.737-11.441,5.737V29.829z"/>
	</g>
	<g>
		<path fill="#F4D9BE" d="M79.275,37.864c0,0-1.116-7.65-9.49-10.759c-8.373-3.107-15.267-4.064-15.267-4.064
			s4.212,15.779,9.378,21.518c5.166,5.737,15.379,5.848,15.379,5.848V37.864z"/>
	</g>
	<g>
		<path fill="#E0C7A3" d="M131.346,29.62c0,0,3.41-6.291,6.93-7.56c3.521-1.268,6.273-2.146,6.273-2.146s-5.221,11.9-8.896,15.316
			C131.977,38.648,131.346,29.62,131.346,29.62z"/>
	</g>
	<g>
		<path fill="#E0C7A3" d="M78.238,40.54c0,0-4.128-5.846-7.773-6.689c-3.646-0.844-6.482-1.391-6.482-1.391
			s6.588,11.202,10.64,14.16C78.675,49.58,78.238,40.54,78.238,40.54z"/>
	</g>
	<g>
		<g>
			<circle fill="#F7BEAA" cx="104.001" cy="115.647" r="1.99"/>
		</g>
		<g>
			<circle fill="#F29C92" cx="104.001" cy="115.647" r="0.876"/>
		</g>
	</g>
	<g>
		<circle fill="#F7BEAA" cx="133.535" cy="115.647" r="1.99"/>
	</g>
	<g>
		<circle fill="#F29C92" cx="133.534" cy="115.647" r="0.876"/>
	</g>
	<g>
		<polygon fill="#F4D9BE" points="115.225,240.961 103.299,241.188 102.196,194.821 114.121,194.592 		"/>
	</g>
	<g>
		<rect x="126.387" y="194.867" fill="#F4D9BE" width="11.928" height="46.379"/>
	</g>
	<g>
		<path fill="#00A070" d="M125.729,221.162h17.066v9.564c0,0,2.908,2.549,4.184,2.869c1.273,0.318,7.961,0.404,9.555,1.996
			c1.594,1.594-3.037,6.592-3.037,6.592l-27.768,0.654V221.162z"/>
	</g>
	<g>
		<polygon fill="#00A070" points="136.258,150.449 131.082,150.449 131.082,93.702 136.258,95.123 		"/>
	</g>
	<g>
		<path fill="#00A070" d="M101.906,153.014h-5.175c0,0,0.306-54.698,0.305-54.497c1.449-1.251,4.87-2.356,4.87-2.356V153.014z"/>
	</g>
	<g>
		<g>
			<circle fill="#F4A689" cx="128.102" cy="77.634" r="4.871"/>
		</g>
	</g>
	<g>
		<g>
			<circle fill="#F4A689" cx="101.906" cy="82.504" r="4.871"/>
		</g>
	</g>
	<g>
		<circle fill="#575756" cx="131.081" cy="72.95" r="1.927"/>
	</g>
	<path fill="#39A935" d="M131.51,24.757c-6.658-9.306-13.387-13.894-20.099-21.017c0.002,0.008,1.785,5.053,1.785,7.282
		c0,2.231,0.318,5.419-1.785,4.144C109.307,13.891,104-7.069,104-7.069S94.199,13.76,82.816,24.757
		c-11.385,10.998-10.611,28.211-5.658,37.896c4.954,9.685,13.108,8.104,17.414,5.404l2.877-7.916l1.869,5.935l2.819-4.255
		c0,0,0.001,0,0.001,0l1.111,3.139l1.382-2.567c6.903,1.341,18.306,1.608,32.123-5.489C142.846,53.773,141.34,38.494,131.51,24.757z
		"/>
	<g>
		<circle fill="#575756" cx="97.035" cy="82.504" r="1.927"/>
	</g>
	<g>
		<g>
			<path fill="#575756" d="M122.449,84.418l-9.246,1.971l-3.509-16.461c-0.146-0.684,0.288-1.354,0.973-1.501
				c0.683-0.144,1.357,0.291,1.501,0.975l2.982,13.985l6.773-1.443c0.682-0.145,1.355,0.291,1.5,0.974
				C123.571,83.6,123.133,84.272,122.449,84.418z"/>
		</g>
	</g>
	<g>
		<path fill="#575756" d="M90.219,74.747c-0.699,0-1.324-0.491-1.469-1.202c-0.165-0.812,0.36-1.604,1.172-1.769l40.862-8.288
			c0.805-0.162,1.604,0.359,1.768,1.172c0.166,0.812-0.359,1.604-1.172,1.769l-40.861,8.288
			C90.418,74.737,90.317,74.747,90.219,74.747z"/>
	</g>
	<g>
		<path fill="#00A070" d="M143.141,233.596c0,0,10.109,0.871,14.096,0c3.986-0.873,6.615-3.023,6.615-3.023
			s-5.602,11.541-7.602,11.541c-1.998,0-13.109,0.158-13.109,0.158V233.596z"/>
	</g>
	<g>
		<path fill="#00A070" d="M116.756,220.596H99.693v9.562c0,0-2.909,2.551-4.184,2.869c-1.275,0.318-7.963,0.404-9.556,1.998
			s3.038,6.592,3.038,6.592l27.765,0.654V220.596z"/>
	</g>
	<g>
		<path fill="#00A070" d="M99.347,233.028c0,0-10.109,0.871-14.096,0c-3.987-0.871-6.617-3.021-6.617-3.021
			s5.603,11.541,7.603,11.541c1.999,0,13.11,0.158,13.11,0.158V233.028z"/>
	</g>
	<g>
		<path fill="#BA9B86" d="M134.633,204.694c-0.275,0-0.5-0.224-0.5-0.5c0-0.128,0.021-3.142,1.828-4.466
			c0.225-0.163,0.537-0.114,0.699,0.107c0.164,0.224,0.115,0.536-0.107,0.699c-1.164,0.853-1.42,2.931-1.42,3.659
			C135.133,204.47,134.91,204.694,134.633,204.694z"/>
	</g>
	<g>
		<path fill="#BA9B86" d="M131.082,203.739c-0.221,0-0.422-0.146-0.482-0.368c-0.008-0.027-0.318-1.035-1.775-2.312
			c-0.207-0.183-0.227-0.498-0.045-0.706c0.182-0.207,0.498-0.228,0.705-0.046c1.725,1.513,2.066,2.753,2.08,2.805
			c0.07,0.268-0.088,0.541-0.355,0.611C131.166,203.734,131.123,203.739,131.082,203.739z"/>
	</g>
	<g>
		<path fill="#BA9B86" d="M133.008,210.512c-0.119,0-0.24-0.043-0.336-0.131c-0.205-0.186-0.219-0.502-0.033-0.706
			c0.381-0.419,2.344-2.521,3.51-2.782c0.271-0.057,0.535,0.109,0.598,0.379c0.059,0.27-0.109,0.537-0.379,0.598
			c-0.633,0.142-2.129,1.535-2.99,2.479C133.28,210.457,133.145,210.512,133.008,210.512z"/>
	</g>
	<g>
		<path fill="#BA9B86" d="M130.119,215.055c-0.146,0-0.291-0.063-0.389-0.186c-0.021-0.025-2.041-2.499-4.105-2.935
			c-0.27-0.057-0.441-0.322-0.385-0.593s0.326-0.437,0.592-0.386c2.414,0.51,4.584,3.172,4.676,3.285
			c0.174,0.215,0.139,0.529-0.074,0.702C130.34,215.019,130.229,215.055,130.119,215.055z"/>
	</g>
	<g>
		<path fill="#BA9B86" d="M135.446,217.135L135.446,217.135c-0.275,0-0.5-0.224-0.5-0.5c0-0.413,0.037-4.068,1.273-5.266
			c0.299-0.29,0.668-0.419,1.047-0.424c0.275,0.009,0.492,0.24,0.482,0.517c-0.008,0.271-0.23,0.483-0.5,0.483
			c-0.008,0-0.02-0.001-0.031-0.001c-0.074,0-0.176,0.021-0.303,0.144c-0.705,0.681-0.967,3.15-0.969,4.547
			C135.946,216.911,135.723,217.135,135.446,217.135z"/>
	</g>
	<g>
		<path fill="#BA9B86" d="M112.864,204.694c-0.094,0-0.188-0.026-0.272-0.081c-0.231-0.15-0.297-0.46-0.146-0.691
			c0.406-0.625,2.513-3.739,4.111-3.739c0.287-0.003,0.504,0.224,0.502,0.502c0,0.275-0.225,0.498-0.5,0.498
			c-0.002,0-0.002,0-0.004,0c-0.773,0-2.408,1.959-3.271,3.284C113.188,204.614,113.028,204.694,112.864,204.694z"/>
	</g>
	<g>
		<path fill="#BA9B86" d="M107.351,202.938c-0.158,0-0.314-0.075-0.411-0.215l-2.43-3.496c-0.158-0.227-0.102-0.538,0.125-0.695
			c0.226-0.158,0.538-0.103,0.696,0.125l2.43,3.496c0.158,0.227,0.102,0.538-0.125,0.695
			C107.549,202.908,107.45,202.938,107.351,202.938z"/>
	</g>
	<g>
		<path fill="#BA9B86" d="M107.683,209.198c-0.066,0-0.135-0.014-0.2-0.042c-0.251-0.109-0.367-0.4-0.261-0.652
			c0.047-0.118,0.382-1.127-1.418-1.854c-0.256-0.104-0.38-0.395-0.277-0.651c0.104-0.256,0.397-0.378,0.651-0.276
			c1,0.403,1.652,0.965,1.939,1.669c0.32,0.785,0.055,1.436,0.024,1.507C108.06,209.085,107.876,209.198,107.683,209.198z"/>
	</g>
	<g>
		<path fill="#BA9B86" d="M112.311,209.198c-0.128,0-0.257-0.05-0.354-0.148c-0.194-0.195-0.193-0.512,0.003-0.707
			c0.539-0.535,3.312-3.179,4.96-2.631c0.262,0.087,0.404,0.369,0.318,0.632c-0.088,0.262-0.371,0.405-0.633,0.317
			c-0.791-0.257-2.814,1.275-3.942,2.393C112.566,209.15,112.439,209.198,112.311,209.198z"/>
	</g>
	<g>
		<path fill="#BA9B86" d="M108.712,216.072c-0.17,0-0.335-0.086-0.429-0.242c-0.009-0.015-0.899-1.466-2.382-1.74
			c-0.271-0.05-0.451-0.311-0.401-0.582c0.05-0.272,0.312-0.455,0.583-0.4c1.935,0.356,3.014,2.135,3.059,2.21
			c0.141,0.236,0.063,0.543-0.173,0.685C108.887,216.049,108.799,216.072,108.712,216.072z"/>
	</g>
	<g>
		<path fill="#BA9B86" d="M113.633,218.242c-0.112,0-0.227-0.038-0.319-0.116c-0.213-0.177-0.241-0.492-0.064-0.704
			c0.904-1.085,2.568-2.824,3.55-2.289c0.242,0.133,0.332,0.437,0.199,0.679s-0.436,0.331-0.678,0.2
			c-0.285,0.003-1.404,0.974-2.305,2.051C113.918,218.181,113.776,218.242,113.633,218.242z"/>
	</g>
	<g>
		<path fill="#BA9B86" d="M103.78,210.512c-0.061,0-0.123-0.011-0.183-0.034l-3.348-1.314c-0.257-0.102-0.384-0.392-0.283-0.648
			c0.101-0.258,0.391-0.385,0.648-0.283l3.348,1.314c0.257,0.102,0.384,0.392,0.283,0.648
			C104.168,210.392,103.979,210.512,103.78,210.512z"/>
	</g>
	<g>
		<path fill="#BA9B86" d="M104.921,219.039c-0.076,0-0.154-0.018-0.227-0.055l-3.732-1.904c-0.246-0.125-0.344-0.427-0.218-0.673
			c0.125-0.246,0.425-0.345,0.672-0.218l3.732,1.904c0.246,0.125,0.344,0.427,0.218,0.673
			C105.278,218.94,105.103,219.039,104.921,219.039z"/>
	</g>
	<g>
		<path fill="#BA9B86" d="M135.526,219.676c-0.188,0-0.367-0.106-0.453-0.288c-0.176-0.378-1.855-0.916-3.594-1.15
			c-0.275-0.036-0.467-0.288-0.43-0.562c0.037-0.274,0.295-0.477,0.562-0.429c0.893,0.12,3.846,0.6,4.367,1.717
			c0.117,0.25,0.01,0.548-0.24,0.665C135.67,219.661,135.598,219.676,135.526,219.676z"/>
	</g>
	<g>
		<path fill="#683B11" d="M100.87,150.266c-0.119,0-0.239-0.042-0.334-0.128l-2.943-2.646c-0.205-0.185-0.222-0.501-0.037-0.706
			c0.185-0.206,0.501-0.222,0.706-0.038l2.943,2.646c0.205,0.185,0.222,0.501,0.037,0.706
			C101.143,150.21,101.007,150.266,100.87,150.266z"/>
	</g>
	<g>
		<path fill="#683B11" d="M97.927,150.266c-0.137,0-0.273-0.056-0.372-0.166c-0.185-0.205-0.168-0.521,0.037-0.706l2.943-2.646
			c0.205-0.185,0.521-0.169,0.706,0.038c0.185,0.205,0.168,0.521-0.037,0.706l-2.943,2.646
			C98.166,150.224,98.046,150.266,97.927,150.266z"/>
	</g>
	<g>
		<path fill="#683B11" d="M134.844,148.946c-0.127,0-0.254-0.049-0.352-0.146l-2.697-2.684c-0.195-0.195-0.195-0.512-0.002-0.707
			c0.195-0.197,0.512-0.195,0.707-0.002l2.697,2.684c0.195,0.195,0.195,0.512,0.002,0.707
			C135.102,148.897,134.973,148.946,134.844,148.946z"/>
	</g>
	<g>
		<path fill="#683B11" d="M132.149,149.158c-0.115,0-0.23-0.039-0.324-0.119c-0.211-0.18-0.236-0.495-0.057-0.705l2.789-3.275
			c0.182-0.211,0.496-0.235,0.705-0.057c0.211,0.18,0.236,0.495,0.057,0.705l-2.789,3.275
			C132.43,149.099,132.289,149.158,132.149,149.158z"/>
	</g>
</g>
</svg>
