<?xml version="1.0" encoding="utf-8"?>
<!-- Generator: Adobe Illustrator 16.0.0, SVG Export Plug-In . SVG Version: 6.00 Build 0)  -->
<!DOCTYPE svg PUBLIC "-//W3C//DTD SVG 1.1//EN" "http://www.w3.org/Graphics/SVG/1.1/DTD/svg11.dtd">
<svg version="1.1" id="Layer_1" xmlns="http://www.w3.org/2000/svg" xmlns:xlink="http://www.w3.org/1999/xlink" x="0px" y="0px"
	 width="226.77px" height="226.77px" viewBox="0 0 226.77 226.77" enable-background="new 0 0 226.77 226.77" xml:space="preserve">
<g>
	<path fill="#E0B684" d="M176.925,143.184c0,0-1.342-4.729-5.994-9.366c-4.65-4.637-18.006-6.714-22.692-12.605
		c-4.686-5.892-13.247-27.099-20.986-32.259s-20.334-8.08-27.058-5.058c-6.723,3.022-13.827,6.696-13.241,14.085
		s20.145,25.162,37.021,24.49C140.851,121.799,170.898,147.497,176.925,143.184z"/>
</g>
<g>
	<path fill="#D0A97C" d="M100.115,108.013c0,0,15.704-1.226,22.938,4.626c6.873,5.561,11.899,15.592,11.899,15.592
		s-28.013-8.486-32.577-13.656C97.815,109.406,100.115,108.013,100.115,108.013z"/>
</g>
<g>
	<path fill="#E3E1D2" d="M176.925,143.184c0,0-5.361,0.154-10.044-4.008c-4.682-4.161-4.436-9.67-17.813-12.912
		c-13.378-3.243-25.013-1.98-29.22-3.604c-4.205-1.625-16.973-9.107-18.934-12.004c-1.961-2.895-8.636-8.809-8.636-8.809
		s2.277-11.696,5.614-14.925c3.338-3.228,14.492-4.218,19.641-2.485s8.713,4.514,11.179,6.323
		c2.469,1.808,9.068,12.068,9.068,12.068s-0.285-15.168-24.188-21.846c-13.298-3.715-24.087,8.327-25.1,10.503
		c-1.012,2.178-4.376,6.568-6.406,5.955c-2.03-0.614-4.098-2.569-5.547-1.588c-1.448,0.982-10.284,6.467-10.284,6.467
		s-3.623-0.031-3.983,1.455s-5.976,2.183-5.938,3.524c0.038,1.341-3.258,3.448-3.258,3.448s-3.729,0.91-2.604,2.757
		c1.126,1.847-0.957,6.222,2.299,6.388c3.256,0.165,5.443,4.915,5.443,4.915s0.87,3.616,3.881,5.679
		c3.01,2.061,4.787,3.218,4.787,3.218s0.338,7.103,2.804,8.911c2.467,1.809,7.547,5.823,7.547,5.823s11.758,3.398,20.442,1.565
		s6.45-1.366,15.917-3.354c10.654-2.236,15.727-2.227,31.91-2C162.342,144.886,171.645,150.983,176.925,143.184z"/>
</g>
<g>
	<path fill="#C3C2B6" d="M56.095,119.069c-0.163,0-0.329-0.04-0.482-0.124c-0.484-0.268-0.66-0.876-0.393-1.358
		c2.258-4.093,0.153-5.611,0.062-5.674c-0.449-0.31-0.574-0.928-0.271-1.382c0.302-0.454,0.906-0.586,1.365-0.292
		c0.038,0.024,3.791,2.522,0.595,8.314C56.789,118.882,56.448,119.069,56.095,119.069z"/>
</g>
<g>
	<path fill="#C3C2B6" d="M59.741,122.834c-0.245,0-0.491-0.09-0.684-0.271c-0.403-0.377-0.424-1.01-0.046-1.413
		c5.591-5.967,2.06-14.061,2.024-14.142c-0.226-0.504,0-1.096,0.504-1.321c0.502-0.228,1.095-0.001,1.321,0.504
		c0.17,0.38,4.101,9.399-2.39,16.327C60.274,122.728,60.008,122.834,59.741,122.834z"/>
</g>
<g>
	<path fill="#C3C2B6" d="M68.138,132.073c-0.215,0-0.431-0.068-0.613-0.211c-0.436-0.339-0.515-0.967-0.175-1.403
		c0.011-0.016,1.762-2.422,2.948-9.593c1.259-7.61-1.791-16.992-1.822-17.086c-0.173-0.524,0.112-1.09,0.636-1.263
		c0.523-0.17,1.09,0.112,1.263,0.636c0.133,0.402,3.236,9.936,1.896,18.039c-1.288,7.782-3.26,10.388-3.343,10.495
		C68.731,131.941,68.436,132.073,68.138,132.073z"/>
</g>
<g>
	<path fill="#C3C2B6" d="M72.877,140.766c-0.248,0-0.496-0.092-0.69-0.276c-0.4-0.381-0.415-1.014-0.034-1.413
		c14.32-15.028,9.387-38.477,9.335-38.712c-0.118-0.54,0.224-1.072,0.763-1.191c0.537-0.117,1.072,0.223,1.191,0.763
		c0.219,1.002,5.205,24.729-9.841,40.519C73.405,140.662,73.141,140.766,72.877,140.766z"/>
</g>
<g>
	<path fill="#C3C2B6" d="M91.295,113.139c-0.021,0-0.041,0-0.061-0.002c-0.551-0.033-0.971-0.507-0.938-1.058
		c0.054-0.896,1.409-22.01,8.947-27.426c0.448-0.323,1.073-0.22,1.396,0.229c0.322,0.448,0.22,1.073-0.229,1.396
		c-6.77,4.864-8.105,25.712-8.118,25.922C92.26,112.73,91.82,113.139,91.295,113.139z"/>
</g>
</svg>
