<?xml version="1.0" encoding="utf-8"?>
<!-- Generator: Adobe Illustrator 16.0.0, SVG Export Plug-In . SVG Version: 6.00 Build 0)  -->
<!DOCTYPE svg PUBLIC "-//W3C//DTD SVG 1.1//EN" "http://www.w3.org/Graphics/SVG/1.1/DTD/svg11.dtd">
<svg version="1.1" id="Layer_1" xmlns="http://www.w3.org/2000/svg" xmlns:xlink="http://www.w3.org/1999/xlink" x="0px" y="0px"
	 width="226.77px" height="226.77px" viewBox="0 0 226.77 226.77" enable-background="new 0 0 226.77 226.77" xml:space="preserve">
<g>
	<g>
		<circle fill="#FFEF76" cx="117.447" cy="110.707" r="50.138"/>
	</g>
	<g>
		<g>
			<circle fill="#F4A68B" cx="144.02" cy="138.143" r="8.749"/>
		</g>
	</g>
	<g>
		<path fill="#F4A68B" d="M70.685,128.83c2.12,5.459,5.165,10.453,8.948,14.793c0.438-1.191,0.694-2.47,0.694-3.814
			C80.327,134.178,76.124,129.539,70.685,128.83z"/>
	</g>
	<g>
		<path fill="#FFEF76" d="M152.766,62.115c-0.71,0-1.428-0.217-2.047-0.664c-1.567-1.133-1.919-3.32-0.787-4.888l8.862-12.263
			c1.133-1.566,3.321-1.918,4.887-0.787c1.567,1.132,1.919,3.32,0.787,4.887l-8.862,12.264
			C154.921,61.611,153.851,62.115,152.766,62.115z"/>
	</g>
	<g>
		<path fill="#FFEF76" d="M127.696,52.819c-0.234,0-0.475-0.022-0.714-0.072c-1.893-0.393-3.108-2.245-2.717-4.138l4.213-20.335
			c0.393-1.893,2.249-3.109,4.138-2.717c1.893,0.393,3.108,2.245,2.717,4.137l-4.213,20.335
			C130.777,51.682,129.32,52.819,127.696,52.819z"/>
	</g>
	<g>
		<path fill="#FFEF76" d="M100.473,54.665c-1.689,0-3.177-1.228-3.452-2.95l-1.915-12.014c-0.304-1.909,0.997-3.703,2.906-4.008
			c1.905-0.31,3.702,0.996,4.007,2.906l1.915,12.015c0.304,1.908-0.997,3.702-2.906,4.007
			C100.842,54.65,100.656,54.665,100.473,54.665z"/>
	</g>
	<g>
		<path fill="#FFEF76" d="M78.15,64.253c-1.114,0-2.211-0.532-2.89-1.521l-7.814-11.398c-1.093-1.596-0.687-3.773,0.908-4.866
			c1.593-1.094,3.772-0.688,4.866,0.908l7.814,11.398c1.093,1.596,0.687,3.773-0.908,4.866
			C79.521,64.054,78.833,64.253,78.15,64.253z"/>
	</g>
	<g>
		<path fill="#FFEF76" d="M64.086,85.24c-0.474,0-0.954-0.098-1.415-0.301L32.071,71.394c-1.768-0.783-2.565-2.85-1.783-4.617
			c0.781-1.767,2.849-2.564,4.616-1.783l30.602,13.544c1.768,0.782,2.565,2.85,1.784,4.616C66.71,84.461,65.429,85.24,64.086,85.24z
			"/>
	</g>
	<g>
		<path fill="#FFEF76" d="M171.215,82.892c-1.245,0-2.45-0.666-3.083-1.839c-0.918-1.701-0.283-3.824,1.418-4.742l22.065-11.902
			c1.698-0.916,3.823-0.283,4.741,1.419c0.918,1.7,0.283,3.823-1.418,4.741l-22.064,11.903
			C172.346,82.756,171.776,82.892,171.215,82.892z"/>
	</g>
	<g>
		<path fill="#FFEF76" d="M57.522,109.721c-0.041,0-0.082,0-0.123-0.002l-17.636-0.607c-1.932-0.066-3.444-1.687-3.377-3.618
			c0.067-1.933,1.678-3.452,3.619-3.377l17.636,0.606c1.933,0.067,3.444,1.688,3.377,3.619
			C60.952,108.232,59.399,109.721,57.522,109.721z"/>
	</g>
	<g>
		<path fill="#FFEF76" d="M37.621,141.663c-1.528,0-2.933-1.01-3.367-2.553c-0.524-1.859,0.559-3.794,2.419-4.317l24.097-6.789
			c1.861-0.521,3.794,0.56,4.318,2.42c0.523,1.86-0.56,3.794-2.419,4.318l-24.098,6.789
			C38.255,141.62,37.936,141.663,37.621,141.663z"/>
	</g>
	<g>
		<path fill="#FFEF76" d="M68.432,169.771c-0.814,0-1.633-0.283-2.296-0.858c-1.458-1.271-1.612-3.479-0.343-4.938l6.905-7.936
			c1.269-1.457,3.479-1.61,4.938-0.344c1.458,1.271,1.612,3.479,0.343,4.938l-6.904,7.936
			C70.381,169.365,69.409,169.771,68.432,169.771z"/>
	</g>
	<g>
		<path fill="#FFEF76" d="M180.132,108.361c-1.933,0-3.5-1.566-3.5-3.5c0-1.933,1.566-3.5,3.5-3.5h11.686c1.934,0,3.5,1.567,3.5,3.5
			c0,1.934-1.565,3.5-3.5,3.5H180.132z"/>
	</g>
	<g>
		<path fill="#FFEF76" d="M191.815,141.644c-0.487,0-0.983-0.103-1.457-0.318l-14.772-6.773c-1.757-0.806-2.528-2.883-1.724-4.641
			c0.807-1.758,2.886-2.528,4.642-1.724l14.772,6.773c1.758,0.806,2.528,2.883,1.724,4.641
			C194.41,140.886,193.142,141.644,191.815,141.644z"/>
	</g>
	<g>
		<path fill="#FFEF76" d="M184.373,173.652c-0.854,0-1.71-0.311-2.386-0.938l-19.435-18.105c-1.414-1.316-1.493-3.531-0.175-4.945
			c1.315-1.414,3.532-1.493,4.946-0.176l19.435,18.105c1.414,1.317,1.493,3.532,0.175,4.946
			C186.246,173.278,185.311,173.652,184.373,173.652z"/>
	</g>
	<g>
		<path fill="#FFEF76" d="M143.07,178.249c-1.433,0-2.776-0.888-3.292-2.312l-2.48-6.869c-0.656-1.817,0.285-3.823,2.103-4.48
			c1.817-0.655,3.825,0.285,4.481,2.103l2.48,6.869c0.656,1.818-0.284,3.824-2.103,4.481
			C143.867,178.182,143.465,178.249,143.07,178.249z"/>
	</g>
	<g>
		<path fill="#FFEF76" d="M105.237,197.477c-0.09,0-0.18-0.003-0.271-0.01c-1.927-0.148-3.37-1.83-3.222-3.758l1.859-24.271
			c0.147-1.927,1.826-3.372,3.757-3.223c1.928,0.148,3.37,1.83,3.223,3.758l-1.86,24.271
			C108.583,196.08,107.049,197.477,105.237,197.477z"/>
	</g>
	<g>
		<path fill="#575756" d="M134.489,134.066c-0.734,0-1.467-0.06-2.194-0.179c-7-1.145-10.906-7.407-11.069-7.673
			c-0.433-0.706-0.211-1.63,0.496-2.062c0.703-0.43,1.627-0.212,2.062,0.493l0,0c0.032,0.055,3.386,5.378,9.021,6.285
			c3.737,0.604,7.736-0.848,11.871-4.311c0.634-0.532,1.582-0.449,2.112,0.187c0.531,0.635,0.448,1.581-0.188,2.112
			C142.515,132.341,138.451,134.066,134.489,134.066z"/>
	</g>
	<g>
		<path fill="#575756" d="M84.88,130.98c-0.567,0-1.145-0.045-1.728-0.146c-3.501-0.604-6.403-3.021-8.628-7.18
			c-0.391-0.729-0.114-1.639,0.615-2.028c0.73-0.393,1.639-0.116,2.03,0.615c1.766,3.301,3.95,5.196,6.493,5.637
			c4.573,0.783,9.028-3.2,9.072-3.24c0.614-0.559,1.562-0.513,2.119,0.102c0.558,0.611,0.513,1.562-0.101,2.117
			C94.551,127.043,90.153,130.98,84.88,130.98z"/>
	</g>
</g>
</svg>
