<?xml version="1.0" encoding="utf-8"?>
<!-- Generator: Adobe Illustrator 16.0.0, SVG Export Plug-In . SVG Version: 6.00 Build 0)  -->
<!DOCTYPE svg PUBLIC "-//W3C//DTD SVG 1.1//EN" "http://www.w3.org/Graphics/SVG/1.1/DTD/svg11.dtd">
<svg version="1.1" id="Layer_1" xmlns="http://www.w3.org/2000/svg" xmlns:xlink="http://www.w3.org/1999/xlink" x="0px" y="0px"
	 width="226.77px" height="226.77px" viewBox="0 0 226.77 226.77" enable-background="new 0 0 226.77 226.77" xml:space="preserve">
<g>
	<path fill="#E56F94" d="M121.341,35.128l-3.833-6.001c0,0-5.416,5.026-6.633,6.998c2.51,2.5,3,3.178,4.219,4.406L121.341,35.128z"
		/>
	<path fill="#C01E2F" d="M126.477,38.468l-0.803-6.675c-4.037,0.971-10.75,8.479-10.75,8.479s3.17,4.79,4.139,6.54
		C119.837,45.807,126.477,38.468,126.477,38.468z"/>
	<g>
		<path fill="#39A935" d="M129.549,40.583c-0.164-0.21,7.01-4.111,7.01-4.111l-3.016,10.749L129.549,40.583z"/>
	</g>
	<g>
		<path fill="#D7152B" d="M127.729,38.433c0,0,12.199,12.332,6.811,26.666c-5.39,14.334-15.507,18.667-19.948,17
			c-4.442-1.667-16.775-6.001-18.775-17.334s10.333-31.333,10.333-31.333s7.27,5.318,13.124,13.787
			C122.917,42.208,127.728,38.433,127.729,38.433z"/>
	</g>
	<path fill="#39A935" d="M147.177,74.596c0,0-4.118-1.5-11.265-2.519c-5.918-0.844-16.647,6.575-20.165,9.154
		c-2.832-2.612-9.558-8.746-12.608-10.886c-3.92-2.75-11.58-4.5-11.58-4.5s1.75,4.25,8.25,9.64
		c4.249,3.523,10.22,6.559,13.849,8.239c0,0,0.78,1.058,3.225,0.89c0.812-0.491,3.947-2.177,7.259-2.178
		C132.303,82.434,147.177,74.596,147.177,74.596z"/>
	<path fill="#E56F94" d="M128.451,38.325c-0.48-0.678-1.417-0.836-2.092-0.357c-0.232,0.166-3.894,2.818-7.308,7.854
		c-3.649-8.703-11.056-13.018-11.399-13.213c-0.721-0.408-1.637-0.157-2.045,0.563c-0.408,0.72-0.156,1.636,0.563,2.045
		c0.081,0.046,8.098,4.696,10.898,13.91c-1.082,2.045-2.057,4.353-2.764,6.951c-2.57,9.442-2.06,12.881-1.994,13.241
		c0.133,0.722,0.759,1.219,1.468,1.219c0.084,0,0.17-0.007,0.256-0.021c0.808-0.137,1.354-0.907,1.23-1.717
		c-0.005-0.031-0.446-3.189,1.935-11.933c2.896-10.64,10.793-16.38,10.894-16.451C128.77,39.936,128.929,39.001,128.451,38.325z"/>
	<path fill="#39A935" d="M120.257,165.549l-7.941,2.984c-0.452-6.546-0.814-13.768-0.977-21.307l4.415-4.131l-4.466,1.281
		c-0.143-9.983,0.104-20.436,0.984-30.573c0.146-0.034,0.29-0.069,0.434-0.125l9.868-3.899c14.962,3.259,20.461-8.863,19.593-18.319
		c-11.565-2.304-19.979,8.032-23.499,13.412l-5.71,2.257c1.029-8.692,2.586-17.018,4.861-24.438
		c-1.116-0.154-4.182-0.815-5.932-1.202c-0.015,0.05-0.031,0.097-0.046,0.146c-1.695,5.66-3.063,11.982-4.108,18.949l-4.594-1.417
		l4.137,4.66c-1.086,8.234-1.741,17.319-1.965,27.231l-4.942-2.906c-4.188-5.315-12.787-13.79-23.495-10.979
		c-0.307,9.693,6.182,21.769,21.605,16.829l6.744,3.965c-0.011,4.551,0.055,9.25,0.214,14.122c0.086,2.631,0.195,5.213,0.322,7.732
		l-4.865-0.027l5.061,3.607c0.428,7.389,0.993,14.135,1.551,19.805l-4.364-0.404l4.615,2.89c0.956,9.24,1.822,15.062,1.838,15.172
		c0.224,1.487,1.503,2.555,2.963,2.555c0.148,0,0.299-0.012,0.451-0.033c1.639-0.247,2.767-1.775,2.52-3.413
		c-0.044-0.292-1.53-10.399-2.739-25.201l9.452-3.553c13.939,7.293,22.425-3.217,23.938-12.689
		C135.663,153.487,125.077,161.179,120.257,165.549z"/>
</g>
</svg>
