<?xml version="1.0" encoding="utf-8"?>
<!-- Generator: Adobe Illustrator 16.0.0, SVG Export Plug-In . SVG Version: 6.00 Build 0)  -->
<!DOCTYPE svg PUBLIC "-//W3C//DTD SVG 1.1//EN" "http://www.w3.org/Graphics/SVG/1.1/DTD/svg11.dtd">
<svg version="1.1" id="Layer_1" xmlns="http://www.w3.org/2000/svg" xmlns:xlink="http://www.w3.org/1999/xlink" x="0px" y="0px"
	 width="226.77px" height="226.77px" viewBox="0 0 226.77 226.77" enable-background="new 0 0 226.77 226.77" xml:space="preserve">
<g>
	<g>
		<path fill="#54566D" d="M186.656,138.76c-9.868-0.459-17.826-0.105-22.81,0.277c0.012-3.267,0.062-6.136,0.178-7.759
			l-16.089,13.238l16.089,13.238c0,0-0.062-3.24-0.113-7.506c4.355-0.211,10.932-0.148,18.921,1.127
			c2.585,0.412,4.68,1.033,6.396,1.813V139C188.407,138.889,187.559,138.801,186.656,138.76z"/>
	</g>
	<path fill="#DDE9F0" d="M71.795,100.168v75.792c0,14.082,11.414,25.494,25.494,25.494h15.858c14.08,0,25.494-11.412,25.494-25.494
		v-75.792H71.795z"/>
	<path fill="#C1D4DF" d="M82.666,190.162c0,0,5.946-2.521,22.981-2.509c11.615,0.011,20.998,2.761,22.138,3.521
		c1.137,0.76-2.472,3.043-16.134,3.803c-13.659,0.763-26.59-2.281-26.59-2.281S81.586,190.402,82.666,190.162z"/>
	<path opacity="0.5" fill="#FFFFFF" enable-background="new    " d="M84.39,100.168c0,0-0.352,39.171-0.613,39.787
		c-0.261,0.615-0.849,10.41-0.849,10.41l6.294,0.895l1.333-51.091L84.39,100.168"/>
	<path opacity="0.5" fill="#FFFFFF" enable-background="new    " d="M94.906,100.168c0,0,0.095,49.479,0,61.136
		c-0.06,7.383-1.25,10.035-1.25,10.035h5l0.05-30.777v-40.394H94.906L94.906,100.168z"/>
	<path fill="#39A935" d="M111.653,101.858c0,0,12.48-20.668,29.228-15.959C141.046,97.604,132.178,112.319,111.653,101.858z"/>
	<path opacity="0.5" fill="#FFFFFF" enable-background="new    " d="M136.086,100.168h-23.303c-0.733,1.035-1.131,1.688-1.131,1.688
		C123.54,107.917,131.51,105.524,136.086,100.168z"/>
	<path fill="#39A935" d="M108.044,108.737c0,0-12.893-16.317-26.7-10.491C82.462,108.268,91.625,119.889,108.044,108.737z"/>
	<path opacity="0.5" fill="#FFFFFF" enable-background="new    " d="M108.044,108.737c0,0-4.023-5.088-9.979-8.567H81.656
		C83.658,109.653,92.669,119.18,108.044,108.737z"/>
	<path fill="#39A935" d="M105.356,141.332c0,0-11.375-19.549-27.135-15.396C77.887,136.898,85.969,150.818,105.356,141.332z"/>
	<path opacity="0.5" fill="#FFFFFF" enable-background="new    " d="M94.906,100.168c0,0,0.095,49.479,0,61.136
		c-0.06,7.383-1.25,10.035-1.25,10.035h5l0.05-30.777v-40.394H94.906L94.906,100.168z"/>
	<path opacity="0.5" fill="#FFFFFF" enable-background="new    " d="M84.39,100.168c0,0-0.352,39.171-0.613,39.787
		c-0.261,0.615-0.849,10.41-0.849,10.41l6.294,0.895l1.333-51.091L84.39,100.168"/>
	<g>
		<path fill="#3A3938" d="M108.177,77l-4.22,99.512c-0.07,1.655,1.215,3.054,2.871,3.124c0.043,0.002,0.086,0.003,0.129,0.003
			c1.598,0,2.926-1.261,2.995-2.873L114.183,77H108.177z"/>
	</g>
	<path fill="#DF367C" d="M108.426,31.633l5.989-5.865c0,0,3.468,2.871,6.376,6.732c-2.98,1.843-3.582,2.342-6.184,3.855
		C113.042,35.375,108.426,31.633,108.426,31.633z"/>
	<path fill="#E46E93" d="M113.702,36.338c1.968-1.58,4.526-3.446,7.39-5.074c4.844-2.752,10.986-3.182,10.986-3.182
		s6.215,26.062,0.01,38.69c-0.976,1.984,2.034-6.74-4.123-14.688C118.965,40.472,117.297,39.083,113.702,36.338z"/>
	<path fill="#F093BA" d="M98.326,25.315c0,0-16.359,41.896,3.654,51.115c19.172,8.83,40.781-7.84,26.031-27.322
		C113.263,29.625,98.326,25.315,98.326,25.315"/>
</g>
</svg>
