<?xml version="1.0" encoding="utf-8"?>
<!-- Generator: Adobe Illustrator 16.0.0, SVG Export Plug-In . SVG Version: 6.00 Build 0)  -->
<!DOCTYPE svg PUBLIC "-//W3C//DTD SVG 1.1//EN" "http://www.w3.org/Graphics/SVG/1.1/DTD/svg11.dtd">
<svg version="1.1" id="Layer_1" xmlns="http://www.w3.org/2000/svg" xmlns:xlink="http://www.w3.org/1999/xlink" x="0px" y="0px"
	 width="226.77px" height="226.77px" viewBox="0 0 226.77 226.77" enable-background="new 0 0 226.77 226.77" xml:space="preserve">
<g>
	<g>
		<path fill="#D9D9D9" d="M132.201,51.647c-4.991-9.389-12.863-20.488-21.954-20.244C99.95,31.719,91.02,46.443,88.448,52.09
			l-5.46-2.487c0.44-0.968,10.979-23.703,27.075-24.195c9.771-0.292,19.014,7.582,27.437,23.424L132.201,51.647z"/>
	</g>
	<path fill="#D9D9D9" d="M61,60.852l3.75,110.968l89.486,2.593l-0.486-114.1L61,60.852z M138.331,155.617H79.21V80.912h59.121
		V155.617z"/>
	<path fill="#95CFC4" d="M168.746,173.182c2.53-0.797,4.366-3.162,4.366-5.957c0-2.772-1.81-5.121-4.312-5.935
		c2.503-0.813,4.312-3.162,4.312-5.938c0-2.772-1.81-5.121-4.312-5.935c2.503-0.813,4.312-3.162,4.312-5.938
		c0-2.772-1.81-5.121-4.312-5.935c2.503-0.813,4.312-3.162,4.312-5.938c0-2.772-1.81-5.12-4.312-5.935
		c2.503-0.813,4.312-3.162,4.312-5.938c0-2.772-1.81-5.12-4.312-5.935c2.503-0.812,4.312-3.162,4.312-5.937
		c0-2.773-1.81-5.121-4.312-5.936c2.503-0.812,4.312-3.162,4.312-5.937c0-2.773-1.81-5.121-4.312-5.936
		c2.503-0.812,4.312-3.162,4.312-5.937c0-2.773-1.81-5.121-4.312-5.936c2.503-0.812,4.312-3.162,4.312-5.937
		c0-2.593-1.579-4.815-3.829-5.759c4.202-1.624,7.188-5.694,7.188-10.473c0-6.203-5.029-11.231-11.233-11.231
		c-1.64,0-3.192,0.358-4.599,0.99c-1.262,0.367-2.356,1.119-3.152,2.124c-0.489,0.469-0.935,0.98-1.334,1.529
		c-0.926-2.288-3.164-3.904-5.784-3.904c-2.865,0-5.273,1.933-6.009,4.562c-0.735-2.629-3.143-4.562-6.008-4.562
		c-2.863,0-5.271,1.933-6.008,4.562c-0.734-2.629-3.143-4.562-6.006-4.562c-2.865,0-5.272,1.933-6.008,4.562
		c-0.735-2.629-3.144-4.562-6.008-4.562s-5.272,1.933-6.008,4.562c-0.734-2.63-3.144-4.562-6.007-4.562
		c-2.865,0-5.272,1.933-6.008,4.562c-0.735-2.63-3.143-4.562-6.007-4.562s-5.272,1.933-6.007,4.562
		c-0.735-2.629-3.144-4.562-6.008-4.562s-5.272,1.933-6.008,4.562c-0.734-2.63-3.143-4.562-6.007-4.562
		c-1.746,0-3.323,0.72-4.456,1.874c-2.04-2.085-4.88-3.382-8.025-3.382c-6.204,0-11.233,5.029-11.233,11.232
		c0,3.62,1.719,6.831,4.378,8.886c-1.299,1.146-2.122,2.814-2.122,4.681c0,2.774,1.811,5.123,4.313,5.938
		c-2.503,0.812-4.313,3.161-4.313,5.935c0,2.774,1.811,5.123,4.313,5.938c-2.503,0.812-4.313,3.161-4.313,5.935
		c0,2.774,1.811,5.123,4.313,5.938c-2.503,0.812-4.313,3.161-4.313,5.935c0,2.774,1.811,5.123,4.313,5.938
		c-2.503,0.812-4.313,3.161-4.313,5.935c0,2.774,1.811,5.123,4.313,5.938c-2.503,0.812-4.313,3.16-4.313,5.935
		s1.811,5.123,4.313,5.938c-2.503,0.812-4.313,3.16-4.313,5.935s1.811,5.123,4.313,5.937c-2.503,0.813-4.313,3.161-4.313,5.936
		c0,2.773,1.811,5.123,4.313,5.937c-2.503,0.813-4.313,3.161-4.313,5.936c0,3.434,2.771,6.216,6.196,6.242
		c-4.103,1.673-6.995,5.693-6.995,10.396c0,6.205,5.029,11.234,11.233,11.234c2.12,0,4.096-0.6,5.788-1.619
		c0.825-0.389,1.551-0.955,2.132-1.65c0.47-0.468,0.895-0.979,1.275-1.524c0.773,2.407,2.968,4.205,5.645,4.332
		c2.86,0.137,5.357-1.681,6.217-4.271c0.608,2.662,2.923,4.705,5.784,4.842c2.86,0.136,5.357-1.68,6.217-4.271
		c0.609,2.662,2.923,4.706,5.785,4.841c2.86,0.137,5.357-1.678,6.217-4.271c0.609,2.66,2.923,4.703,5.784,4.841
		c2.86,0.137,5.357-1.681,6.217-4.271c0.609,2.662,2.923,4.705,5.784,4.842c2.86,0.138,5.356-1.68,6.217-4.271
		c0.609,2.662,2.923,4.705,5.785,4.842c2.861,0.135,5.356-1.68,6.216-4.272c0.609,2.661,2.923,4.707,5.784,4.842
		c2.861,0.137,5.357-1.681,6.217-4.271c0.609,2.662,2.923,4.705,5.785,4.842c1.923,0.093,3.684-0.698,4.893-2.014
		c1.312,0.881,2.82,1.48,4.443,1.745c0.483,0.146,0.99,0.243,1.518,0.269c0.737,0.035,1.447-0.065,2.115-0.27
		c5.337-0.872,9.414-5.49,9.414-11.074C176.473,178.87,173.23,174.655,168.746,173.182z M151.664,62.562v110.271l-84.666-3.617
		L62.67,62.562H151.664z"/>
	<circle fill="#6F6F6E" cx="111.498" cy="38.864" r="3.667"/>
	
		<rect x="111.052" y="35.933" transform="matrix(-0.7071 -0.7071 0.7071 -0.7071 162.7891 145.2122)" fill="#3A3938" width="0.834" height="5.916"/>
</g>
</svg>
