<?xml version="1.0" encoding="utf-8"?>
<!-- Generator: Adobe Illustrator 16.0.0, SVG Export Plug-In . SVG Version: 6.00 Build 0)  -->
<!DOCTYPE svg PUBLIC "-//W3C//DTD SVG 1.1//EN" "http://www.w3.org/Graphics/SVG/1.1/DTD/svg11.dtd">
<svg version="1.1" id="Layer_1" xmlns="http://www.w3.org/2000/svg" xmlns:xlink="http://www.w3.org/1999/xlink" x="0px" y="0px"
	 width="226.77px" height="226.77px" viewBox="0 0 226.77 226.77" enable-background="new 0 0 226.77 226.77" xml:space="preserve">
<g>
	<g>
		<path fill="#54566D" d="M150.673,88.752l48.125-1.428c0,0,10.195-0.357,10.453,2.807c0.293,3.576-2.197,5.785-6.512,5.719
			c-7.593-0.117-54.243,1.125-54.243,1.125L150.673,88.752z"/>
	</g>
	<g>
		<path fill="#7B80B5" d="M35.911,83.033c0,32.145,26.057,58.2,58.2,58.2c32.145,0,58.201-26.057,58.201-58.2H35.911z
			 M104.985,93.043c1.302,0,2.356,1.057,2.356,2.356c0,1.301-1.056,2.357-2.356,2.357c-1.303,0-2.357-1.057-2.357-2.357
			C102.627,94.1,103.683,93.043,104.985,93.043z M92.427,93.043c1.303,0,2.358,1.057,2.358,2.356c0,1.301-1.057,2.357-2.358,2.357
			c-1.301,0-2.356-1.057-2.356-2.357C90.071,94.1,91.126,93.043,92.427,93.043z M54.759,97.758c-1.303,0-2.357-1.057-2.357-2.357
			c0-1.3,1.056-2.356,2.357-2.356s2.357,1.057,2.357,2.356C57.116,96.701,56.061,97.758,54.759,97.758z M61.614,109.93
			c-1.301,0-2.355-1.057-2.355-2.356c0-1.304,1.056-2.357,2.355-2.357c1.304,0,2.359,1.055,2.359,2.357
			C63.974,108.873,62.917,109.93,61.614,109.93z M64.958,95.4c0-1.301,1.055-2.356,2.355-2.356c1.304,0,2.358,1.057,2.358,2.356
			c0,1.301-1.056,2.357-2.358,2.357C66.013,97.758,64.958,96.701,64.958,95.4z M69.495,121.057c-1.302,0-2.356-1.057-2.356-2.356
			c0-1.304,1.056-2.357,2.356-2.357c1.303,0,2.356,1.055,2.356,2.357C71.853,120,70.798,121.057,69.495,121.057z M73.995,109.93
			c-1.302,0-2.355-1.057-2.355-2.356c0-1.304,1.055-2.357,2.355-2.357c1.303,0,2.356,1.055,2.356,2.357
			C76.353,108.873,75.298,109.93,73.995,109.93z M77.514,95.4c0-1.301,1.056-2.356,2.358-2.356c1.301,0,2.356,1.057,2.356,2.356
			c0,1.301-1.057,2.357-2.356,2.357C78.569,97.758,77.514,96.701,77.514,95.4z M82.062,121.057c-1.303,0-2.357-1.057-2.357-2.356
			c0-1.304,1.056-2.357,2.357-2.357c1.301,0,2.356,1.055,2.356,2.357C84.418,120,83.362,121.057,82.062,121.057z M84.019,107.572
			c0-1.303,1.057-2.356,2.358-2.356s2.355,1.055,2.355,2.356s-1.055,2.357-2.355,2.357C85.074,109.93,84.019,108.873,84.019,107.572
			z M88.733,133.438c-1.301,0-2.355-1.057-2.355-2.358s1.056-2.357,2.355-2.357c1.304,0,2.357,1.057,2.357,2.357
			C91.091,132.381,90.036,133.438,88.733,133.438z M94.626,121.057c-1.303,0-2.358-1.057-2.358-2.356
			c0-1.304,1.057-2.357,2.358-2.357s2.356,1.055,2.356,2.357C96.983,120,95.929,121.057,94.626,121.057z M96.398,107.572
			c0-1.303,1.057-2.356,2.358-2.356s2.356,1.055,2.356,2.356s-1.055,2.357-2.356,2.357S96.398,108.873,96.398,107.572z
			 M101.43,133.438c-1.302,0-2.355-1.057-2.355-2.358s1.055-2.357,2.355-2.357c1.303,0,2.358,1.057,2.358,2.357
			C103.788,132.381,102.732,133.438,101.43,133.438z M107.19,121.057c-1.303,0-2.356-1.057-2.356-2.356
			c0-1.304,1.055-2.357,2.356-2.357c1.303,0,2.357,1.055,2.357,2.357C109.548,120,108.493,121.057,107.19,121.057z M111.137,109.93
			c-1.302,0-2.356-1.057-2.356-2.356c0-1.304,1.056-2.357,2.356-2.357c1.303,0,2.358,1.055,2.358,2.357
			C113.495,108.873,112.439,109.93,111.137,109.93z M115.183,95.4c0-1.301,1.058-2.356,2.357-2.356c1.303,0,2.357,1.057,2.357,2.356
			c0,1.301-1.056,2.357-2.357,2.357C116.239,97.758,115.183,96.701,115.183,95.4z M119.755,121.057
			c-1.301,0-2.356-1.057-2.356-2.356c0-1.304,1.057-2.357,2.356-2.357c1.303,0,2.356,1.055,2.356,2.357
			C122.112,120,121.058,121.057,119.755,121.057z M123.518,109.93c-1.302,0-2.355-1.057-2.355-2.356
			c0-1.304,1.055-2.357,2.355-2.357s2.356,1.055,2.356,2.357C125.874,108.873,124.819,109.93,123.518,109.93z M130.099,97.758
			c-1.304,0-2.358-1.057-2.358-2.357c0-1.3,1.056-2.356,2.358-2.356c1.301,0,2.356,1.057,2.356,2.356
			C132.455,96.701,131.399,97.758,130.099,97.758z"/>
	</g>
</g>
</svg>
