<?xml version="1.0" encoding="utf-8"?>
<!-- Generator: Adobe Illustrator 16.0.0, SVG Export Plug-In . SVG Version: 6.00 Build 0)  -->
<!DOCTYPE svg PUBLIC "-//W3C//DTD SVG 1.1//EN" "http://www.w3.org/Graphics/SVG/1.1/DTD/svg11.dtd">
<svg version="1.1" id="Layer_1" xmlns="http://www.w3.org/2000/svg" xmlns:xlink="http://www.w3.org/1999/xlink" x="0px" y="0px"
	 width="226.77px" height="226.77px" viewBox="0 0 226.77 226.77" enable-background="new 0 0 226.77 226.77" xml:space="preserve">
<g>
	<path fill="#8B8B8A" d="M186.281,96.104v57.075c0,0.828,0.672,1.5,1.5,1.5s1.5-0.672,1.5-1.5V96.104H186.281z"/>
	<g>
		<path fill="#EAF6FD" d="M65.093,139.39c0,0,8.409-22.339,11.705-29.13c7.25,0,33.249,0,38.578,0c0,5.741,0.145,21.367,0.001,29.13
			C113.385,139.39,65.093,139.39,65.093,139.39z"/>
	</g>
	<g>
		<path fill="#EAF6FD" d="M112.738,110.327v29.327c0,0,13.989,0,19.504,0c6.447,0,45.383-0.265,47.406-0.265
			c-2.273-3.265-24.998-26.663-27.398-29.062C150.417,110.327,112.738,110.327,112.738,110.327z"/>
	</g>
	<g opacity="0.6">
		<g>
			<path fill="#CDDAE1" d="M111.969,117.334l-32.832,22.055c8.128,0.034,26.78,0.006,32.832,0.001
				C111.969,136,111.991,117.547,111.969,117.334z"/>
		</g>
	</g>
	<g opacity="0.6">
		<g>
			<path fill="#CDDAE1" d="M179.649,139.655c-1.799-2.104-17.858-18.697-20.02-21.122c-8.424,5.848-22.029,15.287-30.5,21.122
				C142.25,139.655,175.5,139.773,179.649,139.655z"/>
		</g>
	</g>
	<g>
		<path fill="#95CFC4" d="M176.067,138.236c0,0,25.541,0.175,33.771,6.041c11.855,8.454,8.848,24.191,8.848,24.191l-1.975,4.934
			h-13.812H86.474H40.102l7.968-25.445c0,0,0.956-11.818,19.768-9.842C84.258,137.945,176.067,138.236,176.067,138.236z"/>
	</g>
	<g>
		<path fill="#1D1D1B" d="M217.83,174.822h-14.216l-0.25-2.727c-0.054-0.54-1.47-13.483-13.617-13.802
			c-0.14-0.004-0.279-0.006-0.417-0.006c-11.701,0-12.993,13.227-13.043,13.796l-0.239,2.738H86.173l-0.159-2.832
			c-0.031-0.476-0.92-11.995-12.8-13.727c-11.447-1.679-14.189,13.42-14.3,14.062l-0.43,2.49l-17.265,0.006c-1.657,0-3-1.343-3-3
			s1.343-3,3-3h12.329c2.042-7.604,8.165-18.301,20.532-16.496c11.494,1.676,16.203,10.37,17.527,16.496h79.123
			c1.506-7.024,6.748-16.832,19.175-16.526c12.229,0.32,17.463,9.8,18.991,16.526h8.934c1.657,0,3,1.343,3,3
			S219.488,174.822,217.83,174.822z"/>
	</g>
	<g>
		<g>
			<circle fill="#3C3C3B" cx="72.483" cy="173.498" r="16.526"/>
		</g>
		<g>
			<path fill="#CDDAE1" d="M82.076,173.498c0,5.459-4.426,9.887-9.886,9.887c-5.462,0-9.883-4.428-9.883-9.887
				s4.421-9.884,9.883-9.884C77.65,163.615,82.076,168.039,82.076,173.498z"/>
		</g>
		<g>
			<path fill="#FFFFFF" d="M79.581,173.625c-0.071,4.002-3.371,7.189-7.372,7.119c-4.002-0.07-7.186-3.373-7.115-7.375
				c0.071-3.999,3.369-7.188,7.371-7.117C76.466,166.323,79.651,169.626,79.581,173.625z"/>
		</g>
	</g>
	<g>
		<g>
			<circle fill="#3C3C3B" cx="189.825" cy="173.498" r="16.526"/>
		</g>
		<g>
			<path fill="#CDDAE1" d="M199.418,173.498c0,5.459-4.424,9.887-9.887,9.887c-5.459,0-9.883-4.428-9.883-9.887
				s4.424-9.884,9.883-9.884C194.994,163.615,199.418,168.039,199.418,173.498z"/>
		</g>
		<g>
			<path fill="#FFFFFF" d="M196.924,173.497c0,4.003-3.242,7.248-7.244,7.248s-7.246-3.245-7.246-7.248c0-4,3.244-7.246,7.246-7.246
				S196.924,169.497,196.924,173.497z"/>
		</g>
	</g>
	<g>
		<path fill="#1D1D1B" d="M129.428,148.243c0,0.812-0.662,1.478-1.48,1.478h-6.445c-0.816,0-1.48-0.665-1.48-1.478l0,0
			c0-0.819,0.664-1.482,1.48-1.482h6.445C128.766,146.761,129.428,147.424,129.428,148.243L129.428,148.243z"/>
	</g>
	<g>
		<path fill="#3CB8C0" d="M63.327,146.54c-1.765,0-3.2-1.436-3.2-3.199s1.436-3.199,3.2-3.199c1.764,0,3.198,1.436,3.198,3.199
			S65.091,146.54,63.327,146.54z M63.327,141.142c-1.213,0-2.2,0.986-2.2,2.199s0.987,2.199,2.2,2.199
			c1.212,0,2.198-0.986,2.198-2.199S64.539,141.142,63.327,141.142z"/>
	</g>
	<g>
		<path fill="#FFF9D1" d="M217.914,155.873c0,0-3.348,0.697-3.043,3.19c0.307,2.493,1.297,5.562,1.297,5.562l2.77,1.727
			C218.938,166.352,219.692,160.081,217.914,155.873z"/>
	</g>
	<g>
		<path fill="#54566D" d="M31.837,152.731c0-0.553-0.448-1-1-1H3.735c-0.552,0-1,0.447-1,1s0.448,1,1,1h27.102
			C31.389,153.731,31.837,153.283,31.837,152.731z"/>
		<path fill="#54566D" d="M30.714,158.038l-13.55,1.68c-0.548,0.067-0.938,0.567-0.869,1.115c0.062,0.506,0.494,0.877,0.991,0.877
			c0.041,0,0.083-0.002,0.125-0.008l13.55-1.68c0.548-0.067,0.938-0.567,0.869-1.115C31.761,158.36,31.263,157.96,30.714,158.038z"
			/>
	</g>
	<path fill="#1D1D1B" d="M154.121,108.831H82.282c0,0-6.574-1.175-12.071,6.245s-17.062,25.393-17.062,25.393l14.689-2.354
		c0,0,4.02-22.174,11.965-25.144c5.613-2.097,22.223-1.971,31.497-1.717v26.83h2.636v-26.75c2.354,0.081,3.812,0.153,3.812,0.153
		h34.031l25.596,26.862l6.545,0.265L154.121,108.831z"/>
	<g>
		<path fill="#F29100" d="M49.82,164.857c0,0.48-0.389,0.867-0.869,0.867h-3.86c-0.479,0-0.867-0.387-0.867-0.867l0,0
			c0-0.48,0.388-0.869,0.867-0.869h3.86C49.431,163.988,49.82,164.376,49.82,164.857L49.82,164.857z"/>
	</g>
	<g>
		<path fill="#FFF9D1" d="M49.266,155.647c0,1.238-1.006,2.245-2.245,2.245c-0.73,0-1.381-0.35-1.791-0.891
			c0.436-1.369,0.67-2.093,1.094-3.488c0.068-0.222,0.453-0.111,0.697-0.111C48.26,153.402,49.266,154.407,49.266,155.647z"/>
	</g>
	<path fill="#3CB8C0" d="M167.575,168.421c0.001-0.007,0.003-0.015,0.004-0.021h-0.192L167.575,168.421z"/>
	<polygon fill="#3CB8C0" points="109.991,140.142 108.93,142.937 108.899,167.426 109.897,167.426 109.897,143.206 111.061,140.142 
			"/>
	<path fill="#3CB8C0" d="M189.664,147.722c-8.034,0-15.181,4.089-19.361,10.386v-13.78l-1.883-3.858h-1.111l1.994,4.089v15.07h0.082
		c-1.294,2.318-2.215,4.881-2.656,7.622h1.035c1.78-10.639,10.98-18.528,21.9-18.528c11.022,0,20.227,7.961,21.935,18.704h1.009
		C210.89,156.119,201.237,147.722,189.664,147.722z"/>
	<path fill="#3CB8C0" d="M72.337,147.456c-8.666,0-16.294,4.762-20.286,11.917l-6.431,0.025l0.004,1l5.9-0.023
		c-1.075,2.172-1.818,4.542-2.173,7.051h1.013c1.598-10.861,10.904-18.97,21.974-18.97c11.113,0,20.376,8.093,21.972,18.97h1.01
		C93.714,155.985,83.999,147.456,72.337,147.456z"/>
	<g>
		<rect x="174.973" y="34.445" fill="#B4C2CA" width="26.047" height="64.159"/>
	</g>
	<g>
		<circle fill="#009E3C" cx="187.959" cy="46.241" r="8.439"/>
	</g>
	<g>
		<circle fill="#585E61" cx="187.959" cy="66.189" r="8.439"/>
	</g>
	<g>
		<circle fill="#585E61" cx="187.959" cy="86.427" r="8.439"/>
	</g>
</g>
</svg>
