<?xml version="1.0" encoding="utf-8"?>
<!-- Generator: Adobe Illustrator 16.0.0, SVG Export Plug-In . SVG Version: 6.00 Build 0)  -->
<!DOCTYPE svg PUBLIC "-//W3C//DTD SVG 1.1//EN" "http://www.w3.org/Graphics/SVG/1.1/DTD/svg11.dtd">
<svg version="1.1" id="Layer_1" xmlns="http://www.w3.org/2000/svg" xmlns:xlink="http://www.w3.org/1999/xlink" x="0px" y="0px"
	 width="226.77px" height="226.77px" viewBox="0 0 226.77 226.77" enable-background="new 0 0 226.77 226.77" xml:space="preserve">
<g>
	<path fill="#7E7E7E" d="M173.696,74.727l-11.141,0.164l-20.072-34.767c2.25-4.143,3.785-7.025,3.895-7.371
		c0.161-0.513-0.118-1.043-0.625-1.224c-0.514-0.183-1.073,0.091-1.271,0.59c-0.158,0.397-1.534,2.972-3.627,6.82h-40.152
		l-4.018-6.782c-0.282-0.476-0.895-0.632-1.37-0.351c-0.475,0.282-0.632,0.895-0.351,1.37l3.893,6.57L78.081,75.728l0.23,0.398
		l-6.278,0.092c-0.552,0.008-0.993,0.462-0.985,1.015c0.008,0.547,0.454,0.985,1,0.985c0.005,0,0.01,0,0.015,0l7.395-0.108
		l10.601,18.358v44.597h2V99.931l6.58,11.394l-3.791,6.145c-0.29,0.471-0.144,1.087,0.326,1.376
		c0.164,0.102,0.345,0.149,0.524,0.149c0.335,0,0.663-0.169,0.852-0.475l3.706-6.007h40.131l5.173,9.404
		c0.182,0.331,0.524,0.518,0.877,0.518c0.163,0,0.328-0.04,0.481-0.124c0.483-0.266,0.66-0.874,0.394-1.358l-5.066-9.209
		l20.122-34.851l11.359-0.167c0.553-0.008,0.993-0.462,0.985-1.015S174.243,74.694,173.696,74.727z M160.266,74.924l-5.132,0.075
		l-16.288-28.213c0.886-1.616,1.732-3.165,2.517-4.604L160.266,74.924z M87.874,75.728l15.942-27.61l3.377,5.7l-12.651,21.91
		l0.092,0.16l-6.613,0.097L87.874,75.728z M96.851,75.727l11.51-19.936l3.253,5.489l-8.341,14.447l0.019,0.033l-6.368,0.093
		L96.851,75.727z M121.519,74.074l-6.706-11.319h12.963C125.619,66.662,123.481,70.531,121.519,74.074z M119.811,75.114l0.22,0.4
		l-14.447,0.212l7.2-12.472L119.811,75.114z M119.492,77.522l-6.65,10.779l-6.115-10.592L119.492,77.522z M121.468,78.127
		l5.815,10.572h-12.337L121.468,78.127z M123.386,77.465l11.245-0.165l-5.806,10.053L123.386,77.465z M123.031,75.47
		c1.329-2.398,3.519-6.355,6.047-10.934l6.21,10.754L123.031,75.47z M128.88,60.755h-15.253l-3.294-5.561h21.611
		C130.936,57.026,129.909,58.889,128.88,60.755z M104.438,77.743l7.212,12.492l-3.317,5.376L98.07,77.837L104.438,77.743z
		 M113.712,90.698h14.672l3.059,5.561h-21.161L113.712,90.698z M129.952,89.401l7.007-12.135l6.476-0.095l-10.349,17.926
		L129.952,89.401z M137.576,75.257l-7.37-12.765c1.019-1.846,2.073-3.758,3.137-5.69l10.601,18.362L137.576,75.257z M133.045,53.195
		h-23.896l-3.421-5.773h30.489C135.205,49.266,134.142,51.2,133.045,53.195z M95.78,77.87l11.359,19.674l-3.444,5.583L89.167,77.967
		L95.78,77.87z M109.048,98.259h23.495l3.177,5.775h-30.235L109.048,98.259z M134.212,97.145l11.551-20.008l6.727-0.099
		l-15.023,26.021L134.212,97.145z M146.233,75.13L134.47,54.755c1.101-1.999,2.196-3.992,3.252-5.917l15.123,26.194L146.233,75.13z
		 M139.765,40.939c-0.755,1.383-1.577,2.888-2.451,4.482h-32.771l-2.655-4.482H139.765z M80.39,75.728l19.635-34.007l2.621,4.423
		L85.564,75.728l0.167,0.289l-5.13,0.076L80.39,75.728z M81.746,78.076l5.13-0.075l15.625,27.06l-2.672,4.332L81.746,78.076z
		 M101.488,110.514l2.764-4.479h32.569l2.464,4.479H101.488z M141.117,109.696l-2.524-4.588l16.225-28.104l5.22-0.077
		L141.117,109.696z"/>
	<path fill="#422918" d="M132.191,168.039l-7.321-7.991l-6.298,0.86c-0.263-4.886-1.752-9.629-5.543-13.597l4.739-2.548l8.007,4.615
		c0.236,0.136,0.493,0.2,0.748,0.2c0.519,0,1.022-0.27,1.301-0.751c0.413-0.718,0.167-1.635-0.551-2.049l-9.454-5.449l-7.157,3.848
		c-1.161-0.906-2.472-1.759-3.957-2.545c-11.523-6.103-28.112-5.523-36.577,5.083l-7.648-4.776l-9.745,8.296
		c-0.631,0.537-0.707,1.484-0.17,2.115c0.297,0.349,0.718,0.527,1.143,0.527c0.344,0,0.689-0.117,0.972-0.357l8.074-6.874
		l5.662,3.537c-2.022,3.388-3.32,7.59-3.622,12.67l-4.79-2.723l-9.188,8.284c-0.615,0.555-0.665,1.504-0.109,2.119
		c0.296,0.328,0.704,0.495,1.114,0.495c0.358,0,0.717-0.127,1.004-0.386l7.58-6.835l4.325,2.458c0.001,0.065-0.002,0.125,0,0.19
		c0.131,4.151,0.744,7.693,1.709,10.729l-5.003,0.479l-6.37,9.337c-0.467,0.685-0.291,1.618,0.394,2.085
		c0.259,0.177,0.553,0.261,0.844,0.261c0.479,0,0.95-0.229,1.241-0.654l5.577-8.177l4.417-0.424
		c5.239,11.78,16.674,14.142,25.069,13.551c9.217-0.647,20.018-2.65,23.16-14.438l5.234,0.988l4.258,6.67
		c0.286,0.448,0.771,0.692,1.266,0.692c0.276,0,0.557-0.076,0.807-0.235c0.698-0.446,0.902-1.374,0.457-2.072l-4.957-7.762
		l-6.307-1.19c0.976-3.857,1.893-8.112,2.062-12.362l5.133-0.701l6.259,6.833c0.296,0.322,0.701,0.486,1.106,0.486
		c0.362,0,0.726-0.13,1.014-0.394C132.708,169.6,132.75,168.651,132.191,168.039z"/>
	<g>
		<g>
			<circle fill="#FFFFFF" cx="96.316" cy="184.763" r="4.076"/>
		</g>
		<g>
			<circle fill="#575756" cx="97.135" cy="185.718" r="2.183"/>
		</g>
		<g>
			<path fill="#ECEBE0" d="M100.312,185.565c0.052-0.261,0.08-0.527,0.08-0.802c0-2.252-1.826-4.076-4.076-4.076
				c-1.93,0-3.544,1.343-3.966,3.145C94.306,184.331,97.983,185.094,100.312,185.565z"/>
		</g>
	</g>
	<g>
		<g>
			<circle fill="#FFFFFF" cx="86.13" cy="184.763" r="4.076"/>
		</g>
		<g>
			<circle fill="#575756" cx="86.949" cy="185.718" r="2.183"/>
		</g>
		<g>
			<path fill="#ECEBE0" d="M90.126,185.565c0.052-0.261,0.079-0.527,0.079-0.802c0-2.252-1.825-4.076-4.075-4.076
				c-1.93,0-3.544,1.343-3.966,3.145C84.119,184.331,87.797,185.094,90.126,185.565z"/>
		</g>
	</g>
</g>
</svg>
