<?xml version="1.0" encoding="utf-8"?>
<!-- Generator: Adobe Illustrator 16.0.0, SVG Export Plug-In . SVG Version: 6.00 Build 0)  -->
<!DOCTYPE svg PUBLIC "-//W3C//DTD SVG 1.1//EN" "http://www.w3.org/Graphics/SVG/1.1/DTD/svg11.dtd">
<svg version="1.1" id="Layer_1" xmlns="http://www.w3.org/2000/svg" xmlns:xlink="http://www.w3.org/1999/xlink" x="0px" y="0px"
	 width="226.77px" height="226.77px" viewBox="0 0 226.77 226.77" enable-background="new 0 0 226.77 226.77" xml:space="preserve">
<g>
	<path fill="#E6D7CA" d="M65.179,118.563c1.423,0.122,2.731-0.854,2.998-2.286c0.433-2.338-1.464-3.128-3.472-3.964
		c-4.371-1.824-17.672-7.366-19.595-16.944c-1.192-5.949,2.071-12.879,9.699-20.588c1.09-1.104,1.08-2.88-0.021-3.969
		c-1.1-1.091-2.879-1.082-3.97,0.021c-9.023,9.118-12.795,17.747-11.211,25.641c2.51,12.507,17.351,18.691,22.938,21.021
		c0.414,0.175,0.874,0.363,1.143,0.486c0.346,0.268,0.758,0.461,1.217,0.548C64.997,118.541,65.088,118.555,65.179,118.563z"/>
</g>
<g>
	<path fill="#422918" d="M58.256,116.197c1.428,0,2.648-1.086,2.791-2.534c0.23-2.367-1.727-2.991-3.799-3.652
		c-4.512-1.442-18.238-5.823-20.976-15.202c-1.698-5.824,0.959-13.008,7.897-21.344c0.991-1.192,0.83-2.961-0.361-3.952
		c-1.189-0.992-2.961-0.831-3.953,0.361c-8.208,9.858-11.227,18.778-8.971,26.508c3.572,12.245,18.889,17.135,24.656,18.976
		c0.428,0.139,0.902,0.287,1.18,0.387c0.367,0.237,0.795,0.395,1.26,0.441C58.072,116.191,58.164,116.197,58.256,116.197z"/>
</g>
<path fill="#E0B475" d="M187.28,88.072c0,0-17.871,3.91-30.152,7.635s-31.23-3.533-31.23-3.533l-0.354,3.193h-8.195
	c0,0-42.284,0.398-51.477,4.507c-9.192,4.111-7.718,17.342-7.641,23.187c0.042,3.181,1.34,8.5,6.023,12.602l-8.701,11.357
	l0.361,1.456c0,0,0.528,3.962,3.271,4.599c2.228,0.515,1.822-3.742,1.59-5.352l13.281-7.252c2.918,0.695,6.344,1.059,10.37,0.957
	c0.37-0.01,0.829-0.016,1.341-0.021l-1.377,3.705l0.488,1.372c0,0,1.533,3.802,4.064,4.232c1.989,0.341,0.367-2.869-0.412-4.251
	l3.741-5.048c6.609,0.047,15.663,0.163,23.197,0.197l-0.662,0.675l11.9,14.271l0.311-0.156l1.465-0.318c0,0,3.977-0.41,4.691-3.135
	c0.387-1.476-1.377-1.84-3.076-1.865l-4.342-9.517c1.396-0.03,2.467-0.077,3.104-0.142c2.232-0.229,4.283-0.438,6.195-0.635
	l11.139,13.021l1.764-0.104c0,0,1.57,0.074,2.363-0.326c1.771-0.889,1.984-1.335,2.303-2.552c0.475-1.806-3.062-2.222-4.635-1.538
	l-1.473-8.336c10.758-0.499,31.682-5.268,44.596-19.489C207.61,103.299,187.28,88.072,187.28,88.072z"/>
<g>
	<path fill="#575756" d="M143.674,113.267c0.291-0.066,0.584-0.147,0.875-0.249c2.719-0.948,4.764-3.293,6.076-6.97
		c0.262-0.729-0.119-1.532-0.85-1.792s-1.533,0.12-1.793,0.847c-1.014,2.84-2.479,4.612-4.355,5.262
		c-2.871,1.002-5.977-0.866-6.008-0.884c-0.656-0.411-1.523-0.21-1.934,0.448c-0.408,0.659-0.209,1.525,0.449,1.934
		C136.293,111.962,139.828,114.128,143.674,113.267z"/>
</g>
<circle fill="#422918" cx="190.843" cy="89.12" r="6.806"/>
<path fill="#35A8E0" d="M109.863,125.297l-0.028-1.181c0,0-1.872-5.461,0.031-12.123c2.751-9.629,6.728-16.627,6.728-16.627h10.342
	c0,0-8.682,11.635-9.912,18.023c-1.227,6.366-0.432,9.922-0.426,9.945c1.943,6.226,10.241,18.204,10.241,18.204l-9.233,0.24
	l-7.74-16.479l0,0L109.863,125.297z"/>
<circle fill="#95CFC4" cx="119.594" cy="137.183" r="1.475"/>
<circle fill="#95CFC4" cx="117.605" cy="132.157" r="1.476"/>
<path fill="#95CFC4" d="M113.181,126.13c0,0.816,0.658,1.477,1.473,1.477c0.814,0,1.475-0.66,1.475-1.477
	c0-0.812-0.66-1.473-1.475-1.473C113.84,124.657,113.181,125.319,113.181,126.13z"/>
<circle fill="#95CFC4" cx="113.18" cy="119.439" r="1.475"/>
<path fill="#95CFC4" d="M113.181,112.169c0,0.812,0.658,1.471,1.473,1.471c0.814,0,1.475-0.658,1.475-1.471
	c0-0.816-0.66-1.476-1.475-1.476C113.84,110.694,113.181,111.353,113.181,112.169z"/>
<circle fill="#95CFC4" cx="116.13" cy="105.11" r="1.476"/>
<circle fill="#95CFC4" cx="119.047" cy="98.97" r="1.475"/>
<path fill="#422918" d="M126.123,92.013c-8.82-3.881-12.57,3.775-14.659,10.684c-2.35,7.773-21.862,32.341-5.709,38.579
	C125.469,148.888,134.94,95.898,126.123,92.013z"/>
<path fill="#95CFC4" d="M121.108,141.698c-0.008-0.051-0.02-0.104-0.02-0.155c-0.024-0.817,0.618-1.494,1.433-1.516
	c0.813-0.023,1.491,0.615,1.515,1.432c0.001,0.052-0.007,0.106-0.011,0.158L121.108,141.698z"/>
<g>
	<path fill="#54566D" d="M54.859,95.487c-0.182,0-0.364-0.058-0.52-0.177c-0.371-0.288-0.439-0.821-0.152-1.193
		c3.146-4.066,0.449-6.521,0.131-6.786c-0.358-0.301-0.409-0.835-0.11-1.195c0.298-0.362,0.829-0.414,1.19-0.118
		c0.044,0.036,4.365,3.67,0.135,9.141C55.365,95.373,55.114,95.487,54.859,95.487z"/>
</g>
<g>
	<path fill="#54566D" d="M50.958,93.24c-0.241,0-0.48-0.102-0.648-0.3c-0.304-0.358-0.259-0.895,0.099-1.198
		c0.568-0.481,0.878-0.985,0.919-1.497c0.056-0.681-0.37-1.214-0.374-1.219c-0.305-0.357-0.262-0.895,0.095-1.198
		c0.357-0.305,0.894-0.263,1.198,0.095c0.092,0.107,0.888,1.084,0.775,2.46c-0.079,0.979-0.589,1.872-1.514,2.656
		C51.347,93.174,51.152,93.24,50.958,93.24z"/>
</g>
<g>
	<path fill="#54566D" d="M19.944,90.782c0.177-0.041,0.368-0.027,0.546,0.053c0.427,0.196,0.615,0.699,0.421,1.128
		c-2.137,4.677,1.048,6.451,1.418,6.638c0.418,0.211,0.589,0.72,0.381,1.139c-0.209,0.42-0.714,0.592-1.133,0.387
		c-0.051-0.025-5.086-2.58-2.214-8.87C19.477,91.008,19.695,90.841,19.944,90.782z"/>
</g>
<g>
	<path fill="#54566D" d="M24.255,92.081c0.235-0.055,0.491-0.01,0.699,0.144c0.378,0.28,0.456,0.812,0.178,1.19
		c-0.444,0.598-0.63,1.159-0.554,1.666c0.102,0.676,0.638,1.098,0.642,1.102c0.379,0.279,0.458,0.812,0.181,1.189
		c-0.278,0.378-0.81,0.458-1.188,0.181c-0.114-0.085-1.112-0.854-1.316-2.22c-0.146-0.971,0.147-1.957,0.869-2.932
		C23.89,92.234,24.066,92.125,24.255,92.081z"/>
</g>
</svg>
