<?xml version="1.0" encoding="utf-8"?>
<!-- Generator: Adobe Illustrator 16.0.0, SVG Export Plug-In . SVG Version: 6.00 Build 0)  -->
<!DOCTYPE svg PUBLIC "-//W3C//DTD SVG 1.1//EN" "http://www.w3.org/Graphics/SVG/1.1/DTD/svg11.dtd">
<svg version="1.1" id="Layer_1" xmlns="http://www.w3.org/2000/svg" xmlns:xlink="http://www.w3.org/1999/xlink" x="0px" y="0px"
	 width="226.77px" height="226.77px" viewBox="0 0 226.77 226.77" enable-background="new 0 0 226.77 226.77" xml:space="preserve">
<ellipse fill="#4E8788" cx="159.762" cy="120.573" rx="8.632" ry="9.886"/>
<path fill="#4E8788" d="M73.288,175.946c0,0,6.262-0.32,13.868-0.32c5.412-7.817,10.551-33.406,23.942-45.049
	c-3.992-1.661-12.007-4.316-18.531-5.326C83.125,136.25,69.25,160.766,73.288,175.946z"/>
<path fill="#F29100" d="M165.696,141.045c0,0,3.594,0.072,5.852,4.477c2.297,4.483,1.079,8.189,0.691,10.372
	c-0.582,3.26,0.809,4.905,0.809,4.905s-3.532,1.094-7.656-5.882C161.238,147.892,165.696,141.045,165.696,141.045z"/>
<path fill="#EB6621" d="M166.552,143.515c0,0-1.536,2.36-0.919,5.408s3.57,6.361,3.57,6.361s1.762-4.933,0.916-7.839
	C169.274,144.541,166.552,143.515,166.552,143.515z"/>
<g>
	<path fill="#E4133A" d="M61.024,117.632c0,0-10.468-2.146-17.488-3.805c-7.021-1.657-34.227,43.959-34.227,43.959l12.798-2.86
		c0,0,1.671,6.53,1.863,5.78c0.194-0.749,9.537-8.081,9.537-8.081l4.747,7.569L61.024,117.632z"/>
	<polygon fill="#C01430" points="16.737,156.125 30.32,136.779 22.855,157.706 22.107,154.926 	"/>
	<polygon fill="#C01430" points="35.74,156.188 35.155,141.678 30.314,155.168 33.507,152.625 	"/>
</g>
<path fill="#83AAA2" d="M165.129,127.735c0.219-6.01-1.497-13.973-8.237-21.785c-11.688-13.549-20.454-10.315-20.454-10.315
	s0,0-4.074-10.389c-2.422-6.178-6.569-10.93-11.363-14.332c2.27-6.826-6.696-21.491-6.696-21.491s-5.357,6.419-9.198,10.074
	c-1.421,1.353-1.788,3.271-1.689,5.152c-7.12-0.232-13.425,2.281-18.083,5.189c-1.155-2.023-2.762-4.136-5.049-6.236
	c-7.701-7.072-15.923-9.851-15.923-9.851s-1.593,24.989,6.021,35.141c0,0.001,0.001,0.001,0.002,0.002
	c-1.535,3.777-3.409,10.235-2.701,18.206c-2.866,3.822-15.921,21.582-22.154,36.201c-6.579,15.429-14.284,32.645-14.284,32.645
	h42.043c0,0-2.078-0.778,3.59-19.075c3.228-10.421,10.905-21.212,16.879-28.535c6.443,0.304,17.301,0.49,24.692,5.706
	c10.257,7.238,21.884,8.832,26.754,9.26c2.157,0.189,5.365-0.354,8.482-1.314c2.455-0.696,8.738-2.396,10.595-4.612
	C165.342,136.108,165.361,131.712,165.129,127.735z"/>
<g>
	<circle fill="#F2A489" cx="89.533" cy="111.161" r="8.174"/>
</g>
<path fill="#4E8788" d="M36.48,165.262l-1.181-11.067l6.196,1.68C41.495,155.874,42.562,162.237,36.48,165.262z"/>
<path fill="#4E8788" d="M44.129,149.362l-1.37-12.046l8.094,2.042C50.853,139.358,50.735,147.778,44.129,149.362z"/>
<path fill="#4E8788" d="M51.843,134.928l-1.211-11.356l8.05,1.06C58.682,124.631,58.448,133.344,51.843,134.928z"/>
<path fill="#4E8788" d="M60.276,120.031l-2.418-11.172l7.985,1.156C65.843,110.016,66.691,117.797,60.276,120.031z"/>
<ellipse fill="#4E8788" cx="141.856" cy="123.452" rx="6.076" ry="9.394"/>
<ellipse fill="#575756" cx="141.795" cy="123.323" rx="3.734" ry="6.936"/>
<path fill="#4E8788" d="M82.993,75.97c0,0-1.541-4.604-6.115-7.527c-4.575-2.922-8.621-6.005-8.621-6.005s1.905,16.426,4.478,20.106
	C75.627,86.684,83.597,81.127,82.993,75.97z"/>
<g>
	<path fill="#575756" d="M102.822,102.351c-4.102,0-7.201-3.004-7.34-3.142c-0.574-0.565-0.582-1.491-0.015-2.065
		c0.564-0.572,1.487-0.581,2.062-0.019l0,0c0.027,0.026,2.747,2.651,5.924,2.267c2.047-0.243,3.933-1.707,5.603-4.351
		c0.432-0.683,1.334-0.883,2.017-0.455c0.682,0.432,0.885,1.334,0.455,2.016c-2.171,3.437-4.781,5.353-7.758,5.694
		C103.447,102.333,103.131,102.351,102.822,102.351z"/>
</g>
<g>
	<path fill="#4E8788" d="M152.409,142.355c-0.722,0-5.805,0.054-12.604-2.728c-9.111-3.729-20.388-14.931-22.402-16.979h-4.87
		c-0.553,0-1-0.447-1-1s0.447-1,1-1h5.716l0.295,0.305c0.124,0.13,12.579,12.959,22.02,16.822
		c6.712,2.746,11.999,2.709,12.034,2.707c0.547,0.008,3.543,0.185,4.979,0.34C156.357,141.162,152.443,142.355,152.409,142.355z"/>
</g>
<path fill="#F29100" d="M177.85,136.414c0,0,7.171,0.52,10.697,0.251c8.049-0.613,12.485,0.605,18.133,4.681
	c5.647,4.074,6.019,12.557,6.019,12.557s-2.377-1.729-6.191-2.961c-2.897-0.938-7.187-1.669-7.187-1.669s4.827,2.461,9.238,8.165
	c4.411,5.705,6.846,15.212,6.846,15.212s-4.373,0.544-13.046-2.444c-8.675-2.988-17.442-9.912-17.442-9.912
	s-8.557-6.373-12.135-16.837c-0.93-2.717-1.444-8.305-1.444-8.305L177.85,136.414z"/>
<path fill="#EB6621" d="M195.071,141.908c0,0,1.238,2.663,4.274,3.803s7.6,0.359,7.6,0.359s-3.39-4.286-6.425-5.145
	C197.483,140.067,195.071,141.908,195.071,141.908z"/>
<path fill="#EB6621" d="M176.498,140.365c0,0,1.112,9.66,12.051,18.488c10.938,8.829,23.092,10.797,23.092,10.797
	s-3.365-9.663-11.072-15.73C192.861,147.853,180.39,141.51,176.498,140.365z"/>
</svg>
