<?xml version="1.0" encoding="utf-8"?>
<!-- Generator: Adobe Illustrator 16.0.0, SVG Export Plug-In . SVG Version: 6.00 Build 0)  -->
<!DOCTYPE svg PUBLIC "-//W3C//DTD SVG 1.1//EN" "http://www.w3.org/Graphics/SVG/1.1/DTD/svg11.dtd">
<svg version="1.1" id="Layer_1" xmlns="http://www.w3.org/2000/svg" xmlns:xlink="http://www.w3.org/1999/xlink" x="0px" y="0px"
	 width="226.77px" height="226.77px" viewBox="0 0 226.77 226.77" enable-background="new 0 0 226.77 226.77" xml:space="preserve">
<g>
	<path fill="#F9C7B0" d="M180.236,179.711c3.25-0.875,1.938-3.062,1.059-3.592c-0.633-0.383-3.436-1.131-6.008-1.062
		c-0.31,0.01-0.655-0.006-1.032-0.018l0.204-2.547l-6.311,2.064l0.823,4.359h0.005c0.009,1.691,0.965,3.373,3.054,3.557
		c0,0,1.274,0.602,8.539-0.215C183.141,181.969,183.539,180.051,180.236,179.711z"/>
	<path fill="#F9C7B0" d="M145.074,182.934c1.767,0.066,2.312,0.098,2.134-0.83c-0.102-0.52-1.684-1.188-3.507-1.672l-0.893-1.889
		l-6.705,1.521c-2.087,1.48-2.428,5.682,0.836,6.59c0,0,1.142,0.824,8.432,1.352C147.953,188.194,148.259,183.873,145.074,182.934z"
		/>
	<path fill="#95CFC4" d="M167.706,156.598l-12.872-26.395c-3.974,0.883-9.162,1.186-13.888,0.598
		c-4.229-0.527-6.315-1.049-12.086-4.34c-7.788-3.852-10.043-6.184-10.043-6.184s-26.741,2.26-46.061,13.055
		c-9.699,5.42-10.994,15.986-7.734,22.967c-2.834-0.66-6.164-1.205-9.187-1.629c-7.739-1.719-14.331-0.906-17.74-0.855
		s-2.746,6.711-4.292,11.758c-1.547,5.045-1.304,10.73,0.234,14.555c0.382,0.947,1.227,1.51,3.396,1.709
		c3.779,0.346,7.652-2.469,9.108-5.004c1.455-2.535,3.62-4.801,3.62-4.801s3.436-1.758,6.156-0.932l2.373,0.545
		c0.895,0.42,1.818,0.838,2.766,1.25c-1.361,4.9-1.101,10.309,0.382,13.992c0.382,0.943,1.226,1.506,3.396,1.705
		c3.778,0.35,7.653-2.467,9.107-5.002c1.455-2.539,3.62-4.803,3.62-4.803s7.104,2.709,9.506,2.807
		c2.402,0.105,13.631,3.086,24.252,3.393c10.62,0.307,13.028-1.881,14.277-6.334c1.074-3.836,0.882-8.621,0.161-13.271
		c1.974-0.529,3.791-1.119,5.481-1.754l1.075,19.582l10.835-2.975c0,0,1.059-12.277,1.961-25.02c1.728-1.682,3.022-3.35,4.008-4.891
		c0.932,0.115,1.961,0.035,2.933-0.479c4.25,8.846,8.682,18.1,8.847,18.547c0.32,0.871,4.077,7.943,4.077,7.943l11.483-2.111
		L167.706,156.598z"/>
	<path fill="#74C5C4" d="M35.891,181.574c1.138-0.07,1.961-4.092,3.509-7.828c1.545-3.74,1.766-7.527,0-13.938
		c-1.766-6.406-3.069-6.859-4.177-3.246c-0.923,3.006-3.44,12.289-2.466,18.881C33.669,181.612,34.752,181.643,35.891,181.574z"/>
	<path fill="#2D2E82" d="M92.232,147.061"/>
	<path fill="#74C5C4" d="M63.679,188.008c1.141-0.068,1.964-4.092,3.51-7.828c1.545-3.74,1.766-7.527,0-13.936
		s-3.068-6.861-4.176-3.248c-0.922,3.008-3.441,12.289-2.466,18.883C61.457,188.045,62.543,188.078,63.679,188.008z"/>
	<g>
		<path fill="#FFFFFF" d="M74.441,143.905c0,0,4.799,0.584,5.523,3.824c0.723,3.24-1.768,3.025-3.602,1.025
			C74.527,146.756,74.441,143.905,74.441,143.905z"/>
	</g>
	<g>
		<path fill="#FFFFFF" d="M93.521,129.336c0,0,3.457,3.379,2.064,6.393c-1.394,3.014-3.242,1.33-3.483-1.373
			C91.857,131.653,93.521,129.336,93.521,129.336z"/>
	</g>
	<g>
		<path fill="#FFFFFF" d="M91.601,151.024c0,0,3.457,3.379,2.064,6.393c-1.394,3.014-3.242,1.33-3.483-1.373
			C89.937,153.34,91.601,151.024,91.601,151.024z"/>
	</g>
	<g>
		<path fill="#FFFFFF" d="M138.551,163.725c0,0,3.457,3.379,2.064,6.393c-1.394,3.014-3.242,1.33-3.483-1.373
			C136.887,166.041,138.551,163.725,138.551,163.725z"/>
	</g>
	<g>
		<path fill="#FFFFFF" d="M159.016,147.026c0,0,3.457,3.379,2.064,6.393c-1.394,3.014-3.242,1.33-3.483-1.373
			C157.352,149.342,159.016,147.026,159.016,147.026z"/>
	</g>
	<g>
		<path fill="#FFFFFF" d="M109.262,137.448c0,0,4.827,0.262,5.767,3.447c0.938,3.184-1.562,3.137-3.524,1.264
			C109.538,140.287,109.262,137.448,109.262,137.448z"/>
	</g>
	<g>
		<path fill="#FFFFFF" d="M144.843,135.324c0,0,4.827,0.264,5.767,3.449c0.938,3.184-1.562,3.137-3.524,1.262
			C145.119,138.164,144.843,135.324,144.843,135.324z"/>
	</g>
	<g>
		<path fill="#FFFFFF" d="M131.669,139.973c0,0,1.051,4.719-1.763,6.482c-2.812,1.764-3.442-0.656-2.167-3.051
			C129.01,141.006,131.669,139.973,131.669,139.973z"/>
	</g>
	<g>
		<path fill="#FFFFFF" d="M116.436,153.112c0,0,1.051,4.719-1.763,6.484c-2.812,1.762-3.442-0.656-2.167-3.053
			C113.777,154.145,116.436,153.112,116.436,153.112z"/>
	</g>
	<g>
		<path fill="#FFFFFF" d="M98.1,171.1c0,0,1.051,4.719-1.763,6.484c-2.812,1.762-3.442-0.656-2.167-3.053
			C95.441,172.133,98.1,171.1,98.1,171.1z"/>
	</g>
	<g>
		<path fill="#FFFFFF" d="M81.034,166.223c0,0,4.543,1.65,4.52,4.971c-0.025,3.318-2.404,2.551-3.738,0.188
			C80.476,169.02,81.034,166.223,81.034,166.223z"/>
	</g>
	<g>
		<path fill="#FFFFFF" d="M113.705,170.776c0,0,4.543,1.65,4.52,4.973c-0.025,3.318-2.404,2.549-3.738,0.186
			C113.147,173.574,113.705,170.776,113.705,170.776z"/>
	</g>
	<path fill="#FCE4DB" d="M184.008,92.969c0-21.374-17.326-38.7-38.699-38.7c-20.857,0-37.853,16.502-38.661,37.162
		c-0.014,0-0.026-0.002-0.04-0.002c-4.817,0-8.723,3.905-8.723,8.724c0,4.817,3.905,8.723,8.723,8.723
		c1.112,0,2.173-0.217,3.151-0.596c4.404,10.208,13.078,18.144,23.772,21.558l0.225,2.148c0,0,3.655,1.17,9.927,1.783
		s8.836-0.725,8.836-0.725l1.256-2.715c1.772-0.207,2.914-0.363,2.914-0.363h-0.004C172.506,125.108,184.008,110.384,184.008,92.969
		z"/>
	<g>
		<path fill="#575756" d="M137.326,92.019c-0.319,0-0.644,0.018-0.974,0.055c-3.056,0.352-5.735,2.32-7.964,5.848
			c-0.442,0.699-0.233,1.625,0.467,2.068c0.702,0.441,1.628,0.232,2.069-0.467c1.72-2.723,3.662-4.227,5.771-4.469
			c3.229-0.371,6.031,2.299,6.06,2.326c0.589,0.582,1.54,0.574,2.121-0.016s0.575-1.541-0.016-2.121
			C144.718,95.103,141.536,92.019,137.326,92.019z"/>
	</g>
	<g>
		<path fill="#575756" d="M151.029,108.546h11.212V88.591c0-0.828-0.672-1.5-1.5-1.5s-1.5,0.672-1.5,1.5v16.955h-8.212
			c-0.829,0-1.5,0.672-1.5,1.5S150.199,108.546,151.029,108.546z"/>
	</g>
	<g>
		<circle fill="#F2A489" cx="134.583" cy="108.546" r="8.393"/>
	</g>
	<path fill="#F2A489" d="M178.334,100.674c1.688,0.144,3.251,0.854,4.491,1.826c-1.371,5.489-3.907,10.405-7.3,14.647
		c-3.881-1.012-6.613-4.689-6.263-8.819C169.655,103.709,173.715,100.283,178.334,100.674z"/>
	<g>
		<path fill="#575756" d="M173.36,90.699c-4.211,0-7.393,3.084-7.535,3.225c-0.59,0.58-0.598,1.531-0.016,2.121
			c0.58,0.588,1.527,0.596,2.117,0.02l0,0c0.029-0.027,2.82-2.723,6.082-2.328c2.102,0.25,4.037,1.752,5.752,4.467
			c0.443,0.701,1.369,0.906,2.07,0.467c0.699-0.443,0.908-1.369,0.467-2.068c-2.229-3.529-4.908-5.496-7.965-5.848
			C174.002,90.717,173.678,90.699,173.36,90.699z"/>
	</g>
	<path fill="#F29100" d="M147.477,54.269c-8.885-0.258-13.76,1.566-19.32,3.993c0,0,12.232,11.615,19.799,10.865
		c7.562-0.75,5.625-5.387,5.625-5.387s-0.938,1.887-2.438,2.137s-3.125-0.125-2.521-2.137c0.243-0.811,3.27-4.051,7.353,0
		c1.885,1.87,8.231,2.762,10.981,0.762c1.655-1.204,2.131-2.02,2.131-2.02C163.976,58.357,155.356,54.497,147.477,54.269z"/>
	<path fill="#FFFFFF" d="M79.929,129.877c1.807,1.443,3.812,1.334,3.18-1.322C82.056,128.981,80.92,129.455,79.929,129.877z"/>
</g>
</svg>
