<?xml version="1.0" encoding="utf-8"?>
<!-- Generator: Adobe Illustrator 16.0.0, SVG Export Plug-In . SVG Version: 6.00 Build 0)  -->
<!DOCTYPE svg PUBLIC "-//W3C//DTD SVG 1.1//EN" "http://www.w3.org/Graphics/SVG/1.1/DTD/svg11.dtd">
<svg version="1.1" id="Layer_1" xmlns="http://www.w3.org/2000/svg" xmlns:xlink="http://www.w3.org/1999/xlink" x="0px" y="0px"
	 width="226.77px" height="226.77px" viewBox="0 0 226.77 226.77" enable-background="new 0 0 226.77 226.77" xml:space="preserve">
<g>
	<path fill="#DDEAF1" d="M162.319,89.617c-0.117-6.413-8.391-19.702-8.391-19.702s-10.891-5.562-10.053-13.413
		c-6.246,0-60.79,0-60.79,0s2.934,6.287-6.707,13.413C69.1,75.294,66.318,84.587,63.803,89.617s0,80.902,0,80.902
		s0.419,3.385,14.671,9.657c14.252,6.273,70.834,0,70.834,0s7.555,1.241,11.326-5.464
		C164.408,168.008,162.494,99.259,162.319,89.617z"/>
	<path fill="#E4133A" d="M87.667,60c0,0,1.266,5.725-3.765,10.335s-15.091,7.737-16.768,22.104s0.816,74.31,0.816,74.31
		s2.141,9.452,21.842,11.129c19.702,1.676,56.59,0.85,62.879-3.342c6.287-4.191,5.941-7.794,6.729-19.524
		c0.674-10.047,0.51-62.983-2.005-72.101c-2.515-9.115-9.828-12.673-11.121-13.456C143.875,68,141.696,60,141.696,60H87.667z"/>
	<path fill="#B8C5CE" d="M148.479,41.831H77.636c0,0-1.469,4.001-1.136,7.335s1.136,7.336,1.136,7.336h70.843
		c0,0,1.521-5.502,1.521-8.502S148.479,41.831,148.479,41.831z"/>
	<rect x="62.95" y="102.488" fill="#FFFFFF" width="99.915" height="43.714"/>
	<g>
		<rect x="62.95" y="108.734" fill="#B3DAC6" width="6.245" height="6.24"/>
		<rect x="69.195" y="108.734" fill="#FFFFFF" width="6.246" height="6.24"/>
		<rect x="75.441" y="108.734" fill="#B3DAC6" width="6.245" height="6.24"/>
		<rect x="75.441" y="102.488" fill="#95CFC4" width="6.245" height="6.246"/>
		<rect x="69.195" y="102.488" fill="#B3DAC6" width="6.246" height="6.246"/>
		<rect x="62.95" y="102.488" fill="#95CFC4" width="6.245" height="6.246"/>
		<rect x="81.686" y="108.734" fill="#FFFFFF" width="6.246" height="6.24"/>
		<rect x="62.95" y="114.974" fill="#95CFC4" width="6.245" height="6.245"/>
		<rect x="69.195" y="114.974" fill="#B3DAC6" width="6.246" height="6.245"/>
		<rect x="75.441" y="114.974" fill="#95CFC4" width="6.245" height="6.245"/>
		<rect x="81.686" y="114.974" fill="#B3DAC6" width="6.246" height="6.245"/>
		<rect x="81.686" y="102.488" fill="#B3DAC6" width="6.246" height="6.246"/>
	</g>
	<g>
		<rect x="87.932" y="108.734" fill="#B3DAC6" width="6.244" height="6.24"/>
		<rect x="94.176" y="108.734" fill="#FFFFFF" width="6.246" height="6.24"/>
		<rect x="100.422" y="108.734" fill="#B3DAC6" width="6.246" height="6.24"/>
		<rect x="100.422" y="102.488" fill="#95CFC4" width="6.246" height="6.246"/>
		<rect x="94.176" y="102.488" fill="#B3DAC6" width="6.246" height="6.246"/>
		<rect x="87.932" y="102.488" fill="#95CFC4" width="6.244" height="6.246"/>
		<rect x="106.668" y="108.734" fill="#FFFFFF" width="6.244" height="6.24"/>
		<rect x="87.932" y="114.974" fill="#95CFC4" width="6.244" height="6.245"/>
		<rect x="94.176" y="114.974" fill="#B3DAC6" width="6.246" height="6.245"/>
		<rect x="100.422" y="114.974" fill="#95CFC4" width="6.246" height="6.245"/>
		<rect x="106.668" y="114.974" fill="#B3DAC6" width="6.244" height="6.245"/>
		<rect x="106.668" y="102.488" fill="#B3DAC6" width="6.244" height="6.246"/>
	</g>
	<rect x="62.95" y="133.71" fill="#B3DAC6" width="6.245" height="6.245"/>
	<rect x="69.195" y="133.71" fill="#FFFFFF" width="6.246" height="6.245"/>
	<rect x="75.441" y="133.71" fill="#B3DAC6" width="6.245" height="6.245"/>
	<rect x="75.441" y="127.465" fill="#95CFC4" width="6.245" height="6.245"/>
	<rect x="69.195" y="127.465" fill="#B3DAC6" width="6.246" height="6.245"/>
	<rect x="62.95" y="127.465" fill="#95CFC4" width="6.245" height="6.245"/>
	<rect x="75.441" y="121.219" fill="#B3DAC6" width="6.245" height="6.246"/>
	<rect x="69.195" y="121.219" fill="#FFFFFF" width="6.246" height="6.246"/>
	<rect x="62.95" y="121.219" fill="#B3DAC6" width="6.245" height="6.246"/>
	<rect x="81.686" y="133.71" fill="#FFFFFF" width="6.246" height="6.245"/>
	<rect x="81.686" y="127.465" fill="#B3DAC6" width="6.246" height="6.245"/>
	<rect x="81.686" y="121.219" fill="#FFFFFF" width="6.246" height="6.246"/>
	<rect x="87.932" y="133.71" fill="#B3DAC6" width="6.244" height="6.245"/>
	<rect x="94.176" y="133.71" fill="#FFFFFF" width="6.246" height="6.245"/>
	<rect x="100.422" y="133.71" fill="#B3DAC6" width="6.246" height="6.245"/>
	<rect x="100.422" y="127.465" fill="#95CFC4" width="6.246" height="6.245"/>
	<rect x="94.176" y="127.465" fill="#B3DAC6" width="6.246" height="6.245"/>
	<rect x="87.932" y="127.465" fill="#95CFC4" width="6.244" height="6.245"/>
	<rect x="100.422" y="121.219" fill="#B3DAC6" width="6.246" height="6.246"/>
	<rect x="94.176" y="121.219" fill="#FFFFFF" width="6.246" height="6.246"/>
	<rect x="87.932" y="121.219" fill="#B3DAC6" width="6.244" height="6.246"/>
	<rect x="106.668" y="133.71" fill="#FFFFFF" width="6.244" height="6.245"/>
	<rect x="106.668" y="127.465" fill="#B3DAC6" width="6.244" height="6.245"/>
	<rect x="106.668" y="121.219" fill="#FFFFFF" width="6.244" height="6.246"/>
	<path fill="#95CFC4" d="M62.95,139.955v6.246h0c0.004,1.722,1.4,3.116,3.122,3.116c1.723,0,3.118-1.395,3.122-3.116h0v-6.246H62.95
		z"/>
	<path fill="#B3DAC6" d="M69.195,139.955v6.246h0c0.004,1.722,1.4,3.116,3.123,3.116c1.722,0,3.118-1.395,3.122-3.116h0v-6.246
		H69.195z"/>
	<path fill="#95CFC4" d="M75.441,139.955v6.246h0c0.004,1.722,1.4,3.116,3.122,3.116c1.722,0,3.118-1.395,3.122-3.116h0v-6.246
		H75.441z"/>
	<path fill="#B3DAC6" d="M81.686,139.955v6.246h0c0.004,1.722,1.4,3.116,3.123,3.116s3.119-1.395,3.123-3.116h0v-6.246H81.686z"/>
	<path fill="#95CFC4" d="M87.932,139.955v6.246h0c0.004,1.722,1.4,3.116,3.123,3.116s3.117-1.395,3.121-3.116h0v-6.246H87.932z"/>
	<path fill="#B3DAC6" d="M94.176,139.955v6.246h0c0.004,1.722,1.4,3.116,3.123,3.116s3.119-1.395,3.123-3.116h0v-6.246H94.176z"/>
	<path fill="#95CFC4" d="M100.422,139.955v6.246h0c0.004,1.722,1.4,3.116,3.123,3.116s3.119-1.395,3.123-3.116h0v-6.246H100.422z"/>
	<path fill="#B3DAC6" d="M106.668,139.955v6.246h0c0.004,1.722,1.398,3.116,3.122,3.116c1.721,0,3.118-1.395,3.122-3.116h0v-6.246
		H106.668z"/>
	<g>
		<rect x="112.912" y="108.734" fill="#B3DAC6" width="6.233" height="6.24"/>
		<rect x="119.146" y="108.734" fill="#FFFFFF" width="6.246" height="6.24"/>
		<rect x="125.392" y="108.734" fill="#B3DAC6" width="6.246" height="6.24"/>
		<rect x="125.392" y="102.488" fill="#95CFC4" width="6.246" height="6.246"/>
		<rect x="119.146" y="102.488" fill="#B3DAC6" width="6.246" height="6.246"/>
		<rect x="112.912" y="102.488" fill="#95CFC4" width="6.233" height="6.246"/>
		<rect x="131.638" y="108.734" fill="#FFFFFF" width="6.244" height="6.24"/>
		<rect x="112.912" y="114.974" fill="#95CFC4" width="6.233" height="6.245"/>
		<rect x="119.146" y="114.974" fill="#B3DAC6" width="6.246" height="6.245"/>
		<rect x="125.392" y="114.974" fill="#95CFC4" width="6.246" height="6.245"/>
		<rect x="131.638" y="114.974" fill="#B3DAC6" width="6.244" height="6.245"/>
		<rect x="131.638" y="102.488" fill="#B3DAC6" width="6.244" height="6.246"/>
	</g>
	<g>
		<rect x="137.882" y="108.734" fill="#B3DAC6" width="6.246" height="6.24"/>
		<rect x="144.128" y="108.734" fill="#FFFFFF" width="6.245" height="6.24"/>
		<rect x="150.373" y="108.734" fill="#B3DAC6" width="6.245" height="6.24"/>
		<rect x="150.373" y="102.488" fill="#95CFC4" width="6.245" height="6.246"/>
		<rect x="144.128" y="102.488" fill="#B3DAC6" width="6.245" height="6.246"/>
		<rect x="137.882" y="102.488" fill="#95CFC4" width="6.246" height="6.246"/>
		<rect x="156.618" y="108.734" fill="#FFFFFF" width="6.246" height="6.24"/>
		<rect x="137.882" y="114.974" fill="#95CFC4" width="6.246" height="6.245"/>
		<rect x="144.128" y="114.974" fill="#B3DAC6" width="6.245" height="6.245"/>
		<rect x="150.373" y="114.974" fill="#95CFC4" width="6.245" height="6.245"/>
		<rect x="156.618" y="114.974" fill="#B3DAC6" width="6.246" height="6.245"/>
		<rect x="156.618" y="102.488" fill="#B3DAC6" width="6.246" height="6.246"/>
	</g>
	<rect x="112.912" y="133.71" fill="#B3DAC6" width="6.233" height="6.245"/>
	<rect x="119.146" y="133.71" fill="#FFFFFF" width="6.246" height="6.245"/>
	<rect x="125.392" y="133.71" fill="#B3DAC6" width="6.246" height="6.245"/>
	<rect x="125.392" y="127.465" fill="#95CFC4" width="6.246" height="6.245"/>
	<rect x="119.146" y="127.465" fill="#B3DAC6" width="6.246" height="6.245"/>
	<rect x="112.912" y="127.465" fill="#95CFC4" width="6.233" height="6.245"/>
	<rect x="125.392" y="121.219" fill="#B3DAC6" width="6.246" height="6.246"/>
	<rect x="119.146" y="121.219" fill="#FFFFFF" width="6.246" height="6.246"/>
	<rect x="112.912" y="121.219" fill="#B3DAC6" width="6.233" height="6.246"/>
	<rect x="131.638" y="133.71" fill="#FFFFFF" width="6.244" height="6.245"/>
	<rect x="131.638" y="127.465" fill="#B3DAC6" width="6.244" height="6.245"/>
	<rect x="131.638" y="121.219" fill="#FFFFFF" width="6.244" height="6.246"/>
	<rect x="137.882" y="133.71" fill="#B3DAC6" width="6.246" height="6.245"/>
	<rect x="144.128" y="133.71" fill="#FFFFFF" width="6.245" height="6.245"/>
	<rect x="150.373" y="133.71" fill="#B3DAC6" width="6.245" height="6.245"/>
	<rect x="150.373" y="127.465" fill="#95CFC4" width="6.245" height="6.245"/>
	<rect x="144.128" y="127.465" fill="#B3DAC6" width="6.245" height="6.245"/>
	<rect x="137.882" y="127.465" fill="#95CFC4" width="6.246" height="6.245"/>
	<rect x="150.373" y="121.219" fill="#B3DAC6" width="6.245" height="6.246"/>
	<rect x="144.128" y="121.219" fill="#FFFFFF" width="6.245" height="6.246"/>
	<rect x="137.882" y="121.219" fill="#B3DAC6" width="6.246" height="6.246"/>
	<rect x="156.618" y="133.71" fill="#FFFFFF" width="6.246" height="6.245"/>
	<rect x="156.618" y="127.465" fill="#B3DAC6" width="6.246" height="6.245"/>
	<rect x="156.618" y="121.219" fill="#FFFFFF" width="6.246" height="6.246"/>
	<path fill="#95CFC4" d="M112.912,139.955v6.246h0c0.004,1.722,1.4,3.116,3.121,3.116c1.714,0,3.107-1.395,3.111-3.116h0.001v-6.246
		H112.912z"/>
	<path fill="#B3DAC6" d="M119.146,139.955v6.246h0.001c0.004,1.722,1.399,3.116,3.122,3.116s3.118-1.395,3.122-3.116h0.001v-6.246
		H119.146z"/>
	<path fill="#95CFC4" d="M125.392,139.955v6.246h0.001c0.004,1.722,1.399,3.116,3.122,3.116s3.118-1.395,3.122-3.116h0.001v-6.246
		H125.392z"/>
	<path fill="#B3DAC6" d="M131.638,139.955v6.246h0.001c0.004,1.722,1.398,3.116,3.12,3.116c1.723,0,3.118-1.395,3.122-3.116h0.001
		v-6.246H131.638z"/>
	<path fill="#95CFC4" d="M137.882,139.955v6.246h0.001c0.004,1.722,1.399,3.116,3.122,3.116s3.118-1.395,3.122-3.116h0.001v-6.246
		H137.882z"/>
	<path fill="#B3DAC6" d="M144.128,139.955v6.246h0.001c0.004,1.722,1.399,3.116,3.122,3.116s3.117-1.395,3.121-3.116h0.001v-6.246
		H144.128z"/>
	<path fill="#95CFC4" d="M150.373,139.955v6.246h0.001c0.004,1.722,1.399,3.116,3.121,3.116c1.723,0,3.118-1.395,3.122-3.116h0.001
		v-6.246H150.373z"/>
	<path fill="#B3DAC6" d="M156.618,139.955v6.246h0.001c0.004,1.722,1.399,3.116,3.122,3.116s3.118-1.395,3.122-3.116h0.001v-6.246
		H156.618z"/>
	<path fill="#FFFFFF" d="M141.456,126.293c0,6.627-5.372,12-12,12H97.248c-6.627,0-12-5.373-12-12v-0.981c0-6.628,5.373-12,12-12
		h32.208c6.628,0,12,5.372,12,12V126.293z"/>
	<g>
		<path fill="#575756" d="M93,129.042c-0.206,0-0.374-0.166-0.375-0.372c-0.001-0.207,0.165-0.376,0.372-0.378L132.331,128
			c0.001,0,0.002,0,0.003,0c0.206,0,0.373,0.166,0.375,0.372c0.002,0.207-0.165,0.376-0.372,0.378l-39.334,0.292
			C93.002,129.042,93.001,129.042,93,129.042z"/>
	</g>
</g>
</svg>
