<?xml version="1.0" encoding="utf-8"?>
<!-- Generator: Adobe Illustrator 16.0.0, SVG Export Plug-In . SVG Version: 6.00 Build 0)  -->
<!DOCTYPE svg PUBLIC "-//W3C//DTD SVG 1.1//EN" "http://www.w3.org/Graphics/SVG/1.1/DTD/svg11.dtd">
<svg version="1.1" id="Layer_1" xmlns="http://www.w3.org/2000/svg" xmlns:xlink="http://www.w3.org/1999/xlink" x="0px" y="0px"
	 width="226.77px" height="226.77px" viewBox="0 0 226.77 226.77" enable-background="new 0 0 226.77 226.77" xml:space="preserve">
<g>
	<g>
		<path fill="#54566D" d="M163.756,32.508c-9.867-0.459-17.826-0.104-22.809,0.279c0.012-3.266,0.062-6.136,0.178-7.76
			l-16.088,13.238l16.088,13.239c0,0-0.062-3.24-0.113-7.507c4.355-0.211,10.932-0.148,18.92,1.128
			c2.586,0.412,4.68,1.033,6.398,1.814V32.749C165.508,32.638,164.658,32.55,163.756,32.508z"/>
	</g>
	<path fill="#DDE9F0" d="M70.567,43.452c0,0,0.479,3.268,1.281,6.628c1.192,4.987,4.8,10.854,5.772,15.57
		c2.074,10.062-13.112,31.821-16.162,44.019c-3.049,12.197-2.171,69.212,1.858,81.568c3.821,11.717,51.665,9.365,60.759,6.188
		c15.153-5.295,9.562-58.535,8.875-78.723c-0.688-20.189-14.778-43.152-17.082-49.812c-1.414-4.09,1.345-12.846,2.534-19.596
		c0.849-4.812,0.645-7.105,0.645-7.105L70.567,43.452z"/>
	<path fill="#C1D4E0" d="M71.979,186.531c0,0,6.133-2.6,23.702-2.588c11.979,0.012,21.656,2.848,22.83,3.633
		c1.173,0.783-2.548,3.139-16.638,3.922c-14.088,0.785-27.422-2.354-27.422-2.354S70.865,186.778,71.979,186.531z"/>
	<path opacity="0.5" fill="#FFFFFF" d="M88.639,93.842c0,0,0.097,51.03,0,63.051c-0.061,7.613-1.289,10.35-1.289,10.35h5.157
		l0.051-31.742V93.842H88.639z"/>
	<path opacity="0.5" fill="#FFFFFF" d="M77.795,93.842c0,0-0.362,40.399-0.632,41.034s-0.876,10.736-0.876,10.736l6.491,0.922
		l1.374-52.692H77.795"/>
	<g>
		<path fill="#C5AF95" d="M84.118,34.362l26.834-0.653c0,0,2.778,0,6.214,0c0.042,3.211-0.844,14.855-1.932,19.097
			c-4.4,0.705-15.895,0.67-22.535,0.67s-12.579-0.162-17.29-0.836c-0.773-3.192-5.248-17.735-4.21-17.75
			C73.706,34.852,79.218,34.257,84.118,34.362z"/>
		<polygon fill="#978875" points="80.766,42.841 80.766,45.455 82.376,45.455 81.571,42.841 		"/>
		<rect x="98.398" y="47.415" fill="#978875" width="0.827" height="3.759"/>
		<polygon fill="#978875" points="104.453,40.391 105.596,40.391 105.024,42.188 103.8,42.188 		"/>
		<rect x="108.537" y="47.415" fill="#978875" width="1.307" height="3.759"/>
		<polygon fill="#978875" points="73.414,40.391 75.538,37.45 76.355,38.921 73.414,41.456 		"/>
		<polygon fill="#978875" points="92.363,34.161 92.363,38.266 93.181,38.266 94.103,34.12 		"/>
		<polygon fill="#978875" points="90.894,49.294 89.154,46.926 88.28,47.415 89.587,50.518 		"/>
		<rect x="110.987" y="44.147" fill="#978875" width="1.308" height="5.146"/>
	</g>
	<path opacity="0.5" fill="#DDEAF1" d="M117.033,42.434l-44.17,1.014c0.929,3.786,2.158,7.583,2.547,9.191
		c4.711,0.674,10.907,1.072,17.547,1.072s18.135,0.034,22.535-0.67C116.12,50.592,116.68,46.27,117.033,42.434z"/>
</g>
</svg>
