<?xml version="1.0" encoding="utf-8"?>
<!-- Generator: Adobe Illustrator 16.0.0, SVG Export Plug-In . SVG Version: 6.00 Build 0)  -->
<!DOCTYPE svg PUBLIC "-//W3C//DTD SVG 1.1//EN" "http://www.w3.org/Graphics/SVG/1.1/DTD/svg11.dtd">
<svg version="1.1" id="Layer_1" xmlns="http://www.w3.org/2000/svg" xmlns:xlink="http://www.w3.org/1999/xlink" x="0px" y="0px"
	 width="266px" height="226.77px" viewBox="-23.115 0 266 226.77" enable-background="new -23.115 0 266 226.77"
	 xml:space="preserve">
<g>
	<path fill="#B8C5CE" d="M128.698,102.259H-8.138c0,0,17.827,31.878,117.284,27.174c1.557-5.926,2.1-6.797,3.317-11.689
		c1.404-5.643,8.075-5.762,16.236-5.345C128.698,103.316,128.698,102.259,128.698,102.259z"/>
	<path fill="#F29100" d="M126.96,100.593c0,0,93.77-6.518,100.763,0.742c5.911,6.135,5.819,15.522-14.873,16.259
		c-20.691,0.739-85.89-2.959-85.89-2.959V100.593z"/>
	<circle fill="#FFFFFF" cx="139.921" cy="106.926" r="1.86"/>
	<circle fill="#FFFFFF" cx="179.03" cy="106.273" r="1.86"/>
	<circle fill="#FFFFFF" cx="216.245" cy="106.922" r="1.86"/>
	<polygon opacity="0.5" fill="#F2F2F2" points="36.585,112.04 40.085,112.04 43.537,126.307 40.631,125.771 	"/>
	<polygon opacity="0.5" fill="#F2F2F2" points="46.747,126.846 43.085,112.04 42.272,112.04 45.812,126.695 	"/>
</g>
</svg>
