<?xml version="1.0" encoding="utf-8"?>
<!-- Generator: Adobe Illustrator 16.0.0, SVG Export Plug-In . SVG Version: 6.00 Build 0)  -->
<!DOCTYPE svg PUBLIC "-//W3C//DTD SVG 1.1//EN" "http://www.w3.org/Graphics/SVG/1.1/DTD/svg11.dtd">
<svg version="1.1" id="Layer_1" xmlns="http://www.w3.org/2000/svg" xmlns:xlink="http://www.w3.org/1999/xlink" x="0px" y="0px"
	 width="226.77px" height="226.77px" viewBox="0 0 226.77 226.77" enable-background="new 0 0 226.77 226.77" xml:space="preserve">
<path fill="#FFE6A1" d="M104.944,150.156l49-62.852l13.556-18.26c0,0,9.694,30.111,12.444,48.112c2.75,18,2.25,28.75,2.25,28.75
	l-49,9.75l-16.25,1.5l-1.5,2.5c0,0-9.322,3.072-11.072,1.822s-2.178-6.572-1.678-7.822S104.944,150.156,104.944,150.156z"/>
<path fill="#F3C74A" d="M102.565,154.906c0,0-18.121-4.5-25.621-5.5s-13.247-0.67-13.247-0.67s0.997,2.475-1.503,3.197
	s-5.75-2.973-5.75-2.973l-13-0.18l2.25,6.125c0,0,53.5,7.232,57.75,6.75c4.25-0.484,1.3-3.609,1.3-3.609
	S104.853,155.465,102.565,154.906z"/>
<path fill="#FFDA62" d="M167.499,69.045c0,0-18.556-5.174-31.806-0.406s-18.258,7.844-33.129,21.931s-50.371,48.587-50.371,48.587
	l-8.75,9.625l13,0.18c0,0,11.881-0.633,17.75,0.156c5.869,0.787,28.371,5.789,28.371,5.789L167.499,69.045z"/>
<path fill="#FFEAC6" d="M167.499,69.045c0,0-36.472,47.278-40.139,50.612c-3.667,3.332-21.889,29.027-21.889,29.027
	s-3.696,4.104-4.034,5.921c0.666,0.243,0.833,0.25,1.127,0.302c1.699,0.3,10.129-11.25,14.462-17.25
	c4.334-6,25.668-32.001,30.334-38.667s10.333-15.588,14.333-18.627S168.332,71.694,167.499,69.045"/>
<path fill="#FBC14F" d="M64.365,148.729c0,0,0.835-0.072-0.668-2.822s-4.503-1-5.753,0s-1.5,3.055-1.5,3.055s2.171,3.162,3.96,3.27
	C62.194,152.34,64.365,151.559,64.365,148.729z"/>
<path fill="#FBC14F" d="M95.944,142.406c3.971-0.541,9.5-1.904,7.5-6.328c-2-4.422-10.75-1.672-12.25,1.078
	S93.327,142.762,95.944,142.406z"/>
<path fill="#FFCE50" d="M116.944,157.156c0,0,1.5-8.391,6-8.82s11.938,6.984,11.938,6.984L116.944,157.156z"/>
<path fill="#FFCE50" d="M154.444,133.75c1.965-4.523,4.5-11.594,0-15.344s-14,1.5-10.75,9.75S152.132,139.074,154.444,133.75z"/>
<path fill="#FBC14F" d="M151.933,92.346c0,0,2.645,6.06,2.261,8.31c-0.298,1.744-0.902,4.25-4.201,4.5s-5.186-2.723-5.186-2.723
	s-10.363-0.777-12.363-1.277s-7.5-6.119,0-8.81S151.933,92.346,151.933,92.346z"/>
<path fill="#FBC14F" d="M80.444,130.906c0.667-0.785-0.953-6.898-5.852-4.199S76.194,135.906,80.444,130.906z"/>
<path fill="#FBC14F" d="M85.694,121.156c0,0,3.5,4,8.25,0s-0.25-7.397-4.125-5.949C85.944,116.656,83.35,119.656,85.694,121.156z"/>
<path fill="#FBC14F" d="M125.913,83.666c2.627,1.042,3.53-1.924,1.78-4.342S119.632,81.176,125.913,83.666z"/>
<path fill="#FDCD50" d="M172.738,104.603c3.305-2.932,0.456-9.25-2.544-8.25S169.282,107.67,172.738,104.603z"/>
<path fill="#FFDA62" d="M181.346,128.141l-32.902,24.481l33.75-6.716C182.229,135.544,182.5,135.502,181.346,128.141z"/>
</svg>
