<?xml version="1.0" encoding="UTF-8" standalone="no"?>
<!-- Generator: Adobe Illustrator 16.0.0, SVG Export Plug-In . SVG Version: 6.00 Build 0)  -->

<svg
   xmlns:dc="http://purl.org/dc/elements/1.1/"
   xmlns:cc="http://creativecommons.org/ns#"
   xmlns:rdf="http://www.w3.org/1999/02/22-rdf-syntax-ns#"
   xmlns:svg="http://www.w3.org/2000/svg"
   xmlns="http://www.w3.org/2000/svg"
   xmlns:sodipodi="http://sodipodi.sourceforge.net/DTD/sodipodi-0.dtd"
   xmlns:inkscape="http://www.inkscape.org/namespaces/inkscape"
   version="1.1"
   id="Layer_1"
   x="0px"
   y="0px"
   width="132.944"
   height="133.261"
   viewBox="0 0 132.94399 133.261"
   enable-background="new 0 0 595.28 841.89"
   xml:space="preserve"
   inkscape:version="0.91 r13725"
   sodipodi:docname="0.svg"><metadata
     id="metadata3470"><rdf:RDF><cc:Work
         rdf:about=""><dc:format>image/svg+xml</dc:format><dc:type
           rdf:resource="http://purl.org/dc/dcmitype/StillImage" /><dc:title /></cc:Work></rdf:RDF></metadata><defs
     id="defs3468" /><sodipodi:namedview
     pagecolor="#ffffff"
     bordercolor="#666666"
     borderopacity="1"
     objecttolerance="10"
     gridtolerance="10"
     guidetolerance="10"
     inkscape:pageopacity="0"
     inkscape:pageshadow="2"
     inkscape:window-width="699"
     inkscape:window-height="480"
     id="namedview3466"
     showgrid="false"
     fit-margin-top="0"
     fit-margin-left="0"
     fit-margin-right="0"
     fit-margin-bottom="0"
     inkscape:zoom="0.77088454"
     inkscape:cx="66.449009"
     inkscape:cy="66.802993"
     inkscape:window-x="0"
     inkscape:window-y="0"
     inkscape:window-maximized="0"
     inkscape:current-layer="Layer_1" /><g
     id="g3424"
     transform="matrix(0.70727272,0,0,0.7274378,-144.05693,-239.70629)"><g
       id="g3426"><path
         d="m 310.822,421.118 c 0,-25.93 14.822,-48.384 36.446,-59.396 -9.063,-4.616 -19.315,-7.235 -30.185,-7.235 -36.799,0 -66.63,29.832 -66.63,66.631 0,36.798 29.832,66.63 66.63,66.63 10.869,0 21.121,-2.619 30.185,-7.234 -21.623,-11.012 -36.446,-33.467 -36.446,-59.396 z"
         id="path3428"
         inkscape:connector-curvature="0"
         style="fill:#ffef76" /></g><g
       id="g3430"><circle
         cx="279.24301"
         cy="420.48801"
         r="9.0909996"
         id="circle3432"
         style="fill:#f4a68b" /></g><g
       id="g3434"><path
         d="m 292.756,413.855 c -0.308,0 -0.613,-0.017 -0.919,-0.05 -6.98,-0.76 -10.628,-9.936 -10.78,-10.326 -0.3,-0.771 0.082,-1.639 0.853,-1.94 0.772,-0.3 1.641,0.08 1.942,0.851 0.031,0.079 3.145,7.877 8.316,8.434 3.405,0.365 7.367,-2.646 11.416,-8.72 0.46,-0.689 1.389,-0.875 2.08,-0.416 0.689,0.459 0.876,1.391 0.416,2.08 -4.466,6.699 -8.944,10.087 -13.324,10.087 z"
         id="path3436"
         inkscape:connector-curvature="0"
         style="fill:#575756" /></g><g
       id="g3438"><circle
         cx="344.22601"
         cy="397.289"
         r="3.54"
         id="circle3440"
         style="fill:#fff192" /></g><g
       id="g3442"><circle
         cx="252.73599"
         cy="374.45001"
         r="2.674"
         id="circle3444"
         style="fill:#fff192" /></g><g
       id="g3446"><circle
         cx="237.60201"
         cy="397.91699"
         r="6.4109998"
         id="circle3448"
         style="fill:#fff192" /></g><g
       id="g3450"><circle
         cx="360.595"
         cy="443.93399"
         r="3.54"
         id="circle3452"
         style="fill:#fff192" /></g><g
       id="g3454"><circle
         cx="338.46301"
         cy="431.59601"
         r="5.0710001"
         id="circle3456"
         style="fill:#fff192" /></g><g
       id="g3458"><circle
         cx="236.974"
         cy="447.47299"
         r="3.54"
         id="circle3460"
         style="fill:#fff192" /></g><g
       id="g3462"><circle
         cx="250.45399"
         cy="359.009"
         r="3.54"
         id="circle3464"
         style="fill:#fff192" /></g></g></svg>