<?xml version="1.0" encoding="UTF-8" standalone="no"?>
<!-- Generator: Adobe Illustrator 16.0.0, SVG Export Plug-In . SVG Version: 6.00 Build 0)  -->

<svg
   xmlns:dc="http://purl.org/dc/elements/1.1/"
   xmlns:cc="http://creativecommons.org/ns#"
   xmlns:rdf="http://www.w3.org/1999/02/22-rdf-syntax-ns#"
   xmlns:svg="http://www.w3.org/2000/svg"
   xmlns="http://www.w3.org/2000/svg"
   xmlns:sodipodi="http://sodipodi.sourceforge.net/DTD/sodipodi-0.dtd"
   xmlns:inkscape="http://www.inkscape.org/namespaces/inkscape"
   version="1.1"
   id="Layer_1"
   x="0px"
   y="0px"
   width="128.02905"
   height="129.77409"
   viewBox="0 0 128.02905 129.77409"
   enable-background="new 0 0 595.28 841.89"
   xml:space="preserve"
   inkscape:version="0.91 r13725"
   sodipodi:docname="1.svg"><metadata
     id="metadata3556"><rdf:RDF><cc:Work
         rdf:about=""><dc:format>image/svg+xml</dc:format><dc:type
           rdf:resource="http://purl.org/dc/dcmitype/StillImage" /><dc:title></dc:title></cc:Work></rdf:RDF></metadata><defs
     id="defs3554" /><sodipodi:namedview
     pagecolor="#ffffff"
     bordercolor="#666666"
     borderopacity="1"
     objecttolerance="10"
     gridtolerance="10"
     guidetolerance="10"
     inkscape:pageopacity="0"
     inkscape:pageshadow="2"
     inkscape:window-width="640"
     inkscape:window-height="480"
     id="namedview3552"
     showgrid="false"
     fit-margin-top="0"
     fit-margin-left="0"
     fit-margin-right="0"
     fit-margin-bottom="0"
     inkscape:zoom="0.28032165"
     inkscape:cx="61.712956"
     inkscape:cy="85.37409"
     inkscape:window-x="20"
     inkscape:window-y="42"
     inkscape:window-maximized="0"
     inkscape:current-layer="Layer_1" /><g
     id="g3538"
     transform="translate(-235.92706,-376.545)"><path
       d="m 342.847,444.146 c -3.432,-9.037 6.211,-3.51 3.162,-20.881 -3.051,-17.371 -28.367,-26.912 -40.945,-18.375 -12.576,8.537 -28.834,5.521 -50.459,11.549 -21.627,6.027 -25.748,48.963 -5.609,65.537 20.141,16.572 33.326,9.791 45.566,18.078 12.238,8.287 35.73,8.285 49.973,-4.52 14.242,-12.807 21.152,-17.326 19.051,-35.379 -1.694,-14.551 -17.081,-6.383 -20.739,-16.009 z"
       id="path3540"
       inkscape:connector-curvature="0"
       style="fill:#f4f2e7" /><g
       id="g3542"><path
         d="m 344.534,492.606 c -14.242,12.805 -37.736,12.807 -49.975,4.52 -12.239,-8.287 -25.426,-1.506 -45.564,-18.078 -8.521,-7.012 -12.684,-18.742 -13.031,-30.4 -0.445,12.744 3.668,26.146 13.031,33.85 20.139,16.574 33.326,9.793 45.564,18.08 12.238,8.287 35.732,8.285 49.975,-4.52 13.082,-11.764 19.973,-16.543 19.379,-31.236 -0.58,12.083 -7.377,16.991 -19.379,27.784 z"
         id="path3544"
         inkscape:connector-curvature="0"
         style="fill:#e7e5da" /></g><circle
       cx="295.715"
       cy="453.755"
       r="23.729"
       id="circle3546"
       style="fill:#fdd070" /><path
       d="m 298.509,466.917 c 0,0 9.488,-2.963 10.586,-7.059 1.1,-4.094 0.602,-4.895 1.34,-6.133 1.221,-2.047 3.59,-1.547 3.623,1.279 0.055,4.738 -0.912,9.137 -7.627,13.764 -5.604,3.861 -8.43,4.02 -9.965,2.686 -1.629,-1.414 -0.453,-4.437 2.043,-4.537 z"
       id="path3548"
       inkscape:connector-curvature="0"
       style="fill:#fff5bf" /><path
       d="m 328.011,376.545 c -16.432,0 -37.691,1.294 -38.801,25.215 -0.459,9.868 -0.104,17.827 0.279,22.809 -3.266,-0.012 -6.136,-0.062 -7.76,-0.178 l 13.238,16.088 13.238,-16.088 c 0,0 -3.24,0.063 -7.507,0.114 -0.211,-4.355 -0.148,-10.932 1.128,-18.921 2.881,-18.034 15.596,-12.889 26.184,-13.593 0.001,0.001 0.079,-4.918 0.001,-15.446 z"
       id="path3550"
       inkscape:connector-curvature="0"
       style="fill:#54566d" /></g></svg>