<?xml version="1.0" encoding="UTF-8" standalone="no"?>
<!-- Generator: Adobe Illustrator 16.0.0, SVG Export Plug-In . SVG Version: 6.00 Build 0)  -->

<svg
   xmlns:dc="http://purl.org/dc/elements/1.1/"
   xmlns:cc="http://creativecommons.org/ns#"
   xmlns:rdf="http://www.w3.org/1999/02/22-rdf-syntax-ns#"
   xmlns:svg="http://www.w3.org/2000/svg"
   xmlns="http://www.w3.org/2000/svg"
   xmlns:sodipodi="http://sodipodi.sourceforge.net/DTD/sodipodi-0.dtd"
   xmlns:inkscape="http://www.inkscape.org/namespaces/inkscape"
   version="1.1"
   id="Layer_1"
   x="0px"
   y="0px"
   width="138.261"
   height="155.908"
   viewBox="0 0 138.26099 155.908"
   enable-background="new 0 0 595.28 841.89"
   xml:space="preserve"
   inkscape:version="0.91 r13725"
   sodipodi:docname="3.svg"><metadata
     id="metadata4041"><rdf:RDF><cc:Work
         rdf:about=""><dc:format>image/svg+xml</dc:format><dc:type
           rdf:resource="http://purl.org/dc/dcmitype/StillImage" /><dc:title /></cc:Work></rdf:RDF></metadata><defs
     id="defs4039" /><sodipodi:namedview
     pagecolor="#ffffff"
     bordercolor="#666666"
     borderopacity="1"
     objecttolerance="10"
     gridtolerance="10"
     guidetolerance="10"
     inkscape:pageopacity="0"
     inkscape:pageshadow="2"
     inkscape:window-width="699"
     inkscape:window-height="480"
     id="namedview4037"
     showgrid="false"
     fit-margin-top="0"
     fit-margin-left="0"
     fit-margin-right="0"
     fit-margin-bottom="0"
     inkscape:zoom="0.28032165"
     inkscape:cx="37.679015"
     inkscape:cy="66.037993"
     inkscape:window-x="40"
     inkscape:window-y="84"
     inkscape:window-maximized="0"
     inkscape:current-layer="Layer_1" /><g
     id="g3829"
     transform="matrix(0.74198577,0,0,0.81695202,-175.05071,-256.20307)"><g
       id="g3831"><path
         d="m 395.649,425.277 c -9.868,-0.459 -17.826,-0.105 -22.809,0.278 0.012,-3.266 0.062,-6.136 0.178,-7.759 l -16.089,13.238 16.089,13.238 c 0,0 -0.063,-3.24 -0.114,-7.506 4.356,-0.211 10.932,-0.148 18.921,1.127 2.585,0.412 4.68,1.033 6.397,1.814 l 0,-14.191 c -0.822,-0.11 -1.67,-0.198 -2.573,-0.239 z"
         id="path3833"
         inkscape:connector-curvature="0"
         style="fill:#54566d" /></g><g
       id="g3835"><g
         id="g3837"><polygon
           points="322.173,372.438 320.489,374.027 318.077,372.4 316.313,374.32 314.309,373.387 312.612,375.405 312.611,375.406 310.108,374.266 308.604,375.985 308.289,376.03 306.782,374.65 304.974,376.257 303.279,375.164 301.595,376.753 299.183,375.125 297.42,377.046 297.426,377.188 295.438,375.81 294.066,377.813 291.557,376.352 289.89,378.256 288.229,376.735 286.421,378.343 284.727,377.249 283.042,378.838 280.63,377.211 278.867,379.131 278.755,379.305 276.431,377.694 275.06,379.697 272.55,378.236 270.882,380.14 269.224,378.62 267.414,380.227 265.72,379.133 264.035,380.723 262.311,380.051 260.011,383.051 260.011,383.133 266.354,386.852 279.742,394.672 354.638,385.465 324.287,374.273 324.385,373.875 323.868,373.532 "
           id="polygon3839"
           style="fill:#bb925f" /></g><g
         id="g3841"><polygon
           points="344.35,380.598 341.873,377.363 338.357,378.355 335.581,375.093 332.309,376.415 329.831,373.759 327.811,375.086 325.434,372.399 324.138,374.221 323.623,377.488 320.423,389.672 354.813,385.119 352.161,381.229 349.4,381.967 346.661,378.926 "
           id="polygon3843"
           style="fill:#c39863" /></g><g
         id="g3845"><g
           id="g3847"><g
             id="g3849"><path
               d="m 269.884,370.408 c -1.137,1.664 -4.975,4.385 -3.52,10.889 1.453,6.508 23.758,73.553 23.758,73.553 0,0 1.631,7.854 4.793,6.316 3.162,-1.535 4.25,-13.875 2.826,-26.027 -1.422,-12.154 -8.914,-51.232 -8.281,-53.74 0.633,-2.508 1.014,-8.186 -3.705,-11.987 -4.719,-3.8 -12.359,-4.151 -15.871,0.996 z"
               id="path3851"
               inkscape:connector-curvature="0"
               style="fill:#f08400" /></g><g
             id="g3853"><path
               d="m 265.003,355.651 1.932,-0.829 8.584,14.669 c 0,0 -1.588,0.318 -3.611,0.617 -0.354,-2.173 -6.905,-14.457 -6.905,-14.457 z"
               id="path3855"
               inkscape:connector-curvature="0"
               style="fill:#93c01f" /></g><g
             id="g3857"><path
               d="m 268.208,349.124 3.215,-1.208 5.207,21.232 c 0,0 -0.885,0.36 -2.519,0.792 -0.248,-1.939 -2.831,-7.692 -2.831,-7.692 l -3.072,-13.124 z"
               id="path3859"
               inkscape:connector-curvature="0"
               style="fill:#39a935" /></g><g
             id="g3861"><polygon
               points="275.2,353.19 278.272,353.864 277.299,369.355 274.511,369.16 "
               id="polygon3863"
               style="fill:#93c01f" /></g><g
             id="g3865"><path
               d="m 267.368,384.896 c 0,0 3.68,-0.709 4.959,-1.992 1.281,-1.283 2.648,-2.499 3.152,-1.682 0.506,0.818 0.387,1.154 -1.928,2.488 -2.316,1.336 -5.693,2.799 -5.693,2.799 l -0.49,-1.613 z"
               id="path3867"
               inkscape:connector-curvature="0"
               style="fill:#c1472a" /></g><g
             id="g3869"><path
               d="m 290.308,389.279 c 0,0 -2.721,1.471 -4.387,1.602 -1.666,0.131 -2.141,0.191 -2.307,0.773 -0.168,0.582 -0.117,1.617 2.369,0.98 2.484,-0.635 4.617,-1.463 4.617,-1.463 l -0.292,-1.892 z"
               id="path3871"
               inkscape:connector-curvature="0"
               style="fill:#c1472a" /></g><g
             id="g3873"><path
               d="m 273.407,403.99 c 0,0 2.486,0.174 4.256,-0.445 1.768,-0.621 1.887,-0.957 2.646,-0.652 0.758,0.305 1.822,1.127 -0.281,1.916 -2.102,0.791 -5.949,1.258 -5.949,1.258 l -0.672,-2.077 z"
               id="path3875"
               inkscape:connector-curvature="0"
               style="fill:#c1472a" /></g><g
             id="g3877"><path
               d="m 291.974,399.578 c 0,0 -1.373,1.049 -2.793,1.229 -1.42,0.18 -3.242,0.33 -3.242,0.33 0,0 -1.113,0.701 -0.137,1.461 0.979,0.758 2.482,0.074 3.908,-0.1 1.428,-0.176 2.604,-0.895 2.604,-0.895 l -0.34,-2.025 z"
               id="path3879"
               inkscape:connector-curvature="0"
               style="fill:#c1472a" /></g><g
             id="g3881"><path
               d="m 283.712,425.699 c 0,0 2.77,-1.295 3.641,-0.891 0.871,0.404 0.908,0.701 -0.75,1.416 -1.66,0.717 -3.545,2.104 -3.582,0.877 -0.038,-1.224 -0.409,-0.947 0.691,-1.402 z"
               id="path3883"
               inkscape:connector-curvature="0"
               style="fill:#c1472a" /></g><g
             id="g3885"><path
               d="m 296.989,429.699 c 0,0 -0.578,0.754 -3.541,0.867 -2.961,0.111 -3.592,-0.043 -4.186,0.102 -0.594,0.145 -1.719,0.494 0.277,1.127 1.992,0.633 2.211,0.426 4.195,-0.059 1.986,-0.486 3.434,-0.834 3.434,-0.834 l -0.179,-1.203 z"
               id="path3887"
               inkscape:connector-curvature="0"
               style="fill:#c1472a" /></g><g
             id="g3889"><path
               d="m 298.28,448.867 c 0,0 -2.707,0.326 -3.875,-0.16 -1.168,-0.488 -2.105,1.033 -1.352,1.438 0.754,0.406 1.492,0.688 2.559,0.426 1.068,-0.262 2.605,-0.521 2.605,-0.521 l 0.063,-1.183 z"
               id="path3891"
               inkscape:connector-curvature="0"
               style="fill:#c1472a" /></g><g
             id="g3893"><path
               d="m 292.552,441.131 c 0,0 -1.795,1.213 -3.229,0.793 -1.434,-0.422 -2.316,1.646 -0.391,1.945 1.926,0.301 4.223,-0.568 4.971,-1.215 0.746,-0.646 0.434,-2.299 -1.351,-1.523 z"
               id="path3895"
               inkscape:connector-curvature="0"
               style="fill:#c1472a" /></g><g
             id="g3897"><path
               d="m 294.267,413.088 c 0,0 -1.982,2.033 -4.475,1.096 -2.49,-0.939 -3.357,0.352 -2.75,1.361 0.605,1.012 1.314,1.609 4.107,0.926 2.793,-0.683 3.455,-1.391 3.455,-1.391 l -0.337,-1.992 z"
               id="path3899"
               inkscape:connector-curvature="0"
               style="fill:#c1472a" /></g></g><g
           id="g3901"><path
             d="m 289.55,383.686 c 0,0 -5.583,0.018 -5.992,0.881 -0.409,0.862 -0.409,0.862 0.174,1.295 0.973,0.721 6.029,-0.42 6.029,-0.42 l -0.211,-1.756 z"
             id="path3903"
             inkscape:connector-curvature="0"
             style="fill:#c1472a" /></g></g><g
         id="g3905"><g
           id="g3907"><g
             id="g3909"><path
               d="m 299.126,351.975 c -1.598,1.228 -6.091,2.621 -6.729,9.256 -0.642,6.636 -0.279,77.293 -0.279,77.293 0,0 -0.891,7.972 2.593,7.493 3.482,-0.477 8.352,-11.867 10.775,-23.859 2.426,-11.994 7.45,-51.465 8.832,-53.653 1.381,-2.187 3.507,-7.465 0.203,-12.544 -3.304,-5.078 -10.458,-7.786 -15.395,-3.986 z"
               id="path3911"
               inkscape:connector-curvature="0"
               style="fill:#f08400" /></g><g
             id="g3913"><path
               d="m 299.073,336.432 2.094,-0.188 3.6,16.61 c 0,0 -1.608,-0.191 -3.624,-0.536 0.338,-2.174 -2.07,-15.886 -2.07,-15.886 z"
               id="path3915"
               inkscape:connector-curvature="0"
               style="fill:#93c01f" /></g><g
             id="g3917"><path
               d="m 304.148,331.224 3.431,-0.149 -1.649,21.798 c 0,0 -0.953,0.067 -2.64,-0.03 0.366,-1.92 -0.301,-8.191 -0.301,-8.191 l 1.159,-13.428 z"
               id="path3919"
               inkscape:connector-curvature="0"
               style="fill:#39a935" /></g><g
             id="g3921"><polygon
               points="309.53,337.263 312.241,338.858 306.501,353.279 303.911,352.227 "
               id="polygon3923"
               style="fill:#93c01f" /></g><g
             id="g3925"><path
               d="m 292.232,364.964 c 0,0 3.717,0.471 5.332,-0.352 1.617,-0.822 3.294,-1.552 3.519,-0.619 0.227,0.935 0.009,1.217 -2.605,1.767 -2.616,0.549 -6.281,0.89 -6.281,0.89 l 0.035,-1.686 z"
               id="path3927"
               inkscape:connector-curvature="0"
               style="fill:#c1472a" /></g><g
             id="g3929"><path
               d="m 312.673,376.259 c 0,0 -3.043,0.552 -4.667,0.159 -1.624,-0.393 -2.094,-0.483 -2.433,0.018 -0.341,0.501 -0.614,1.501 1.946,1.669 2.56,0.168 4.844,0.044 4.844,0.044 l 0.31,-1.89 z"
               id="path3931"
               inkscape:connector-curvature="0"
               style="fill:#c1472a" /></g><g
             id="g3933"><path
               d="m 292.038,384.988 c 0,0 2.309,0.938 4.183,0.9 1.873,-0.041 2.091,-0.322 2.719,0.202 0.625,0.525 1.382,1.638 -0.863,1.735 -2.243,0.098 -6.045,-0.655 -6.045,-0.655 l 0.006,-2.182 z"
               id="path3935"
               inkscape:connector-curvature="0"
               style="fill:#c1472a" /></g><g
             id="g3937"><path
               d="m 311.056,386.566 c 0,0 -1.631,0.569 -3.036,0.299 -1.405,-0.27 -3.185,-0.693 -3.185,-0.693 0,0 -1.276,0.32 -0.584,1.346 0.694,1.024 2.337,0.842 3.746,1.12 1.411,0.276 2.752,-0.041 2.752,-0.041 l 0.307,-2.031 z"
               id="path3939"
               inkscape:connector-curvature="0"
               style="fill:#c1472a" /></g><g
             id="g3941"><path
               d="m 295.085,408.826 c 0,0 3.035,-0.371 3.737,0.284 0.702,0.655 0.645,0.95 -1.153,1.114 -1.801,0.164 -4.023,0.896 -3.678,-0.28 0.345,-1.176 -0.093,-1.028 1.094,-1.118 z"
               id="path3943"
               inkscape:connector-curvature="0"
               style="fill:#c1472a" /></g><g
             id="g3945"><path
               d="m 306.462,416.754 c 0,0 -0.784,0.538 -3.636,-0.276 -2.849,-0.814 -3.4,-1.157 -4.01,-1.204 -0.61,-0.047 -1.787,-0.064 -0.087,1.157 1.697,1.221 1.969,1.093 4.006,1.248 2.039,0.155 3.522,0.274 3.522,0.274 l 0.205,-1.199 z"
               id="path3947"
               inkscape:connector-curvature="0"
               style="fill:#c1472a" /></g><g
             id="g3949"><path
               d="m 301.731,435.374 c 0,0 -2.675,-0.531 -3.634,-1.356 -0.958,-0.827 -2.322,0.328 -1.731,0.945 0.591,0.621 1.205,1.117 2.3,1.201 1.097,0.082 2.639,0.313 2.639,0.313 l 0.426,-1.103 z"
               id="path3951"
               inkscape:connector-curvature="0"
               style="fill:#c1472a" /></g><g
             id="g3953"><path
               d="m 298.69,426.241 c 0,0 -2.083,0.595 -3.314,-0.251 -1.231,-0.846 -2.714,0.846 -0.977,1.729 1.737,0.885 4.19,0.771 5.103,0.39 0.91,-0.383 1.127,-2.05 -0.812,-1.868 z"
               id="path3955"
               inkscape:connector-curvature="0"
               style="fill:#c1472a" /></g><g
             id="g3957"><path
               d="m 309.036,400.12 c 0,0 -2.516,1.315 -4.593,-0.351 -2.075,-1.666 -3.301,-0.709 -3.037,0.439 0.261,1.15 0.749,1.938 3.616,2.156 2.867,0.219 3.716,-0.248 3.716,-0.248 l 0.298,-1.996 z"
               id="path3959"
               inkscape:connector-curvature="0"
               style="fill:#c1472a" /></g></g><g
           id="g3961"><path
             d="m 313.691,370.708 c 0,0 -5.312,-1.719 -5.969,-1.026 -0.657,0.693 -0.657,0.693 -0.237,1.286 0.7,0.987 5.86,1.475 5.86,1.475 l 0.346,-1.735 z"
             id="path3963"
             inkscape:connector-curvature="0"
             style="fill:#c1472a" /></g></g><g
         id="g3965"><g
           id="g3967"><g
             id="g3969"><path
               d="m 336.287,368.535 c -1.821,0.863 -6.507,1.277 -8.531,7.628 -2.027,6.351 -16.582,75.494 -16.582,75.494 0,0 -2.553,7.604 0.953,7.872 3.505,0.269 10.668,-9.837 15.567,-21.05 4.902,-11.211 18.142,-48.734 19.954,-50.58 1.812,-1.847 5.003,-6.558 2.845,-12.22 -2.157,-5.661 -8.578,-9.817 -14.206,-7.144 z"
               id="path3971"
               inkscape:connector-curvature="0"
               style="fill:#f08400" /></g><g
             id="g3973"><path
               d="m 339.515,353.331 2.086,0.258 0.015,16.996 c 0,0 -1.532,-0.526 -3.43,-1.289 0.79,-2.055 1.329,-15.965 1.329,-15.965 z"
               id="path3975"
               inkscape:connector-curvature="0"
               style="fill:#93c01f" /></g><g
             id="g3977"><path
               d="m 345.574,349.311 3.385,0.578 -6.211,20.96 c 0,0 -0.946,-0.135 -2.574,-0.586 0.763,-1.8 1.435,-8.07 1.435,-8.07 l 3.965,-12.882 z"
               id="path3979"
               inkscape:connector-curvature="0"
               style="fill:#39a935" /></g><g
             id="g3981"><polygon
               points="349.562,356.349 351.874,358.48 343.221,371.365 340.911,369.791 "
               id="polygon3983"
               style="fill:#93c01f" /></g><g
             id="g3985"><path
               d="m 326.808,379.776 c 0,0 3.534,1.245 5.286,0.781 1.755,-0.462 3.548,-0.822 3.57,0.138 0.024,0.961 -0.248,1.191 -2.92,1.177 -2.673,-0.016 -6.327,-0.456 -6.327,-0.456 l 0.391,-1.64 z"
               id="path3987"
               inkscape:connector-curvature="0"
               style="fill:#c1472a" /></g><g
             id="g3989"><path
               d="m 344.404,395.131 c 0,0 -3.091,-0.103 -4.595,-0.83 -1.505,-0.728 -1.945,-0.914 -2.382,-0.496 -0.438,0.418 -0.917,1.338 1.55,2.043 2.467,0.704 4.726,1.065 4.726,1.065 l 0.701,-1.782 z"
               id="path3991"
               inkscape:connector-curvature="0"
               style="fill:#c1472a" /></g><g
             id="g3993"><path
               d="m 322.393,399.31 c 0,0 2.059,1.403 3.898,1.762 1.84,0.354 2.112,0.126 2.615,0.771 0.5,0.646 1.005,1.893 -1.21,1.514 -2.214,-0.378 -5.771,-1.915 -5.771,-1.915 l 0.468,-2.132 z"
               id="path3995"
               inkscape:connector-curvature="0"
               style="fill:#c1472a" /></g><g
             id="g3997"><path
               d="m 340.649,404.863 c 0,0 -1.715,0.213 -3.031,-0.348 -1.316,-0.561 -2.967,-1.35 -2.967,-1.35 0,0 -1.315,0.045 -0.854,1.192 0.463,1.147 2.106,1.315 3.426,1.886 1.32,0.567 2.698,0.54 2.698,0.54 l 0.728,-1.92 z"
               id="path3999"
               inkscape:connector-curvature="0"
               style="fill:#c1472a" /></g><g
             id="g4001"><path
               d="m 320.341,423.252 c 0,0 3.045,0.279 3.594,1.067 0.548,0.788 0.43,1.064 -1.362,0.846 -1.795,-0.22 -4.122,0.027 -3.536,-1.05 0.585,-1.076 0.125,-1.024 1.304,-0.863 z"
               id="path4003"
               inkscape:connector-curvature="0"
               style="fill:#c1472a" /></g><g
             id="g4005"><path
               d="m 329.789,433.402 c 0,0 -0.88,0.361 -3.495,-1.037 -2.613,-1.396 -3.08,-1.848 -3.666,-2.022 -0.586,-0.174 -1.733,-0.44 -0.329,1.112 1.401,1.552 1.694,1.484 3.652,2.065 1.961,0.582 3.386,1.012 3.386,1.012 l 0.452,-1.13 z"
               id="path4007"
               inkscape:connector-curvature="0"
               style="fill:#c1472a" /></g><g
             id="g4009"><path
               d="m 321.236,450.605 c 0,0 -2.502,-1.084 -3.266,-2.093 -0.762,-1.011 -2.339,-0.169 -1.892,0.56 0.446,0.731 0.941,1.346 1.994,1.658 1.055,0.312 2.514,0.863 2.514,0.863 l 0.65,-0.988 z"
               id="path4011"
               inkscape:connector-curvature="0"
               style="fill:#c1472a" /></g><g
             id="g4013"><path
               d="m 320.191,441.037 c 0,0 -2.162,0.141 -3.188,-0.944 -1.025,-1.087 -2.831,0.253 -1.319,1.483 1.512,1.23 3.934,1.638 4.905,1.457 0.972,-0.181 1.535,-1.765 -0.398,-1.996 z"
               id="path4015"
               inkscape:connector-curvature="0"
               style="fill:#c1472a" /></g><g
             id="g4017"><path
               d="m 335.815,417.687 c 0,0 -2.736,0.755 -4.416,-1.312 -1.677,-2.066 -3.076,-1.39 -3.061,-0.211 0.012,1.179 0.322,2.053 3.079,2.871 2.757,0.818 3.685,0.541 3.685,0.541 l 0.713,-1.889 z"
               id="path4019"
               inkscape:connector-curvature="0"
               style="fill:#c1472a" /></g></g><g
           id="g4021"><path
             d="m 346.571,389.919 c 0,0 -4.83,-2.802 -5.617,-2.263 -0.789,0.539 -0.789,0.539 -0.504,1.207 0.477,1.112 5.418,2.678 5.418,2.678 l 0.703,-1.622 z"
             id="path4023"
             inkscape:connector-curvature="0"
             style="fill:#c1472a" /></g></g><g
         id="g4025"><path
           d="m 354.56,389.532 0.254,-4.413 -2.41,-2.282 -1.373,2.003 -2.51,-1.461 -1.666,1.904 -1.66,-1.521 -1.809,1.607 -1.695,-1.094 -1.684,1.59 -2.412,-1.627 -1.764,1.92 0.042,0.971 -0.091,0.01 -2.273,-1.576 -1.343,1.96 -0.086,0.009 -2.454,-1.428 -1.628,1.861 -0.076,0.008 -1.622,-1.484 -1.809,1.607 -1.694,-1.094 -1.685,1.589 -2.412,-1.628 -1.763,1.921 0.006,0.143 -1.987,-1.378 -1.257,1.834 -0.342,0.037 -2.283,-1.33 -1.518,1.732 -0.302,0.033 -1.508,-1.382 -1.809,1.607 -1.694,-1.094 -1.672,1.577 -0.026,0.003 -2.398,-1.618 -1.763,1.92 0.006,0.139 -0.146,0.016 -2.297,-1.591 -1.354,1.979 -0.049,0.005 -2.478,-1.441 -1.646,1.88 -0.043,0.005 -1.637,-1.502 -1.81,1.607 -1.694,-1.094 -1.685,1.59 -2.411,-1.627 -1.764,1.92 0.204,4.699 2.713,89.43 65.615,-12.443 c 0,0 3.718,-14.754 3.438,-19.928 -0.232,-4.35 2.375,-50.474 3.214,-65.08 l 0,0 z"
           id="path4027"
           inkscape:connector-curvature="0"
           style="fill:#e0b475" /></g><g
         id="g4029"><path
           d="m 282.317,486.982 -2.87,-94.545 -1.167,-2.816 -1.25,1.408 -0.583,-1.872 -0.76,0.771 -0.127,-0.108 -0.544,-1.85 -0.846,0.671 0,0 -0.612,-1.775 -1.146,0.283 -0.688,-1.596 c 0,0 -0.147,0.334 -0.285,0.77 l -0.047,-0.039 10e-4,0.19 c -0.102,0.349 0.632,87.259 0.632,87.259 l 10.292,13.249 z"
           id="path4031"
           inkscape:connector-curvature="0"
           style="fill:#cd9f68" /></g><g
         id="g4033"><polygon
           points="268.388,385.068 267.626,383.589 266.417,384.709 265.386,383.32 263.952,384.217 263.058,382.693 262.071,383.634 261.041,382.111 260.011,383.051 259.961,383.119 262.294,471.938 272.123,473.856 271.394,386.283 271.21,385.829 269.776,384.307 "
           id="polygon4035"
           style="fill:#c39863" /></g></g></g></svg>