<?xml version="1.0" encoding="UTF-8" standalone="no"?>
<!-- Generator: Adobe Illustrator 16.0.0, SVG Export Plug-In . SVG Version: 6.00 Build 0)  -->

<svg
   xmlns:dc="http://purl.org/dc/elements/1.1/"
   xmlns:cc="http://creativecommons.org/ns#"
   xmlns:rdf="http://www.w3.org/1999/02/22-rdf-syntax-ns#"
   xmlns:svg="http://www.w3.org/2000/svg"
   xmlns="http://www.w3.org/2000/svg"
   xmlns:sodipodi="http://sodipodi.sourceforge.net/DTD/sodipodi-0.dtd"
   xmlns:inkscape="http://www.inkscape.org/namespaces/inkscape"
   version="1.1"
   id="Layer_1"
   x="0px"
   y="0px"
   width="149.43623"
   height="145.36993"
   viewBox="0 0 149.43623 145.36993"
   enable-background="new 0 0 595.28 841.89"
   xml:space="preserve"
   inkscape:version="0.91 r13725"
   sodipodi:docname="4.svg"><metadata
     id="metadata4920"><rdf:RDF><cc:Work
         rdf:about=""><dc:format>image/svg+xml</dc:format><dc:type
           rdf:resource="http://purl.org/dc/dcmitype/StillImage" /><dc:title></dc:title></cc:Work></rdf:RDF></metadata><defs
     id="defs4918" /><sodipodi:namedview
     pagecolor="#ffffff"
     bordercolor="#666666"
     borderopacity="1"
     objecttolerance="10"
     gridtolerance="10"
     guidetolerance="10"
     inkscape:pageopacity="0"
     inkscape:pageshadow="2"
     inkscape:window-width="640"
     inkscape:window-height="480"
     id="namedview4916"
     showgrid="false"
     fit-margin-top="0"
     fit-margin-left="0"
     fit-margin-right="0"
     fit-margin-bottom="0"
     inkscape:zoom="0.28032165"
     inkscape:cx="74.572372"
     inkscape:cy="72.887932"
     inkscape:window-x="20"
     inkscape:window-y="42"
     inkscape:window-maximized="0"
     inkscape:current-layer="Layer_1" /><g
     id="g4778"
     transform="translate(-223.06764,-348.463)"><g
       id="g4780"><path
         d="m 304.931,460.693 c -22.889,0 -55.621,-19.517 -60.955,-25.41 l 2.966,-2.684 c 6.996,7.729 51.708,31.873 69.067,21.563 l 2.043,3.439 c -3.657,2.174 -8.159,3.092 -13.121,3.092 z"
         id="path4782"
         inkscape:connector-curvature="0"
         style="fill:#f3c775" /></g><g
       id="g4784"><path
         d="m 254.838,412.241 -2.34,-3.244 c 10.695,-7.716 28.096,-10.304 51.723,-7.699 17.391,1.919 31.935,6.104 32.079,6.146 l -1.114,3.842 c -0.563,-0.163 -56.637,-16.15 -80.348,0.955 z"
         id="path4786"
         inkscape:connector-curvature="0"
         style="fill:#f3c775" /></g><g
       id="g4788"><path
         d="m 244.222,416.035 -3.555,-1.835 c 0.147,-0.284 3.663,-7.039 9.815,-14.046 8.289,-9.44 17.419,-14.731 26.404,-15.3 12.637,-0.779 24.963,7.382 36.623,24.316 l -3.295,2.268 c -10.807,-15.696 -21.93,-23.297 -33.076,-22.592 -19.294,1.221 -32.782,26.929 -32.916,27.189 z"
         id="path4790"
         inkscape:connector-curvature="0"
         style="fill:#ffe28e" /></g><g
       id="g4792"><path
         d="m 238.177,411.119 -1.924,-3.507 c 0.181,-0.1 18.374,-10.004 40.497,-15.345 29.677,-7.164 52.964,-2.929 67.341,12.254 l -2.904,2.75 c -32.432,-34.247 -102.309,3.461 -103.01,3.848 z"
         id="path4794"
         inkscape:connector-curvature="0"
         style="fill:#f3c775" /></g><g
       id="g4796"><path
         d="m 352.469,411.98 c -27.539,-29.65 -82.468,-3.286 -83.02,-3.016 l -1.757,-3.594 c 0.587,-0.287 14.587,-7.068 32.399,-10.104 23.899,-4.07 43.023,0.766 55.307,13.99 l -2.929,2.724 z"
         id="path4798"
         inkscape:connector-curvature="0"
         style="fill:#f3c775" /></g><g
       id="g4800"><path
         d="m 325.88,409.42 c -15.577,-11.169 -31.776,-14.603 -48.151,-10.208 -12.289,3.301 -20.1,10.021 -20.177,10.089 l -2.634,-3.011 c 0.34,-0.297 8.468,-7.324 21.598,-10.894 12.129,-3.297 30.944,-4.106 51.694,10.773 l -2.33,3.251 z"
         id="path4802"
         inkscape:connector-curvature="0"
         style="fill:#ffe28e" /></g><g
       id="g4804"><path
         d="m 345.197,410.268 c -0.035,-0.067 -4.285,-7.94 -18.743,-12.416 -13.872,-4.286 -38.036,11.455 -38.278,11.614 l -2.198,-3.342 c 1.055,-0.693 26.007,-16.942 41.659,-12.093 16.218,5.019 20.938,14.05 21.131,14.432 l -3.571,1.805 z"
         id="path4806"
         inkscape:connector-curvature="0"
         style="fill:#ffe28e" /></g><g
       id="g4808"><path
         d="m 320.448,410.543 c -5.677,-7.789 -11.432,-11.388 -17.103,-10.681 -6.449,0.797 -11.159,7.114 -11.682,8.408 0.091,-0.225 0.215,-0.959 -0.291,-1.653 l -3.232,2.355 c -0.33,-0.452 -0.62,-1.226 -0.128,-2.335 1.093,-2.466 6.933,-9.904 15.1,-10.775 7.135,-0.758 14.055,3.387 20.569,12.325 l -3.233,2.356 z"
         id="path4810"
         inkscape:connector-curvature="0"
         style="fill:#f3c775" /></g><g
       id="g4812"><path
         d="m 291.036,444.226 c -9.9,0 -20.291,-5.06 -30.161,-14.713 -7.741,-7.57 -12.415,-15.206 -12.61,-15.527 l 3.418,-2.077 c 0.181,0.296 18.271,29.592 40.777,28.276 17.676,-1.018 43.439,-28.328 43.697,-28.604 l 2.92,2.733 c -1.098,1.174 -27.118,28.756 -46.387,29.865 -0.549,0.031 -1.101,0.047 -1.654,0.047 z"
         id="path4814"
         inkscape:connector-curvature="0"
         style="fill:#ffe28e" /></g><g
       id="g4816"><path
         d="m 316.836,451.441 c -0.135,-0.155 -13.574,-15.591 -27.066,-19.554 -12.07,-3.546 -32.091,1.454 -37.94,3.072 l -0.32,0.087 -0.979,-3.879 0.489,1.939 -0.492,-1.938 0.234,-0.064 c 6.107,-1.688 27.049,-6.897 40.134,-3.055 14.632,4.299 28.389,20.108 28.967,20.779 l -3.027,2.613 z"
         id="path4818"
         inkscape:connector-curvature="0"
         style="fill:#f3c775" /></g><g
       id="g4820"><path
         d="m 274.815,446.751 c -0.059,0 -0.118,-10e-4 -0.175,-10e-4 l 0.033,-4 c 0.061,10e-4 0.122,10e-4 0.182,10e-4 17.872,0 36.125,-22.065 41.306,-28.848 l 3.179,2.428 c -20.911,27.369 -37.981,30.42 -44.525,30.42 z"
         id="path4822"
         inkscape:connector-curvature="0"
         style="fill:#f3c775" /></g><g
       id="g4824"><path
         d="m 339.488,427.064 c -13.465,-8.397 -53.732,-11.037 -70.927,-12.164 -8.818,-0.578 -8.818,-0.578 -9.507,-1.477 l 3.175,-2.434 c -0.415,-0.541 -0.951,-0.664 -0.974,-0.669 0.593,0.131 3.98,0.353 7.567,0.588 17.495,1.146 58.464,3.832 72.782,12.761 l -2.116,3.395 z"
         id="path4826"
         inkscape:connector-curvature="0"
         style="fill:#ffe28e" /></g><g
       id="g4828"><path
         d="m 330.129,445.906 c -7.713,-10.885 -53.883,-24.516 -71.022,-28.85 l 0.98,-3.879 c 2.574,0.651 63.165,16.105 73.306,30.416 l -3.264,2.313 z"
         id="path4830"
         inkscape:connector-curvature="0"
         style="fill:#ffe28e" /></g><g
       id="g4832"><path
         d="m 309.648,460.446 c -4.673,-6.278 -48.749,-15.98 -52.013,-16.222 l 0.166,-3.997 c 1.902,0.068 48.832,9.468 55.056,17.83 l -3.209,2.389 z"
         id="path4834"
         inkscape:connector-curvature="0"
         style="fill:#ffe28e" /></g><g
       id="g4836"><g
         id="g4838"><path
           d="m 293.077,376.67 c -2.713,1.146 -11.104,9.215 -6.121,12.877 4.983,3.664 8.607,-4.133 6.121,-12.877 z"
           id="path4840"
           inkscape:connector-curvature="0"
           style="fill:#64c6f2" /></g><g
         id="g4842"><path
           d="m 301.425,359.338 c 0,0 -1.624,2.691 0,6.703 1.623,4.014 6.215,2.291 4.864,-0.996 -1.543,-3.758 -4.864,-5.707 -4.864,-5.707 z"
           id="path4844"
           inkscape:connector-curvature="0"
           style="fill:#64c6f2" /></g><g
         id="g4846"><path
           d="m 288.229,348.463 c 0,0 -7.502,6.727 -5.292,11.045 2.21,4.32 6.707,0.217 6.812,-3.303 0.046,-1.549 -1.52,-7.742 -1.52,-7.742 z"
           id="path4848"
           inkscape:connector-curvature="0"
           style="fill:#64c6f2" /></g><g
         id="g4850"><path
           d="m 312.593,350.67 c 0,0 0.355,7.742 4.004,8.529 3.649,0.785 2.68,-3.512 1.349,-5.666 -1.332,-2.152 -5.353,-2.863 -5.353,-2.863 z"
           id="path4852"
           inkscape:connector-curvature="0"
           style="fill:#64c6f2" /></g><g
         id="g4854"><path
           d="m 303.418,383.404 c 0,0 -5.105,12.564 1.496,12.537 6.603,-0.025 1.594,-7.355 -1.496,-12.537 z"
           id="path4856"
           inkscape:connector-curvature="0"
           style="fill:#a0d9f7" /></g><g
         id="g4858"><path
           d="m 313.02,383.701 c 0,0 -2.732,4.99 -1.287,7.352 1.444,2.363 2.714,1.961 3.9,0.188 1.186,-1.772 -2.613,-7.54 -2.613,-7.54 z"
           id="path4860"
           inkscape:connector-curvature="0"
           style="fill:#a0d9f7" /></g><g
         id="g4862"><path
           d="m 313.16,368.029 c 0,0 -3.287,4.645 -2.121,7.156 1.164,2.512 2.471,2.258 3.854,0.633 1.38,-1.625 -1.733,-7.789 -1.733,-7.789 z"
           id="path4864"
           inkscape:connector-curvature="0"
           style="fill:#a0d9f7" /></g></g><g
       id="g4866"><path
         d="m 278.366,410.892 c -3.404,-24.06 -26.47,-25.589 -27.451,-25.643 l 0.208,-3.994 c 0.273,0.014 27.332,1.709 31.204,29.076 l -3.961,0.561 z"
         id="path4868"
         inkscape:connector-curvature="0"
         style="fill:#ffe28e" /></g><g
       id="g4870"><path
         d="m 282.379,427.781 c -0.19,0 -0.396,-0.027 -0.62,-0.087 -1.951,-0.517 -1.622,-2.073 -0.967,-5.176 0.511,-2.418 1.409,-6.348 2.668,-11.68 5.295,-22.416 21.598,-32.849 28.881,-32.127 7.466,0.723 19.992,6.797 19.992,39.364 l -4,0 c 0,-10.162 -1.596,-33.953 -16.379,-35.384 -4.761,-0.452 -19.572,7.774 -24.602,29.066 -1.841,7.794 -2.599,11.278 -2.904,12.832 l 0.33,0.097 c -0.41,1.397 -0.909,3.095 -2.399,3.095 z m -0.572,-3.967 1.904,0.56 c -0.235,-0.247 -0.55,-0.451 -0.954,-0.553 -0.343,-0.087 -0.663,-0.077 -0.95,-0.007 z"
         id="path4872"
         inkscape:connector-curvature="0"
         style="fill:#ffe28e" /></g><g
       id="g4874"><g
         id="g4876"><path
           d="m 361.54,417.182 -2.154,-0.043 c 0.427,-2.431 0.729,-4.906 0.866,-7.432 l -123.835,-6.693 c -0.137,2.524 -0.102,5.018 0.059,7.479 l -2.059,-0.182 c 0,0 -10.828,-0.967 -11.283,2.383 -0.516,3.791 2.005,6.283 6.598,6.459 2.568,0.1 5.374,0.236 8.009,0.378 4.95,22.838 22.545,41.219 45.452,46.961 l -0.271,5.271 -0.021,-0.002 -7.243,6.871 37.567,2.033 -6.037,-7.127 0.286,-5.834 c 23.14,-3.424 42.356,-19.726 49.681,-41.718 2.66,0.145 5.498,0.312 8.09,0.491 4.584,0.32 7.361,-1.885 7.256,-5.707 -0.093,-3.381 -10.961,-3.588 -10.961,-3.588 z m -58.697,-3.702 c 1.386,0.074 2.448,1.258 2.374,2.643 -0.076,1.387 -1.26,2.447 -2.645,2.373 -1.385,-0.074 -2.445,-1.258 -2.371,-2.643 0.075,-1.384 1.258,-2.447 2.642,-2.373 z m -1.432,36.116 c 1.386,0.074 2.448,1.256 2.373,2.643 -0.075,1.383 -1.257,2.447 -2.644,2.371 -1.384,-0.074 -2.446,-1.258 -2.372,-2.643 0.076,-1.383 1.259,-2.447 2.643,-2.371 z m -16.001,1.65 c 0.075,-1.387 1.258,-2.449 2.645,-2.373 1.386,0.074 2.449,1.258 2.373,2.643 -0.074,1.385 -1.258,2.447 -2.644,2.373 -1.387,-0.077 -2.449,-1.26 -2.374,-2.643 z m 10.322,-30.193 c 1.387,0.074 2.448,1.258 2.373,2.643 -0.075,1.385 -1.258,2.447 -2.644,2.375 -1.382,-0.076 -2.445,-1.262 -2.371,-2.646 0.076,-1.386 1.26,-2.448 2.642,-2.372 z m -1.431,36.113 c 1.386,0.074 2.449,1.26 2.373,2.645 -0.074,1.383 -1.258,2.447 -2.644,2.373 -1.384,-0.076 -2.446,-1.26 -2.371,-2.646 0.076,-1.384 1.259,-2.446 2.642,-2.372 z m -4.816,-44.408 c 1.386,0.076 2.448,1.258 2.374,2.645 -0.076,1.385 -1.259,2.449 -2.645,2.373 -1.387,-0.076 -2.449,-1.26 -2.373,-2.645 0.075,-1.385 1.258,-2.447 2.644,-2.373 z m -33.611,3.215 c -1.386,-0.076 -2.449,-1.26 -2.374,-2.646 0.075,-1.385 1.258,-2.447 2.645,-2.371 1.386,0.074 2.448,1.26 2.373,2.645 -0.075,1.381 -1.259,2.446 -2.644,2.372 z m 6.247,8.291 c -1.383,-0.072 -2.445,-1.258 -2.37,-2.643 0.074,-1.385 1.258,-2.447 2.642,-2.373 1.386,0.076 2.448,1.26 2.374,2.645 -0.076,1.384 -1.26,2.447 -2.646,2.371 z m 4.739,-10.215 c 0.075,-1.383 1.258,-2.447 2.643,-2.371 1.385,0.074 2.448,1.258 2.373,2.643 -0.074,1.385 -1.258,2.447 -2.644,2.373 -1.385,-0.075 -2.446,-1.26 -2.372,-2.645 z m 3.815,21.89 c -1.387,-0.076 -2.449,-1.26 -2.374,-2.645 0.075,-1.385 1.258,-2.447 2.644,-2.371 1.386,0.074 2.448,1.258 2.374,2.643 -0.075,1.385 -1.258,2.448 -2.644,2.373 z m 6.247,8.293 c -1.383,-0.076 -2.446,-1.26 -2.371,-2.645 0.075,-1.383 1.259,-2.447 2.642,-2.371 1.387,0.074 2.448,1.258 2.373,2.643 -0.075,1.385 -1.257,2.448 -2.644,2.373 z m 4.739,-10.214 c 0.075,-1.387 1.258,-2.447 2.642,-2.373 1.386,0.074 2.447,1.258 2.373,2.643 -0.075,1.387 -1.259,2.449 -2.645,2.373 -1.383,-0.075 -2.445,-1.259 -2.37,-2.643 z m 23.914,3.806 c -1.386,-0.074 -2.447,-1.258 -2.373,-2.645 0.075,-1.385 1.259,-2.445 2.644,-2.371 1.387,0.076 2.449,1.258 2.373,2.645 -0.074,1.383 -1.257,2.447 -2.644,2.371 z m 6.248,8.295 c -1.384,-0.076 -2.446,-1.26 -2.37,-2.645 0.074,-1.385 1.258,-2.447 2.641,-2.371 1.386,0.074 2.448,1.258 2.373,2.643 -0.074,1.387 -1.258,2.447 -2.644,2.373 z m 7.11,-7.572 c -1.384,-0.074 -2.445,-1.258 -2.37,-2.645 0.074,-1.385 1.258,-2.445 2.642,-2.373 1.386,0.076 2.448,1.26 2.372,2.645 -0.075,1.385 -1.259,2.449 -2.644,2.373 z m 3.622,-18.971 c -1.387,-0.074 -2.447,-1.258 -2.373,-2.643 0.076,-1.385 1.258,-2.447 2.645,-2.371 1.385,0.072 2.447,1.256 2.373,2.641 -0.076,1.387 -1.261,2.447 -2.645,2.373 z m 6.248,8.295 c -1.385,-0.076 -2.446,-1.26 -2.371,-2.645 0.074,-1.385 1.258,-2.447 2.643,-2.371 1.385,0.072 2.447,1.258 2.373,2.641 -0.077,1.387 -1.26,2.449 -2.645,2.375 z m 7.109,-7.572 c -1.384,-0.076 -2.445,-1.258 -2.37,-2.645 0.073,-1.385 1.257,-2.447 2.64,-2.373 1.387,0.076 2.449,1.26 2.375,2.645 -0.076,1.385 -1.259,2.447 -2.645,2.373 z"
           id="path4878"
           inkscape:connector-curvature="0"
           style="fill:#7b80b5" /></g></g><g
       id="g4880"><g
         id="g4882"><g
           id="g4884"><path
             d="m 268.571,448.113 c 0,0 -11,6.954 -10.592,11.67 0.396,4.592 5.331,5.279 7.46,1.742 2.129,-3.539 3.132,-13.412 3.132,-13.412 z"
             id="path4886"
             inkscape:connector-curvature="0"
             style="fill:#64c6f2" /></g><g
           id="g4888"><path
             d="m 317.16,437.938 c 0,0 0.649,7.777 4.351,8.432 3.702,0.652 3.707,-4.618 1.143,-5.752 -1.734,-0.767 -5.494,-2.68 -5.494,-2.68 z"
             id="path4890"
             inkscape:connector-curvature="0"
             style="fill:#64c6f2" /></g><g
           id="g4892"><path
             d="m 316.412,450.135 c 0,0 -3.214,7.75 0,10.199 3.214,2.449 5.842,-3.333 3.928,-4.934 -0.988,-0.826 -3.928,-5.265 -3.928,-5.265 z"
             id="path4894"
             inkscape:connector-curvature="0"
             style="fill:#64c6f2" /></g><g
           id="g4896"><path
             d="m 320.717,477.861 c 0,0 -3.213,7.75 0,10.199 3.215,2.449 5.658,-2.617 3.928,-4.932 -0.772,-1.032 -3.928,-5.267 -3.928,-5.267 z"
             id="path4898"
             inkscape:connector-curvature="0"
             style="fill:#a0d9f7" /></g><g
           id="g4900"><path
             d="m 275.314,483.318 c 0,0 -6.738,4.998 -5.24,8.75 1.499,3.752 5.904,0.807 5.904,-2.215 0,-1.286 -0.664,-6.535 -0.664,-6.535 z"
             id="path4902"
             inkscape:connector-curvature="0"
             style="fill:#a0d9f7" /></g><g
           id="g4904"><path
             d="m 299.439,458.238 c 0,0 -5.339,6.473 -2.983,9.754 2.357,3.281 6.294,-0.867 5.198,-3.566 -0.484,-1.194 -2.215,-6.188 -2.215,-6.188 z"
             id="path4906"
             inkscape:connector-curvature="0"
             style="fill:#64c6f2" /></g><g
           id="g4908"><path
             d="m 281.915,442.729 c 0,0 -5.34,6.471 -2.984,9.754 2.357,3.281 6.669,-0.155 5.199,-3.568 -0.51,-1.184 -2.215,-6.186 -2.215,-6.186 z"
             id="path4910"
             inkscape:connector-curvature="0"
             style="fill:#64c6f2" /></g></g><g
         id="g4912"><path
           d="m 291.459,476.498 c 0,0 -6.281,7.548 -1.776,8.727 3.442,0.9 2.697,-4.575 1.776,-8.727 z"
           id="path4914"
           inkscape:connector-curvature="0"
           style="fill:#a0d9f7" /></g></g></g></svg>