<?xml version="1.0" encoding="UTF-8" standalone="no"?>
<!-- Generator: Adobe Illustrator 16.0.0, SVG Export Plug-In . SVG Version: 6.00 Build 0)  -->

<svg
   xmlns:dc="http://purl.org/dc/elements/1.1/"
   xmlns:cc="http://creativecommons.org/ns#"
   xmlns:rdf="http://www.w3.org/1999/02/22-rdf-syntax-ns#"
   xmlns:svg="http://www.w3.org/2000/svg"
   xmlns="http://www.w3.org/2000/svg"
   xmlns:sodipodi="http://sodipodi.sourceforge.net/DTD/sodipodi-0.dtd"
   xmlns:inkscape="http://www.inkscape.org/namespaces/inkscape"
   version="1.1"
   id="Layer_1"
   x="0px"
   y="0px"
   width="109.82603"
   height="155.18138"
   viewBox="0 0 109.82602 155.18138"
   enable-background="new 0 0 595.28 841.89"
   xml:space="preserve"
   inkscape:version="0.91 r13725"
   sodipodi:docname="4.svg"><metadata
     id="metadata4414"><rdf:RDF><cc:Work
         rdf:about=""><dc:format>image/svg+xml</dc:format><dc:type
           rdf:resource="http://purl.org/dc/dcmitype/StillImage" /><dc:title /></cc:Work></rdf:RDF></metadata><defs
     id="defs4412" /><sodipodi:namedview
     pagecolor="#ffffff"
     bordercolor="#666666"
     borderopacity="1"
     objecttolerance="10"
     gridtolerance="10"
     guidetolerance="10"
     inkscape:pageopacity="0"
     inkscape:pageshadow="2"
     inkscape:window-width="699"
     inkscape:window-height="480"
     id="namedview4410"
     showgrid="false"
     fit-margin-top="0"
     fit-margin-left="0"
     fit-margin-right="0"
     fit-margin-bottom="0"
     inkscape:zoom="0.28032165"
     inkscape:cx="63.461576"
     inkscape:cy="48.209009"
     inkscape:window-x="40"
     inkscape:window-y="84"
     inkscape:window-maximized="0"
     inkscape:current-layer="Layer_1" /><g
     id="g4312"
     transform="matrix(0.74014679,0,0,0.72414238,-159.0571,-205.9569)"><g
       id="g4314"><g
         id="g4316"><path
           d="m 238.91,379.898 c 2.704,1.352 86.496,1.186 94.83,0 8.332,-1.186 5.814,-20.75 5.592,-30.83 -0.225,-10.079 2.686,-27.865 2.119,-30.237 -0.564,-2.372 -77.988,-6.522 -86.411,-4.15 -8.422,2.372 -19.885,12.63 -20.083,21.434 -0.197,8.803 -3.162,40.227 3.953,43.783 z"
           id="path4318"
           inkscape:connector-curvature="0"
           style="fill:#b3dac6" /></g><g
         id="g4320"><path
           d="m 245.584,319.753 c 0,0 -2.552,1.693 -5.591,5.323 0.578,0.837 2.152,0.435 3.5,-0.8 2,-1.833 2.091,-4.523 2.091,-4.523 z"
           id="path4322"
           inkscape:connector-curvature="0"
           style="fill:#ffffff" /></g><g
         id="g4324"><path
           d="m 245.826,335.802 c 0,0 -4.833,0.168 -5.833,3.334 -1,3.166 1.5,3.166 3.5,1.333 2,-1.833 2.333,-4.667 2.333,-4.667 z"
           id="path4326"
           inkscape:connector-curvature="0"
           style="fill:#ffffff" /></g><g
         id="g4328"><path
           d="m 245.826,350.445 c 0,0 -4.833,0.168 -5.833,3.334 -1,3.166 1.5,3.166 3.5,1.332 2,-1.832 2.333,-4.666 2.333,-4.666 z"
           id="path4330"
           inkscape:connector-curvature="0"
           style="fill:#ffffff" /></g><g
         id="g4332"><path
           d="m 245.826,368.67 c 0,0 -4.833,0.168 -5.833,3.334 -1,3.166 1.5,3.166 3.5,1.332 2,-1.832 2.333,-4.666 2.333,-4.666 z"
           id="path4334"
           inkscape:connector-curvature="0"
           style="fill:#ffffff" /></g><g
         id="g4336"><path
           d="m 329.141,322.563 c 0,0 4.801,0.584 5.523,3.824 0.723,3.241 -1.768,3.025 -3.602,1.026 -1.834,-1.999 -1.921,-4.85 -1.921,-4.85 z"
           id="path4338"
           inkscape:connector-curvature="0"
           style="fill:#ffffff" /></g><g
         id="g4340"><path
           d="m 329.141,335.599 c 0,0 4.801,0.585 5.523,3.825 0.722,3.24 -1.768,3.024 -3.602,1.026 -1.833,-1.998 -1.921,-4.851 -1.921,-4.851 z"
           id="path4342"
           inkscape:connector-curvature="0"
           style="fill:#ffffff" /></g><g
         id="g4344"><path
           d="m 330.473,351.591 c 0,0 4.801,0.584 5.525,3.825 0.723,3.24 -1.768,3.025 -3.604,1.025 -1.833,-1.998 -1.921,-4.85 -1.921,-4.85 z"
           id="path4346"
           inkscape:connector-curvature="0"
           style="fill:#ffffff" /></g><g
         id="g4348"><path
           d="m 331.967,370.154 c 0,0 4.801,0.586 5.523,3.826 0.722,3.24 -1.768,3.023 -3.602,1.025 -1.835,-1.997 -1.921,-4.851 -1.921,-4.851 z"
           id="path4350"
           inkscape:connector-curvature="0"
           style="fill:#ffffff" /></g></g><g
       id="g4352"><g
         id="g4354"><path
           d="m 328.814,359.379 c -0.139,0 -0.273,0.014 -0.41,0.021 -2.758,-19.268 -19.321,-34.082 -39.352,-34.082 -20.062,0 -36.645,14.861 -39.362,34.174 -0.431,-0.068 -0.868,-0.113 -1.317,-0.113 -4.635,0 -8.393,3.758 -8.393,8.393 0,4.637 3.757,8.395 8.393,8.395 0.833,0 1.637,-0.126 2.396,-0.352 4.686,16.742 20.045,29.025 38.283,29.025 18.164,0 33.473,-12.184 38.225,-28.82 0.5,0.092 1.012,0.146 1.537,0.146 4.635,0 8.393,-3.758 8.393,-8.395 0,-4.634 -3.758,-8.392 -8.393,-8.392 z"
           id="path4356"
           inkscape:connector-curvature="0"
           style="fill:#fce4db" /></g><g
         id="g4358"><circle
           cx="265.819"
           cy="382.27701"
           r="8.3929996"
           id="circle4360"
           style="fill:#f2a489" /></g><g
         id="g4362"><path
           d="m 267.461,371.871 c -4.21,0 -7.392,-3.084 -7.535,-3.225 -0.59,-0.581 -0.597,-1.531 -0.016,-2.121 0.58,-0.588 1.527,-0.597 2.118,-0.02 l 0,0 c 0.028,0.027 2.819,2.723 6.081,2.327 2.103,-0.249 4.038,-1.752 5.753,-4.466 0.443,-0.701 1.369,-0.907 2.069,-0.468 0.7,0.443 0.909,1.369 0.467,2.069 -2.229,3.528 -4.908,5.495 -7.964,5.847 -0.329,0.04 -0.654,0.057 -0.973,0.057 z"
           id="path4364"
           inkscape:connector-curvature="0"
           style="fill:#575756" /></g><g
         id="g4366"><path
           d="m 310.356,372.062 c -0.319,0 -0.644,-0.018 -0.974,-0.056 -3.056,-0.352 -5.735,-2.319 -7.964,-5.847 -0.442,-0.7 -0.233,-1.626 0.467,-2.069 0.702,-0.44 1.628,-0.232 2.069,0.468 1.72,2.722 3.662,4.226 5.771,4.468 3.229,0.372 6.031,-2.298 6.06,-2.325 0.589,-0.582 1.54,-0.574 2.121,0.016 0.581,0.59 0.575,1.54 -0.016,2.121 -0.142,0.141 -3.324,3.224 -7.534,3.224 z"
           id="path4368"
           inkscape:connector-curvature="0"
           style="fill:#575756" /></g><g
         id="g4370"><path
           d="m 294.155,383.957 -11.212,0 0,-19.955 c 0,-0.828 0.671,-1.5 1.5,-1.5 0.829,0 1.5,0.672 1.5,1.5 l 0,16.955 8.212,0 c 0.829,0 1.5,0.672 1.5,1.5 0,0.828 -0.671,1.5 -1.5,1.5 z"
           id="path4372"
           inkscape:connector-curvature="0"
           style="fill:#575756" /></g><g
         id="g4374"><path
           d="m 326.295,346.714 c 0,0 -11.686,-22.139 -32.14,-22.731 -25.285,-0.733 -34.737,11.861 -41.852,23.791 0,0 -5.672,8.818 0,17.587 1.781,2.754 1.912,2.602 1.912,2.602 l 4.217,-19.591 c 6.143,0.582 15.667,1.438 22.67,1.848 1.082,0.063 5.467,-2.449 6.602,-2.818 -0.442,1.26 -0.948,1.658 -1.557,3.04 2.097,0.046 3.519,-0.013 3.875,-0.224 2.004,-1.187 7.861,-3.504 7.861,-3.504 l 1.451,3.741 19.598,-2.72 5.123,20.036 c 0,0 0.458,0.344 2.239,-2.41 5.673,-8.769 0.001,-18.647 0.001,-18.647 z"
           id="path4376"
           inkscape:connector-curvature="0"
           style="fill:#f29100" /></g><g
         id="g4378"><circle
           cx="312.85101"
           cy="382.27701"
           r="8.3929996"
           id="circle4380"
           style="fill:#f2a489" /></g></g><g
       id="g4382"><g
         id="g4384"><path
           d="m 239.649,388.293 c 0,0 86.419,-2.963 94.79,0 8.371,2.965 10.305,12.787 9.338,28.033 -0.967,15.248 -1.873,48.037 -1.873,48.037 0,0 -98.735,12.09 -102.292,-2.141 -3.558,-14.228 -4.719,-73.775 0.037,-73.929 z"
           id="path4386"
           inkscape:connector-curvature="0"
           style="fill:#b3dac6" /></g><g
         id="g4388"><g
           id="g4390"><path
             d="m 287.852,401.838 c -1.786,-1.785 -8.238,-3.5 -7.738,0 0.5,3.5 7.5,7.898 7.5,7.898 0,0 8.167,-5.732 8,-8.398 -0.167,-2.666 -6.258,-3.168 -7.762,0.5 z"
             id="path4392"
             inkscape:connector-curvature="0"
             style="fill:#ffffff" /></g><g
           id="g4394"><path
             d="m 278.448,406.137 c 0,0 -4.17,-1.498 -5.752,-1.166 -1.582,0.334 -3.248,1.834 -3.248,1.834 0,0 5.667,2.666 9,-0.668 z"
             id="path4396"
             inkscape:connector-curvature="0"
             style="fill:#ffffff" /></g><g
           id="g4398"><path
             d="m 280.781,409.137 c 0,0 -4.833,0.168 -5.833,3.334 -1,3.166 1.5,3.166 3.5,1.334 2,-1.834 2.333,-4.668 2.333,-4.668 z"
             id="path4400"
             inkscape:connector-curvature="0"
             style="fill:#ffffff" /></g><g
           id="g4402"><path
             d="m 296.252,405.689 c 0,0 4.17,-1.5 5.752,-1.166 1.582,0.332 3.248,1.832 3.248,1.832 0,0 -5.667,2.666 -9,-0.666 z"
             id="path4404"
             inkscape:connector-curvature="0"
             style="fill:#ffffff" /></g><g
           id="g4406"><path
             d="m 293.919,408.689 c 0,0 4.833,0.168 5.833,3.334 1,3.166 -1.5,3.166 -3.5,1.332 -2,-1.832 -2.333,-4.666 -2.333,-4.666 z"
             id="path4408"
             inkscape:connector-curvature="0"
             style="fill:#ffffff" /></g></g></g></g></svg>