<?xml version="1.0" encoding="utf-8"?>
<!-- Generator: Adobe Illustrator 16.0.0, SVG Export Plug-In . SVG Version: 6.00 Build 0)  -->
<!DOCTYPE svg PUBLIC "-//W3C//DTD SVG 1.1//EN" "http://www.w3.org/Graphics/SVG/1.1/DTD/svg11.dtd">
<svg version="1.1" id="Layer_1" xmlns="http://www.w3.org/2000/svg" xmlns:xlink="http://www.w3.org/1999/xlink" x="0px" y="0px"
	 width="295.5px" height="303px" viewBox="-34.115 -44.615 295.5 303" enable-background="new -34.115 -44.615 295.5 303"
	 xml:space="preserve">
<g>
	<g>
		<circle fill="#FCC74F" cx="37.575" cy="73.546" r="3.54"/>
	</g>
	<g>
		<circle fill="#FCC74F" cx="150.565" cy="61.534" r="2.674"/>
	</g>
	<g>
		<circle fill="#FCC74F" cx="76.438" cy="56.043" r="6.412"/>
	</g>
	<g>
		<circle fill="#FCC74F" cx="53.945" cy="120.19" r="3.54"/>
	</g>
	<g>
		<circle fill="#FCC74F" cx="31.813" cy="107.854" r="5.07"/>
	</g>
	<g>
		<circle fill="#FCC74F" cx="107.938" cy="161.689" r="3.539"/>
	</g>
	<g>
		<circle fill="#FCC74F" cx="148.282" cy="46.093" r="3.54"/>
	</g>
	<path fill="#FCC74F" d="M97.193,70.77l17.122-35.503c0,0,0.881-4.884,2.625-2.93c1.742,1.954,18.436,35.78,18.436,35.78
		s3.906,6.799,8.246,7.43s41.66,6.053,41.66,6.053s0.957,1.354-3.1,5.309s-28.535,27.814-28.535,27.814s-1.266,2.943-0.881,5.18
		c0.383,2.236,7.184,41.881,7.184,41.881s-1.016,2.062-4.939,0s-34.695-18.24-34.695-18.24s-2.814-2.069-6.758,0.004
		s-35.744,19.826-35.744,19.826s-5.606,4.954-3.17-5.752c3.084-13.549,6.512-37.965,6.512-37.965s-1.938-5.924-5.992-9.875
		S48.294,83.592,48.294,83.592s-1.822-2.499,5.244-2.71S97.193,70.77,97.193,70.77z"/>
	<g>
		<path fill="#575756" d="M100.964,122.751c-0.296,0.033-0.6,0.052-0.908,0.052c-2.879-0.004-5.579-1.549-8.024-4.594
			c-0.486-0.603-0.39-1.485,0.214-1.971c0.605-0.484,1.489-0.389,1.973,0.212c1.889,2.351,3.854,3.546,5.84,3.544
			c3.041,0.006,5.362-2.777,5.385-2.803c0.486-0.604,1.371-0.699,1.975-0.211c0.601,0.488,0.697,1.373,0.21,1.975
			C107.51,119.101,104.879,122.305,100.964,122.751z"/>
	</g>
	<g>
		<path fill="#575756" d="M135.5,122.751c0.295,0.033,0.6,0.052,0.908,0.052c2.879-0.004,5.578-1.549,8.023-4.594
			c0.486-0.603,0.391-1.485-0.213-1.971c-0.605-0.484-1.49-0.389-1.973,0.212c-1.889,2.351-3.854,3.546-5.84,3.544
			c-3.041,0.006-5.363-2.777-5.385-2.803c-0.486-0.604-1.371-0.699-1.975-0.211c-0.602,0.488-0.697,1.373-0.211,1.975
			C128.953,119.101,131.584,122.305,135.5,122.751z"/>
	</g>
</g>
</svg>
