<?xml version="1.0" encoding="utf-8"?>
<!-- Generator: Adobe Illustrator 16.0.0, SVG Export Plug-In . SVG Version: 6.00 Build 0)  -->
<!DOCTYPE svg PUBLIC "-//W3C//DTD SVG 1.1//EN" "http://www.w3.org/Graphics/SVG/1.1/DTD/svg11.dtd">
<svg version="1.1" id="Layer_1" xmlns="http://www.w3.org/2000/svg" xmlns:xlink="http://www.w3.org/1999/xlink" x="0px" y="0px"
	 width="295.5px" height="303px" viewBox="-34.115 -44.615 295.5 303" enable-background="new -34.115 -44.615 295.5 303"
	 xml:space="preserve">
<g>
	<g>
		<path fill="none" stroke="#FFE28E" stroke-width="4" stroke-miterlimit="10" d="M164.16,50.536"/>
	</g>
	<g>
		<path fill="#E5EFF6" d="M49.79,24.412c0.709-0.236,21.534-8.992,26.977-9.939c5.443-0.946,8.756-2.131,8.756-2.131l8.521-12.777
			c0,0,29.816-1.184,32.42,0c2.603,1.183,8.52,10.648,8.52,10.648l37.153,12.068l32.658,50.645l-27.452,24.136l-12.068-13.487
			l2.13,109.017H57.913l0.947-106.019L47.187,97.931L16.621,74.897L49.79,24.412z"/>
		<path fill="#C5D6E0" d="M167.913,193.091H57.409L58.35,87.767L47.228,98.589L15.946,75.014l33.521-51.021l0.165-0.055
			c0.105-0.036,0.892-0.356,1.888-0.763c5.63-2.297,20.587-8.399,25.161-9.195c4.685-0.814,7.809-1.817,8.52-2.056l8.568-12.849
			l0.254-0.01c0.133-0.005,13.372-0.526,22.877-0.526c7.631,0,9.23,0.326,9.77,0.571c2.556,1.161,7.688,9.174,8.64,10.684
			l37.15,12.067l0.096,0.149l32.892,51.006L177.3,97.765l-11.5-12.853L167.913,193.091z M58.418,192.091h108.476l-2.146-109.854
			l12.637,14.122l26.757-23.523l-32.329-50.133l-37.156-12.069l-0.097-0.154c-1.624-2.598-6.28-9.54-8.303-10.458
			c-0.396-0.18-2.137-0.481-9.355-0.481c-8.757,0-20.696,0.443-22.583,0.516l-8.471,12.703l-0.156,0.056
			c-0.137,0.049-3.416,1.21-8.839,2.153c-4.467,0.777-19.887,7.068-24.954,9.136c-0.978,0.399-1.518,0.619-1.779,0.721L17.297,74.78
			l29.849,22.495l12.226-11.896L58.418,192.091z"/>
	</g>
	<g>
		<g>
			<rect x="57.948" y="188.437" fill="#657780" width="1" height="0.75"/>
		</g>
		<g>
			<path fill="#657780" d="M163.137,189.187h-2.003v-0.75h2.003V189.187z M159.13,189.187h-2.004v-0.75h2.004V189.187z
				 M155.123,189.187h-2.004v-0.75h2.004V189.187z M151.115,189.187h-2.003v-0.75h2.003V189.187z M147.109,189.187h-2.004v-0.75
				h2.004V189.187z M143.101,189.187h-2.003v-0.75h2.003V189.187z M139.094,189.187h-2.004v-0.75h2.004V189.187z M135.087,189.187
				h-2.004v-0.75h2.004V189.187z M131.079,189.187h-2.004v-0.75h2.004V189.187z M127.073,189.187h-2.004v-0.75h2.004V189.187z
				 M123.065,189.187h-2.003v-0.75h2.003V189.187z M119.058,189.187h-2.004v-0.75h2.004V189.187z M115.05,189.187h-2.003v-0.75
				h2.003V189.187z M111.043,189.187h-2.004v-0.75h2.004V189.187z M107.035,189.187h-2.003v-0.75h2.003V189.187z M103.029,189.187
				h-2.003v-0.75h2.003V189.187z M99.021,189.187h-2.003v-0.75h2.003V189.187z M95.014,189.187H93.01v-0.75h2.003V189.187z
				 M91.007,189.187h-2.004v-0.75h2.004V189.187z M87,189.187h-2.004v-0.75H87V189.187z M82.992,189.187h-2.004v-0.75h2.004V189.187
				z M78.985,189.187h-2.004v-0.75h2.004V189.187z M74.978,189.187h-2.003v-0.75h2.003V189.187z M70.97,189.187h-2.003v-0.75h2.003
				V189.187z M66.963,189.187H64.96v-0.75h2.003V189.187z M62.956,189.187h-2.003v-0.75h2.003V189.187z"/>
		</g>
		<g>
			<rect x="165.141" y="188.437" fill="#657780" width="1" height="0.75"/>
		</g>
	</g>
	<g>
		<path fill="#657780" d="M49.022,94.23l-1.532-1.287l0.482-0.574l1.532,1.287L49.022,94.23z M45.959,91.657l-1.532-1.287
			l0.482-0.574l1.532,1.287L45.959,91.657z M42.896,89.083l-1.532-1.285l0.482-0.574l1.532,1.285L42.896,89.083z M39.833,86.511
			l-1.532-1.286l0.482-0.574l1.532,1.286L39.833,86.511z M36.77,83.939l-1.531-1.286l0.482-0.574l1.531,1.286L36.77,83.939z
			 M33.707,81.366l-1.531-1.287l0.482-0.574l1.531,1.287L33.707,81.366z M30.644,78.794l-1.531-1.287l0.482-0.574l1.531,1.287
			L30.644,78.794z M27.581,76.221l-1.531-1.286l0.482-0.574l1.531,1.286L27.581,76.221z M24.518,73.648l-1.531-1.285l0.482-0.574
			l1.531,1.285L24.518,73.648z M21.455,71.075l-1.531-1.286l0.482-0.574l1.531,1.286L21.455,71.075z"/>
	</g>
	<g>
		<path fill="#657780" d="M174.202,93.573l-0.479-0.576l0.935-0.777l0.479,0.576L174.202,93.573z M176.675,91.519l-0.479-0.576
			l1.538-1.279l0.479,0.576L176.675,91.519z M179.752,88.962l-0.479-0.576l1.538-1.279l0.479,0.578L179.752,88.962z M182.828,86.406
			l-0.479-0.577l1.538-1.278l0.479,0.577L182.828,86.406z M185.905,83.851l-0.479-0.578l1.539-1.277l0.479,0.576L185.905,83.851z
			 M188.982,81.294l-0.479-0.578l1.538-1.277l0.479,0.577L188.982,81.294z M192.058,78.738l-0.479-0.577l1.539-1.278l0.479,0.578
			L192.058,78.738z M195.135,76.181l-0.479-0.576l1.538-1.279l0.479,0.578L195.135,76.181z M198.211,73.625l-0.479-0.577
			l1.539-1.278l0.479,0.577L198.211,73.625z M201.288,71.07l-0.479-0.578l1.538-1.277l0.479,0.576L201.288,71.07z"/>
	</g>
	<g>
		
			<rect x="132.336" y="23.724" transform="matrix(0.9716 0.2365 -0.2365 0.9716 10.0011 -35.185)" fill="#657780" width="38.677" height="0.75"/>
	</g>
	<g>
		
			<rect x="69.017" y="6.043" transform="matrix(0.2903 0.9569 -0.9569 0.2903 73.2118 -48.6296)" fill="#657780" width="0.75" height="38.005"/>
	</g>
	<g>
		<path fill="#C5D6E0" d="M59.355,86.65l-0.988-0.154c3.801-24.52-8.919-61.548-9.048-61.919l0.944-0.328
			C50.392,24.622,63.194,61.886,59.355,86.65z"/>
	</g>
	<g>
		<path fill="#C5D6E0" d="M164.781,83.658c-3.996-23.507,6.766-61.139,6.875-61.516l0.961,0.278
			c-0.108,0.375-10.808,37.79-6.85,61.07L164.781,83.658z"/>
	</g>
	<g>
		<rect x="106.611" y="28.672" fill="#C5D6E0" width="1" height="160.14"/>
	</g>
	<g>
		<rect x="113.245" y="27.867" fill="#C5D6E0" width="1" height="160.944"/>
	</g>
	<g>
		<path fill="#C5D6E0" d="M137.673,82.278l-0.173-0.097c-0.896-0.503-8.776-4.996-9.337-7.98c-0.539-2.861-0.03-18.078-0.009-18.725
			l0.017-0.483h25.493l0.043,0.452c0.452,4.766,1.773,20.43-0.198,21.904c-1.924,1.438-14.245,4.533-15.644,4.881L137.673,82.278z
			 M129.139,55.992c-0.084,2.667-0.46,15.545,0.007,18.022c0.394,2.092,6.232,5.809,8.671,7.196
			c3.887-0.974,13.627-3.567,15.093-4.663c1.018-0.777,0.712-11.182-0.155-20.556H129.139z"/>
	</g>
	<g>
		<circle fill="#657780" cx="110.119" cy="41.924" r="1.982"/>
	</g>
	<g>
		<path fill="#657780" d="M112.101,65.684c0,1.094-0.888,1.98-1.982,1.98s-1.981-0.887-1.981-1.98c0-1.098,0.887-1.982,1.981-1.982
			S112.101,64.586,112.101,65.684z"/>
	</g>
	<g>
		<circle fill="#657780" cx="110.119" cy="89.443" r="1.982"/>
	</g>
	<g>
		<path fill="#657780" d="M112.101,113.202c0,1.094-0.888,1.98-1.982,1.98s-1.981-0.887-1.981-1.98c0-1.098,0.887-1.982,1.981-1.982
			S112.101,112.105,112.101,113.202z"/>
	</g>
	<g>
		<path fill="#657780" d="M112.101,136.962c0,1.092-0.888,1.98-1.982,1.98s-1.981-0.889-1.981-1.98c0-1.098,0.887-1.982,1.981-1.982
			S112.101,135.865,112.101,136.962z"/>
	</g>
	<g>
		<circle fill="#657780" cx="110.119" cy="160.72" r="1.982"/>
	</g>
	<g>
		<path fill="#657780" d="M153.466,58.865h-0.812v-0.75h0.812V58.865z M150.655,58.865h-2v-0.75h2V58.865z M146.655,58.865h-2v-0.75
			h2V58.865z M142.655,58.865h-2v-0.75h2V58.865z M138.655,58.865h-2v-0.75h2V58.865z M134.655,58.865h-2v-0.75h2V58.865z
			 M130.655,58.865h-2v-0.75h2V58.865z"/>
	</g>
	<g>
		<path fill="#657780" d="M121.963,13.086c-0.544-0.096-1.083-0.183-1.615-0.262l0.109-0.742c0.54,0.08,1.085,0.168,1.637,0.266
			L121.963,13.086z M100.568,13.083l-0.16-0.732c0.029-0.006,0.734-0.159,1.999-0.343l0.107,0.742
			C101.278,12.929,100.574,13.082,100.568,13.083z M118.376,12.565c-0.671-0.077-1.331-0.141-1.979-0.195l0.062-0.747
			c0.655,0.054,1.323,0.119,2.002,0.197L118.376,12.565z M104.486,12.504l-0.079-0.746c0.609-0.064,1.279-0.126,2.005-0.18
			l0.055,0.748C105.749,12.379,105.088,12.44,104.486,12.504z M114.414,12.24c-0.68-0.035-1.342-0.058-1.987-0.07l0.016-0.75
			c0.651,0.013,1.323,0.036,2.011,0.071L114.414,12.24z M108.45,12.213l-0.031-0.749c0.642-0.027,1.313-0.045,2.012-0.053
			l0.008,0.75C109.748,12.168,109.084,12.187,108.45,12.213z"/>
	</g>
	<g>
		<path fill="#657780" d="M100.621,6.517l0.123,0.74c0.599-0.1,1.257-0.201,1.967-0.297l-0.101-0.743
			C101.893,6.314,101.227,6.416,100.621,6.517z"/>
		<path fill="#657780" d="M97.049,7.238l0.473,0.658c0.319-0.075,0.742-0.17,1.267-0.276L98.64,6.884
			C97.914,7.031,97.38,7.156,97.049,7.238z"/>
		<path fill="#657780" d="M104.609,5.979l0.077,0.746c0.633-0.065,1.294-0.125,1.981-0.174l-0.055-0.748
			C105.918,5.853,105.249,5.913,104.609,5.979z"/>
		<path fill="#657780" d="M112.628,6.404c0.652,0.017,1.314,0.044,1.986,0.085l0.045-0.749c-0.68-0.041-1.352-0.07-2.012-0.086
			L112.628,6.404z"/>
		<path fill="#657780" d="M120.656,6.456l-0.135,0.738c0.646,0.118,1.294,0.25,1.942,0.398l0.168-0.731
			C121.971,6.71,121.312,6.575,120.656,6.456z"/>
		<path fill="#657780" d="M116.591,6.647c0.651,0.064,1.309,0.142,1.971,0.234l0.104-0.743c-0.672-0.093-1.339-0.171-2-0.237
			L116.591,6.647z"/>
		<path fill="#657780" d="M108.622,5.688l0.031,0.749c0.646-0.026,1.31-0.043,1.986-0.049l-0.006-0.75
			C109.948,5.644,109.277,5.661,108.622,5.688z"/>
	</g>
	<g>
		<path fill="#C5D6E0" d="M110.709,26.679l-0.394-0.497c-0.54-0.682-13.253-16.734-15.596-20.6
			c-2.492-4.107-1.151-6.207-1.093-6.294l0.832,0.555c-0.006,0.01-1.012,1.713,1.116,5.221c2.085,3.44,12.94,17.226,15.137,20.008
			c1.004-1.213,3.749-4.374,6.709-6.434c3.462-2.409,9.533-18.375,9.594-18.535l0.936,0.354c-0.253,0.669-6.244,16.418-9.959,19.002
			c-3.524,2.453-6.857,6.679-6.891,6.721L110.709,26.679z"/>
	</g>
	<g>
		<polygon fill="#C5D6E0" points="92.976,40.247 85.042,12.479 86.004,12.205 93.532,38.552 110.691,25.252 128.329,37.464 
			134.495,10.103 135.47,10.323 128.98,39.13 110.724,26.491 		"/>
	</g>
	<path fill="#1F3663" d="M123.258,9.043c-5.262-1.82-8.859-2.914-10.83-3.496V2.435c5.232-0.946,9.214-5.534,9.214-11.035
		c0-6.183-5.03-11.214-11.214-11.214S99.214-14.783,99.214-8.6h4c0-3.978,3.236-7.214,7.214-7.214s7.214,3.236,7.214,7.214
		s-3.236,7.214-7.214,7.214h-2V5.64l-9.906,3.625l2.331,3.149l9.644-3.263c1.491,0.431,5.14,1.49,11.155,3.57L123.258,9.043z"/>
</g>
</svg>
