<?xml version="1.0" encoding="utf-8"?>
<!-- Generator: Adobe Illustrator 16.0.0, SVG Export Plug-In . SVG Version: 6.00 Build 0)  -->
<!DOCTYPE svg PUBLIC "-//W3C//DTD SVG 1.1//EN" "http://www.w3.org/Graphics/SVG/1.1/DTD/svg11.dtd">
<svg version="1.1" id="Layer_1" xmlns="http://www.w3.org/2000/svg" xmlns:xlink="http://www.w3.org/1999/xlink" x="0px" y="0px"
	 width="295.5px" height="303px" viewBox="-34.115 -44.615 295.5 303" enable-background="new -34.115 -44.615 295.5 303"
	 xml:space="preserve">
<g>
	<g>
		<path fill="#95B0BF" d="M98.331,107.202l78-4.335c0,0,3.332,1.335,3.666,4.335s0,7.665,0,7.665l-44.269,3.335l-37.397,2.665
			V107.202z"/>
	</g>
	<g>
		<path fill="#95B0BF" d="M42.665,111.867c0,0,2.859,6.167-0.141,7.501c-3,1.335-6.01,6.502-6.435,8.168s1.575,8.666,1.575,8.666
			h-3.334c0,0-1.332-1.668-1.666-6c-0.334-4.334,0-6.168,0-6.168s-5.334-3.832-6.667-5.498c-1.333-1.668-4-3.346-4-3.346
			l-3.333-1.988c0,0-0.666-1.003,2-1.335c2.666-0.331,8.271,1.979,9.969,3.323C32.331,116.536,37.332,118.866,42.665,111.867z"/>
	</g>
	<g>
		<circle fill="#657780" cx="235.664" cy="106.033" r="4.484"/>
	</g>
	<g>
		<path fill="#54566D" d="M188.914,107.035c-0.422,0-0.814-0.27-0.951-0.692c-0.17-0.526,0.118-1.089,0.644-1.259l30.126-9.75
			c0.524-0.17,1.089,0.119,1.259,0.643c0.17,0.526-0.118,1.089-0.644,1.259l-30.126,9.75
			C189.12,107.019,189.016,107.035,188.914,107.035z"/>
	</g>
	<g>
		<path fill="#54566D" d="M226.915,121.867c-0.027,0-0.056-0.001-0.083-0.004l-36.25-2.998c-0.551-0.046-0.96-0.529-0.915-1.08
			c0.046-0.55,0.54-0.961,1.079-0.914l36.25,3c0.551,0.045,0.96,0.528,0.915,1.078C227.867,121.473,227.43,121.867,226.915,121.867z
			"/>
	</g>
	<g>
		<path fill="#54566D" d="M188.913,112.835c-0.523,0-0.964-0.408-0.997-0.938c-0.034-0.551,0.385-1.026,0.936-1.06l21.125-1.316
			c0.563-0.038,1.026,0.385,1.061,0.936s-0.385,1.026-0.936,1.06l-21.125,1.316C188.955,112.835,188.934,112.835,188.913,112.835z"
			/>
	</g>
	<g>
		<path fill="#95B0BF" d="M75.337,152.923c0,0-19.623,5.419-26.452,7.142c-0.138-0.15-0.307-0.275-0.505-0.36
			c-0.765-0.334-1.646,0.021-1.972,0.782c-0.01,0.023-0.049,0.117-0.104,0.259c-3.991,1.267-4.516,3.056-4.516,3.056l-5.809,2.097
			c0,0,3.684,5.218,6.695,6.968s0.988,2,3.238,5.5s4.25,2.5,5.75,2.57s8.25-1.57,15-3.82s4.25-9.25,3.75-13.354
			S75.337,152.923,75.337,152.923z M63.914,175.365c-4.5,1.75-11.25,3.75-14.5,2s-6-5.25-5.25-7
			c0.527-1.229,1.034-2.244,1.536-3.102c0.166,0.673,0.421,1.34,0.814,1.967c1.869,2.983,3.387,5.264,3.402,5.286
			c0.289,0.434,0.765,0.668,1.249,0.668c0.286,0,0.575-0.081,0.831-0.252c0.689-0.46,0.876-1.391,0.416-2.08
			c-0.015-0.022-1.511-2.269-3.355-5.214c-0.671-1.071-0.68-2.505-0.489-3.739c0.808-0.576,1.657-0.943,2.597-1.24
			c4.75-1.5,9.75-2.044,9.75-2.044c0.75,0.25,5.75,0.5,6.75,5S68.414,173.615,63.914,175.365z"/>
	</g>
	<g>
		<path fill="#C5D6E0" d="M180.146,117.868c-0.148-3.001-1.192-2.922-1.192-2.922l-78.963,4.331l-1.659-18.118
			c0,0-28,1.377-37.23,1.708c-9.23,0.332-9.937,3.167-9.937,3.167l-8.499,5.833c0,0,1.666,15.335-6.575,17.194
			c-3.48,0.785-4.611,4.113-4.762,7.695c-3.256,1.327-11.027,4.87-11.896,8.797c-1.102,4.98,0,8.98,0,8.98l13.896-4.155
			l2.761,16.155l56.227-19.5c0,0,4.015,0.834,2.558-4.498c-1.457-5.334,6.666-6.334,6.666-6.334l-0.798-8.714l77.922-3.47
			C178.664,124.019,180.294,120.87,180.146,117.868z"/>
	</g>
	<g>
		<path fill="#95B0BF" d="M55.573,116.451c0,0-10.435,3-10.86,10.25s1.285,10.75,5.43,13.75s7.537,3.25,7.537,3.25L55.573,116.451z"
			/>
	</g>
	<g>
		<path fill="#683B11" d="M21.886,194.38c-0.255-1.076-0.355-2.225-0.273-3.532l-1.04-13.419
			c-0.513-6.607,4.429-12.379,11.036-12.892l5.482-0.425l-4.83-19.184c0,0-11.648-2.441-19.93,1.545
			C-1.272,153.021-7.93,173.84-11.3,185.917c-3.527,12.645-2.355,27.766-2.355,27.766l36.816-2.854L21.886,194.38z"/>
	</g>
	<g>
		<path fill="#95B0BF" d="M90.041,131.02c-0.34,0.111-0.693,0.196-1.068,0.214l-16.086,0.754c-2.221,0.105-4.105-1.612-4.209-3.832
			c-0.104-2.223,1.611-4.105,3.832-4.211l16.088-0.754c0.499-0.023,0.977,0.058,1.425,0.202c1.493-0.016,2.392,0.025,2.392,0.025
			l1.238-8c0,0-0.211,0.018-0.575,0.047c-0.67,1.115-1.866,1.889-3.264,1.953l-16.086,0.754c-2.221,0.105-4.105-1.612-4.209-3.832
			c-0.097-2.055,1.368-3.8,3.344-4.139l-14.056,0.717l2.107,34.5l10.674-0.518c-1.176-0.656-2.002-1.877-2.069-3.319
			c-0.104-2.223,1.611-4.105,3.832-4.211l16.088-0.754c1.14-0.054,2.187,0.378,2.954,1.106c0.224-0.023,0.404-0.042,0.521-0.055
			c1.662-0.18,0-6.75,0-6.75S91.781,130.961,90.041,131.02z"/>
	</g>
</g>
</svg>
