<?xml version="1.0" encoding="UTF-8" standalone="no"?>
<!-- Generator: Adobe Illustrator 16.0.0, SVG Export Plug-In . SVG Version: 6.00 Build 0)  -->

<svg
   xmlns:dc="http://purl.org/dc/elements/1.1/"
   xmlns:cc="http://creativecommons.org/ns#"
   xmlns:rdf="http://www.w3.org/1999/02/22-rdf-syntax-ns#"
   xmlns:svg="http://www.w3.org/2000/svg"
   xmlns="http://www.w3.org/2000/svg"
   xmlns:sodipodi="http://sodipodi.sourceforge.net/DTD/sodipodi-0.dtd"
   xmlns:inkscape="http://www.inkscape.org/namespaces/inkscape"
   version="1.1"
   id="Layer_1"
   x="0px"
   y="0px"
   width="242.19315"
   height="263.55737"
   viewBox="-34.115 -44.615 242.19315 263.55737"
   enable-background="new -34.115 -44.615 295.5 303"
   xml:space="preserve"
   inkscape:version="0.91 r13725"
   sodipodi:docname="3.svg"><metadata
     id="metadata4466"><rdf:RDF><cc:Work
         rdf:about=""><dc:format>image/svg+xml</dc:format><dc:type
           rdf:resource="http://purl.org/dc/dcmitype/StillImage" /><dc:title></dc:title></cc:Work></rdf:RDF></metadata><defs
     id="defs4464" /><sodipodi:namedview
     pagecolor="#ffffff"
     bordercolor="#666666"
     borderopacity="1"
     objecttolerance="10"
     gridtolerance="10"
     guidetolerance="10"
     inkscape:pageopacity="0"
     inkscape:pageshadow="2"
     inkscape:window-width="1529"
     inkscape:window-height="1021"
     id="namedview4462"
     showgrid="false"
     fit-margin-top="20"
     fit-margin-left="30"
     fit-margin-right="30"
     fit-margin-bottom="20"
     inkscape:zoom="2.2079208"
     inkscape:cx="79.26984"
     inkscape:cy="116.96068"
     inkscape:window-x="0"
     inkscape:window-y="0"
     inkscape:window-maximized="0"
     inkscape:current-layer="Layer_1" /><g
     id="g4418"
     transform="matrix(0.84926269,-0.52797053,0.52797053,0.84926269,-79.44603,10.259941)"><path
       style="fill:#95b0bf"
       inkscape:connector-curvature="0"
       id="path4420"
       d="m 98.331,107.202 78,-4.335 c 0,0 3.332,1.335 3.666,4.335 0.334,3 0,7.665 0,7.665 l -44.269,3.335 -37.397,2.665 0,-13.665 z" /></g><g
     id="g4422"
     transform="matrix(0.84926269,-0.52797053,0.52797053,0.84926269,-79.44603,10.259941)"><path
       style="fill:#95b0bf"
       inkscape:connector-curvature="0"
       id="path4424"
       d="m 42.665,111.867 c 0,0 2.859,6.167 -0.141,7.501 -3,1.335 -6.01,6.502 -6.435,8.168 -0.425,1.666 1.575,8.666 1.575,8.666 l -3.334,0 c 0,0 -1.332,-1.668 -1.666,-6 -0.334,-4.334 0,-6.168 0,-6.168 0,0 -5.334,-3.832 -6.667,-5.498 -1.333,-1.668 -4,-3.346 -4,-3.346 l -3.333,-1.988 c 0,0 -0.666,-1.003 2,-1.335 2.666,-0.331 8.271,1.979 9.969,3.323 1.698,1.346 6.699,3.676 12.032,-3.323 z" /></g><g
     id="g4430"
     transform="matrix(0.84926269,-0.52797053,0.52797053,0.84926269,-79.44603,10.259941)"><path
       style="fill:#54566d"
       inkscape:connector-curvature="0"
       id="path4432"
       d="m 188.914,107.035 c -0.422,0 -0.814,-0.27 -0.951,-0.692 -0.17,-0.526 0.118,-1.089 0.644,-1.259 l 30.126,-9.75 c 0.524,-0.17 1.089,0.119 1.259,0.643 0.17,0.526 -0.118,1.089 -0.644,1.259 l -30.126,9.75 c -0.102,0.033 -0.206,0.049 -0.308,0.049 z" /></g><g
     id="g4434"
     transform="matrix(0.84926269,-0.52797053,0.52797053,0.84926269,-79.44603,10.259941)"><path
       style="fill:#54566d"
       inkscape:connector-curvature="0"
       id="path4436"
       d="m 226.915,121.867 c -0.027,0 -0.056,-0.001 -0.083,-0.004 l -36.25,-2.998 c -0.551,-0.046 -0.96,-0.529 -0.915,-1.08 0.046,-0.55 0.54,-0.961 1.079,-0.914 l 36.25,3 c 0.551,0.045 0.96,0.528 0.915,1.078 -0.044,0.524 -0.481,0.918 -0.996,0.918 z" /></g><g
     id="g4438"
     transform="matrix(0.84926269,-0.52797053,0.52797053,0.84926269,-79.44603,10.259941)"><path
       style="fill:#54566d"
       inkscape:connector-curvature="0"
       id="path4440"
       d="m 188.913,112.835 c -0.523,0 -0.964,-0.408 -0.997,-0.938 -0.034,-0.551 0.385,-1.026 0.936,-1.06 l 21.125,-1.316 c 0.563,-0.038 1.026,0.385 1.061,0.936 0.035,0.551 -0.385,1.026 -0.936,1.06 l -21.125,1.316 c -0.022,0.002 -0.043,0.002 -0.064,0.002 z" /></g><g
     id="g4442"
     transform="matrix(0.84926269,-0.52797053,0.52797053,0.84926269,-79.44603,10.259941)"><path
       style="fill:#95b0bf"
       inkscape:connector-curvature="0"
       id="path4444"
       d="m 75.337,152.923 c 0,0 -19.623,5.419 -26.452,7.142 -0.138,-0.15 -0.307,-0.275 -0.505,-0.36 -0.765,-0.334 -1.646,0.021 -1.972,0.782 -0.01,0.023 -0.049,0.117 -0.104,0.259 -3.991,1.267 -4.516,3.056 -4.516,3.056 l -5.809,2.097 c 0,0 3.684,5.218 6.695,6.968 3.011,1.75 0.988,2 3.238,5.5 2.25,3.5 4.25,2.5 5.75,2.57 1.5,0.07 8.25,-1.57 15,-3.82 6.75,-2.25 4.25,-9.25 3.75,-13.354 -0.5,-4.104 4.925,-10.84 4.925,-10.84 z m -11.423,22.442 c -4.5,1.75 -11.25,3.75 -14.5,2 -3.25,-1.75 -6,-5.25 -5.25,-7 0.527,-1.229 1.034,-2.244 1.536,-3.102 0.166,0.673 0.421,1.34 0.814,1.967 1.869,2.983 3.387,5.264 3.402,5.286 0.289,0.434 0.765,0.668 1.249,0.668 0.286,0 0.575,-0.081 0.831,-0.252 0.689,-0.46 0.876,-1.391 0.416,-2.08 -0.015,-0.022 -1.511,-2.269 -3.355,-5.214 -0.671,-1.071 -0.68,-2.505 -0.489,-3.739 0.808,-0.576 1.657,-0.943 2.597,-1.24 4.75,-1.5 9.75,-2.044 9.75,-2.044 0.75,0.25 5.75,0.5 6.75,5 1,4.5 0.749,8 -3.751,9.75 z" /></g><g
     id="g4446"
     transform="matrix(0.84926269,-0.52797053,0.52797053,0.84926269,-79.44603,10.259941)"><path
       style="fill:#c5d6e0"
       inkscape:connector-curvature="0"
       id="path4448"
       d="m 180.146,117.868 c -0.148,-3.001 -1.192,-2.922 -1.192,-2.922 l -78.963,4.331 -1.659,-18.118 c 0,0 -28,1.377 -37.23,1.708 -9.23,0.332 -9.937,3.167 -9.937,3.167 l -8.499,5.833 c 0,0 1.666,15.335 -6.575,17.194 -3.48,0.785 -4.611,4.113 -4.762,7.695 -3.256,1.327 -11.027,4.87 -11.896,8.797 -1.102,4.98 0,8.98 0,8.98 l 13.896,-4.155 2.761,16.155 56.227,-19.5 c 0,0 4.015,0.834 2.558,-4.498 -1.457,-5.334 6.666,-6.334 6.666,-6.334 l -0.798,-8.714 77.922,-3.47 c -0.001,0.002 1.629,-3.147 1.481,-6.149 z" /></g><g
     id="g4450"
     transform="matrix(0.84926269,-0.52797053,0.52797053,0.84926269,-79.44603,10.259941)"><path
       style="fill:#95b0bf"
       inkscape:connector-curvature="0"
       id="path4452"
       d="m 55.573,116.451 c 0,0 -10.435,3 -10.86,10.25 -0.425,7.25 1.285,10.75 5.43,13.75 4.145,3 7.537,3.25 7.537,3.25 l -2.107,-27.25 z" /></g><g
     id="g4454"
     transform="matrix(0.84926269,-0.52797053,0.52797053,0.84926269,-79.44603,10.259941)"
     style="fill:#c13535;fill-opacity:1"><path
       style="fill:#c13535;fill-opacity:1"
       inkscape:connector-curvature="0"
       id="path4456"
       d="m 21.886,194.38 c -0.255,-1.076 -0.355,-2.225 -0.273,-3.532 l -1.04,-13.419 c -0.513,-6.607 4.429,-12.379 11.036,-12.892 l 5.482,-0.425 -4.83,-19.184 c 0,0 -11.648,-2.441 -19.93,1.545 -13.603,6.548 -20.261,27.367 -23.631,39.444 -3.527,12.645 -2.355,27.766 -2.355,27.766 l 36.816,-2.854 -1.275,-16.449 z" /></g><g
     id="g4458"
     transform="matrix(0.84926269,-0.52797053,0.52797053,0.84926269,-79.44603,10.259941)"><path
       style="fill:#95b0bf"
       inkscape:connector-curvature="0"
       id="path4460"
       d="m 90.041,131.02 c -0.34,0.111 -0.693,0.196 -1.068,0.214 l -16.086,0.754 c -2.221,0.105 -4.105,-1.612 -4.209,-3.832 -0.104,-2.223 1.611,-4.105 3.832,-4.211 l 16.088,-0.754 c 0.499,-0.023 0.977,0.058 1.425,0.202 1.493,-0.016 2.392,0.025 2.392,0.025 l 1.238,-8 c 0,0 -0.211,0.018 -0.575,0.047 -0.67,1.115 -1.866,1.889 -3.264,1.953 l -16.086,0.754 c -2.221,0.105 -4.105,-1.612 -4.209,-3.832 -0.097,-2.055 1.368,-3.8 3.344,-4.139 l -14.056,0.717 2.107,34.5 10.674,-0.518 c -1.176,-0.656 -2.002,-1.877 -2.069,-3.319 -0.104,-2.223 1.611,-4.105 3.832,-4.211 l 16.088,-0.754 c 1.14,-0.054 2.187,0.378 2.954,1.106 0.224,-0.023 0.404,-0.042 0.521,-0.055 1.662,-0.18 0,-6.75 0,-6.75 0,0 -1.133,0.044 -2.873,0.103 z" /></g></svg>