<?xml version="1.0" encoding="utf-8"?>
<!-- Generator: Adobe Illustrator 16.0.0, SVG Export Plug-In . SVG Version: 6.00 Build 0)  -->
<!DOCTYPE svg PUBLIC "-//W3C//DTD SVG 1.1//EN" "http://www.w3.org/Graphics/SVG/1.1/DTD/svg11.dtd">
<svg version="1.1" id="Layer_1" xmlns="http://www.w3.org/2000/svg" xmlns:xlink="http://www.w3.org/1999/xlink" x="0px" y="0px"
	 width="226.77px" height="226.77px" viewBox="0 0 226.77 226.77" enable-background="new 0 0 226.77 226.77" xml:space="preserve">
<g>
	<g>
		<path fill="#575756" d="M55.215,90.201c-0.146,0-0.284-0.085-0.345-0.228c-0.082-0.19,0.007-0.411,0.197-0.492
			c10.421-4.465,24.257-0.058,24.396-0.012c0.197,0.064,0.305,0.275,0.241,0.472c-0.064,0.197-0.278,0.305-0.472,0.241
			c-0.136-0.044-13.708-4.364-23.869-0.012C55.314,90.192,55.264,90.201,55.215,90.201z"/>
	</g>
	<g>
		<path fill="#575756" d="M83.105,90.201c-0.088,0-0.176-0.031-0.247-0.093c-5.793-5.067-27.463-7.303-27.681-7.325
			c-0.206-0.021-0.356-0.205-0.335-0.411s0.212-0.357,0.411-0.335c0.901,0.091,22.128,2.283,28.1,7.507
			c0.156,0.136,0.171,0.373,0.035,0.529C83.313,90.158,83.209,90.201,83.105,90.201z"/>
	</g>
	<g>
		<path fill="#575756" d="M59.677,95.658c-0.168,0-0.321-0.114-0.363-0.284c-0.05-0.201,0.072-0.405,0.272-0.455
			c1.962-0.491,19.253-4.72,22.289-1.854c0.151,0.143,0.158,0.38,0.016,0.53c-0.143,0.151-0.38,0.158-0.53,0.016
			c-2.317-2.188-16.372,0.728-21.592,2.035C59.738,95.655,59.707,95.658,59.677,95.658z"/>
	</g>
	<path fill="#CFCDBC" d="M94.365,148.128c-0.968-1.914-3.098-15.484-3.098-15.484s-6.313,17.374-10.433,22.008
		c-4.119,4.635-1.536,16.35,2.068,23.559c1.386,2.772,1.782,4.934,2.155,6.604c-0.205,3.506-0.106,7.615,0.94,10.942
		c1.781,5.664,9.587,2.922,11.819,0c1.132-1.482,1.676-3.935,1.938-5.992c2.345-0.046,3.415-0.081,6.025-0.161
		C104.469,169.669,99.353,157.987,94.365,148.128z"/>
	<g>
		<g>
			<path fill="#E6E6E6" d="M104.547,189.678c0,0-4.713-22.02,2.392-28.014c7.105-5.994,18.988-8.328,22.105-7.15
				c7.75,2.928,7.67,11.002,8,15.922s1.334,21.002,1.334,21.002s-7.619-0.541-12.143-1.154S104.547,189.678,104.547,189.678z"/>
		</g>
	</g>
	<g>
		<g>
			<path fill="#C1BCAB" d="M153.953,167.01c-0.539-6.848-5.664-40.094-9.27-50.426c-3.604-10.334-10.299-15.997-13.387-17.541
				c-3.09-1.547-21.112-0.102-25.746,2.266c-4.635,2.367-7.209,4.253-9.783,14.125c-2.575,9.868-9.784,21.711,0,41.279
				c9.783,19.565,11.334,29.864,13.905,34.498c2.571,4.635,2.436,9.719,5.661,11.328c5.148,2.567,8.469,2.643,9.049-4.566
				c0.58-7.208-3.002-6.247-1.906-18.09s-2.639-16.993,0-20.082c2.641-3.088,8.305-6.178,10.363,1.547
				c2.061,7.722,3.09,27.289,3.09,30.893c0,3.605,5.15,10.299,9.27,8.238C149.319,198.42,155.19,182.772,153.953,167.01z"/>
		</g>
	</g>
	<g>
		<path fill="#CFCDBC" d="M145.199,26.954c0.258-24.716-18.965-9.571-21.369,6.437c-1.188,7.897-2.061,20.597-2.15,29.68l0,0
			c-0.479-0.113-0.945-0.214-1.402-0.301c-0.441-5.505-1.297-15.058-1.082-23.199c0.258-9.783-0.258-13.334-1.545-16.578
			c-1.287-3.246-2.311-8.395-7.977-3.76c-5.667,4.633-5.294,20.595-3.937,27.03c1.359,6.438,0,15.952,0,15.952
			s0.076,0.33,0.206,0.785c-0.802,0.097-1.614,0.186-2.452,0.256c-6.179,0.514-9.257,2.06-12.223,7.724
			c-2.966,5.663-6.313,9.587-7.343,10.714c-1.03,1.129-8.239,10.723-3.347,14.679c4.891,3.957,9.269,5.673,11.843,7.004
			c2.574,1.329,5.08,2.221,7.621,4.98c2.298,2.495,13.496,2.032,17.001,1c3.508-1.033,13.73-10.505,13.73-10.505l1.57-1.87
			c0,0,0.402,0.312,0.238-8.651c-0.096-5.229-0.373-9.971-1.324-13.918c1.283-3.448,3.086-8.319,4.158-11.342
			C137.217,57.994,144.942,51.67,145.199,26.954z"/>
	</g>
	<g>
		<g>
			<path fill="#575756" d="M108.518,86.468c0.332,0.017,0.672,0.018,1.016-0.003c3.206-0.199,6.109-2.101,8.628-5.653
				c0.502-0.704,0.334-1.683-0.371-2.182c-0.707-0.499-1.684-0.333-2.182,0.368c-1.946,2.746-4.054,4.207-6.266,4.339
				c-3.387,0.209-6.157-2.733-6.185-2.763c-0.583-0.639-1.575-0.685-2.214-0.101c-0.638,0.584-0.685,1.575-0.101,2.212
				C100.985,82.84,104.13,86.234,108.518,86.468z"/>
		</g>
	</g>
	<g>
		<path fill="#FCE4DB" d="M126.242,57.471c0,0,0.006-22.677,4.469-30.114c4.461-7.438,10.777-8.933,11.148-1.124
			c0.373,7.81-2.148,23.124-7.797,28.79C131.586,57.507,126.182,61.946,126.242,57.471z"/>
	</g>
	<g>
		<path fill="#C1BCAB" d="M85.201,89.828c0,0,9.717-5.375,15.627,0c5.91,5.374-6.981,12.251-9.771,10.913
			S81.018,93.64,85.201,89.828z"/>
	</g>
	<g>
		<path fill="#C1BCAB" d="M81.869,84.543c0,0,0.172,12.708-1.292,11.829C78.573,95.169,77.53,90.163,81.869,84.543z"/>
	</g>
	<g>
		<g>
			<circle fill="#F4A689" cx="115.947" cy="93.868" r="5.692"/>
		</g>
	</g>
	<g>
		<path fill="#575756" d="M116.77,203.702c-0.049,0-0.1-0.007-0.148-0.022c-0.264-0.082-0.41-0.362-0.328-0.626
			c0.389-1.251-0.168-3.18-0.416-3.817c-0.102-0.258,0.027-0.548,0.283-0.647c0.258-0.102,0.547,0.027,0.648,0.284
			c0.041,0.107,1.012,2.641,0.439,4.478C117.18,203.566,116.983,203.702,116.77,203.702z"/>
	</g>
	<g>
		<path fill="#575756" d="M122.076,204.624c-0.096,0-0.195-0.028-0.281-0.086c-0.229-0.155-0.287-0.467-0.133-0.695
			c0.926-1.362-0.867-4.317-1.635-5.341c-0.166-0.221-0.123-0.534,0.098-0.7c0.223-0.165,0.535-0.123,0.701,0.099
			c0.326,0.435,3.152,4.312,1.664,6.505C122.395,204.547,122.237,204.624,122.076,204.624z"/>
	</g>
	<g>
		<path fill="#575756" d="M140.647,200.356c-0.057,0-0.115-0.01-0.172-0.03c-0.258-0.095-0.393-0.382-0.297-0.642
			c0.766-2.095,0.008-4.219,0-4.239c-0.096-0.26,0.039-0.547,0.297-0.642c0.262-0.094,0.547,0.04,0.643,0.298
			c0.037,0.101,0.889,2.492,0,4.927C141.043,200.23,140.852,200.356,140.647,200.356z"/>
	</g>
	<g>
		<path fill="#575756" d="M144.971,201.629c-0.092,0-0.186-0.025-0.268-0.077c-0.234-0.147-0.303-0.456-0.156-0.689
			c1.152-1.824,0.533-3.598,0.162-4.657c-0.139-0.397-0.238-0.685-0.238-0.933c0-0.276,0.223-0.5,0.5-0.5
			c0.275,0,0.5,0.224,0.5,0.499c0.002,0.089,0.104,0.374,0.184,0.604c0.4,1.149,1.148,3.288-0.262,5.521
			C145.297,201.547,145.135,201.629,144.971,201.629z"/>
	</g>
	<g>
		<path fill="#575756" d="M124.362,198.701c-0.188,0-0.367-0.106-0.453-0.287c-0.557-1.184-1.697-1.867-1.709-1.874
			c-0.236-0.14-0.316-0.446-0.176-0.684c0.141-0.238,0.445-0.317,0.682-0.179c0.059,0.033,1.416,0.84,2.107,2.311
			c0.119,0.25,0.012,0.548-0.238,0.665C124.506,198.686,124.432,198.701,124.362,198.701z"/>
	</g>
	<g>
		<path fill="#575756" d="M148.74,196.61c0,0,0,0-0.002,0c-0.275-0.001-0.498-0.226-0.498-0.502c0.004-0.79-0.477-1.675-0.662-1.948
			c-0.154-0.229-0.094-0.54,0.135-0.694c0.229-0.156,0.539-0.095,0.693,0.134c0.035,0.051,0.838,1.256,0.834,2.513
			C149.24,196.387,149.016,196.61,148.74,196.61z"/>
	</g>
	<g>
		<path fill="#E6E6E6" d="M132.746,93.339c0,0-3.996,3.239-8.104,7.073c-4.105,3.834-9.523,1.964-14.388,3.354
			c-4.271,1.22-6.098,6.188-6.098,6.188s8.21,1.914,13.56,1.032c5.77-0.951,15.732-8.185,14.99-14.528
			C132.405,93.863,132.746,93.339,132.746,93.339z"/>
	</g>
	<g>
		<path fill="#575756" d="M112.687,107.679c-0.135,0-0.264-0.072-0.332-0.198c-5.234-9.779-19.17-13.741-19.31-13.78
			c-0.2-0.055-0.316-0.262-0.261-0.461c0.055-0.199,0.257-0.317,0.461-0.261c0.143,0.04,14.383,4.084,19.772,14.149
			c0.098,0.183,0.028,0.409-0.154,0.507C112.806,107.665,112.746,107.679,112.687,107.679z"/>
	</g>
	<g>
		<path fill="#575756" d="M106.937,111.322c-0.073,0-0.147-0.021-0.213-0.066c-2.396-1.663-13.4-14.909-13.868-15.473
			c-0.132-0.159-0.11-0.396,0.049-0.528c0.159-0.132,0.395-0.11,0.528,0.049c0.114,0.137,11.405,13.73,13.718,15.334
			c0.17,0.119,0.213,0.352,0.094,0.522C107.174,111.265,107.056,111.322,106.937,111.322z"/>
	</g>
	<g>
		<path fill="#575756" d="M115.948,101.115c-0.1,0-0.197-0.039-0.271-0.116c-8.806-9.215-22.435-10.786-22.571-10.8
			c-0.206-0.022-0.355-0.208-0.333-0.413c0.022-0.207,0.208-0.359,0.413-0.333c0.14,0.015,14.033,1.611,23.034,11.028
			c0.143,0.15,0.137,0.387-0.014,0.53C116.133,101.081,116.039,101.115,115.948,101.115z"/>
	</g>
</g>
</svg>
