<?xml version="1.0" encoding="utf-8"?>
<!-- Generator: Adobe Illustrator 16.0.0, SVG Export Plug-In . SVG Version: 6.00 Build 0)  -->
<!DOCTYPE svg PUBLIC "-//W3C//DTD SVG 1.1//EN" "http://www.w3.org/Graphics/SVG/1.1/DTD/svg11.dtd">
<svg version="1.1" id="Layer_1" xmlns="http://www.w3.org/2000/svg" xmlns:xlink="http://www.w3.org/1999/xlink" x="0px" y="0px"
	 width="226.77px" height="226.77px" viewBox="0 0 226.77 226.77" enable-background="new 0 0 226.77 226.77" xml:space="preserve">
<g>
	<g>
		<path fill="#F4D9BE" d="M155.819,63.602c0,0-11.842-12.514-13.533-13.994c-1.692-1.48-30.848-8.871-30.848-8.871l-0.051,0.007
			c0.178-2.384-0.051-4.317-0.051-4.317l1.128-9.586h-30.37v18.324c-3.95,0.958-8.644,2.368-13.681,4.443
			c-14,5.768-13.534,17.833-17.481,26.246c-3.947,8.414-5.639,25.422-7.331,33.045c-1.576,7.104-0.705,43.784-0.123,57.9
			c-2.644,8.071,2.392,13.3,2.392,13.3s2.417,0.187,5.216,0.479c2.799,0.293,3.399-0.578,3.399-2.055
			c0-0.418-0.407-0.777-0.979-1.078c0.025-0.008,0.049-0.016,0.074-0.023c4.109-1.174,4.768-1.98,4.682-4.195
			c-0.053-1.371-3.522-1.631-3.522-1.631s1.364-0.551,2.289-0.629c1.736-0.147,1.981-1.743,1.687-3.213
			c-0.294-1.466-4.769-1.557-4.769-1.557s1.411-0.518,2.568-1.174c0.974-0.551,1.614-1.937,0.733-3.741
			c-0.361-0.741-2.458-0.582-4.801-0.139c0.015-7.254,0.45-17.761,2.505-25.47c3.458-12.971,3.497-39.002,3.497-39.002
			s1.142,0.001,3.142,0.006c-0.22,6.146-0.51,14.971-0.51,18.696c0,5.992-6.129,30.385-6.129,30.385s79.899-1.564,90.992-1.651
			c0.207,7.539,0.393,14.869,0.541,20.958c-0.699,0.031-1.191,0.183-1.35,0.507c-0.881,1.805-0.24,3.189,0.733,3.741
			c0.237,0.134,0.483,0.261,0.728,0.38c0.008,0.32,0.015,0.64,0.022,0.949c-1.276,0.182-2.784,0.571-2.95,1.401
			c-0.295,1.47-0.049,3.065,1.687,3.213c0.426,0.036,0.941,0.173,1.378,0.31c0.004,0.148,0.006,0.295,0.01,0.438
			c-1.031,0.179-2.585,0.597-2.621,1.512c-0.086,2.215,0.573,3.021,4.683,4.195c0.024,0.008,0.049,0.016,0.073,0.023
			c-0.572,0.3-0.979,0.659-0.979,1.078c0,1.477,0.6,2.348,3.398,2.055c2.801-0.293,5.217-0.479,5.217-0.479
			s5.889-6.113,1.588-15.324c0.363-5.619,3.975-61.223,5.046-64.97C164.278,100.148,155.819,63.602,155.819,63.602z M141.025,97.972
			c1.777,0.145,2.833,0.305,2.952,0.483c0.582,0.873,1.328,22.732,1.914,43.681C143.356,134.004,141.633,108.332,141.025,97.972z"/>
	</g>
	<g>
		<polygon fill="#95CFC4" points="54.954,145.759 146.848,144.104 146.848,200.324 109.473,198.119 102.023,191.375 97.528,197.384 
			58.11,193.998 		"/>
	</g>
	<g>
		<ellipse fill="#BCAA96" cx="100.367" cy="134.423" rx="2.162" ry="1.667"/>
	</g>
	<g>
		<path fill="#54566D" d="M184.569,170.182c0-18.531-1.457-42.509-28.438-43.76c-11.129-0.518-20.105-0.118-25.724,0.314
			c0.014-3.683,0.069-6.92,0.2-8.751l-18.144,14.93l18.144,14.931c0,0-0.071-3.654-0.129-8.467c4.912-0.237,12.33-0.167,21.34,1.272
			c20.338,3.249,14.536,17.589,15.331,29.53C167.15,170.182,172.696,170.27,184.569,170.182z"/>
	</g>
	<g>
		<g>
			<circle fill="#F7BEAA" cx="75.604" cy="82.763" r="3.525"/>
		</g>
		<g>
			<circle fill="#F29C92" cx="75.604" cy="82.764" r="1.552"/>
		</g>
	</g>
	<g>
		<circle fill="#F7BEAA" cx="127.906" cy="82.763" r="3.524"/>
	</g>
	<g>
		<circle fill="#F29C92" cx="127.906" cy="82.764" r="1.552"/>
	</g>
	<g>
		<circle fill="#FFFFFF" cx="94.353" cy="150.335" r="1.692"/>
	</g>
	<g>
		<circle fill="#FFFFFF" cx="102.702" cy="150.335" r="1.692"/>
	</g>
	<path fill="#1DBBEE" d="M103.037,151.072c-0.06-0.077-0.133-0.135-0.202-0.197c0.073-0.06,0.146-0.12,0.192-0.159
		c0.209-0.18,0.234-0.495,0.055-0.705c-0.179-0.209-0.496-0.235-0.705-0.055c-0.206,0.176-0.44,0.356-0.684,0.534
		c-0.724,0.021-1.619,0.4-2.61,1.157c-0.123-0.101-0.285-0.148-0.45-0.101c-0.068,0.02-0.136,0.028-0.203,0.043
		c-0.165-0.04-0.358-0.062-0.591-0.062c-0.228,0-0.496,0.02-0.78,0.059c-1.598-0.325-2.899-1.59-2.917-1.606
		c-0.197-0.193-0.513-0.191-0.707,0.004c-0.194,0.196-0.192,0.513,0.003,0.707c0.058,0.058,0.829,0.809,1.96,1.368
		c-0.256,0.126-0.479,0.274-0.639,0.448c-0.268,0.291-0.305,0.582-0.288,0.774c0.071,0.838,0.72,1.704,1.682,1.704
		c0.667,0,1.344-0.404,2.019-1.191c0.082,1.118,0.168,2.643,0.101,3.404c-0.081,0.916-0.287,1.305-0.453,1.616
		c-0.067,0.127-0.127,0.242-0.173,0.361c-0.1,0.258,0.027,0.548,0.285,0.647c0.06,0.023,0.121,0.034,0.181,0.034
		c0.2,0,0.389-0.121,0.466-0.318c0.033-0.085,0.077-0.166,0.125-0.256c0.197-0.371,0.467-0.879,0.565-1.997
		c0.073-0.826-0.015-2.398-0.098-3.548c0.301,1.939,1.784,3.071,1.863,3.13c0.089,0.066,0.194,0.099,0.297,0.099
		c0.153,0,0.304-0.069,0.402-0.202c0.165-0.222,0.119-0.534-0.104-0.699c-0.016-0.012-1.292-1.006-1.474-2.656
		c0.565,0.13,1.143,0.185,1.456,0.185c1.244,0,1.629-0.471,1.733-0.865C103.496,152.15,103.379,151.514,103.037,151.072z
		 M96.153,153.986c-0.422,0-0.659-0.471-0.689-0.761c0.08-0.193,0.794-0.493,1.595-0.627c0.235,0.037,0.473,0.068,0.718,0.068
		c0.002,0,0.005-0.001,0.008-0.001C96.954,153.836,96.378,153.986,96.153,153.986z M99.117,153.038c0-0.002,0-0.004,0-0.005
		c0,0,0,0,0,0C99.117,153.035,99.117,153.036,99.117,153.038z M102.389,152.448c-0.034,0.038-0.25,0.146-0.778,0.146
		c-0.43,0-0.857-0.073-1.224-0.16c0.586-0.262,1.147-0.603,1.61-0.926c0.099,0.036,0.185,0.091,0.249,0.174
		C102.394,151.875,102.448,152.201,102.389,152.448z"/>
</g>
</svg>
