<?xml version="1.0" encoding="utf-8"?>
<!-- Generator: Adobe Illustrator 16.0.0, SVG Export Plug-In . SVG Version: 6.00 Build 0)  -->
<!DOCTYPE svg PUBLIC "-//W3C//DTD SVG 1.1//EN" "http://www.w3.org/Graphics/SVG/1.1/DTD/svg11.dtd">
<svg version="1.1" id="Layer_1" xmlns="http://www.w3.org/2000/svg" xmlns:xlink="http://www.w3.org/1999/xlink" x="0px" y="0px"
	 width="226.77px" height="226.77px" viewBox="0 0 226.77 226.77" enable-background="new 0 0 226.77 226.77" xml:space="preserve">
<g>
	
		<rect x="107.348" y="112.227" transform="matrix(0.4973 0.8676 -0.8676 0.4973 195.198 -11.8768)" fill="#8B969D" width="1" height="100.548"/>
</g>
<g>
	<polygon fill="#8B969D" points="156.125,127.667 155.042,127.667 180.305,39.6 181.266,39.877 	"/>
</g>
<path fill="#5B3926" d="M180.368,32.008c-2.213,0.206-54.628,5.606-92.192,54.058c-37.596,48.491-28.38,102.887-27.97,105.179
	c0.391,2.178,2.287,3.707,4.424,3.707c0.264,0,0.531-0.023,0.799-0.071c2.446-0.438,4.074-2.777,3.635-5.224
	c-0.069-0.388-4.962-29.265,6.917-62.678c2.979-5.587,6.589-11.671,9.041-13.51c4.868-3.651,13.083-8.521,14.301-10.65
	c1.217-2.129,1.217-5.779,2.434-6.997s3.043-2.435,4.869-3.348s2.434-1.825,5.173-9.128c2.338-6.236,14.099-17.316,18.15-23.102
	c26.583-16.676,50.907-19.243,51.253-19.276c2.475-0.23,4.294-2.423,4.063-4.898C185.036,33.597,182.844,31.781,180.368,32.008z"/>
<polygon fill="#F29100" points="157.877,136.094 167.557,134.77 155.691,127.162 148.821,129.094 54.308,59.2 56.474,56.4 
	40.294,49.909 49.726,65.123 51.861,62.364 145.333,131.491 146.482,138.907 157.973,148.751 155.781,138.929 "/>
</svg>
