<?xml version="1.0" encoding="utf-8"?>
<!-- Generator: Adobe Illustrator 16.0.0, SVG Export Plug-In . SVG Version: 6.00 Build 0)  -->
<!DOCTYPE svg PUBLIC "-//W3C//DTD SVG 1.1//EN" "http://www.w3.org/Graphics/SVG/1.1/DTD/svg11.dtd">
<svg version="1.1" id="Layer_1" xmlns="http://www.w3.org/2000/svg" xmlns:xlink="http://www.w3.org/1999/xlink" x="0px" y="0px"
	 width="226.77px" height="226.77px" viewBox="0 0 226.77 226.77" enable-background="new 0 0 226.77 226.77" xml:space="preserve">
<g>
	<g>
		<path fill="#54566D" d="M196.974,59.625c-0.459,9.867-0.105,17.826,0.277,22.809c-3.266-0.012-6.135-0.062-7.758-0.178
			l13.238,16.088l13.238-16.088c0,0-3.24,0.062-7.506,0.113c-0.211-4.355-0.148-10.932,1.127-18.92
			c0.412-2.586,1.033-4.68,1.814-6.398h-14.191C197.103,57.873,197.015,58.723,196.974,59.625z"/>
	</g>
	<path fill="#B8C5CE" d="M104.26,108.01c0,0,16.183-15.212,22.558-18.572c6.377-3.36,9.363-2.321,9.363-2.321s0.746,6.186,0,8.547
		c-0.748,2.361,2.529,2.36,0.332,4.975c-2.199,2.613-12.129,9.085-12.129,9.085S108.553,108.3,104.26,108.01z"/>
	<path fill="#FCE4DB" d="M142.599,142.062l16.24,11.842c0,0,3.24,3.354,5.76,1.031c2.521-2.322-3.801-6.153-0.721-9.513
		c3.08-3.36,7.264-8.085,7.264-8.085L160.24,134.7C160.24,134.7,145.12,136.742,142.599,142.062z"/>
	
		<line fill="none" stroke="#F7BEAA" stroke-width="0.75" stroke-linecap="round" stroke-miterlimit="10" x1="145.888" y1="141.144" x2="159.327" y2="149.73"/>
	
		<line fill="none" stroke="#F7BEAA" stroke-width="0.75" stroke-linecap="round" stroke-miterlimit="10" x1="145.888" y1="139.369" x2="159.327" y2="145.228"/>
	
		<line fill="none" stroke="#F7BEAA" stroke-width="0.75" stroke-linecap="round" stroke-miterlimit="10" x1="148.781" y1="137.597" x2="161.007" y2="141.144"/>
	<path fill="#B8C5CE" d="M185.427,117.652c0,0,11.605-8.055,20.564-10.295c8.959-2.239,15.68-0.905,11.199,5.147
		c-4.479,6.053-11.945,11.056-11.199,14.154s-0.373,5.339,5.227,9.072c5.6,3.732,13.066,12.319,10.08,14.933
		c-2.986,2.612-15.305-2.73-21.652-5.846c-6.348-3.114-16.164-10.208-16.164-10.208s7.768,1.309,7.602-10.396
		C190.993,117.932,185.427,117.652,185.427,117.652z"/>
	<path fill="#C5D6E0" d="M15.97,121.172c0,0,39.945-19.786,72.798-16.427c32.853,3.36,67.759,11.199,76.251,12.692
		c8.494,1.494,9.613,2.614,12.6,1.867c2.988-0.747,10.828-2.239,10.828-2.239s1.934,0.373,3.393,7.467
		c1.459,7.092-4.887,10.825-4.887,10.825s-7.279-2.614-21.934,0c-14.652,2.614-12.785,8.213-43.398,12.319
		c-30.613,4.107-81.012-2.613-90.718-7.093c-9.707-4.479-12.693-8.214-14.933-10.826C13.73,127.145,12.947,122.583,15.97,121.172z"
		/>
	<path fill="#B8C5CE" d="M66.414,141.444l-0.045-0.067c-0.076,0.01-0.156,0-0.234-0.002l-0.941-0.23
		c-2.201-0.977-5.167-4.906-8.159-9.658c-4.242-6.738-14.186-18.482-14.186-18.482l-1.907-1.538
		c-14.557,4.601-24.972,9.753-24.972,9.753c-3.023,1.411-2.24,5.973,0,8.586c2.239,2.612,5.226,6.347,14.933,10.826
		c5.049,2.331,21.119,5.265,39.68,6.969c11.676,1.27,26.398,1.343,26.398,1.343L66.414,141.444z"/>
	<path fill="#FCE4DB" d="M98.38,146.556l8.96,23.774c0,0,5.507-1.002,10.175-5.762c4.666-4.76,3.826-11.479,3.826-11.479
		l-1.961-2.24l2.02-0.279c0,0,2.885-0.95,2.953-3.275s0.031-3.724,0.031-3.724L98.38,146.556z"/>
	
		<line fill="none" stroke="#F7BEAA" stroke-width="0.75" stroke-linecap="round" stroke-miterlimit="10" x1="101.273" y1="147.602" x2="108.553" y2="167.462"/>
	
		<line fill="none" stroke="#F7BEAA" stroke-width="0.75" stroke-linecap="round" stroke-miterlimit="10" x1="101.273" y1="147.602" x2="110.42" y2="165.409"/>
	
		<line fill="none" stroke="#F7BEAA" stroke-width="0.75" stroke-linecap="round" stroke-miterlimit="10" x1="101.273" y1="147.602" x2="112.287" y2="162.983"/>
	
		<line fill="none" stroke="#F7BEAA" stroke-width="0.75" stroke-linecap="round" stroke-miterlimit="10" x1="113.779" y1="158.876" x2="101.273" y2="147.602"/>
	<path fill="#FCE4DB" d="M57.822,132.716c0,0,14.009,3.227,20.009,6.653s6.75,6.067,6.75,6.067s-16.306-1.705-19.389-4.293
		S57.063,135.386,57.822,132.716z"/>
	<circle fill="#64C6F2" cx="8.903" cy="118.24" r="1.802"/>
	<circle fill="#A0D9F7" cx="5.299" cy="106.497" r="1.802"/>
	<circle fill="#A0D9F7" cx="13.601" cy="109.493" r="2.365"/>
	<path fill="#8B969D" d="M134.546,115.672c10.803,1.889,29.697,6.604,39.809,3.746c-1.793-0.289-4.225-1.063-9.438-1.98
		c-8.492-1.493-43.398-9.332-76.252-12.692c-32.853-3.359-72.798,16.427-72.798,16.427c-1.694,0.791-2.192,2.571-1.909,4.443
		c3.81-0.219,11.446-1.434,26.389-4.922C76.847,112.172,120.243,113.172,134.546,115.672z"/>
	<g>
		<circle fill="#ECEBE0" cx="30.729" cy="125.609" r="5.566"/>
		<circle fill="#575756" cx="30.729" cy="125.609" r="2.613"/>
	</g>
</g>
</svg>
