<?xml version="1.0" encoding="utf-8"?>
<!-- Generator: Adobe Illustrator 16.0.0, SVG Export Plug-In . SVG Version: 6.00 Build 0)  -->
<!DOCTYPE svg PUBLIC "-//W3C//DTD SVG 1.1//EN" "http://www.w3.org/Graphics/SVG/1.1/DTD/svg11.dtd">
<svg version="1.1" id="Layer_1" xmlns="http://www.w3.org/2000/svg" xmlns:xlink="http://www.w3.org/1999/xlink" x="0px" y="0px"
	 width="226.77px" height="226.77px" viewBox="0 0 226.77 226.77" enable-background="new 0 0 226.77 226.77" xml:space="preserve">
<g>
	<g>
		<rect x="21.245" y="119.076" fill="#8B969D" width="6" height="67.867"/>
	</g>
	<g>
		<rect x="186.245" y="119.076" fill="#8B969D" width="6" height="67.867"/>
	</g>
	<g>
		<g>
			<path fill="#54566D" d="M164.156,47.971c-0.459,9.867-0.104,17.826,0.279,22.809c-3.266-0.012-6.136-0.062-7.76-0.178
				l13.238,16.088l13.238-16.088c0,0-3.24,0.062-7.506,0.113c-0.211-4.355-0.148-10.932,1.128-18.92
				c0.412-2.586,1.033-4.68,1.814-6.398h-14.191C164.286,46.219,164.198,47.069,164.156,47.971z"/>
		</g>
	</g>
	<g>
		<path fill="#C2A894" d="M132.081,107.864c0,0-2.854-14.227,3.135-15.682c5.989-1.453,8.136-0.156,21.016,0
			c12.881,0.158,20.395,2.842,25.762,2.305s11.27-4.07,13.953-2.305c2.686,1.768,3.758,15.682,3.758,15.682H132.081z"/>
	</g>
	<g>
		<path fill="#C2A894" d="M127.737,107.541c0.467,0.445-0.934-3.935-7.712-4.25c-3.431-0.162-4.172,4.25-4.172,4.25H127.737z"/>
	</g>
	<path fill="#C2A894" d="M162.747,181.106c-2.618-0.122-4.085,1.71-4.87,3.346c-1.133-0.745-2.802-1.396-5.185-1.508
		c-3.199-0.148-3.892,3.971-3.892,3.971h11.082c0.044,0.041,0.063,0.027,0.069-0.014h13.295
		C173.884,187.506,171.976,181.535,162.747,181.106z"/>
	<g>
		<polygon fill="#B39C89" points="19.997,93.563 22.382,107.67 34.546,107.67 37.407,93.563 		"/>
	</g>
	<g>
		<polygon fill="#958374" points="19.878,93.563 37.378,93.707 37.163,94.766 20.202,94.766 		"/>
	</g>
	<g>
		<rect x="17.613" y="90.239" fill="#B39C89" width="21.703" height="3.469"/>
	</g>
	<g>
		<polygon fill="#B39C89" points="44.801,93.563 47.187,107.67 59.349,107.67 62.211,93.563 		"/>
	</g>
	<g>
		<polygon fill="#958374" points="44.682,93.563 62.182,93.707 61.958,94.766 45.015,94.766 		"/>
	</g>
	<g>
		<rect x="42.416" y="90.239" fill="#B39C89" width="21.702" height="3.469"/>
	</g>
	<g>
		<polygon fill="#B39C89" points="76.991,79.278 81.792,107.67 106.273,107.67 112.032,79.278 		"/>
	</g>
	<g>
		<polygon fill="#958374" points="76.752,79.278 111.974,79.571 111.542,81.699 77.397,81.699 		"/>
	</g>
	<g>
		<rect x="72.192" y="72.586" fill="#B39C89" width="43.681" height="6.984"/>
	</g>
	<g>
		<path fill="#F4D9BE" d="M158.417,87.541c-0.896-2.818-8.678,0-8.678,0c-11.574-6.818-19.418,0.744-19.418,0.744
			s-1.119,3.092-0.545,5.924c0.635,3.133,0.656,3.859,2.334,3.859c0.475,0,0.883-0.461,1.225-1.111
			c0.008,0.029,0.018,0.057,0.025,0.084c1.334,4.668,2.25,5.416,4.766,5.318c1.557-0.061,1.852-4,1.852-4s0.627,1.549,0.715,2.6
			c0.168,1.971,1.98,2.25,3.648,1.916c1.666-0.334,1.77-5.416,1.77-5.416s0.588,1.602,1.332,2.916
			c0.627,1.105,2.201,1.834,4.25,0.834c1.197-0.584,0.328-5.152-0.602-8.85c1.268,0,3.09,0,3.957,0
			C156.452,92.36,159.312,90.36,158.417,87.541z"/>
	</g>
	<g>
		<polygon fill="#95CFC4" points="186.744,84.406 210.349,58.569 224.183,73.076 199.982,98.633 		"/>
	</g>
	<g>
		<path fill="#F4D9BE" d="M188.723,85.201c0,0-4.404-7.008-6.843-5.336c-2.439,1.672-1.414,5.008-0.308,5.871
			c0.603,0.469,1.784,1.389,2.739,2.135c-3.014,1.955-6.367,4.463-5.8,5.623c1.003,2.047,2.932,2.283,3.721,2.898
			s2.793-0.357,2.793-0.357s-2.33,4.1-1.221,5.387c1.11,1.289,3.245,1.262,4.122,0.678s1.845-2.367,1.845-2.367
			s-0.315,2.984,0.103,4.484c0.176,0.627,0.823,3.002,4.746,0.141c0.491-0.359,1.002-0.732,1.518-1.111
			c-0.033,0.613,0.063,1.115,0.384,1.365c1.324,1.029,2.154,2.135,3.847-0.58c1.691-2.713,3.213-6.309,3.213-6.309
			S202.043,86.938,188.723,85.201z"/>
	</g>
	<g>
		<path fill="#95CFC4" d="M146.601,85.99l-2.502-30.43l-21.262,2.414l7.484,30.311C130.322,88.285,144.697,87.756,146.601,85.99z"/>
	</g>
	<g>
		<rect x="7.018" y="107.559" fill="#5B3926" width="202.228" height="11.518"/>
	</g>
</g>
</svg>
