<?xml version="1.0" encoding="utf-8"?>
<!-- Generator: Adobe Illustrator 16.0.0, SVG Export Plug-In . SVG Version: 6.00 Build 0)  -->
<!DOCTYPE svg PUBLIC "-//W3C//DTD SVG 1.1//EN" "http://www.w3.org/Graphics/SVG/1.1/DTD/svg11.dtd">
<svg version="1.1" id="Layer_1" xmlns="http://www.w3.org/2000/svg" xmlns:xlink="http://www.w3.org/1999/xlink" x="0px" y="0px"
	 width="226.77px" height="226.77px" viewBox="0 0 226.77 226.77" enable-background="new 0 0 226.77 226.77" xml:space="preserve">
<g>
	<path fill="#FCE4DB" d="M150.583,66.874c-0.139,0-0.273,0.014-0.41,0.021c-2.758-19.268-19.321-34.082-39.352-34.082
		c-20.062,0-36.645,14.861-39.362,34.175c-0.431-0.068-0.868-0.113-1.317-0.113c-4.635,0-8.393,3.758-8.393,8.393
		c0,4.637,3.758,8.395,8.393,8.395c0.834,0,1.637-0.126,2.396-0.352c3.555,12.702,13.257,22.832,25.695,26.983v14.605h28.493
		v-15.875c10.769-4.709,19.047-14.052,22.319-25.508c0.5,0.092,1.012,0.146,1.537,0.146c4.635,0,8.393-3.758,8.393-8.395
		C158.976,70.632,155.218,66.874,150.583,66.874z"/>
	<path fill="#E4142E" d="M119.479,184.75v10.571l3.478-2.348l3.478,2.348V184C126.434,184,122.875,184,119.479,184.75z"/>
	<g>
		<circle fill="#F2A489" cx="87.588" cy="89.773" r="8.393"/>
	</g>
	<g>
		<path fill="#575756" d="M90.417,71.164c4.211,0,7.393,3.084,7.535,3.225c0.59,0.58,0.598,1.531,0.016,2.121
			c-0.58,0.588-1.527,0.596-2.117,0.02l0,0c-0.028-0.027-2.82-2.723-6.082-2.328c-2.102,0.25-4.037,1.752-5.752,4.467
			c-0.443,0.701-1.369,0.906-2.07,0.467c-0.699-0.443-0.908-1.369-0.467-2.068c2.229-3.529,4.908-5.496,7.965-5.848
			C89.775,71.182,90.099,71.164,90.417,71.164z"/>
	</g>
	<g>
		<path fill="#575756" d="M130.939,71.356c0.318,0,0.643,0.018,0.973,0.055c3.057,0.352,5.736,2.32,7.965,5.848
			c0.441,0.699,0.232,1.625-0.467,2.068c-0.703,0.441-1.628,0.232-2.07-0.467c-1.719-2.723-3.661-4.227-5.771-4.469
			c-3.228-0.371-6.031,2.299-6.059,2.326c-0.59,0.582-1.54,0.574-2.121-0.016c-0.582-0.59-0.575-1.541,0.016-2.121
			C123.546,74.44,126.728,71.356,130.939,71.356z"/>
	</g>
	<g>
		<path fill="#575756" d="M115.924,91.452h-11.212V71.497c0-0.828,0.672-1.5,1.5-1.5s1.5,0.672,1.5,1.5v16.955h8.212
			c0.829,0,1.5,0.672,1.5,1.5S116.753,91.452,115.924,91.452z"/>
	</g>
	<g>
		<path fill="#F29100" d="M148.064,54.209c0,0-11.686-22.139-32.14-22.73C90.639,30.744,81.187,43.34,74.073,55.27
			c0,0-5.672,8.817,0,17.587c1.781,2.754,1.911,2.602,1.911,2.602l4.218-19.591c6.143,0.582,15.667,1.438,22.671,1.848
			c1.082,0.064,5.467-2.449,6.602-2.818c-0.442,1.26-0.949,1.658-1.557,3.041c2.097,0.045,3.519-0.014,3.875-0.225
			c2.004-1.186,7.861-3.504,7.861-3.504l1.45,3.742l19.598-2.721l5.123,20.036c0,0,0.458,0.344,2.239-2.41
			C153.736,64.087,148.064,54.209,148.064,54.209z"/>
	</g>
	<g>
		<circle fill="#F2A489" cx="134.619" cy="89.773" r="8.393"/>
	</g>
	<path fill="#00A070" d="M165.256,154.459v-32.233l-38.598-10.857c0,0,1.189,3.237-9.248,7.409s-19.238-5.4-19.238-5.4
		l-33.89,12.828l1.507,25.808l1.5,9.916h97.999L165.256,154.459z"/>
	<ellipse fill="#FFFDF1" cx="112.481" cy="102.297" rx="3.638" ry="4.576"/>
	<path fill="#E6E6E6" d="M67.356,136.414c0,0,22.414-2.628,31.601-0.158c9.187,2.469,11.227,6.773,11.227,6.773s1.163,0.284,1.638,0
		c2.623-1.576,6.026-7.455,20.349-8.115c10.843-0.5,24.801,5.266,24.801,5.266l-2.092,52.901c0,0-10.803-7.027-22.709-8.267
		c-11.906-1.241-21.986,4.737-21.986,4.737s-7.644-7.511-18.19-6.817c-10.548,0.694-18.066,7.235-18.066,7.235L67.356,136.414z"/>
	<path fill="#1D3765" d="M111.266,143.03l0.555,46.522c1.901-0.782,10.242-4.909,20.828-3.806
		c11.906,1.239,18.176,8.268,18.176,8.268l2.247-53.996c0,0-10.3-3.395-20.423-3.749
		C124.273,135.977,114.126,141.332,111.266,143.03z"/>
	<path fill="#1D3765" d="M110.727,143.029l-0.555,46.522c-1.901-0.782-10.242-4.909-20.828-3.806
		c-11.906,1.239-18.176,8.268-18.176,8.268l-2.247-53.996c0,0,10.3-3.395,20.423-3.749
		C97.72,135.976,107.866,141.331,110.727,143.029z"/>
	<path fill="#FFFFFF" d="M111.266,143.03c0.555,0,9.315-10.803,23.94-10.74c14.188,0.061,19.864,3.968,19.864,3.968v3.194
		c0,0-10.475-3.284-19.954-4.43S111.266,143.03,111.266,143.03z"/>
	<path fill="#FFFFFF" d="M110.727,143.029c-0.555,0-8.514-10.802-23.139-10.739c-14.188,0.061-17.623,1-17.623,1v3.359
		c0,0,8.074-1.449,17.623-1.449C97.588,135.199,110.727,143.029,110.727,143.029z"/>
	<rect x="110.183" y="142.696" fill="#315186" width="1.638" height="46.856"/>
	<path fill="#FCE4DB" d="M67.898,173.639c0,0-8.218-7.154-2.438-19.279c0,0-3.487-7.505-0.76-8.645
		c2.73-1.138,4.973,1.536,5.096,2.935c0.075,0.865,0.234,2.681,0.346,3.943c3.602-1.25,8.076-2.517,8.764-1.374
		c1.175,1.953,0.588,3.586-0.461,4.307c-1.244,0.856-2.787,1.583-2.787,1.583s5.071-0.343,5.551,1.289
		c0.478,1.632,0.357,3.462-1.59,3.801c-1.04,0.18-2.527,0.938-2.527,0.938s3.95-0.05,4.146,1.495
		c0.317,2.499-0.349,3.477-4.882,5.214c-0.026,0.01-0.053,0.021-0.081,0.033c0.678,0.283,1.174,0.648,1.216,1.121
		c0.146,1.672-0.577,1.757-3.642,2.663C71.075,174.484,67.898,173.639,67.898,173.639z"/>
	<path fill="#FCE4DB" d="M156.557,174.806c0,0,8.218-7.154,2.438-19.279c0,0,3.487-7.505,0.76-8.645
		c-2.73-1.138-4.973,1.536-5.096,2.935c-0.075,0.865-0.234,2.681-0.346,3.943c-3.602-1.25-8.076-2.517-8.764-1.374
		c-1.175,1.953-0.588,3.586,0.461,4.307c1.244,0.856,2.787,1.583,2.787,1.583s-5.071-0.343-5.551,1.289
		c-0.478,1.632-0.357,3.462,1.59,3.801c1.04,0.18,2.527,0.938,2.527,0.938s-3.95-0.05-4.146,1.495
		c-0.317,2.499,0.349,3.477,4.882,5.214c0.026,0.01,0.053,0.021,0.081,0.033c-0.678,0.283-1.174,0.648-1.216,1.121
		c-0.146,1.672,0.577,1.757,3.642,2.663C153.379,175.651,156.557,174.806,156.557,174.806z"/>
</g>
</svg>
