<?xml version="1.0" encoding="utf-8"?>
<!-- Generator: Adobe Illustrator 16.0.0, SVG Export Plug-In . SVG Version: 6.00 Build 0)  -->
<!DOCTYPE svg PUBLIC "-//W3C//DTD SVG 1.1//EN" "http://www.w3.org/Graphics/SVG/1.1/DTD/svg11.dtd">
<svg version="1.1" id="Layer_1" xmlns="http://www.w3.org/2000/svg" xmlns:xlink="http://www.w3.org/1999/xlink" x="0px" y="0px"
	 width="226.77px" height="226.77px" viewBox="0 0 226.77 226.77" enable-background="new 0 0 226.77 226.77" xml:space="preserve">
<g>
	<g>
		<g>
			<polygon fill="#BCCFA8" points="32.981,63.324 84.956,42.748 120.404,148.463 67.096,165.266 			"/>
		</g>
		<g>
			<path fill="#00A070" d="M74.838,96.123c0.568-0.208,1.17-0.377,1.806-0.504c0.364-0.088,0.636-0.146,0.813-0.171l0.467-0.112
				l0.455-0.061c0.055-0.006,0.303-0.036,0.742-0.094c0.44-0.057,0.778-0.093,1.015-0.109c0.055-0.005,0.136-0.013,0.242-0.021
				c0.106-0.01,0.187-0.017,0.241-0.021c0.577-0.034,1.119,0,1.626,0.104c0.648,0.061,1.233,0.243,1.755,0.543
				c0.329,0.202,0.594,0.42,0.794,0.653c0.177,0.166,0.292,0.295,0.346,0.386c0.144,0.231,0.225,0.369,0.243,0.412l0.05,0.108
				l0.05,0.108c0.057,0.034,0.096,0.097,0.117,0.188c0.006,0.022,0.018,0.054,0.034,0.094c0.019,0.04,0.03,0.071,0.035,0.095
				c0.095-0.007,0.222-0.03,0.382-0.068c0.015-0.003,0.028-0.01,0.042-0.021c0.013-0.012,0.027-0.019,0.043-0.022l-0.034-0.04
				l0.054,0.023c0.034,0.008,0.058,0.006,0.071-0.005l-0.119,0.052l-0.012,0.003c0.303-0.039,0.537-0.088,0.7-0.143
				c-0.073,0.033-0.014,0.027,0.176-0.019c-0.099,0.023-0.153,0.045-0.165,0.063l0.33-0.079l0.045-0.011
				c0.006,0.023-0.012,0.032-0.054,0.025c-0.018-0.004-0.029-0.005-0.036-0.004c0.007,0.031,0.041,0.039,0.102,0.024
				c-0.061,0.015-0.057,0.018,0.014,0.009c0.032,0.001,0.06-0.003,0.083-0.008l-0.083,0.057c0.002,0.007,0.01,0.009,0.025,0.005
				c-0.061,0.015-0.086,0.046-0.075,0.091c0.002,0.008,0.018,0.017,0.048,0.024c0.03,0.009,0.044,0.021,0.039,0.039l0.066-0.028
				c0.044-0.019,0.084-0.031,0.123-0.04c-0.012,0.018-0.045,0.034-0.098,0.047c0.062,0.025,0.096,0.049,0.102,0.07l0.028,0.018
				l0.04-0.034c0.034,0.01,0.025,0.023-0.026,0.043c-0.021,0.013-0.042,0.022-0.065,0.028c0.004,0.016,0.055,0.01,0.154-0.014
				l-0.115,0.027l0.137-0.032c0.008,0.03-0.026,0.055-0.103,0.073c-0.015,0.003-0.029,0.011-0.042,0.022l0.048-0.001
				c0.001,0.008-0.007,0.015-0.026,0.02c-0.019,0.004-0.027,0.01-0.025,0.018c0.022-0.005,0.031-0.003,0.025,0.006
				c0.018,0.004,0.029,0.005,0.037,0.004l-0.057,0.014c-0.012,0.019-0.002,0.027,0.03,0.028c0.078-0.011,0.12-0.017,0.128-0.019
				l-0.148,0.035c-0.015,0.004-0.023,0.008-0.026,0.014c-0.003,0.003-0.004,0.01-0.002,0.018c0.012,0.014,0.01,0.021-0.006,0.025
				c0.002,0.008,0.011,0.01,0.026,0.006c0.015-0.004,0.023-0.002,0.024,0.006l-0.04,0.034c0.018,0.004,0.049,0.001,0.095-0.011
				l-0.012,0.003c-0.028,0.015-0.054,0.024-0.077,0.03l0.193-0.047l-0.217,0.052c-0.02,0.014-0.035,0.053-0.043,0.119l0.171-0.041
				l-0.017-0.068c0.028,0.019,0.033,0.04,0.017,0.068l0.068-0.017c-0.024-0.001-0.05,0.012-0.074,0.043
				c-0.025,0.029-0.036,0.059-0.034,0.086c0.003,0.027,0.018,0.046,0.044,0.057l0.103-0.025c-0.02,0.021-0.052,0.036-0.098,0.047
				c0.035,0.009,0.086,0.004,0.154-0.013c0.007,0.031-0.005,0.05-0.035,0.057l0.068-0.016l-0.091,0.021
				c0.004,0.016,0.074,0.007,0.21-0.025c-0.189,0.045-0.279,0.091-0.268,0.136l-0.046,0.012c-0.022,0.005-0.039,0.021-0.049,0.048
				c-0.01,0.025-0.018,0.043-0.023,0.053c0.047,0.029,0.013,0.086-0.104,0.169c0.002,0.008-0.004,0.013-0.02,0.017
				c-0.006,0.01-0.013,0.016-0.02,0.017c0.067,0.017,0.132,0.017,0.192,0.002c-0.032,0.032-0.116,0.064-0.253,0.097
				c-0.137,0.033-0.226,0.066-0.266,0.1c-0.425,0.102-0.704,0.177-0.837,0.226l0.022-0.006l-0.296,0.07
				c-0.064,0.369-0.101,0.566-0.11,0.593c-0.059,0.262-0.183,0.597-0.374,1.005c0.046-0.012,0.104-0.117,0.177-0.319
				c0.023-0.069,0.046-0.126,0.068-0.167c0.021-0.042,0.038-0.061,0.047-0.054c-0.018,0.027-0.05,0.095-0.097,0.197
				c-0.048,0.104-0.082,0.179-0.104,0.224c-0.023,0.038-0.056,0.097-0.097,0.174c-0.041,0.078-0.081,0.146-0.12,0.203
				c-0.038,0.058-0.072,0.106-0.104,0.146c0.004,0.015,0.012,0.013,0.022-0.006c0.012-0.02,0.03-0.051,0.055-0.098
				c0.025-0.045,0.051-0.083,0.076-0.113c-0.094,0.214-0.257,0.454-0.49,0.719c0.002,0.008,0.006,0.007,0.011-0.003
				c0.006-0.01,0.015-0.021,0.027-0.036c0.013-0.016,0.026-0.028,0.039-0.04c-0.006,0.042-0.093,0.131-0.261,0.268
				c0.02-0.021,0.077-0.096,0.175-0.223c0.099-0.128,0.196-0.256,0.294-0.383c-0.203,0.225-0.464,0.476-0.783,0.753
				c0.02-0.021,0.064-0.067,0.135-0.141c0.071-0.073,0.142-0.146,0.213-0.22c0.07-0.073,0.134-0.145,0.189-0.215
				c0.277-0.313,0.506-0.666,0.687-1.054c-0.04,0.033-0.066,0.075-0.078,0.127c-0.002-0.008,0.006-0.028,0.021-0.06
				c0.017-0.032,0.034-0.068,0.053-0.109c0.019-0.04,0.033-0.069,0.045-0.089c0.036-0.081,0.033-0.129-0.01-0.142
				c-0.165,0.489-0.461,0.976-0.89,1.465c-0.375,0.411-0.757,0.728-1.146,0.947c0.031-0.038,0.07-0.074,0.119-0.107
				c0.048-0.029,0.114-0.073,0.197-0.129c0.083-0.057,0.157-0.112,0.225-0.169c-0.072,0.033-0.122,0.062-0.148,0.084
				c0.425-0.303,0.795-0.668,1.109-1.098c-0.237,0.282-0.515,0.562-0.835,0.839c-0.093,0.078-0.34,0.271-0.74,0.574
				c0.066-0.057,0.121-0.097,0.162-0.124c-0.208,0.203-0.471,0.342-0.79,0.418c0.194-0.095,0.349-0.172,0.462-0.231
				c-0.076,0.019-0.211,0.076-0.404,0.17c0.047-0.035,0.038-0.041-0.028-0.018c-0.008,0.002-0.089,0.03-0.245,0.083
				c-0.193,0.095-0.39,0.165-0.587,0.213l0.068-0.017c0.073-0.025,0.119-0.036,0.137-0.033c-0.002-0.007,0.018-0.016,0.06-0.025
				s0.105-0.029,0.19-0.058c0.086-0.029,0.167-0.064,0.245-0.107l-0.137,0.081l-0.012,0.003l0.114-0.027
				c-0.384,0.141-0.697,0.239-0.94,0.297c0.076-0.018,0.126-0.046,0.149-0.084c-0.547,0.099-0.833,0.091-0.86-0.022
				c0.325,0.019,0.603-0.012,0.833-0.091c0.013-0.011-0.001-0.021-0.043-0.025c-0.117-0.021-0.267-0.009-0.448,0.035l0.088-0.034
				l0.045-0.011l-0.07,0.005l0.285-0.068c-0.088,0.039-0.097,0.053-0.026,0.043c0.079-0.002,0.169-0.028,0.271-0.076
				c-0.129-0.002-0.265,0.016-0.409,0.05l0.073-0.041l0.029-0.032c0.061-0.015,0.121-0.021,0.182-0.019
				c0.062,0.001,0.121-0.005,0.183-0.02c0.05-0.028,0.05-0.04,0.003-0.037l-0.165,0.016c-0.01-0.006,0.003-0.021,0.038-0.045
				c0.004,0.015-0.012,0.026-0.046,0.034c-0.034,0.009-0.071,0.014-0.111,0.015l-0.071,0.006c0.012-0.02-0.061-0.021-0.219-0.009
				c-0.037,0.009-0.08,0.016-0.127,0.02c-0.018-0.005-0.021-0.024-0.014-0.058c0.006-0.01,0.001-0.012-0.015-0.009
				c-0.015,0.004-0.034,0.009-0.057,0.014c-0.062,0.007-0.062-0.002,0.006-0.025c0.08-0.035,0.148-0.052,0.205-0.05
				c-0.055,0.005-0.12,0.003-0.194-0.007c-0.075-0.011-0.137-0.018-0.187-0.022c-0.003-0.015,0.063-0.039,0.2-0.071
				c-0.048-0.029-0.114-0.041-0.201-0.037c0.061-0.015,0.121-0.036,0.182-0.067c0.062-0.03,0.122-0.053,0.183-0.067
				c-0.079,0.003-0.184,0.02-0.312,0.051c0.081-0.027,0.074-0.042-0.022-0.043l-0.086-0.004c-0.174,0.042-0.311,0.059-0.408,0.051
				c-0.018-0.005-0.014-0.006,0.011-0.003c0.008-0.002,0.019-0.005,0.034-0.009c0.158-0.014,0.237-0.033,0.238-0.057
				c-0.016-0.005-0.063-0.001-0.142,0.009c-0.077,0.012-0.128,0.016-0.153,0.013c0.014-0.011,0.043-0.022,0.089-0.033
				s0.085-0.021,0.12-0.028c0.033-0.008,0.049-0.017,0.048-0.023c-0.081-0.005-0.175-0.036-0.282-0.096
				c-0.105-0.058-0.248-0.077-0.429-0.058c-0.015,0.003-0.024-0.003-0.028-0.019c-0.014-0.021-0.039-0.03-0.079-0.028
				c0.015-0.004,0.067-0.013,0.156-0.026c0.089-0.013,0.142-0.021,0.156-0.024c-0.007-0.03-0.068-0.032-0.182-0.006
				c0.014-0.011,0.054-0.019,0.12-0.022c0.067-0.004,0.109-0.007,0.124-0.011c0.106-0.025,0.166-0.048,0.178-0.067
				c0.394-0.062,0.634-0.135,0.718-0.219c-0.008-0.031-0.083-0.029-0.228,0.006c-0.016,0.003-0.025,0.01-0.032,0.02
				c-0.013,0.011-0.007,0.018,0.018,0.02c0.01,0.006,0.018,0.009,0.025,0.007c-0.055,0.037-0.127,0.037-0.216,0.003
				c-0.036-0.017-0.032-0.032,0.012-0.052c-0.053,0.013-0.107,0.021-0.162,0.026c-0.055,0.006-0.104,0.014-0.151,0.025
				c0.003-0.025,0.01-0.037,0.022-0.035c0.013,0.001,0.045,0.002,0.098,0.006c0.054,0.003,0.103,0,0.147-0.011
				c-0.055,0.004-0.086,0.005-0.097-0.001c-0.022,0.005-0.019,0,0.009-0.015c0.016-0.004,0.034-0.008,0.058-0.014
				c0.075-0.019,0.128-0.035,0.156-0.05c-0.004-0.015-0.024-0.026-0.062-0.032c-0.038-0.008-0.03-0.021,0.021-0.041
				c-0.017-0.005-0.044-0.002-0.082,0.007s-0.068,0.017-0.091,0.021c-0.023,0.006-0.036,0.005-0.038-0.003l0.695-0.166
				c-0.01-0.006-0.025-0.006-0.049,0c0.06-0.022,0.097-0.035,0.111-0.039l-0.002-0.012c-0.018-0.004-0.041-0.002-0.071,0.006
				c0.023-0.038,0.08-0.068,0.171-0.09c-0.017-0.004-0.041-0.003-0.07,0.005c-0.031,0.007-0.058,0.012-0.082,0.014
				c-0.023,0.002-0.037-0.005-0.041-0.021l0.376-0.09c0.114-0.027,0.237-0.064,0.37-0.113c-0.095,0.04-0.141,0.066-0.137,0.082
				c0.137-0.065,0.318-0.181,0.543-0.347c0.034-0.025,0.104-0.08,0.207-0.165c0.104-0.084,0.192-0.159,0.266-0.225l0.12-0.102
				c0.028-0.047,0.047-0.081,0.054-0.103c0.007-0.022,0.001-0.038-0.019-0.051c0.083-0.06,0.155-0.122,0.22-0.19
				s0.099-0.106,0.104-0.116c0.012-0.019,0.025-0.062,0.041-0.13c-0.119,0.036-0.395,0.108-0.827,0.216
				c-0.432,0.107-0.729,0.189-0.893,0.244l-0.006-0.022c-0.071,0.033-0.199,0.071-0.381,0.115c0.079-0.035,0.232-0.082,0.459-0.141
				c0.228-0.059,0.37-0.099,0.429-0.12c-0.077,0.011-0.203,0.036-0.378,0.078s-0.297,0.067-0.367,0.075l0.535-0.128l-0.819,0.196
				l0.262-0.062c-0.026,0.022-0.098,0.048-0.211,0.075c-0.52,0.107-1.216,0.282-2.089,0.523l-0.137,0.033
				c-0.173,0.05-0.36,0.099-0.562,0.146s-0.423,0.099-0.667,0.153s-0.426,0.096-0.548,0.125l0.022-0.006
				c-0.22,0.053-0.374,0.098-0.461,0.135c0.003,0.016,0.028,0.012,0.075-0.012c0.047-0.022,0.071-0.031,0.073-0.023
				c-0.008,0.001-0.028,0.01-0.061,0.026c-0.032,0.016-0.065,0.028-0.1,0.036s-0.068,0.008-0.103,0
				c0.007,0.031,0.033,0.04,0.079,0.029c-0.021,0.014-0.053,0.025-0.094,0.035s-0.076,0.022-0.105,0.036
				c0.004,0.016,0.014,0.021,0.028,0.019c-0.034-0.009-0.057-0.003-0.068,0.016c0.023-0.037,0.072-0.065,0.148-0.084
				c-0.065-0.04-0.157-0.034-0.272,0.018c0.026-0.022,0.191-0.07,0.495-0.143c-0.011-0.014-0.032-0.017-0.062-0.009
				c0.042,0.005,0.07,0.007,0.085,0.003c0.012-0.02,0.016-0.035,0.013-0.051c-0.084,0.02-0.208,0.056-0.372,0.107
				c-0.164,0.051-0.289,0.082-0.375,0.096l0.16-0.038c-0.004-0.016-0.028-0.019-0.074-0.008l0.148-0.035l-0.239,0.058l0.022-0.006
				c-0.062,0.04-0.131,0.057-0.204,0.049c-0.235,0.057-0.552,0.137-0.948,0.239c-0.396,0.104-0.664,0.171-0.8,0.204
				c-0.074,0.025-0.161,0.05-0.26,0.073c-0.098,0.023-0.207,0.048-0.325,0.073c-0.119,0.023-0.205,0.043-0.258,0.055
				c0.15-0.044,0.461-0.122,0.931-0.234c0.472-0.113,0.812-0.198,1.022-0.257c-0.346,0.066-0.875,0.185-1.588,0.355l1.093-0.261
				c-0.163,0.022-0.444,0.082-0.843,0.178c-0.398,0.095-0.701,0.159-0.91,0.192c0.041,0.007,0.133-0.007,0.272-0.04
				c0.141-0.033,0.239-0.05,0.296-0.047c-0.159,0.07-0.338,0.112-0.535,0.128l-1.582,0.379l-0.074,0.041l-0.365,0.087
				c-0.011,0.02-0.02,0.052-0.024,0.098c-0.005,0.045-0.007,0.071-0.005,0.079c-0.015-0.061-0.02-0.116-0.016-0.165l0.012,0.299
				c0,0.031-0.006,0.117-0.017,0.257c-0.011,0.139-0.017,0.244-0.015,0.316c-0.027,0.157-0.133,0.505-0.317,1.038
				c-0.274,0.564-0.688,1.097-1.243,1.598c-0.941,0.826-2.024,1.283-3.248,1.367c0.061-0.016,0.109-0.018,0.143-0.01
				c-0.483,0.059-0.934,0.021-1.351-0.109c-0.327-0.092-0.573-0.182-0.738-0.27c-0.253-0.115-0.486-0.27-0.699-0.459
				c-0.414-0.287-0.773-0.697-1.079-1.235c-0.098-0.209-0.185-0.421-0.26-0.636l-0.387,0.093l0.021-0.006
				c-0.25,0.061-0.419,0.108-0.506,0.146c0.019,0.012,0.039,0.013,0.061,0.004c0.021-0.01,0.039-0.02,0.053-0.031
				c0.014-0.011,0.021-0.013,0.023-0.006c-0.008,0.002-0.025,0.011-0.055,0.025c-0.028,0.015-0.058,0.026-0.088,0.034
				c-0.03,0.007-0.062,0.006-0.097-0.002c0.007,0.031,0.037,0.039,0.09,0.026c-0.013,0.012-0.044,0.023-0.093,0.035
				c-0.05,0.012-0.089,0.025-0.117,0.039c0.019,0.013,0.035,0.017,0.051,0.013l-0.113,0.027c0.083-0.052,0.148-0.084,0.193-0.095
				c-0.102-0.024-0.197-0.017-0.284,0.02c0.026-0.022,0.188-0.069,0.483-0.14c-0.007,0.002-0.016,0-0.024-0.007
				c-0.01-0.005-0.019-0.007-0.026-0.005c0.008-0.002,0.021-0.001,0.037,0.003c0.018,0.004,0.029,0.005,0.037,0.003
				c0.026-0.022,0.038-0.041,0.034-0.057c-0.091,0.021-0.22,0.059-0.388,0.111c-0.169,0.053-0.303,0.086-0.403,0.103l0.171-0.04
				l-0.028-0.019l0.364-0.087c-0.218,0.028-0.389,0.069-0.512,0.122l0.022-0.005c-0.012,0.02-0.031,0.032-0.058,0.038
				c-0.026,0.007-0.056,0.01-0.088,0.009c-0.032,0-0.052,0-0.06,0.002l0.137-0.033c-0.034-0.007-0.074-0.006-0.119,0.006
				c0.011-0.02-0.003-0.027-0.043-0.026c-0.081-0.005-0.158,0.01-0.229,0.043c0.003,0.016,0.011,0.021,0.021,0.019
				c0.012-0.002,0.025-0.006,0.041-0.009c0.015-0.004,0.031-0.001,0.05,0.011c0.009-0.033,0.05-0.061,0.126-0.078
				c0.008,0.03-0.012,0.052-0.058,0.062l0.023-0.006l-0.239,0.058c0.016-0.004,0.018-0.028,0.006-0.074
				c-0.16-0.002-0.247-0.028-0.26-0.082c0.008-0.002,0.039,0.007,0.096,0.025s0.108,0.021,0.153,0.011
				c0.007-0.008,0.004-0.02-0.008-0.034c-0.011-0.012-0.029-0.022-0.056-0.029c-0.025-0.005-0.057-0.004-0.095,0.006
				c-0.011-0.013-0.005-0.021,0.018-0.027l0.091-0.021c-0.019,0.02-0.002,0.023,0.051,0.011c-0.021-0.026-0.056-0.034-0.102-0.023
				c0.016-0.004,0.021-0.012,0.019-0.022c-0.003-0.012,0.003-0.019,0.019-0.022s0.033,0,0.052,0.013
				c0.019,0.011,0.04,0.018,0.065,0.021c0.013-0.012,0.007-0.019-0.018-0.021l-0.054-0.022l-0.056-0.034
				c-0.008-0.031-0.05-0.037-0.126-0.019c-0.001-0.008-0.001-0.021,0.003-0.037l-0.014-0.009c-0.03,0.007-0.037-0.003-0.02-0.031
				s0.035-0.037,0.055-0.025c-0.038-0.023-0.082-0.037-0.131-0.042c0.027-0.021,0.048-0.035,0.062-0.038
				c-0.007-0.03-0.02-0.051-0.039-0.063c0.008-0.002,0.021-0.009,0.037-0.021c0.018-0.012,0.034-0.02,0.049-0.023
				c-0.019-0.012-0.051-0.013-0.097-0.002c0.021-0.012,0.02-0.02-0.005-0.022c-0.034-0.007-0.053-0.02-0.057-0.035l-0.092,0.022
				c-0.016-0.004-0.014-0.008,0.01-0.014c0.036-0.018,0.053-0.029,0.051-0.037c-0.045,0.011-0.07,0.01-0.074-0.006
				c0.047-0.011,0.066-0.024,0.063-0.039c-0.034-0.009-0.067-0.032-0.102-0.072s-0.08-0.054-0.142-0.039
				c-0.002-0.007-0.026-0.025-0.072-0.055l0.125-0.03c-0.004-0.015-0.028-0.017-0.074-0.006l0.068-0.017l-0.022,0.006l0.045-0.011
				l0.04-0.033l0.022-0.006c0.013-0.019,0.033-0.032,0.063-0.04c0.076-0.018,0.119-0.035,0.131-0.054
				c-0.007-0.03-0.033-0.04-0.079-0.029c0.009,0.038-0.011,0.038-0.06,0.003c-0.019-0.013-0.025-0.023-0.02-0.032l-0.092,0.022
				c-0.001-0.008,0.003-0.011,0.011-0.009c0.009,0.002,0.021,0.002,0.037,0.003c0.016,0,0.03-0.006,0.044-0.017
				c-0.026-0.01-0.014-0.025,0.037-0.045l-0.042-0.025c-0.019-0.013-0.01-0.026,0.026-0.043c-0.018-0.004-0.037,0.001-0.057,0.014
				c-0.007,0.009-0.012,0.013-0.017,0.009c-0.005-0.003-0.005-0.012-0.001-0.029l0.228-0.055l-0.011,0.003l0.034-0.008l0.009-0.014
				c-0.002-0.008-0.015-0.009-0.037-0.004c0.012-0.02,0.036-0.033,0.074-0.042c-0.01-0.006-0.025-0.006-0.049,0
				c-0.022,0.005-0.035,0.004-0.037-0.004c0.025-0.029,0.072-0.043,0.142-0.04c0.068,0.005,0.119,0.002,0.149-0.005
				c-0.046,0.011-0.066,0.023-0.063,0.039c0.059-0.022,0.128-0.061,0.207-0.115c0.079-0.056,0.157-0.093,0.232-0.11l0.028,0.017
				l-0.006-0.022l0.046-0.011c0.046-0.011,0.067-0.024,0.063-0.039c0.125-0.014,0.25-0.044,0.375-0.09
				c-0.019-0.012-0.065-0.009-0.142,0.01c0.01-0.026,0.027-0.045,0.053-0.055c0.026-0.01,0.064-0.017,0.115-0.021
				c0.052-0.005,0.085-0.008,0.1-0.012c0.019,0.012,0.044,0.013,0.074,0.006l-0.028-0.017l0.729-0.175
				c0.014-0.645,0.121-1.289,0.32-1.93c-0.014,0.075-0.014,0.107-0.001,0.096l0.049-0.096c0.018-0.028,0.028-0.051,0.032-0.068
				c-0.002-0.008,0.072-0.182,0.224-0.523c-0.013,0.044-0.044,0.119-0.09,0.227c-0.008,0.034-0.024,0.078-0.047,0.132
				c-0.023,0.054-0.043,0.099-0.059,0.135c-0.015,0.036-0.021,0.061-0.018,0.076c0.049-0.132,0.143-0.327,0.281-0.585
				c0.089-0.165,0.2-0.356,0.333-0.573c0.017-0.028,0.028-0.041,0.032-0.038c0.005,0.003,0.002,0.014-0.011,0.032
				c0.024-0.037,0.049-0.067,0.075-0.09c0.01,0.006,0.002,0.026-0.021,0.06c-0.023,0.034-0.053,0.073-0.086,0.117
				c-0.034,0.044-0.057,0.076-0.068,0.095c0.004,0.016,0.016,0.007,0.036-0.026s0.049-0.074,0.085-0.123s0.063-0.084,0.083-0.104
				l-0.061,0.098l0.066-0.076c0.006-0.009,0.009-0.02,0.01-0.032c0.002-0.013,0.006-0.02,0.014-0.021l-0.034,0.009
				c-0.002-0.008,0.007-0.012,0.026-0.012c0.021-0.002,0.028-0.01,0.024-0.025c0.004,0.016,0,0.032-0.012,0.052
				c0.014-0.012,0.035-0.036,0.066-0.077c0.03-0.039,0.053-0.063,0.066-0.075c0.04-0.065,0.062-0.11,0.063-0.136
				c0.013,0.054,0.022,0.043,0.029-0.031c0.006-0.01,0.008-0.018,0.006-0.025c0.007-0.001,0.01,0.002,0.008,0.01
				c-0.002,0.009-0.005,0.021-0.009,0.038c-0.004,0.018-0.004,0.033,0,0.049l0.034-0.057l-0.012,0.052
				c0.008-0.002,0.021-0.022,0.04-0.059c0.02-0.037,0.026-0.062,0.023-0.078l0.022-0.005c-0.015,0.003-0.021,0.013-0.018,0.028
				l0.018-0.028c0.014,0.021,0.025,0.006,0.037-0.046c0.008-0.001,0.023,0.016,0.048,0.05c0.008,0.03,0.03,0.057,0.068,0.08
				c0.009,0.006,0.022,0.009,0.038,0.009s0.029,0.007,0.041,0.021c0.006-0.01,0.012-0.025,0.019-0.047
				c0.007-0.022,0.017-0.042,0.028-0.062l0.011,0.046c0.045-0.011,0.069-0.008,0.073,0.007l0.023-0.006l0.011-0.003l-0.017-0.02
				c0.022-0.005,0.036,0.002,0.041,0.021c0.004,0.02-0.004,0.035-0.024,0.048c0.034,0.009,0.062-0.007,0.085-0.044
				c-0.005,0.01-0.012,0.019-0.018,0.027c0.013-0.018,0.025-0.029,0.04-0.033c-0.011,0.019-0.016,0.036-0.012,0.051
				c0.008-0.002,0.02,0.012,0.034,0.04c-0.016,0.004-0.014,0.012,0.005,0.022c0.007-0.009,0.01-0.01,0.012-0.002
				s0.006,0.006,0.012-0.003l0.005,0.023c0.018,0.004,0.035-0.005,0.055-0.025l0.043-0.022c-0.012,0.019-0.016,0.036-0.012,0.051
				c-0.006,0.01-0.002,0.02,0.012,0.027c0.015,0.009,0.023,0.021,0.027,0.035c-0.022-0.026-0.026-0.042-0.012-0.045
				c0.004,0.016,0.012,0.028,0.021,0.037c0.01,0.01,0.017,0.019,0.019,0.025c0.046-0.075,0.054-0.077,0.022-0.006
				c0.026-0.021,0.044-0.05,0.052-0.084c0.004,0.016-0.003,0.035-0.022,0.06c-0.018,0.024-0.025,0.04-0.023,0.048
				c-0.006,0.01,0.018,0.041,0.07,0.092c0.029-0.007,0.037-0.045,0.021-0.113l-0.028-0.018c0.015-0.004,0.024,0.002,0.028,0.018
				c0.007-0.002,0.015-0.008,0.021-0.018c0.005-0.009,0.012-0.015,0.02-0.017c-0.014,0.012-0.014,0.03,0.001,0.055
				c0.014,0.024,0.036,0.047,0.064,0.069c0.028,0.021,0.052,0.029,0.066,0.026c0.008-0.002,0.014-0.012,0.017-0.029
				c0.004-0.017,0.011-0.026,0.018-0.028l-0.012,0.052c0.043,0.046,0.071,0.03,0.086-0.045l0.011,0.046
				c0.019,0.011,0.042-0.01,0.069-0.065c-0.047,0.075-0.041,0.131,0.015,0.165l0.021,0.091c0.08-0.003,0.134,0.053,0.161,0.166
				c0.009,0.006,0.018,0.006,0.023,0c0.007-0.006,0.019-0.015,0.036-0.026s0.033-0.02,0.049-0.023
				c0.009,0.038-0.007,0.09-0.047,0.155c-0.041,0.067-0.057,0.118-0.048,0.156c-0.109,0.179-0.176,0.32-0.199,0.422
				c-0.062,0.142-0.126,0.245-0.191,0.31c-0.016,0.036-0.041,0.088-0.077,0.157c-0.035,0.068-0.062,0.121-0.076,0.156l0.075-0.187
				c-0.058,0.095-0.1,0.152-0.126,0.175l-0.012,0.051c-0.138,0.298-0.209,0.52-0.215,0.665c-0.02,0.085-0.034,0.189-0.045,0.312
				l0.375-0.09c0.046-0.011,0.074-0.024,0.086-0.044l0.006,0.022l0.204-0.049l0.951-0.252l-0.022,0.006
				c0.129,0.001,0.271-0.017,0.427-0.054c0.155-0.037,0.33-0.087,0.523-0.15c0.194-0.062,0.344-0.105,0.45-0.131l-0.092,0.021
				l0.285-0.068l-0.015-0.009l0.055-0.024l0.205-0.049c-0.012,0.019-0.033,0.031-0.063,0.039l1.332-0.319
				c-0.001-0.008,0-0.02,0.003-0.036c0.005-0.018,0.006-0.029,0.004-0.037c0.008,0.03,0.006,0.055-0.007,0.073l0.092-0.021
				c0.003-0.153,0.054-0.462,0.151-0.928c0.059-0.223,0.197-0.567,0.413-1.037c0.149-0.316,0.351-0.616,0.603-0.902
				c0.416-0.478,0.863-0.873,1.341-1.187l0.006,0.022c0.229-0.185,0.63-0.421,1.202-0.71c-0.538,0.298-0.977,0.56-1.316,0.784
				c-0.092,0.055-0.339,0.245-0.741,0.575c-0.237,0.217-0.438,0.445-0.606,0.688c0.272-0.339,0.634-0.69,1.084-1.055
				c0.479-0.314,0.844-0.53,1.098-0.647c-0.703,0.417-1.222,0.785-1.554,1.105c0.674-0.571,1.493-1.087,2.458-1.552
				c-0.044,0.019-0.111,0.054-0.204,0.104c-0.093,0.051-0.2,0.108-0.325,0.174c-0.125,0.066-0.22,0.116-0.285,0.146
				c0.175-0.146,0.429-0.291,0.764-0.436c0.045-0.011,0.121-0.037,0.228-0.078c0.106-0.042,0.183-0.068,0.229-0.079l0.404-0.169
				c0.087-0.037,0.228-0.091,0.419-0.16C74.589,96.219,74.735,96.163,74.838,96.123z M59.925,104.375
				c-0.026,0.022-0.024,0.029,0.005,0.022l0.023-0.006l-0.006-0.022L59.925,104.375z M59.946,104.466l-0.022,0.005l0.068-0.017
				L59.946,104.466z M60.06,104.438l-0.092,0.021l0.097,0.001L60.06,104.438z M60.341,105.309c0.068,0.016,0.159,0.011,0.272-0.017
				c-0.024-0.003-0.067,0-0.13,0.007C60.421,105.307,60.373,105.31,60.341,105.309z M60.392,105.224
				c0.043,0.047,0.074,0.055,0.092,0.027l0.045-0.012c-0.023,0.006-0.049,0.005-0.08-0.004
				C60.42,105.227,60.4,105.222,60.392,105.224z M62.149,105.021c-0.013,0.011-0.044,0.022-0.094,0.034
				c-0.05,0.013-0.076,0.022-0.083,0.032c0.137-0.032,0.242-0.065,0.314-0.1l-0.046,0.011l-0.068,0.017l-0.046,0.011l0.046-0.011
				l-0.068,0.017l-0.103,0.024l-0.012,0.003l0.012-0.003l0.011-0.003l0.012-0.003l0.012-0.002L62.149,105.021z M62.287,104.988
				c0.019,0.012,0.051,0.013,0.096,0.002l-0.005-0.023L62.287,104.988z M64.443,104.497c0.004,0.015,0.021,0.019,0.051,0.012
				l-0.005-0.022L64.443,104.497z M68.826,103.894c0.014-0.044,0.068-0.198,0.166-0.462l-0.012-0.046l-0.068,0.016l-0.022,0.006
				l-0.022,0.006c0.017,0.068-0.003,0.121-0.059,0.158c0.003-0.024,0.012-0.055,0.027-0.09c0.015-0.036,0.025-0.06,0.031-0.068
				l-0.216,0.052c-0.092,0.021-0.158,0.046-0.2,0.072l0.046-0.011c-0.135,0.039-0.462,0.124-0.981,0.252
				c-0.518,0.128-0.879,0.225-1.08,0.288l-0.005-0.022c-0.058,0.03-0.173,0.065-0.348,0.107c0.059-0.021,0.18-0.059,0.364-0.111
				c0.185-0.052,0.317-0.092,0.398-0.119l-1.64,0.393l-0.648,0.155c0.075,0.214,0.205,0.389,0.39,0.521
				c0.09,0.106,0.239,0.211,0.448,0.312c0.018,0.004,0.063,0.018,0.142,0.038c0.077,0.022,0.129,0.035,0.153,0.036
				c0.114,0.045,0.208,0.066,0.28,0.066c0.432,0.024,0.849-0.059,1.252-0.253l-0.022,0.006c0.244-0.082,0.545-0.271,0.899-0.564
				c0.207-0.21,0.348-0.375,0.423-0.498c0.065-0.096,0.156-0.267,0.274-0.512c0.021,0.084-0.035,0.206-0.166,0.365
				c0.043-0.025,0.088-0.094,0.139-0.201c0.051-0.109,0.088-0.178,0.113-0.208c-0.146,0.332-0.284,0.574-0.416,0.726
				c-0.179,0.26-0.401,0.469-0.669,0.63c-0.59,0.382-1.157,0.558-1.703,0.527c-0.113,0.027-0.232,0.031-0.357,0.013
				c-0.047-0.027-0.122-0.055-0.224-0.078c-0.067-0.016-0.14-0.047-0.215-0.094c-0.312-0.165-0.56-0.411-0.742-0.736
				c-0.004-0.016,0.002-0.013,0.014,0.009c0.012,0.013,0.026,0.041,0.045,0.085c0.014,0.021,0.021,0.035,0.022,0.043
				c0.09,0.107,0.145,0.166,0.163,0.178c-0.015-0.028-0.056-0.089-0.121-0.181c-0.067-0.093-0.115-0.168-0.145-0.226l-0.046,0.012
				c0.07,0.159,0.198,0.358,0.383,0.595c0.038,0.022,0.095,0.061,0.172,0.114c0.077,0.055,0.14,0.096,0.187,0.124
				c0.097,0.034,0.16,0.066,0.192,0.099c0.079,0.029,0.161,0.055,0.246,0.073c0.285,0.085,0.61,0.092,0.974,0.021
				c0.364-0.071,0.706-0.213,1.024-0.426c0.071-0.033,0.101-0.045,0.088-0.033l-0.261,0.171c0.076-0.019,0.143-0.058,0.2-0.12
				c0.029-0.015,0.063-0.04,0.104-0.073l0.051-0.036l-0.011,0.003c0.209-0.131,0.428-0.323,0.656-0.579
				c0.222-0.244,0.348-0.439,0.377-0.583C68.862,103.829,68.847,103.848,68.826,103.894z M65.487,105.487l0.164,0.033
				c-0.017-0.005-0.048-0.017-0.093-0.039c-0.046-0.021-0.089-0.034-0.13-0.041c-0.032,0.001-0.083-0.017-0.15-0.048
				c-0.067-0.032-0.106-0.051-0.116-0.057c-0.207-0.127-0.329-0.222-0.369-0.284c0.064,0.097,0.196,0.197,0.397,0.301
				C65.222,105.385,65.321,105.429,65.487,105.487z M65.813,102.424l-0.559,0.133l0.49-0.117L65.813,102.424z M68.128,104.65
				c0.16-0.103,0.293-0.267,0.399-0.492c-0.024,0.03-0.094,0.108-0.208,0.235C68.205,104.521,68.141,104.606,68.128,104.65z
				 M69.111,101.164c-0.03,0.209-0.05,0.362-0.059,0.46l0.022-0.005c0.001-0.064,0.008-0.145,0.021-0.239
				C69.109,101.283,69.115,101.212,69.111,101.164z M71.369,101.094l0.04-0.033l-0.045,0.011L71.369,101.094z M77.185,97.68
				c-0.08,0.002-0.154,0.012-0.223,0.028c-0.068,0.016-0.156,0.041-0.265,0.075s-0.212,0.063-0.311,0.087
				c0.048-0.003,0.118-0.017,0.214-0.04c0.095-0.022,0.15-0.032,0.168-0.027c-0.099,0.023-0.191,0.054-0.279,0.091l0.04-0.033
				c-0.228,0.054-0.527,0.143-0.899,0.264c-0.097,0.031-0.23,0.083-0.402,0.156c-0.171,0.072-0.297,0.123-0.379,0.15l-0.41,0.146
				c-0.113,0.067-0.238,0.129-0.377,0.188c-0.234,0.095-0.511,0.246-0.831,0.45c-0.004-0.015-0.003-0.027,0.003-0.036
				c0.006-0.01,0.014-0.018,0.024-0.023c0.011-0.007,0.019-0.016,0.024-0.023c-0.645,0.321-1.125,0.681-1.439,1.077
				c-0.205,0.25-0.35,0.532-0.435,0.851l0.035-0.057c-0.012,0.019-0.016,0.036-0.012,0.051l2.112-0.529l-0.046,0.011
				c0.276-0.051,0.585-0.116,0.922-0.196c0.338-0.081,0.718-0.176,1.142-0.286c0.424-0.108,0.753-0.191,0.988-0.247l-0.061,0.002
				c-0.031-0.001-0.066,0.003-0.105,0.013c0.082-0.027,0.198-0.053,0.35-0.077c0.15-0.024,0.252-0.042,0.306-0.055l-0.003-0.012
				c0.062-0.007,0.069-0.013,0.02-0.018l0.467-0.111l-0.159,0.038c0.428-0.095,1.097-0.25,2.007-0.468
				c0.911-0.219,1.55-0.367,1.916-0.446l-0.092,0.021c0.246-0.075,0.716-0.179,1.406-0.312l-0.046,0.011l0.273-0.065
				c0.005-0.009,0.011-0.018,0.018-0.027l0.193-0.047c0.003,0.015-0.01,0.026-0.04,0.034l0.512-0.123
				c-0.072-0.104-0.123-0.183-0.153-0.24c-0.002-0.008-0.069-0.072-0.202-0.191c-0.138-0.104-0.327-0.207-0.568-0.311
				c-0.005-0.022,0.002-0.028,0.021-0.017c0.009,0.007,0.018,0.008,0.025,0.006c-0.196-0.081-0.352-0.129-0.468-0.142l0.188,0.076
				c0.041,0.007,0.084,0.016,0.127,0.029c-0.022,0.006-0.101-0.019-0.234-0.076c-0.026-0.01-0.145-0.014-0.353-0.012
				c0.033,0,0.052-0.005,0.058-0.014s-0.019-0.027-0.074-0.055c-0.016-0.003-0.033-0.008-0.051-0.012
				c-0.037,0.009-0.085,0.013-0.142,0.01c-0.057-0.002-0.128-0.009-0.216-0.02c-0.087-0.012-0.166-0.018-0.238-0.016
				c0.008-0.002,0.042-0.002,0.103,0s0.113-0.003,0.159-0.014c-0.033-0.009-0.11-0.01-0.23-0.006
				c-0.119,0.005-0.191,0.002-0.218-0.008c0.06,0.018,0.105,0.023,0.136,0.016c0.004,0.016-0.09,0.014-0.278-0.005l0.046-0.012
				c-0.395-0.002-0.781,0.022-1.162,0.073c-0.016,0.004-0.017,0.008-0.004,0.013c0.014,0.005,0.017,0.008,0.009,0.01
				c-0.071,0.002-0.146,0.011-0.222,0.029c-0.075,0.019-0.161,0.03-0.256,0.037c0.044-0.019,0.069-0.03,0.076-0.036
				c0.006-0.006,0.049-0.012,0.128-0.019s0.146-0.013,0.2-0.018c-0.518,0.019-0.895,0.069-1.132,0.149
				c0.159-0.038,0.304-0.056,0.433-0.055c-0.023,0.006-0.079,0.015-0.168,0.027c-0.089,0.015-0.164,0.028-0.225,0.043l-0.268,0.039
				c-0.023,0.006-0.053,0.01-0.088,0.01c-0.036,0-0.062,0.002-0.077,0.006l0.034-0.008l-0.012,0.003l-0.067,0.016
				c-0.16,0.038-0.241,0.05-0.245,0.035l-0.04,0.033c-0.139,0.024-0.312,0.062-0.521,0.112s-0.371,0.086-0.487,0.105
				c0.026-0.023,0.058-0.039,0.092-0.047s0.077-0.015,0.128-0.019S77.162,97.685,77.185,97.68z M72.417,100.843
				c0.493-0.118,0.825-0.204,0.996-0.262l-1.775,0.425l-0.229,0.055l0.006,0.022c0.099-0.023,0.233-0.058,0.403-0.102
				c0.17-0.045,0.316-0.083,0.441-0.112c0.126-0.03,0.231-0.051,0.316-0.064L72.417,100.843z M71.736,100.465
				c-0.008-0.03,0.016-0.086,0.068-0.167c0.054-0.081,0.101-0.135,0.143-0.16c-0.004,0.017-0.036,0.066-0.097,0.149
				C71.79,100.369,71.752,100.428,71.736,100.465z M72.2,100.894l-0.41,0.099C71.991,100.993,72.129,100.961,72.2,100.894z
				 M73.077,99.276c-0.021,0.015-0.132,0.085-0.334,0.212c-0.202,0.129-0.339,0.227-0.412,0.292
				C72.406,99.69,72.654,99.522,73.077,99.276z M74.052,98.719l-0.154,0.061c-0.072,0.033-0.245,0.135-0.517,0.304
				c0.363-0.191,0.552-0.288,0.567-0.291l0.263-0.111c0.022-0.038,0.068-0.065,0.137-0.082l0.131-0.055l1.146-0.443
				c0.038-0.01,0.094-0.026,0.168-0.052c0.074-0.026,0.134-0.045,0.179-0.056l0.246-0.082l-0.058,0.014
				c-0.227,0.062-0.548,0.176-0.966,0.34s-0.687,0.264-0.806,0.301c0.013-0.012,0.04-0.024,0.081-0.038
				c0.04-0.014,0.073-0.024,0.099-0.035c0.026-0.011,0.037-0.02,0.036-0.027c-0.177,0.066-0.312,0.123-0.405,0.17L74.052,98.719z
				 M75.42,98.15c-0.251,0.06-0.429,0.136-0.536,0.225c0.042-0.026,0.139-0.066,0.29-0.123C75.324,98.195,75.407,98.162,75.42,98.15
				z M76.929,97.669l-0.49,0.117C76.614,97.776,76.777,97.737,76.929,97.669z M77.657,101.31c0.065,0.009,0.126-0.006,0.182-0.044
				l-0.091,0.021l-0.023,0.006l-0.136,0.032l-0.217,0.053l0.148-0.036c-0.006,0.01-0.038,0.021-0.095,0.035
				s-0.088,0.025-0.094,0.035C77.529,101.365,77.637,101.331,77.657,101.31z M78.748,95.26c-0.468,0.056-0.708,0.089-0.722,0.101
				c0.083-0.021,0.183-0.036,0.296-0.047s0.209-0.021,0.289-0.027C78.689,95.28,78.735,95.27,78.748,95.26z M80.283,95.084
				c-0.283-0.011-0.543,0.011-0.778,0.067C79.791,95.138,80.051,95.116,80.283,95.084z M79.642,100.859
				c0.021-0.013,0.051-0.024,0.089-0.033s0.068-0.017,0.091-0.021c0.023-0.006,0.037-0.014,0.043-0.023
				c-0.028,0.016-0.069,0.029-0.123,0.042C79.689,100.836,79.656,100.847,79.642,100.859z M80.324,97.218
				c0.1-0.023,0.261-0.034,0.486-0.031c-0.016,0.004-0.087,0.006-0.215,0.009C80.469,97.197,80.378,97.205,80.324,97.218z
				 M80.872,102.071l-0.091,0.021l-0.068,0.017l0.014,0.008c0.042,0.006,0.065,0.021,0.07,0.044
				c-0.003-0.016,0.004-0.03,0.021-0.041c0.018-0.013,0.032-0.022,0.048-0.03C80.879,102.083,80.881,102.076,80.872,102.071z
				 M80.751,102.219c0.145-0.034,0.215-0.06,0.211-0.074C80.833,102.176,80.763,102.201,80.751,102.219z M81.104,102.135
				l-0.205,0.05l0.145,0.001c0.091-0.021,0.136-0.036,0.134-0.043C81.133,102.153,81.107,102.15,81.104,102.135z M81.045,101.584
				c0.085-0.013,0.098,0.004,0.036,0.051c-0.027,0.023-0.032,0.035-0.015,0.04c-0.076,0.018-0.092,0.002-0.048-0.049
				C81.045,101.603,81.053,101.59,81.045,101.584z M82.597,102.993l-0.911,0.218C81.777,103.254,82.08,103.18,82.597,102.993z
				 M81.703,102.978c-0.008-0.03-0.003-0.047,0.012-0.05L81.703,102.978z M82.142,103.053c0.061-0.015,0.09-0.028,0.086-0.045
				c-0.044,0.019-0.111,0.033-0.201,0.042c-0.09,0.01-0.131,0.03-0.124,0.06c0.022-0.005,0.052-0.008,0.089-0.009
				c0.035,0,0.07-0.004,0.104-0.013c0.034-0.008,0.064-0.023,0.091-0.046l-0.022,0.005L82.142,103.053z M83.088,100.01l-0.137,0.032
				l0.159-0.038L83.088,100.01z M83.509,99.91l-0.159,0.038l-0.058,0.014c0.025,0.002,0.048,0.001,0.071-0.005
				s0.049-0.014,0.078-0.025C83.471,99.921,83.493,99.913,83.509,99.91z M83.883,102.528c-0.301,0.185-0.474,0.287-0.518,0.305
				c0.014-0.011,0.054-0.034,0.121-0.07c0.068-0.037,0.141-0.076,0.219-0.119S83.842,102.562,83.883,102.528z M85.337,97.137
				c-0.005-0.022-0.042-0.073-0.109-0.154l0.115,0.178l0.044,0.085l0.05,0.108c0.074,0.175,0.118,0.289,0.131,0.342l0.056,0.035
				c-0.015-0.061-0.039-0.096-0.072-0.104c-0.034-0.144-0.078-0.259-0.131-0.342C85.417,97.271,85.388,97.222,85.337,97.137z
				 M85.271,101.389c0.278-0.442,0.445-0.732,0.503-0.866c-0.017,0.068-0.085,0.201-0.206,0.398
				c-0.032,0.064-0.088,0.154-0.164,0.268C85.327,101.304,85.282,101.371,85.271,101.389z"/>
		</g>
		<path fill="#00A070" d="M93.683,88.337L82.056,50.858l-40.93,13.421l27.917,93.158l43.584-13.236L93.683,88.337z M104.209,131.832
			c-0.97,1.047-2.576,3.154-3.147,6.107c-0.454,2.345-0.647,4.408-0.73,5.814l-23.612,7.171c-0.052-0.176-0.117-0.356-0.209-0.548
			c-1.243-2.577-4.315-3.954-6.807-4.672l-21.57-71.979c0.134-0.02,0.272-0.049,0.417-0.094c2.942-0.906,4.272-6.114,4.678-9.113
			l20.89-6.85c1.86,1.922,5.104,4.978,7.669,5.826l8.09,26.076L104.209,131.832z"/>
	</g>
	<g>
		<circle fill="#00A070" cx="67.433" cy="75.776" r="5.192"/>
	</g>
	<g>
		<circle fill="#00A070" cx="82.527" cy="128.348" r="5.192"/>
	</g>
	<g>
		<path fill="#9BBA9D" d="M107.339,109.5c0,0-23.497,28.207-24.812,30.707s-3.625,6.668-1.439,9.752
			c2.186,3.082,6.631,8.807,6.631,8.807l27.94-8.807l4.63-1.836L107.339,109.5z"/>
	</g>
	<g>
		<g>
			<path fill="#BCCFA8" d="M86.231,140.547c0,0,34.805-44.979,42.087-49.375c7.281-4.396,23.524-30.065,23.524-30.065
				s30.667,21.462,35.778,28.606c5.11,7.145,4.479,9.395,1.153,15.831c-3.324,6.437-25.169,31.642-25.169,31.642l-39.769,45.93
				c0,0-36.562-27.371-37.605-31.328C85.188,147.828,80.268,148.164,86.231,140.547z"/>
		</g>
		<g>
			<path fill="#00A070" d="M144.617,116.026c0.508,0.328,1.008,0.703,1.492,1.133c0.291,0.236,0.5,0.418,0.631,0.545l0.371,0.303
				l0.324,0.326c0.037,0.041,0.211,0.219,0.523,0.533c0.311,0.314,0.545,0.562,0.701,0.74c0.037,0.043,0.092,0.102,0.162,0.18
				c0.072,0.08,0.127,0.139,0.164,0.18c0.377,0.439,0.678,0.891,0.902,1.357c0.344,0.555,0.553,1.129,0.629,1.727
				c0.039,0.383,0.025,0.727-0.039,1.025c-0.025,0.242-0.059,0.412-0.098,0.51c-0.096,0.254-0.156,0.402-0.18,0.443l-0.057,0.105
				l-0.057,0.104c0.006,0.066-0.02,0.137-0.078,0.209c-0.016,0.018-0.033,0.045-0.055,0.084s-0.039,0.066-0.055,0.084
				c0.064,0.072,0.158,0.16,0.285,0.264c0.012,0.01,0.025,0.016,0.043,0.02s0.031,0.012,0.043,0.021l0.012-0.051l0.016,0.057
				c0.014,0.031,0.029,0.049,0.047,0.053l-0.115-0.062l-0.01-0.008c0.217,0.217,0.396,0.375,0.539,0.469
				c-0.07-0.035-0.031,0.008,0.119,0.131c-0.078-0.064-0.129-0.096-0.15-0.094l0.264,0.215l0.035,0.029
				c-0.014,0.02-0.031,0.01-0.051-0.027c-0.008-0.016-0.016-0.025-0.021-0.031c-0.02,0.023-0.004,0.057,0.043,0.096
				c-0.047-0.039-0.047-0.033,0.002,0.018c0.02,0.025,0.039,0.045,0.057,0.061l-0.096-0.033c-0.004,0.006,0,0.014,0.012,0.023
				c-0.049-0.039-0.088-0.039-0.117-0.004c-0.004,0.006-0.002,0.023,0.01,0.053s0.01,0.047-0.008,0.055l0.062,0.035
				c0.041,0.023,0.076,0.049,0.107,0.072c-0.021,0.004-0.055-0.012-0.096-0.047c0.016,0.064,0.018,0.105,0.004,0.123l0.002,0.033
				l0.051,0.012c0.016,0.031-0.002,0.033-0.049,0.006c-0.023-0.01-0.043-0.021-0.061-0.037c-0.012,0.014,0.023,0.051,0.102,0.115
				l-0.09-0.074l0.107,0.09c-0.02,0.023-0.059,0.012-0.119-0.039c-0.012-0.01-0.027-0.016-0.043-0.02l0.027,0.037
				c-0.004,0.008-0.014,0.004-0.029-0.008s-0.025-0.016-0.029-0.01c0.018,0.016,0.021,0.023,0.01,0.023
				c0.008,0.016,0.014,0.025,0.02,0.031l-0.045-0.037c-0.021,0.002-0.023,0.016-0.004,0.043c0.055,0.055,0.086,0.086,0.092,0.09
				l-0.117-0.096c-0.012-0.01-0.021-0.016-0.027-0.016c-0.004,0.002-0.01,0.006-0.016,0.012c-0.004,0.016-0.012,0.02-0.023,0.01
				c-0.004,0.006-0.002,0.014,0.01,0.023c0.014,0.01,0.018,0.018,0.012,0.023l-0.051-0.01c0.006,0.016,0.029,0.037,0.064,0.068
				l-0.008-0.008c-0.029-0.014-0.055-0.029-0.072-0.043l0.154,0.125l-0.172-0.141c-0.023-0.008-0.064,0.004-0.121,0.037l0.137,0.111
				l0.045-0.055c0.002,0.033-0.014,0.051-0.045,0.055l0.053,0.045c-0.012-0.02-0.039-0.031-0.078-0.033
				c-0.037-0.002-0.068,0.006-0.088,0.025c-0.02,0.018-0.027,0.041-0.018,0.068l0.08,0.066c-0.027-0.002-0.059-0.02-0.096-0.049
				c0.014,0.033,0.049,0.07,0.104,0.115c-0.02,0.023-0.043,0.025-0.066,0.006l0.055,0.045l-0.072-0.059
				c-0.01,0.012,0.039,0.062,0.148,0.15c-0.152-0.123-0.242-0.168-0.271-0.131l-0.037-0.029c-0.018-0.016-0.039-0.02-0.066-0.01
				c-0.027,0.008-0.047,0.012-0.059,0.014c0.006,0.055-0.061,0.061-0.197,0.02c-0.004,0.006-0.014,0.004-0.025-0.006
				c-0.012,0.002-0.02,0-0.025-0.006c0.027,0.064,0.066,0.115,0.115,0.154c-0.045-0.006-0.121-0.053-0.23-0.143
				c-0.107-0.088-0.188-0.139-0.238-0.15c-0.34-0.277-0.568-0.453-0.686-0.531l0.018,0.016l-0.236-0.193
				c-0.332,0.172-0.512,0.262-0.539,0.27c-0.244,0.113-0.584,0.217-1.025,0.311c0.037,0.031,0.158,0.014,0.361-0.053
				c0.07-0.023,0.129-0.039,0.174-0.045c0.047-0.008,0.07-0.008,0.072,0.006c-0.033,0.002-0.105,0.016-0.217,0.041
				s-0.191,0.043-0.24,0.053c-0.043,0.006-0.109,0.016-0.197,0.029c-0.086,0.014-0.164,0.023-0.234,0.027
				c-0.068,0.004-0.127,0.006-0.178,0.004c-0.01,0.014-0.004,0.018,0.018,0.016c0.023-0.002,0.061-0.006,0.111-0.014
				c0.051-0.01,0.098-0.012,0.137-0.012c-0.229,0.057-0.518,0.072-0.869,0.047c-0.004,0.006-0.002,0.008,0.01,0.006
				c0.01,0,0.025,0,0.045,0c0.02,0.002,0.037,0.004,0.055,0.008c-0.037,0.02-0.16,0.004-0.371-0.047
				c0.029,0.004,0.123,0.006,0.285,0.006c0.16,0,0.32,0,0.48,0c-0.301-0.025-0.658-0.08-1.072-0.166
				c0.027,0.002,0.092,0.01,0.193,0.023c0.102,0.012,0.203,0.023,0.303,0.035c0.102,0.012,0.197,0.02,0.285,0.021
				c0.418,0.029,0.838,0,1.256-0.094c-0.051-0.01-0.102-0.004-0.148,0.016c0.006-0.006,0.025-0.012,0.061-0.018
				c0.035-0.008,0.074-0.016,0.117-0.025s0.076-0.016,0.098-0.018c0.088-0.02,0.123-0.051,0.107-0.094
				c-0.486,0.166-1.055,0.225-1.703,0.178c-0.555-0.049-1.037-0.162-1.447-0.336c0.049,0,0.102,0.01,0.156,0.029
				s0.129,0.045,0.225,0.076c0.094,0.033,0.184,0.059,0.268,0.078c-0.068-0.037-0.121-0.061-0.154-0.068
				c0.496,0.156,1.012,0.23,1.543,0.221c-0.367-0.018-0.758-0.07-1.172-0.158c-0.119-0.027-0.42-0.107-0.906-0.242
				c0.086,0.02,0.152,0.039,0.197,0.057c-0.287-0.043-0.557-0.17-0.811-0.377c0.193,0.098,0.346,0.174,0.463,0.229
				c-0.061-0.049-0.188-0.123-0.379-0.221c0.057,0.018,0.055,0.006-0.004-0.031c-0.006-0.006-0.078-0.055-0.215-0.146
				c-0.191-0.096-0.367-0.211-0.523-0.338l0.053,0.045c0.066,0.043,0.104,0.072,0.109,0.088c0.006-0.006,0.023,0.004,0.057,0.031
				s0.088,0.066,0.162,0.117c0.074,0.053,0.152,0.096,0.234,0.131l-0.148-0.059l-0.008-0.008l0.09,0.074
				c-0.344-0.221-0.611-0.412-0.805-0.57c0.059,0.051,0.111,0.072,0.156,0.068c-0.41-0.375-0.576-0.607-0.502-0.697
				c0.182,0.27,0.373,0.473,0.576,0.607c0.016,0.004,0.016-0.014-0.006-0.049c-0.055-0.107-0.154-0.219-0.299-0.338l0.078,0.051
				l0.037,0.029l-0.047-0.053l0.227,0.186c-0.082-0.047-0.1-0.047-0.049,0.004c0.051,0.062,0.125,0.117,0.225,0.17
				c-0.076-0.104-0.174-0.201-0.287-0.297l0.078,0.033l0.041,0.006c0.049,0.039,0.09,0.084,0.127,0.133
				c0.035,0.049,0.076,0.094,0.125,0.133c0.051,0.021,0.062,0.016,0.031-0.02l-0.111-0.123c-0.002-0.01,0.018-0.01,0.059,0.002
				c-0.01,0.014-0.029,0.008-0.057-0.014c-0.027-0.023-0.053-0.049-0.078-0.08l-0.047-0.055c0.021,0-0.021-0.061-0.127-0.178
				c-0.029-0.025-0.061-0.055-0.092-0.09c-0.008-0.016,0.004-0.031,0.037-0.047c0.01,0,0.01-0.006-0.002-0.016
				s-0.027-0.021-0.045-0.037c-0.043-0.045-0.035-0.049,0.023-0.01c0.076,0.041,0.131,0.086,0.164,0.133
				c-0.039-0.041-0.076-0.094-0.113-0.16c-0.037-0.064-0.066-0.119-0.094-0.16c0.01-0.012,0.068,0.027,0.178,0.115
				c-0.006-0.055-0.037-0.115-0.094-0.182c0.049,0.039,0.104,0.074,0.164,0.104c0.062,0.029,0.117,0.064,0.166,0.104
				c-0.051-0.061-0.129-0.133-0.23-0.217c0.072,0.049,0.078,0.033,0.02-0.045l-0.049-0.068c-0.139-0.115-0.234-0.213-0.287-0.297
				c-0.006-0.016-0.004-0.014,0.01,0.008c0.006,0.006,0.016,0.012,0.027,0.021c0.105,0.117,0.17,0.17,0.191,0.156
				c-0.008-0.016-0.039-0.051-0.096-0.107c-0.055-0.055-0.09-0.094-0.104-0.113c0.018,0.004,0.045,0.02,0.082,0.049
				c0.035,0.029,0.066,0.057,0.094,0.078s0.043,0.031,0.049,0.025c-0.045-0.068-0.078-0.162-0.096-0.283
				c-0.018-0.119-0.088-0.246-0.213-0.377c-0.012-0.01-0.014-0.021-0.004-0.033c0.012-0.021,0.002-0.051-0.023-0.08
				c0.014,0.01,0.051,0.045,0.115,0.107c0.064,0.064,0.104,0.1,0.115,0.111c0.02-0.025-0.016-0.074-0.107-0.148
				c0.018,0.004,0.049,0.031,0.092,0.082c0.045,0.051,0.072,0.082,0.084,0.092c0.086,0.068,0.139,0.104,0.16,0.1
				c0.289,0.275,0.492,0.424,0.609,0.438c0.02-0.023-0.027-0.082-0.143-0.176c-0.012-0.01-0.023-0.016-0.035-0.014
				c-0.016-0.004-0.018,0.006-0.006,0.025c0.002,0.012,0.006,0.02,0.012,0.023c-0.064-0.02-0.107-0.076-0.133-0.168
				c-0.01-0.037,0.006-0.045,0.047-0.021c-0.041-0.035-0.082-0.072-0.119-0.113s-0.074-0.076-0.111-0.105
				c0.021-0.014,0.035-0.016,0.041-0.004c0.008,0.012,0.025,0.037,0.055,0.082s0.062,0.08,0.1,0.111
				c-0.039-0.041-0.057-0.066-0.059-0.078c-0.018-0.014-0.012-0.016,0.018-0.002c0.012,0.01,0.027,0.021,0.045,0.037
				c0.061,0.049,0.105,0.082,0.133,0.094c0.01-0.012,0.008-0.035-0.01-0.068s-0.002-0.037,0.045-0.01
				c-0.008-0.014-0.025-0.035-0.057-0.059c-0.029-0.025-0.055-0.045-0.072-0.061c-0.018-0.014-0.023-0.025-0.02-0.031l0.553,0.453
				c-0.002-0.012-0.012-0.025-0.029-0.041c0.053,0.035,0.086,0.057,0.098,0.066l0.008-0.01c-0.008-0.016-0.023-0.033-0.047-0.053
				c0.043-0.004,0.104,0.023,0.176,0.082c-0.01-0.016-0.023-0.033-0.049-0.053c-0.023-0.02-0.043-0.039-0.059-0.057
				c-0.016-0.02-0.02-0.033-0.01-0.045l0.301,0.244c0.09,0.074,0.193,0.15,0.312,0.227c-0.088-0.053-0.137-0.072-0.146-0.061
				c0.133,0.07,0.334,0.145,0.604,0.223c0.041,0.012,0.125,0.035,0.256,0.066s0.244,0.055,0.34,0.074l0.154,0.035
				c0.055-0.006,0.094-0.012,0.113-0.021c0.021-0.006,0.031-0.021,0.031-0.045c0.096,0.029,0.191,0.051,0.283,0.061
				s0.145,0.014,0.154,0.014c0.023-0.002,0.064-0.018,0.129-0.047c-0.102-0.072-0.324-0.248-0.672-0.527
				c-0.346-0.279-0.592-0.467-0.734-0.564l0.014-0.018c-0.07-0.037-0.178-0.115-0.322-0.232c0.076,0.041,0.207,0.135,0.391,0.281
				c0.184,0.145,0.303,0.234,0.355,0.268c-0.055-0.055-0.152-0.141-0.293-0.254c-0.139-0.113-0.232-0.195-0.281-0.246l0.426,0.35
				l-0.652-0.535l0.209,0.172c-0.035-0.01-0.096-0.051-0.188-0.125c-0.4-0.348-0.961-0.795-1.682-1.346l-0.109-0.088
				c-0.145-0.107-0.295-0.227-0.455-0.357s-0.336-0.277-0.527-0.439c-0.189-0.16-0.334-0.281-0.432-0.359l0.018,0.014
				c-0.174-0.143-0.303-0.238-0.385-0.285c-0.01,0.012,0.01,0.029,0.055,0.053c0.047,0.023,0.066,0.037,0.062,0.043
				c-0.006-0.004-0.025-0.014-0.057-0.031c-0.031-0.016-0.062-0.035-0.09-0.057c-0.025-0.023-0.047-0.049-0.061-0.082
				c-0.02,0.023-0.012,0.053,0.023,0.082c-0.021-0.01-0.051-0.027-0.084-0.055s-0.064-0.049-0.094-0.062
				c-0.01,0.014-0.008,0.023,0.004,0.033c-0.014-0.031-0.033-0.047-0.055-0.043c0.045-0.006,0.096,0.018,0.156,0.066
				c-0.008-0.076-0.068-0.146-0.18-0.207c0.035,0.008,0.172,0.111,0.414,0.309c0.006-0.016-0.006-0.035-0.029-0.055
				c0.021,0.037,0.035,0.061,0.047,0.068c0.023,0,0.039-0.008,0.049-0.02c-0.066-0.055-0.17-0.133-0.311-0.232
				s-0.24-0.18-0.303-0.24l0.127,0.104c0.01-0.012-0.002-0.031-0.039-0.062l0.117,0.098l-0.189-0.156l0.018,0.016
				c-0.068-0.027-0.123-0.072-0.162-0.135c-0.188-0.152-0.443-0.355-0.766-0.609c-0.32-0.254-0.537-0.426-0.645-0.514
				c-0.064-0.043-0.137-0.096-0.217-0.16c-0.078-0.064-0.164-0.137-0.254-0.217c-0.092-0.08-0.158-0.137-0.201-0.172
				c0.127,0.094,0.377,0.293,0.75,0.6c0.375,0.307,0.65,0.525,0.824,0.658c-0.262-0.236-0.678-0.584-1.244-1.049l0.869,0.711
				c-0.117-0.115-0.334-0.303-0.65-0.562c-0.318-0.26-0.553-0.461-0.707-0.607c0.021,0.037,0.086,0.102,0.199,0.193
				c0.111,0.09,0.184,0.16,0.217,0.205c-0.154-0.084-0.295-0.199-0.428-0.348l-1.258-1.031l-0.078-0.033l-0.291-0.236
				c-0.021,0.002-0.051,0.014-0.092,0.037c-0.039,0.023-0.061,0.039-0.064,0.045c0.039-0.049,0.078-0.086,0.121-0.111l-0.23,0.189
				c-0.025,0.018-0.098,0.066-0.215,0.143c-0.117,0.074-0.205,0.135-0.262,0.18c-0.143,0.074-0.48,0.199-1.018,0.375
				c-0.615,0.123-1.289,0.115-2.025-0.021c-1.227-0.25-2.244-0.836-3.053-1.758c0.047,0.039,0.078,0.076,0.094,0.107
				c-0.342-0.35-0.584-0.729-0.73-1.143c-0.125-0.314-0.203-0.564-0.232-0.75c-0.061-0.271-0.08-0.549-0.059-0.836
				c-0.023-0.502,0.088-1.037,0.33-1.604c0.107-0.205,0.223-0.402,0.348-0.592l-0.309-0.252l0.02,0.014
				c-0.199-0.162-0.342-0.268-0.424-0.316c0.002,0.023,0.014,0.039,0.035,0.051c0.02,0.012,0.039,0.021,0.057,0.023
				c0.016,0.004,0.023,0.01,0.018,0.016c-0.006-0.006-0.023-0.014-0.053-0.027s-0.055-0.031-0.08-0.051
				c-0.023-0.02-0.043-0.045-0.057-0.078c-0.02,0.025-0.01,0.055,0.033,0.09c-0.018-0.004-0.045-0.023-0.084-0.055
				c-0.041-0.033-0.072-0.055-0.104-0.07c0.004,0.023,0.012,0.039,0.021,0.049l-0.09-0.072c0.092,0.033,0.156,0.066,0.193,0.096
				c-0.045-0.096-0.105-0.166-0.189-0.215c0.035,0.008,0.17,0.107,0.404,0.301c-0.006-0.004-0.008-0.012-0.01-0.023
				s-0.004-0.02-0.01-0.023c0.006,0.004,0.012,0.014,0.02,0.031c0.006,0.016,0.012,0.025,0.02,0.031
				c0.033,0.008,0.057,0.006,0.066-0.006c-0.074-0.061-0.182-0.143-0.326-0.244c-0.141-0.102-0.25-0.188-0.324-0.258l0.137,0.111
				l-0.004-0.033l0.291,0.238c-0.154-0.158-0.291-0.27-0.408-0.334l0.018,0.016c-0.021,0-0.043-0.008-0.064-0.023
				c-0.021-0.018-0.041-0.039-0.061-0.064s-0.031-0.041-0.037-0.047l0.107,0.09c-0.014-0.033-0.039-0.064-0.076-0.094
				c0.023-0.002,0.021-0.018-0.004-0.049c-0.045-0.066-0.104-0.119-0.174-0.158c-0.01,0.014-0.012,0.023-0.002,0.031
				c0.01,0.006,0.02,0.016,0.031,0.025c0.014,0.01,0.02,0.025,0.021,0.047c0.033-0.014,0.078,0.004,0.139,0.053
				c-0.02,0.025-0.047,0.021-0.084-0.008l0.02,0.014l-0.191-0.154c0.012,0.01,0.033-0.004,0.062-0.041
				c-0.096-0.127-0.127-0.213-0.092-0.256c0.006,0.006,0.02,0.037,0.039,0.092c0.02,0.057,0.047,0.1,0.082,0.129
				c0.012-0.002,0.02-0.01,0.023-0.027s0-0.037-0.012-0.061c-0.01-0.025-0.029-0.049-0.061-0.074
				c0.004-0.016,0.016-0.018,0.033-0.002l0.072,0.059c-0.027-0.002-0.02,0.014,0.021,0.047c0.008-0.033-0.006-0.064-0.043-0.096
				c0.014,0.012,0.021,0.012,0.029,0.002c0.008-0.008,0.018-0.008,0.029,0.002s0.02,0.025,0.021,0.047s0.01,0.045,0.023,0.064
				c0.018,0.004,0.018-0.004,0.006-0.025l-0.014-0.057l-0.008-0.066c0.02-0.023,0-0.061-0.061-0.109
				c0.006-0.006,0.016-0.012,0.031-0.021l-0.002-0.016c-0.023-0.02-0.018-0.029,0.014-0.033c0.033-0.006,0.051,0.006,0.053,0.027
				c-0.004-0.043-0.02-0.086-0.045-0.129c0.033,0.008,0.057,0.018,0.068,0.027c0.02-0.025,0.027-0.049,0.027-0.07
				c0.006,0.006,0.018,0.012,0.037,0.018c0.021,0.006,0.037,0.014,0.049,0.023c-0.002-0.021-0.021-0.047-0.057-0.076
				c0.021,0.008,0.027,0.002,0.014-0.02c-0.014-0.031-0.016-0.053-0.006-0.064l-0.072-0.061c-0.008-0.016-0.002-0.016,0.016,0
				c0.035,0.018,0.055,0.025,0.061,0.018c-0.037-0.029-0.051-0.051-0.041-0.062c0.037,0.029,0.061,0.039,0.07,0.027
				c-0.014-0.033-0.016-0.074-0.004-0.125s-0.006-0.098-0.055-0.137c0.004-0.006,0.004-0.035-0.002-0.09l0.1,0.08
				c0.012-0.012-0.002-0.033-0.039-0.062l0.055,0.045l-0.018-0.016l0.035,0.031l0.051,0.012l0.02,0.014
				c0.021-0.002,0.045,0.008,0.068,0.027c0.061,0.049,0.102,0.072,0.123,0.068c0.02-0.023,0.012-0.051-0.023-0.08
				c-0.025,0.031-0.037,0.016-0.039-0.045c-0.002-0.021,0.004-0.033,0.014-0.035l-0.072-0.059c0.004-0.006,0.01-0.004,0.014,0.002
				c0.002,0.01,0.01,0.02,0.02,0.031c0.01,0.014,0.021,0.021,0.039,0.025c-0.008-0.025,0.012-0.025,0.059,0.002l-0.006-0.049
				c0-0.021,0.016-0.023,0.051-0.004c-0.008-0.016-0.023-0.029-0.047-0.037c-0.01,0-0.016-0.002-0.016-0.008
				c-0.002-0.006,0.006-0.01,0.021-0.018l0.182,0.146l-0.01-0.008l0.027,0.023l0.018-0.002c0.004-0.006-0.002-0.016-0.02-0.031
				c0.021-0.002,0.047,0.01,0.078,0.033c-0.002-0.01-0.012-0.023-0.029-0.037c-0.02-0.016-0.025-0.025-0.02-0.033
				c0.039,0.002,0.078,0.031,0.117,0.09c0.039,0.057,0.07,0.096,0.094,0.115c-0.035-0.029-0.059-0.039-0.068-0.027
				c0.053,0.035,0.127,0.064,0.217,0.096c0.092,0.029,0.168,0.068,0.229,0.119l0.004,0.031l0.014-0.018l0.037,0.031
				c0.035,0.027,0.059,0.037,0.068,0.023c0.088,0.094,0.188,0.174,0.301,0.246c-0.004-0.021-0.035-0.057-0.096-0.107
				c0.027-0.008,0.053-0.006,0.076,0.01c0.023,0.014,0.053,0.041,0.088,0.078c0.033,0.039,0.057,0.062,0.068,0.072
				c0.002,0.023,0.016,0.043,0.041,0.062l-0.004-0.033l0.58,0.475c0.521-0.379,1.1-0.684,1.73-0.914
				c-0.068,0.035-0.096,0.055-0.078,0.059l0.107-0.02c0.031-0.004,0.057-0.008,0.072-0.016c0.004-0.006,0.189-0.051,0.551-0.137
				c-0.041,0.014-0.119,0.035-0.234,0.064c-0.031,0.014-0.076,0.027-0.133,0.041c-0.057,0.016-0.104,0.027-0.141,0.035
				c-0.039,0.01-0.062,0.021-0.072,0.033c0.135-0.041,0.346-0.084,0.635-0.129c0.188-0.031,0.406-0.059,0.658-0.084
				c0.033-0.002,0.049-0.002,0.051,0.004c0,0.004-0.012,0.01-0.033,0.012c0.045-0.006,0.084-0.004,0.117,0.004
				c0.002,0.012-0.02,0.018-0.061,0.02c-0.041,0-0.09,0-0.146,0c-0.055,0-0.092,0.002-0.115,0.004
				c-0.01,0.012,0.004,0.016,0.043,0.014c0.039-0.004,0.088-0.006,0.148-0.008c0.061,0,0.105,0,0.135,0.004l-0.115,0.012l0.1,0.008
				c0.012-0.002,0.021-0.006,0.033-0.014c0.01-0.006,0.018-0.008,0.023-0.002l-0.027-0.021c0.006-0.006,0.016-0.002,0.027,0.014
				c0.014,0.016,0.023,0.018,0.033,0.006c-0.01,0.012-0.025,0.018-0.047,0.02c0.016,0.004,0.051,0.006,0.1,0.008
				c0.051,0,0.084,0.002,0.102,0.006c0.076-0.008,0.125-0.018,0.146-0.031c-0.035,0.043-0.021,0.045,0.041,0.004
				c0.012,0,0.02-0.004,0.023-0.01c0.006,0.004,0.006,0.008-0.002,0.014c-0.008,0.002-0.02,0.008-0.035,0.014
				c-0.016,0.008-0.029,0.018-0.039,0.031l0.066-0.008l-0.049,0.021c0.006,0.006,0.029,0.004,0.07-0.004
				c0.041-0.006,0.066-0.016,0.078-0.027l0.018,0.016c-0.012-0.01-0.023-0.01-0.033,0.002l0.033-0.002
				c-0.01,0.021,0.01,0.023,0.057,0.002c0.006,0.004,0.004,0.027-0.01,0.066c-0.02,0.025-0.027,0.059-0.021,0.104
				c0,0.012,0.006,0.021,0.014,0.035c0.012,0.014,0.014,0.027,0.01,0.045c0.01-0.002,0.027-0.006,0.049-0.014
				s0.043-0.012,0.064-0.016l-0.029,0.037c0.037,0.029,0.049,0.051,0.039,0.062l0.018,0.016l0.01,0.006l0.006-0.023
				c0.02,0.014,0.021,0.029,0.01,0.045c-0.014,0.014-0.031,0.018-0.055,0.008c0.016,0.033,0.045,0.045,0.088,0.043
				c-0.012,0-0.021,0-0.033,0.002c0.021-0.002,0.039,0.002,0.051,0.012c-0.021,0.002-0.037,0.01-0.047,0.021
				c0.006,0.006,0.002,0.021-0.012,0.051c-0.012-0.01-0.018-0.004-0.016,0.018c0.012,0,0.014,0.002,0.01,0.008
				c-0.006,0.006-0.002,0.01,0.01,0.008l-0.016,0.018c0.008,0.016,0.025,0.025,0.053,0.029l0.043,0.02
				c-0.021,0.002-0.037,0.01-0.047,0.021c-0.012,0.002-0.016,0.01-0.014,0.027c0.002,0.016-0.004,0.029-0.014,0.041
				c0.01-0.033,0.02-0.045,0.031-0.035c-0.01,0.012-0.016,0.025-0.018,0.039c0,0.014-0.004,0.025-0.01,0.031
				c0.088-0.01,0.096-0.006,0.018,0.014c0.035,0.008,0.068,0.004,0.1-0.01c-0.01,0.012-0.029,0.018-0.061,0.02
				c-0.029-0.002-0.049,0.002-0.053,0.008c-0.012,0.002-0.021,0.039-0.029,0.111c0.023,0.02,0.057,0.004,0.102-0.051l-0.004-0.033
				c0.014,0.01,0.014,0.021,0.004,0.033c0.006,0.004,0.016,0.006,0.025,0.006c0.012-0.002,0.02,0,0.025,0.006
				c-0.018-0.004-0.031,0.006-0.041,0.031c-0.012,0.027-0.018,0.059-0.016,0.094c0,0.037,0.006,0.061,0.018,0.07
				c0.006,0.004,0.018,0.004,0.033-0.004c0.018-0.008,0.027-0.008,0.033-0.004l-0.047,0.021c-0.012,0.062,0.018,0.076,0.086,0.041
				l-0.029,0.037c0.002,0.021,0.033,0.027,0.094,0.016c-0.088,0.008-0.129,0.045-0.123,0.111l-0.059,0.074
				c0.051,0.061,0.039,0.135-0.035,0.227c0,0.01,0.006,0.018,0.014,0.02s0.023,0.006,0.043,0.012
				c0.02,0.008,0.037,0.016,0.049,0.025c-0.025,0.029-0.076,0.049-0.152,0.057s-0.129,0.025-0.154,0.057
				c-0.207,0.021-0.359,0.053-0.455,0.096c-0.15,0.037-0.271,0.049-0.361,0.035c-0.039,0.01-0.096,0.021-0.172,0.035
				c-0.076,0.012-0.133,0.023-0.172,0.033l0.195-0.053c-0.111,0.01-0.182,0.012-0.217,0.004l-0.047,0.021
				c-0.32,0.072-0.541,0.15-0.66,0.232c-0.078,0.037-0.172,0.088-0.275,0.152l0.299,0.244c0.035,0.031,0.064,0.045,0.088,0.041
				l-0.016,0.02l0.164,0.133l0.775,0.605l-0.018-0.016c0.076,0.104,0.178,0.207,0.301,0.309s0.27,0.209,0.436,0.326
				c0.168,0.115,0.293,0.209,0.379,0.277l-0.072-0.059l0.225,0.184l-0.002-0.016l0.053,0.027l0.164,0.135
				c-0.021,0.002-0.045-0.008-0.068-0.027l1.061,0.867c0.004-0.006,0.014-0.012,0.029-0.018c0.016-0.008,0.027-0.016,0.031-0.021
				c-0.02,0.025-0.039,0.037-0.061,0.039l0.072,0.061c0.123-0.09,0.4-0.236,0.828-0.441c0.213-0.088,0.572-0.188,1.076-0.299
				c0.342-0.072,0.703-0.096,1.084-0.066c0.629,0.043,1.217,0.158,1.756,0.348l-0.014,0.018c0.283,0.072,0.715,0.248,1.293,0.529
				c-0.564-0.25-1.037-0.439-1.422-0.574c-0.1-0.039-0.4-0.119-0.908-0.24c-0.314-0.059-0.619-0.08-0.912-0.068
				c0.434,0.014,0.932,0.088,1.496,0.227c0.539,0.189,0.932,0.35,1.178,0.48c-0.756-0.307-1.363-0.496-1.82-0.566
				c0.863,0.189,1.77,0.529,2.723,1.018c-0.041-0.025-0.109-0.059-0.205-0.102s-0.207-0.094-0.336-0.152
				c-0.129-0.061-0.225-0.107-0.287-0.139c0.221,0.051,0.488,0.166,0.807,0.344c0.037,0.029,0.104,0.074,0.201,0.133
				c0.098,0.061,0.164,0.105,0.199,0.135l0.381,0.219c0.082,0.049,0.209,0.127,0.381,0.238
				C144.389,115.885,144.524,115.969,144.617,116.026z M128.528,110.047c0.029,0.064,0.09,0.133,0.18,0.207
				c-0.014-0.021-0.041-0.055-0.084-0.1C128.578,110.11,128.547,110.074,128.528,110.047z M128.627,110.037
				c-0.01,0.062,0.002,0.092,0.033,0.088l0.037,0.031c-0.018-0.016-0.033-0.037-0.045-0.068
				C128.641,110.059,128.633,110.043,128.627,110.037z M128.963,109.223l-0.02-0.016l0.055,0.045L128.963,109.223z M129.053,109.297
				l-0.072-0.059l0.057,0.076L129.053,109.297z M129.022,109.151c-0.033-0.008-0.039-0.002-0.014,0.018l0.018,0.016l0.014-0.018
				L129.022,109.151z M129.854,111.313c-0.018-0.004-0.045-0.021-0.084-0.053c-0.041-0.033-0.064-0.049-0.076-0.047
				c0.109,0.088,0.199,0.152,0.268,0.189l-0.035-0.031l-0.055-0.043l-0.035-0.029l0.035,0.029l-0.055-0.045l-0.08-0.066l-0.01-0.008
				l0.01,0.008l0.008,0.008l0.01,0.008l0.01,0.006L129.854,111.313z M129.961,111.403c0.004,0.021,0.021,0.047,0.059,0.076
				l0.014-0.018L129.961,111.403z M131.502,114.25l0.074,0.152c-0.008-0.018-0.016-0.049-0.027-0.098
				c-0.01-0.051-0.025-0.092-0.045-0.129c-0.02-0.025-0.037-0.076-0.053-0.15c-0.016-0.072-0.023-0.113-0.025-0.125
				c-0.023-0.24-0.021-0.396,0.004-0.467c-0.039,0.111-0.039,0.277,0,0.5C131.422,113.979,131.448,114.084,131.502,114.25z
				 M134.791,115.944c0.043-0.016,0.199-0.064,0.469-0.146l0.029-0.035l-0.055-0.045l-0.018-0.016l-0.018-0.014
				c-0.045,0.053-0.1,0.07-0.162,0.049c0.021-0.014,0.051-0.025,0.088-0.035s0.062-0.014,0.074-0.014l-0.174-0.143
				c-0.07-0.059-0.131-0.098-0.176-0.115l0.035,0.029c-0.113-0.082-0.379-0.291-0.795-0.627s-0.711-0.564-0.885-0.686l0.016-0.018
				c-0.059-0.027-0.156-0.098-0.297-0.213c0.055,0.035,0.158,0.109,0.311,0.225c0.154,0.115,0.266,0.197,0.336,0.244l-1.305-1.068
				l-0.516-0.422c-0.125,0.191-0.186,0.4-0.178,0.625c-0.031,0.137-0.023,0.32,0.02,0.547c0.008,0.016,0.027,0.062,0.055,0.137
				c0.031,0.074,0.053,0.123,0.066,0.145c0.033,0.117,0.072,0.205,0.117,0.262c0.24,0.359,0.561,0.641,0.957,0.844l-0.018-0.014
				c0.215,0.145,0.545,0.27,0.994,0.373c0.291,0.039,0.51,0.051,0.652,0.035c0.115-0.006,0.307-0.035,0.572-0.09
				c-0.053,0.066-0.184,0.096-0.389,0.09c0.047,0.016,0.127,0.012,0.244-0.014c0.115-0.025,0.193-0.037,0.232-0.035
				c-0.352,0.084-0.627,0.121-0.828,0.107c-0.316,0.016-0.617-0.035-0.906-0.15c-0.66-0.238-1.145-0.584-1.451-1.035
				c-0.09-0.074-0.166-0.168-0.229-0.277c-0.004-0.057-0.027-0.131-0.07-0.227c-0.029-0.064-0.049-0.139-0.057-0.227
				c-0.057-0.35-0.012-0.695,0.137-1.037c0.01-0.012,0.012-0.008,0.002,0.016c-0.004,0.018-0.018,0.047-0.041,0.088
				c-0.01,0.023-0.016,0.037-0.021,0.043c-0.029,0.137-0.043,0.217-0.041,0.238c0.014-0.029,0.037-0.1,0.07-0.207
				c0.033-0.109,0.064-0.191,0.092-0.25l-0.037-0.031c-0.084,0.152-0.164,0.375-0.24,0.666c0.004,0.043,0.008,0.113,0.012,0.207
				s0.008,0.168,0.014,0.223c0.031,0.096,0.045,0.168,0.037,0.213c0.025,0.08,0.057,0.16,0.092,0.24
				c0.105,0.277,0.297,0.541,0.574,0.787s0.596,0.432,0.957,0.557c0.07,0.037,0.098,0.055,0.08,0.051l-0.293-0.104
				c0.061,0.049,0.133,0.078,0.217,0.086c0.029,0.014,0.068,0.027,0.121,0.037l0.059,0.02l-0.008-0.006
				c0.23,0.086,0.516,0.145,0.857,0.172c0.33,0.027,0.561,0.01,0.691-0.055C134.865,115.934,134.84,115.934,134.791,115.944z
				 M131.66,112.821c-0.01,0.014-0.004,0.029,0.02,0.049l0.016-0.02L131.66,112.821z M134.139,112.656l-0.443-0.363l0.389,0.318
				L134.139,112.656z M133.768,115.846c0.178,0.066,0.389,0.072,0.633,0.02c-0.039,0-0.143-0.008-0.312-0.021
				C133.916,115.83,133.809,115.83,133.768,115.846z M137.137,114.52c-0.184,0.102-0.318,0.178-0.4,0.23l0.018,0.016
				c0.051-0.039,0.119-0.08,0.203-0.127C137.041,114.59,137.102,114.551,137.137,114.52z M138.559,116.274l0.053,0.012l-0.037-0.029
				L138.559,116.274z M139.393,116.955c0.395,0.322,0.664,0.533,0.814,0.635l-1.414-1.156l-0.182-0.148l-0.016,0.018
				c0.078,0.064,0.188,0.152,0.326,0.26s0.258,0.203,0.357,0.285c0.1,0.08,0.18,0.152,0.24,0.213L139.393,116.955z M144.797,118.836
				c-0.049-0.061-0.102-0.113-0.156-0.158s-0.129-0.1-0.221-0.166c-0.092-0.064-0.178-0.131-0.256-0.195
				c0.031,0.037,0.084,0.086,0.16,0.148c0.074,0.061,0.117,0.1,0.123,0.115c-0.078-0.064-0.158-0.119-0.242-0.168l0.053,0.012
				c-0.182-0.148-0.434-0.334-0.756-0.557c-0.082-0.059-0.205-0.133-0.367-0.225c-0.16-0.092-0.277-0.162-0.35-0.211l-0.365-0.238
				c-0.121-0.047-0.246-0.109-0.375-0.186c-0.219-0.129-0.506-0.258-0.863-0.389c0.01-0.012,0.021-0.02,0.031-0.02
				c0.012-0.002,0.021,0,0.035,0.004c0.012,0.006,0.021,0.006,0.033,0.006c-0.648-0.318-1.225-0.482-1.73-0.494
				c-0.322-0.01-0.637,0.047-0.939,0.17l0.066-0.006c-0.023,0.002-0.039,0.008-0.049,0.02l1.701,1.363l-0.037-0.031
				c0.209,0.191,0.445,0.395,0.715,0.615s0.574,0.465,0.918,0.736c0.342,0.27,0.609,0.482,0.797,0.637l-0.039-0.047
				c-0.02-0.025-0.043-0.051-0.074-0.076c0.072,0.049,0.162,0.125,0.271,0.23c0.111,0.105,0.188,0.176,0.23,0.211l0.006-0.01
				c0.045,0.045,0.053,0.049,0.027,0.006l0.371,0.303l-0.127-0.104c0.332,0.283,0.861,0.723,1.586,1.314
				c0.725,0.594,1.23,1.012,1.516,1.254l-0.072-0.059c0.209,0.152,0.576,0.461,1.1,0.93l-0.035-0.029l0.217,0.178
				c0.012-0.002,0.021-0.002,0.033-0.002l0.154,0.125c-0.01,0.012-0.027,0.008-0.051-0.012l0.406,0.334
				c0.037-0.121,0.07-0.209,0.098-0.268c0.006-0.006,0.016-0.1,0.031-0.279c-0.002-0.172-0.033-0.383-0.098-0.639
				c0.016-0.018,0.023-0.016,0.025,0.006c0.002,0.012,0.006,0.02,0.012,0.025c-0.055-0.207-0.111-0.359-0.172-0.459l0.053,0.195
				c0.021,0.037,0.039,0.076,0.055,0.119c-0.018-0.014-0.047-0.092-0.082-0.232c-0.008-0.027-0.076-0.123-0.203-0.289
				c0.02,0.027,0.033,0.039,0.045,0.037c0.012,0,0.01-0.029-0.002-0.09c-0.006-0.016-0.014-0.033-0.021-0.049
				c-0.029-0.023-0.061-0.061-0.092-0.105c-0.033-0.047-0.07-0.107-0.115-0.186c-0.043-0.076-0.088-0.141-0.131-0.199
				c0.006,0.006,0.025,0.033,0.062,0.082c0.033,0.049,0.07,0.088,0.105,0.117c-0.014-0.031-0.059-0.094-0.135-0.186
				s-0.117-0.152-0.127-0.178c0.023,0.059,0.047,0.098,0.07,0.117c-0.01,0.012-0.064-0.062-0.164-0.225l0.037,0.029
				c-0.236-0.314-0.49-0.607-0.762-0.881c-0.012-0.01-0.016-0.008-0.012,0.006s0.004,0.018-0.004,0.014
				c-0.043-0.057-0.096-0.111-0.156-0.16s-0.123-0.109-0.184-0.182c0.041,0.025,0.064,0.037,0.074,0.039
				c0.008,0.002,0.039,0.031,0.092,0.09s0.098,0.109,0.135,0.148c-0.328-0.398-0.596-0.668-0.805-0.809
				c0.127,0.104,0.229,0.207,0.305,0.311c-0.018-0.016-0.057-0.053-0.121-0.117c-0.066-0.062-0.123-0.113-0.172-0.152l-0.193-0.189
				c-0.018-0.016-0.037-0.037-0.061-0.064c-0.021-0.029-0.039-0.047-0.051-0.057l0.027,0.021l-0.01-0.008l-0.053-0.045
				c-0.127-0.104-0.186-0.16-0.176-0.174l-0.051-0.01c-0.104-0.096-0.24-0.211-0.406-0.348c-0.166-0.135-0.291-0.242-0.377-0.324
				c0.035,0.008,0.064,0.023,0.092,0.045c0.027,0.023,0.059,0.053,0.092,0.09C144.754,118.795,144.78,118.821,144.797,118.836z
				 M139.221,116.815l-0.326-0.266C139.018,116.709,139.125,116.797,139.221,116.815z M139.283,116.186
				c0.02-0.023,0.078-0.041,0.174-0.047c0.096-0.008,0.168-0.002,0.215,0.016c-0.018,0.008-0.076,0.012-0.178,0.014
				S139.321,116.176,139.283,116.186z M141.041,116.533c-0.023-0.008-0.148-0.055-0.373-0.137c-0.225-0.084-0.385-0.135-0.48-0.152
				C140.305,116.248,140.59,116.346,141.041,116.533z M142.074,116.971l-0.143-0.086c-0.07-0.037-0.256-0.113-0.555-0.227
				c0.371,0.172,0.564,0.266,0.576,0.275l0.248,0.141c0.043-0.004,0.094,0.016,0.146,0.061l0.123,0.07l1.047,0.645
				c0.029,0.023,0.078,0.059,0.145,0.102c0.064,0.045,0.115,0.08,0.152,0.111l0.213,0.143l-0.045-0.037
				c-0.186-0.141-0.471-0.33-0.855-0.562c-0.383-0.232-0.627-0.387-0.729-0.459c0.018,0.004,0.045,0.018,0.078,0.043
				c0.037,0.021,0.066,0.041,0.09,0.057c0.025,0.014,0.039,0.02,0.043,0.012c-0.16-0.1-0.285-0.174-0.379-0.219L142.074,116.971z
				 M142.194,121.41c0.033,0.057,0.082,0.096,0.145,0.119l-0.072-0.061l-0.018-0.014l-0.109-0.09l-0.172-0.141l0.117,0.096
				c-0.01,0.002-0.039-0.016-0.084-0.053s-0.074-0.057-0.084-0.055C142.073,121.342,142.166,121.406,142.194,121.41z
				 M143.354,117.715c-0.199-0.162-0.365-0.258-0.502-0.289c0.047,0.018,0.137,0.068,0.273,0.156
				C143.26,117.668,143.338,117.713,143.354,117.715z M143.844,126.362l-0.725-0.594
				C143.141,125.865,143.383,126.065,143.844,126.362z M143.315,125.641c0.021-0.025,0.037-0.033,0.049-0.023L143.315,125.641z
				 M143.522,126.035c0.047,0.039,0.076,0.053,0.086,0.041c-0.039-0.023-0.092-0.068-0.154-0.133
				c-0.062-0.066-0.102-0.088-0.121-0.062c0.018,0.014,0.037,0.035,0.059,0.064c0.023,0.027,0.047,0.053,0.074,0.074
				c0.027,0.023,0.059,0.037,0.094,0.047l-0.02-0.016L143.522,126.035z M143.344,124.424c0.115,0.094,0.176,0.135,0.186,0.121
				C143.428,124.461,143.365,124.422,143.344,124.424z M143.535,124.428l-0.072-0.059l-0.055-0.045l0.002,0.018
				c0.02,0.037,0.021,0.064,0.008,0.082c0.01-0.012,0.025-0.016,0.045-0.008c0.02,0.006,0.037,0.012,0.051,0.02
				C143.53,124.442,143.537,124.44,143.535,124.428z M143.623,124.653l-0.162-0.133l0.086,0.117
				c0.072,0.059,0.111,0.084,0.117,0.078C143.627,124.686,143.614,124.664,143.623,124.653z M143.756,122.717
				c0.023,0.01,0.049,0.027,0.078,0.051c0.031,0.025,0.055,0.045,0.072,0.059c0.018,0.016,0.033,0.023,0.045,0.021
				c-0.029-0.014-0.064-0.037-0.107-0.072S143.772,122.721,143.756,122.717z M144.028,124.272c0.061,0.061,0.055,0.08-0.02,0.059
				c-0.035-0.006-0.049-0.002-0.041,0.014c-0.059-0.049-0.057-0.072,0.01-0.068C144.012,124.283,144.028,124.281,144.028,124.272z
				 M144.653,118.627l-0.391-0.318C144.375,118.442,144.506,118.547,144.653,118.627z M144.992,127.104
				c-0.33-0.129-0.514-0.205-0.555-0.229c0.016,0.004,0.059,0.023,0.129,0.055s0.146,0.066,0.227,0.102
				C144.875,127.067,144.942,127.092,144.992,127.104z M146.516,124.946l-0.109-0.088l0.127,0.104L146.516,124.946z M146.85,125.221
				l-0.125-0.104l-0.047-0.037c0.014,0.02,0.029,0.037,0.047,0.053s0.041,0.029,0.068,0.047
				C146.819,125.196,146.838,125.211,146.85,125.221z M146.74,127.52c0.521-0.047,0.852-0.09,0.992-0.125
				c-0.064,0.029-0.211,0.055-0.441,0.078c-0.07,0.012-0.174,0.021-0.312,0.031C146.842,127.512,146.76,127.516,146.74,127.52z
				 M147.067,121.055c0.078,0.064,0.186,0.188,0.318,0.369c-0.012-0.012-0.059-0.066-0.137-0.166S147.11,121.09,147.067,121.055z
				 M147.67,118.615c-0.326-0.338-0.5-0.51-0.516-0.514c0.066,0.055,0.139,0.125,0.217,0.207c0.076,0.084,0.143,0.156,0.193,0.215
				C147.617,118.58,147.655,118.612,147.67,118.615z M148.74,119.733c-0.164-0.234-0.338-0.428-0.525-0.58
				C148.399,119.371,148.573,119.567,148.74,119.733z M150.164,124.996c0.016-0.018,0.033-0.078,0.057-0.18l-0.072,0.197
				l-0.041,0.09l-0.055,0.104c-0.096,0.166-0.16,0.27-0.195,0.311l0.008,0.066c0.039-0.047,0.053-0.088,0.037-0.121
				c0.094-0.113,0.16-0.217,0.193-0.309C150.106,125.141,150.129,125.09,150.164,124.996z"/>
		</g>
		<path fill="#00A070" d="M155.539,70.066l-1.299,1.526c-23.11,27.143-58.552,68.211-62.234,71.003l-2.949,1.122l34.815,30.353
			l1.318-1.427c0.504-0.545,12.393-13.467,18.134-23.92c5.482-9.982,44.065-47.856,44.455-48.237l1.56-1.529L155.539,70.066z
			 M139.82,146.797c-2.772,5.049-7.18,10.847-10.886,15.376c-2.868,0.046-6.867,1.812-9.2,2.981l-17.71-15.439
			c0.76-2.336,1.832-6.198,1.648-8.955c-0.115-1.729-0.536-2.886-0.99-3.656c11.783-12.935,32.507-37.022,48.52-55.783
			c2.74,0.523,7.423,1.041,10.442-0.705c-0.002-0.027-0.01-0.053-0.012-0.08l14.797,12.646c-1.323,2.579-3.408,7.145-2.823,9.291
			c0.57,2.094,1.227,3.935,1.589,4.901C163.139,119.528,143.81,139.531,139.82,146.797z"/>
	</g>
	<g>
		<circle fill="#00A070" cx="157.744" cy="98.666" r="5.192"/>
	</g>
	<g>
		<circle fill="#00A070" cx="123.032" cy="143.721" r="5.192"/>
	</g>
</g>
</svg>
