<?xml version="1.0" encoding="utf-8"?>
<!-- Generator: Adobe Illustrator 16.0.0, SVG Export Plug-In . SVG Version: 6.00 Build 0)  -->
<!DOCTYPE svg PUBLIC "-//W3C//DTD SVG 1.1//EN" "http://www.w3.org/Graphics/SVG/1.1/DTD/svg11.dtd">
<svg version="1.1" id="Layer_1" xmlns="http://www.w3.org/2000/svg" xmlns:xlink="http://www.w3.org/1999/xlink" x="0px" y="0px"
	 width="226.77px" height="226.77px" viewBox="0 0 226.77 226.77" enable-background="new 0 0 226.77 226.77" xml:space="preserve">
<g>
	<rect x="0" y="59.418" fill="#D9D9D9" width="226.77" height="93.987"/>
	<path fill="#6F6F6E" d="M28.728,147.269l-0.742,2.769l3.492,0.572l0.084-0.572c0,0,5.385,0.698,6.5,0s-1.154-1.553-3.17-2.769
		c-2.014-1.215-3.414-0.852-3.414-0.852L28.728,147.269z"/>
	<polygon fill="#95CFC4" points="159.044,124.055 176.7,97.332 181.44,97.332 166.858,124.873 	"/>
	<rect x="20.231" y="74.43" fill="#9C9B9B" width="72.253" height="2.064"/>
	<rect x="20.231" y="67.354" fill="#9C9B9B" width="196.484" height="2.063"/>
	<g>
		<path fill="#3C417C" d="M205.526,132.29v23.069h3.746C209.272,155.36,207.552,141.051,205.526,132.29z"/>
		<path fill="#FCE4DB" d="M192.025,106.984l-1.458-0.487c-0.249-2.571-2.391-4.588-5.027-4.588c-2.803,0-5.074,2.272-5.074,5.075
			c0,2.803,2.271,5.077,5.074,5.077c1.574,0,2.963-0.732,3.895-1.856c1.012,0.195,2.739,0.528,2.591,0.501
			C191.815,110.662,192.025,106.984,192.025,106.984z"/>
		<path fill="#3C417C" d="M190.379,103.265c-4.515-5.104-8.562-3.087-10.367-0.853c-1.043,1.288-0.385,3.106,0.357,4.416
			c-1.09,1.1-3.231,3.399-2.591,3.879c0.85,0.635,3.581-2.149,4.916-2.933c0.001-0.001,0.002-0.001,0.003-0.002L190.379,103.265z"/>
		<path fill="#6F6F6E" d="M215.733,158.334c0,0-5.494,4.061-7.673,2.832c-1.67-0.939,1.168-3.467,2.87-3.467
			C212.631,157.699,215.733,158.334,215.733,158.334z"/>
		<path fill="#3C417C" d="M215.306,132.614c0,0,1.913-10.002,0-13.189c-1.913-3.189-17.223-12.44-17.223-12.44h-6.059
			c0,0-0.004,3.476-0.647,6.573c-1.919,1.454-4.75,3.506-6.452,4.303c-2.611,1.225-7.264,4.678-7.264,4.678l1.691,2.521
			c0,0,1.052-0.254,2.554-0.656c-1.475,1.183-2.554,2.02-2.554,2.02l2.961,1.537c0,0,7.565-5.135,10.435-7.365
			c2.87-2.234,11.714,4.568,11.714,4.568s3.19,21.051,3.19,22.965c0,1.916,1.913,10.207,1.913,10.207h7.015L215.306,132.614z"/>
		<path fill="#6F6F6E" d="M206.045,155.864c0,0-3.455,1.094-3.91,1.459c-0.455,0.363-1.912,0.93-1.002,1.604
			c0.911,0.674,7.476-0.193,7.476-0.193s0.638-0.419,1.286-0.906c-0.27-0.993-0.437-1.743-0.437-1.743L206.045,155.864z"/>
		<polygon fill="#7F91C8" points="205.526,141.75 207.552,141.75 209.272,156.506 205.526,156.506 		"/>
		<polygon fill="#7F91C8" points="206.8,141.143 215.675,140.061 216.58,158.334 209.566,158.334 		"/>
		<path fill="#FCE4DB" d="M177.826,122.783c0,0-2.985,2.186-3.259,2.869s-0.547,1.094,0,1.094s1.303-0.41,1.472-0.342
			c0.168,0.068-0.105-0.137,0.441,0.342s0.297,0.889,1.346,0c1.047-0.889,1.645-2.461,1.645-2.461L177.826,122.783z"/>
	</g>
	<g>
		<polyline fill="#7F91C8" points="39.848,136.793 39.739,137.133 36.396,148.489 28.225,147.817 31.315,137.979 		"/>
		<path fill="#FCE4DB" d="M42.043,114.59c-0.336-2.783-2.863-4.769-5.646-4.433c-2.617,0.315-4.502,2.575-4.441,5.157l-1.888,0.782
			c0,0,2.679,3.011,2.475,3.077c-0.144,0.046,0,0,0.981-0.315c1.059,1.005,2.525,1.564,4.088,1.376
			C40.395,119.901,42.378,117.371,42.043,114.59z"/>
		<path fill="#3C417C" d="M42.119,114.423c0.58-1.39,1.016-3.273-0.174-4.428c-2.06-2.001-6.319-3.52-10.19,2.087l8.151,3.549
			c0.007,0.003,0.01,0.007,0.018,0.01c1.419,0.617,4.466,3.055,5.232,2.322C45.734,117.41,43.333,115.385,42.119,114.423z"/>
		<path fill="#6F6F6E" d="M9.598,145.967l-2.769-0.742l-0.572,3.492l0.572,0.084c0,0-0.698,5.385,0,6.5s1.553-1.154,2.769-3.17
			c1.215-2.014,0.852-3.414,0.852-3.414L9.598,145.967z"/>
		<path fill="#FCE4DB" d="M45.421,123.41c0,0,3.674-0.441,4.339-0.127c0.667,0.312,1.146,0.426,0.747,0.799s-1.232,0.59-1.31,0.754
			c-0.077,0.166-0.018-0.17-0.09,0.551c-0.072,0.725,0.389,0.854-0.982,0.918c-1.373,0.066-2.881-0.676-2.881-0.676L45.421,123.41z"
			/>
		<path fill="#3C417C" d="M33.171,134.082"/>
		<path fill="#D9D9D9" d="M9.598,145.229"/>
		<path fill="#3C417C" d="M38.481,127.617l8.07-0.643l-1.102-3.828l-9.91-0.936c-1.624-2.792-3.375-5.425-4.445-5.912
			c-2.432-1.102-6.789,2.495-7.753,5.22c-3.662,3.968-8.662,9.998-9.032,13.702c-0.588,5.887,3.394,10.008,3.394,10.008H9.598v5.303
			l19.617,4.711l-0.63-7.396l7.811,0.643c0,0,2.374-7.857,3.726-12.961c2.489,0.47,4.884,0.869,4.884,0.869l1.545-3.975
			l-7.096-2.871C39.455,129.551,39.08,128.783,38.481,127.617z M28.506,146.921l-0.762-8.942h3.571L28.506,146.921z"/>
		<polygon fill="#7F91C8" points="9.598,145.229 9.598,150.531 18.584,152.69 17.702,145.229 		"/>
	</g>
	<g>
		<g>
			<g>
				<path fill="#EAF6FD" d="M59.606,124.112c0,0,7.119-18.911,9.909-24.66c6.138,0,28.146,0,32.66,0c0,4.86,0.122,18.088,0,24.66
					C100.489,124.112,59.606,124.112,59.606,124.112z"/>
			</g>
		</g>
		<g>
			<g>
				<path fill="#EAF6FD" d="M99.942,99.509v24.827c0,0,11.842,0,16.512,0c5.458,0,38.421-0.225,40.133-0.225
					c-1.925-2.763-21.162-22.571-23.195-24.603C131.839,99.509,99.942,99.509,99.942,99.509z"/>
			</g>
		</g>
		<g opacity="0.6">
			<g>
				<g>
					<path fill="#CDDAE1" d="M99.29,105.44l-27.795,18.671c6.881,0.029,22.672,0.006,27.795,0
						C99.29,121.243,99.309,105.622,99.29,105.44z"/>
				</g>
			</g>
		</g>
		<g opacity="0.6">
			<g>
				<g>
					<path fill="#CDDAE1" d="M156.586,124.336c-1.522-1.781-15.12-15.829-16.948-17.88c-7.131,4.95-18.649,12.941-25.821,17.88
						C124.925,124.336,153.073,124.436,156.586,124.336z"/>
				</g>
			</g>
		</g>
		<g>
			<g>
				<path fill="#95CFC4" d="M153.555,123.135c0,0,21.622,0.147,28.59,5.115c10.035,7.156,7.489,20.479,7.489,20.479l-1.671,4.176
					h-11.694H77.707H38.45l6.745-21.541c0,0,0.81-10.005,16.734-8.332C75.831,122.888,153.555,123.135,153.555,123.135z"/>
			</g>
		</g>
		<g>
			<g>
				<path fill="#1D1D1B" d="M188.909,154.108h-12.035l-0.211-2.309c-0.045-0.457-1.244-11.414-11.528-11.684
					c-0.119-0.004-0.236-0.005-0.352-0.005c-9.907,0-11.001,11.198-11.043,11.679l-0.203,2.318H77.452l-0.135-2.397
					c-0.026-0.401-0.779-10.155-10.835-11.62c-9.691-1.42-12.013,11.361-12.107,11.905l-0.363,2.107l-14.616,0.005
					c-1.403,0-2.54-1.136-2.54-2.539s1.137-2.54,2.54-2.54h10.438c1.729-6.438,6.912-15.493,17.381-13.966
					c9.73,1.419,13.718,8.78,14.838,13.966h66.985c1.273-5.946,5.712-14.25,16.231-13.99c10.354,0.271,14.784,8.295,16.077,13.99
					h7.563c1.402,0,2.539,1.137,2.539,2.54S190.312,154.108,188.909,154.108z"/>
			</g>
		</g>
		<g>
			<g>
				<g>
					<circle fill="#3C3C3B" cx="65.863" cy="152.988" r="13.99"/>
				</g>
			</g>
			<g>
				<g>
					<circle fill="#CDDAE1" cx="65.616" cy="152.988" r="8.368"/>
				</g>
			</g>
			<g>
				<g>
					<path fill="#FFFFFF" d="M71.871,153.094c-0.06,3.389-2.854,6.088-6.241,6.028c-3.388-0.061-6.083-2.855-6.023-6.244
						c0.06-3.386,2.852-6.084,6.24-6.024C69.234,146.913,71.931,149.709,71.871,153.094z"/>
				</g>
			</g>
		</g>
		<g>
			<g>
				<g>
					<circle fill="#3C3C3B" cx="165.201" cy="152.988" r="13.991"/>
				</g>
			</g>
			<g>
				<g>
					<path fill="#CDDAE1" d="M173.323,152.988c0,4.621-3.746,8.37-8.371,8.37c-4.621,0-8.366-3.749-8.366-8.37
						s3.745-8.368,8.366-8.368C169.577,144.619,173.323,148.366,173.323,152.988z"/>
				</g>
			</g>
			<g>
				<g>
					<circle fill="#FFFFFF" cx="165.077" cy="152.988" r="6.134"/>
				</g>
			</g>
		</g>
		<g>
			<g>
				<path fill="#1D1D1B" d="M114.071,131.608c0,0.688-0.56,1.251-1.253,1.251h-5.457c-0.691,0-1.254-0.562-1.254-1.251l0,0
					c0-0.693,0.562-1.255,1.254-1.255h5.457C113.511,130.353,114.071,130.914,114.071,131.608L114.071,131.608z"/>
			</g>
		</g>
		<g>
			<g>
				<path fill="#3CB8C0" d="M58.111,130.166c-1.494,0-2.709-1.215-2.709-2.708c0-1.494,1.215-2.709,2.709-2.709
					c1.493,0,2.708,1.215,2.708,2.709C60.819,128.951,59.604,130.166,58.111,130.166z M58.111,125.596
					c-1.027,0-1.863,0.835-1.863,1.862c0,1.026,0.835,1.86,1.863,1.86c1.026,0,1.861-0.834,1.861-1.86
					C59.972,126.431,59.137,125.596,58.111,125.596z"/>
			</g>
		</g>
		<g>
			<g>
				<path fill="#FFF9D1" d="M188.982,138.068c0,0-2.835,0.589-2.576,2.701c0.259,2.109,1.099,4.708,1.099,4.708l2.342,1.461
					C189.846,146.938,190.486,141.629,188.982,138.068z"/>
			</g>
		</g>
		<g>
			<path fill="#1D1D1B" d="M134.976,98.242H74.158c0,0-5.566-0.994-10.22,5.287s-14.444,21.496-14.444,21.496l12.435-1.993
				c0,0,3.403-18.771,10.13-21.286c4.751-1.775,18.813-1.669,26.664-1.453v22.713h2.231v-22.645
				c1.994,0.067,3.229,0.128,3.229,0.128h28.809l21.669,22.741l5.541,0.225L134.976,98.242z"/>
		</g>
		<g>
			<g>
				<path fill="#F29100" d="M46.677,145.673c0,0.405-0.329,0.732-0.735,0.732h-3.269c-0.405,0-0.734-0.327-0.734-0.732l0,0
					c0-0.408,0.329-0.736,0.734-0.736h3.269C46.347,144.937,46.677,145.265,46.677,145.673L46.677,145.673z"/>
			</g>
		</g>
		<g>
			<g>
				<path fill="#FFF9D1" d="M46.208,137.875c0,1.048-0.852,1.901-1.901,1.901c-0.619,0-1.169-0.296-1.516-0.755
					c0.368-1.159,0.566-1.771,0.926-2.952c0.058-0.188,0.384-0.095,0.59-0.095C45.356,135.975,46.208,136.826,46.208,137.875z"/>
			</g>
		</g>
		<g>
			<path fill="#3CB8C0" d="M146.365,148.69c0.001-0.007,0.004-0.013,0.004-0.019h-0.162L146.365,148.69z"/>
		</g>
		<g>
			<polygon fill="#3CB8C0" points="97.616,124.749 96.717,127.115 96.692,147.847 97.537,147.847 97.537,127.343 98.522,124.749 			
				"/>
		</g>
		<g>
			<path fill="#3CB8C0" d="M165.067,131.166c-6.804,0-12.853,3.461-16.393,8.792v-11.666l-1.595-3.267h-0.938l1.688,3.462v12.759
				h0.068c-1.096,1.962-1.875,4.131-2.248,6.452h0.876c1.507-9.007,9.296-15.686,18.542-15.686c9.329,0,17.122,6.738,18.566,15.834
				h0.854C183.032,138.276,174.862,131.166,165.067,131.166z"/>
		</g>
		<g>
			<path fill="#3CB8C0" d="M65.739,130.942c-7.336,0-13.794,4.031-17.173,10.088l-5.444,0.022l0.003,0.846l4.995-0.019
				c-0.91,1.838-1.539,3.844-1.84,5.968h0.857c1.354-9.194,9.231-16.059,18.603-16.059c9.408,0,17.25,6.851,18.601,16.059h0.856
				C83.835,138.16,75.612,130.942,65.739,130.942z"/>
		</g>
	</g>
</g>
</svg>
