<?xml version="1.0" encoding="utf-8"?>
<!-- Generator: Adobe Illustrator 16.0.0, SVG Export Plug-In . SVG Version: 6.00 Build 0)  -->
<!DOCTYPE svg PUBLIC "-//W3C//DTD SVG 1.1//EN" "http://www.w3.org/Graphics/SVG/1.1/DTD/svg11.dtd">
<svg version="1.1" id="Layer_1" xmlns="http://www.w3.org/2000/svg" xmlns:xlink="http://www.w3.org/1999/xlink" x="0px" y="0px"
	 width="226.77px" height="226.77px" viewBox="0 0 226.77 226.77" enable-background="new 0 0 226.77 226.77" xml:space="preserve">
<g>
	<path fill="#E4133A" d="M123.929,43.025c0.06-1.332-0.554-2.535-1.535-3.291c1.366-0.567,2.358-1.874,2.43-3.448
		c0.097-2.172-1.583-4.014-3.755-4.111c-0.43-0.02-0.84,0.049-1.232,0.159c-5.842-0.445-15.653-2.164-29.779-1.24
		c-2.619,2.977-8.031,11.351-18.562,12.088c-11.478,0.804-14.536-7.411-18.062-8.802c-15.176,1.745-25.604,3.478-29.907,4.243
		c-0.866-0.24-1.814-0.203-2.693,0.204c-1.973,0.914-2.833,3.254-1.919,5.227c0.559,1.211,1.657,1.996,2.877,2.216
		c-0.953,1.132-1.234,2.75-0.571,4.183c0.56,1.209,1.658,1.995,2.877,2.216c-0.952,1.132-1.233,2.75-0.572,4.182
		c0.56,1.209,1.658,1.995,2.878,2.215c-0.952,1.132-1.232,2.75-0.57,4.181c0.912,1.975,3.251,2.834,5.225,1.923
		c0.312-0.145,0.584-0.334,0.838-0.543l2.336,5.65l6.275,71.398l81.264-4.668l-4.1-50.93l-1.643-15.982l1.182-9.955
		c0.264,0.069,0.536,0.114,0.819,0.126c2.172,0.096,4.013-1.585,4.109-3.757c0.06-1.332-0.554-2.534-1.534-3.29
		c1.366-0.567,2.36-1.874,2.43-3.449c0.06-1.333-0.554-2.536-1.534-3.293C122.865,45.908,123.857,44.601,123.929,43.025z"/>
	<path fill="#EB668C" d="M70.838,58.13c0,0-8.447-6.93-13.828,1.122c-5.385,8.052,16.559,18.453,16.559,18.453
		s15.462-14.089,15.497-20.83C89.102,50.136,75.431,48.505,70.838,58.13z"/>
	<g>
		<rect x="141.946" y="81.158" fill="#00A070" width="25.723" height="9.283"/>
		<path fill="#1D3765" d="M167.668,88.991l1.354,42.914c0,0,2.9,3.79,0,10.464c-2.901,6.673-35.104,31.333-35.104,31.333
			s-11.023,2.486-13.925-2.708s-8.413-10.576,2.746-18.701c10.42-7.587,19.9-19.417,20.181-20.763
			c0.281-1.344-0.975-41.089-0.975-41.089L167.668,88.991z"/>
		<path fill="#00A070" d="M117.016,158.072c0,0,9.07,3.227,11.971,7.543c2.901,4.316,4.932,8.088,4.932,8.088
			s-10.583,3.734-14.02-1.698C116.461,166.572,114.753,160.837,117.016,158.072z"/>
		<path fill="#00A070" d="M170.311,134.919l-12.604,3.679l6.302,9.837C164.009,148.435,171.737,142.25,170.311,134.919z"/>
		<circle fill="#00A070" cx="147.118" cy="96.969" r="2.466"/>
		<circle fill="#00A070" cx="157.272" cy="96.969" r="2.466"/>
		<circle fill="#00A070" cx="152.195" cy="108.136" r="2.466"/>
		<circle fill="#00A070" cx="162.349" cy="108.136" r="2.466"/>
		<circle fill="#00A070" cx="152.63" cy="128.937" r="2.466"/>
		<circle fill="#00A070" cx="162.784" cy="128.937" r="2.466"/>
		<circle fill="#00A070" cx="137.055" cy="150.768" r="2.466"/>
		<circle fill="#00A070" cx="144.229" cy="157.952" r="2.465"/>
		<path fill="#00A070" d="M167.668,94.503c-1.362,0-2.466,1.104-2.466,2.466s1.104,2.466,2.466,2.466V94.503z"/>
		<circle fill="#00A070" cx="143.108" cy="139.615" r="2.466"/>
		<circle fill="#00A070" cx="149.972" cy="147.098" r="2.466"/>
		<path fill="#00A070" d="M158.832,153.332c-0.898-1.023-2.455-1.126-3.479-0.226c-1.025,0.897-1.127,2.455-0.229,3.48
			L158.832,153.332z"/>
		<circle fill="#00A070" cx="127.298" cy="153.246" r="2.466"/>
		<circle fill="#00A070" cx="134.161" cy="160.729" r="2.465"/>
		<path fill="#00A070" d="M142.834,166.73c-0.856-1.059-2.41-1.221-3.467-0.364c-1.061,0.854-1.226,2.407-0.369,3.466
			L142.834,166.73z"/>
		<circle fill="#00A070" cx="148.23" cy="117.634" r="2.466"/>
		<circle fill="#00A070" cx="158.384" cy="117.634" r="2.466"/>
		<path fill="#00A070" d="M168.503,115.186c-1.36,0.04-2.433,1.177-2.392,2.538c0.04,1.362,1.178,2.431,2.538,2.391L168.503,115.186
			z"/>
	</g>
	<rect x="176.651" y="105.597" fill="#1D3765" width="25.724" height="9.283"/>
	<path fill="#00A070" d="M202.374,113.429l1.353,42.914c0,0,2.901,3.791,0,10.465c-2.9,6.673-35.103,31.332-35.103,31.332
		s-11.023,2.487-13.925-2.707c-2.901-5.195-8.413-10.576,2.746-18.701c10.42-7.588,19.9-19.418,20.182-20.763
		s-0.977-41.089-0.977-41.089L202.374,113.429z"/>
	<path fill="#1D3765" d="M151.721,182.509c0,0,9.07,3.227,11.972,7.543s4.932,8.088,4.932,8.088s-10.583,3.734-14.021-1.697
		C151.167,191.009,149.459,185.276,151.721,182.509z"/>
	<path fill="#1D3765" d="M205.017,159.358l-12.604,3.679l6.302,9.837C198.715,172.873,206.443,166.689,205.017,159.358z"/>
</g>
</svg>
