<?xml version="1.0" encoding="utf-8"?>
<!-- Generator: Adobe Illustrator 16.0.0, SVG Export Plug-In . SVG Version: 6.00 Build 0)  -->
<!DOCTYPE svg PUBLIC "-//W3C//DTD SVG 1.1//EN" "http://www.w3.org/Graphics/SVG/1.1/DTD/svg11.dtd">
<svg version="1.1" id="Layer_1" xmlns="http://www.w3.org/2000/svg" xmlns:xlink="http://www.w3.org/1999/xlink" x="0px" y="0px"
	 width="226.77px" height="226.77px" viewBox="0 0 226.77 226.77" enable-background="new 0 0 226.77 226.77" xml:space="preserve">
<g>
	<g>
		<rect x="105.879" y="41.573" fill="#DDE6EB" width="21.094" height="115.427"/>
	</g>
	<g>
		<rect x="129.319" y="41.573" fill="#DDE6EB" width="21.023" height="115.427"/>
	</g>
	<g>
		<polygon fill="#35A8E0" points="69.509,29.906 58.998,41.573 58.998,157 80.02,157 80.02,41.573 		"/>
	</g>
	<g>
		<polygon fill="#35A8E0" points="92.949,29.906 82.438,41.573 82.438,157 103.461,157 103.461,41.573 		"/>
	</g>
	<g>
		<path fill="#35A8E0" d="M126.973,41.573l-10.516-11.667l-10.512,11.667h-0.067v27.349v0.65v6.029
			c0.547-0.337,1.186-0.541,1.875-0.541c1.868,0,3.385,1.429,3.561,3.25h0.001v27.655c0,2.025,1.641,3.666,3.665,3.666
			c2.025,0,3.666-1.641,3.666-3.666V75.436l0.037-0.015v-0.218c0-1.986,1.609-3.596,3.596-3.596s3.596,1.609,3.596,3.596v0.218h0.02
			v11.401c0,1.037,0.413,1.975,1.078,2.667V41.573z"/>
	</g>
	<g>
		<path fill="#35A8E0" d="M150.342,41.573L139.83,29.906l-10.512,11.667v36.499h0.004v6.459c0.547-0.337,1.186-0.541,1.875-0.541
			c1.761,0,3.195,1.275,3.503,2.947v4.407c0,2.05,1.661,3.71,3.71,3.71s3.711-1.66,3.711-3.71v-6.99l0.006-0.003v-0.218
			c0-1.986,1.609-3.596,3.596-3.596c1.945,0,3.519,1.546,3.584,3.475v5.382c0,0.954,0.429,1.815,1.035,2.459V78.072l0,0V41.573z"/>
	</g>
	<g>
		<rect x="133.49" y="114.27" fill="#F4F2E7" width="33.121" height="21.5"/>
	</g>
	<g>
		<rect x="135.185" y="124.504" fill="#D4D2C9" width="1" height="12.113"/>
	</g>
	<g>
		<rect x="138.448" y="124.504" fill="#D4D2C9" width="1" height="12.113"/>
	</g>
	<g>
		<rect x="142.119" y="124.504" fill="#D4D2C9" width="1" height="12.113"/>
	</g>
	<g>
		<rect x="145.789" y="124.504" fill="#D4D2C9" width="1" height="12.113"/>
	</g>
	<g>
		<rect x="149.459" y="124.504" fill="#D4D2C9" width="1" height="12.113"/>
	</g>
	<g>
		<rect x="153.13" y="124.504" fill="#D4D2C9" width="1" height="12.113"/>
	</g>
	<g>
		<rect x="156.801" y="124.504" fill="#D4D2C9" width="1" height="12.113"/>
	</g>
	<g>
		<rect x="160.471" y="124.504" fill="#D4D2C9" width="1" height="12.113"/>
	</g>
	<g>
		<rect x="164.141" y="124.504" fill="#D4D2C9" width="1" height="12.113"/>
	</g>
	<g>
		<path fill="#35A8E0" d="M133.49,114.27v7.525c0.547-0.336,1.186-0.541,1.875-0.541c1.867,0,3.385,1.43,3.561,3.25l0.027-0.002
			c0,0.039-0.005,0.082-0.005,0.117v5.244c0,2.027,1.643,3.67,3.67,3.67c2.028,0,3.671-1.643,3.671-3.67v-5.734
			c0-0.018-0.002-0.037-0.002-0.055l0.008-0.002v-0.217c0-1.986,1.609-3.596,3.596-3.596s3.596,1.609,3.596,3.596v0.148
			c-0.001,0.039-0.012,0.076-0.012,0.117v1.98c0,2.096,1.699,3.795,3.795,3.795c2.097,0,3.796-1.699,3.796-3.795v-1.98
			c0-0.018-0.005-0.033-0.005-0.049c0.002-0.006,0.006-0.012,0.008-0.018c0.105-2.002,1.748-3.596,3.775-3.596
			c0.643,0,1.238,0.176,1.768,0.457v-6.646H133.49z"/>
	</g>
	<g>
		<path fill="#6F6F6E" d="M167.31,135.229h-15.481h-3.742h-15.113c0.003,12.783-1.24,18.377,6.206,19.053
			c2.761,0.252,6.93,1.984,6.786,6.734l-1.659,28.391c0,3.314,2.687,6,6,6s6-2.686,6-6l-2.091-28.004
			c0-0.152,0.557-6.887,6.521-7.121C168.207,153.99,167.307,148.012,167.31,135.229z M150.306,188.141
			c-1.445,0-2.617-1.172-2.617-2.617s1.172-2.617,2.617-2.617s2.617,1.172,2.617,2.617S151.751,188.141,150.306,188.141z"/>
	</g>
</g>
</svg>
