<?xml version="1.0" encoding="utf-8"?>
<!-- Generator: Adobe Illustrator 16.0.0, SVG Export Plug-In . SVG Version: 6.00 Build 0)  -->
<!DOCTYPE svg PUBLIC "-//W3C//DTD SVG 1.1//EN" "http://www.w3.org/Graphics/SVG/1.1/DTD/svg11.dtd">
<svg version="1.1" id="Layer_1" xmlns="http://www.w3.org/2000/svg" xmlns:xlink="http://www.w3.org/1999/xlink" x="0px" y="0px"
	 width="226.77px" height="226.77px" viewBox="0 0 226.77 226.77" enable-background="new 0 0 226.77 226.77" xml:space="preserve">
<g>
	<path fill="#B71E3A" d="M59.322,97.365v12.414c0,0,1.721,0.251,3.221,0.917s2.535,1.126,2.897,1.532
		c7.865-3.047,21.039-7.896,23.92-7.294c-4.724-1.308-18.193-1.405-18.193-1.405l-5.25-2.25L59.322,97.365z"/>
	<path fill="#D11243" d="M103.514,63.745c0,0-9.908,2.639-25.589,13.057c-10.88,7.228-18.604,20.563-18.604,20.563
		s7.42,7.815,13.049,7.569c5.625-0.248,9.353-0.659,16.99,0c7.639,0.658,13.269-0.077,11.667,4.49
		c3.623-4.188,4.038-7.979,4.038-7.979c5.124-10.373,6.347-12.273,3.061-23.334C105.738,70.073,103.514,63.745,103.514,63.745z"/>
	<path fill="#E4133A" d="M98.958,114.467c0,0,7.173-17.493,9.11-22.138c1.936-4.646-4.555-28.584-4.555-28.584
		s45.4,0.366,55.355,14.865c9.953,14.503,16.559,21.404,17.328,25.928c0.769,4.523,0,16.172,0,16.172s-8.512-3.932-16.571-3.264
		c-12.845,1.064-17.686,2.086-25.333,2.333c-5.168,0.167-12.736,2.699-17,3.333c-7.438,1.105-20.264,7.668-20.264,7.668
		L98.958,114.467z"/>
	<circle fill="#DDE6EB" cx="58.243" cy="124.808" r="15.384"/>
	<path fill="#DDE6EB" d="M97.03,130.781c0,0,12.878-10.01,27.97-11.792c15.093-1.781,40.43-3.38,40.43-3.38l10.769,5.102
		c0,0,8.646,8.261,8.893,14.595s-10.613,16.288-21.471,19.003c-10.858,2.714-37.667,2.714-44.622,3.618
		c-6.957,0.905-17.701,4.526-19.567,0C97.563,153.403,81.161,139.469,97.03,130.781z"/>
	<path fill="#B8C5CE" d="M109.651,155.212c0,0,13.762-5.428,27.983-4.524c14.222,0.905,30.588-0.082,36.279-4.18
		c5.688-4.097,4.185-9.67-7.579-8.626c-11.765,1.042-42.66,5.565-51.78,8.626C106.93,149.068,100.305,152.498,109.651,155.212z"/>
</g>
</svg>
