<?xml version="1.0" encoding="utf-8"?>
<!-- Generator: Adobe Illustrator 16.0.0, SVG Export Plug-In . SVG Version: 6.00 Build 0)  -->
<!DOCTYPE svg PUBLIC "-//W3C//DTD SVG 1.1//EN" "http://www.w3.org/Graphics/SVG/1.1/DTD/svg11.dtd">
<svg version="1.1" id="Layer_1" xmlns="http://www.w3.org/2000/svg" xmlns:xlink="http://www.w3.org/1999/xlink" x="0px" y="0px"
	 width="226.77px" height="226.77px" viewBox="0 0 226.77 226.77" enable-background="new 0 0 226.77 226.77" xml:space="preserve">
<g>
	<g>
		<rect x="99.086" y="100.035" fill="#DDE6EB" width="102.683" height="78.276"/>
		<g>
			<path fill="#B8C5CE" d="M113.217,112.946c0,2.783-2.248,5.03-5.021,5.03s-5.021-2.247-5.021-5.03
				c0-2.773,2.248-5.021,5.021-5.021S113.217,110.173,113.217,112.946z"/>
			<path fill="#B8C5CE" d="M186.837,112.946c0,2.783-2.248,5.03-5.021,5.03s-5.021-2.247-5.021-5.03
				c0-2.773,2.248-5.021,5.021-5.021S186.837,110.173,186.837,112.946z"/>
			
				<line fill="none" stroke="#B8C5CE" stroke-width="4" stroke-miterlimit="10" x1="110.798" y1="112.946" x2="181.816" y2="112.946"/>
		</g>
		<path fill="#B8C5CE" d="M180.409,160.36c0,3.699-2.998,6.698-6.697,6.698h-54.496c-3.698,0-6.697-2.999-6.697-6.698v-29.936
			c0-3.699,2.999-6.697,6.697-6.697h54.496c3.699,0,6.697,2.998,6.697,6.697V160.36z"/>
		<polygon opacity="0.74" fill="#DAEAF4" points="160.134,127.474 142.679,163.31 146.837,163.31 164.292,127.474 		"/>
		<polygon opacity="0.74" fill="#DAEAF4" points="165.933,127.474 148.478,163.31 150.255,163.31 167.71,127.474 		"/>
	</g>
	<path fill="#BA9B86" d="M145.999,101.066c-0.139,0-0.273,0.014-0.41,0.021c-2.758-19.268-19.32-34.082-39.351-34.082
		c-20.062,0-36.645,14.861-39.362,34.175c-0.431-0.068-0.868-0.113-1.317-0.113c-4.635,0-8.393,3.758-8.393,8.393
		c0,4.647,3.758,8.403,8.393,8.403c0.834,0,1.637-0.126,2.396-0.352c3.419,12.217,12.525,22.054,24.283,26.481v21.71h28.494V143.81
		c11.455-4.489,20.316-14.143,23.73-26.095c0.5,0.092,1.012,0.146,1.537,0.146c4.635,0,8.393-3.756,8.393-8.403
		C154.392,104.824,150.634,101.066,145.999,101.066z"/>
	<g>
		<circle fill="#E0A299" cx="83.005" cy="123.973" r="8.393"/>
	</g>
	<g>
		<path fill="#575756" d="M85.834,105.356c4.211,0,7.393,3.084,7.535,3.225c0.59,0.58,0.598,1.531,0.016,2.121
			c-0.58,0.588-1.527,0.596-2.117,0.02l0,0c-0.028-0.027-2.82-2.723-6.082-2.328c-2.102,0.25-4.037,1.752-5.752,4.467
			c-0.443,0.701-1.369,0.912-2.07,0.467c-0.699-0.443-0.908-1.369-0.467-2.068c2.229-3.529,4.908-5.496,7.965-5.848
			C85.191,105.374,85.515,105.356,85.834,105.356z"/>
	</g>
	<g>
		<path fill="#575756" d="M126.355,105.548c0.318,0,0.643,0.018,0.973,0.055c3.057,0.352,5.736,2.32,7.965,5.848
			c0.441,0.699,0.232,1.625-0.467,2.068c-0.703,0.451-1.627,0.238-2.07-0.467c-1.719-2.723-3.66-4.227-5.771-4.469
			c-3.227-0.371-6.031,2.299-6.059,2.326c-0.59,0.582-1.539,0.574-2.121-0.016s-0.574-1.541,0.016-2.121
			C118.962,108.632,122.144,105.548,126.355,105.548z"/>
	</g>
	<g>
		<path fill="#575756" d="M111.341,125.653h-11.212v-19.963c0-0.828,0.672-1.5,1.5-1.5s1.5,0.672,1.5,1.5v16.963h8.212
			c0.828,0,1.5,0.672,1.5,1.5S112.169,125.653,111.341,125.653z"/>
	</g>
	<g>
		<circle fill="#E0A299" cx="130.036" cy="123.973" r="8.393"/>
	</g>
	<path fill="#95CFC4" d="M159.329,190.798v-32.233l-38.598-10.857c0,0,1.189,3.237-9.248,7.409c-10.438,4.172-19.239-5.4-19.239-5.4
		l-33.89,12.828l3.948,29.918l-34.33,11.071l28.265,7.043l2.003-3.862l-0.167-8.607l104.525,0.167v8.44l4.059,2.607l28.266-7.043
		L159.329,190.798z"/>
	<polygon fill="#F29100" points="79.07,180.599 136.179,180.599 146.001,180.051 146.001,198.288 73.938,199.952 72.671,180.599 	
		"/>
	<g>
		<path fill="#F29100" d="M80.831,182.701c-0.055,0-0.109-0.003-0.165-0.009c-0.823-0.09-1.418-0.831-1.328-1.654
			c0.844-7.72,9.528-30.869,9.898-31.851c0.292-0.776,1.156-1.167,1.932-0.876c0.775,0.292,1.167,1.157,0.875,1.933
			c-0.089,0.236-8.92,23.774-9.723,31.12C82.236,182.132,81.586,182.701,80.831,182.701z"/>
	</g>
	<g>
		<path fill="#F29100" d="M138.428,185.155c-0.686,0-1.305-0.473-1.462-1.17c-0.788-3.489-11.78-26.216-15.949-34.678
			c-0.366-0.743-0.061-1.643,0.683-2.009c0.742-0.364,1.643-0.061,2.009,0.683c1.55,3.146,15.174,30.872,16.184,35.344
			c0.183,0.808-0.324,1.61-1.133,1.793C138.649,185.143,138.537,185.155,138.428,185.155z"/>
	</g>
	<path fill="#422918" d="M143.48,88.401c0,0-11.686-22.139-32.139-22.73c-25.286-0.734-34.738,11.861-41.852,23.791
		c0,0-5.672,8.817,0,17.587c1.781,2.754,1.911,2.602,1.911,2.602l3.896-18.093c0.863,1.496,2.461,2.516,4.312,2.516
		c1.765,0,3.308-0.92,4.196-2.301c0.889,1.381,2.432,2.301,4.196,2.301c1.874,0,3.487-1.043,4.342-2.569
		c0.191,0.015,0.382,0.028,0.572,0.042c0.861,1.503,2.463,2.527,4.319,2.527c1.767,0,3.311-0.922,4.199-2.307
		c0.854,1.53,2.47,2.577,4.346,2.577c2.458,0,4.49-1.778,4.908-4.116c0.068-0.029,0.138-0.06,0.207-0.09
		c0.486,2.249,2.483,3.936,4.877,3.936c1.728,0,3.248-0.876,4.146-2.207c0.896,1.331,2.419,2.207,4.145,2.207
		c2.287,0,4.193-1.545,4.787-3.642l0.163-0.022c0.487,2.249,2.483,3.935,4.878,3.935c1.217,0,2.318-0.453,3.186-1.177l4.166,16.292
		c0,0,0.457,0.344,2.238-2.41C149.152,98.279,143.48,88.401,143.48,88.401z"/>
	<path fill="#FFD88B" d="M179.226,209.683c0,2.034-1.648,3.683-3.684,3.683h-22.635c-2.033,0-3.682-1.648-3.682-3.683l0,0
		c0-2.033,1.648-3.683,3.682-3.683h22.635C177.577,206,179.226,207.65,179.226,209.683L179.226,209.683z"/>
	<path fill="#FFD88B" d="M71.604,209.683c0,2.034-1.648,3.683-3.683,3.683H45.287c-2.034,0-3.683-1.648-3.683-3.683l0,0
		c0-2.033,1.648-3.683,3.683-3.683h22.635C69.956,206,71.604,207.65,71.604,209.683L71.604,209.683z"/>
	<path fill="#F4F2E7" d="M100.129,131.081h15.642c0,0-1.242,9-7.821,9C103.223,140.081,100.129,137.831,100.129,131.081z"/>
	<rect x="56.604" y="196.801" fill="#FFE28E" width="107.688" height="25.159"/>
	<path fill="#F4F2E7" d="M81.687,75.87c0,0,21.033-6.152,31.793-4.155c10.762,1.998,18.834,2.642,18.834,2.642
		s2.377-23.654,0.937-40.662c-1.439-17.008,1.602-18.152-5.507-22.211c-7.109-4.056-17.375-0.51-17.375-0.51
		c-2.14-2.811-2.856-5.913-8.431-7.145c-7.583-1.676-14.51,0.741-15.418,3.779c-0.909,3.038-3.439,7.36-3.439,7.36
		s-10.165-6.228-12.615,0.925c-2.45,7.152,8.306,46.602,8.306,46.602L81.687,75.87z"/>
	<g>
		<g>
			<path fill="#95CFC4" d="M104.592,48.464c-1.854-1.714-8.368-3.176-7.732,0.302c0.636,3.478,7.802,7.601,7.802,7.601
				s7.938-6.047,7.667-8.703C112.058,45.005,105.951,44.74,104.592,48.464z"/>
		</g>
		<g>
			<path fill="#95CFC4" d="M95.362,53.126c0,0-4.225-1.334-5.793-0.94c-1.567,0.396-3.174,1.959-3.174,1.959
				S92.161,56.588,95.362,53.126z"/>
		</g>
		<g>
			<path fill="#95CFC4" d="M97.81,56.033c0,0-4.823,0.356-5.699,3.56c-0.876,3.202,1.623,3.104,3.549,1.196
				C97.588,58.878,97.81,56.033,97.81,56.033z"/>
		</g>
		<g>
			<path fill="#95CFC4" d="M113.135,51.985c0,0,4.108-1.661,5.702-1.389c1.594,0.27,3.316,1.704,3.316,1.704
				S116.595,55.185,113.135,51.985z"/>
		</g>
		<g>
			<path fill="#95CFC4" d="M110.921,55.074c0,0,4.836-0.021,5.958,3.104s-1.376,3.222-3.445,1.467
				C111.364,57.893,110.921,55.074,110.921,55.074z"/>
		</g>
	</g>
	<path fill="#BA9B86" d="M195.593,202.64c0,0-7.844-7.562-19.416-0.744c0,0-7.783-2.817-8.678,0
		c-0.896,2.818,1.965,4.818,3.367,4.818c0.867,0,2.691,0,3.957,0c-0.93,3.697-1.799,8.266-0.602,8.85
		c2.049,1,3.625,0.272,4.25-0.834c0.744-1.314,1.334-2.916,1.334-2.916s0.102,5.082,1.77,5.416c1.666,0.334,3.48,0.055,3.646-1.916
		c0.09-1.051,0.715-2.6,0.715-2.6s0.297,3.939,1.852,4c2.518,0.098,3.434-0.65,4.768-5.317c0.008-0.028,0.016-0.056,0.023-0.085
		c0.344,0.651,0.75,1.112,1.227,1.112c1.676,0,1.697-0.727,2.334-3.86C196.714,205.732,195.593,202.64,195.593,202.64z"/>
	<path fill="#BA9B86" d="M54.26,203.38c-0.896-2.817-8.678,0-8.678,0c-11.573-6.817-19.417,0.744-19.417,0.744
		s-1.12,3.092-0.546,5.924c0.635,3.134,0.657,3.86,2.334,3.86c0.475,0,0.882-0.461,1.225-1.112c0.008,0.029,0.017,0.057,0.025,0.085
		c1.334,4.667,2.25,5.415,4.767,5.317c1.556-0.061,1.852-4,1.852-4s0.626,1.549,0.715,2.6c0.167,1.971,1.98,2.25,3.647,1.916
		s1.77-5.416,1.77-5.416s0.589,1.602,1.333,2.916c0.626,1.106,2.201,1.834,4.25,0.834c1.197-0.584,0.328-5.152-0.602-8.85
		c1.267,0,3.09,0,3.958,0C52.296,208.198,55.156,206.198,54.26,203.38z"/>
</g>
</svg>
