<?xml version="1.0" encoding="utf-8"?>
<!-- Generator: Adobe Illustrator 16.0.0, SVG Export Plug-In . SVG Version: 6.00 Build 0)  -->
<!DOCTYPE svg PUBLIC "-//W3C//DTD SVG 1.1//EN" "http://www.w3.org/Graphics/SVG/1.1/DTD/svg11.dtd">
<svg version="1.1" id="Layer_1" xmlns="http://www.w3.org/2000/svg" xmlns:xlink="http://www.w3.org/1999/xlink" x="0px" y="0px"
	 width="226.77px" height="226.77px" viewBox="0 0 226.77 226.77" enable-background="new 0 0 226.77 226.77" xml:space="preserve">
<g>
	<path fill="#F29100" d="M117.182,32.95c0,0,39.75,4.235,44.436,46.875c2.15,19.556,0,24.69,0,24.69l-29.043,1.022L117.182,32.95z"
		/>
	<path fill="#F29100" d="M105.095,33.017c0,0-39.75,4.169-44.436,46.809c-2.149,19.556,0,24.69,0,24.69l29.043,1.022L105.095,33.017
		z"/>
	<g>
		<path fill="#FCE4DB" d="M148.539,67.996c-0.139,0-0.273,0.014-0.41,0.021c-2.758-19.268-19.322-34.082-39.351-34.082
			c-20.062,0-36.646,14.861-39.363,34.175c-0.43-0.068-0.867-0.113-1.316-0.113c-4.636,0-8.393,3.758-8.393,8.393
			c0,4.637,3.757,8.395,8.393,8.395c0.833,0,1.637-0.126,2.396-0.352c4.686,16.742,20.045,29.025,38.283,29.025
			c18.164,0,33.472-12.184,38.224-28.82c0.5,0.092,1.012,0.146,1.537,0.146c4.635,0,8.393-3.758,8.393-8.395
			C156.932,71.754,153.174,67.996,148.539,67.996z"/>
	</g>
	<g>
		<circle fill="#F4A689" cx="85.544" cy="90.895" r="8.393"/>
	</g>
	<g>
		<path fill="#575756" d="M88.374,72.286c4.211,0,7.392,3.084,7.535,3.225c0.59,0.58,0.597,1.531,0.016,2.121
			c-0.58,0.588-1.527,0.596-2.118,0.02l0,0c-0.028-0.027-2.819-2.723-6.081-2.328c-2.103,0.25-4.038,1.752-5.753,4.467
			c-0.442,0.701-1.368,0.906-2.069,0.467c-0.7-0.443-0.909-1.369-0.467-2.068c2.229-3.529,4.908-5.496,7.965-5.848
			C87.73,72.304,88.055,72.286,88.374,72.286z"/>
	</g>
	<g>
		<path fill="#575756" d="M128.895,72.478c0.318,0,0.643,0.018,0.973,0.055c3.057,0.352,5.736,2.32,7.965,5.848
			c0.441,0.699,0.232,1.625-0.467,2.068c-0.703,0.441-1.629,0.232-2.07-0.467c-1.719-2.723-3.662-4.227-5.771-4.469
			c-3.229-0.371-6.031,2.299-6.059,2.326c-0.59,0.582-1.541,0.574-2.121-0.016c-0.582-0.59-0.576-1.541,0.016-2.121
			C121.502,75.562,124.684,72.478,128.895,72.478z"/>
	</g>
	<g>
		<path fill="#575756" d="M113.88,92.574h-11.211V72.619c0-0.828,0.671-1.5,1.5-1.5c0.828,0,1.5,0.672,1.5,1.5v16.955h8.211
			c0.83,0,1.5,0.672,1.5,1.5S114.709,92.574,113.88,92.574z"/>
	</g>
	<g>
		<path fill="#F29100" d="M146.02,55.329c0,0-11.686-22.139-32.14-22.73C88.594,31.865,79.143,44.46,72.028,56.39
			c0,0-5.672,8.817,0,17.587c1.781,2.754,1.912,2.602,1.912,2.602l4.217-19.591c6.143,0.582,15.668,1.438,22.671,1.848
			c1.082,0.064,5.467-2.449,6.602-2.818c-0.442,1.26-0.948,1.658-1.557,3.041c2.097,0.045,3.519-0.014,3.875-0.225
			c2.004-1.186,7.862-3.504,7.862-3.504l1.449,3.742l19.598-2.721l5.123,20.036c0,0,0.459,0.344,2.24-2.41
			C151.692,65.207,146.02,55.329,146.02,55.329z"/>
	</g>
	<g>
		<circle fill="#F4A689" cx="132.574" cy="90.895" r="8.393"/>
	</g>
	<path fill="#B3DAC6" d="M124.182,174.117v18.065l4.197-2.866l4.195,2.866v-19.075C132.574,173.108,124.182,170.552,124.182,174.117
		z"/>
	<path fill="#39A935" d="M45.244,93.848c0,0,37.648-2.032,51.271,1.95c13.622,3.982,12.239,8.718,12.239,8.718s1.726,0.458,2.428,0
		c3.892-2.543,17.228-11.123,29.945-10.64c15.01,0.57,37.01,6.045,37.01,6.045l-3.332,87.082c0,0-16.021-11.333-33.678-13.333
		s-32.373,5.876-32.373,5.876s-11.335-12.112-26.976-10.994c-15.642,1.118-26.792,11.667-26.792,11.667L45.244,93.848z"/>
	<path fill="#009E3C" d="M109.417,104.516l0.821,75.03c2.821-1.263,15.19-7.917,30.889-6.139c17.656,2,33.678,13.333,33.678,13.333
		l3.332-87.082c0,0-22-5.475-37.01-6.045C128.705,93.142,113.659,101.779,109.417,104.516z"/>
	<path fill="#FCE4DB" d="M178.156,142.389c0,0,2.817-7.782,0-8.678c-2.818-0.896-4.818,1.965-4.818,3.368c0,0.868,0,2.69,0,3.957
		c-3.697-0.929-8.265-1.799-8.85-0.602c-1,2.049-0.272,3.624,0.833,4.25c1.314,0.744,2.917,1.333,2.917,1.333
		s-5.082,0.103-5.416,1.77s-0.056,3.48,1.916,3.647c1.05,0.089,2.6,0.715,2.6,0.715s-3.939,0.296-4,1.852
		c-0.098,2.517,0.65,3.433,5.317,4.767c0.028,0.008,0.057,0.017,0.084,0.024c-0.65,0.343-1.111,0.75-1.111,1.226
		c0,1.677,0.681,2.667,3.86,2.334s5.924-0.546,5.924-0.546S184.973,153.962,178.156,142.389z"/>
	<path fill="#FCE4DB" d="M62.482,137.774c-0.334-1.667-5.416-1.77-5.416-1.77s1.602-0.589,2.917-1.333
		c1.106-0.626,1.833-2.201,0.833-4.25c-0.584-1.197-5.152-0.327-8.85,0.602c0-1.267,0-3.089,0-3.957c0-1.403-2-4.264-4.818-3.368
		c-2.817,0.896,0,8.678,0,8.678c-6.817,11.573,0.744,19.417,0.744,19.417s2.744,0.213,5.924,0.546s3.861-0.657,3.861-2.334
		c0-0.476-0.461-0.883-1.112-1.226c0.028-0.008,0.056-0.017,0.084-0.024c4.667-1.334,5.415-2.25,5.317-4.767
		c-0.061-1.556-4-1.852-4-1.852s1.549-0.626,2.6-0.715C62.537,141.254,62.816,139.441,62.482,137.774z"/>
	<path fill="#54566D" d="M150.405,105.538l-13.834-0.09l-18.666,53.5h13.023l4.477-15.773l10.5,0.61l1.666,15.163h12.668
		L150.405,105.538z M147.155,133.772h-10.25l4.062-14.438l2.811-0.612L147.155,133.772z"/>
	<circle fill="#B3DAC6" cx="126.923" cy="151.332" r="2.565"/>
	<circle fill="#B3DAC6" cx="130.01" cy="140.168" r="2.565"/>
	<circle fill="#B3DAC6" cx="139.878" cy="138.853" r="2.565"/>
	<circle fill="#B3DAC6" cx="150.238" cy="139.852" r="2.565"/>
	<circle fill="#B3DAC6" cx="152.802" cy="151.332" r="2.565"/>
	<circle fill="#B3DAC6" cx="150.238" cy="128.978" r="2.565"/>
	<circle fill="#B3DAC6" cx="148.54" cy="118.249" r="2.565"/>
	<circle fill="#B3DAC6" cx="142.443" cy="110.281" r="2.565"/>
	<circle fill="#B3DAC6" cx="137.312" cy="119.63" r="2.565"/>
	<circle fill="#B3DAC6" cx="133.414" cy="129.838" r="2.565"/>
	<g>
		<path fill="#B3DAC6" d="M109.4,180.897C109.4,180.897,109.4,180.897,109.4,180.897c-0.829,0-1.5-0.672-1.5-1.5l0.017-75.863
			c0-0.828,0.672-1.5,1.5-1.5c0,0,0,0,0,0c0.828,0,1.5,0.672,1.5,1.5l-0.017,75.863C110.9,180.225,110.228,180.897,109.4,180.897z"
			/>
	</g>
</g>
</svg>
