<?xml version="1.0" encoding="utf-8"?>
<!-- Generator: Adobe Illustrator 16.0.0, SVG Export Plug-In . SVG Version: 6.00 Build 0)  -->
<!DOCTYPE svg PUBLIC "-//W3C//DTD SVG 1.1//EN" "http://www.w3.org/Graphics/SVG/1.1/DTD/svg11.dtd">
<svg version="1.1" id="Layer_1" xmlns="http://www.w3.org/2000/svg" xmlns:xlink="http://www.w3.org/1999/xlink" x="0px" y="0px"
	 width="226.77px" height="226.77px" viewBox="0 0 226.77 226.77" enable-background="new 0 0 226.77 226.77" xml:space="preserve">
<g>
	<g>
		<path fill="#B8C5CE" d="M172.91,145.754c-1.104,0-2-0.896-2-2s0.896-2,2-2c4.099,0,8.666-8.327,8.666-20.277
			c0-1.538-0.078-3.066-0.231-4.543c-0.114-1.099,0.684-2.082,1.782-2.196c1.11-0.107,2.081,0.685,2.196,1.782
			c0.168,1.613,0.253,3.281,0.253,4.957C185.576,135.09,180.013,145.754,172.91,145.754z"/>
	</g>
	<circle fill="#DDE6EB" cx="75.17" cy="100.443" r="54"/>
	<path fill="#B8C5CE" d="M86.485,130.831l-5.776-30.989c3.317-1.944,5.55-5.537,5.55-9.66c0-6.188-5.015-11.202-11.202-11.202
		s-11.202,5.015-11.202,11.202c0,4.387,2.527,8.174,6.199,10.012l-3.703,30.638H86.485z"/>
	<path fill="#DDE6EB" d="M91.898,90.302"/>
	<path fill="#575756" d="M169.561,62.07c-13.318,0-24.568,9-28.008,21.235H75.35c-3.866,0-7,3.134-7,7s3.134,7,7,7h9.548v8.497
		c0,3.866,3.134,7,7,7s7-3.134,7-7v-8.497h42.225c2.826,13.104,14.501,22.956,28.438,22.956c16.044,0,29.096-13.053,29.096-29.096
		S185.605,62.07,169.561,62.07z M169.561,106.261c-8.323,0-15.096-6.771-15.096-15.096s6.772-15.096,15.096-15.096
		c8.324,0,15.096,6.771,15.096,15.096S177.885,106.261,169.561,106.261z"/>
	<path fill="#E4133A" d="M172.871,136.188c-8.354-7.972-22.031-7.24-25.26,3.06c-2.371,7.561,18.143,27.604,24.053,31.335
		c9.816,6.198,16.857-9.093,22.343-15.802s10.11-18.426,5.478-23.412c-4.838-5.205-13.115-6.253-20.602-0.344
		C174.53,134.46,172.871,136.188,172.871,136.188z"/>
	<circle fill="#35A8E0" cx="175.403" cy="146.575" r="9"/>
	<g>
		<path fill="#B8C5CE" d="M172.91,146.999c-7.103,0-12.667-10.664-12.667-24.277c0-7.365,1.641-14.207,4.502-18.772
			c0.587-0.936,1.819-1.218,2.757-0.633c0.936,0.586,1.219,1.821,0.632,2.757c-2.437,3.888-3.891,10.111-3.891,16.647
			c0,11.95,4.567,20.277,8.667,20.277c1.104,0,2,0.896,2,2S174.015,146.999,172.91,146.999z"/>
	</g>
</g>
</svg>
