<?xml version="1.0" encoding="utf-8"?>
<!-- Generator: Adobe Illustrator 16.0.0, SVG Export Plug-In . SVG Version: 6.00 Build 0)  -->
<!DOCTYPE svg PUBLIC "-//W3C//DTD SVG 1.1//EN" "http://www.w3.org/Graphics/SVG/1.1/DTD/svg11.dtd">
<svg version="1.1" id="Layer_1" xmlns="http://www.w3.org/2000/svg" xmlns:xlink="http://www.w3.org/1999/xlink" x="0px" y="0px"
	 width="226.77px" height="226.77px" viewBox="0 0 226.77 226.77" enable-background="new 0 0 226.77 226.77" xml:space="preserve">
<g>
	<path fill="#F8C663" d="M103.652,164.999l-4.729-2.444v-26.169c0-1.104-0.896-2-2-2s-2,0.896-2,2v24.89l-9.349-2.089
		c-1.08-0.237-2.147,0.438-2.388,1.516c-0.175,0.782,0.138,1.555,0.732,2.016l-9.442,0.366c-1.104,0.042-1.964,0.972-1.921,2.075
		c0.042,1.078,0.928,1.923,1.997,1.923c0.026,0,0.053,0,0.079-0.002l11.68-0.453l-6.754,2.816c-1.019,0.425-1.501,1.596-1.076,2.615
		c0.32,0.769,1.063,1.231,1.847,1.231c0.256,0,0.517-0.05,0.769-0.155l15.961-6.656c0.13-0.055,0.25-0.121,0.362-0.197l4.395,2.271
		c0.294,0.152,0.607,0.224,0.917,0.224c0.724,0,1.423-0.395,1.778-1.082C105.017,166.712,104.633,165.506,103.652,164.999z"/>
	<g>
		<path fill="#ECEBE0" d="M82.628,76.365c0,0,5-22.979-12-25.979c-17-3-32.153,6.373-31,12.99c2.121,12.169,10.612,11.95,14,12.989
			c3.121,2.68-3.37,5.521-6,11.322c-3.13,6.904-8.75,26.524,25.5,47.273c26.18,15.859,72.333,6.772,72.333,6.772L82.628,76.365z"/>
	</g>
	<g>
		<path fill="#575756" d="M130.852,133.552c0,0,43.776,25.833,59.776,26.833s2.547-5.571-14-13.416S135.161,121.939,130.852,133.552
			z"/>
	</g>
	<g>
		<path fill="#575756" d="M120.852,123.449c0,0,43.776,25.833,59.776,26.833s2.547-5.571-14-13.416S125.161,111.836,120.852,123.449
			z"/>
	</g>
	<path fill="#FFD677" d="M94.578,169.513l-4.728-2.444v-28.888c0-1.104-0.896-2-2-2s-2,0.896-2,2v27.608l-9.349-2.089
		c-1.078-0.239-2.147,0.438-2.388,1.516c-0.175,0.782,0.138,1.555,0.732,2.016l-9.442,0.366c-1.104,0.042-1.964,0.972-1.921,2.075
		c0.042,1.078,0.928,1.923,1.997,1.923c0.026,0,0.053,0,0.079-0.002l11.68-0.453l-6.754,2.816c-1.019,0.425-1.501,1.596-1.076,2.615
		c0.32,0.769,1.063,1.231,1.847,1.231c0.256,0,0.517-0.05,0.769-0.155l15.961-6.656c0.13-0.054,0.25-0.121,0.362-0.197l4.394,2.271
		c0.294,0.152,0.607,0.224,0.917,0.224c0.724,0,1.423-0.395,1.778-1.082C95.943,171.227,95.559,170.02,94.578,169.513z"/>
	<g>
		<path fill="#575756" d="M71.614,50.587c-0.319-0.075-0.647-0.143-0.985-0.202c-17-3-32.153,6.373-31,12.99
			c1.826,10.476,8.37,11.771,12.317,12.591c5.948,0,12.917-0.477,19.69-9.22C75.978,61.142,72.685,50.841,71.614,50.587z"/>
	</g>
	<g>
		<path fill="#D4DDE2" d="M59.407,65.443c-0.231,0-0.462-0.013-0.693-0.039c-4.067-0.453-6.536-4.772-6.64-4.956
			c-0.27-0.481-0.099-1.089,0.381-1.36c0.479-0.27,1.09-0.102,1.362,0.379c0.021,0.036,2.082,3.617,5.125,3.95
			c1.77,0.197,3.604-0.755,5.463-2.82c0.371-0.41,1.001-0.442,1.413-0.074c0.41,0.37,0.443,1.002,0.074,1.413
			C63.794,64.266,61.615,65.443,59.407,65.443z"/>
	</g>
	<g>
		<path fill="#D4DDE2" d="M70.628,87.687c0,0,30-11.491,64,14.604s31,38.518,18,40.094s-44.346-11.835-63.173-22.917
			S58.629,99.009,70.628,87.687z"/>
	</g>
	<g>
		<path fill="#FFE28E" d="M39.567,60.103c0,0-13.005,0.645-15.835,1.213c-2.829,0.568-4.564,4.905-4.383,6.686
			c2.786,0,10.774-0.404,13.411-0.366c2.636,0.039,10.318-0.417,10.318-0.417S39.04,63.809,39.567,60.103z"/>
	</g>
	<g>
		<path fill="#FFD677" d="M22.261,67.938c0,0,0.248,1.572,3.498,2.072s14.672,0.193,16.047,0.104
			c-1.5-0.589,1.271-2.896,1.271-2.896L22.261,67.938z"/>
	</g>
</g>
</svg>
