<?xml version="1.0" encoding="utf-8"?>
<!-- Generator: Adobe Illustrator 16.0.0, SVG Export Plug-In . SVG Version: 6.00 Build 0)  -->
<!DOCTYPE svg PUBLIC "-//W3C//DTD SVG 1.1//EN" "http://www.w3.org/Graphics/SVG/1.1/DTD/svg11.dtd">
<svg version="1.1" id="Layer_1" xmlns="http://www.w3.org/2000/svg" xmlns:xlink="http://www.w3.org/1999/xlink" x="0px" y="0px"
	 width="226.77px" height="226.77px" viewBox="0 0 226.77 226.77" enable-background="new 0 0 226.77 226.77" xml:space="preserve">
<g>
	<polygon fill="#96A2A9" points="112.293,96.827 112.293,99.9 99.949,112.513 96.608,112.513 	"/>
</g>
<g>
	<g>
		<path fill="#35A8E0" d="M187.935,170.038c-2.647-5.291-57.944-61.265-57.944-61.265s-6.271-2.951-9.528-0.67
			c-3.256,2.279-3.694,0.732-3.694,0.732l-9.615-9.614l-7.664,6.729l10.406,10.405c0,0-1.637,8.79,2.152,11.84
			c1.838,1.479,51.898,54.39,59.76,57.969C179.67,189.745,190.888,175.944,187.935,170.038z M173.006,176.848
			c-1.529-1.528-1.529-4.006,0-5.535s4.006-1.528,5.535,0c1.528,1.529,1.529,4.006,0,5.536
			C177.012,178.377,174.534,178.377,173.006,176.848z"/>
	</g>
</g>
<g>
	
		<rect x="31.049" y="63.175" transform="matrix(0.7071 0.7071 -0.7071 0.7071 74.202 -30.6068)" fill="#C5D6E0" width="85.995" height="22.183"/>
</g>
<path fill="#96A2A9" d="M105.368,96.552l4.126-0.432l-0.104-0.994l-4.149,0.435l-0.519-4.058l0.025-0.002l-0.104-0.994l-4.202,0.44
	l-0.455-4.564l-0.036,0.004l-0.053-0.5l-5.555,0.582l-0.361-4.074l1.273-0.133l-0.104-0.994l-6.161,0.646l-0.38-4.073l1.898-0.199
	l-0.104-0.994l-7.498,0.786l-0.345-4.075l3.201-0.335l-0.104-0.994l-3.181,0.333l-0.166-1.963l-0.996,0.084l0.168,1.983
	l-4.925,0.516l-0.385-4.072l4.843-0.507l-0.104-0.994l-4.833,0.506l-0.385-4.071l0.575-0.06l-0.104-0.994l-5.959,0.624l-0.376-4.072
	l1.694-0.178l-0.104-0.994l-7.419,0.777l-0.376-4.072l3.153-0.33l-0.104-0.994l-3.14,0.329l-0.352-3.807l-0.721,0.066l-0.094-0.896
	l-4.759,0.499l-0.336-3.801l0.822-0.069l-0.084-0.996l-6.408,0.539l-0.263-2.751l3.333-0.201l-0.06-0.998l-3.368,0.203l-0.002-0.022
	l-0.644,0.061l-3.324,0.2l0.06,0.998l3.006-0.181l0.265,2.775l-4.729,0.398l-0.125-1.483l-0.996,0.084l0.125,1.482l-2.633,0.222
	l0.084,0.996l2.633-0.222l0.341,4.056l-6.514,0.683l0.104,0.994l6.494-0.681l0.313,3.72l-2.604,0.273l0.104,0.994l2.583-0.271
	l0.296,3.516l0.996-0.084l-0.297-3.536l4.84-0.507l0.388,4.071l-4.164,0.436l0.104,0.994l4.155-0.435l0.508,5.326l0.995-0.095
	l-0.026-0.269l4.433-0.464l0.36,4.074l-1.036,0.108l0.104,0.994l6.593-0.69l0.376,4.073l-2.327,0.244l0.104,0.994l2.314-0.242
	l0.269,2.91l0.996-0.092l-0.27-2.923l4.743-0.497l0.376,4.072l-3.787,0.396l0.104,0.994l3.775-0.396l0.422,4.564l0.498-0.046
	l0.052,0.497l4.936-0.517l0.385,4.072l-0.678,0.071l0.104,0.994l6.428-0.674l0.345,4.076l-2.131,0.223l0.104,0.994l2.111-0.221
	l0.212,2.512l0.996-0.084l-0.214-2.532l4.758-0.499l0.381,4.072l-3.602,0.377l0.104,0.994l3.59-0.376l0.369,3.943l-0.204,0.017
	l0.084,0.996l5.024-0.422l0.288,3.24l-0.749,0.077l0.103,0.995l0.734-0.076l0.002,0.02l0.996-0.088l-0.003-0.034l5.819-0.599
	l-0.41-4.105l4.478-0.376L105.368,96.552z M103.728,91.607l0.519,4.058l-3.3,0.346l-0.406-4.069L103.728,91.607z M95.241,96.608
	l-0.361-4.074l4.666-0.489l0.406,4.069L95.241,96.608z M100.051,97.109l0.415,4.156l-4.776,0.402l-0.36-4.063L100.051,97.109z
	 M99.041,86.981l0.406,4.07l-4.655,0.488l-0.361-4.074L99.041,86.981z M93.797,91.642l-3.86,0.404l-0.38-4.072l3.879-0.407
	L93.797,91.642z M92.987,82.499l0.361,4.074l-3.885,0.407l-0.38-4.072L92.987,82.499z M88.469,87.084l-4.705,0.493l-0.345-4.076
	l4.669-0.489L88.469,87.084z M87.614,77.944l0.381,4.072l-4.661,0.488l-0.345-4.076L87.614,77.944z M82.34,82.609l-4.826,0.506
	l-0.385-4.072l4.866-0.51L82.34,82.609z M81.566,73.461l0.345,4.075l-4.875,0.511l-0.385-4.071L81.566,73.461z M75.562,73.085
	l-4.421,0.463l-0.377-4.073l4.414-0.462L75.562,73.085z M74.698,63.947l0.385,4.071l-4.411,0.462l-0.376-4.072L74.698,63.947z
	 M69.677,68.584l-4.743,0.497l-0.376-4.072l4.743-0.497L69.677,68.584z M68.832,59.444l0.376,4.073l-4.743,0.497l-0.376-4.073
	L68.832,59.444z M63.471,64.118l-4.554,0.477l-0.36-4.075l4.538-0.475L63.471,64.118z M63.003,59.05l-4.534,0.475l-0.36-4.074
	l4.518-0.473L63.003,59.05z M62.191,50.264l0.343,3.718l-4.514,0.473l-0.329-3.719L62.191,50.264z M57.026,54.559l-4.511,0.473
	l-0.354-3.716l4.537-0.476L57.026,54.559z M56.272,46.022l0.337,3.822l-4.543,0.476l-0.373-3.913L56.272,46.022z M45.956,46.89
	l4.74-0.399l0.375,3.933l-4.776,0.5L45.956,46.89z M46.692,55.642l-0.312-3.72l4.787-0.502l0.354,3.716L46.692,55.642z
	 M52.611,56.027l4.503-0.472l0.36,4.074l-4.475,0.469L52.611,56.027z M53.483,65.164l-0.389-4.072l4.468-0.468l0.36,4.075
	L53.483,65.164z M59.365,69.664l-0.36-4.073l4.559-0.478l0.376,4.072L59.365,69.664z M65.403,74.149l-0.376-4.073l4.743-0.497
	l0.376,4.073L65.403,74.149z M71.233,74.544l4.424-0.463l0.385,4.071l-4.432,0.464L71.233,74.544z M72.078,83.684l-0.377-4.073
	l4.434-0.464l0.385,4.072L72.078,83.684z M77.993,88.181l-0.385-4.072l4.816-0.504l0.345,4.076L77.993,88.181z M84.193,92.648
	l-0.345-4.075l4.713-0.494l0.381,4.072L84.193,92.648z M90.03,93.042l3.855-0.404l0.361,4.074l-3.836,0.401L90.03,93.042z
	 M90.874,102.072l-0.371-3.963l3.831-0.401l0.358,4.043L90.874,102.072z M100.877,105.39l-4.814,0.495l-0.286-3.222l4.788-0.403
	L100.877,105.39z M101.046,97.005l3.328-0.349l0.542,4.235l-3.453,0.291L101.046,97.005z"/>
</svg>
