<?xml version="1.0" encoding="utf-8"?>
<!-- Generator: Adobe Illustrator 16.0.0, SVG Export Plug-In . SVG Version: 6.00 Build 0)  -->
<!DOCTYPE svg PUBLIC "-//W3C//DTD SVG 1.1//EN" "http://www.w3.org/Graphics/SVG/1.1/DTD/svg11.dtd">
<svg version="1.1" id="Layer_1" xmlns="http://www.w3.org/2000/svg" xmlns:xlink="http://www.w3.org/1999/xlink" x="0px" y="0px"
	 width="226.77px" height="226.77px" viewBox="0 0 226.77 226.77" enable-background="new 0 0 226.77 226.77" xml:space="preserve">
<g>
	<g>
		<path fill="#FFD88B" d="M177.788,144.995c0,2.586-2.095,4.68-4.679,4.68h-28.76c-2.584,0-4.678-2.094-4.678-4.68l0,0
			c0-2.582,2.094-4.679,4.678-4.679h28.76C175.694,140.317,177.788,142.413,177.788,144.995L177.788,144.995z"/>
		<path fill="#FFD88B" d="M41.05,144.995c0,2.586-2.095,4.68-4.679,4.68H7.612c-2.584,0-4.679-2.094-4.679-4.68l0,0
			c0-2.582,2.095-4.679,4.679-4.679H36.37C38.955,140.317,41.05,142.413,41.05,144.995L41.05,144.995z"/>
		<rect x="21.99" y="128.629" fill="#FFE28E" width="136.824" height="31.966"/>
	</g>
	<g>
		<path fill="#54566D" d="M200.487,74.57c-9.867-0.459-17.826-0.104-22.809,0.279c0.012-3.266,0.062-6.136,0.178-7.76
			l-16.088,13.238l16.088,13.239c0,0-0.062-3.24-0.113-7.507c4.355-0.211,10.932-0.148,18.92,1.128
			c2.586,0.412,4.68,1.033,6.398,1.814V74.811C202.239,74.699,201.389,74.612,200.487,74.57z"/>
	</g>
	<path fill="#FFE6C0" d="M139.683,83.82c-0.511,0-1.019,0.016-1.522,0.043c-4.216-5.637-10.944-9.285-18.524-9.285
		c-4.493,0-8.684,1.286-12.233,3.504c-3.723-1.395-7.751-2.162-11.961-2.162c-18.833,0-34.101,15.268-34.101,34.101
		s15.268,34.101,34.101,34.101c10.264,0,19.462-4.542,25.714-11.718c4.92,4.396,11.41,7.07,18.526,7.07
		c15.368,0,27.826-12.459,27.826-27.826C167.509,96.279,155.051,83.82,139.683,83.82z"/>
	<path fill="#95CFC4" d="M172.178,108.591H55.775c0,26.387,17.563,48.658,41.634,55.795h-0.032v5.198h32.978v-5.146
		C154.522,157.363,172.178,135.046,172.178,108.591z"/>
	<g>
		<g>
			<path fill="#F4F2E7" d="M112.609,123.193c-1.854-1.714-8.368-3.176-7.732,0.302c0.636,3.478,7.802,7.601,7.802,7.601
				s7.937-6.047,7.667-8.703C120.074,119.734,113.969,119.469,112.609,123.193z"/>
		</g>
		<g>
			<path fill="#F4F2E7" d="M103.379,127.855c0,0-4.225-1.334-5.793-0.94c-1.567,0.396-3.174,1.959-3.174,1.959
				S100.178,131.317,103.379,127.855z"/>
		</g>
		<g>
			<path fill="#F4F2E7" d="M105.827,130.762c0,0-4.823,0.356-5.699,3.56c-0.876,3.202,1.623,3.104,3.549,1.196
				C105.605,133.607,105.827,130.762,105.827,130.762z"/>
		</g>
		<g>
			<path fill="#F4F2E7" d="M121.153,126.714c0,0,4.108-1.661,5.701-1.389c1.594,0.27,3.317,1.704,3.317,1.704
				S124.613,129.914,121.153,126.714z"/>
		</g>
		<g>
			<path fill="#F4F2E7" d="M118.938,129.803c0,0,4.836-0.021,5.959,3.104c1.122,3.125-1.376,3.222-3.445,1.467
				C119.381,132.622,118.938,129.803,118.938,129.803z"/>
		</g>
	</g>
</g>
<path fill="#FFE4AA" d="M188.573,164.485c-1.342-1.416-3.236-2.304-5.342-2.304c-4.07,0-7.369,3.299-7.369,7.369
	c0,0.012,0.002,0.022,0.002,0.034h7.367h7.367h2.83c0-0.008,0.002-0.016,0.002-0.023
	C193.43,166.826,191.274,164.615,188.573,164.485z"/>
</svg>
