<?xml version="1.0" encoding="utf-8"?>
<!-- Generator: Adobe Illustrator 16.0.0, SVG Export Plug-In . SVG Version: 6.00 Build 0)  -->
<!DOCTYPE svg PUBLIC "-//W3C//DTD SVG 1.1//EN" "http://www.w3.org/Graphics/SVG/1.1/DTD/svg11.dtd">
<svg version="1.1" id="Layer_1" xmlns="http://www.w3.org/2000/svg" xmlns:xlink="http://www.w3.org/1999/xlink" x="0px" y="0px"
	 width="226.77px" height="226.77px" viewBox="0 0 226.77 226.77" enable-background="new 0 0 226.77 226.77" xml:space="preserve">
<g>
	<path fill="#C5D6E0" d="M54.351,175.112c0,0,13.158,23.75,50.178,25.146c37.02,1.396,63.063-10.479,60.12-25.146
		c-3.199-15.949-16.664-18.859-41.885-20.955C97.544,152.063,57.444,156.951,54.351,175.112z"/>
	<path fill="#575756" d="M110.406,201.369c-0.003,0-0.001,0-0.004,0c-1.944,0-3.933-0.037-5.91-0.111
		c-19.388-0.732-32.206-7.639-39.545-13.305c-7.989-6.168-11.332-12.107-11.47-12.357l-0.17-0.307l0.059-0.346
		c1.266-7.432,8.542-13.428,21.042-17.34c10.096-3.158,23.218-4.898,36.949-4.898c3.988,0,7.855,0.152,11.492,0.455
		c23.6,1.961,39.326,4.535,42.781,21.756c0.781,3.889-0.264,7.619-3.105,11.088C154.756,195.483,134.785,201.369,110.406,201.369z
		 M55.403,174.922c1.683,2.715,15.422,23.064,49.164,24.338c1.953,0.072,3.916,0.109,5.834,0.109
		c23.439,0.002,43.291-5.742,50.576-14.633c2.443-2.982,3.348-6.154,2.691-9.428c-2.941-14.666-14.492-17.953-40.986-20.156
		c-3.582-0.297-7.393-0.447-11.326-0.447c-13.337,0-26.587,1.752-36.351,4.807C66.938,162.037,57.052,166.75,55.403,174.922z"/>
</g>
<g>
	<path fill="#575756" d="M110.465,195.957c-1.897,0-3.817-0.037-5.759-0.109c-19.388-0.732-32.206-7.639-39.545-13.305
		c-7.989-6.168-11.332-12.107-11.47-12.357l1.749-0.969c0.13,0.232,13.367,23.275,49.342,24.633
		c25.766,0.973,47.68-4.6,55.846-14.193c2.617-3.074,3.598-6.357,2.916-9.758l1.961-0.393c0.797,3.975-0.363,7.934-3.354,11.447
		C154.233,190.254,134.301,195.957,110.465,195.957z"/>
</g>
<path fill="#575756" d="M165.649,91.585v-2.31c0.213-0.827,0.17-1.597-0.057-2.33c-1.07-27.421-21.895-49.842-48.611-53.416
	c-0.066-0.786,0.025-1.769,0.127-2.804c0.246-2.524,0.525-5.384-1.283-7.376c-1.281-1.412-3.365-2.099-6.373-2.099
	c-1.058,0-2,0.429-2.725,1.24c-2.258,2.528-2.057,8.406-1.877,10.733c-26.171,2.158-47.304,22.329-50.935,48.061
	c-0.005,0.033-0.021,0.064-0.025,0.097c-0.004,0.031,0.003,0.062,0,0.093c-0.234,1.699-0.398,3.42-0.476,5.164l-0.01-0.001
	c-0.011,0.093,0.005,0.189,0.003,0.283c-0.03,0.745-0.057,1.491-0.057,2.243v85.948h2V91.192c0.491,0.633,1.013,1.248,1.504,1.818
	c0.244,0.284,0.477,0.554,0.688,0.807c1.161,1.394,3.698,3.851,8.57,6.25v88.251h2v-87.332c3.875,1.67,8.977,3.239,15.642,4.313
	v91.883h2v-57.293c2.385-0.033,8.609,0.025,15.499,0.113v60.891h2v-60.863c5.461,0.072,11.133,0.16,15.498,0.232v59.754h2v-67.924
	c2.727-0.258,4.873-2.531,4.873-5.324c0-2.791-2.146-5.066-4.873-5.324v-15.712c6.438-0.65,13.223-1.629,20.342-2.934v93.351h2
	v-93.728c3.672-0.699,7.432-1.481,11.277-2.351v90.659h2V99.624c2.734-0.625,5.48-1.418,7.279-2.617v78.105h2V93.647
	C165.83,92.92,165.815,92.238,165.649,91.585z M55.879,81.686c0.005-0.038,0.009-0.077,0.015-0.115
	c0.196-1.059,2.412-2.606,3.751-3.537c0.479-0.334,0.925-0.645,1.289-0.923c2.29-1.757,5.215-3.309,8.625-4.646
	c-0.285,0.839-0.558,1.688-0.812,2.555c-3.56,1.403-6.613,3.046-9.039,4.909c-0.342,0.263-0.762,0.554-1.213,0.868
	c-0.82,0.571-1.679,1.175-2.437,1.815C55.93,82.272,55.859,81.957,55.879,81.686z M163.625,88.248c-0.443-0.501-0.924-1-1.412-1.505
	c-0.312-0.325-0.635-0.658-0.957-1.001c-1.678-1.793-3.77-3.466-6.211-5.009c-0.189-0.814-0.393-1.625-0.619-2.426
	c2.105,1.368,3.918,2.837,5.379,4.398c0.328,0.351,0.658,0.691,0.979,1.023c1.414,1.463,2.434,2.58,2.82,3.629
	C163.614,87.653,163.621,87.95,163.625,88.248z M152.637,79.316c-3.682-2.016-8.014-3.768-12.877-5.215
	c-0.273-0.861-0.561-1.715-0.859-2.564c4.92,1.449,9.303,3.213,12.979,5.245C152.153,77.62,152.403,78.465,152.637,79.316z
	 M118.448,98.694c-5.291,0.472-10.343,0.717-15.138,0.732c0.634-11.479,0.768-18.141,0.865-23.033
	c0.037-1.875,0.069-3.478,0.122-4.984c2.302,0.001,4.64,0.056,7.009,0.171c2.523,0.124,4.998,0.314,7.422,0.563
	C118.844,82.482,118.469,97.854,118.448,98.694z M102.382,69.42c-5.648,0.074-11.058,0.483-16.085,1.205
	c0.167-0.815,0.372-1.632,0.608-2.451c4.874-0.683,10.128-1.073,15.631-1.145C102.472,67.839,102.423,68.63,102.382,69.42z
	 M111.403,69.582c-2.371-0.116-4.712-0.171-7.02-0.174c0.042-0.796,0.092-1.589,0.157-2.401c4.837,0.005,9.556,0.248,14.089,0.703
	c0.027,0.745,0.049,1.551,0.066,2.414C116.319,69.887,113.887,69.703,111.403,69.582z M120.639,67.927
	c5.68,0.658,11.037,1.656,15.922,2.954c0.314,0.851,0.615,1.708,0.906,2.573c-5.109-1.375-10.74-2.427-16.766-3.115
	C120.684,69.485,120.664,68.675,120.639,67.927z M120.442,64.391c-0.578-6.121-3.359-22.891-4.279-28.362
	c2.914,3.532,13.115,16.521,19.531,32.587c-4.699-1.179-9.785-2.095-15.143-2.708C120.52,65.341,120.483,64.83,120.442,64.391z
	 M138.057,69.241c-5.99-15.666-15.656-28.63-19.52-33.457c1.807,0.305,3.582,0.7,5.324,1.179
	c1.969,1.691,19.484,17.138,27.051,37.08C147.168,72.183,142.836,70.57,138.057,69.241z M113.998,35.217
	c0.604,3.58,3.84,22.873,4.453,29.362c0.031,0.328,0.057,0.709,0.082,1.116c-4.453-0.441-9.079-0.676-13.809-0.687
	c0.267-2.581,0.682-5.555,1.364-9.685c1.904-11.535,6.108-18.426,7.267-20.155C113.57,35.183,113.784,35.199,113.998,35.217z
	 M104.115,54.997c-0.704,4.265-1.129,7.351-1.399,10.03c-5.295,0.062-10.377,0.414-15.127,1.041
	c5.234-14.706,20.052-28.948,22.293-31.042c0.39,0.002,0.776,0.019,1.164,0.029C109.312,37.885,105.835,44.579,104.115,54.997z
	 M96.337,46.99c-5.399,6.978-9.066,13.468-10.992,19.404c-4.505,0.691-8.688,1.625-12.435,2.79
	c9.037-21.805,27.717-32.598,29.753-33.721c1.41-0.178,2.833-0.314,4.275-0.382C104.61,37.37,100.458,41.663,96.337,46.99z
	 M84.731,68.498c-0.214,0.828-0.403,1.647-0.546,2.452c-4.786,0.787-9.188,1.866-13.081,3.206c0.279-0.872,0.569-1.733,0.878-2.575
	C75.762,70.298,80.045,69.256,84.731,68.498z M59.637,82.439c0.479-0.334,0.925-0.645,1.289-0.923
	c1.966-1.509,4.374-2.866,7.144-4.062c-1.075,4.271-1.771,8.868-1.957,13.799l1,0.038h-1v1.135
	c-3.079-1.634-5.329-3.405-6.774-5.142l-0.343-0.41c-0.57-0.68-1.314-1.574-1.936-2.468C57.855,83.685,58.882,82.964,59.637,82.439z
	 M68.112,91.319c0.202-5.339,1.037-10.262,2.294-14.804c3.938-1.471,8.49-2.648,13.495-3.5c-0.091,0.882-0.147,1.752-0.147,2.603
	v21.536v0.798c-6.423-1.088-11.616-2.694-15.642-4.541V91.319z M85.754,97.154V75.617c0-0.968,0.08-1.948,0.205-2.931
	c5.077-0.756,10.575-1.188,16.337-1.266c-0.052,1.508-0.084,3.098-0.121,4.932c-0.098,4.893-0.231,11.558-0.868,23.065
	c-5.784-0.063-10.961-0.477-15.553-1.15V97.154z M101.252,101.414v3.294c-5.906-0.056-11.044-0.471-15.499-1.12v-3.272
	C90.229,100.95,95.367,101.352,101.252,101.414z M101.252,106.676v5.16c-6.552-0.083-12.917-0.146-15.499-0.113v-6.13
	C90.571,106.266,95.746,106.622,101.252,106.676z M103.252,101.426c4.908-0.013,10.081-0.266,15.498-0.752v3.255
	c-5.657,0.525-10.809,0.769-15.498,0.789V101.426z M120.453,98.507c0.055-2.256,0.385-16.286,0.277-26.143
	c6.297,0.744,12.188,1.903,17.473,3.414c1.936,6.403,3.092,13.113,2.852,19.784C133.852,96.879,126.977,97.862,120.453,98.507z
	 M143.061,94.905c0.135-6.221-0.877-12.457-2.584-18.445c4.93,1.557,9.266,3.433,12.826,5.569c0.764,3.523,1.145,7.139,1.035,10.803
	c-3.83,0.867-7.578,1.648-11.246,2.346v-0.273H143.061z M156.34,92.239c0.043-2.95-0.215-5.857-0.719-8.7
	c1.604,1.131,3.008,2.322,4.176,3.57c0.328,0.351,0.658,0.691,0.979,1.023c0.713,0.738,1.318,1.383,1.805,1.981
	c-1.172,0.791-3.248,1.543-6.211,2.251v-0.125H156.34z M163.356,83.534c-0.363-0.397-0.746-0.795-1.135-1.196
	c-0.312-0.325-0.635-0.658-0.957-1.001c-2.004-2.14-4.615-4.115-7.73-5.898c-3.02-8.932-7.971-16.857-12.455-22.812
	c-4.711-6.256-9.506-11.193-12.633-14.184C147.303,45.51,161.203,62.8,163.356,83.534z M108.219,23.823
	c0.349-0.39,0.741-0.572,1.233-0.572c2.377,0,4.023,0.485,4.892,1.442c1.211,1.336,0.988,3.625,0.772,5.839
	c-0.095,0.969-0.173,1.896-0.144,2.755c-1.801-0.175-3.625-0.271-5.472-0.271c-0.891,0-1.775,0.026-2.656,0.067
	C106.652,30.527,106.634,25.596,108.219,23.823z M97.465,36.381c-6.926,4.777-20.149,15.774-27.016,33.624
	c-4.304,1.534-7.951,3.384-10.733,5.519c-0.342,0.263-0.762,0.554-1.213,0.869c-0.647,0.45-1.316,0.922-1.944,1.415
	C60.959,57.278,77.03,41.039,97.465,36.381z M59.079,92.538c-0.217-0.261-0.457-0.54-0.709-0.833
	c-1.185-1.377-2.925-3.414-2.966-4.633c0.014-0.365,0.027-0.73,0.048-1.093l0.297,0.037c0.552,0.747,1.152,1.472,1.713,2.142
	l0.338,0.404c1.045,1.255,3.509,3.69,8.312,6.108v3.062C61.685,95.401,59.647,93.22,59.079,92.538z M68.112,98.718v-3.103
	c3.855,1.698,8.965,3.304,15.642,4.397v3.263C76.953,102.125,71.852,100.433,68.112,98.718z M85.754,137.895v-24.175
	c2.385-0.031,8.61,0.027,15.499,0.115v24.173C94.7,137.924,88.336,137.864,85.754,137.895z M103.252,138.033v-24.172
	c5.461,0.073,11.133,0.16,15.498,0.231v24.172C116.293,138.225,109.88,138.121,103.252,138.033z M123.623,126.77
	c0,1.689-1.25,3.08-2.873,3.324v-6.648C122.373,123.692,123.623,125.08,123.623,126.77z M118.75,112.092
	c-2.457-0.04-8.87-0.142-15.498-0.23v-5.169c4.908-0.019,10.078-0.277,15.498-0.772V112.092z M120.75,103.731v-3.243
	c6.451-0.641,13.24-1.608,20.342-2.899v3.176C133.696,102.132,126.93,103.097,120.75,103.731z M143.092,100.394v-3.181
	c3.678-0.695,7.438-1.474,11.277-2.338v3.148C150.461,98.911,146.699,99.702,143.092,100.394z M156.369,97.563v-3.138
	c2.701-0.618,5.434-1.403,7.246-2.603c0.012,0.032,0.023,0.064,0.033,0.097v2.232C163.272,95.358,160.809,96.504,156.369,97.563z"/>
</svg>
