<?xml version="1.0" encoding="utf-8"?>
<!-- Generator: Adobe Illustrator 16.0.0, SVG Export Plug-In . SVG Version: 6.00 Build 0)  -->
<!DOCTYPE svg PUBLIC "-//W3C//DTD SVG 1.1//EN" "http://www.w3.org/Graphics/SVG/1.1/DTD/svg11.dtd">
<svg version="1.1" id="Layer_1" xmlns="http://www.w3.org/2000/svg" xmlns:xlink="http://www.w3.org/1999/xlink" x="0px" y="0px"
	 width="226.77px" height="226.77px" viewBox="0 0 226.77 226.77" enable-background="new 0 0 226.77 226.77" xml:space="preserve">
<g>
	<path fill="#683B11" d="M153.426,135.238c-0.961-7.594-10.872-11.738-10.879-11.742c-8.767,3.107-75.258,33.811-86.446,37.107
		c1.735-0.088,6.947-0.148,9.589,2.137c3.23,2.795,5.982,1.85,8.456,12.141c0.768,3.191-4.551,10.285-5.966,11.246
		c10.338-5.441,76.156-36.807,84.434-39.828l0,0C152.614,146.298,154.389,142.833,153.426,135.238z"/>
	<path fill="#DA913F" d="M52.214,180.255c2.608,8.266,12.947,9.584,17.924,4.775c7.323-7.078,4.82-18.471-4.621-23.217
		C55.406,156.73,46.705,162.782,52.214,180.255z"/>
	<path fill="#7E4E24" d="M143.189,146.269c-0.544,2.791-1.848,9.584-1.848,9.584l2.403-0.396l3.035-9.188
		C146.78,146.269,144.724,143.679,143.189,146.269z"/>
	
		<ellipse transform="matrix(0.9697 -0.2444 0.2444 0.9697 -33.744 39.5612)" fill="#FBC779" cx="142.547" cy="155.758" rx="1.235" ry="0.791"/>
	<path fill="#FBC779" d="M61.205,161.677c0.65,0.178,6.334,1.537,8.35,5.479c2.015,3.939,3.022,5.404,2.474,8.887
		c-0.551,3.48-3.023,7.613-3.207,7.838c-0.185,0.223-1.743,3.354-6.323,2.697s-6.608-1.227-7.85-3.777
		c-1.859-3.826-2.663-2.086-2.638-7.977c0.023-5.893,1.078-11.842,4.09-12.777C59.111,161.109,60.249,161.411,61.205,161.677z"/>
	<path fill="#DA913F" d="M63.113,184.62c0,0,0.205-0.061,0.68-0.145c0.445-0.094,1.017-0.135,1.436-0.525
		c0.454-0.391,0.873-1.217,1.241-2.223c0.372-0.994,0.747-2.238,1.147-3.541c0.387-1.311,0.768-2.721,0.939-4.182
		c0.147-1.459,0.022-2.957-0.712-4.258c-0.172-0.33-0.394-0.637-0.629-0.941c-0.229-0.293-0.556-0.688-0.82-0.984
		c-0.556-0.635-1.157-1.266-1.794-1.801c-0.638-0.537-1.321-0.98-2.039-1.246c-0.717-0.271-1.478-0.326-2.266-0.232
		c-0.18,0.031-0.436,0.072-0.555,0.102c-0.205,0.062-0.487,0.117-0.622,0.188c-0.312,0.117-0.699,0.289-1.026,0.506
		c-0.676,0.42-1.277,0.979-1.772,1.615c-0.985,1.283-1.581,2.852-1.731,4.436c-0.176,1.578,0.062,3.176,0.434,4.65
		c0.375,1.475,0.925,2.82,1.541,3.988c0.619,1.168,1.338,2.148,2.094,2.869c0.748,0.732,1.536,1.186,2.217,1.436
		c0.685,0.246,1.262,0.309,1.654,0.309s0.604-0.021,0.604-0.021l0.135,0.99c0,0-0.247,0.043-0.72,0.072
		c-0.471,0.029-1.182,0-2.04-0.25c-0.848-0.264-1.823-0.775-2.726-1.58c-0.913-0.795-1.763-1.854-2.501-3.102
		c-0.743-1.25-1.356-2.697-1.817-4.287c-0.446-1.586-0.774-3.35-0.626-5.232c0.129-1.863,0.758-3.814,1.992-5.424
		c0.612-0.803,1.366-1.521,2.248-2.082c0.441-0.289,0.896-0.514,1.447-0.719c0.288-0.119,0.466-0.145,0.701-0.219
		c0.328-0.084,0.531-0.107,0.806-0.158c1.04-0.145,2.178-0.072,3.19,0.301c1.016,0.365,1.892,0.941,2.649,1.564
		c0.762,0.631,1.413,1.307,2.039,2.006c0.33,0.369,0.574,0.652,0.89,1.051c0.301,0.395,0.583,0.801,0.811,1.242
		c0.465,0.873,0.764,1.82,0.891,2.754c0.118,0.936,0.071,1.838-0.032,2.688c-0.234,1.693-0.721,3.176-1.202,4.496
		c-0.488,1.322-0.91,2.494-1.39,3.588c-0.491,1.061-1.039,2.018-1.87,2.639c-0.412,0.305-0.879,0.455-1.238,0.516
		c-0.363,0.061-0.634,0.061-0.849,0.076c-0.386,0.018-0.633,0.057-0.633,0.057L63.113,184.62z"/>
	<path fill="#DA913F" d="M65.071,179.198c0.024-0.076,0.059-0.184,0.104-0.33c0.068-0.25,0.186-0.674,0.283-1.227
		c0.195-1.094,0.41-2.736,0.164-4.592c-0.127-0.914-0.386-1.891-0.907-2.695l-0.203-0.295l-0.051-0.076c0,0-0.035-0.049-0.006-0.014
		l-0.035-0.043l-0.142-0.176c-0.193-0.25-0.373-0.445-0.548-0.631c-0.375-0.387-0.802-0.781-1.273-1.092
		c-0.925-0.629-2.08-1.092-3.099-0.898c-0.5,0.107-0.948,0.336-1.275,0.822l-0.312,0.402c-0.085,0.131-0.129,0.26-0.196,0.391
		c-0.124,0.258-0.271,0.508-0.346,0.83c-0.426,1.201-0.528,2.543-0.44,3.832l0.095,0.967c0.043,0.32,0.127,0.633,0.195,0.943
		c0.116,0.633,0.34,1.225,0.555,1.811c0.115,0.291,0.176,0.592,0.374,0.852c0.184,0.262,0.475,0.475,0.737,0.678
		c0.542,0.402,0.706,0.965,1.017,1.43c0.564,0.926,1.187,1.801,1.69,2.107c0.248,0.143,0.365,0.145,0.592,0.113l0.021-0.002h0.011
		c-0.171,0.053-0.042,0.012-0.077,0.023l0.01-0.004l0.082-0.027l0.162-0.057c0.094-0.037,0.081-0.053,0.132-0.07
		c0.098-0.059,0.256-0.154,0.381-0.262c0.538-0.416,0.987-0.949,1.335-1.377c0.35-0.436,0.608-0.799,0.779-1.047
		C64.965,179.357,65.029,179.263,65.071,179.198z M66.832,180.157c0,0-0.099,0.154-0.283,0.447
		c-0.185,0.281-0.458,0.688-0.842,1.189c-0.396,0.498-0.859,1.104-1.6,1.748c-0.187,0.164-0.384,0.312-0.659,0.486
		c-0.145,0.082-0.345,0.191-0.461,0.238l-0.159,0.064l-0.08,0.031l-0.107,0.035l-0.032,0.008l-0.065,0.014
		c-0.676,0.193-1.599,0.057-2.221-0.346c-1.242-0.801-1.819-1.885-2.401-2.973c-0.242-0.566-0.626-1.074-0.595-1.789
		c0-0.352,0.038-0.705-0.029-1.018c-0.071-0.307-0.217-0.605-0.32-0.912c-0.232-0.611-0.473-1.23-0.603-1.895
		c-0.072-0.328-0.181-0.65-0.236-0.986l-0.142-1.021c-0.138-1.365-0.179-2.801,0.213-4.207c0.057-0.352,0.214-0.713,0.367-1.074
		c0.077-0.176,0.148-0.371,0.233-0.533l0.273-0.43c0.372-0.684,1.135-1.254,1.924-1.477c1.633-0.457,3.161,0.109,4.37,0.789
		c0.623,0.35,1.159,0.771,1.674,1.229c0.265,0.242,0.51,0.48,0.699,0.693l0.154,0.162l0.038,0.041
		c0.055,0.062,0.038,0.049,0.061,0.076l0.077,0.105l0.307,0.428c0.754,1.168,1.03,2.402,1.199,3.492
		c0.292,2.205,0.048,3.988-0.166,5.229c-0.109,0.619-0.237,1.102-0.339,1.465l-0.187,0.592L66.832,180.157z"/>
	<path fill="#DA913F" d="M62.04,178.437c0,0,0.032-0.082,0.093-0.236c-0.002-0.016,0.045-0.18,0.103-0.438
		c0.094-0.504,0.258-1.367,0.304-2.463c0.03-1.088-0.149-2.393-0.485-3.686c-0.087-0.32-0.19-0.639-0.314-0.922
		c-0.092-0.275-0.344-0.549-0.261-0.502c0.015,0.01,0.161,0.01,0.153-0.004c-0.085,0.016-0.208,0.029-0.263,0.047
		c-0.052,0.02-0.104,0.033-0.16,0.047l-0.212,0.088c-0.281,0.133-0.564,0.309-0.808,0.529c-0.509,0.424-0.862,1.012-1.03,1.621
		c-0.166,0.615-0.12,1.268,0.098,1.859c0.201,0.564,0.567,1.207,0.933,1.727c0.365,0.533,0.763,1,1.147,1.385
		c0.381,0.383,0.763,0.68,1.036,0.838c0.068,0.037,0.136,0.078,0.178,0.078c0.044,0.01,0.092,0.039,0.086,0.01
		c0.006-0.006,0.012-0.01-0.059-0.045c-0.045-0.01-0.109-0.021-0.207-0.023c-0.356,0.066-0.354,0.18-0.336,0.102
		c0.017-0.057,0.035-0.078,0.035-0.078L62.04,178.437z M64.676,179.609l-0.008,0.014c0,0-0.085,0.139-0.245,0.398
		c-0.062,0.113-0.236,0.314-0.443,0.506c-0.084,0.092-0.26,0.205-0.442,0.305c-0.177,0.102-0.382,0.188-0.645,0.217
		c-0.263,0.049-0.502,0.037-0.731-0.018c-0.26-0.045-0.433-0.129-0.61-0.223c-0.361-0.186-0.604-0.42-0.811-0.656
		c-0.421-0.475-0.708-1.008-0.983-1.574c-0.245-0.557-0.51-1.162-0.79-1.801c-0.258-0.645-0.585-1.225-0.86-2.025
		c-0.246-0.77-0.322-1.666-0.105-2.523c0.211-0.855,0.666-1.652,1.289-2.273c0.302-0.324,0.665-0.584,1.05-0.826l0.305-0.164
		l0.377-0.15c0.126-0.045,0.194-0.057,0.293-0.088c0.176-0.053,0.521-0.043,0.71,0.041c0.415,0.166,0.612,0.4,0.781,0.594
		c0.162,0.197,0.285,0.391,0.395,0.58c0.216,0.379,0.378,0.748,0.521,1.111c0.567,1.453,0.82,2.828,1.076,4.035
		c0.267,1.205,0.381,2.279,0.272,3.107c-0.039,0.41-0.142,0.758-0.257,1.082c-0.074,0.182-0.114,0.279-0.114,0.279L64.676,179.609z"
		/>
	<g>
		<path fill="#683B11" d="M68.689,124.314c3.02-7.033,13.69-8.279,13.697-8.281c7.568,5.408,62.998,53.273,72.841,59.533
			c-1.644-0.564-6.636-2.061-9.806-0.594c-3.876,1.795-6.262,0.125-11.479,9.332c-1.619,2.857,1.532,11.145,2.628,12.457
			c-8.433-8.084-63.032-56.402-70.154-61.592l0,0C66.415,135.169,65.666,131.349,68.689,124.314z"/>
		<path fill="#DA913F" d="M153.535,195.527c-4.788,7.225-15.091,5.639-18.546-0.359c-5.083-8.826,0.468-19.082,10.853-21.039
			C156.964,172.034,163.656,180.255,153.535,195.527z"/>
		<path fill="#FBC779" d="M150.025,175.189c-0.675-0.006-6.514-0.27-9.538,2.961c-3.024,3.229-4.397,4.359-4.83,7.857
			c-0.434,3.498,0.803,8.152,0.917,8.418c0.115,0.266,0.749,3.705,5.333,4.34c4.584,0.633,6.689,0.645,8.587-1.463
			c2.844-3.166,3.135-1.27,4.738-6.939c1.604-5.67,2.232-11.678-0.403-13.41C152.194,175.22,151.016,175.198,150.025,175.189z"/>
		<path fill="#DA913F" d="M141.415,197.611c0,0-0.227-0.104-0.593-0.229c-0.202-0.074-0.461-0.15-0.794-0.307
			c-0.328-0.158-0.735-0.432-1.048-0.84c-0.628-0.824-0.89-1.896-1.068-3.053c-0.159-1.182-0.241-2.426-0.346-3.83
			c-0.098-1.402-0.156-2.961,0.086-4.654c0.136-0.844,0.34-1.725,0.711-2.59c0.38-0.863,0.93-1.691,1.616-2.402
			c0.342-0.361,0.725-0.674,1.123-0.969c0.413-0.297,0.727-0.502,1.146-0.764c0.794-0.5,1.606-0.969,2.513-1.365
			c0.901-0.391,1.901-0.701,2.979-0.773c1.077-0.08,2.19,0.166,3.149,0.592c0.25,0.125,0.438,0.205,0.73,0.375
			c0.206,0.137,0.369,0.209,0.614,0.404c0.473,0.348,0.848,0.689,1.192,1.09c0.692,0.781,1.219,1.682,1.585,2.623
			c0.742,1.887,0.809,3.936,0.417,5.762c-0.377,1.852-1.18,3.455-2.047,4.855c-0.882,1.4-1.871,2.623-2.929,3.619
			c-1.055,0.996-2.164,1.779-3.261,2.291c-1.09,0.525-2.168,0.746-3.057,0.766c-0.894,0.004-1.585-0.164-2.029-0.324
			c-0.445-0.158-0.672-0.268-0.672-0.268l0.404-0.916c0,0,0.197,0.08,0.575,0.189c0.376,0.109,0.948,0.207,1.675,0.16
			c0.723-0.053,1.604-0.27,2.526-0.768c0.926-0.484,1.887-1.229,2.804-2.18c0.915-0.951,1.814-2.094,2.582-3.408
			c0.765-1.314,1.435-2.783,1.701-4.35c0.293-1.562,0.153-3.236-0.439-4.74c-0.299-0.75-0.723-1.451-1.257-2.041
			c-0.255-0.301-0.578-0.572-0.847-0.771c-0.109-0.104-0.366-0.234-0.546-0.352c-0.107-0.061-0.342-0.17-0.506-0.25
			c-0.731-0.309-1.478-0.467-2.241-0.402c-0.764,0.057-1.542,0.293-2.304,0.633c-0.76,0.34-1.512,0.781-2.222,1.238
			c-0.336,0.211-0.76,0.5-1.061,0.719c-0.31,0.227-0.607,0.461-0.864,0.73c-1.064,1.047-1.599,2.453-1.859,3.895
			c-0.238,1.453-0.262,2.914-0.252,4.279c0.024,1.363,0.042,2.662,0.126,3.721c0.075,1.068,0.25,1.979,0.578,2.479
			c0.295,0.492,0.833,0.689,1.235,0.9c0.433,0.213,0.613,0.328,0.613,0.328L141.415,197.611z"/>
		<path fill="#DA913F" d="M139.477,191.165c0,0-0.004-0.174-0.013-0.5c0.003-0.377,0.014-0.875,0.079-1.502
			c0.137-1.248,0.395-3.031,1.283-5.07c0.464-1,1.07-2.109,2.117-3.025l0.412-0.324l0.104-0.082c0.029-0.02,0.01-0.012,0.079-0.055
			l0.048-0.029l0.192-0.115c0.24-0.15,0.543-0.312,0.863-0.473c0.621-0.297,1.253-0.555,1.947-0.719
			c1.351-0.32,2.976-0.441,4.419,0.449c0.696,0.432,1.272,1.189,1.44,1.951l0.145,0.488c0.038,0.178,0.052,0.385,0.078,0.574
			c0.048,0.391,0.099,0.781,0.057,1.135c-0.012,1.459-0.448,2.828-0.958,4.104l-0.417,0.941c-0.146,0.307-0.34,0.588-0.5,0.883
			c-0.309,0.602-0.71,1.131-1.102,1.654c-0.185,0.268-0.406,0.512-0.561,0.789c-0.15,0.281-0.212,0.633-0.309,0.969
			c-0.167,0.695-0.676,1.078-1.065,1.555c-0.86,0.885-1.714,1.768-3.129,2.195c-0.709,0.213-1.634,0.092-2.229-0.281l-0.059-0.031
			l-0.029-0.018l-0.094-0.062l-0.068-0.053l-0.136-0.105c-0.098-0.076-0.261-0.236-0.377-0.355c-0.216-0.244-0.364-0.439-0.499-0.65
			c-0.533-0.824-0.812-1.533-1.055-2.121c-0.23-0.59-0.381-1.055-0.481-1.377l-0.182-0.619L139.477,191.165z M141.471,190.962
			c0.023,0.072,0.058,0.182,0.104,0.328c0.097,0.285,0.244,0.707,0.46,1.223c0.216,0.506,0.501,1.143,0.903,1.691
			c0.091,0.137,0.216,0.271,0.294,0.355c0.044,0.031,0.026,0.043,0.107,0.104l0.141,0.1l0.07,0.049l0.009,0.006
			c-0.031-0.02,0.082,0.055-0.067-0.043l0.01,0.002l0.019,0.008c0.21,0.092,0.322,0.125,0.601,0.055
			c0.569-0.156,1.409-0.824,2.207-1.559c0.426-0.359,0.739-0.855,1.371-1.092c0.31-0.123,0.647-0.248,0.896-0.449
			c0.262-0.193,0.403-0.467,0.595-0.715c0.368-0.502,0.747-1.01,1.032-1.586c0.151-0.281,0.318-0.559,0.448-0.854l0.358-0.902
			c0.44-1.215,0.712-2.533,0.634-3.805c0.017-0.33-0.055-0.611-0.103-0.895c-0.028-0.145-0.036-0.279-0.081-0.43l-0.188-0.473
			c-0.182-0.555-0.548-0.898-1-1.141c-0.925-0.467-2.163-0.342-3.225,0.008c-0.538,0.168-1.059,0.43-1.525,0.697
			c-0.22,0.131-0.445,0.268-0.701,0.457l-0.184,0.129l-0.046,0.031c0.037-0.025-0.009,0.01-0.009,0.01l-0.07,0.061l-0.277,0.227
			c-0.723,0.631-1.241,1.498-1.616,2.342c-0.748,1.713-0.995,3.352-1.109,4.457c-0.059,0.559-0.063,0.998-0.067,1.258
			C141.466,190.769,141.469,190.882,141.471,190.962z"/>
		<path fill="#DA913F" d="M141.73,191.407c0,0-0.012-0.105-0.034-0.299c-0.021-0.346-0.022-0.707,0.053-1.113
			c0.125-0.824,0.531-1.824,1.12-2.91c0.579-1.09,1.202-2.342,2.149-3.582c0.237-0.309,0.494-0.619,0.807-0.924
			c0.157-0.15,0.329-0.303,0.54-0.449c0.216-0.139,0.47-0.309,0.914-0.354c0.205-0.029,0.537,0.055,0.694,0.158
			c0.087,0.055,0.149,0.086,0.258,0.164l0.32,0.248l0.246,0.244c0.304,0.338,0.581,0.688,0.781,1.082
			c0.428,0.77,0.645,1.662,0.611,2.541c-0.028,0.883-0.35,1.725-0.799,2.396c-0.486,0.693-0.96,1.16-1.386,1.709
			c-0.446,0.537-0.867,1.045-1.257,1.512c-0.421,0.471-0.844,0.902-1.38,1.242c-0.265,0.17-0.562,0.328-0.96,0.406
			c-0.197,0.041-0.387,0.074-0.648,0.045c-0.235-0.012-0.47-0.064-0.709-0.184c-0.243-0.104-0.417-0.24-0.559-0.389
			c-0.148-0.145-0.285-0.303-0.341-0.414c-0.146-0.24-0.258-0.482-0.286-0.609c-0.082-0.293-0.125-0.449-0.125-0.449L141.73,191.407
			z M144.582,190.993c0,0,0.012,0.027,0.012,0.086c-0.004,0.078,0.03-0.027-0.294-0.191c-0.094-0.025-0.159-0.031-0.205-0.035
			c-0.077,0.016-0.073,0.02-0.069,0.029c-0.014,0.025,0.04,0.01,0.086,0.012c0.04,0.014,0.115-0.008,0.191-0.025
			c0.306-0.076,0.755-0.256,1.227-0.518c0.477-0.264,0.988-0.604,1.486-1.016c0.494-0.398,1.023-0.914,1.373-1.4
			c0.373-0.51,0.598-1.125,0.607-1.762c0.007-0.631-0.171-1.293-0.543-1.842c-0.172-0.279-0.396-0.525-0.629-0.732l-0.18-0.143
			c-0.051-0.029-0.098-0.057-0.143-0.09c-0.047-0.031-0.161-0.078-0.238-0.119c-0.008,0.014,0.13,0.053,0.146,0.047
			c0.093-0.02-0.225,0.172-0.39,0.412c-0.196,0.238-0.385,0.516-0.557,0.799c-0.681,1.15-1.213,2.354-1.484,3.408
			c-0.258,1.064-0.339,1.941-0.388,2.451c-0.017,0.264-0.016,0.434-0.023,0.449c0.016,0.164,0.024,0.252,0.024,0.252
			L144.582,190.993z"/>
	</g>
	<path fill="#502D07" d="M83.334,149.423l21.572,18.855l-10.52,5.025c0,0-9.638-14.123-15.188-16.908
		c-5.552-2.781-7.022-2.154-7.022-2.154L83.334,149.423z"/>
	<path fill="#502D07" d="M109.086,138.046l21.625,18.072l1.708-0.793c0,0-4.83-6.299-9.789-10.676
		c-4.959-4.375-11.421-7.547-11.421-7.547L109.086,138.046z"/>
	<path fill="#F29100" d="M96.95,102.171c0,0-13.366-7.127-13.366-27.626c0-20.497,7.818-30.188,12.275-38.207
		c4.458-8.021,6.428-22.39,6.428-22.39s11.6,2.667,17.835,35.642C126.36,82.565,96.95,102.171,96.95,102.171z"/>
	<path fill="#F29100" d="M129.121,111.109c0,0-8.286-3.635-9.29-16.064c-1.018-12.643,5.388-20.093,8.396-24.792
		c4.496-7.021,2.847-12.193,2.847-12.193s9.276,0.861,12.144,21.068C146.102,99.472,129.121,111.109,129.121,111.109z"/>
	<path fill="#EB6621" d="M96.932,95.044c0,0-7.017-6.353-5.544-19.595c1.007-9.065,14.233-27.416,14.233-27.416
		s4.901,10.914,3.564,25.119C107.719,88.734,96.932,95.044,96.932,95.044z"/>
	<path fill="#EB6621" d="M129.515,104.534c0,0,5.851-4.012,7.354-11.695c1.505-7.688-2.172-18.244-2.172-18.244
		s-8.856,9.778-9.691,17.351C124.169,99.521,129.515,104.534,129.515,104.534z"/>
	<path fill="#F29100" d="M111.509,125.708c0.21-6.428,6.111-7.307,6.111-16.859c0-9.551-4.742-16.119-4.742-16.119
		S94.651,108.323,111.509,125.708z"/>
	<path fill="#EB6621" d="M110.473,119.386c0,0-3.37-5.373-3.056-10.746c0.316-5.373,4.32-9.588,4.32-9.588
		S118.903,108.534,110.473,119.386z"/>
</g>
</svg>
