<?xml version="1.0" encoding="utf-8"?>
<!-- Generator: Adobe Illustrator 16.0.0, SVG Export Plug-In . SVG Version: 6.00 Build 0)  -->
<!DOCTYPE svg PUBLIC "-//W3C//DTD SVG 1.1//EN" "http://www.w3.org/Graphics/SVG/1.1/DTD/svg11.dtd">
<svg version="1.1" id="Layer_1" xmlns="http://www.w3.org/2000/svg" xmlns:xlink="http://www.w3.org/1999/xlink" x="0px" y="0px"
	 width="226.77px" height="226.77px" viewBox="0 0 226.77 226.77" enable-background="new 0 0 226.77 226.77" xml:space="preserve">
<g>
	<path fill="#7B80B5" d="M162.308,60.642c0,0-10.442,1.302-14.048,2.826c-3.604,1.522-20.426,0.879-38.047,2.48
		c-17.623,1.602-51.666-5.205-51.666-5.205l-2.506-0.562c0,0,27.339,47.745,46.18,71.716V163.9l17.422-8.174v-26.053
		C140.786,103.031,162.308,60.642,162.308,60.642z"/>
	<g>
		<path fill="#64C6F2" d="M109.934,187.184c0,0-2.521,2.381-1.98,7.124c0.541,4.744,5.93,4.268,5.463,0.376
			C112.887,190.236,109.934,187.184,109.934,187.184z"/>
	</g>
	<g>
		<path fill="#64C6F2" d="M106.797,167.888c0,0-8.273,7.418-5.838,12.182c2.438,4.767,7.396,0.24,7.514-3.643
			C108.522,174.72,106.797,167.888,106.797,167.888z"/>
	</g>
	<g>
		<path fill="#64C6F2" d="M114.498,165.491c0,0,0.393,8.54,4.416,9.408c4.023,0.866,2.955-3.874,1.486-6.249
			C118.934,166.276,114.498,165.491,114.498,165.491z"/>
	</g>
	<g>
		<path fill="#A0D9F7" d="M113.545,175.003c0,0-3.623,5.121-2.34,7.893s2.725,2.489,4.25,0.696
			C116.981,181.802,113.545,175.003,113.545,175.003z"/>
	</g>
	<path fill="#7B80B5" d="M160.043,61.881c1.584-0.538,2.439-1.106,2.439-1.699c0-3.126-23.828-5.661-53.221-5.661
		s-53.221,2.535-53.221,5.661c0,0.593,0.855,1.161,2.439,1.699c6.783-2.298,26.953-3.964,50.781-3.964S153.26,59.583,160.043,61.881
		z"/>
	<ellipse fill="#B0B2DA" cx="109.9" cy="60.642" rx="51.765" ry="5.507"/>
	<path fill="#B4DAF5" d="M109.262,66.149c15.631-0.066,30.334-0.53,36.059-1.491c-7.904-1.548-22.82-2.815-37.154-2.776
		c-14.67,0.04-25.906,1.787-35.018,2.639C84.217,66.134,99.858,66.189,109.262,66.149z"/>
</g>
</svg>
