<?xml version="1.0" encoding="utf-8"?>
<!-- Generator: Adobe Illustrator 16.0.0, SVG Export Plug-In . SVG Version: 6.00 Build 0)  -->
<!DOCTYPE svg PUBLIC "-//W3C//DTD SVG 1.1//EN" "http://www.w3.org/Graphics/SVG/1.1/DTD/svg11.dtd">
<svg version="1.1" id="Layer_1" xmlns="http://www.w3.org/2000/svg" xmlns:xlink="http://www.w3.org/1999/xlink" x="0px" y="0px"
	 width="226.77px" height="226.77px" viewBox="0 0 226.77 226.77" enable-background="new 0 0 226.77 226.77" xml:space="preserve">
<path fill="#F2D685" d="M102.115,142v59.34c0,4.843,3.928,8.769,8.77,8.769s8.768-3.926,8.768-8.769V142H102.115z"/>
<g>
	<g>
		<path fill="#F9D0D0" d="M131.37,172.017c0,0-2.182,2.062-1.713,6.169c0.467,4.107,5.133,3.695,4.729,0.325
			C133.927,174.659,131.37,172.017,131.37,172.017z"/>
	</g>
</g>
<g>
	<path fill="#F5B7D0" d="M137.009,156.152c0,0-3.623,5.121-2.34,7.893s2.725,2.489,4.25,0.696
		C140.445,162.95,137.009,156.152,137.009,156.152z"/>
</g>
<path fill="#F094BD" d="M134.083,28.522H87.685c-4.844,0-8.77,3.926-8.77,8.769v105.054c0,4.845,3.926,8.77,8.77,8.77h37.529
	c-0.472,2.276-0.632,4.479-0.096,6.066c1.713,5.072,7.521,3.246,8.488-0.517c0.32-1.245-0.055-3.312-0.713-5.55h1.189
	c4.844,0,8.77-3.925,8.77-8.77V37.29C142.853,32.448,138.927,28.522,134.083,28.522z"/>
<path fill="#EC7094" d="M102.853,130.075c0,3.833-3.107,6.942-6.941,6.942l0,0c-3.834,0-6.941-3.109-6.941-6.942V47.311
	c0-3.834,3.107-6.942,6.941-6.942l0,0c3.834,0,6.941,3.108,6.941,6.942V130.075z"/>
<path fill="#EC7094" d="M132.2,130.075c0,3.833-3.107,6.942-6.941,6.942l0,0c-3.834,0-6.941-3.109-6.941-6.942V47.311
	c0-3.834,3.107-6.942,6.941-6.942l0,0c3.834,0,6.941,3.108,6.941,6.942V130.075z"/>
</svg>
