<?xml version="1.0" encoding="utf-8"?>
<!-- Generator: Adobe Illustrator 16.0.0, SVG Export Plug-In . SVG Version: 6.00 Build 0)  -->
<!DOCTYPE svg PUBLIC "-//W3C//DTD SVG 1.1//EN" "http://www.w3.org/Graphics/SVG/1.1/DTD/svg11.dtd">
<svg version="1.1" id="Layer_1" xmlns="http://www.w3.org/2000/svg" xmlns:xlink="http://www.w3.org/1999/xlink" x="0px" y="0px"
	 width="226.77px" height="278.385px" viewBox="0 -51.615 226.77 278.385" enable-background="new 0 -51.615 226.77 278.385"
	 xml:space="preserve">
<g>
	<g>
		<rect x="58.17" y="-32.623" fill="#8B969D" width="1" height="15.703"/>
	</g>
	<g>
		<path fill="#1D3765" d="M58.239-36.188c0,0,5.762-2.252,10.384,0c4.623,2.252,9.719,2.252,9.719,2.252l-3.792,1.472l1.856,2.56
			c0,0-4.108-0.593-5.412-1.187c-4.747-2.161-12.8-0.355-12.8-0.355L58.239-36.188z"/>
	</g>
	<g>
		<polygon fill="#E4133A" points="86.449,69.741 109.752,16.155 134.369,69.116 		"/>
	</g>
	<g>
		<polygon fill="#E4133A" points="45.173,31.143 58.707,-19.402 71.643,31.037 		"/>
	</g>
	<g>
		<rect x="161.357" y="-32.307" fill="#8B969D" width="1" height="15.703"/>
	</g>
	<g>
		<path fill="#1D3765" d="M161.426-35.872c0,0,5.762-2.252,10.385,0c4.621,2.252,9.719,2.252,9.719,2.252l-3.793,1.471l1.855,2.56
			c0,0-4.107-0.593-5.412-1.187c-4.746-2.161-12.799-0.355-12.799-0.355L161.426-35.872z"/>
	</g>
	<g>
		<polygon fill="#E4133A" points="148.186,32.113 161.895,-19.086 175.006,32.038 		"/>
	</g>
	<path fill="#F094BD" d="M181.051,106.944v-4.236h-5.846v4.236h-0.984V76.443l3.318-1.896v-7.711H177.5v-2.957h-2.924v2.957h-0.357
		V39.194l3.318-1.896v-7.711h-0.039V26.63h-2.922v2.956h-3.953v-3.271h-2.922v3.271h-4.348v-3.271h-2.922v3.271h-3.951v-3.271
		h-2.924v3.271h-4.385V26.63h-2.924v2.956v2.496v4.978l3.318,3.082l-1.17,23.737h-2.148v2.957v2.495v4.979l3.32,3.081l-1.459,29.553
		h-1.176v-4.672h-5.848v4.672h-6.242v-4.817h-3.961l-1.885-18.571l5.846-5.769l0.475-4.39v-4.697V63.05h-6.795v5.649h-3.682V63.05
		h-6.795v5.649h-4.268V63.05h-6.793v5.649h-4.347v-5.648h-6.795v5.648h-4.109v-5.451H84.94v5.451v5.848v3.239l4.425,7.032
		l0.855,16.727h-5.28v5.398h-6.242V101.4h-5.847v5.544h-1.818V76.127l3.319-1.896l-0.039-7.711v-2.956H71.39v2.956h-0.357V38.877
		l3.318-1.896v-7.711h-0.039v-2.956h-2.923v2.956h-3.952v-3.272h-2.924v3.272h-4.346v-3.272h-2.924v3.272h-3.95v-3.272h-2.923v3.272
		h-4.387v-2.956h-2.923v2.956v2.495v4.979l3.318,3.082l-1.17,23.737h-2.147v2.956v2.496v4.978l3.318,3.082l-1.472,29.868H44.01
		v-5.689h-5.847v5.689v5.397v22.731l8.85,11.062v58.472h39.508c0,0-0.421-4.212-0.568-10.142h9.918v10.265c0,0.553,0.448,1,1,1
		s1-0.447,1-1v-10.265h5.948v10.265c0,0.553,0.448,1,1,1s1-0.447,1-1v-10.265h8.462v10.265c0,0.553,0.447,1,1,1s1-0.447,1-1v-10.265
		h5.473v10.265c0,0.553,0.447,1,1,1s1-0.447,1-1v-10.265h8.506l-0.227,10.142h42.984l-1.58-60.051l7.902-8.534L181.051,106.944z
		 M54.756,44.716h6.005v11.94h-6.005V44.716z M54.756,81.965h6.006v11.94h-6.006V81.965z M95.871,192.464h-9.955
		c-0.033-2.549-0.007-5.334,0.122-8.194c0.003,0,0.006,0.002,0.009,0.002h9.824V192.464z M95.871,182.272h-9.725
		c0.141-2.264,0.353-4.548,0.658-6.771h9.067V182.272z M95.871,173.5h-8.76c0.111-0.666,0.229-1.326,0.359-1.974
		c0.51-2.53,1.206-4.658,2.094-6.456h6.308V173.5z M95.871,163.071h-5.154c1.365-2.01,3.077-3.482,5.154-4.561V163.071z
		 M103.819,192.464h-5.948v-8.192h5.948V192.464z M103.819,182.272h-5.948V175.5h5.948V182.272z M103.819,173.5h-5.948v-8.43h5.948
		V173.5z M103.819,163.071h-5.948v-5.44c1.758-0.646,3.738-1.083,5.948-1.371V163.071z M107.803,88.652
		c3.679-2.116,5.148,0.405,5.595,3.761c0.447,3.358,0,7.588,0,7.588h-6.951C106.448,100,105.023,90.25,107.803,88.652z
		 M114.281,192.464h-8.462v-8.192h8.462V192.464z M114.281,182.272h-8.462V175.5h8.462V182.272z M114.281,173.5h-8.462v-8.43h8.462
		V173.5z M114.281,155.774v7.297h-8.462v-7.028c2.539-0.222,5.357-0.288,8.464-0.274
		C114.283,155.77,114.281,155.772,114.281,155.774z M129.645,165.071c1.551,3.065,2.311,6.238,2.682,8.43h-8.572v-8.43H129.645z
		 M128.496,163.071h-4.742v-4.866C125.744,159.504,127.293,161.214,128.496,163.071z M121.754,192.464h-5.473v-8.192h5.473V192.464z
		 M121.754,182.272h-5.473V175.5h5.473V182.272z M121.754,173.5h-5.473v-8.43h5.473V173.5z M121.754,157.32v5.751h-5.473v-7.248
		c2.09,0.13,3.92,0.591,5.512,1.305C121.78,157.192,121.754,157.251,121.754,157.32z M132.305,192.464h-8.551v-8.192h8.734
		L132.305,192.464z M132.533,182.272h-8.779V175.5h8.846c0.051,0.508,0.066,0.804,0.066,0.804L132.533,182.272z M157.942,45.031
		h6.006v11.94h-6.006V45.031z M163.949,94.221h-6.006V82.281h6.006V94.221z"/>
	<g>
		<polygon fill="#EE80B0" points="47.013,146.134 173.438,144.555 181.34,136.021 38.164,135.073 		"/>
	</g>
	<g>
		<polygon fill="#EE80B0" points="46.381,77.075 71.033,76.127 74.352,74.231 43.062,73.993 		"/>
	</g>
	<g>
		<polygon fill="#EE80B0" points="174.221,76.443 149.569,77.391 146.248,74.31 177.539,74.547 		"/>
	</g>
	<g>
		<polygon fill="#EE80B0" points="128.998,83.555 89.365,84.819 84.94,77.786 134.844,77.786 		"/>
	</g>
</g>
</svg>
