<?xml version="1.0" encoding="utf-8"?>
<!-- Generator: Adobe Illustrator 16.0.0, SVG Export Plug-In . SVG Version: 6.00 Build 0)  -->
<!DOCTYPE svg PUBLIC "-//W3C//DTD SVG 1.1//EN" "http://www.w3.org/Graphics/SVG/1.1/DTD/svg11.dtd">
<svg version="1.1" id="Layer_1" xmlns="http://www.w3.org/2000/svg" xmlns:xlink="http://www.w3.org/1999/xlink" x="0px" y="0px"
	 width="226.77px" height="226.77px" viewBox="0 0 226.77 226.77" enable-background="new 0 0 226.77 226.77" xml:space="preserve">
<g>
	<g>
		<g>
			<circle fill="#9599CC" cx="118.385" cy="110.406" r="60.689"/>
		</g>
		<g>
			<path fill="#6E7EB4" d="M158.813,89.117c0,0-11.602-20.927-32.727-23.177c-21.119-2.252-52.678,11.423-52.89,38.565
				s13.382,47.475,34.57,51.301c21.187,3.828,53.001-10.348,54.979-31.863C164.725,102.427,158.813,89.117,158.813,89.117z"/>
		</g>
		<g>
			<path fill="#7B80B5" d="M156.938,89.198c0,0-11.02-19.873-31.082-22.013s-50.035,10.85-50.236,36.631
				c-0.201,25.78,12.711,45.092,32.834,48.726c20.125,3.635,50.379-9.935,52.258-30.371S156.938,89.198,156.938,89.198z"/>
		</g>
		<g>
			<g>
			</g>
		</g>
		<g>
			<circle fill="#FFFFFF" cx="104.675" cy="100.865" r="6.562"/>
		</g>
		<g>
			<circle fill="#FFFFFF" cx="132.344" cy="100.865" r="6.562"/>
		</g>
		<g>
			<path fill="#595D81" d="M132.348,94.292c-1.332,0-2.57,0.399-3.605,1.082c0.514-0.129,1.049-0.205,1.604-0.205
				c3.629,0,6.568,2.941,6.568,6.57c0,2.297-1.178,4.315-2.965,5.491c2.855-0.718,4.969-3.292,4.969-6.367
				C138.918,97.235,135.977,94.292,132.348,94.292z"/>
		</g>
		<g>
			<circle fill="#FFFFFF" cx="104.675" cy="123.664" r="6.562"/>
		</g>
		<g>
			<circle fill="#FFFFFF" cx="132.344" cy="123.664" r="6.562"/>
		</g>
		<g>
			<path fill="#595D81" d="M132.377,117.08c-1.334,0-2.574,0.401-3.613,1.083c0.516-0.129,1.053-0.205,1.607-0.205
				c3.637,0,6.584,2.948,6.584,6.583c0,2.302-1.182,4.325-2.971,5.503c2.859-0.72,4.977-3.299,4.977-6.38
				C138.961,120.029,136.016,117.08,132.377,117.08z"/>
		</g>
		<g>
			<path fill="#595D81" d="M104.679,94.293c-1.333,0-2.571,0.399-3.607,1.082c0.515-0.129,1.05-0.205,1.605-0.205
				c3.629,0,6.57,2.941,6.57,6.57c0,2.297-1.18,4.316-2.965,5.491c2.853-0.718,4.967-3.292,4.967-6.367
				C111.25,97.235,108.308,94.293,104.679,94.293z"/>
		</g>
		<g>
			<path fill="#595D81" d="M104.676,117.086c-1.336,0-2.577,0.4-3.616,1.084c0.515-0.13,1.053-0.206,1.608-0.206
				c3.639,0,6.587,2.95,6.587,6.588c0,2.302-1.182,4.326-2.972,5.504c2.86-0.719,4.979-3.3,4.979-6.382
				C111.262,120.035,108.314,117.086,104.676,117.086z"/>
		</g>
		<path fill="#F094BD" d="M134.143,100.851c-0.482-0.994-1.678-1.407-2.672-0.927c-4.406,2.137-8.514,4.776-12.158,7.486
			c-6.734-5.095-13.319-8.142-13.808-8.365c-1.006-0.458-2.19-0.015-2.649,0.99c-0.458,1.005-0.015,2.191,0.989,2.65
			c0.109,0.05,5.997,2.777,12.177,7.286c-7.615,6.184-12.561,12.029-12.879,12.41c-0.709,0.846-0.598,2.106,0.248,2.816
			c0.375,0.314,0.83,0.468,1.284,0.468c0.571,0,1.138-0.243,1.534-0.715c0.078-0.093,5.247-6.198,13.068-12.44
			c4.145,3.465,7.982,7.674,9.799,12.358c0.307,0.793,1.064,1.278,1.865,1.278c0.24,0,0.484-0.044,0.723-0.136
			c1.029-0.399,1.541-1.559,1.143-2.588c-1.994-5.143-5.961-9.677-10.264-13.402c3.26-2.372,6.865-4.649,10.676-6.497
			C134.209,103.042,134.625,101.845,134.143,100.851z"/>
	</g>
	<polygon fill="#EE80B0" points="119.313,107.41 116.022,109.971 114.953,109.207 118.172,106.566 	"/>
	<path fill="#EE80B0" d="M122.541,110.021c0,0-3.07,2.334-3.266,2.489c0.326,0.266,0.65,0.552,0.65,0.552l3.289-2.447
		L122.541,110.021z"/>
</g>
</svg>
