<?xml version="1.0" encoding="utf-8"?>
<!-- Generator: Adobe Illustrator 16.0.0, SVG Export Plug-In . SVG Version: 6.00 Build 0)  -->
<!DOCTYPE svg PUBLIC "-//W3C//DTD SVG 1.1//EN" "http://www.w3.org/Graphics/SVG/1.1/DTD/svg11.dtd">
<svg version="1.1" id="Layer_1" xmlns="http://www.w3.org/2000/svg" xmlns:xlink="http://www.w3.org/1999/xlink" x="0px" y="0px"
	 width="324px" height="226.77px" viewBox="-51.115 0 324 226.77" enable-background="new -51.115 0 324 226.77"
	 xml:space="preserve">
<g>
	<path fill="#C6C6C5" d="M91.398,82.404H75.207c0.022-5.062-0.016-8.923-0.046-10.985c4.938-1.131,8.625-5.543,8.625-10.825
		c0-6.139-4.976-11.114-11.115-11.114c-6.138,0-11.114,4.976-11.114,11.114c0,5.246,3.637,9.631,8.523,10.799
		c-0.02,1.123-0.099,5.854-0.092,11.012H13.837v10.879h56.369c0.015,0.283,0.031,0.559,0.048,0.82
		c0.473,7.285,1.306,20.396,1.306,20.396s1.538-0.039,3.771-0.039c0.378-2.382-0.22-15.048-0.237-21.177h16.305V82.404z"/>
	<path fill="#B28E5D" d="M231.986,66.134c0-21.374-17.326-38.7-38.699-38.7c-21.374,0-38.701,17.326-38.701,38.7
		c0,17.414,11.503,32.138,27.324,36.997h-0.004v12.049c0,0,13.713-0.089,23.158-0.5c0-5.046,0-8.364,0-11.678
		C220.676,98.019,231.986,83.4,231.986,66.134z"/>
	<polygon fill="#422918" points="231.986,66.184 247.208,124.442 238.111,124.442 235.986,119.136 234.611,124.442 230.278,124.442 
		227.954,83.332 	"/>
	<g>
		<g>
			<g>
				<path fill="#64C6F2" d="M133.009,100.591c0,0,10.234-6.838,9.738-11.287c-0.484-4.334-5.168-4.865-7.097-1.471
					C133.722,91.232,133.009,100.591,133.009,100.591z"/>
			</g>
			<g>
				<path fill="#64C6F2" d="M87.304,111.372c0,0-0.8-7.34-4.316-7.871c-3.515-0.528-3.395,4.457-0.942,5.467
					C83.703,109.652,87.304,111.372,87.304,111.372z"/>
			</g>
			<g>
				<path fill="#64C6F2" d="M87.721,99.82c0,0,2.854-7.404-0.243-9.645c-3.098-2.238-5.445,3.291-3.596,4.76
					C84.836,95.693,87.721,99.82,87.721,99.82z"/>
			</g>
			<g>
				<path fill="#A0D9F7" d="M82.989,73.703c0,0,2.855-7.405-0.242-9.644c-3.098-2.24-5.288,2.609-3.598,4.757
					C79.905,69.775,82.989,73.703,82.989,73.703z"/>
			</g>
			<g>
				<path fill="#A0D9F7" d="M125.793,67.46c0,0,6.253-4.887,4.747-8.398c-1.508-3.512-5.603-0.621-5.53,2.235
					C125.04,62.513,125.793,67.46,125.793,67.46z"/>
			</g>
			<g>
				<path fill="#64C6F2" d="M103.578,91.752c0,0,4.895-6.248,2.588-9.294c-2.306-3.047-5.93,0.969-4.83,3.496
					C101.822,87.071,103.578,91.752,103.578,91.752z"/>
			</g>
			<g>
				<path fill="#64C6F2" d="M120.519,106.001c0,0,4.895-6.246,2.589-9.295c-2.306-3.047-6.301,0.307-4.829,3.498
					C118.788,101.311,120.519,106.001,120.519,106.001z"/>
			</g>
		</g>
		<g>
			<path fill="#A0D9F7" d="M110.689,74.295c0,0,5.76-7.287,1.471-8.294C108.885,65.232,109.719,70.391,110.689,74.295z"/>
		</g>
	</g>
	<g>
		<path fill="#575756" d="M201.268,65.184c0.319,0,0.644,0.018,0.974,0.055c3.056,0.352,5.735,2.32,7.964,5.848
			c0.442,0.699,0.233,1.625-0.467,2.068c-0.702,0.441-1.628,0.232-2.069-0.467c-1.72-2.723-3.662-4.227-5.771-4.469
			c-3.229-0.371-6.031,2.299-6.06,2.326c-0.589,0.582-1.54,0.574-2.121-0.016s-0.575-1.541,0.016-2.121
			C193.876,68.268,197.058,65.184,201.268,65.184z"/>
	</g>
	<g>
		<path fill="#575756" d="M187.566,81.71h-11.212V61.755c0-0.828,0.671-1.5,1.5-1.5s1.5,0.672,1.5,1.5V78.71h8.212
			c0.828,0,1.5,0.672,1.5,1.5S188.394,81.71,187.566,81.71z"/>
	</g>
	<g>
		<circle fill="#D1938A" cx="204.011" cy="81.71" r="8.393"/>
	</g>
	<path fill="#D1938A" d="M160.26,73.838c-1.688,0.144-3.214,0.779-4.456,1.752c1.371,5.489,3.896,10.479,7.289,14.722
		c3.88-1.012,6.588-4.689,6.238-8.819C168.941,76.873,164.878,73.448,160.26,73.838z"/>
	<path fill="#422918" d="M193.286,27.484c-5.375,0-10.493,1.098-15.146,3.077c0.011,0.028,15.279,40.168,53.845,35.623
		C231.986,44.81,214.659,27.484,193.286,27.484z"/>
	<path fill="#422918" d="M156.066,55.518c19.156-2.552,22.075-24.979,22.075-24.979s-0.011-0.024-0.019-0.04
		C167.466,35.041,159.273,44.23,156.066,55.518z"/>
	<g>
		<path fill="#575756" d="M165.236,63.864c4.211,0,7.391,3.084,7.535,3.225c0.59,0.58,0.596,1.531,0.016,2.121
			c-0.58,0.588-1.527,0.596-2.119,0.02l0,0c-0.027-0.027-2.818-2.723-6.08-2.328c-2.104,0.25-4.039,1.752-5.754,4.467
			c-0.441,0.701-1.367,0.906-2.068,0.467c-0.701-0.443-0.91-1.369-0.467-2.068c2.229-3.529,4.908-5.496,7.965-5.848
			C164.591,63.881,164.917,63.864,165.236,63.864z"/>
	</g>
	<circle fill="#575756" cx="72.672" cy="60.593" r="8.925"/>
	<path fill="#B1B1B1" d="M41.816,100.096v-20.46c0-2.351-1.906-4.256-4.257-4.256c-2.351,0-4.256,1.905-4.256,4.256v20.46H41.816z"
		/>
	<polygon fill="#64C6F2" points="40.596,114.904 34.522,114.984 34.522,100.096 40.596,100.096 	"/>
	<path fill="#F4F2E7" d="M175.742,89.488h15.643c0,0-1.242,9-7.821,9C178.837,98.488,175.742,96.238,175.742,89.488z"/>
	<path fill="#F9D0D0" d="M219.8,112.535l-240.58,3.153c0,0,1.892,65.32,40.675,72.887c0.517,0.101,1.053,0.198,1.596,0.294v4.626
		c0,3.324,2.695,6.019,6.019,6.019c3.325,0,6.02-2.694,6.02-6.019v-3.046c38.88,3.787,109.603,0.947,137.725-0.927v3.973
		c0,3.324,2.695,6.019,6.02,6.019s6.02-2.694,6.02-6.019v-5.075C216.627,182.366,219.8,112.535,219.8,112.535z"/>
	<circle fill="#C6C6C5" cx="69.989" cy="54.591" r="0.772"/>
	<circle fill="#C6C6C5" cx="67.368" cy="56.136" r="0.772"/>
	<circle fill="#C6C6C5" cx="73.445" cy="53.818" r="0.772"/>
	<circle fill="#C6C6C5" cx="70.761" cy="57.447" r="0.772"/>
	<circle fill="#C6C6C5" cx="66.595" cy="59.844" r="0.772"/>
	<circle fill="#C6C6C5" cx="77.142" cy="55.365" r="0.772"/>
	<circle fill="#C6C6C5" cx="73.74" cy="58.218" r="0.772"/>
	<circle fill="#C6C6C5" cx="79.334" cy="58.218" r="0.772"/>
	<circle fill="#C6C6C5" cx="78.561" cy="63.483" r="0.772"/>
	<circle fill="#C6C6C5" cx="77.142" cy="59.845" r="0.772"/>
	<circle fill="#C6C6C5" cx="75.356" cy="62.138" r="0.772"/>
	<circle fill="#C6C6C5" cx="71.9" cy="63.685" r="0.772"/>
	<circle fill="#C6C6C5" cx="66.595" cy="62.911" r="0.772"/>
	<circle fill="#C6C6C5" cx="72.673" cy="67.137" r="0.772"/>
	<circle fill="#C6C6C5" cx="71.128" cy="60.617" r="0.772"/>
	<circle fill="#C6C6C5" cx="75.57" cy="65.884" r="0.772"/>
	<circle fill="#C6C6C5" cx="68.14" cy="65.406" r="0.772"/>
	<circle fill="#B1B1B1" cx="23.382" cy="88.364" r="2.838"/>
	<circle fill="#B1B1B1" cx="52.617" cy="88.364" r="2.838"/>
</g>
</svg>
