<?xml version="1.0" encoding="utf-8"?>
<!-- Generator: Adobe Illustrator 16.0.0, SVG Export Plug-In . SVG Version: 6.00 Build 0)  -->
<!DOCTYPE svg PUBLIC "-//W3C//DTD SVG 1.1//EN" "http://www.w3.org/Graphics/SVG/1.1/DTD/svg11.dtd">
<svg version="1.1" id="Layer_1" xmlns="http://www.w3.org/2000/svg" xmlns:xlink="http://www.w3.org/1999/xlink" x="0px" y="0px"
	 width="227.374px" height="226.77px" viewBox="45.511 0 227.374 226.77" enable-background="new 45.511 0 227.374 226.77"
	 xml:space="preserve">
<g>
	<path fill="#64C6F2" d="M184.654,155.239c-6.217,0.221-25.674,1.021-36.011,0.08c-7.35-0.67-17.541-4.639-32.385-4.139
		c-14.836,0.5-35.852,8.057-49.426,4.223c-13.574-3.832-18.805,3.834-18.805,3.834v45.561H194.7v-45.561
		C194.7,159.237,194.7,155.071,184.654,155.239z"/>
	<g>
		<g>
			<g>
				<path fill="#64C6F2" d="M143.319,140.676c0,0,12.684-2.906,13.865-7.49c1.149-4.463-3.277-6.75-6.459-4.121
					C147.541,131.698,143.319,140.676,143.319,140.676z"/>
			</g>
			<g>
				<path fill="#64C6F2" d="M69.029,149.717c0,0-0.846-7.76-4.562-8.32c-3.717-0.559-3.59,4.711-0.997,5.779
					C65.22,147.899,69.029,149.717,69.029,149.717z"/>
			</g>
			<g>
				<path fill="#64C6F2" d="M87.469,142.227c0,0,3.017-7.828-0.257-10.195c-3.275-2.367-5.756,3.479-3.803,5.031
					C84.419,137.864,87.469,142.227,87.469,142.227z"/>
			</g>
			<g>
				<path fill="#A0D9F7" d="M74.782,124.026c0,0-0.975-8.332-4.975-8.904c-4-0.568-3.662,5.045-1.023,6.223
					C69.962,121.867,74.782,124.026,74.782,124.026z"/>
			</g>
			<g>
				<path fill="#A0D9F7" d="M129.604,130.227c0,0,7.572-3.609,6.824-7.578c-0.75-3.971-5.639-1.926-6.219,1.039
					C129.961,124.949,129.604,130.227,129.604,130.227z"/>
			</g>
			<g>
				<path fill="#64C6F2" d="M104.232,133.699c0,0,5.174-6.605,2.736-9.826c-2.438-3.221-6.27,1.025-5.106,3.695
					C102.376,128.75,104.232,133.699,104.232,133.699z"/>
			</g>
			<g>
				<path fill="#64C6F2" d="M122.135,148.762c0,0,5.174-6.604,2.736-9.826c-2.438-3.221-6.66,0.324-5.105,3.699
					C120.305,143.803,122.135,148.762,122.135,148.762z"/>
			</g>
		</g>
		<g>
			<path fill="#A0D9F7" d="M93.915,118.805c0,0,1.193-9.748-3.233-8.298C87.302,111.613,90.891,115.813,93.915,118.805z"/>
		</g>
	</g>
	<g>
		<path fill="#9C9B9B" d="M110.977,139.041l-1-0.012c0.001-0.107,0.099-10.971-1.725-16.035c-1.908-5.303-2.044-19.247,3.631-33.643
			c8.857-22.49,1.35-64.438,1.272-64.858l0.977-0.18c0.078,0.424,7.641,42.651-1.32,65.405c-5.578,14.154-5.475,27.782-3.619,32.938
			C111.078,127.891,110.982,138.588,110.977,139.041z"/>
	</g>
	<path fill="#E5332A" d="M113.648,24.403"/>
	<g>
		<path fill="#FBC779" d="M249.591,127.061c-0.381,0-0.762-0.145-1.053-0.434l-36.893-36.418l-33.08-21.58l-23.964-22.478
			L112.988,25.75c-0.744-0.364-1.052-1.263-0.687-2.007c0.365-0.743,1.265-1.053,2-0.687l42.025,20.599l24.194,22.695l33.018,21.511
			l0.107,0.106l37,36.525c0.59,0.582,0.596,1.531,0.014,2.121C250.366,126.91,249.978,127.061,249.591,127.061z"/>
	</g>
	<g>
		
			<line fill="none" stroke="#9C9B9B" stroke-width="2" stroke-linecap="round" stroke-miterlimit="10" x1="110.477" y1="135.701" x2="110.477" y2="140.701"/>
		<g>
			<path fill="#9C9B9B" d="M110.477,162.233c-0.276,0-0.5-0.225-0.5-0.5v-5c0-0.277,0.224-0.5,0.5-0.5s0.5,0.223,0.5,0.5v5
				C110.977,162.008,110.754,162.233,110.477,162.233z"/>
		</g>
		<g>
			<path fill="#D9D9D9" d="M103.577,145.664l13.794,0.271c0,0-1.066,6.924-2.963,9.566c-1.89,2.643-2.296,3.592-3.855,3.727
				c-1.558,0.137-5.346-4.33-6.028-7.992C103.842,147.574,103.577,145.664,103.577,145.664z"/>
			<path fill="#E5332A" d="M110.477,139.035c-3.811,0-6.9,3.09-6.9,6.9h13.794C117.371,142.125,114.281,139.035,110.477,139.035z"/>
		</g>
	</g>
	<path opacity="0.78" fill="#64C6F2" d="M110.48,159.229c1.532-0.002,1.987-1.012,3.877-3.654c0.746-1.041,1.426-2.711,1.9-4.395
		c-3.35,0.156-8.172,0.744-11.398,1.297C106.034,155.819,108.981,159.233,110.48,159.229z"/>
	<g>
		<path fill="#575756" d="M175.935,188.948c-1.205-2.211-3.764-3.488-3.764-3.488s1.824-0.352,3.213-1.156
			c1.389-0.807,1.861-3.881,1.861-3.881s-0.6-0.584-4.932-0.936c-4.363-0.354-7.551,3.182-7.551,3.182
			c-0.846-0.604-2.729-1.754-6.469-3.273l0.078-4.531l-5.53,2.537c-1.713-0.57-3.643-1.17-5.83-1.795
			c-2.684-0.768-5.41-1.215-8.084-1.43l-0.4-3.502l-3.59,3.346c-0.207-0.002-0.416-0.006-0.621-0.004
			c-10.6,0.102-19.312,3.244-19.312,3.244s7.406,6.279,17.865,9.596l2.781,5.002l0.625-4.064c2.074,0.484,4.238,0.836,6.467,0.982
			c4.139,0.273,7.477,0.289,10.154,0.166l3.461,3.951l-0.203-4.191c4.735-0.504,6.38-1.436,6.38-1.436s2.439,2.496,6.361,3.887
			c4.828,1.281,7.838,0.826,7.838,0.826S176.659,190.274,175.935,188.948z"/>
		<circle fill="#FFFFFF" cx="129.073" cy="178.923" r="2.28"/>
		<path fill="#575756" d="M129.977,179.063c-0.078,0.498-0.545,0.84-1.043,0.764c-0.5-0.076-0.842-0.543-0.766-1.043
			c0.078-0.496,0.545-0.84,1.043-0.764C129.711,178.096,130.053,178.565,129.977,179.063z"/>
	</g>
	<g>
		<path fill="#DA913F" d="M154.313,46.403c-0.117,0-0.236-0.042-0.332-0.126c-0.205-0.184-0.225-0.5-0.041-0.706l2-2.25
			c0.184-0.208,0.5-0.225,0.705-0.042c0.207,0.184,0.227,0.5,0.043,0.706l-2,2.25C154.588,46.346,154.451,46.403,154.313,46.403z"/>
	</g>
	<g>
		<path fill="#DA913F" d="M178.271,69.028c-0.133,0-0.264-0.053-0.363-0.156c-0.189-0.2-0.18-0.517,0.02-0.707l2.375-2.25
			c0.201-0.188,0.518-0.18,0.707,0.02c0.189,0.2,0.182,0.517-0.02,0.707l-2.375,2.25C178.519,68.982,178.394,69.028,178.271,69.028z
			"/>
	</g>
	<g>
		<path fill="#DA913F" d="M211.771,91.028c-0.104,0-0.209-0.032-0.299-0.1c-0.221-0.166-0.266-0.479-0.102-0.7l1.875-2.5
			c0.168-0.221,0.482-0.265,0.701-0.101c0.221,0.166,0.266,0.479,0.1,0.7l-1.875,2.5C212.073,90.959,211.923,91.028,211.771,91.028z
			"/>
	</g>
	<g>
		<path fill="#DA913F" d="M118.69,28.379c-0.221,0-0.447-0.049-0.658-0.153l-5.043-2.476c-0.744-0.364-1.052-1.263-0.687-2.007
			c0.365-0.743,1.265-1.053,2-0.687l5.051,2.476c0.744,0.364,1.051,1.263,0.686,2.007C119.778,28.07,119.244,28.379,118.69,28.379z"
			/>
	</g>
	<path fill="#F4D9BE" d="M227.945,96.881c0,0-3.439-7.528-6.078-6.193c-2.639,1.336-2.062,4.778-1.08,5.779
		c0.535,0.544,1.584,1.612,2.434,2.478c-3.246,1.54-6.902,3.582-6.492,4.808c0.723,2.162,2.604,2.651,3.305,3.365
		c0.699,0.714,2.816,0.014,2.816,0.014s-2.854,3.756-1.924,5.18c0.932,1.423,3.051,1.678,3.996,1.216
		c0.947-0.463,2.143-2.102,2.143-2.102s-0.707,2.916-0.492,4.457c0.092,0.646,0.42,3.086,4.686,0.768
		c0.535-0.291,1.09-0.594,1.652-0.9c-0.115,0.604-0.086,1.113,0.199,1.404c1.176,1.195,1.854,2.4,3.889-0.066
		c2.035-2.465,4.02-5.829,4.02-5.829S240.919,100.363,227.945,96.881z"/>
	<polygon fill="#B3DAC6" points="228.206,97.032 255.544,77.376 266.013,90.235 240.749,109.269 	"/>
</g>
</svg>
