<?xml version="1.0" encoding="utf-8"?>
<!-- Generator: Adobe Illustrator 16.0.0, SVG Export Plug-In . SVG Version: 6.00 Build 0)  -->
<!DOCTYPE svg PUBLIC "-//W3C//DTD SVG 1.1//EN" "http://www.w3.org/Graphics/SVG/1.1/DTD/svg11.dtd">
<svg version="1.1" id="Layer_1" xmlns="http://www.w3.org/2000/svg" xmlns:xlink="http://www.w3.org/1999/xlink" x="0px" y="0px"
	 width="371.333px" height="226.77px" viewBox="-70.782 0 371.333 226.77" enable-background="new -70.782 0 371.333 226.77"
	 xml:space="preserve">
<g>
	<path fill="#7A7979" d="M285.177,119.034c0,0,6.998,0.617,5.834,4.17c-1.166,3.554-3.186,2.622-11.086,1.165
		c-7.899-1.456-25.392-4.603-25.392-4.603l14.903-2.652L285.177,119.034z"/>
	<path fill="#969695" d="M276.664,133.783c-1.329-1.006-20.854-8.094-31.269-11.835c4.897-1.037,20.957,0.055,26.229-5.576
		c2.971-3.175,3.642-6.132,3.642-7.395c0-1.07,0.194-3.45-1.28-7.141l0,0l1.289-2.109l2.793-3.827l-5.323,0.409l-11.673-6.668
		l-1.773-4.727c0,0-12.269,6.429-18.936,9.94c-2.835,1.362-5.041,2.645-5.682,3.276c-1.641,1.62-17.689,2.304-34.459,1.932
		c-16.771-0.373-29.457-0.238-29.457-0.238c-9.362,2.07-10.812,6.981-9.24,12.591l-25.275,8.056c0,0-6.338,1.882-6.107,4.867
		c0.23,2.984,1.635,4.932,9.629,1.418c3.643-1.602,11.775-4.14,19.551-6.431c1.658,0.821,4.223,1.963,7.074,2.773l-23.168,13.624
		c0,0-5.843,3.094-5.029,5.975c0.814,2.881,2.576,4.514,9.721-0.506c3-2.107,9.484-5.877,16.002-9.543
		c4.098,1.22,11.573,2.829,16.603,0.306c8.579,2.525,19.312,3.037,26.972,3.001c8.457-0.04,21.008-5.268,29.062-9.274
		c8.174,2.812,24.465,8.406,33.219,11.327C281.773,142.014,278.482,135.159,276.664,133.783z"/>
	<g>
		<path fill="#422918" d="M-25.593,123.346c1.428,0,2.649-1.086,2.791-2.534c0.231-2.367-1.726-2.991-3.798-3.652
			c-4.511-1.442-18.239-5.823-20.976-15.202c-1.699-5.824,0.959-13.008,7.897-21.344c0.992-1.192,0.83-2.961-0.361-3.952
			c-1.189-0.992-2.961-0.831-3.953,0.361c-8.208,9.858-11.227,18.778-8.971,26.508c3.572,12.245,18.888,17.135,24.656,18.976
			c0.428,0.139,0.903,0.287,1.18,0.387c0.367,0.237,0.794,0.395,1.259,0.441C-25.775,123.34-25.683,123.346-25.593,123.346z"/>
	</g>
	<path fill="#E0B475" d="M103.432,95.221c0,0-17.872,3.91-30.153,7.635s-31.23-3.533-31.23-3.533l-0.352,3.193H33.5
		c0,0-42.284,0.398-51.477,4.507c-9.192,4.111-7.718,17.342-7.641,23.187c0.042,3.181,1.34,8.5,6.024,12.602l-8.702,11.357
		l0.361,1.456c0,0,0.529,3.962,3.272,4.599c2.228,0.515,1.822-3.742,1.59-5.352l13.282-7.252c2.917,0.695,6.343,1.059,10.37,0.957
		c0.371-0.01,0.829-0.016,1.341-0.021l-1.377,3.705l0.487,1.372c0,0,1.534,3.802,4.064,4.232c1.99,0.341,0.368-2.869-0.412-4.251
		l3.741-5.048c6.609,0.047,14.618,0.158,22.15,0.192l0.384,0.68l11.901,14.271l0.309-0.156l1.466-0.318c0,0,3.977-0.41,4.691-3.135
		c0.387-1.476-1.378-1.84-3.076-1.865l-4.342-9.517c1.396-0.03,2.466-0.077,3.103-0.142c2.233-0.229,4.284-0.438,6.195-0.635
		l11.138,13.021l1.764-0.104c0,0,1.571,0.074,2.365-0.326c1.771-0.889,1.983-1.335,2.303-2.552c0.474-1.806-3.063-2.222-4.635-1.538
		l-1.474-8.336c10.758-0.499,31.682-5.268,44.596-19.489C123.763,110.448,103.432,95.221,103.432,95.221z"/>
	<g>
		<path fill="#575756" d="M59.825,120.416c0.292-0.066,0.584-0.147,0.876-0.249c2.718-0.948,4.763-3.293,6.076-6.97
			c0.262-0.729-0.119-1.532-0.849-1.792c-0.731-0.26-1.534,0.12-1.794,0.847c-1.013,2.84-2.479,4.612-4.355,5.262
			c-2.872,1.002-5.976-0.866-6.007-0.884c-0.658-0.411-1.525-0.21-1.935,0.448c-0.409,0.659-0.209,1.525,0.449,1.934
			C52.446,119.112,55.981,121.278,59.825,120.416z"/>
	</g>
	<circle fill="#422918" cx="106.995" cy="96.269" r="6.806"/>
	<path fill="#35A8E0" d="M26.016,132.447l-0.029-1.181c0,0-1.872-5.461,0.031-12.123c2.751-9.629,6.729-16.627,6.729-16.627h10.34
		c0,0-8.68,11.635-9.911,18.023c-1.227,6.366-0.433,9.922-0.426,9.945c1.944,6.226,10.406,18.444,10.406,18.444h-9.399
		l-7.739-16.479l0,0L26.016,132.447z"/>
	<circle fill="#95CFC4" cx="35.746" cy="144.332" r="1.475"/>
	<circle fill="#95CFC4" cx="33.757" cy="139.307" r="1.475"/>
	<path fill="#95CFC4" d="M29.333,133.28c0,0.816,0.658,1.477,1.474,1.477c0.813,0,1.475-0.66,1.475-1.477
		c0-0.812-0.662-1.473-1.475-1.473C29.991,131.807,29.333,132.468,29.333,133.28z"/>
	<circle fill="#95CFC4" cx="29.332" cy="126.588" r="1.475"/>
	<path fill="#95CFC4" d="M29.333,119.319c0,0.812,0.658,1.471,1.474,1.471c0.813,0,1.475-0.658,1.475-1.471
		c0-0.816-0.662-1.476-1.475-1.476C29.991,117.843,29.333,118.502,29.333,119.319z"/>
	<circle fill="#95CFC4" cx="32.282" cy="112.259" r="1.475"/>
	<circle fill="#95CFC4" cx="35.2" cy="106.119" r="1.475"/>
	<path fill="#422918" d="M42.275,99.162c-8.819-3.881-12.569,3.775-14.657,10.684c-2.351,7.773-21.863,32.341-5.709,38.579
		C41.621,156.037,51.092,103.047,42.275,99.162z"/>
	<path fill="#95CFC4" d="M37.237,148.929c-0.006-0.052-0.016-0.105-0.016-0.157c0-0.816,0.659-1.475,1.474-1.475
		c0.814,0,1.475,0.658,1.475,1.475c0,0.052-0.01,0.105-0.016,0.157H37.237z"/>
	<path fill="#F29100" d="M93.329,132.754c-1.784,1.533-4.471,1.331-6.003-0.454l0,0c-1.532-1.783-1.328-4.471,0.456-6.004
		l1.81-1.555c1.783-1.532,4.471-1.328,6.004,0.453l0,0c1.532,1.785,1.328,4.473-0.455,6.006L93.329,132.754z"/>
	<path fill="none" stroke="#969695" stroke-width="4" stroke-linecap="round" stroke-miterlimit="10" d="M132.663,74.1
		c0,0,14.288,1.961,19.891,14.288c5.604,12.327,10.927,18.368,12.047,18.57"/>
	<path fill="#7A7979" d="M197.93,100.016c0,0-0.155,16.603,1.048,16.356c1.204-0.248,8.209-16.215,8.209-16.215L197.93,100.016z"/>
	<polygon fill="#7A7979" points="208.99,100.161 210.96,116.372 216.298,100.087 	"/>
	<path fill="#7A7979" d="M218.123,100.041c0,0,0.27,13.05,1.11,12.885c0.84-0.164,5.906-13.198,5.906-13.198L218.123,100.041z"/>
	<path fill="#7A7979" d="M273.21,110.17c-0.1-0.258-0.39-0.384-0.646-0.286c-4.887,1.89-7.177-0.83-7.273-0.949
		c-0.174-0.214-0.486-0.248-0.702-0.077c-0.216,0.172-0.251,0.486-0.079,0.702c0.068,0.086,1.107,1.312,3.15,1.793l-1.92,3.323
		c-0.961-0.141-1.818,0.258-1.938,0.917c-0.123,0.681,0.583,1.375,1.577,1.555c0.992,0.179,1.897-0.227,2.019-0.906
		c0.082-0.453-0.209-0.91-0.703-1.22l2.029-3.51c0.192,0.015,0.373,0.042,0.58,0.042c1.033,0,2.238-0.203,3.621-0.736
		C273.183,110.718,273.31,110.428,273.21,110.17z"/>
	<path fill="#7A7979" d="M234.681,98.132c0.102,0.743,12.383,15.672,23.121,9.969c10.74-5.705,11.635-13.681,11.635-13.681
		l-8.365-4.778l-1.773-4.727C259.298,84.915,235.782,96.375,234.681,98.132z"/>
	<circle fill="#FFFFFF" cx="257.802" cy="98.569" r="3.269"/>
	<circle fill="#1D1D1B" cx="257.803" cy="98.569" r="1.495"/>
	<g>
		<circle fill="#F4A689" cx="249.491" cy="103.778" r="3.615"/>
	</g>
	<path fill="#F4A689" d="M272.744,114.057c0,0.302,0.048,0.592,0.118,0.872c1.189-1.6,1.83-3.076,2.142-4.221
		C273.68,111.245,272.744,112.539,272.744,114.057z"/>
	<line fill="none" x1="253.107" y1="119.581" x2="253.107" y2="119.767"/>
	<path fill="#7A7979" d="M276.665,133.783c-0.57-0.431-4.982-2.35-10.926-4.405l-0.728,6.896l-0.004,0.132
		c1.8,0.581,3.413,1.15,4.769,1.603C281.774,142.014,278.482,135.159,276.665,133.783z"/>
	<path fill="#7A7979" d="M143.228,136.724c0,0-5.843,3.094-5.029,5.975c0.814,2.881,2.576,4.514,9.721-0.506
		c2.436-1.712,7.635-4.791,13.43-8.107c-2.6-1.901-5.777-2.692-8.521-3.005L143.228,136.724z"/>
</g>
</svg>
