<?xml version="1.0" encoding="utf-8"?>
<!-- Generator: Adobe Illustrator 16.0.0, SVG Export Plug-In . SVG Version: 6.00 Build 0)  -->
<!DOCTYPE svg PUBLIC "-//W3C//DTD SVG 1.1//EN" "http://www.w3.org/Graphics/SVG/1.1/DTD/svg11.dtd">
<svg version="1.1" id="Layer_1" xmlns="http://www.w3.org/2000/svg" xmlns:xlink="http://www.w3.org/1999/xlink" x="0px" y="0px"
	 width="324.666px" height="226.77px" viewBox="-24.115 0 324.666 226.77" enable-background="new -24.115 0 324.666 226.77"
	 xml:space="preserve">
<path fill="#B28E5D" d="M247.882,110.199c0-21.374-17.326-38.7-38.699-38.7c-21.375,0-38.701,17.326-38.701,38.7
	c0,17.415,11.502,32.137,27.324,36.997h-0.004v16.277c0,0,17.455,3,23.158-0.5c0-5.045,0-12.592,0-15.906
	C236.572,142.084,247.882,127.465,247.882,110.199z"/>
<path fill="#FCE4DB" d="M104.626,98.234c-0.139,0-0.273,0.014-0.412,0.021c-2.756-19.269-19.321-34.082-39.35-34.082
	c-20.062,0-36.646,14.861-39.363,34.174c-0.43-0.068-0.867-0.113-1.316-0.113c-4.636,0-8.393,3.758-8.393,8.393
	c0,4.637,3.757,8.395,8.393,8.395c0.833,0,1.637-0.125,2.396-0.352c3.549,12.684,13.229,22.803,25.641,26.965l-0.095-0.029v14.117
	c0,0,16.973,5.75,27.13,0.416c0-7.93,0.495-13.076,0.793-15.457c11.117-4.602,19.694-14.098,23.04-25.807
	c0.498,0.092,1.012,0.146,1.537,0.146c4.635,0,8.393-3.758,8.393-8.395C113.019,101.992,109.261,98.234,104.626,98.234z
	 M53.88,142.151c0.017,0.004,0.033,0.01,0.051,0.014h-0.004L53.88,142.151z"/>
<polygon fill="#422918" points="247.882,110.249 263.105,168.506 254.007,168.506 251.882,163.201 250.507,168.506 246.173,168.506 
	243.851,127.397 "/>
<g>
	<path fill="#575756" d="M217.163,109.249c0.32,0,0.645,0.018,0.975,0.055c3.055,0.352,5.734,2.32,7.963,5.847
		c0.443,0.699,0.234,1.625-0.467,2.068c-0.701,0.441-1.627,0.232-2.068-0.467c-1.721-2.723-3.662-4.226-5.771-4.468
		c-3.229-0.371-6.031,2.298-6.061,2.326c-0.588,0.582-1.539,0.574-2.121-0.016c-0.58-0.59-0.574-1.541,0.016-2.121
		C209.773,112.333,212.954,109.249,217.163,109.249z"/>
</g>
<g>
	<path fill="#575756" d="M203.462,125.776h-11.213V105.82c0-0.828,0.672-1.5,1.5-1.5c0.83,0,1.5,0.672,1.5,1.5v16.956h8.213
		c0.828,0,1.5,0.672,1.5,1.5S204.29,125.776,203.462,125.776z"/>
</g>
<g>
	<circle fill="#D1938A" cx="219.907" cy="125.776" r="8.393"/>
</g>
<path fill="#D1938A" d="M176.156,117.903c-1.688,0.145-3.213,0.779-4.455,1.752c1.371,5.49,3.895,10.48,7.289,14.723
	c3.879-1.012,6.588-4.689,6.238-8.82C184.837,120.938,180.775,117.512,176.156,117.903z"/>
<ellipse fill="#FFFDF1" cx="198.606" cy="135.789" rx="5.854" ry="5.5"/>
<path fill="#422918" d="M209.183,71.549c-5.375,0-10.494,1.098-15.146,3.077c0.012,0.028,15.279,40.167,53.846,35.623
	C247.882,88.875,230.556,71.549,209.183,71.549z"/>
<path fill="#422918" d="M171.962,99.583c19.156-2.552,22.074-24.979,22.074-24.979s-0.01-0.024-0.018-0.04
	C183.363,79.106,175.169,88.295,171.962,99.583z"/>
<g>
	<path fill="#575756" d="M181.132,107.928c4.211,0,7.391,3.084,7.535,3.225c0.59,0.58,0.596,1.531,0.016,2.121
		c-0.58,0.588-1.527,0.596-2.119,0.02l0,0c-0.027-0.027-2.818-2.723-6.08-2.328c-2.104,0.25-4.039,1.752-5.754,4.466
		c-0.441,0.701-1.367,0.906-2.068,0.467c-0.701-0.443-0.91-1.369-0.467-2.068c2.229-3.529,4.908-5.496,7.965-5.848
		C180.488,107.946,180.814,107.928,181.132,107.928z"/>
</g>
<g>
	<circle fill="#F2A489" cx="41.63" cy="121.133" r="8.393"/>
</g>
<g>
	<path fill="#575756" d="M69.966,122.813H58.755v-19.956c0-0.828,0.671-1.5,1.5-1.5c0.828,0,1.5,0.672,1.5,1.5v16.956h8.211
		c0.829,0,1.5,0.672,1.5,1.5S70.795,122.813,69.966,122.813z"/>
</g>
<g>
	<path fill="#F29100" d="M102.105,85.57c0,0-11.684-22.139-32.139-22.731C44.68,62.105,35.229,74.7,28.114,86.63
		c0,0-5.672,8.817,0,17.587c1.781,2.754,1.912,2.602,1.912,2.602l4.217-19.59c6.143,0.582,15.668,1.438,22.671,1.848
		c1.082,0.063,5.467-2.449,6.602-2.818c-0.442,1.26-0.948,1.658-1.557,3.04c2.097,0.046,3.519-0.013,3.875-0.224
		c2.004-1.187,7.861-3.504,7.861-3.504l1.45,3.741l19.598-2.72l5.124,20.035c0,0,0.457,0.344,2.238-2.41
		C107.777,95.447,102.105,85.57,102.105,85.57z"/>
</g>
<g>
	<circle fill="#F2A489" cx="88.661" cy="121.133" r="8.393"/>
</g>
<g>
	<path fill="#575756" d="M44.145,101.472c4.211,0,7.391,3.084,7.535,3.225c0.59,0.58,0.596,1.531,0.016,2.121
		c-0.58,0.588-1.527,0.596-2.119,0.02l0,0c-0.027-0.027-2.818-2.723-6.08-2.328c-2.104,0.25-4.039,1.752-5.754,4.467
		c-0.441,0.701-1.367,0.906-2.068,0.467c-0.701-0.443-0.91-1.369-0.467-2.068c2.229-3.529,4.908-5.496,7.965-5.848
		C43.501,101.49,43.827,101.472,44.145,101.472z"/>
</g>
<g>
	<path fill="#575756" d="M84.665,101.664c0.32,0,0.645,0.018,0.975,0.055c3.055,0.352,5.734,2.32,7.963,5.848
		c0.443,0.699,0.234,1.625-0.467,2.068c-0.701,0.441-1.627,0.232-2.068-0.467c-1.721-2.723-3.662-4.227-5.771-4.469
		c-3.229-0.371-6.031,2.299-6.061,2.326c-0.588,0.582-1.539,0.574-2.121-0.016c-0.58-0.59-0.574-1.541,0.016-2.121
		C77.274,104.748,80.456,101.664,84.665,101.664z"/>
</g>
<ellipse fill="#FFFDF1" cx="65.611" cy="133.639" rx="5.854" ry="5.5"/>
<path fill="#C5D6E0" d="M160.482,97.582c0-8.352-8.859-15.121-19.787-15.121s-19.785,6.77-19.785,15.121s8.857,15.122,19.785,15.122
	c0.613,0,1.217-0.028,1.816-0.07l-0.014,0.005l10.244,4.065l1.744-8.283l-0.02,0.007C158.171,105.679,160.482,101.84,160.482,97.582
	z"/>
<path fill="#C5D6E0" d="M124.376,122.26c-12.844,0-23.254,7.957-23.254,17.771c0,4.998,2.703,9.51,7.047,12.738h-0.002l2.051,9.734
	l12.039-4.777l0,0c0.697,0.047,1.404,0.076,2.119,0.076c12.842,0,23.254-7.957,23.254-17.771S137.218,122.26,124.376,122.26z"/>
</svg>
