<?xml version="1.0" encoding="utf-8"?>
<!-- Generator: Adobe Illustrator 16.0.0, SVG Export Plug-In . SVG Version: 6.00 Build 0)  -->
<!DOCTYPE svg PUBLIC "-//W3C//DTD SVG 1.1//EN" "http://www.w3.org/Graphics/SVG/1.1/DTD/svg11.dtd">
<svg version="1.1" id="Layer_1" xmlns="http://www.w3.org/2000/svg" xmlns:xlink="http://www.w3.org/1999/xlink" x="0px" y="0px"
	 width="226.77px" height="226.77px" viewBox="0 0 226.77 226.77" enable-background="new 0 0 226.77 226.77" xml:space="preserve">
<g>
	<g>
		<path fill="#683B11" d="M172.788,94.946c-0.411-17.668-20.826-25.713-20.826-25.713s-6.902,4.201-41.093,16.323
			c-0.836,0.524,17.278-1.469,21.923,20.975c2.821,13.642-2.775,19.985-2.775,19.985l0,0c33.383-12.182,39.787-11.93,39.787-11.93
			S173.095,108.137,172.788,94.946z"/>
	</g>
	<g>
		<path fill="#7E4E24" d="M150.45,76.827c-1.938-0.987-20.442-10.415-20.442-10.415l-4.804,1.671c0,0,8.919,8.744,17.646,17.206
			C152.443,88.675,152.389,77.814,150.45,76.827z"/>
	</g>
	<g>
		<ellipse fill="#FBC779" cx="128.149" cy="67.623" rx="3.051" ry="1.61"/>
	</g>
	<g>
		<path fill="#FBC779" d="M118.274,85.168c0,0,16.6,6.888,17.564,27.167c0.566,11.914-5.821,14.182-5.821,14.182
			s-12.91,7.56-20.679-3.848c-12.799-18.792,0.833-36.667,0.833-36.667S111.876,84.168,118.274,85.168z"/>
	</g>
	<g>
		<path fill="#DA913F" d="M120.602,125.485c0,0,0.352-0.094,1.104-0.209c0.711-0.137,1.729-0.166,2.567-0.885
			c0.868-0.717,1.6-2.117,2.242-3.789c0.646-1.664,1.279-3.686,1.965-5.834c0.653-2.158,1.342-4.498,1.641-6.974
			c0.299-2.466,0.065-5.103-1.216-7.385c-0.314-0.569-0.676-1.123-1.102-1.641c-0.416-0.508-0.918-1.127-1.377-1.635
			c-0.936-1.064-1.94-2.117-3.026-3.028c-1.087-0.911-2.271-1.681-3.548-2.15c-1.271-0.479-2.645-0.574-4.021-0.403
			c-0.326,0.058-0.729,0.12-0.994,0.185c-0.347,0.107-0.777,0.188-1.048,0.317c-0.592,0.221-1.247,0.521-1.822,0.901
			c-1.178,0.733-2.215,1.703-3.065,2.805c-1.698,2.213-2.688,4.915-2.93,7.608c-0.281,2.692,0.14,5.37,0.774,7.829
			c0.645,2.464,1.568,4.707,2.621,6.654c1.053,1.945,2.273,3.584,3.566,4.795c1.278,1.232,2.635,1.996,3.81,2.414
			c1.185,0.402,2.178,0.49,2.848,0.479c0.672-0.015,1.031-0.058,1.031-0.058l0.135,0.99c0,0-0.1,0.01-0.292,0.031
			c-0.193,0.012-0.479,0.067-0.854,0.067c-0.748,0.035-1.873-0.026-3.224-0.438c-1.339-0.428-2.882-1.246-4.315-2.543
			c-1.45-1.279-2.808-2.994-3.984-5.021c-1.184-2.022-2.168-4.373-2.898-6.946c-0.711-2.57-1.222-5.417-0.968-8.414
			c0.218-2.974,1.242-6.058,3.19-8.597c0.968-1.269,2.157-2.397,3.542-3.273c0.339-0.229,0.699-0.426,1.071-0.605
			c0.354-0.196,0.767-0.351,1.171-0.506c0.426-0.181,0.75-0.229,1.127-0.349c0.473-0.119,0.823-0.166,1.243-0.243
			c1.628-0.221,3.378-0.109,4.946,0.474c1.573,0.569,2.951,1.473,4.158,2.472c1.211,1.006,2.266,2.103,3.271,3.23
			c0.523,0.58,0.945,1.088,1.444,1.701c0.486,0.606,0.907,1.265,1.273,1.944c0.742,1.358,1.18,2.851,1.379,4.311
			c0.188,1.465,0.142,2.898-0.028,4.251c-0.341,2.715-1.127,5.121-1.879,7.291c-0.775,2.168-1.455,4.115-2.207,5.881
			c-0.769,1.728-1.627,3.261-2.871,4.203c-0.617,0.469-1.309,0.701-1.864,0.803c-0.562,0.103-1.003,0.117-1.355,0.15
			c-0.663,0.051-1.057,0.121-1.057,0.121L120.602,125.485z"/>
	</g>
	<g>
		<path fill="#DA913F" d="M124.348,116.541c0.039-0.123,0.105-0.334,0.2-0.633c0.123-0.449,0.318-1.164,0.482-2.097
			c0.327-1.844,0.689-4.59,0.271-7.75c-0.224-1.562-0.654-3.248-1.586-4.688l-0.368-0.527l-0.092-0.133l-0.022-0.034
			c0.005,0.006-0.028-0.036,0.011,0.009l-0.016-0.018l-0.06-0.07l-0.235-0.284c-0.316-0.399-0.633-0.732-0.949-1.06
			c-0.662-0.656-1.398-1.314-2.224-1.837c-1.611-1.05-3.63-1.843-5.502-1.438c-0.938,0.216-1.702,0.699-2.355,1.566
			c-0.596,0.767-1.062,1.774-1.379,2.789c-0.64,2.051-0.836,4.276-0.645,6.426c0.174,2.157,0.689,4.249,1.424,6.178
			c0.198,0.48,0.34,0.97,0.62,1.412c0.266,0.445,0.637,0.842,0.984,1.224c0.708,0.762,1.045,1.67,1.526,2.471
			c0.926,1.58,1.958,3.07,3.018,3.74c1.002,0.631,2.013,0.237,2.952-0.548c0.949-0.758,1.693-1.655,2.279-2.383
			c0.587-0.735,1.018-1.35,1.302-1.768C124.16,116.824,124.281,116.641,124.348,116.541z M126.111,117.496
			c0,0-0.157,0.248-0.455,0.711c-0.299,0.451-0.743,1.104-1.363,1.91c-0.634,0.797-1.395,1.768-2.544,2.754
			c-0.288,0.252-0.601,0.479-0.994,0.727c-0.208,0.115-0.47,0.266-0.652,0.338l-0.262,0.103l-0.133,0.051l-0.122,0.041l-0.046,0.01
			l-0.094,0.021c-0.966,0.266-2.224,0.082-3.125-0.496c-1.812-1.154-2.752-2.884-3.711-4.613c-0.426-0.896-0.988-1.746-1.121-2.82
			c-0.085-0.528-0.129-1.065-0.275-1.562c-0.151-0.492-0.384-0.976-0.573-1.472c-0.784-1.975-1.349-4.125-1.562-6.359
			c-0.222-2.228-0.185-4.55,0.426-6.801c0.309-1.128,0.727-2.213,1.438-3.256c0.296-0.423,0.758-0.98,1.262-1.337
			c0.257-0.19,0.521-0.372,0.814-0.495c0.283-0.155,0.582-0.255,0.887-0.34c1.219-0.345,2.476-0.271,3.614,0.005
			c1.146,0.282,2.197,0.761,3.162,1.326c0.976,0.562,1.82,1.245,2.623,1.974c0.405,0.381,0.788,0.76,1.101,1.12l0.249,0.271
			l0.062,0.068l0.052,0.062l0.03,0.041l0.119,0.165l0.47,0.659c1.165,1.805,1.613,3.749,1.879,5.484
			c0.466,3.512,0.073,6.398-0.271,8.389c-0.177,0.998-0.383,1.771-0.538,2.332l-0.282,0.895L126.111,117.496z"/>
	</g>
	<g>
		<polygon fill="#683B11" points="140.121,120.498 138.955,126.545 143.341,125.696 146.205,116.612 		"/>
	</g>
	<g>
		
			<ellipse transform="matrix(-0.2447 -0.9696 0.9696 -0.2447 53.3009 294.0046)" fill="#B28E5D" cx="141.163" cy="126.242" rx="1.437" ry="2.247"/>
	</g>
	<g>
		<polygon fill="#C5D6E0" points="180.455,116.061 73.182,80.436 66.1,94.646 66.046,97.03 69.327,96.133 69.328,96.133 
			69.68,98.842 72.34,97.52 72.862,100.427 76.961,99.648 76.961,99.648 75.835,101.909 81.109,101.558 81.11,101.558 
			81.039,104.503 85.255,103.469 85.256,103.469 85.524,106.737 89.852,105.586 91.262,109.596 94.488,107.72 94.489,107.72 
			94.895,111.406 99.096,109.842 99.098,109.844 100.63,113.838 104.85,112.492 104.851,112.492 106.083,115.705 109.888,114.813 
			110.699,117.252 113.398,116.43 114.361,119.008 116.731,117.963 116.731,117.963 117.271,121.139 120.303,119.61 120.792,122.61 
			123.766,121.203 123.767,121.205 124.254,123.627 127.245,122.807 127.889,125.438 130.916,124.496 130.917,124.498 
			131.524,127.25 135.304,126.518 135.655,129.205 139.227,128.324 139.228,128.324 139.544,131.071 142.929,130.03 142.929,130.03 
			143.676,133.307 147.299,132.041 147.3,132.043 147.653,135.287 152.599,134.483 152.649,137.778 157.029,136.524 
			157.306,140.098 161.362,138.518 161.168,142.024 164.008,139.737 164.008,139.737 164.236,143.551 167.142,141.18 
			167.363,141.281 		"/>
	</g>
	<g>
		<path fill="#683B11" d="M110.205,111.158c-1.749-13.815-19.78-21.357-19.792-21.362c-15.949,5.654-34.579,11.846-54.936,17.843
			c3.159-0.158,12.641-0.268,17.445,3.89c5.876,5.082,10.885,3.365,15.385,22.086c1.396,5.806-8.279,18.714-10.854,20.457
			c18.807-9.897,36.211-17.295,51.27-22.791l0,0C108.725,131.281,111.955,124.979,110.205,111.158z"/>
	</g>
	<g>
		<path fill="#DA913F" d="M28.409,143.395c4.743,15.037,23.555,17.437,32.607,8.687c13.323-12.879,8.769-33.604-8.408-42.236
			C34.217,100.596,18.386,111.606,28.409,143.395z"/>
	</g>
	<g>
		<path fill="#7E4E24" d="M91.58,131.229c-0.992,5.074-3.362,17.435-3.362,17.435l4.373-0.724l5.521-16.711
			C98.112,131.229,94.372,126.516,91.58,131.229z"/>
	</g>
	<g>
		
			<ellipse transform="matrix(-0.2447 -0.9696 0.9696 -0.2447 -31.4359 272.4879)" fill="#FBC779" cx="90.414" cy="148.488" rx="1.437" ry="2.247"/>
	</g>
	<g>
		<path fill="#FBC779" d="M44.765,109.594c1.185,0.328,11.523,2.801,15.19,9.967c3.667,7.168,5.5,9.834,4.5,16.168
			c-1,6.332-5.499,13.853-5.833,14.26c-0.334,0.406-3.171,6.103-11.504,4.906c-8.333-1.192-12.022-2.229-14.279-6.873
			c-3.384-6.959-4.844-3.791-4.8-14.512c0.044-10.719,1.963-21.541,7.438-23.244C40.955,108.561,43.028,109.114,44.765,109.594z"/>
	</g>
	<g>
		<path fill="#DA913F" d="M48.309,151.739c0,0,0.391-0.102,1.218-0.227c0.784-0.148,1.926-0.174,2.878-0.984
			c0.98-0.803,1.797-2.36,2.516-4.215c0.721-1.848,1.424-4.082,2.188-6.461c0.729-2.389,1.495-4.979,1.828-7.733
			c0.334-2.742,0.077-5.687-1.353-8.236c-0.354-0.637-0.755-1.256-1.229-1.832c-0.465-0.566-1.016-1.246-1.526-1.812
			c-1.039-1.182-2.153-2.35-3.362-3.362c-1.21-1.015-2.531-1.873-3.959-2.398c-1.425-0.535-2.963-0.643-4.5-0.449
			c-0.366,0.064-0.81,0.134-1.113,0.207c-0.386,0.119-0.855,0.205-1.164,0.354c-0.34,0.135-0.681,0.25-1.026,0.443
			c-0.35,0.163-0.689,0.346-1.013,0.563c-1.314,0.82-2.472,1.902-3.419,3.131c-1.895,2.467-2.992,5.478-3.257,8.474
			c-0.31,2.997,0.16,5.971,0.868,8.696c0.717,2.732,1.744,5.224,2.914,7.381c1.173,2.158,2.532,3.978,3.972,5.32
			c1.424,1.365,2.936,2.215,4.243,2.68c1.319,0.443,2.426,0.541,3.172,0.525c0.374,0.014,0.66-0.039,0.854-0.043
			c0.192-0.016,0.293-0.021,0.293-0.021l0.135,0.99c0,0-0.109,0.013-0.321,0.033c-0.213,0.012-0.525,0.076-0.939,0.074
			c-0.824,0.039-2.062-0.031-3.55-0.488c-1.473-0.473-3.17-1.375-4.749-2.809c-1.597-1.412-3.092-3.306-4.389-5.541
			c-1.302-2.236-2.39-4.832-3.192-7.677c-0.783-2.838-1.344-5.979-1.062-9.28c0.242-3.275,1.374-6.668,3.518-9.461
			c1.064-1.396,2.374-2.638,3.896-3.601c0.373-0.252,0.77-0.467,1.178-0.664c0.39-0.217,0.84-0.385,1.282-0.555
			c0.463-0.197,0.828-0.254,1.244-0.383c0.511-0.129,0.902-0.185,1.362-0.269c1.788-0.241,3.704-0.118,5.426,0.521
			c1.726,0.623,3.24,1.615,4.568,2.717c1.334,1.109,2.499,2.32,3.607,3.566c0.576,0.639,1.048,1.207,1.595,1.879
			c0.535,0.666,0.998,1.391,1.401,2.137c0.815,1.492,1.297,3.129,1.517,4.732c0.208,1.61,0.158,3.188-0.028,4.682
			c-0.374,2.992-1.239,5.652-2.067,8.053c-0.854,2.396-1.603,4.558-2.43,6.506c-0.844,1.908-1.786,3.599-3.145,4.632
			c-0.673,0.512-1.426,0.768-2.035,0.881c-0.615,0.11-1.104,0.133-1.494,0.17c-0.738,0.061-1.172,0.139-1.172,0.139L48.309,151.739z
			"/>
	</g>
	<g>
		<path fill="#DA913F" d="M52.543,141.832c0.042-0.133,0.117-0.371,0.227-0.715c0.139-0.503,0.354-1.298,0.537-2.33
			c0.363-2.05,0.766-5.099,0.299-8.613c-0.249-1.738-0.727-3.619-1.771-5.234l-0.412-0.59l-0.104-0.147l-0.025-0.039
			c0.005,0.006-0.029-0.037,0.009,0.008l-0.017-0.021l-0.065-0.078l-0.262-0.313c-0.352-0.439-0.704-0.812-1.06-1.174
			c-0.739-0.73-1.562-1.461-2.481-2.041c-1.799-1.166-4.055-2.049-6.159-1.588c-1.053,0.244-1.918,0.801-2.639,1.766
			c-0.666,0.865-1.18,1.984-1.529,3.113c-0.707,2.281-0.915,4.75-0.701,7.133c0.194,2.391,0.77,4.709,1.584,6.848
			c0.219,0.531,0.38,1.072,0.685,1.564c0.286,0.498,0.681,0.942,1.052,1.373c0.748,0.863,1.141,1.86,1.669,2.752
			c1.024,1.758,2.163,3.42,3.375,4.188c0.604,0.367,1.147,0.425,1.745,0.304l0.056-0.011l0.027-0.004
			c-0.172,0.058-0.036,0.013-0.07,0.023l0.019-0.008l0.148-0.054l0.293-0.104c0.182-0.072,0.245-0.142,0.376-0.199
			c0.25-0.152,0.554-0.348,0.808-0.565c1.062-0.853,1.887-1.851,2.537-2.658c0.65-0.818,1.127-1.5,1.444-1.965
			C52.334,142.149,52.471,141.942,52.543,141.832z M54.306,142.787c0,0-0.174,0.272-0.501,0.782
			c-0.331,0.498-0.822,1.222-1.508,2.107c-0.699,0.879-1.538,1.947-2.801,3.027c-0.316,0.276-0.658,0.524-1.086,0.795
			c-0.226,0.123-0.503,0.285-0.704,0.364l-0.29,0.111l-0.146,0.057l-0.127,0.041l-0.05,0.013l-0.1,0.021
			c-1.045,0.283-2.396,0.088-3.372-0.537c-1.966-1.252-3.011-3.153-4.069-5.061c-0.478-0.984-1.082-1.935-1.263-3.104
			c-0.108-0.577-0.174-1.164-0.345-1.713c-0.175-0.541-0.427-1.076-0.637-1.623c-0.865-2.184-1.488-4.561-1.723-7.028
			c-0.243-2.461-0.193-5.027,0.48-7.509c0.344-1.241,0.809-2.438,1.59-3.577c0.333-0.472,0.833-1.074,1.387-1.464
			c0.28-0.209,0.569-0.405,0.893-0.541c0.31-0.168,0.637-0.274,0.97-0.366c1.332-0.375,2.711-0.293,3.961,0.014
			c1.256,0.312,2.411,0.84,3.472,1.465c1.071,0.619,2.002,1.375,2.882,2.176c0.444,0.42,0.865,0.836,1.211,1.236l0.274,0.303
			l0.067,0.076l0.056,0.066l0.032,0.045l0.132,0.182l0.515,0.721c1.277,1.979,1.771,4.117,2.063,6.029
			c0.514,3.867,0.079,7.058-0.302,9.252c-0.193,1.101-0.422,1.953-0.594,2.568l-0.308,0.975L54.306,142.787z"/>
	</g>
	<g>
		<path fill="#DA913F" d="M47.376,140.545c0,0,0.062-0.156,0.178-0.445c0.044-0.158,0.151-0.531,0.248-1.061
			c0.177-1.052,0.36-2.709,0.317-4.746c-0.063-2.029-0.42-4.431-1.126-6.849c-0.182-0.602-0.395-1.2-0.656-1.754
			c-0.232-0.539-0.646-1.104-0.85-1.19c-0.058-0.021,0.009-0.025-0.076-0.021c-0.16,0.035-0.361,0.06-0.489,0.104l-0.381,0.127
			l-0.424,0.19c-0.556,0.285-1.1,0.644-1.562,1.09c-0.96,0.859-1.666,1.998-1.981,3.212c-0.313,1.219-0.213,2.5,0.185,3.653
			c0.388,1.125,1.049,2.263,1.661,3.265c0.628,1.008,1.291,1.914,1.941,2.688c0.651,0.771,1.293,1.42,1.86,1.828
			c0.141,0.102,0.276,0.205,0.396,0.25c0.118,0.061,0.234,0.143,0.31,0.141c0.082,0.029,0.16,0.06,0.167,0.027
			c0.012-0.006,0.021-0.002,0.03,0.004c-0.003-0.014-0.015-0.027-0.021-0.029c-0.084,0.009,0.068-0.075,0.157-0.276
			c0.09-0.185,0.146-0.275,0.146-0.275L47.376,140.545z M50.004,141.731c0,0-0.127,0.205-0.363,0.592
			c-0.094,0.183-0.34,0.441-0.615,0.714c-0.114,0.139-0.344,0.276-0.578,0.407c-0.116,0.064-0.239,0.127-0.367,0.187
			c-0.141,0.045-0.297,0.076-0.455,0.102c-0.158,0.023-0.324,0.047-0.486,0.052c-0.148-0.017-0.304-0.039-0.46-0.068
			c-0.337-0.047-0.583-0.166-0.837-0.293c-0.279-0.123-0.47-0.275-0.681-0.439c-0.225-0.162-0.391-0.342-0.566-0.524
			c-0.696-0.74-1.271-1.601-1.812-2.56c-0.532-0.961-1.046-2.008-1.586-3.104c-0.521-1.119-1.119-2.203-1.601-3.56
			c-0.448-1.325-0.569-2.864-0.187-4.321c0.373-1.451,1.139-2.83,2.236-3.875c0.527-0.545,1.158-0.979,1.815-1.375l0.516-0.271
			l0.6-0.229c0.199-0.07,0.345-0.093,0.521-0.142c0.25-0.069,0.678-0.057,0.938,0.06c0.56,0.225,0.866,0.576,1.13,0.889
			c0.255,0.322,0.456,0.646,0.636,0.973c0.354,0.648,0.625,1.3,0.861,1.943c0.938,2.576,1.367,5.049,1.717,7.197
			c0.355,2.147,0.451,4.014,0.261,5.389c-0.079,0.684-0.241,1.24-0.403,1.705c-0.13,0.318-0.198,0.488-0.198,0.488L50.004,141.731z"
			/>
	</g>
	<g>
		<path fill="#F5C378" d="M101.435,82.244l-0.959-0.282c0.507-1.725,0.108-2.273,0.104-2.279L101.309,79
			C101.448,79.139,102.11,79.951,101.435,82.244z"/>
	</g>
	<g>
		<path fill="#F5C378" d="M129.709,89.681l-0.205-0.979c1.251-0.264,2.475-2.243,2.84-2.984l0.896,0.442
			C133.178,86.288,131.689,89.265,129.709,89.681z"/>
	</g>
	<g>
		<path fill="#F5C378" d="M120.24,78.668l-1.942-0.476c0.255-1.056,1.246-2.878,3.352-3.014l0.129,1.996
			C120.618,77.249,120.255,78.61,120.24,78.668z"/>
	</g>
	<g>
		<path fill="#F5C378" d="M104.847,69.378l-1.979-0.29c0.135-0.922-0.043-1.321-0.162-1.478c-0.131-0.173-0.31-0.199-0.328-0.202
			l0.119-1.996c0.104,0.004,1.042,0.066,1.733,0.903C104.832,67.041,105.039,68.071,104.847,69.378z"/>
	</g>
	<g>
		<path fill="#F5C378" d="M109.138,82.631l-1.7-1.055c0.513-0.826,2.321-3.493,4.171-3.212l-0.309,1.978
			C110.923,80.365,109.842,81.499,109.138,82.631z"/>
	</g>
	<g>
		<path fill="#F5C378" d="M119.669,88.162l-0.676-0.737c1.018-0.931,2.188-3.517,2.2-3.543l0.912,0.411
			C122.055,84.406,120.838,87.093,119.669,88.162z"/>
	</g>
	<g>
		<path fill="#F5C378" d="M119.139,101.095c-0.818,0-1.354-0.104-1.404-0.115l0.398-1.96l-0.199,0.98l0.195-0.981
			c0.021,0.005,2.257,0.42,4.441-0.767l0.955,1.758C121.886,100.902,120.251,101.095,119.139,101.095z"/>
	</g>
	<g>
		<path fill="#F5C378" d="M110.318,98.903l-1.88-0.682c0.137-0.447-0.372-2.321-1.066-3.93l1.836-0.793
			C109.708,94.66,110.822,97.513,110.318,98.903z"/>
	</g>
	<g>
		<path fill="#F5C378" d="M95.562,89.236l-1.88-0.681c0.46-1.278,0.573-2.618,0.358-2.875l1.15-1.634
			C96.862,85.203,95.898,88.311,95.562,89.236z"/>
	</g>
	<g>
		
			<rect x="137.335" y="91.853" transform="matrix(-0.4542 -0.8909 0.8909 -0.4542 117.5221 259.7842)" fill="#F5C378" width="1.999" height="4.083"/>
	</g>
	<g>
		<path fill="#F5C378" d="M115.846,109.711c-0.33-1.244-1.681-2.982-2.173-3.547l1.506-1.316c0.212,0.243,2.091,2.431,2.601,4.352
			L115.846,109.711z"/>
	</g>
	<g>
		<path fill="#F5C378" d="M125.795,108.195l-1.402-1.426c0.08-0.08,1.996-1.978,4.392-1.881l-0.046,1.999
			C127.223,106.886,125.809,108.181,125.795,108.195z"/>
	</g>
	<g>
		<path fill="#F5C378" d="M102.186,93.911c0-0.04-0.069-3.961-0.707-6.812l1.952-0.436c0.681,3.052,0.751,7.046,0.754,7.215
			L102.186,93.911z"/>
	</g>
	<g>
		<polygon fill="#D0E3EC" points="147.076,104.99 132.792,119.994 135.225,121.127 149.773,105.885 		"/>
	</g>
	<g>
		<polygon fill="#D0E3EC" points="151.716,106.531 138.955,120.645 141.308,121.578 154.017,107.296 		"/>
	</g>
	<g>
		<path fill="#39A935" d="M199.598,115.52l-5.682-2.832c-5.443-2.713-12.056-0.5-14.77,4.945l-10.778,21.631
			c-2.713,5.441-0.499,12.055,4.943,14.766l5.683,2.832c5.443,2.714,12.057,0.498,14.769-4.942l10.779-21.631
			C207.256,124.844,205.042,118.233,199.598,115.52z M186.581,144.196c-1.062,2.134-3.653,3-5.785,1.939
			c-2.135-1.064-3.001-3.656-1.938-5.789l7.473-14.992c1.062-2.133,3.652-3,5.788-1.938c2.132,1.062,2.999,3.653,1.936,5.787
			L186.581,144.196z"/>
	</g>
</g>
</svg>
