<?xml version="1.0" encoding="utf-8"?>
<!-- Generator: Adobe Illustrator 16.0.0, SVG Export Plug-In . SVG Version: 6.00 Build 0)  -->
<!DOCTYPE svg PUBLIC "-//W3C//DTD SVG 1.1//EN" "http://www.w3.org/Graphics/SVG/1.1/DTD/svg11.dtd">
<svg version="1.1" id="Layer_1" xmlns="http://www.w3.org/2000/svg" xmlns:xlink="http://www.w3.org/1999/xlink" x="0px" y="0px"
	 width="295.5px" height="303px" viewBox="-34.115 -44.615 295.5 303" enable-background="new -34.115 -44.615 295.5 303"
	 xml:space="preserve">
<g>
	<g>
		<path fill="#8CA4B2" d="M33.592,233.622c0,0.915-0.743,1.657-1.659,1.657H17.271c-0.917,0-1.66-0.742-1.66-1.657v-5.903
			c0-0.915,0.743-1.659,1.66-1.659h14.661c0.916,0,1.659,0.744,1.659,1.659V233.622z"/>
	</g>
	<g>
		<path fill="#8CA4B2" d="M92.08,233.622c0,0.915-0.744,1.657-1.66,1.657H75.759c-0.917,0-1.66-0.742-1.66-1.657v-5.903
			c0-0.915,0.743-1.659,1.66-1.659H90.42c0.916,0,1.66,0.744,1.66,1.659V233.622z"/>
	</g>
	<g>
		<path fill="#CFD8DE" d="M106.564-0.003c-4.925-6.092-11.687-4.63-20.342-5.232C57.695-7.228,8.924-5.789,8.924-5.789
			S-6.207-5.156-5.603,17.541c0.604,22.696-0.713,188.998-0.713,188.998s-3.488,19.931,18.507,22.763
			c21.996,2.83,72.205,0.264,72.205,0.264s23.148,6.043,25.576-18.705c1.781-18.154,0.529-144.864,0.119-194.289
			C110.001,5.69,108.224,2.05,106.564-0.003z"/>
	</g>
	<g>
		<rect x="108.968" y="10.708" fill="#8CA4B2" width="10.82" height="15.588"/>
	</g>
	<g>
		<rect x="108.968" y="73.978" fill="#8CA4B2" width="10.82" height="15.59"/>
	</g>
	<g>
		<path fill="#CFD8DE" d="M-5.471,130.462h116.173c-0.273-24.256-0.588-97.923-0.779-114.102c-0.131-10.881-1.92-14.514-3.59-16.561
			c-4.946-6.074-11.704-4.587-20.361-5.158C57.44-7.247,8.674-5.63,8.674-5.63S-6.456-4.941-5.769,17.753
			C-5.521,25.941-5.454,101.714-5.471,130.462z"/>
	</g>
	<g>
		<path fill="#E5EFF6" d="M68.627,151.067l26.648-1.546c0,0,3.61-0.344,3.782,2.578c0.172,2.923-0.516,3.267-3.438,3.61
			c-2.923,0.344-26.992-1.718-26.992-1.718S65.188,152.786,68.627,151.067z"/>
	</g>
	<g>
		<rect x="7.606" y="9.916" fill="#F5F5F5" width="90.714" height="111.565"/>
	</g>
	<g>
		<rect x="6.274" y="51.008" fill="#CFD8DE" width="92.996" height="4"/>
	</g>
	<g>
		<rect x="6.274" y="94.583" fill="#CFD8DE" width="93.179" height="4"/>
	</g>
	<g>
		<g>
			<path fill="#FFE6A1" d="M55.9,95.445l14.569-18.689l3.939-5.552c0,0,2.975,9.076,3.792,14.429
				c0.818,5.352,0.669,8.549,0.669,8.549L64.3,97.08l-4.832,0.446l-0.446,0.742c0,0-2.772,0.914-3.291,0.542
				c-0.521-0.372-0.647-1.953-0.498-2.325C55.379,96.113,55.9,95.445,55.9,95.445z"/>
		</g>
		<g>
			<path fill="#F3C74A" d="M55.191,96.858c0,0-5.388-1.339-7.618-1.637s-3.938-0.198-3.938-0.198s0.295,0.736-0.447,0.95
				c-0.743,0.215-1.71-0.885-1.71-0.885l-3.865-0.054l0.67,1.823c0,0,15.906,2.151,17.173,2.007
				c1.262-0.145,0.384-1.072,0.384-1.072S55.872,97.024,55.191,96.858z"/>
		</g>
		<g>
			<path fill="#FFDA62" d="M74.502,71.323c0,0-5.519-1.536-9.458-0.12c-3.94,1.418-5.431,2.333-9.853,6.522
				c-4.423,4.188-14.978,14.447-14.978,14.447l-2.602,2.915h3.865c0,0,3.533-0.187,5.278,0.048c1.745,0.233,8.436,1.722,8.436,1.722
				L74.502,71.323z"/>
		</g>
		<g>
			<path fill="#FFEAC6" d="M74.502,71.323c0,0-10.847,14.061-11.937,15.053c-1.091,0.99-6.508,8.631-6.508,8.631
				s-1.303,1.58-0.866,1.851c0.437,0.269,3.014-3.347,4.302-5.13c1.289-1.783,7.633-9.516,9.019-11.498
				c1.389-1.982,3.073-4.635,4.264-5.539s1.883-2.697,1.634-3.487"/>
		</g>
		<g>
			<path fill="#FBC14F" d="M43.834,95.019c0,0,0.247-0.021-0.199-0.838c-0.447-0.818-1.339-0.297-1.711,0s-0.446,0.907-0.446,0.907
				s0.646,0.942,1.178,0.973C43.187,96.095,43.834,95.863,43.834,95.019z"/>
		</g>
		<g>
			<path fill="#FBC14F" d="M53.223,93.14c1.181-0.161,2.824-0.566,2.231-1.882c-0.598-1.313-3.197-0.497-3.643,0.321
				C51.366,92.396,52.445,93.245,53.223,93.14z"/>
		</g>
		<g>
			<path fill="#FFCE50" d="M59.468,97.527c0,0,0.446-2.495,1.785-2.623c1.337-0.129,3.549,2.076,3.549,2.076L59.468,97.527z"/>
		</g>
		<g>
			<path fill="#FFCE50" d="M70.618,90.567c0.585-1.346,1.339-3.447,0-4.562c-1.339-1.117-4.162,0.445-3.197,2.898
				C68.387,91.357,69.931,92.149,70.618,90.567z"/>
		</g>
		<g>
			<path fill="#FBC14F" d="M69.872,78.254c0,0,0.786,1.803,0.674,2.472c-0.089,0.518-0.27,1.264-1.251,1.338
				c-0.98,0.072-1.542-0.811-1.542-0.811s-3.082-0.231-3.676-0.379c-0.596-0.148-2.23-1.82,0-2.62
				C66.306,77.454,69.872,78.254,69.872,78.254z"/>
		</g>
		<g>
			<path fill="#FBC14F" d="M48.615,89.722c0.199-0.234-0.283-2.053-1.741-1.25C45.418,89.275,47.349,91.207,48.615,89.722z"/>
		</g>
		<g>
			<path fill="#FBC14F" d="M50.176,86.822c0,0,1.041,1.189,2.452,0c1.413-1.189-0.073-2.199-1.227-1.77
				C50.252,85.484,49.478,86.376,50.176,86.822z"/>
		</g>
		<g>
			<path fill="#FBC14F" d="M62.135,75.674c0.781,0.308,1.051-0.571,0.53-1.293C62.144,73.663,60.267,74.933,62.135,75.674z"/>
		</g>
		<g>
			<path fill="#FDCD50" d="M76.058,81.9c0.982-0.871,0.137-2.752-0.755-2.455C74.409,79.743,75.03,82.812,76.058,81.9z"/>
		</g>
		<g>
			<path fill="#FFDA62" d="M78.618,88.898l-9.784,7.166l10.036-1.883C78.87,94.181,78.745,90.027,78.618,88.898z"/>
		</g>
	</g>
	<g>
		<g>
			<g>
				<g>
					<g>
						<path fill="#F08400" d="M36.773,53.222c0.892,0.607,2.345,2.66,5.819,1.881c3.475-0.775,39.292-12.691,39.292-12.691
							s4.195-0.871,3.375-2.562c-0.82-1.689-7.414-2.27-13.905-1.509c-6.493,0.76-27.369,4.763-28.709,4.424
							c-1.341-0.337-4.373-0.541-6.403,1.98S34.023,51.348,36.773,53.222z"/>
					</g>
				</g>
				<g>
					<g>
						<path fill="#93C01F" d="M28.891,55.83l-0.443-1.032l7.837-4.584c0,0,0.171,0.847,0.329,1.928
							C35.452,52.329,28.891,55.83,28.891,55.83z"/>
					</g>
				</g>
				<g>
					<g>
						<path fill="#39A935" d="M25.403,54.118l-0.645-1.718L36.1,49.618c0,0,0.192,0.475,0.424,1.346
							c-1.036,0.133-4.109,1.512-4.109,1.512L25.403,54.118z"/>
					</g>
				</g>
				<g>
					<g>
						<polygon fill="#93C01F" points="27.575,50.382 27.936,48.741 36.209,49.263 36.106,50.75 						"/>
					</g>
				</g>
				<g>
					<g>
						<path fill="#C1472A" d="M44.514,54.566c0,0-0.38-1.963-1.062-2.647c-0.688-0.685-1.338-1.416-0.9-1.685
							c0.438-0.27,0.617-0.207,1.33,1.029c0.713,1.237,1.494,3.043,1.494,3.043L44.514,54.566z"/>
					</g>
				</g>
				<g>
					<g>
						<path fill="#C1472A" d="M46.855,42.312c0,0,0.785,1.454,0.856,2.344c0.068,0.889,0.103,1.143,0.412,1.232
							c0.311,0.09,0.866,0.062,0.524-1.266c-0.339-1.326-0.78-2.466-0.78-2.466L46.855,42.312z"/>
					</g>
				</g>
				<g>
					<g>
						<path fill="#C1472A" d="M54.713,51.342c0,0,0.095-1.329-0.237-2.276c-0.332-0.943-0.51-1.006-0.347-1.412
							c0.164-0.406,0.601-0.973,1.024,0.15c0.422,1.123,0.671,3.179,0.671,3.179L54.713,51.342z"/>
					</g>
				</g>
				<g>
					<g>
						<path fill="#C1472A" d="M52.357,41.423c0,0,0.56,0.733,0.657,1.492c0.095,0.758,0.177,1.73,0.177,1.73s0.375,0.596,0.78,0.074
							c0.401-0.522,0.036-1.326-0.054-2.088c-0.095-0.764-0.479-1.39-0.479-1.39L52.357,41.423z"/>
					</g>
				</g>
				<g>
					<g>
						<path fill="#C1472A" d="M66.312,45.835c0,0-0.693-1.479-0.477-1.945c0.216-0.465,0.375-0.484,0.757,0.4
							c0.383,0.889,1.124,1.895,0.469,1.914C66.406,46.225,66.554,46.423,66.312,45.835z"/>
					</g>
				</g>
				<g>
					<g>
						<path fill="#C1472A" d="M68.447,38.742c0,0,0.405,0.311,0.465,1.893c0.062,1.582-0.022,1.917,0.055,2.236
							c0.078,0.315,0.264,0.917,0.602-0.149c0.337-1.064,0.229-1.18-0.03-2.241c-0.261-1.06-0.446-1.835-0.446-1.835L68.447,38.742z
							"/>
					</g>
				</g>
				<g>
					<g>
						<path fill="#C1472A" d="M78.69,38.052c0,0,0.172,1.447-0.086,2.07c-0.263,0.624,0.552,1.125,0.767,0.722
							c0.218-0.401,0.367-0.797,0.228-1.366c-0.14-0.57-0.278-1.393-0.278-1.393L78.69,38.052z"/>
					</g>
				</g>
				<g>
					<g>
						<path fill="#C1472A" d="M74.556,41.113c0,0,0.647,0.96,0.422,1.725c-0.223,0.768,0.88,1.239,1.041,0.21
							c0.16-1.029-0.305-2.257-0.649-2.656C75.024,39.992,74.141,40.158,74.556,41.113z"/>
					</g>
				</g>
				<g>
					<g>
						<path fill="#C1472A" d="M59.574,40.197c0,0,1.087,1.061,0.586,2.391c-0.503,1.33,0.188,1.795,0.726,1.471
							c0.541-0.325,0.862-0.705,0.497-2.195c-0.366-1.49-0.743-1.847-0.743-1.847L59.574,40.197z"/>
					</g>
				</g>
			</g>
			<g>
				<g>
					<path fill="#C1472A" d="M43.868,42.716c0,0,0.01,2.984,0.469,3.203c0.462,0.217,0.462,0.217,0.693-0.094
						c0.386-0.52-0.225-3.221-0.225-3.221L43.868,42.716z"/>
				</g>
			</g>
		</g>
		<g>
			<g>
				<g>
					<g>
						<path fill="#F08400" d="M26.927,37.601c0.658,0.854,1.398,3.255,4.947,3.596c3.543,0.344,41.288,0.147,41.288,0.147
							s4.261,0.478,4.006-1.384c-0.254-1.861-6.34-4.463-12.748-5.758c-6.407-1.295-27.495-3.979-28.663-4.717
							c-1.168-0.737-3.987-1.873-6.698-0.109C26.343,31.142,24.896,34.962,26.927,37.601z"/>
					</g>
				</g>
				<g>
					<g>
						<path fill="#93C01F" d="M18.623,37.63l-0.1-1.119l8.872-1.924c0,0-0.102,0.861-0.285,1.938
							C25.949,36.343,18.623,37.63,18.623,37.63z"/>
					</g>
				</g>
				<g>
					<g>
						<path fill="#39A935" d="M15.841,34.918l-0.08-1.832l11.646,0.881c0,0,0.035,0.508-0.016,1.409
							c-1.025-0.195-4.376,0.16-4.376,0.16L15.841,34.918z"/>
					</g>
				</g>
				<g>
					<g>
						<polygon fill="#93C01F" points="19.067,32.041 19.919,30.596 27.625,33.661 27.06,35.045 						"/>
					</g>
				</g>
				<g>
					<g>
						<path fill="#C1472A" d="M33.868,41.282c0,0,0.249-1.982-0.189-2.848c-0.439-0.863-0.83-1.758-0.332-1.879
							c0.5-0.123,0.649-0.005,0.943,1.393c0.295,1.396,0.476,3.355,0.476,3.355L33.868,41.282z"/>
					</g>
				</g>
				<g>
					<g>
						<path fill="#C1472A" d="M39.901,30.366c0,0,0.292,1.624,0.083,2.492c-0.21,0.865-0.259,1.117,0.01,1.299
							s0.802,0.328,0.892-1.042c0.093-1.366,0.023-2.586,0.023-2.586L39.901,30.366z"/>
					</g>
				</g>
				<g>
					<g>
						<path fill="#C1472A" d="M44.564,41.388c0,0,0.499-1.234,0.479-2.236c-0.023-1-0.174-1.115,0.107-1.45
							c0.281-0.333,0.876-0.739,0.929,0.459c0.052,1.198-0.351,3.231-0.351,3.231L44.564,41.388z"/>
					</g>
				</g>
				<g>
					<g>
						<path fill="#C1472A" d="M45.407,31.227c0,0,0.303,0.872,0.158,1.622c-0.145,0.753-0.368,1.701-0.368,1.701
							s0.17,0.682,0.717,0.314c0.546-0.373,0.45-1.25,0.6-2.002c0.147-0.754-0.023-1.473-0.023-1.473L45.407,31.227z"/>
					</g>
				</g>
				<g>
					<g>
						<path fill="#C1472A" d="M57.298,39.763c0,0-0.197-1.624,0.151-2c0.351-0.375,0.508-0.344,0.595,0.614
							c0.091,0.964,0.479,2.152-0.148,1.968C57.265,40.158,57.346,40.394,57.298,39.763z"/>
					</g>
				</g>
				<g>
					<g>
						<path fill="#C1472A" d="M61.535,33.683c0,0,0.284,0.418-0.151,1.941c-0.433,1.521-0.616,1.816-0.64,2.141
							c-0.026,0.328-0.036,0.956,0.616,0.049c0.652-0.906,0.586-1.053,0.667-2.141c0.083-1.09,0.146-1.881,0.146-1.881
							L61.535,33.683z"/>
					</g>
				</g>
				<g>
					<g>
						<path fill="#C1472A" d="M71.48,36.21c0,0-0.282,1.43-0.726,1.939c-0.44,0.514,0.175,1.24,0.505,0.925
							c0.333-0.315,0.597-0.643,0.643-1.229c0.045-0.586,0.167-1.409,0.167-1.409L71.48,36.21z"/>
					</g>
				</g>
				<g>
					<g>
						<path fill="#C1472A" d="M66.601,37.833c0,0,0.318,1.113-0.134,1.771c-0.452,0.659,0.452,1.45,0.924,0.523
							c0.473-0.93,0.413-2.239,0.209-2.729C67.393,36.913,66.502,36.798,66.601,37.833z"/>
					</g>
				</g>
				<g>
					<g>
						<path fill="#C1472A" d="M52.646,32.307c0,0,0.702,1.344-0.187,2.454c-0.893,1.108-0.378,1.764,0.235,1.621
							c0.613-0.139,1.035-0.398,1.151-1.932c0.118-1.53-0.13-1.984-0.13-1.984L52.646,32.307z"/>
					</g>
				</g>
			</g>
			<g>
				<g>
					<path fill="#C1472A" d="M36.934,29.82c0,0-0.92,2.838-0.549,3.188c0.369,0.354,0.369,0.354,0.687,0.129
						c0.528-0.375,0.79-3.131,0.79-3.131L36.934,29.82z"/>
				</g>
			</g>
		</g>
	</g>
	<g>
		<path fill="#CFD8DE" d="M120.011,129.457h116.174c-0.273-24.256-0.588-97.923-0.781-114.102
			c-0.131-10.881-1.92-14.514-3.588-16.561c-4.945-6.074-11.703-4.587-20.361-5.158c-28.533-1.889-77.299-0.271-77.299-0.271
			s-15.129,0.688-14.441,23.383C119.962,24.936,120.027,100.709,120.011,129.457z"/>
	</g>
	<g>
		<path fill="#DDEAF1" d="M189.724,50.829c0,0,0.17,1.146,0.449,2.324c0.418,1.75,1.688,3.808,2.025,5.464
			c0.73,3.529-4.598,11.162-5.67,15.443c-1.07,4.279-0.762,24.283,0.652,28.62c1.34,4.107,18.127,3.284,21.316,2.17
			c5.314-1.858,3.357-20.536,3.113-27.622c-0.24-7.082-5.186-15.138-5.992-17.478c-0.496-1.433,0.473-4.503,0.889-6.872
			c0.299-1.689,0.227-2.494,0.227-2.494L189.724,50.829z"/>
	</g>
	<g>
		<path fill="#C1D4E0" d="M190.222,101.029c0,0,2.15-0.911,8.314-0.907c4.203,0.003,7.6,0.996,8.01,1.271
			c0.41,0.277-0.895,1.104-5.838,1.378c-4.941,0.275-9.623-0.827-9.623-0.827S189.829,101.115,190.222,101.029z"/>
	</g>
	<g>
		<g>
			<path fill="#C5AF95" d="M194.478,47.642l9.416-0.23c0,0,0.975,0,2.18,0c0.016,1.124-0.295,5.214-0.678,6.701
				c-1.543,0.245-5.574,0.233-7.904,0.233c-2.332,0-4.414-0.057-6.068-0.293c-0.27-1.12-1.84-6.225-1.475-6.229
				C190.825,47.813,192.761,47.604,194.478,47.642z"/>
		</g>
		<g>
			<polygon fill="#978875" points="193.304,50.615 193.304,51.531 193.868,51.531 193.585,50.615 			"/>
		</g>
		<g>
			<rect x="199.49" y="52.221" fill="#978875" width="0.289" height="1.316"/>
		</g>
		<g>
			<polygon fill="#978875" points="201.615,49.754 202.015,49.754 201.814,50.385 201.384,50.385 			"/>
		</g>
		<g>
			<rect x="203.048" y="52.221" fill="#978875" width="0.457" height="1.316"/>
		</g>
		<g>
			<polygon fill="#978875" points="190.722,49.754 191.47,48.723 191.759,49.238 190.722,50.127 			"/>
		</g>
		<g>
			<polygon fill="#978875" points="197.372,47.572 197.372,49.012 197.661,49.012 197.982,47.554 			"/>
		</g>
		<g>
			<polygon fill="#978875" points="196.857,52.879 196.247,52.048 195.939,52.221 196.4,53.31 			"/>
		</g>
		<g>
			<rect x="203.906" y="51.074" fill="#978875" width="0.461" height="1.805"/>
		</g>
	</g>
	<g opacity="0.5">
		<g>
			<path fill="#DDEAF1" d="M206.027,50.47l-15.498,0.423c0.385,1.265,0.85,2.678,0.988,3.242c1.65,0.237,3.734,0.293,6.064,0.293
				s6.363,0.012,7.906-0.234C205.706,53.334,205.904,51.819,206.027,50.47z"/>
		</g>
	</g>
	<g>
		<path fill="#EE877E" d="M189.343,70.199h19.709c0,0,2.832,15.51,1.832,21.945s2.17,11.27-6.748,11.603s-14.918,4.415-15.252-3.626
			c-0.332-8.041-1.666-16.562-1.332-20.384C187.884,75.913,189.343,70.199,189.343,70.199z"/>
	</g>
	<g opacity="0.5">
		<path fill="#FFFFFF" d="M196.066,68.508c0,0,0.035,17.903,0,22.123c-0.021,2.668-0.451,3.631-0.451,3.631h1.807l0.021-11.138
			V68.508H196.066z"/>
	</g>
	<g opacity="0.5">
		<path fill="#FFFFFF" d="M192.261,68.508c0,0-0.129,14.175-0.221,14.396c-0.096,0.223-0.309,3.769-0.309,3.769l2.277,0.322
			l0.48-18.486H192.261"/>
	</g>
	<g>
		<rect x="131.347" y="92.438" fill="#E5EFF6" width="90.348" height="21"/>
	</g>
	<g>
		<rect x="-5.792" y="130.462" fill="#8CA4B2" width="116.665" height="2.252"/>
	</g>
</g>
</svg>
