<?xml version="1.0" encoding="utf-8"?>
<!-- Generator: Adobe Illustrator 16.0.0, SVG Export Plug-In . SVG Version: 6.00 Build 0)  -->
<!DOCTYPE svg PUBLIC "-//W3C//DTD SVG 1.1//EN" "http://www.w3.org/Graphics/SVG/1.1/DTD/svg11.dtd">
<svg version="1.1" id="Layer_1" xmlns="http://www.w3.org/2000/svg" xmlns:xlink="http://www.w3.org/1999/xlink" x="0px" y="0px"
	 width="295.5px" height="303px" viewBox="-34.115 -44.615 295.5 303" enable-background="new -34.115 -44.615 295.5 303"
	 xml:space="preserve">
<g>
	<path fill="#657780" d="M32.464,73.829c0,0,7.334-33.334,28.667-32.667s35.333,6.667,34,28.667s-36.956,54.666-36.956,54.666
		l41.623,1.334l-2.294,20.708l-72.648-2.814c0,0,0-5.894,0-21.228c3.496-5.578,54.925-53.334,39.934-54s-12.992,8-12.992,8
		L32.464,73.829z"/>
	<path fill="#F0877F" d="M179.728,129.36c20.695-33.421,4.722-82.423-19.232-86.676c-52.072-9.245-66.324,72.676-43.325,97.676
		S169.268,146.252,179.728,129.36z"/>
	<ellipse fill="#FFFFFF" cx="148.985" cy="95.939" rx="19.163" ry="27.5"/>
	<circle fill="#FCC74F" cx="54.797" cy="54.828" r="3.333"/>
	<circle fill="#FCC74F" cx="45.797" cy="65.828" r="3.333"/>
	<circle fill="#FCC74F" cx="68.121" cy="54.828" r="3.333"/>
	<circle fill="#FCC74F" cx="79.297" cy="65.828" r="3.333"/>
	<circle fill="#FCC74F" cx="74.787" cy="87.828" r="3.333"/>
	<circle fill="#FCC74F" cx="58.13" cy="104.897" r="3.333"/>
	<circle fill="#FCC74F" cx="45.797" cy="118.828" r="3.333"/>
	<circle fill="#FCC74F" cx="39.131" cy="131.161" r="3.333"/>
	<circle fill="#FCC74F" cx="58.13" cy="134.494" r="3.333"/>
	<circle fill="#FCC74F" cx="82.63" cy="137.827" r="3.333"/>
	<circle fill="#FCC74F" cx="158.937" cy="53.772" r="3.333"/>
	<circle fill="#FCC74F" cx="136.906" cy="58.106" r="3.333"/>
	<circle fill="#FCC74F" cx="124.35" cy="80.106" r="3.333"/>
	<circle fill="#FCC74F" cx="120.746" cy="107.173" r="3.333"/>
	<circle fill="#FCC74F" cx="127.683" cy="130.105" r="3.333"/>
	<circle fill="#FCC74F" cx="151.768" cy="136.771" r="3.333"/>
	<circle fill="#FCC74F" cx="171.234" cy="123.439" r="3.333"/>
	<circle fill="#FCC74F" cx="179.648" cy="97.174" r="3.333"/>
	<circle fill="#FCC74F" cx="175.232" cy="76.773" r="3.333"/>
</g>
</svg>
