<?xml version="1.0" encoding="utf-8"?>
<!-- Generator: Adobe Illustrator 16.0.0, SVG Export Plug-In . SVG Version: 6.00 Build 0)  -->
<!DOCTYPE svg PUBLIC "-//W3C//DTD SVG 1.1//EN" "http://www.w3.org/Graphics/SVG/1.1/DTD/svg11.dtd">
<svg version="1.1" id="Layer_1" xmlns="http://www.w3.org/2000/svg" xmlns:xlink="http://www.w3.org/1999/xlink" x="0px" y="0px"
	 width="295.5px" height="303px" viewBox="-34.115 -44.615 295.5 303" enable-background="new -34.115 -44.615 295.5 303"
	 xml:space="preserve">
<g>
	<path fill="#C5D6E0" d="M99.301,80.288l-7.102-8.141c-0.018-0.027-5.046-7.588-4.32-13.064c0.728-5.485-2.41-17.364-13.337-24.996
		c-7.88-5.505-21.334-5-25.334-0.666c-2.634,2.854-6.76,14.661-2,21.586c13,18.914,19.906,13.869,27.493,16.245
		c4.213,1.319,7.163,3.719,8.958,5.593l-0.108,0.095l1.818,1.943c0.28,0.39,0.425,0.628,0.425,0.628l0.079-0.09l5.202,5.559
		L99.301,80.288z"/>
	<path fill="#35A8E0" d="M179.52,149.067c-2.646-5.291-57.944-61.265-57.944-61.265s-6.271-2.951-9.528-0.67
		c-3.256,2.279-3.694,0.732-3.694,0.732l-9.614-9.614l-7.664,6.729l10.405,10.405c0,0-1.636,8.79,2.153,11.84
		c1.837,1.479,51.898,54.39,59.76,57.969C171.255,168.774,182.473,154.972,179.52,149.067z M164.591,155.876
		c-1.528-1.528-1.528-4.006,0-5.535c1.529-1.529,4.007-1.527,5.535,0c1.528,1.529,1.53,4.006,0.001,5.536
		C168.598,157.406,166.119,157.406,164.591,155.876z"/>
	<path fill="#B4C3CC" d="M73.542,37.921c3.083-0.667,9.083,8.166,9.416,14.833s-0.693,8.517-3.582,11.334
		c-3.418,3.333-18.001,3.583-18.417,0.558c-0.321-2.335,3.416-0.141,6.749,0.192s7.667,1.424,10.334-1.83s3.834-8.42,0.834-13.92
		S70.459,38.588,73.542,37.921z"/>
	<g>
		<g>
			<path fill="#FFFFFF" d="M114.996,100.241c-2.525-0.004-8.307,3.336-5.481,5.463c2.824,2.125,10.888,0.3,10.888,0.3
				s1.737-9.824-0.262-11.596C118.141,92.637,113.472,96.581,114.996,100.241z"/>
		</g>
	</g>
</g>
</svg>
