<?xml version="1.0" encoding="utf-8"?>
<!-- Generator: Adobe Illustrator 16.0.0, SVG Export Plug-In . SVG Version: 6.00 Build 0)  -->
<!DOCTYPE svg PUBLIC "-//W3C//DTD SVG 1.1//EN" "http://www.w3.org/Graphics/SVG/1.1/DTD/svg11.dtd">
<svg version="1.1" id="Layer_1" xmlns="http://www.w3.org/2000/svg" xmlns:xlink="http://www.w3.org/1999/xlink" x="0px" y="0px"
	 width="295.5px" height="303px" viewBox="-34.115 -44.615 295.5 303" enable-background="new -34.115 -44.615 295.5 303"
	 xml:space="preserve">
<g>
	<g>
		<g>
			<path fill="#95CFC4" d="M54.338,79.656c2.704,1.352,86.497,1.186,94.829,0c8.334-1.186,5.816-20.75,5.594-30.829
				c-0.225-10.08,2.684-27.865,2.119-30.238c-0.564-2.371-77.988-6.521-86.412-4.15c-8.422,2.373-19.885,12.631-20.082,21.434
				C50.189,44.676,47.224,76.099,54.338,79.656z"/>
		</g>
		<g>
			<path fill="#FFFFFF" d="M61.012,19.51c0,0-2.552,1.693-5.591,5.323c0.578,0.837,2.152,0.435,3.5-0.8
				C60.921,22.199,61.012,19.51,61.012,19.51z"/>
		</g>
		<g>
			<path fill="#FFFFFF" d="M61.254,35.559c0,0-4.833,0.168-5.833,3.334s1.5,3.166,3.5,1.334
				C60.921,38.393,61.254,35.559,61.254,35.559z"/>
		</g>
		<g>
			<path fill="#FFFFFF" d="M61.254,50.201c0,0-4.833,0.168-5.833,3.335c-1,3.166,1.5,3.166,3.5,1.332
				C60.921,53.035,61.254,50.201,61.254,50.201z"/>
		</g>
		<g>
			<path fill="#FFFFFF" d="M61.254,68.427c0,0-4.833,0.168-5.833,3.334s1.5,3.166,3.5,1.332
				C60.921,71.261,61.254,68.427,61.254,68.427z"/>
		</g>
		<g>
			<path fill="#FFFFFF" d="M144.57,22.321c0,0,4.799,0.584,5.523,3.824c0.723,3.24-1.768,3.025-3.602,1.025
				C144.656,25.172,144.57,22.321,144.57,22.321z"/>
		</g>
		<g>
			<path fill="#FFFFFF" d="M144.57,35.356c0,0,4.801,0.586,5.523,3.826s-1.768,3.023-3.602,1.025
				C144.656,38.209,144.57,35.356,144.57,35.356z"/>
		</g>
		<g>
			<path fill="#FFFFFF" d="M145.902,51.348c0,0,4.801,0.584,5.523,3.825c0.725,3.24-1.768,3.025-3.602,1.025
				C145.99,54.2,145.902,51.348,145.902,51.348z"/>
		</g>
		<g>
			<path fill="#FFFFFF" d="M147.394,69.911c0,0,4.801,0.586,5.525,3.826c0.723,3.24-1.768,3.023-3.604,1.025
				C147.482,72.765,147.394,69.911,147.394,69.911z"/>
		</g>
	</g>
	<g>
		<g>
			<path fill="#FCE4DB" d="M144.242,59.136c-0.139,0-0.273,0.014-0.411,0.021c-2.757-19.268-19.32-34.082-39.351-34.082
				c-20.062,0-36.646,14.861-39.362,34.175c-0.431-0.068-0.868-0.113-1.317-0.113c-4.636,0-8.393,3.758-8.393,8.393
				c0,4.637,3.757,8.395,8.393,8.395c0.833,0,1.637-0.126,2.396-0.352c4.686,16.742,20.045,29.025,38.283,29.025
				c18.164,0,33.472-12.184,38.226-28.82c0.498,0.092,1.011,0.146,1.536,0.146c4.636,0,8.394-3.758,8.394-8.395
				C152.636,62.894,148.878,59.136,144.242,59.136z"/>
		</g>
		<g>
			<circle fill="#EE877E" cx="81.247" cy="82.034" r="8.393"/>
		</g>
		<g>
			<path fill="#575756" d="M82.89,71.628c-4.211,0-7.393-3.084-7.535-3.225c-0.59-0.581-0.598-1.531-0.016-2.121
				c0.58-0.588,1.527-0.597,2.117-0.02l0,0c0.028,0.027,2.82,2.723,6.082,2.327c2.102-0.249,4.037-1.752,5.752-4.466
				c0.443-0.701,1.369-0.907,2.07-0.468c0.699,0.443,0.908,1.369,0.467,2.069c-2.229,3.528-4.908,5.495-7.965,5.847
				C83.532,71.611,83.208,71.628,82.89,71.628z"/>
		</g>
		<g>
			<path fill="#575756" d="M125.784,71.82c-0.318,0-0.643-0.018-0.973-0.056c-3.057-0.352-5.736-2.319-7.965-5.847
				c-0.442-0.7-0.233-1.626,0.467-2.069c0.703-0.44,1.627-0.232,2.069,0.468c1.72,2.722,3.661,4.226,5.771,4.468
				c3.228,0.372,6.032-2.298,6.06-2.325c0.59-0.582,1.539-0.574,2.121,0.016s0.574,1.54-0.016,2.121
				C133.177,68.736,129.995,71.82,125.784,71.82z"/>
		</g>
		<g>
			<path fill="#575756" d="M109.583,83.714H98.371V63.759c0-0.828,0.671-1.5,1.5-1.5s1.5,0.672,1.5,1.5v16.955h8.212
				c0.828,0,1.5,0.672,1.5,1.5S110.411,83.714,109.583,83.714z"/>
		</g>
		<g>
			<path fill="#F29100" d="M141.722,46.471c0,0-11.684-22.139-32.139-22.73c-25.285-0.734-34.736,11.861-41.852,23.791
				c0,0-5.672,8.817,0,17.587c1.781,2.754,1.912,2.602,1.912,2.602l4.217-19.591c6.143,0.582,15.668,1.438,22.67,1.848
				c1.082,0.064,5.467-2.449,6.602-2.818c-0.441,1.26-0.947,1.658-1.557,3.041c2.098,0.045,3.52-0.014,3.875-0.225
				c2.004-1.186,7.861-3.504,7.861-3.504l1.451,3.742l19.598-2.721l5.123,20.036c0,0,0.457,0.344,2.238-2.41
				C147.394,56.349,141.722,46.471,141.722,46.471z"/>
		</g>
		<g>
			<circle fill="#EE877E" cx="128.279" cy="82.034" r="8.393"/>
		</g>
	</g>
	<g>
		<g>
			<path fill="#95CFC4" d="M55.077,97.734c0,0,86.418-2.963,94.791,0c8.371,2.965,10.305,12.787,9.338,28.033
				c-0.967,15.248-1.875,48.037-1.875,48.037s-98.734,12.09-102.291-2.141C51.482,157.435,50.322,97.888,55.077,97.734z"/>
		</g>
		<g>
			<g>
				<path fill="#FFFFFF" d="M103.281,111.279c-1.786-1.785-8.238-3.5-7.738,0s7.5,7.898,7.5,7.898s8.166-5.732,8-8.398
					S104.784,107.611,103.281,111.279z"/>
			</g>
			<g>
				<path fill="#FFFFFF" d="M93.876,115.577c0,0-4.171-1.498-5.752-1.166c-1.582,0.334-3.248,1.834-3.248,1.834
					S90.542,118.911,93.876,115.577z"/>
			</g>
			<g>
				<path fill="#FFFFFF" d="M96.208,118.577c0,0-4.832,0.168-5.832,3.334s1.5,3.166,3.5,1.334
					C95.876,121.411,96.208,118.577,96.208,118.577z"/>
			</g>
			<g>
				<path fill="#FFFFFF" d="M111.68,115.13c0,0,4.171-1.5,5.752-1.166c1.581,0.332,3.248,1.832,3.248,1.832
					S115.013,118.462,111.68,115.13z"/>
			</g>
			<g>
				<path fill="#FFFFFF" d="M109.347,118.13c0,0,4.833,0.168,5.833,3.334s-1.5,3.166-3.5,1.332
					C109.68,120.964,109.347,118.13,109.347,118.13z"/>
			</g>
		</g>
	</g>
	<path fill="none" stroke="#F2A489" stroke-width="3" stroke-linecap="round" stroke-miterlimit="10" d="M96.208,91.76
		c0,0,10.435-5.997,16.169,0"/>
	<g>
		<g>
			<path fill="#C5D6E0" d="M161.123,96.69c-1.059-0.182-1.772-1.186-1.593-2.245l2.611-15.362c0.179-1.06,1.184-1.773,2.243-1.594
				c1.061,0.182,1.772,1.186,1.593,2.246l-2.609,15.361C163.187,96.156,162.183,96.868,161.123,96.69z"/>
		</g>
		<path fill="#657780" d="M159.83,92.678l-0.404,2.385c-0.181,1.06,0.533,2.064,1.592,2.244c1.06,0.18,2.065-0.533,2.245-1.594
			l0.405-2.383L159.83,92.678z"/>
		<g>
			<g>
				<g>
					<path fill="#C5D6E0" d="M169.837,76.836c-0.485,2.867-3.205,4.797-6.073,4.309l0,0c-2.867-0.486-4.796-3.205-4.31-6.072
						l6.517-38.353c0.487-2.866,3.206-4.796,6.072-4.309l0,0c2.868,0.486,4.798,3.206,4.311,6.073L169.837,76.836z"/>
				</g>
			</g>
		</g>
		<g>
			<g>
				<g>
					<path fill="#E4133A" d="M166.186,78.155c-0.146,0.867-0.968,1.45-1.836,1.303l0,0c-0.866-0.146-1.448-0.969-1.302-1.836
						l4.459-26.246c0.147-0.867,0.97-1.449,1.836-1.304l0,0c0.867,0.147,1.45,0.971,1.303,1.837L166.186,78.155z"/>
				</g>
			</g>
		</g>
		<g>
			<g>
				<g>
					<g>
						<g>
							
								<rect x="163.959" y="48.269" transform="matrix(0.9858 0.1679 -0.1679 0.9858 10.5094 -27.0155)" fill="#657780" width="2.199" height="0.779"/>
						</g>
					</g>
				</g>
			</g>
			<g>
				<g>
					<g>
						<g>
							
								<rect x="163.275" y="52.296" transform="matrix(0.9859 0.1674 -0.1674 0.9859 11.1409 -26.7764)" fill="#657780" width="2.199" height="0.779"/>
						</g>
					</g>
				</g>
			</g>
			<g>
				<g>
					<g>
						<g>
							
								<rect x="165.233" y="40.772" transform="matrix(0.9859 0.1673 -0.1673 0.9859 9.2339 -27.2553)" fill="#657780" width="2.2" height="0.778"/>
						</g>
					</g>
				</g>
			</g>
			<g>
				<g>
					<g>
						<g>
							
								<rect x="164.548" y="44.799" transform="matrix(0.9859 0.1674 -0.1674 0.9859 9.9036 -27.0954)" fill="#657780" width="2.199" height="0.778"/>
						</g>
					</g>
				</g>
			</g>
			<g>
				<g>
					<g>
						<g>
							
								<rect x="162.59" y="56.324" transform="matrix(0.986 0.167 -0.167 0.986 11.7691 -26.5384)" fill="#657780" width="2.199" height="0.78"/>
						</g>
					</g>
				</g>
			</g>
			<g>
				<g>
					<g>
						<g>
							
								<rect x="161.907" y="60.353" transform="matrix(0.9858 0.1679 -0.1679 0.9858 12.5085 -26.4995)" fill="#657780" width="2.199" height="0.777"/>
						</g>
					</g>
				</g>
			</g>
			<g>
				<g>
					<g>
						<g>
							
								<rect x="161.222" y="64.378" transform="matrix(0.9859 0.1673 -0.1673 0.9859 13.1281 -26.2511)" fill="#657780" width="2.2" height="0.781"/>
						</g>
					</g>
				</g>
			</g>
			<g>
				<g>
					<g>
						<g>
							
								<rect x="160.537" y="68.407" transform="matrix(0.9859 0.1674 -0.1674 0.9859 13.7995 -26.0907)" fill="#657780" width="2.199" height="0.778"/>
						</g>
					</g>
				</g>
			</g>
			<g>
				<g>
					<g>
						<g>
							
								<rect x="159.853" y="72.434" transform="matrix(0.986 0.167 -0.167 0.986 14.4209 -25.8551)" fill="#657780" width="2.199" height="0.779"/>
						</g>
					</g>
				</g>
			</g>
		</g>
	</g>
</g>
</svg>
