<?xml version="1.0" encoding="utf-8"?>
<!-- Generator: Adobe Illustrator 16.0.0, SVG Export Plug-In . SVG Version: 6.00 Build 0)  -->
<!DOCTYPE svg PUBLIC "-//W3C//DTD SVG 1.1//EN" "http://www.w3.org/Graphics/SVG/1.1/DTD/svg11.dtd">
<svg version="1.1" id="Layer_1" xmlns="http://www.w3.org/2000/svg" xmlns:xlink="http://www.w3.org/1999/xlink" x="0px" y="0px"
	 width="358.5px" height="226.77px" viewBox="-68.115 0 358.5 226.77" enable-background="new -68.115 0 358.5 226.77"
	 xml:space="preserve">
<g>
	<path fill="#ECEBE0" d="M-35.44,145.846c-2.721,0.87-4.692,3.417-4.692,6.428v6.163c0,3.01,1.972,5.558,4.692,6.428V145.846z"/>
	<g>
		<g>
			<g>
				<path fill="#00A070" d="M43.368,170.582c0,9.181-7.44,16.622-16.622,16.622l0,0c-9.18,0-16.619-7.441-16.619-16.622V61.468
					c0-9.179,7.439-16.622,16.619-16.622l0,0c9.182,0,16.622,7.443,16.622,16.622V170.582z"/>
				
					<polyline fill="none" stroke="#00A070" stroke-width="18" stroke-linecap="round" stroke-linejoin="round" stroke-miterlimit="10" points="
					32.74,103.439 65.598,103.439 65.598,82 				"/>
				
					<polyline fill="none" stroke="#00A070" stroke-width="18" stroke-linecap="round" stroke-linejoin="round" stroke-miterlimit="10" points="
					-8.328,123.399 -8.328,137.446 20.504,137.446 				"/>
				<g>
					<path fill="#72BA6F" d="M15.938,48.83v134.351c1.094,0.937,2.312,1.727,3.626,2.357V46.473
						C18.25,47.104,17.031,47.893,15.938,48.83z"/>
					<path fill="#72BA6F" d="M28.434,186.865V44.912c-0.558-0.057-1.122-0.086-1.695-0.086c-0.653,0-1.295,0.048-1.93,0.121v141.917
						H28.434z"/>
					<path fill="#72BA6F" d="M33.679,46.36v139.293c1.307-0.602,2.529-1.354,3.626-2.257V48.616
						C36.208,47.711,34.986,46.961,33.679,46.36z"/>
				</g>
				<g>
					<path fill="#72BA6F" d="M63.868,100.043V74.021c-1.367,0.285-2.604,0.913-3.626,1.789v22.421H43.365v3.625h18.69
						C63.056,101.856,63.868,101.044,63.868,100.043z"/>
					<path fill="#72BA6F" d="M66.34,73.888v30.623H43.365v3.626h24.788c1.001,0,1.812-0.812,1.812-1.812V75.157
						C68.901,74.469,67.668,74.018,66.34,73.888z"/>
				</g>
				<g>
					<path fill="#72BA6F" d="M-4.567,131.68v-15.495c-1.087-0.573-2.318-0.905-3.625-0.934v20.054h18.306v-3.625H-4.567z"/>
					<path fill="#72BA6F" d="M-10.459,115.523c-1.388,0.366-2.631,1.083-3.625,2.06v22.127c0,1.001,0.812,1.812,1.812,1.812h22.357
						v-3.625h-20.545V115.523z"/>
				</g>
				
					<line fill="none" stroke="#54566D" stroke-width="2" stroke-linecap="round" stroke-miterlimit="10" x1="40.042" y1="162.137" x2="46.696" y2="153.18"/>
				
					<line fill="none" stroke="#54566D" stroke-width="2" stroke-linecap="round" stroke-miterlimit="10" x1="10.957" y1="153.18" x2="20.504" y2="162.137"/>
				
					<line fill="none" stroke="#54566D" stroke-width="2" stroke-linecap="round" stroke-miterlimit="10" x1="41.968" y1="86.131" x2="37.903" y2="90.198"/>
				
					<line fill="none" stroke="#54566D" stroke-width="2" stroke-linecap="round" stroke-miterlimit="10" x1="20.504" y1="133.4" x2="24.755" y2="134.708"/>
				
					<line fill="none" stroke="#54566D" stroke-width="2" stroke-linecap="round" stroke-miterlimit="10" x1="-1.051" y1="137.446" x2="-6.824" y2="131.642"/>
				
					<line fill="none" stroke="#54566D" stroke-width="2" stroke-linecap="round" stroke-miterlimit="10" x1="30.943" y1="91.012" x2="28.561" y2="86.131"/>
				
					<line fill="none" stroke="#54566D" stroke-width="2" stroke-linecap="round" stroke-miterlimit="10" x1="65.598" y1="99.631" x2="68.058" y2="96.307"/>
				
					<line fill="none" stroke="#54566D" stroke-width="2" stroke-linecap="round" stroke-miterlimit="10" x1="21.08" y1="63.528" x2="19.691" y2="59.448"/>
			</g>
			
				<line fill="none" stroke="#54566D" stroke-width="2" stroke-linecap="round" stroke-miterlimit="10" x1="32.74" y1="51.559" x2="35.494" y2="49.912"/>
		</g>
		<path fill="#95CFC4" d="M187.514,172.334c0.006-0.543,0.002-1.098-0.021-1.685c-0.478-12.435-0.478-56.088-0.478-56.088
			s3.959-36.187-8.618-42.886c-12.579-6.698-103.427-0.08-103.427-0.08l-88.165,0.08c0,0-22.246-1.955-22.246,13.511v83.38
			c0,0,0.164,1.572,0.959,3.768H187.514z"/>
		<circle fill="#C5D6E0" cx="3.457" cy="179.257" r="20.784"/>
		<circle fill="#C5D6E0" cx="74.736" cy="177.361" r="20.785"/>
		<circle fill="#C5D6E0" cx="147.859" cy="175.413" r="20.784"/>
		<path fill="#FFFFFF" d="M28.847,120.407c0,2.804-2.272,5.075-5.077,5.075h-37.083c-2.805,0-5.076-2.271-5.076-5.075V90.655
			c0-2.805,2.271-5.075,5.076-5.075H23.77c2.805,0,5.077,2.271,5.077,5.075V120.407z"/>
		<path fill="#FFFFFF" d="M92.076,120.406c0,2.806-2.272,5.076-5.077,5.076H49.915c-2.803,0-5.076-2.271-5.076-5.076V90.655
			c0-2.805,2.273-5.075,5.076-5.075h37.084c2.805,0,5.077,2.271,5.077,5.075V120.406z"/>
		<path fill="#FFFFFF" d="M155.409,120.406c0,2.806-2.272,5.076-5.077,5.076h-37.084c-2.803,0-5.076-2.271-5.076-5.076V90.655
			c0-2.805,2.273-5.075,5.076-5.075h37.084c2.805,0,5.077,2.271,5.077,5.075V120.406z"/>
		<path fill="#FCE4DB" d="M141.934,99.054c-2.642-7.735-11.053-11.866-18.788-9.226s-11.865,11.053-9.225,18.788
			c1.519,4.449,4.95,7.696,9.062,9.157v7.741h13.395v-9.54C141.661,112.299,144.116,105.45,141.934,99.054z"/>
		<g>
			<path fill="#575756" d="M127.781,110.18l-4.058,1.386l-2.466-7.224c-0.102-0.299,0.059-0.626,0.358-0.727
				c0.298-0.104,0.625,0.058,0.729,0.355l2.094,6.138l2.971-1.016c0.301-0.101,0.627,0.059,0.729,0.357
				C128.24,109.751,128.081,110.077,127.781,110.18z"/>
		</g>
		<g>
			<g>
				<circle fill="#F6BFD5" cx="133.733" cy="108.148" r="3.209"/>
			</g>
		</g>
		<path fill="#F6BFD5" d="M116.926,110.703c-0.593,0.262-1.066,0.679-1.396,1.185c1.174,1.817,2.705,3.312,4.457,4.428
			c1.28-0.845,1.806-2.511,1.169-3.963C120.444,110.729,118.55,109.991,116.926,110.703z"/>
		<path fill="#422918" d="M113.146,104.591c6.618-3.288,4.903-11.767,4.903-11.767s-0.008-0.006-0.011-0.014
			C114.741,95.772,112.911,100.11,113.146,104.591z"/>
		<path fill="#422918" d="M150.281,102.641c-1.203-3.523-5.035-5.404-8.56-4.203c-0.011,0.004-0.021,0.009-0.031,0.013
			c-2.872-7.325-11.017-11.17-18.538-8.604c-1.944,0.664-3.662,1.694-5.102,2.985c0.007,0.008,8.993,10.827,20.953,7.355
			c-1.662,1.761-2.319,4.357-1.482,6.808c1.2,3.523,5.034,5.406,8.556,4.203C149.602,109.995,151.483,106.164,150.281,102.641z"/>
		<g>
			<path fill="#575756" d="M118.439,110.653c-1.523,0.52-3.056-0.204-3.125-0.237c-0.284-0.137-0.403-0.479-0.268-0.765
				c0.139-0.285,0.479-0.405,0.766-0.27l0,0c0.013,0.007,1.356,0.639,2.486,0.092c0.731-0.351,1.245-1.135,1.531-2.328
				c0.074-0.309,0.384-0.496,0.69-0.425c0.309,0.075,0.499,0.384,0.425,0.691c-0.37,1.552-1.097,2.596-2.16,3.101
				C118.67,110.568,118.556,110.614,118.439,110.653z"/>
		</g>
		<g>
			<path fill="#575756" d="M133.988,105.423c-0.116,0.038-0.235,0.072-0.359,0.099c-1.149,0.25-2.362-0.131-3.604-1.133
				c-0.247-0.197-0.284-0.559-0.088-0.805c0.201-0.246,0.562-0.286,0.809-0.087c0.957,0.772,1.846,1.078,2.64,0.904
				c1.215-0.265,1.898-1.577,1.905-1.59c0.142-0.284,0.488-0.398,0.771-0.257c0.283,0.143,0.398,0.488,0.256,0.769
				C136.281,103.393,135.511,104.901,133.988,105.423z"/>
		</g>
		<path fill="#E4133A" d="M125.676,115.559c0,0-0.058-0.897,0.434-1.184c0.489-0.287,0.964-0.182,0.964-0.182l0.495,0.566
			c0,0-0.165-0.532,0.428-0.828c0.515-0.256,0.679-0.333,1.01,0.091c0.571,0.729-0.299,2.132-1.02,2.269
			C127.299,116.42,126.011,116.145,125.676,115.559z"/>
		<path fill="#B28E5D" d="M80.346,105.024c0-8.174-6.625-14.801-14.8-14.801c-8.174,0-14.799,6.627-14.799,14.801
			c0,6.66,4.399,12.291,10.451,14.148h-0.004v6.338c0,0,5.634-0.028,8.856,0c0-1.954,0-5.066,0-6.39
			C76.022,117.214,80.346,111.626,80.346,105.024z"/>
		<path fill="#422918" d="M105.684,98.7l-3.703-2.521l3.703-1.212c0,0-3.581-16.29-3.703-16.569
			c-0.123-0.28-8.308,1.577-13.818,2.336c-5.511,0.758-5.511,2.482-9.357,4.845c-3.846,2.362-2.313,1.528-6.699,1.853
			c-4.386,0.323-12.352,3.987-12.352,3.987c0.005,0.013,5.844,15.361,20.592,13.623c0,0,2.306-0.104,4.609,0.555
			c2.306,0.657,1.586,1.286,5.801,4.835s11.022,0.99,12.503,1.134c1.479,0.143,1.762-2.089,2.425-7.41
			C106.348,98.834,105.684,98.7,105.684,98.7z"/>
		<circle fill="#ACB9C1" cx="3.457" cy="179.257" r="9.828"/>
		<circle fill="#ACB9C1" cx="74.737" cy="177.36" r="9.827"/>
		<circle fill="#ACB9C1" cx="147.86" cy="175.413" r="9.828"/>
		<g>
			<path fill="#00A070" d="M239.629,178.094c0,10.13-8.21,18.34-18.34,18.34l0,0c-10.128,0-18.336-8.21-18.336-18.34V57.706
				c0-10.128,8.208-18.34,18.336-18.34l0,0c10.13,0,18.34,8.212,18.34,18.34V178.094z"/>
			
				<polyline fill="none" stroke="#00A070" stroke-width="18" stroke-linecap="round" stroke-linejoin="round" stroke-miterlimit="10" points="
				227.902,104.013 264.156,104.013 264.156,80.36 			"/>
			
				<polyline fill="none" stroke="#00A070" stroke-width="18" stroke-linecap="round" stroke-linejoin="round" stroke-miterlimit="10" points="
				182.591,126.035 182.591,141.533 214.402,141.533 			"/>
			<g>
				<path fill="#72BA6F" d="M209.367,43.775v148.231c1.207,1.034,2.552,1.905,4,2.602V41.173
					C211.919,41.869,210.574,42.74,209.367,43.775z"/>
				<path fill="#72BA6F" d="M223.155,196.071V39.451c-0.615-0.062-1.238-0.095-1.87-0.095c-0.722,0-1.43,0.053-2.13,0.134v156.58
					H223.155z"/>
				<path fill="#72BA6F" d="M228.942,41.048v153.686c1.441-0.664,2.79-1.493,4-2.49V43.538
					C231.732,42.54,230.383,41.712,228.942,41.048z"/>
			</g>
			<g>
				<path fill="#72BA6F" d="M262.324,100.267V71.556c-1.508,0.314-2.873,1.008-4,1.974v24.737h-18.622v4h20.622
					C261.429,102.267,262.324,101.371,262.324,100.267z"/>
				<path fill="#72BA6F" d="M265.052,71.409v33.787h-25.35v4h27.35c1.104,0,2-0.896,2-2V72.81
					C267.877,72.05,266.518,71.552,265.052,71.409z"/>
			</g>
			<g>
				<path fill="#72BA6F" d="M186.756,135.172v-17.096c-1.199-0.633-2.558-0.999-4-1.03v22.126h20.197v-4H186.756z"/>
				<path fill="#72BA6F" d="M180.256,117.346c-1.531,0.404-2.903,1.195-4,2.272v24.413c0,1.104,0.896,2,2,2h24.667v-4h-22.667
					V117.346z"/>
			</g>
			
				<line fill="none" stroke="#54566D" stroke-width="2" stroke-linecap="round" stroke-miterlimit="10" x1="235.959" y1="168.777" x2="243.299" y2="158.894"/>
			
				<line fill="none" stroke="#54566D" stroke-width="2" stroke-linecap="round" stroke-miterlimit="10" x1="203.868" y1="158.894" x2="214.402" y2="168.777"/>
			
				<line fill="none" stroke="#54566D" stroke-width="2" stroke-linecap="round" stroke-miterlimit="10" x1="238.083" y1="84.917" x2="233.598" y2="89.404"/>
			
				<line fill="none" stroke="#54566D" stroke-width="2" stroke-linecap="round" stroke-miterlimit="10" x1="214.402" y1="137.07" x2="219.092" y2="138.514"/>
			
				<line fill="none" stroke="#54566D" stroke-width="2" stroke-linecap="round" stroke-miterlimit="10" x1="190.62" y1="141.533" x2="184.25" y2="135.13"/>
			
				<line fill="none" stroke="#54566D" stroke-width="2" stroke-linecap="round" stroke-miterlimit="10" x1="225.919" y1="90.303" x2="223.291" y2="84.917"/>
			
				<line fill="none" stroke="#54566D" stroke-width="2" stroke-linecap="round" stroke-miterlimit="10" x1="264.156" y1="99.812" x2="266.869" y2="96.145"/>
			
				<line fill="none" stroke="#54566D" stroke-width="2" stroke-linecap="round" stroke-miterlimit="10" x1="215.037" y1="59.978" x2="213.504" y2="55.478"/>
		</g>
		
			<line fill="none" stroke="#54566D" stroke-width="2" stroke-linecap="round" stroke-miterlimit="10" x1="35.595" y1="65" x2="40.616" y2="62.281"/>
		<circle fill="#FFEF76" cx="182.015" cy="34.502" r="19.681"/>
		<path fill="#E0B475" d="M210.266,175.662c-12.11,0.668-37.363,1.661-63.579,2.614c-3.408-1.505-8.056-2.863-13.758-2.863
			c-4.114,0-7.575,1.849-10.35,3.722c-3.516,0.122-6.979,0.242-10.36,0.358c-1.162-1.028-2.817-1.935-5.57-2.133
			c-6.074-0.438-21.452,2.412-25.375,3.166c-10.404,0.336-17.24,0.542-18.006,0.542c-0.788,0-7.714-0.109-17.755-0.273l0.123-0.055
			c-40.605-7.163-94.061-1.537-94.061-1.537v32.612h19.564h185.885c0,0,34.242-6.522,36.687-3.727c2.447,2.794,80.29,0,80.29,0
			v-34.512C274,173.577,240.684,173.983,210.266,175.662z"/>
		<path fill="#FCE4DB" d="M18.54,103.827c-0.052,0-0.102,0.004-0.154,0.007c-1.033-7.226-7.245-12.78-14.757-12.78
			c-7.521,0-13.74,5.573-14.761,12.815c-0.159-0.026-0.325-0.042-0.494-0.042c-1.737,0-3.146,1.408-3.146,3.147
			s1.409,3.146,3.146,3.146c0.313,0,0.613-0.047,0.899-0.132c1.393,4.979,5.308,8.896,10.275,10.308l-0.021,0.003l-0.674-0.208
			v5.449c0,0,6.375,0.009,10.174,0c0-3.004,0.188-4.924,0.3-5.805c4.167-1.727,7.385-5.281,8.637-9.67
			c0.188,0.035,0.381,0.055,0.576,0.055c1.738,0,3.147-1.407,3.147-3.146S20.279,103.827,18.54,103.827z"/>
		<g>
			<circle fill="#F2A489" cx="-5.083" cy="112.413" r="3.147"/>
		</g>
		<g>
			<path fill="#575756" d="M5.543,113.042H1.34v-7.481c0-0.31,0.251-0.563,0.562-0.563c0.31,0,0.562,0.254,0.562,0.563v6.358h3.079
				c0.312,0,0.562,0.251,0.562,0.562C6.106,112.792,5.855,113.042,5.543,113.042z"/>
		</g>
		<g>
			<path fill="#F29100" d="M17.595,99.078c0,0-4.38-8.303-12.052-8.524c-9.482-0.274-13.026,4.447-15.693,8.921
				c0,0-2.129,3.307,0,6.596c0.666,1.033,0.716,0.976,0.716,0.976l1.581-7.346c2.305,0.217,5.875,0.537,8.504,0.691
				c0.403,0.023,2.049-0.919,2.474-1.056c-0.166,0.472-0.355,0.62-0.583,1.14c0.786,0.017,1.318-0.005,1.453-0.085
				c0.751-0.444,2.948-1.312,2.948-1.312l0.544,1.402l7.35-1.02l1.92,7.514c0,0,0.173,0.129,0.839-0.904
				C19.724,102.781,17.595,99.078,17.595,99.078z"/>
		</g>
		<g>
			<circle fill="#F2A489" cx="12.554" cy="112.413" r="3.147"/>
		</g>
		<g>
			<path fill="#575756" d="M-4.139,105.04c1.579,0,2.771,1.156,2.825,1.211c0.222,0.217,0.225,0.573,0.006,0.795
				c-0.218,0.22-0.572,0.224-0.793,0.007l0,0c-0.013-0.011-1.06-1.02-2.281-0.873c-0.789,0.094-1.514,0.657-2.157,1.676
				c-0.167,0.262-0.513,0.339-0.776,0.173c-0.262-0.164-0.342-0.512-0.175-0.774c0.835-1.323,1.841-2.062,2.987-2.191
				C-4.382,105.048-4.258,105.04-4.139,105.04z"/>
		</g>
		<g>
			<path fill="#575756" d="M11.056,105.113c0.12,0,0.242,0.007,0.364,0.021c1.146,0.132,2.152,0.871,2.986,2.192
				c0.166,0.262,0.088,0.608-0.174,0.776c-0.264,0.164-0.611,0.088-0.776-0.176c-0.645-1.021-1.373-1.586-2.164-1.676
				c-1.21-0.139-2.262,0.862-2.273,0.873c-0.22,0.219-0.577,0.217-0.795-0.006c-0.217-0.223-0.215-0.578,0.005-0.796
				C8.283,106.27,9.477,105.113,11.056,105.113z"/>
		</g>
		<path fill="#FFFDF1" d="M0.012,115.203l6.886-0.185c0,0-0.44,3.977-3.337,4.054C1.48,119.128,0.091,118.174,0.012,115.203z"/>
		<g>
			<path fill="#575756" d="M68.6,104.66c0.123,0,0.245,0.007,0.372,0.021c1.169,0.136,2.193,0.888,3.045,2.235
				c0.169,0.27,0.089,0.623-0.18,0.793c-0.268,0.168-0.62,0.089-0.79-0.179c-0.657-1.042-1.4-1.617-2.207-1.71
				c-1.234-0.141-2.306,0.879-2.316,0.891c-0.226,0.222-0.59,0.219-0.812-0.006c-0.223-0.226-0.22-0.591,0.006-0.812
				C65.774,105.84,66.99,104.66,68.6,104.66z"/>
		</g>
		<g>
			<path fill="#575756" d="M63.359,110.981h-4.287v-7.631c0-0.316,0.256-0.574,0.573-0.574s0.574,0.258,0.574,0.574v6.484h3.14
				c0.317,0,0.573,0.256,0.573,0.572S63.676,110.981,63.359,110.981z"/>
		</g>
		<g>
			<circle fill="#D1938A" cx="69.648" cy="110.981" r="3.208"/>
		</g>
		<path fill="#D1938A" d="M52.918,107.971c-0.646,0.053-1.23,0.297-1.705,0.669c0.524,2.1,1.489,4.008,2.787,5.629
			c1.482-0.386,2.52-1.792,2.386-3.372C56.237,109.13,54.683,107.821,52.918,107.971z"/>
		<g>
			<path fill="#575756" d="M54.82,104.156c1.61,0,2.826,1.179,2.881,1.233c0.228,0.221,0.229,0.585,0.007,0.812
				c-0.222,0.225-0.584,0.227-0.811,0.007l0,0c-0.01-0.01-1.077-1.041-2.325-0.891c-0.805,0.096-1.545,0.67-2.199,1.709
				c-0.17,0.269-0.524,0.347-0.792,0.177c-0.269-0.169-0.348-0.521-0.178-0.79c0.852-1.35,1.876-2.102,3.045-2.234
				C54.573,104.162,54.698,104.156,54.82,104.156z"/>
		</g>
		<path fill="#422918" d="M51.314,100.963c7.325-0.976,8.44-9.552,8.44-9.552s-0.003-0.009-0.007-0.017
			C55.674,93.133,52.538,96.648,51.314,100.963z"/>
		<ellipse fill="#FFFDF1" cx="61.502" cy="114.81" rx="2.239" ry="2.104"/>
	</g>
</g>
</svg>
