<?xml version="1.0" encoding="utf-8"?>
<!-- Generator: Adobe Illustrator 16.0.0, SVG Export Plug-In . SVG Version: 6.00 Build 0)  -->
<!DOCTYPE svg PUBLIC "-//W3C//DTD SVG 1.1//EN" "http://www.w3.org/Graphics/SVG/1.1/DTD/svg11.dtd">
<svg version="1.1" id="Layer_1" xmlns="http://www.w3.org/2000/svg" xmlns:xlink="http://www.w3.org/1999/xlink" x="0px" y="0px"
	 width="202.5px" height="261.385px" viewBox="87.885 -34.615 202.5 261.385" enable-background="new 87.885 -34.615 202.5 261.385"
	 xml:space="preserve">
<g>
	<g>
		<path fill="#FCE4DB" d="M241.111-0.875c-5.319-15.585-22.264-23.904-37.846-18.586c-15.584,5.32-23.905,22.264-18.586,37.848
			c3.79,11.105,13.487,18.518,24.387,19.937l0.556,9.923c0,0,13.556,1.556,17.792-1.382c-0.203-3.64-0.502-8.958-0.655-11.71
			C239.564,28.449,245.925,13.23,241.111-0.875z"/>
	</g>
	<g>
		<g>
			<path fill="#575756" d="M212.6,21.535l-8.173,2.791l-4.967-14.55c-0.206-0.604,0.116-1.26,0.721-1.466
				c0.604-0.207,1.261,0.115,1.467,0.72l4.22,12.361l5.986-2.043c0.604-0.206,1.261,0.116,1.467,0.72
				C213.528,20.672,213.205,21.33,212.6,21.535z"/>
		</g>
	</g>
	<g>
		<g>
			<circle fill="#F6C0D9" cx="224.591" cy="17.443" r="6.466"/>
		</g>
	</g>
	<g>
		<path fill="#F6C0D9" d="M190.734,22.592c-1.195,0.525-2.148,1.367-2.813,2.387c2.366,3.661,5.448,6.672,8.979,8.919
			c2.577-1.703,3.637-5.059,2.354-7.983C197.818,22.644,194.003,21.157,190.734,22.592z"/>
	</g>
	<g>
		<path fill="#422918" d="M183.116,10.357c13.331-6.627,9.879-23.706,9.879-23.706s-0.016-0.014-0.024-0.024
			C186.332-7.41,182.645,1.329,183.116,10.357z"/>
	</g>
	<g>
		<path fill="#422918" d="M257.926,6.349c-2.422-7.097-10.142-10.888-17.238-8.465c-0.011,0.004-0.021,0.009-0.032,0.013
			c-5.785-14.764-22.225-22.493-37.379-17.32c-3.918,1.338-7.378,3.412-10.276,6.013c0.014,0.017,18.117,21.813,42.211,14.818
			c-3.349,3.547-4.675,8.779-2.99,13.716c2.424,7.098,10.143,10.888,17.24,8.465C256.56,21.166,260.349,13.447,257.926,6.349z"/>
	</g>
	<g>
		<g>
			<path fill="#575756" d="M193.781,22.489c-3.07,1.048-6.156-0.409-6.297-0.477c-0.574-0.276-0.815-0.968-0.538-1.542
				c0.276-0.573,0.964-0.815,1.54-0.542l0,0c0.026,0.014,2.731,1.284,5.011,0.185c1.472-0.706,2.509-2.283,3.084-4.688
				c0.147-0.621,0.772-1.002,1.392-0.855c0.622,0.148,1.004,0.771,0.855,1.392c-0.747,3.127-2.211,5.229-4.352,6.245
				C194.246,22.316,194.014,22.408,193.781,22.489z"/>
		</g>
	</g>
	<g>
		<g>
			<path fill="#575756" d="M225.104,11.952c-0.233,0.079-0.475,0.147-0.725,0.202c-2.315,0.504-4.758-0.265-7.261-2.281
				c-0.497-0.401-0.574-1.127-0.175-1.624c0.403-0.496,1.128-0.576,1.626-0.175c1.931,1.557,3.721,2.17,5.318,1.821
				c2.447-0.532,3.825-3.176,3.84-3.203c0.284-0.571,0.98-0.803,1.551-0.517s0.803,0.98,0.517,1.55
				C229.725,7.865,228.173,10.904,225.104,11.952z"/>
		</g>
	</g>
	<g>
		<path fill="#E4133A" d="M208.358,32.373c0,0-0.112-1.808,0.874-2.386c0.988-0.577,1.942-0.366,1.942-0.366l0.999,1.142
			c0,0-0.333-1.071,0.862-1.668c1.034-0.515,1.366-0.671,2.035,0.184c1.15,1.469-0.604,4.294-2.055,4.568
			C211.628,34.109,209.034,33.552,208.358,32.373z"/>
	</g>
	<g>
		<polyline fill="#FCE4DB" points="215.01,152.819 213.929,159.218 230.433,204.671 219.586,205.416 223.15,209.871 
			240.183,206.445 239.354,203.516 227.314,161.145 230.344,153.169 215.01,152.819 		"/>
	</g>
	<g>
		<path fill="#EF87B5" d="M240.183,206.445c0,0-3.389,0.788-8.043,1.626s-8.698,0.125-9.276,0c-0.577-0.125-1.351-1.28-1.351-1.28
			l0.966-1.541c0,0-4.623-0.243-6.163,1.611c-1.541,1.855,0.385,3.589,4.814,4.552s8.695,0.363,10.979,0
			c2.588-0.412,3.852-0.963,3.852-0.963l-0.192,1.391h4.931C240.698,211.84,240.341,207.258,240.183,206.445z"/>
	</g>
	<g>
		<polyline fill="#FCE4DB" points="199.102,151.624 196.366,160.759 212.87,206.212 203.086,208.541 205.398,212.76 
			222.732,211.028 221.791,205.057 209.751,162.685 213.805,153.432 199.102,151.624 		"/>
	</g>
	<g>
		<path fill="#E4133A" d="M240.793,95.981c-1.131-0.526-2.515-0.933-4.066-1.244l-9.24-46.567l1.077-4.834l-19.61-0.638l0.799,7.864
			l-6.277,45.427c-2.58,1.176-7.654,4.336-11.882,12.188c-5.938,11.027-10.604,41.673-10.604,41.673s35.203,6.362,51.321,4.135
			s30.115-6.362,30.115-6.362S250.124,100.327,240.793,95.981z"/>
	</g>
	<g>
		<path fill="#EF87B5" d="M222.62,209.334c0,0-3.389,0.787-8.043,1.625s-8.698,0.125-9.276,0s-1.352-1.28-1.352-1.28l0.967-1.541
			c0,0-4.623-0.243-6.163,1.612c-1.541,1.854,0.385,3.588,4.814,4.551s8.807,0.108,11.092-0.241
			c2.493-0.382,3.738-0.722,3.738-0.722l-0.192,1.391h4.931C223.136,214.729,222.779,210.148,222.62,209.334z"/>
	</g>
	<g>
		<path fill="#54566D" d="M236.489,167.13c-0.182,0-0.364-0.058-0.52-0.177c-0.371-0.288-0.439-0.821-0.152-1.193
			c3.146-4.066,0.449-6.521,0.131-6.786c-0.358-0.301-0.409-0.835-0.11-1.195c0.298-0.362,0.829-0.414,1.19-0.118
			c0.044,0.036,4.365,3.67,0.135,9.141C236.994,167.017,236.743,167.13,236.489,167.13z"/>
	</g>
	<g>
		<path fill="#54566D" d="M232.587,164.883c-0.241,0-0.48-0.102-0.648-0.3c-0.304-0.358-0.259-0.895,0.099-1.198
			c0.568-0.481,0.878-0.985,0.919-1.497c0.056-0.681-0.37-1.214-0.374-1.219c-0.305-0.357-0.262-0.895,0.095-1.198
			c0.357-0.305,0.894-0.263,1.198,0.095c0.092,0.107,0.888,1.084,0.775,2.46c-0.079,0.979-0.589,1.872-1.514,2.656
			C232.977,164.818,232.781,164.883,232.587,164.883z"/>
	</g>
	<g>
		<path fill="#54566D" d="M214.17,168.864c-0.182,0-0.364-0.058-0.52-0.177c-0.371-0.288-0.439-0.821-0.152-1.192
			c3.146-4.067,0.449-6.521,0.131-6.786c-0.358-0.301-0.409-0.835-0.11-1.195c0.297-0.36,0.827-0.415,1.19-0.118
			c0.044,0.036,4.365,3.669,0.135,9.14C214.676,168.75,214.425,168.864,214.17,168.864z"/>
	</g>
	<g>
		<path fill="#54566D" d="M210.269,166.616c-0.241,0-0.48-0.102-0.648-0.3c-0.304-0.358-0.259-0.895,0.099-1.198
			c0.569-0.481,0.878-0.985,0.92-1.497c0.055-0.681-0.371-1.214-0.375-1.219c-0.305-0.357-0.263-0.894,0.095-1.198
			c0.356-0.305,0.894-0.263,1.198,0.095c0.092,0.107,0.888,1.084,0.776,2.46c-0.079,0.979-0.589,1.872-1.515,2.656
			C210.658,166.551,210.463,166.616,210.269,166.616z"/>
	</g>
	<path fill="#FCE4DB" d="M229.337,62.124c-4.894-14.113-12.046-5.188-12.046-5.188l-0.651,34.141l-23.129,13.812
		c-0.442-0.03-3.151-0.067-5.04,3.288c-2.062,3.662,0,7.751,0,7.751l0.629-1.358l36.498-15.468L229.337,62.124z"/>
</g>
</svg>
