<?xml version="1.0" encoding="utf-8"?>
<!-- Generator: Adobe Illustrator 16.0.0, SVG Export Plug-In . SVG Version: 6.00 Build 0)  -->
<!DOCTYPE svg PUBLIC "-//W3C//DTD SVG 1.1//EN" "http://www.w3.org/Graphics/SVG/1.1/DTD/svg11.dtd">
<svg version="1.1" id="Layer_1" xmlns="http://www.w3.org/2000/svg" xmlns:xlink="http://www.w3.org/1999/xlink" x="0px" y="0px"
	 width="226.77px" height="226.77px" viewBox="0 0 226.77 226.77" enable-background="new 0 0 226.77 226.77" xml:space="preserve">
<g>
	<circle fill="#3C417C" cx="117.248" cy="114.438" r="87.723"/>
	<rect x="119.616" y="95.804" fill="#39A935" width="13.258" height="26.053"/>
	<rect x="112.654" y="98.354" fill="#39A935" width="2.443" height="20.953"/>
	<rect x="127.177" y="97.211" fill="#009E3C" width="4.861" height="0.607"/>
	<rect x="127.177" y="98.777" fill="#009E3C" width="4.861" height="0.606"/>
	<rect x="127.177" y="100.342" fill="#009E3C" width="4.861" height="0.608"/>
	<rect x="127.177" y="101.908" fill="#009E3C" width="4.861" height="0.608"/>
	<rect x="127.177" y="103.474" fill="#009E3C" width="4.861" height="0.607"/>
	<rect x="127.177" y="105.04" fill="#009E3C" width="4.861" height="0.608"/>
	<rect x="127.177" y="106.607" fill="#009E3C" width="4.861" height="0.607"/>
	<rect x="127.177" y="108.173" fill="#009E3C" width="4.861" height="0.607"/>
	<rect x="127.177" y="109.738" fill="#009E3C" width="4.861" height="0.608"/>
	<rect x="127.177" y="111.304" fill="#009E3C" width="4.861" height="0.607"/>
	<rect x="127.177" y="112.87" fill="#009E3C" width="4.861" height="0.608"/>
	<rect x="127.177" y="114.438" fill="#009E3C" width="4.861" height="0.607"/>
	<rect x="127.177" y="116.002" fill="#009E3C" width="4.861" height="0.607"/>
	<rect x="127.177" y="117.569" fill="#009E3C" width="4.861" height="0.607"/>
	<rect x="127.177" y="119.135" fill="#009E3C" width="4.861" height="0.607"/>
	<rect x="127.177" y="120.699" fill="#009E3C" width="4.861" height="0.609"/>
	<linearGradient id="SVGID_1_" gradientUnits="userSpaceOnUse" x1="205.0461" y1="113.7" x2="135.4093" y2="113.7">
		<stop  offset="0" style="stop-color:#FFE28E"/>
		<stop  offset="1" style="stop-color:#FFEC00"/>
	</linearGradient>
	<path fill="url(#SVGID_1_)" d="M205.185,114.5c0-16.083-4.57-31.708-12.166-44.296l-60.246,25.593v26.071l61.09,35.328
		C201.208,144.885,205.185,129.916,205.185,114.5z"/>
	<path fill="#39A935" d="M93.986,98.354c0,0-0.633-1.927,0.958-1.927s5.927-0.548,7.581,0.299c0.723,0.371,0.363,2.5,0.363,2.5
		l-8.902-0.462"/>
	<path fill="#39A935" d="M117.247,98.298H43.504c-4.957,0-8.975,4.019-8.975,8.975v2.993c0,4.956,4.019,8.975,8.975,8.975h73.743
		V98.298z"/>
	<polygon fill="#009E3C" points="119.616,121.858 114.88,119.199 114.88,98.463 119.616,95.804 	"/>
	<path fill="#FCE4DB" d="M82.495,97.486c0,0,10.243-3.324,11.285,0.378c1.042,3.704-2.763,6.182-4.59,6.12
		c-1.129-0.039-3.499-0.116-5.146-0.171c1.045,4.851,1.98,10.828,0.397,11.535c-2.708,1.213-4.725,0.197-5.491-1.268
		c-0.911-1.744-1.607-3.852-1.607-3.852s-0.354,6.604-2.539,6.967c-2.183,0.361-4.529-0.082-4.661-2.65
		c-0.069-1.371-0.816-3.415-0.816-3.415s-0.557,5.112-2.581,5.122c-3.279,0.02-4.436-0.996-5.968-7.123
		c-0.009-0.036-0.019-0.074-0.029-0.111c-0.473,0.832-1.024,1.414-1.643,1.396c-2.18-0.073-3.437-1.004-2.867-5.126
		c0.572-4.121,0.968-7.68,0.968-7.68S67.74,88.115,82.495,97.486z"/>
</g>
</svg>
