<?xml version="1.0" encoding="utf-8"?>
<!-- Generator: Adobe Illustrator 16.0.0, SVG Export Plug-In . SVG Version: 6.00 Build 0)  -->
<!DOCTYPE svg PUBLIC "-//W3C//DTD SVG 1.1//EN" "http://www.w3.org/Graphics/SVG/1.1/DTD/svg11.dtd">
<svg version="1.1" id="Layer_1" xmlns="http://www.w3.org/2000/svg" xmlns:xlink="http://www.w3.org/1999/xlink" x="0px" y="0px"
	 width="226.77px" height="226.77px" viewBox="0 0 226.77 226.77" enable-background="new 0 0 226.77 226.77" xml:space="preserve">
<g>
	<g>
		<path fill="#BA9B86" d="M160.546,59.626c-0.139,0.002-0.273,0.017-0.41,0.024c-2.927-19.243-19.619-33.912-39.648-33.736
			c-20.062,0.175-36.513,15.181-39.062,34.518c-0.432-0.064-0.869-0.105-1.318-0.102c-4.635,0.04-8.359,3.831-8.319,8.466
			c0.041,4.636,3.831,8.361,8.466,8.32c0.834-0.007,1.636-0.141,2.394-0.372c3.525,12.187,12.718,21.943,24.514,26.268l0.19,21.709
			l28.492-0.25l-0.191-21.89c11.415-4.59,20.192-14.32,23.502-26.302c0.501,0.088,1.013,0.138,1.538,0.134
			c4.635-0.041,8.359-3.831,8.319-8.468C168.971,63.31,165.18,59.586,160.546,59.626z"/>
	</g>
	<g>
		<g>
			<circle fill="#E0A299" cx="97.754" cy="83.074" r="8.392"/>
		</g>
	</g>
	<g>
		<g>
			<path fill="#575756" d="M100.42,64.442c4.21-0.037,7.419,3.02,7.562,3.158c0.595,0.575,0.611,1.526,0.034,2.121
				c-0.575,0.593-1.522,0.609-2.117,0.038l0,0c-0.028-0.027-2.844-2.698-6.102-2.274c-2.1,0.268-4.021,1.787-5.713,4.517
				c-0.438,0.705-1.361,0.918-2.066,0.485c-0.703-0.438-0.92-1.361-0.484-2.064c2.197-3.549,4.859-5.539,7.913-5.917
				C99.778,64.466,100.102,64.445,100.42,64.442z"/>
		</g>
	</g>
	<g>
		<g>
			<path fill="#575756" d="M140.942,64.279c0.318-0.003,0.643,0.012,0.973,0.046c3.06,0.325,5.757,2.271,8.016,5.778
				c0.447,0.695,0.247,1.623-0.448,2.072c-0.699,0.447-1.626,0.246-2.074-0.448c-1.743-2.708-3.698-4.195-5.811-4.419
				c-3.23-0.343-6.011,2.352-6.038,2.38c-0.585,0.587-1.535,0.587-2.121,0.002c-0.588-0.584-0.589-1.535-0.003-2.121
				C133.576,67.427,136.731,64.316,140.942,64.279z"/>
		</g>
	</g>
	<g>
		<g>
			<path fill="#575756" d="M126.103,84.507l-11.211,0.098l-0.175-19.954c-0.008-0.828,0.658-1.506,1.486-1.513
				c0.828-0.008,1.506,0.658,1.514,1.486l0.148,16.955l8.211-0.072c0.829-0.008,1.506,0.658,1.514,1.486
				C127.597,83.821,126.932,84.499,126.103,84.507z"/>
		</g>
	</g>
	<g>
		<g>
			<circle fill="#E0A299" cx="144.783" cy="82.663" r="8.392"/>
		</g>
	</g>
	<g>
		<path fill="#422918" d="M157.915,46.983c0,0-11.878-22.035-32.337-22.448C100.287,24.022,90.947,36.7,83.937,48.691
			c0,0-5.595,8.866,0.153,17.586c1.806,2.738,1.934,2.585,1.934,2.585l3.737-18.126c0.876,1.488,2.483,2.494,4.335,2.478
			c1.765-0.016,3.299-0.948,4.176-2.337c0.9,1.373,2.451,2.279,4.216,2.264c1.874-0.017,3.479-1.073,4.32-2.607
			c0.191,0.013,0.381,0.025,0.573,0.037c0.874,1.495,2.484,2.506,4.34,2.489c1.768-0.015,3.303-0.95,4.179-2.343
			c0.867,1.522,2.492,2.556,4.368,2.539c2.458-0.021,4.475-1.817,4.871-4.159c0.069-0.03,0.137-0.061,0.206-0.092
			c0.507,2.245,2.518,3.914,4.912,3.893c1.727-0.015,3.24-0.904,4.126-2.243c0.909,1.323,2.438,2.187,4.165,2.171
			c2.287-0.02,4.18-1.582,4.755-3.684l0.162-0.023c0.508,2.244,2.519,3.912,4.912,3.892c1.218-0.011,2.315-0.474,3.176-1.204
			l4.308,16.255c0,0,0.461,0.339,2.218-2.43C163.674,56.811,157.915,46.983,157.915,46.983z"/>
	</g>
	<g>
		<path fill="#F4F2E7" d="M114.939,90.033l15.643-0.137c0,0-1.164,9.011-7.742,9.067C118.113,99.006,114.998,96.783,114.939,90.033z
			"/>
	</g>
</g>
<g>
	<path fill="#FCE4DB" d="M110.188,132.115l-9.113,25.215l9.863-2.221c0,0,2.832-14.256,2.427-17.898s0.041-7.688,0.041-7.688
		L110.188,132.115z"/>
</g>
<g>
	<path fill="#95CFC4" d="M178.198,156.377l-3.272-7.477v-32.232l-38.598-10.858c0,0,1.189,3.237-9.248,7.409s-19.238-5.4-19.238-5.4
		l-33.89,12.828l3.948,29.918l16.316,25.541l31.783-7.467c12.937,1.863,23.183,1.943,23.183,1.943l3.059-3.92l0.326-4.266
		L178.198,156.377z"/>
</g>
<g>
	<g>
		<path fill="#FCE4DB" d="M142.576,155.051c0,0-9.344,3.684-8.778,5.375c0.564,1.691,2.037,2.076,2.586,2.635
			c0.548,0.559,2.203,0.01,2.203,0.01s-2.231,2.939-1.504,4.055c0.729,1.113,2.388,1.314,3.127,0.951
			c0.74-0.363,1.676-1.645,1.676-1.645s-0.553,2.281-0.383,3.486c0.069,0.506,0.326,2.414,3.665,0.602
			c3.337-1.812,7.637-4.219,7.637-4.219S152.73,157.776,142.576,155.051z"/>
	</g>
	<g>
		<path fill="#FCE4DB" d="M142.576,155.051c0,0-2.691-5.891-4.757-4.848c-2.065,1.045-1.614,3.74-0.845,4.521
			c0.771,0.785,2.911,2.967,2.911,2.967L142.576,155.051z"/>
	</g>
	<g>
		<path fill="#FCE4DB" d="M148.128,166.151c0,0-2.43,3.826-1.51,4.764c0.92,0.936,1.449,1.877,3.042-0.053s3.145-4.561,3.145-4.561
			L148.128,166.151z"/>
	</g>
</g>
<g>
	<g>
		<polygon fill="#FFD677" points="125.691,163.287 133.674,159.44 133.674,189.365 125.281,193.744 		"/>
	</g>
	<g>
		<g>
			<rect x="94.825" y="163.553" fill="#F7BEAA" width="30.456" height="30.455"/>
			<path fill="#575756" d="M125.281,195.008H94.825c-0.552,0-1-0.447-1-1v-30.455c0-0.553,0.448-1,1-1h30.456c0.553,0,1,0.447,1,1
				v30.455C126.281,194.561,125.834,195.008,125.281,195.008z M95.825,193.008h28.456v-28.455H95.825V193.008z"/>
		</g>
		<g>
			<polygon fill="#00A070" points="125.281,163.553 94.825,163.553 103.218,159.174 133.674,159.174 			"/>
			<path fill="#575756" d="M125.281,164.553H94.825c-0.46,0-0.861-0.314-0.971-0.762s0.1-0.912,0.509-1.125l8.393-4.379
				c0.143-0.074,0.301-0.113,0.462-0.113h30.456c0.461,0,0.861,0.314,0.972,0.762c0.109,0.447-0.101,0.912-0.509,1.125l-8.393,4.379
				C125.601,164.514,125.443,164.553,125.281,164.553z M98.904,162.553h26.132l4.56-2.379h-26.133L98.904,162.553z"/>
		</g>
		<g>
			<path fill="#575756" d="M125.744,194.895l-0.926-1.773l7.855-4.097v-29.851h2v30.457c0,0.373-0.207,0.714-0.537,0.887
				L125.744,194.895z"/>
		</g>
	</g>
</g>
<g>
	<g>
		<polygon fill="#FFD677" points="164.616,163.287 172.6,159.442 172.6,189.365 164.207,193.744 		"/>
	</g>
	<g>
		<g>
			<rect x="133.751" y="163.553" fill="#00A070" width="30.456" height="30.457"/>
			<path fill="#575756" d="M164.207,195.01h-30.456c-0.553,0-1-0.447-1-1v-30.457c0-0.553,0.447-1,1-1h30.456c0.553,0,1,0.447,1,1
				v30.457C165.207,194.563,164.76,195.01,164.207,195.01z M134.751,193.01h28.456v-28.457h-28.456V193.01z"/>
		</g>
		<g>
			<polygon fill="#F7BEAA" points="164.207,163.553 133.751,163.553 142.144,159.174 172.6,159.174 			"/>
			<path fill="#575756" d="M164.207,164.553h-30.456c-0.461,0-0.861-0.314-0.972-0.762c-0.109-0.447,0.101-0.912,0.509-1.125
				l8.393-4.379c0.144-0.074,0.302-0.113,0.463-0.113H172.6c0.461,0,0.861,0.314,0.972,0.762c0.109,0.447-0.101,0.912-0.509,1.125
				l-8.393,4.379C164.527,164.514,164.368,164.553,164.207,164.553z M137.829,162.553h26.133l4.56-2.379h-26.133L137.829,162.553z"
				/>
		</g>
		<g>
			<path fill="#575756" d="M164.67,194.897l-0.926-1.773l7.855-4.099v-29.851h2v30.457c0,0.373-0.207,0.714-0.537,0.887
				L164.67,194.897z"/>
		</g>
	</g>
</g>
<g>
	<g>
		<polygon fill="#F7BEAA" points="162.676,132.823 170.659,128.977 170.659,158.901 162.267,163.28 		"/>
	</g>
	<g>
		<g>
			<rect x="131.811" y="133.088" fill="#FFD677" width="30.456" height="30.457"/>
			<path fill="#575756" d="M162.267,164.545h-30.456c-0.553,0-1-0.447-1-1v-30.457c0-0.553,0.447-1,1-1h30.456c0.553,0,1,0.447,1,1
				v30.457C163.267,164.098,162.82,164.545,162.267,164.545z M132.811,162.545h28.456v-28.457h-28.456V162.545z"/>
		</g>
		<g>
			<polygon fill="#00A070" points="162.267,133.088 131.811,133.088 140.203,128.709 170.659,128.709 			"/>
			<path fill="#575756" d="M162.267,134.088h-30.456c-0.461,0-0.861-0.314-0.972-0.762c-0.109-0.447,0.101-0.912,0.509-1.125
				l8.393-4.379c0.144-0.074,0.302-0.113,0.463-0.113h30.456c0.461,0,0.861,0.314,0.972,0.762c0.109,0.447-0.101,0.912-0.509,1.125
				l-8.393,4.379C162.586,134.049,162.428,134.088,162.267,134.088z M135.889,132.088h26.133l4.56-2.379h-26.133L135.889,132.088z"
				/>
		</g>
		<g>
			<path fill="#575756" d="M162.73,164.432l-0.926-1.773l7.855-4.099v-29.851h2v30.457c0,0.373-0.207,0.714-0.537,0.887
				L162.73,164.432z"/>
		</g>
	</g>
</g>
<g>
	<path fill="#BA9B86" d="M178.897,158.889c0,0,7.562-7.844,0.744-19.418c0,0,2.818-7.781,0-8.678
		c-2.818-0.895-4.818,1.965-4.818,3.369c0,0.867,0,2.689,0,3.957c-3.697-0.93-8.266-1.799-8.85-0.602
		c-1,2.049-0.271,3.623,0.834,4.25c1.314,0.744,2.916,1.332,2.916,1.332s-5.082,0.104-5.416,1.77
		c-0.334,1.668-0.055,3.48,1.916,3.648c1.051,0.088,2.6,0.715,2.6,0.715s-3.939,0.295-4,1.852c-0.098,2.516,0.65,3.432,5.318,4.766
		c0.027,0.008,0.055,0.018,0.084,0.025c-0.65,0.342-1.111,0.75-1.111,1.225c0,1.678,0.727,1.699,3.859,2.334
		C175.805,160.008,178.897,158.889,178.897,158.889z"/>
</g>
<g>
	<path fill="#BA9B86" d="M122.757,157.25c-0.896-2.818-8.678,0-8.678,0c-11.573-6.818-19.417,0.744-19.417,0.744
		s-1.12,3.092-0.546,5.924c0.635,3.133,0.657,3.859,2.334,3.859c0.475,0,0.883-0.461,1.225-1.111
		c0.009,0.029,0.018,0.057,0.025,0.084c1.334,4.668,2.25,5.416,4.767,5.318c1.556-0.061,1.852-4,1.852-4s0.626,1.549,0.715,2.6
		c0.167,1.971,1.98,2.25,3.647,1.916s1.77-5.416,1.77-5.416s0.589,1.602,1.333,2.916c0.626,1.105,2.201,1.834,4.25,0.834
		c1.197-0.584,0.327-5.152-0.603-8.85c1.268,0,3.09,0,3.958,0C120.792,162.069,123.653,160.069,122.757,157.25z"/>
</g>
<g>
	<g>
		<polygon fill="#F7BEAA" points="166.235,102.21 174.218,98.364 174.218,128.291 165.825,132.668 		"/>
	</g>
	<g>
		<g>
			<rect x="135.369" y="102.475" fill="#FFD677" width="30.456" height="30.459"/>
			<path fill="#575756" d="M165.825,133.934h-30.456c-0.553,0-1-0.447-1-1v-30.459c0-0.552,0.447-1,1-1h30.456c0.553,0,1,0.448,1,1
				v30.459C166.825,133.487,166.378,133.934,165.825,133.934z M136.369,131.934h28.456v-28.459h-28.456V131.934z"/>
		</g>
		<g>
			<polygon fill="#00A070" points="165.825,102.475 135.369,102.475 143.762,98.096 174.218,98.096 			"/>
			<path fill="#575756" d="M165.825,103.475h-30.456c-0.461,0-0.861-0.314-0.972-0.762c-0.109-0.447,0.101-0.912,0.509-1.125
				l8.393-4.379c0.144-0.074,0.302-0.113,0.463-0.113h30.456c0.461,0,0.861,0.314,0.972,0.762c0.109,0.447-0.101,0.912-0.509,1.125
				l-8.393,4.379C166.145,103.436,165.987,103.475,165.825,103.475z M139.448,101.475h26.133l4.56-2.379h-26.133L139.448,101.475z"
				/>
		</g>
		<g>
			<path fill="#575756" d="M166.288,133.821l-0.926-1.773l7.855-4.099V98.096h2v30.459c0,0.373-0.207,0.714-0.537,0.887
				L166.288,133.821z"/>
		</g>
	</g>
</g>
</svg>
