<?xml version="1.0" encoding="utf-8"?>
<!-- Generator: Adobe Illustrator 16.0.0, SVG Export Plug-In . SVG Version: 6.00 Build 0)  -->
<!DOCTYPE svg PUBLIC "-//W3C//DTD SVG 1.1//EN" "http://www.w3.org/Graphics/SVG/1.1/DTD/svg11.dtd">
<svg version="1.1" id="Layer_1" xmlns="http://www.w3.org/2000/svg" xmlns:xlink="http://www.w3.org/1999/xlink" x="0px" y="0px"
	 width="226.77px" height="248.218px" viewBox="0 -21.448 226.77 248.218" enable-background="new 0 -21.448 226.77 248.218"
	 xml:space="preserve">
<g>
	<g>
		<path fill="#F29100" d="M111.079,96.633c0,0,14.814,4.855,13.126,21.5c-0.775,7.633-2.014,9.416-2.014,9.416l-11.16-1.979
			L111.079,96.633z"/>
	</g>
	<g>
		<path fill="#F29100" d="M106.464,95.672c0,0-15.499-1.65-20.763,14.23c-2.413,7.282-2.012,9.417-2.012,9.417l10.992,2.758
			L106.464,95.672z"/>
	</g>
	<g>
		<g>
			<path fill="#F4D9BE" d="M120.18,112.554c-0.051-0.012-0.104-0.018-0.156-0.025c0.518-7.574-4.592-14.572-12.229-16.205
				c-7.65-1.636-15.187,2.68-17.799,9.823c-0.158-0.062-0.319-0.114-0.491-0.151c-1.768-0.377-3.508,0.75-3.886,2.518
				c-0.378,1.768,0.749,3.506,2.517,3.885c0.317,0.066,0.634,0.086,0.943,0.061c0.422,6.77,5.277,12.706,12.232,14.192
				c6.928,1.48,13.758-1.916,16.928-7.875c0.182,0.076,0.373,0.137,0.574,0.18c1.768,0.379,3.508-0.748,3.885-2.516
				C123.074,114.674,121.949,112.931,120.18,112.554z"/>
		</g>
	</g>
	<g>
		<g>
			<circle fill="#F4A689" cx="94.29" cy="116.152" r="3.273"/>
		</g>
	</g>
	<g>
		<g>
			<path fill="#575756" d="M96.887,109.285c1.604,0.344,2.566,1.781,2.61,1.846c0.177,0.27,0.102,0.631-0.167,0.811
				c-0.269,0.176-0.631,0.1-0.809-0.166l0,0c-0.01-0.014-0.854-1.268-2.131-1.383c-0.822-0.078-1.683,0.338-2.559,1.232
				c-0.226,0.232-0.594,0.234-0.826,0.01c-0.231-0.227-0.236-0.596-0.01-0.826c1.139-1.164,2.32-1.695,3.515-1.58
				C96.639,109.24,96.764,109.26,96.887,109.285z"/>
		</g>
	</g>
	<g>
		<g>
			<path fill="#575756" d="M112.323,112.662c0.123,0.027,0.244,0.059,0.367,0.102c1.137,0.381,1.998,1.352,2.562,2.879
				c0.109,0.301-0.045,0.639-0.348,0.748c-0.305,0.113-0.639-0.041-0.752-0.344c-0.431-1.178-1.052-1.912-1.837-2.176
				c-1.197-0.404-2.487,0.385-2.5,0.395c-0.272,0.172-0.634,0.092-0.807-0.18c-0.174-0.272-0.096-0.635,0.178-0.809
				C109.254,113.236,110.718,112.318,112.323,112.662z"/>
		</g>
	</g>
	<g>
		<g>
			<path fill="#575756" d="M104.959,119.102l-4.275-0.914l1.627-7.61c0.067-0.316,0.378-0.518,0.693-0.451
				c0.316,0.068,0.52,0.379,0.451,0.695l-1.382,6.467l3.13,0.67c0.317,0.068,0.519,0.379,0.451,0.693
				S105.277,119.17,104.959,119.102z"/>
		</g>
	</g>
	<g>
		<g>
			<path fill="#F29100" d="M120.252,107.519c0,0-2.652-9.398-10.404-11.29c-9.582-2.341-14.213,1.691-17.9,5.661
				c0,0-2.882,2.9-1.434,6.707c0.455,1.195,0.518,1.148,0.518,1.148l3.205-7.128c2.296,0.723,5.859,1.825,8.496,2.553
				c0.407,0.112,2.284-0.488,2.748-0.536c-0.273,0.444-0.498,0.555-0.844,1.032c0.797,0.188,1.344,0.28,1.497,0.231
				c0.86-0.289,3.283-0.696,3.283-0.696l0.247,1.547l7.697,0.557l0.32,8.062c0,0,0.146,0.168,1.051-0.736
				C121.61,111.748,120.252,107.519,120.252,107.519z"/>
		</g>
	</g>
	<g>
		<g>
			<path fill="#F4A689" d="M115.426,120.67c-0.377,1.766-2.115,2.895-3.884,2.518c-1.766-0.379-2.893-2.119-2.516-3.887
				c0.378-1.766,2.118-2.893,3.885-2.516C114.678,117.164,115.803,118.903,115.426,120.67z"/>
		</g>
	</g>
</g>
<g>
	<path fill="#683B11" d="M74.109,59.391c0.062,6.339,0,96.447,0,96.447l-3.969,17.744h32.213v-25.363l0-70.25L74.109,59.391z"/>
</g>
<g>
	<path fill="#00A070" d="M119.547,0.301c-1.363,0-2.709,0.071-4.041,0.191c-5.304-9.292-15.3-15.56-26.765-15.56
		c-16.346,0-29.711,12.729-30.737,28.817c-0.177-0.004-0.352-0.014-0.529-0.014c-17.016,0-30.809,13.793-30.809,30.808
		c0,17.017,13.793,30.809,30.809,30.809c9.1,0,17.274-3.947,22.914-10.221c7.409,14.063,22.16,23.656,39.158,23.656
		c24.436,0,44.244-19.809,44.244-44.244S143.983,0.301,119.547,0.301z"/>
</g>
<g>
	<path fill="#F4D9BE" d="M77.692,130.799c-0.129-0.648-2.111-0.689-2.111-0.689s0.624-0.229,1.137-0.52
		c0.433-0.244,0.716-0.859,0.325-1.658c-0.227-0.465-2.01-0.127-3.452,0.236c0-0.496,0-1.205,0-1.543
		c0-0.549-0.778-1.662-1.878-1.314c-1.099,0.35,0,3.385,0,3.385c-2.658,4.512,0.291,7.572,0.291,7.572s1.069,0.084,2.309,0.213
		c1.241,0.129,1.507-0.256,1.507-0.91c0-0.186-0.181-0.346-0.434-0.479c0.01-0.004,0.021-0.006,0.034-0.01
		c1.818-0.52,2.11-0.877,2.072-1.857c-0.024-0.607-1.559-0.725-1.559-0.725s0.604-0.242,1.012-0.277
		C77.714,132.158,77.823,131.451,77.692,130.799z"/>
</g>
<g>
	<path fill="#F4D9BE" d="M104.811,137.44c0,0,1.101-3.033,0-3.383c-1.1-0.35-1.879,0.766-1.879,1.312c0,0.34,0,1.049,0,1.543
		c-1.441-0.361-3.223-0.701-3.45-0.234c-0.391,0.799-0.106,1.412,0.324,1.656c0.512,0.291,1.138,0.521,1.138,0.521
		s-1.982,0.039-2.113,0.689c-0.129,0.65-0.021,1.357,0.748,1.424c0.409,0.033,1.015,0.279,1.015,0.279s-1.536,0.113-1.561,0.721
		c-0.037,0.98,0.253,1.338,2.074,1.859c0.01,0.002,0.021,0.006,0.032,0.01c-0.254,0.133-0.434,0.291-0.434,0.477
		c0,0.654,0.267,1.039,1.505,0.91c1.24-0.129,2.312-0.213,2.312-0.213S107.471,141.955,104.811,137.44z"/>
</g>
<g>
	<path fill="#F4D9BE" d="M206.67,86.806c-0.068,0-0.135,0.006-0.199,0.011c-1.34-9.354-9.377-16.54-19.098-16.54
		c-9.736,0-17.783,7.213-19.104,16.586c-0.209-0.035-0.422-0.057-0.641-0.057c-2.248,0-4.072,1.823-4.072,4.073
		c0,2.249,1.824,4.073,4.072,4.073c0.404,0,0.795-0.061,1.164-0.172c1.619,5.786,5.871,10.461,11.377,12.681v6.206h15.316v-6.596
		c5.029-2.338,8.889-6.772,10.436-12.191c0.242,0.047,0.492,0.072,0.748,0.072c2.248,0,4.072-1.824,4.072-4.073
		C210.742,88.63,208.918,86.806,206.67,86.806z"/>
</g>
<g>
	<polygon fill="#134294" points="173.987,157.842 180.17,191.26 190.229,189.569 192.008,174.551 197.039,189.145 206.199,188.299 
		206.67,156 	"/>
</g>
<g>
	<polygon fill="#F4D9BE" points="180.17,191.26 186.348,218.756 190.164,218.756 190.229,189.569 	"/>
</g>
<g>
	<polygon fill="#F4D9BE" points="206.199,188.299 203.703,216.219 200.53,216.219 197.039,189.145 	"/>
</g>
<g>
	<polygon fill="#E4133A" points="211.77,115.012 206.67,115.012 195.487,113.668 180.17,113.668 168.315,114.301 163.557,116.469 
		165.936,129.793 170.313,128.268 173.987,157.842 206.67,156 206.67,135.756 206.67,128.207 210.742,128.207 	"/>
</g>
<g>
	<polygon fill="#DDE6EB" points="184.574,210.869 190.328,210.869 190.164,218.756 186.348,218.756 	"/>
</g>
<g>
	<polygon fill="#134294" points="185.123,213.313 190.278,213.313 190.278,212.678 184.981,212.678 	"/>
</g>
<g>
	<polygon fill="#134294" points="185.334,214.369 190.278,214.369 190.278,213.737 185.199,213.737 	"/>
</g>
<g>
	<polygon fill="#DDE6EB" points="199.84,210.869 204.266,210.869 204.104,218.756 200.93,218.756 	"/>
</g>
<g>
	<polygon fill="#134294" points="200.147,213.313 204.223,213.313 204.223,212.678 200.051,212.678 	"/>
</g>
<g>
	<polygon fill="#134294" points="200.291,214.369 204.223,214.369 204.223,213.737 200.211,213.737 	"/>
</g>
<g>
	<path fill="#134294" d="M192.311,216.83c-0.74,0-2.127,1.049-2.127,1.049l0.021,1.348c-0.115-0.18-0.83-1.242-1.701-1.34
		c-0.953-0.105-2.156,0.869-2.156,0.869v2.305l3.881-0.424c0,0,2.4-1.373,3.033-2.326C193.897,217.36,193.051,216.83,192.311,216.83
		z"/>
</g>
<g>
	<path fill="#134294" d="M204.104,218.756c0,0-0.266-0.781-1.217-0.877c-0.619-0.064-1.256,0.324-1.629,0.605
		c-0.73-0.496-2.377-1.572-3.025-1.654c-0.846-0.105-1.857,0.951-1.193,1.904c0.666,0.951,3.891,1.48,3.891,1.48h3.336
		L204.104,218.756z"/>
</g>
<g>
	<path fill="#F29100" d="M205.446,80.66c0,0-4.689-8.882-13.002-10.709c0.021-0.239,0.039-0.491,0.053-0.75
		c0.166-0.361,0.402-0.736,0.766-1.059c0.834-0.738,2.088-1.021,3.723-0.835c0.26,0.031,0.52-0.166,0.553-0.441
		c0.031-0.273-0.168-0.521-0.441-0.553c-1.93-0.221-3.451,0.148-4.508,1.091c-0.035,0.031-0.061,0.066-0.094,0.1
		c-0.109-1.777-0.609-3.539-2.059-4.195c-0.252-0.11-0.549-0.002-0.662,0.25s-0.002,0.548,0.25,0.662
		c1.297,0.586,1.553,2.775,1.473,4.758c-0.111,0.278-0.184,0.537-0.236,0.77c-0.461-0.061-0.93-0.106-1.41-0.12
		c-12.271-0.355-16.859,5.757-20.311,11.546c0,0-2.756,4.28,0,8.537c0.863,1.336,0.926,1.262,0.926,1.262l2.244,9.245l29.033,2.208
		c0,0,4.17-8.318,4.443-14.205C207.592,84.409,205.446,80.66,205.446,80.66z M201.537,81.205l0.338-0.047l0.082,0.326
		C201.819,81.39,201.68,81.297,201.537,81.205z"/>
</g>
<g>
	<path fill="#F4D9BE" d="M175.699,154.469c0-2.439-3.023-5.324-3.023-5.324l0,0l-9.119-10.361l2.008-11.07l-1.49-8.336l-0.188-1.066
		l-6.498,20.787l14.123,15.371v1.963l3.141,5.012l-0.322-3.234C174.77,157.678,175.699,156.334,175.699,154.469z"/>
</g>
<g>
	<path fill="#F4D9BE" d="M208.293,154.733l-0.092-0.5l14.037-16.189l-10.469-21.574l-0.891,9.986l4.617,10.512l-8.826,11.443v0.463
		c-0.846,0.918-2.564,3.01-2.564,4.85c0,2.438,1.598,3.998,1.598,3.998l0.967,2.953l2.314-3.619c0,0-0.42-0.938-0.93-2.047
		L208.293,154.733z"/>
</g>
<g>
	<path fill="#FFFFFF" d="M184.301,141.608v-10.414h-1.738v-1.426c0.488-0.057,0.955-0.242,1.398-0.555
		c0.441-0.314,0.76-0.693,0.955-1.139h1.424v13.533H184.301z"/>
	<path fill="#FFFFFF" d="M189.002,136.633l3.605-8.57h2.041v8.57h1.305v2.051h-1.305v2.914h-2.041v-2.914h-3.605V136.633z
		 M192.608,136.633v-4.229l-1.684,4.229H192.608z"/>
</g>
</svg>
