<?xml version="1.0" encoding="utf-8"?>
<!-- Generator: Adobe Illustrator 16.0.0, SVG Export Plug-In . SVG Version: 6.00 Build 0)  -->
<!DOCTYPE svg PUBLIC "-//W3C//DTD SVG 1.1//EN" "http://www.w3.org/Graphics/SVG/1.1/DTD/svg11.dtd">
<svg version="1.1" id="Layer_1" xmlns="http://www.w3.org/2000/svg" xmlns:xlink="http://www.w3.org/1999/xlink" x="0px" y="0px"
	 width="279.885px" height="226.77px" viewBox="0 0 279.885 226.77" enable-background="new 0 0 279.885 226.77"
	 xml:space="preserve">
<g>
	<path fill="#D4A56E" d="M193.822,136.006l-2.223,5.636c-1.695,0.074-5.523,0.418-4.09,2.031c1.822,2.049,6.137,1.293,6.137,1.293
		l1.52-0.335l6.402-8.288L193.822,136.006z"/>
	<path fill="#D4A56E" d="M129.358,141.814l-2.68,0.611l1.345,4.425c-1.827,0.111-4.995,2.22-3.671,3.71
		c0.893,1.004,1.312,1.326,3.429,1.317c0.951-0.004,2.412-0.834,2.412-0.834l1.73-0.755l2.756-9.973l-2.006,0.665L129.358,141.814z"
		/>
	<g>
		<path fill="#5B3926" d="M229.804,110.021c-1.525,0-2.83-1.158-2.98-2.708c-0.248-2.529,1.844-3.197,4.059-3.904
			c4.822-1.539,19.494-6.223,22.418-16.246c1.816-6.228-1.023-13.903-8.439-22.812c-1.061-1.273-0.887-3.165,0.387-4.225
			c1.273-1.062,3.164-0.887,4.225,0.387c8.771,10.537,11.998,20.069,9.588,28.33c-3.818,13.089-20.189,18.314-26.354,20.282
			c-0.459,0.146-0.965,0.308-1.262,0.412c-0.391,0.255-0.848,0.422-1.344,0.47C230.001,110.016,229.902,110.021,229.804,110.021z"/>
	</g>
	<circle fill="#E0B475" cx="52.409" cy="127.079" r="1.533"/>
	<circle fill="#E0B475" cx="57.009" cy="111.595" r="1.533"/>
	<circle fill="#E0B475" cx="44.177" cy="113.835" r="1.534"/>
	<circle fill="#E0B475" cx="42.644" cy="134.156" r="1.534"/>
	<circle fill="#E0B475" cx="40.233" cy="124.404" r="1.534"/>
	<circle fill="#E0B475" cx="57.009" cy="119.062" r="1.533"/>
	<circle fill="#E0B475" cx="63.202" cy="125.937" r="1.533"/>
	<path fill="#E0B475" d="M221.665,92.575c-9.824-4.393-73.014-4.818-73.014-4.818h-10.246c0,0-18.067,11.997-31.746,10.981
		c-13.678-1.016-33.229-0.917-33.229-0.917s-17.647,20.631,3.804,35.724c21.45,15.094,52.929,11.046,57.443,7.978
		c1.055-0.717,2.398-2.352,3.838-4.427c1.053,0.03,2.396,0.053,3.967,0.068l0.637,15.121c-1.605,0.848-3.111,2.049-2.027,3.268
		c2,2.25,5.986,0.712,5.986,0.712l1.551-0.405h0.371l4.271-18.667c17.814-0.034,43.598-0.332,48.562-0.206
		c2.422,0.062,4.631-0.042,6.666-0.27v14.604c-1.631,0.608-5.83,2.404-4.205,4.232c2,2.25,5.988,0.712,5.988,0.712l1.551-0.405
		l10.828-24.421l0,0c5.607-4.453,7.125-10.521,7.172-14.081C229.915,111.111,231.491,96.968,221.665,92.575z"/>
	<g>
		<path fill="#575756" d="M124.793,113.909c-0.318,0-0.643-0.018-0.973-0.055c-3.057-0.352-5.736-2.32-7.965-5.848
			c-0.441-0.699-0.232-1.625,0.467-2.068c0.703-0.441,1.629-0.232,2.07,0.467c1.719,2.723,3.662,4.227,5.771,4.469
			c3.228,0.371,6.03-2.299,6.06-2.326c0.588-0.582,1.539-0.574,2.121,0.016c0.58,0.59,0.574,1.541-0.016,2.121
			C132.185,110.825,129.003,113.909,124.793,113.909z"/>
	</g>
	<circle fill="#5B3926" cx="69.958" cy="99.746" r="7.274"/>
	<path fill="#35A8E0" d="M156.652,119.747l0.031-1.262c0,0,2-5.838-0.033-12.958c-2.939-10.29-7.193-17.771-7.193-17.771h-11.051
		c0,0,9.277,12.438,10.594,19.264c1.311,6.803,0.461,10.605,0.455,10.631c-2.078,6.652-11.123,19.71-11.123,19.71h10.047
		l8.271-17.609l0,0L156.652,119.747z"/>
	<ellipse fill="#1D70B7" cx="45.711" cy="157.825" rx="28.432" ry="5.779"/>
	<path fill="#35A8E0" d="M25.973,144.334c0,0,12.198,4.887,20.747,3.882c8.55-1.006,19.19-3.882,19.19-3.882l2.313,12.55
		c0,0-13.771,4.908-28.699,3.4c-14.93-1.509-18.18-3.4-18.18-3.4L25.973,144.334z"/>
	<ellipse fill="#1D70B7" stroke="#35A8E0" stroke-miterlimit="10" cx="45.541" cy="144.337" rx="21.227" ry="4.314"/>
	<path fill="#FFE28E" d="M42.125,148.087l11.981-9.503c0,0-1.458-1.924-0.449-3.766c1.009-1.841,2.197-3.008,4.596-1.513
		c2.398,1.494,1.732,4.577,1.732,4.577s2.421-1.796,4.149,0.806c1.555,2.345-0.103,3.406-1.337,4.507
		c-2.089,1.863-4.744-0.411-4.744-0.411l-5,5.085C53.053,147.869,46.537,148.39,42.125,148.087z"/>
	<circle fill="#95CFC4" cx="146.003" cy="132.451" r="1.576"/>
	<circle fill="#95CFC4" cx="148.288" cy="127.519" r="1.576"/>
	<circle fill="#95CFC4" cx="151.531" cy="120.64" r="1.576"/>
	<circle fill="#95CFC4" cx="153.107" cy="113.486" r="1.576"/>
	<circle fill="#95CFC4" cx="151.531" cy="105.714" r="1.576"/>
	<circle fill="#95CFC4" cx="149.954" cy="98.17" r="1.576"/>
	<circle fill="#95CFC4" cx="146.835" cy="91.611" r="1.576"/>
	<path fill="#5B3926" d="M138.132,87.645c8.291-6.107,13.99,1.002,17.783,7.717c4.268,7.559,30.357,28.622,14.967,38.901
		C152.103,146.807,129.843,93.753,138.132,87.645z"/>
	<path fill="#95CFC4" d="M144.659,137.362c0.006-0.056,0.018-0.109,0.018-0.167c0-0.87-0.705-1.576-1.576-1.576
		s-1.576,0.706-1.576,1.576c0,0.058,0.01,0.111,0.016,0.167H144.659z"/>
</g>
</svg>
