<?xml version="1.0" encoding="utf-8"?>
<!-- Generator: Adobe Illustrator 16.0.0, SVG Export Plug-In . SVG Version: 6.00 Build 0)  -->
<!DOCTYPE svg PUBLIC "-//W3C//DTD SVG 1.1//EN" "http://www.w3.org/Graphics/SVG/1.1/DTD/svg11.dtd">
<svg version="1.1" id="Layer_1" xmlns="http://www.w3.org/2000/svg" xmlns:xlink="http://www.w3.org/1999/xlink" x="0px" y="0px"
	 width="226.77px" height="226.77px" viewBox="0 0 226.77 226.77" enable-background="new 0 0 226.77 226.77" xml:space="preserve">
<g>
	<g>
		<g>
			<polygon fill="#F4F2E7" points="97.835,136.175 108.869,130.858 108.869,172.217 97.27,178.268 			"/>
		</g>
		<g>
			<g>
				<rect x="55.177" y="136.541" fill="#F4F2E7" width="42.093" height="42.093"/>
				<path fill="#575756" d="M97.27,179.634H55.177c-0.552,0-1-0.447-1-1v-42.093c0-0.553,0.448-1,1-1H97.27c0.552,0,1,0.447,1,1
					v42.093C98.27,179.187,97.822,179.634,97.27,179.634z M56.177,177.634H96.27v-40.093H56.177V177.634z"/>
			</g>
			<g>
				<polygon fill="#F4F2E7" points="97.27,136.541 55.177,136.541 66.777,130.49 108.869,130.49 				"/>
				<path fill="#575756" d="M97.27,137.541H55.177c-0.46,0-0.862-0.314-0.971-0.762c-0.11-0.447,0.101-0.912,0.509-1.125l11.6-6.051
					c0.143-0.074,0.301-0.113,0.462-0.113h42.093c0.46,0,0.862,0.314,0.971,0.762c0.11,0.447-0.101,0.912-0.509,1.125l-11.6,6.051
					C97.59,137.502,97.431,137.541,97.27,137.541z M59.256,135.541h37.769l7.766-4.051H67.022L59.256,135.541z"/>
			</g>
			<g>
				<path fill="#575756" d="M97.732,179.521l-0.925-1.773l11.062-5.771V130.49h2v42.093c0,0.373-0.207,0.714-0.538,0.887
					L97.732,179.521z"/>
			</g>
			<g>
				<path fill="#575756" d="M76.16,150.728l-3.587,1.84l-1.349-2.36l5.579-3.465h3.005v16.983l3.188,0.153v2.605H72.328v-2.514
					l2.943-0.184c0.582-0.031,0.889-0.245,0.889-1.012V150.728z"/>
			</g>
		</g>
	</g>
	<g>
		<g>
			<polygon fill="#F4F2E7" points="151.478,136.175 162.512,130.858 162.512,172.217 150.912,178.268 			"/>
		</g>
		<g>
			<g>
				<rect x="108.82" y="136.541" fill="#F4F2E7" width="42.093" height="42.093"/>
				<path fill="#575756" d="M150.912,179.634H108.82c-0.552,0-1-0.447-1-1v-42.093c0-0.553,0.448-1,1-1h42.093c0.553,0,1,0.447,1,1
					v42.093C151.912,179.187,151.465,179.634,150.912,179.634z M109.82,177.634h40.093v-40.093H109.82V177.634z"/>
			</g>
			<g>
				<polygon fill="#F4F2E7" points="150.912,136.541 108.82,136.541 120.419,130.49 162.512,130.49 				"/>
				<path fill="#575756" d="M150.912,137.541H108.82c-0.46,0-0.862-0.314-0.971-0.762c-0.11-0.447,0.1-0.912,0.509-1.125
					l11.599-6.051c0.144-0.074,0.302-0.113,0.463-0.113h42.093c0.461,0,0.861,0.314,0.972,0.762
					c0.109,0.447-0.101,0.912-0.509,1.125l-11.6,6.051C151.232,137.502,151.073,137.541,150.912,137.541z M112.899,135.541h37.769
					l7.766-4.051h-37.769L112.899,135.541z"/>
			</g>
			<g>
				<path fill="#575756" d="M151.375,179.521l-0.926-1.773l11.062-5.771V130.49h2v42.093c0,0.373-0.207,0.714-0.537,0.887
					L151.375,179.521z"/>
			</g>
			<g>
				<path fill="#575756" d="M125.325,164.124l6.101-7.694c1.44-1.84,2.146-2.637,2.146-4.384c0-1.778-1.134-2.637-2.575-2.637
					c-0.858,0-1.379,0.093-1.839,0.246c-0.552,0.184-0.613,0.49-0.613,1.072v2.177l-3.127-0.215v-4.904
					c1.595-0.797,3.862-1.441,6.192-1.441c3.771,0,5.824,2.207,5.824,5.457c0,2.023-0.98,3.862-2.605,5.824l-4.936,5.824h7.664
					v3.035h-12.231V164.124z"/>
			</g>
		</g>
	</g>
	<g>
		<g>
			<polygon fill="#F4F2E7" points="157.425,94.081 168.459,88.765 168.459,130.124 156.86,136.175 			"/>
		</g>
		<g>
			<g>
				<rect x="114.767" y="94.448" fill="#F4F2E7" width="42.093" height="42.094"/>
				<path fill="#575756" d="M156.86,137.541h-42.093c-0.553,0-1-0.447-1-1V94.448c0-0.552,0.447-1,1-1h42.093c0.553,0,1,0.448,1,1
					v42.094C157.86,137.094,157.412,137.541,156.86,137.541z M115.767,135.541h40.093V95.448h-40.093V135.541z"/>
			</g>
			<g>
				<polygon fill="#F4F2E7" points="156.86,94.448 114.767,94.448 126.366,88.398 168.459,88.398 				"/>
				<path fill="#575756" d="M156.86,95.448h-42.093c-0.461,0-0.861-0.314-0.971-0.762c-0.11-0.448,0.1-0.912,0.508-1.125l11.6-6.05
					c0.144-0.074,0.302-0.113,0.463-0.113h42.093c0.461,0,0.861,0.314,0.972,0.762c0.109,0.448-0.101,0.912-0.509,1.125l-11.6,6.05
					C157.179,95.408,157.021,95.448,156.86,95.448z M118.847,93.448h37.768l7.765-4.05h-37.768L118.847,93.448z"/>
			</g>
			<g>
				<path fill="#575756" d="M157.323,137.428l-0.926-1.773l11.062-5.771V88.398h2v42.093c0,0.373-0.207,0.714-0.537,0.887
					L157.323,137.428z"/>
			</g>
			<g>
				<path fill="#575756" d="M137.746,112.957c1.072-0.674,1.84-1.717,1.84-3.28c0-1.502-0.889-2.36-2.668-2.36
					c-0.857,0-1.439,0.153-1.9,0.307c-0.551,0.185-0.613,0.491-0.613,1.073v2.207l-3.127-0.215v-4.904
					c1.594-0.797,3.801-1.533,6.254-1.533c3.893,0,5.795,2.115,5.795,4.905c0,2.207-1.197,3.985-2.791,4.997
					c2.514,0.797,3.096,2.728,3.096,4.353c0,3.587-2.145,6.284-6.928,6.284c-2.391,0-4.812-0.767-6.008-1.532l1.072-2.913
					c1.318,0.736,3.281,1.35,4.814,1.35c1.961,0,3.34-0.798,3.34-2.974c0-1.962-1.133-2.974-4.443-2.974h-1.166l0.275-2.79H137.746z
					"/>
			</g>
		</g>
	</g>
	<g>
		<g>
			<polygon fill="#F4F2E7" points="143.152,51.859 154.186,46.541 154.186,87.901 142.586,93.951 			"/>
		</g>
		<g>
			<g>
				<rect x="100.493" y="52.224" fill="#F4F2E7" width="42.093" height="42.094"/>
				<path fill="#575756" d="M142.586,95.318h-42.093c-0.552,0-1-0.448-1-1V52.224c0-0.552,0.448-1,1-1h42.093c0.553,0,1,0.448,1,1
					v42.094C143.586,94.87,143.139,95.318,142.586,95.318z M101.493,93.318h40.093V53.224h-40.093V93.318z"/>
			</g>
			<g>
				<polygon fill="#F4F2E7" points="142.586,52.224 100.493,52.224 112.093,46.173 154.186,46.173 				"/>
				<path fill="#575756" d="M142.586,53.224h-42.093c-0.46,0-0.862-0.314-0.971-0.762c-0.11-0.448,0.1-0.912,0.509-1.125l11.6-6.051
					c0.143-0.074,0.301-0.113,0.462-0.113h42.093c0.461,0,0.861,0.314,0.972,0.762c0.109,0.448-0.101,0.912-0.509,1.125l-11.6,6.051
					C142.906,53.185,142.747,53.224,142.586,53.224z M104.573,51.224h37.769l7.766-4.051h-37.769L104.573,51.224z"/>
			</g>
			<g>
				<path fill="#575756" d="M143.049,95.204l-0.926-1.773l11.062-5.771V46.173h2v42.094c0,0.373-0.207,0.714-0.537,0.887
					L143.049,95.204z"/>
			</g>
			<g>
				<path fill="#575756" d="M127.966,68.006v5.732h2.729v2.912h-2.76v2.759l2.545,0.153v2.605h-9.013v-2.514l1.9-0.153
					c0.521-0.03,0.89-0.215,0.89-0.858v-2.023h-7.848v-2.544l5.763-12.108l2.912,1.44l-4.936,10.331h4.384v-1.656l1.288-4.076
					H127.966z"/>
			</g>
		</g>
	</g>
</g>
</svg>
