<?xml version="1.0" encoding="utf-8"?>
<!-- Generator: Adobe Illustrator 16.0.0, SVG Export Plug-In . SVG Version: 6.00 Build 0)  -->
<!DOCTYPE svg PUBLIC "-//W3C//DTD SVG 1.1//EN" "http://www.w3.org/Graphics/SVG/1.1/DTD/svg11.dtd">
<svg version="1.1" id="Layer_1" xmlns="http://www.w3.org/2000/svg" xmlns:xlink="http://www.w3.org/1999/xlink" x="0px" y="0px"
	 width="226.77px" height="226.77px" viewBox="0 0 226.77 226.77" enable-background="new 0 0 226.77 226.77" xml:space="preserve">
<g>
	<path fill="#5B3926" d="M111.382,110.922c-1.992,2.814-3.964,5.757-5.896,8.82c-10.82,17.153-13.208,14.227-16.952,11.333
		c-6.802-5.257-8.678-20.18-8.678-20.18s-3.067-0.047-11.513-0.838c-8.445-0.79-27.094,1.232-27.094,1.232l-1.584,8.268
		c0,0-3.296,15.116,7.51,37.653c6,12.514,37.08,16.868,55.811-1.636c10.295-10.17,17.873-24.318,23.04-34.892L111.382,110.922z"/>
	<path fill="#E0B475" d="M74.686,109.089c-5.902-1.056-22.265,0-25.959,0s-10.058,0.983-7.757,3.658c0,0,4.238,1.973,13.035,2.852
		c8.796,0.88,13.02,0.88,18.473,0c5.454-0.879,8.124-1.394,7.977-2.852C80.307,111.29,80.589,110.145,74.686,109.089z
		 M66.672,114.105c-5.454,0.527-16.274-1.665-16.274-1.665c-2.133-0.398-1.495-1.59-0.352-1.61s10.204,0.195,13.29,0.108
		c3.086-0.088,11.956-0.44,12.837,0.879C77.052,113.136,72.126,113.576,66.672,114.105z"/>
	<path fill="#E0B475" d="M186.205,72.379c-0.634,0-1.14,0.451-1.274,1.045h-3.445c0,0-27.334-1.735-42.856,8.709
		c-8.79,5.914-18.845,16.654-28.332,30.345c4.222,3.214,9.664,7.087,14.896,9.896c1.887-3.802,3.482-7.222,4.793-9.935
		c3.166-6.551,13.5-21.783,21.549-25.364c6.667-2.966,27.825-6.288,33.338-7.119v0.09c0,0.736,0.597,1.333,1.333,1.333
		s1.333-0.597,1.333-1.333v-6.334C187.538,72.976,186.942,72.379,186.205,72.379z"/>
	<path fill="#DDE6EB" d="M77.783,78.1c3.152-3.09,3.463-8.134,0.593-11.588c-2.184-2.628-5.605-3.61-8.71-2.822
		c0.253-2.883-0.584-5.862-2.578-8.264c-4.013-4.829-11.182-5.493-16.012-1.481c-3.041,2.527-4.426,6.304-4.038,9.961
		c-1.255,0.437-2.457,1.086-3.539,1.985c-4.83,4.012-5.492,11.183-1.48,16.014c1.327,1.595,2.998,2.725,4.813,3.392
		c0.064,0.381,0.163,0.757,0.266,1.132c-0.197,0.865-0.311,1.762-0.311,2.687c0,6.663,5.401,12.064,12.064,12.064
		c3.597,0,6.816-1.582,9.027-4.078c1.309-0.706,2.189-1.521,2.354-2.272C84.947,95.428,82.788,78.804,77.783,78.1z"/>
</g>
</svg>
