<?xml version="1.0" encoding="utf-8"?>
<!-- Generator: Adobe Illustrator 16.0.0, SVG Export Plug-In . SVG Version: 6.00 Build 0)  -->
<!DOCTYPE svg PUBLIC "-//W3C//DTD SVG 1.1//EN" "http://www.w3.org/Graphics/SVG/1.1/DTD/svg11.dtd">
<svg version="1.1" id="Layer_1" xmlns="http://www.w3.org/2000/svg" xmlns:xlink="http://www.w3.org/1999/xlink" x="0px" y="0px"
	 width="226.77px" height="226.77px" viewBox="0 0 226.77 226.77" enable-background="new 0 0 226.77 226.77" xml:space="preserve">
<g>
	<path fill="#F4A993" d="M145.177,163.335l-12.527-0.485l2.213-0.495c0.809-0.181,1.317-0.982,1.137-1.791s-0.982-1.316-1.791-1.137
		l-9.958,2.226v-15.829c0-0.828-0.672-1.5-1.5-1.5s-1.5,0.672-1.5,1.5v16.788l-0.011,0.006c-0.03,0.016-0.063,0.029-0.093,0.047
		l-4.896,2.53c-0.736,0.381-1.024,1.286-0.645,2.021c0.267,0.516,0.791,0.812,1.334,0.812c0.232,0,0.468-0.054,0.688-0.167
		l4.663-2.41l0.04,0.001c0.133,0.132,0.292,0.242,0.476,0.319l15.96,6.657c0.188,0.078,0.384,0.115,0.576,0.115
		c0.588,0,1.146-0.347,1.386-0.923c0.318-0.765-0.043-1.643-0.808-1.962l-9.315-3.886l14.454,0.561
		c0.021,0.001,0.04,0.001,0.06,0.001c0.802,0,1.467-0.634,1.498-1.441C146.65,164.065,146.004,163.367,145.177,163.335z"/>
	<path fill="#F7BEAA" d="M139.367,173.488l-12.526-0.486l2.211-0.494c0.809-0.181,1.317-0.982,1.137-1.791s-0.979-1.316-1.791-1.137
		l-9.958,2.226v-15.829c0-0.828-0.672-1.5-1.5-1.5s-1.5,0.672-1.5,1.5v16.784c-0.041,0.021-0.082,0.041-0.121,0.066l-4.877,2.521
		c-0.736,0.38-1.024,1.285-0.644,2.021c0.266,0.516,0.79,0.812,1.333,0.812c0.232,0,0.468-0.054,0.688-0.168l4.664-2.41l0.039,0.001
		c0.133,0.132,0.292,0.243,0.476,0.319l15.961,6.656c0.188,0.078,0.384,0.115,0.576,0.115c0.588,0,1.146-0.347,1.386-0.923
		c0.318-0.765-0.043-1.643-0.808-1.962l-9.314-3.885l14.452,0.562c0.021,0.001,0.04,0.001,0.06,0.001
		c0.802,0,1.467-0.634,1.498-1.441C140.84,174.217,140.195,173.52,139.367,173.488z"/>
	<path fill="#E4133A" d="M169.303,46.285c-0.207,0-0.412,0.011-0.614,0.031c-0.758-2.554-3.118-4.418-5.917-4.418
		c-2.263,0-4.234,1.221-5.31,3.035c-1.034-0.78-2.316-1.249-3.712-1.249c-3.41,0-6.174,2.766-6.174,6.175
		c0,3.41,2.764,6.174,6.174,6.174c2.262,0,4.234-1.221,5.31-3.035c1.034,0.781,2.316,1.249,3.712,1.249
		c0.207,0,0.412-0.011,0.614-0.031c0.757,2.554,3.118,4.418,5.917,4.418c3.41,0,6.174-2.764,6.174-6.174
		S172.713,46.285,169.303,46.285z"/>
	<path fill="#FCE4DB" d="M158.426,51.168c-6.149-0.292-10.543,3.808-14.348,8.787c-3.809,4.977-10.836,20.206-10.836,20.206
		s-2.344,1.464-6.736,2.343c-4.392,0.878-8.785,5.857-10.542,6.735c-1.758,0.878,0,0-5.392-0.586
		c-5.391-0.586-15.4-3.222-20.965-12.592c-5.085-8.565-3.812-18.095-3.108-23.697c0.341-0.766,0.534-1.612,0.534-2.505
		c0-3.41-2.765-6.175-6.174-6.175c-3.41,0-6.175,2.765-6.175,6.175c0,0.93,0.212,1.809,0.58,2.6l-0.218-0.107
		c-1.125-1.51-2.919-2.492-4.947-2.492c-3.41,0-6.174,2.765-6.174,6.175c0,1.046,0.262,2.03,0.722,2.894
		c-0.004,0.197-0.001,0.39,0.007,0.575c-0.605-0.198-1.251-0.31-1.923-0.31c-3.409,0-6.175,2.765-6.175,6.175
		c0,1.191,0.344,2.301,0.929,3.244c0.046,0.985,0.152,1.958,0.257,2.721c-0.384-0.074-0.779-0.116-1.186-0.116
		c-3.409,0-6.174,2.765-6.174,6.175c0,2.464,1.446,4.583,3.532,5.574c0.247,0.395,0.502,0.769,0.75,1.112
		c-0.013,0-0.024-0.002-0.036-0.002c-3.409,0-6.174,2.765-6.174,6.175s2.765,6.174,6.174,6.174c0.107,0,0.211-0.011,0.316-0.016
		c0.306,0.424,0.579,0.828,0.8,1.204c-3.024,0.398-5.362,2.98-5.362,6.115c0,3.256,2.522,5.916,5.718,6.15
		c1.892,1.449,4.492,2.184,4.6,2.411c-3.361,0.056-6.071,2.794-6.071,6.17c0,3.41,2.765,6.174,6.174,6.174
		c1.104,0,2.138-0.293,3.034-0.8c2.495,1.364,4.978,2.304,4.978,2.304s5.565,6.149,8.492,11.129
		c2.93,4.978,20.207,12.006,20.207,12.006s5.857,3.222,15.229,6.15c9.372,2.928,17.57-6.736,17.57-6.736s7.322-1.757,16.4-7.027
		c9.078-5.272,16.691-22.843,18.449-27.821c1.758-4.978,1.465-14.35,0.878-17.57c-0.585-3.223-2.636-26.064-2.636-26.064
		s2.783-0.554,4.508-1.662c1.965-1.264,1.954-0.489,2.541-5.761C171.039,57.509,164.576,51.461,158.426,51.168z"/>
	<polygon fill="#EB6338" points="170.418,60.193 174.416,63.261 170.282,65.368 170.188,64.906 170.469,62.235 	"/>
	<g>
		<path fill="#F7BEAA" d="M158.426,51.071c-6.149-0.293-10.543,3.808-14.348,8.786c-3.809,4.978-10.836,20.205-10.836,20.205
			s-2.344,1.465-6.736,2.344c-0.656,0.132-1.312,0.362-1.959,0.649c-1.521,2.92-2.144,6.012,0.787,7.844
			c3.516,2.049,7.615-0.587,9.957-2.929c1.172,2.929,0.293,12.299,5.271,12.885c3.516,0.292,4.394-5.271,4.979-7.907
			c2.929,2.344,4.394,12.008,10.25,10.25c2.928-0.879,3.221-5.271,3.221-7.906c2.176,2.899,3.957,7.188,7.475,8.437
			c0.037-3.15-0.17-6.039-0.446-7.559c-0.585-3.222-2.636-26.063-2.636-26.063s1.469,0.396,3.341-0.439
			c1.571-0.7,3.354-1.249,3.981-6.882C171.313,57.513,164.576,51.364,158.426,51.071z"/>
	</g>
	<g>
		<path fill="#575756" d="M160.192,64.261c-0.181,0-0.361-0.01-0.543-0.03c-3.137-0.349-5.025-3.652-5.104-3.793
			c-0.271-0.481-0.099-1.091,0.383-1.361c0.479-0.271,1.09-0.101,1.36,0.381c0.02,0.035,1.48,2.558,3.59,2.787
			c1.217,0.134,2.498-0.541,3.812-1.999c0.369-0.412,1.004-0.443,1.412-0.074c0.411,0.37,0.443,1.002,0.074,1.412
			C163.573,63.363,161.899,64.261,160.192,64.261z"/>
	</g>
	<path fill="#E4133A" d="M162.819,69.131c0,0-0.585,6.052,2.344,6.247c2.928,0.195,3.743-1.023,4.1-3.124
		C169.883,68.594,163.307,65.813,162.819,69.131z"/>
</g>
</svg>
