<?xml version="1.0" encoding="utf-8"?>
<!-- Generator: Adobe Illustrator 16.0.0, SVG Export Plug-In . SVG Version: 6.00 Build 0)  -->
<!DOCTYPE svg PUBLIC "-//W3C//DTD SVG 1.1//EN" "http://www.w3.org/Graphics/SVG/1.1/DTD/svg11.dtd">
<svg version="1.1" id="Layer_1" xmlns="http://www.w3.org/2000/svg" xmlns:xlink="http://www.w3.org/1999/xlink" x="0px" y="0px"
	 width="226.77px" height="226.77px" viewBox="0 0 226.77 226.77" enable-background="new 0 0 226.77 226.77" xml:space="preserve">
<g>
	<path fill="#B8C5CE" d="M77.621,112.601c0,0-1.669-21.496,4.7-29.281s20.876-12.738,23.354-12.385c2.477,0.354,2.477,4.6,0,5.661
		c-2.478,1.062-2.478,2.832-0.708,2.478c1.769-0.354,1.592-0.354,2.565,1.415c0.973,1.77-2.564,2.477-2.211,3.538
		s3.347,1.769,2.381,3.185c-0.967,1.416-4.601,14.078-5.863,21.155c-0.632,3.539-3.576,8.883-6.257,13.051
		c-2.063,3.209-4.416,3.75-4.416,3.75s-2.286-1.605-7.244-5.361C77.756,115.134,77.621,112.601,77.621,112.601z"/>
	<path fill="#C5D6E0" d="M87.36,120.364c0,0-16.985-15.569-26.186-14.861c-9.199,0.708-12.738,9.554-12.738,9.554
		s4.246,1.062,8.847,5.308s8.138,6.37,10.615,18.047s8.847,26.538,23,28.661c14.154,2.123,34.323-5.308,34.323-5.308
		s25.83,7.785,28.308,7.785s4.601-1.062,2.831-2.478s-3.893-2.123-3.893-2.123s3.076,0.707,4.546,0s1.007-2.123,0-3.538
		s1.111-1.415,0.937-4.246s-4.066-2.123-4.066-2.123s-6.016,0.354-11.323-1.415s-10.97-2.83-11.323-4.246s2.83-0.708,7.077-1.77
		c4.246-1.062,10.615-4.6,15.923-29.016c5.308-24.415,5.308-30.431,7.431-33.615s3.538-3.538,5.308-4.6s0-3.186,0-4.601
		s-4.246-1.769-4.246-1.769s4.6-0.001,7.431-1.416s5.661-4.837,3.538-6.369s-7.076-1.532-7.076-1.532s3.538-2.005,4.6-3.421
		c1.062-1.416,5.662-6.016-1.77-6.37c-7.431-0.354-20.523,11.324-35.031,20.17c-14.507,8.846-30.784,22.646-34.676,32.199
		C95.852,116.825,93.022,128.148,87.36,120.364z"/>
	<g>
		<path fill="#575756" d="M60.393,115.911c-0.16,0-0.32-0.009-0.481-0.027c-2.752-0.306-4.4-3.189-4.47-3.312
			c-0.271-0.481-0.1-1.091,0.383-1.361c0.478-0.27,1.088-0.1,1.359,0.38l0,0c0.013,0.021,1.227,2.12,2.955,2.308
			c0.996,0.099,2.041-0.452,3.128-1.659c0.37-0.413,1.004-0.443,1.412-0.074c0.411,0.37,0.443,1.002,0.074,1.412
			C63.356,115.127,61.892,115.911,60.393,115.911z"/>
	</g>
</g>
</svg>
